<svg width="217" height="210" viewBox="0 0 217 210" fill="none" xmlns="http://www.w3.org/2000/svg">
<g clip-path="url(#clip0_1006_3353)">
<path d="M61.3179 18H155.772H161.431C167.645 18 172.683 23.0378 172.683 29.2523V34.9529V43.8803H173.808V66.1036H172.683V70.3232V72.0111H173.808V82.9821H172.683V217.715V230.733V231.794C172.683 238.008 167.645 243.046 161.431 243.046H157.871H64.5213H58.1274C50.5497 243.046 44.4069 236.903 44.4072 229.325V225.504V225.443V83.2634H43V59.0709H44.4072V34.9529V29.2523C44.4072 23.0378 49.4451 18 55.6596 18H61.3179Z" fill="#E9EEF5" stroke="#03092D" stroke-linecap="round" stroke-linejoin="round"/>
<path d="M108.543 28.0018C107.369 28.0018 106.417 27.0501 106.417 25.8761C106.417 24.7022 107.369 23.7505 108.543 23.7505C109.717 23.7505 110.668 24.7022 110.668 25.8761C110.668 27.0501 109.717 28.0018 108.543 28.0018Z" fill="#03092D"/>
<path d="M168.182 38.7753V214.227V226.724V230.106C168.182 234.766 164.404 238.545 159.743 238.545H154.41H67.6109H57.3473C52.6863 238.545 48.9079 234.766 48.9081 230.105L48.9083 225.373V221.705V221.646V38.7753V30.9397C48.9083 26.2789 52.6867 22.5005 57.3475 22.5005H64.6322H84.4135C85.9637 22.5005 87.2203 23.7571 87.2203 25.3073C87.2203 29.9578 90.9903 33.7278 95.6408 33.7278H121.205C125.856 33.7278 129.626 29.9578 129.626 25.3073C129.626 23.7571 130.882 22.5005 132.433 22.5005H152.458H159.743C164.404 22.5005 168.182 26.2789 168.182 30.9397V38.7753Z" fill="#FAFAFA" stroke="#03092D" stroke-linecap="round" stroke-linejoin="round"/>
<rect x="58.2963" y="43.7685" width="100.496" height="18.2257" rx="2.42592" stroke="#03092D" stroke-width="0.774306"/>
<path d="M96.3352 56.3813V49.3813H99.1852C99.5652 49.3813 99.9086 49.478 100.215 49.6713C100.529 49.858 100.779 50.1147 100.965 50.4413C101.152 50.768 101.245 51.1313 101.245 51.5313C101.245 51.9313 101.152 52.2947 100.965 52.6213C100.779 52.948 100.529 53.2113 100.215 53.4113C99.9086 53.6047 99.5652 53.7013 99.1852 53.7013H97.4152V56.3813H96.3352ZM97.4152 52.6613H99.1652C99.3452 52.6613 99.5086 52.6113 99.6552 52.5113C99.8019 52.4047 99.9186 52.268 100.005 52.1013C100.099 51.928 100.145 51.738 100.145 51.5313C100.145 51.3247 100.099 51.138 100.005 50.9713C99.9186 50.8047 99.8019 50.6713 99.6552 50.5713C99.5086 50.4713 99.3452 50.4213 99.1652 50.4213H97.4152V52.6613ZM102.413 56.3813V48.9813H103.443V52.2113L103.263 52.3313C103.33 52.098 103.46 51.8847 103.653 51.6913C103.846 51.4913 104.076 51.3313 104.343 51.2113C104.61 51.0847 104.883 51.0213 105.163 51.0213C105.563 51.0213 105.896 51.1013 106.163 51.2613C106.43 51.4147 106.63 51.6513 106.763 51.9713C106.896 52.2913 106.963 52.6947 106.963 53.1813V56.3813H105.933V53.2513C105.933 52.9513 105.893 52.7047 105.813 52.5113C105.733 52.3113 105.61 52.168 105.443 52.0813C105.276 51.988 105.07 51.948 104.823 51.9613C104.623 51.9613 104.44 51.9947 104.273 52.0613C104.106 52.1213 103.96 52.208 103.833 52.3213C103.713 52.4347 103.616 52.568 103.543 52.7213C103.476 52.868 103.443 53.028 103.443 53.2013V56.3813H102.933C102.846 56.3813 102.76 56.3813 102.673 56.3813C102.586 56.3813 102.5 56.3813 102.413 56.3813ZM110.72 56.4813C110.207 56.4813 109.747 56.3647 109.34 56.1313C108.94 55.8913 108.624 55.568 108.39 55.1613C108.157 54.748 108.04 54.278 108.04 53.7513C108.04 53.2247 108.157 52.758 108.39 52.3513C108.624 51.938 108.94 51.6147 109.34 51.3813C109.747 51.1413 110.207 51.0213 110.72 51.0213C111.227 51.0213 111.68 51.1413 112.08 51.3813C112.487 51.6147 112.807 51.938 113.04 52.3513C113.274 52.758 113.39 53.2247 113.39 53.7513C113.39 54.278 113.274 54.748 113.04 55.1613C112.807 55.568 112.487 55.8913 112.08 56.1313C111.68 56.3647 111.227 56.4813 110.72 56.4813ZM110.72 55.5413C111.034 55.5413 111.314 55.4647 111.56 55.3113C111.807 55.1513 112 54.938 112.14 54.6713C112.28 54.398 112.347 54.0913 112.34 53.7513C112.347 53.4047 112.28 53.098 112.14 52.8313C112 52.558 111.807 52.3447 111.56 52.1913C111.314 52.038 111.034 51.9613 110.72 51.9613C110.407 51.9613 110.124 52.0413 109.87 52.2013C109.624 52.3547 109.43 52.568 109.29 52.8413C109.15 53.108 109.084 53.4113 109.09 53.7513C109.084 54.0913 109.15 54.398 109.29 54.6713C109.43 54.938 109.624 55.1513 109.87 55.3113C110.124 55.4647 110.407 55.5413 110.72 55.5413ZM115.163 56.3813V49.7913H116.193V56.3813H115.163ZM114.073 52.1313V51.1313H117.413V52.1313H114.073ZM120.662 56.4813C120.148 56.4813 119.688 56.3647 119.282 56.1313C118.882 55.8913 118.565 55.568 118.332 55.1613C118.098 54.748 117.982 54.278 117.982 53.7513C117.982 53.2247 118.098 52.758 118.332 52.3513C118.565 51.938 118.882 51.6147 119.282 51.3813C119.688 51.1413 120.148 51.0213 120.662 51.0213C121.168 51.0213 121.622 51.1413 122.022 51.3813C122.428 51.6147 122.748 51.938 122.982 52.3513C123.215 52.758 123.332 53.2247 123.332 53.7513C123.332 54.278 123.215 54.748 122.982 55.1613C122.748 55.568 122.428 55.8913 122.022 56.1313C121.622 56.3647 121.168 56.4813 120.662 56.4813ZM120.662 55.5413C120.975 55.5413 121.255 55.4647 121.502 55.3113C121.748 55.1513 121.942 54.938 122.082 54.6713C122.222 54.398 122.288 54.0913 122.282 53.7513C122.288 53.4047 122.222 53.098 122.082 52.8313C121.942 52.558 121.748 52.3447 121.502 52.1913C121.255 52.038 120.975 51.9613 120.662 51.9613C120.348 51.9613 120.065 52.0413 119.812 52.2013C119.565 52.3547 119.372 52.568 119.232 52.8413C119.092 53.108 119.025 53.4113 119.032 53.7513C119.025 54.0913 119.092 54.398 119.232 54.6713C119.372 54.938 119.565 55.1513 119.812 55.3113C120.065 55.4647 120.348 55.5413 120.662 55.5413Z" fill="#03092D"/>
<rect x="62" y="181.133" width="93.704" height="22.3493" rx="11.1747" fill="#2E55EC"/>
<path d="M83.6921 195.808V190.008H81.6921V188.808H87.0521V190.008H84.9921V195.808H83.6921ZM89.1011 195.908C88.6678 195.908 88.2744 195.788 87.9211 195.548C87.5678 195.308 87.2844 194.981 87.0711 194.568C86.8578 194.155 86.7511 193.685 86.7511 193.158C86.7511 192.631 86.8578 192.161 87.0711 191.748C87.2844 191.335 87.5744 191.011 87.9411 190.778C88.3078 190.545 88.7211 190.428 89.1811 190.428C89.4478 190.428 89.6911 190.468 89.9111 190.548C90.1311 190.621 90.3244 190.728 90.4911 190.868C90.6578 191.008 90.7944 191.168 90.9011 191.348C91.0144 191.528 91.0911 191.721 91.1311 191.928L90.8611 191.858V190.538H92.1011V195.808H90.8511V194.548L91.1411 194.498C91.0944 194.678 91.0078 194.855 90.8811 195.028C90.7611 195.195 90.6078 195.345 90.4211 195.478C90.2411 195.605 90.0378 195.708 89.8111 195.788C89.5911 195.868 89.3544 195.908 89.1011 195.908ZM89.4411 194.818C89.7278 194.818 89.9811 194.748 90.2011 194.608C90.4211 194.468 90.5911 194.275 90.7111 194.028C90.8378 193.775 90.9011 193.485 90.9011 193.158C90.9011 192.838 90.8378 192.555 90.7111 192.308C90.5911 192.061 90.4211 191.868 90.2011 191.728C89.9811 191.588 89.7278 191.518 89.4411 191.518C89.1544 191.518 88.9011 191.588 88.6811 191.728C88.4678 191.868 88.3011 192.061 88.1811 192.308C88.0611 192.555 88.0011 192.838 88.0011 193.158C88.0011 193.485 88.0611 193.775 88.1811 194.028C88.3011 194.275 88.4678 194.468 88.6811 194.608C88.9011 194.748 89.1544 194.818 89.4411 194.818ZM94.6771 194.198L94.4371 193.048L96.9371 190.538H98.5771L94.6771 194.198ZM93.5271 195.808V188.408H94.7571V195.808H93.5271ZM97.0871 195.808L95.1471 193.458L96.0171 192.718L98.6071 195.808H97.0871ZM101.661 195.908C101.108 195.908 100.618 195.791 100.191 195.558C99.7712 195.325 99.4412 195.008 99.2012 194.608C98.9679 194.201 98.8512 193.738 98.8512 193.218C98.8512 192.805 98.9179 192.428 99.0512 192.088C99.1845 191.748 99.3679 191.455 99.6012 191.208C99.8412 190.955 100.125 190.761 100.451 190.628C100.785 190.488 101.148 190.418 101.541 190.418C101.888 190.418 102.211 190.485 102.511 190.618C102.811 190.751 103.071 190.935 103.291 191.168C103.511 191.395 103.678 191.668 103.791 191.988C103.911 192.301 103.968 192.645 103.961 193.018L103.951 193.448H99.6812L99.4512 192.608H102.921L102.761 192.778V192.558C102.741 192.351 102.675 192.171 102.561 192.018C102.448 191.858 102.301 191.735 102.121 191.648C101.948 191.555 101.755 191.508 101.541 191.508C101.215 191.508 100.938 191.571 100.711 191.698C100.491 191.825 100.325 192.008 100.211 192.248C100.098 192.481 100.041 192.775 100.041 193.128C100.041 193.468 100.111 193.765 100.251 194.018C100.398 194.271 100.601 194.468 100.861 194.608C101.128 194.741 101.438 194.808 101.791 194.808C102.038 194.808 102.265 194.768 102.471 194.688C102.678 194.608 102.901 194.465 103.141 194.258L103.751 195.108C103.571 195.275 103.365 195.418 103.131 195.538C102.905 195.651 102.665 195.741 102.411 195.808C102.158 195.875 101.908 195.908 101.661 195.908ZM107.99 198.008V190.538H109.2L109.22 191.738L109.01 191.648C109.05 191.441 109.163 191.248 109.35 191.068C109.537 190.881 109.763 190.731 110.03 190.618C110.303 190.505 110.587 190.448 110.88 190.448C111.347 190.448 111.76 190.565 112.12 190.798C112.487 191.031 112.773 191.351 112.98 191.758C113.193 192.165 113.3 192.635 113.3 193.168C113.3 193.695 113.193 194.165 112.98 194.578C112.773 194.985 112.487 195.308 112.12 195.548C111.76 195.781 111.353 195.898 110.9 195.898C110.593 195.898 110.297 195.838 110.01 195.718C109.73 195.598 109.49 195.441 109.29 195.248C109.097 195.055 108.977 194.851 108.93 194.638L109.23 194.498V198.008H107.99ZM110.65 194.808C110.93 194.808 111.18 194.738 111.4 194.598C111.62 194.458 111.79 194.265 111.91 194.018C112.037 193.771 112.1 193.488 112.1 193.168C112.1 192.848 112.04 192.568 111.92 192.328C111.8 192.081 111.63 191.888 111.41 191.748C111.19 191.608 110.937 191.538 110.65 191.538C110.357 191.538 110.1 191.608 109.88 191.748C109.667 191.881 109.497 192.071 109.37 192.318C109.243 192.565 109.18 192.848 109.18 193.168C109.18 193.488 109.243 193.771 109.37 194.018C109.497 194.265 109.667 194.458 109.88 194.598C110.1 194.738 110.357 194.808 110.65 194.808ZM114.396 195.808V188.408H115.616V191.618L115.386 191.738C115.453 191.498 115.583 191.281 115.776 191.088C115.97 190.888 116.2 190.728 116.466 190.608C116.733 190.488 117.006 190.428 117.286 190.428C117.686 190.428 118.02 190.508 118.286 190.668C118.56 190.828 118.763 191.068 118.896 191.388C119.036 191.708 119.106 192.108 119.106 192.588V195.808H117.876V192.678C117.876 192.411 117.84 192.191 117.766 192.018C117.693 191.838 117.58 191.708 117.426 191.628C117.273 191.541 117.086 191.501 116.866 191.508C116.686 191.508 116.52 191.538 116.366 191.598C116.22 191.651 116.09 191.731 115.976 191.838C115.87 191.938 115.783 192.055 115.716 192.188C115.656 192.321 115.626 192.468 115.626 192.628V195.808H115.016C114.896 195.808 114.783 195.808 114.676 195.808C114.576 195.808 114.483 195.808 114.396 195.808ZM122.9 195.908C122.373 195.908 121.903 195.791 121.49 195.558C121.077 195.318 120.75 194.991 120.51 194.578C120.27 194.165 120.15 193.695 120.15 193.168C120.15 192.641 120.27 192.171 120.51 191.758C120.75 191.345 121.077 191.021 121.49 190.788C121.903 190.548 122.373 190.428 122.9 190.428C123.42 190.428 123.887 190.548 124.3 190.788C124.713 191.021 125.037 191.345 125.27 191.758C125.51 192.171 125.63 192.641 125.63 193.168C125.63 193.695 125.51 194.165 125.27 194.578C125.037 194.991 124.713 195.318 124.3 195.558C123.887 195.791 123.42 195.908 122.9 195.908ZM122.9 194.818C123.187 194.818 123.44 194.745 123.66 194.598C123.887 194.451 124.063 194.255 124.19 194.008C124.323 193.761 124.387 193.481 124.38 193.168C124.387 192.848 124.323 192.565 124.19 192.318C124.063 192.071 123.887 191.878 123.66 191.738C123.44 191.591 123.187 191.518 122.9 191.518C122.613 191.518 122.353 191.591 122.12 191.738C121.893 191.878 121.717 192.075 121.59 192.328C121.463 192.575 121.4 192.855 121.4 193.168C121.4 193.481 121.463 193.761 121.59 194.008C121.717 194.255 121.893 194.451 122.12 194.598C122.353 194.745 122.613 194.818 122.9 194.818ZM127.3 195.808V189.198H128.53V195.808H127.3ZM126.26 191.678V190.538H129.68V191.678H126.26ZM132.978 195.908C132.451 195.908 131.981 195.791 131.568 195.558C131.155 195.318 130.828 194.991 130.588 194.578C130.348 194.165 130.228 193.695 130.228 193.168C130.228 192.641 130.348 192.171 130.588 191.758C130.828 191.345 131.155 191.021 131.568 190.788C131.981 190.548 132.451 190.428 132.978 190.428C133.498 190.428 133.965 190.548 134.378 190.788C134.791 191.021 135.115 191.345 135.348 191.758C135.588 192.171 135.708 192.641 135.708 193.168C135.708 193.695 135.588 194.165 135.348 194.578C135.115 194.991 134.791 195.318 134.378 195.558C133.965 195.791 133.498 195.908 132.978 195.908ZM132.978 194.818C133.265 194.818 133.518 194.745 133.738 194.598C133.965 194.451 134.141 194.255 134.268 194.008C134.401 193.761 134.465 193.481 134.458 193.168C134.465 192.848 134.401 192.565 134.268 192.318C134.141 192.071 133.965 191.878 133.738 191.738C133.518 191.591 133.265 191.518 132.978 191.518C132.691 191.518 132.431 191.591 132.198 191.738C131.971 191.878 131.795 192.075 131.668 192.328C131.541 192.575 131.478 192.855 131.478 193.168C131.478 193.481 131.541 193.761 131.668 194.008C131.795 194.255 131.971 194.451 132.198 194.598C132.431 194.745 132.691 194.818 132.978 194.818Z" fill="white"/>
<path d="M59.1306 173.071C59.1306 173.953 59.8454 174.667 60.7271 174.667H158.215C159.097 174.667 159.811 173.953 159.811 173.071V79.2221C159.811 77.4427 158.369 76.0003 156.59 76.0003H59.1306V173.071Z" fill="#E9EEF5"/>
<path d="M159.784 166.987V171.904C159.784 173.455 158.526 174.712 156.976 174.712H152.059" stroke="#3449FC" stroke-linecap="round" stroke-linejoin="round"/>
<path d="M152.275 76.002H157.192C158.743 76.002 160 77.2592 160 78.8101V83.727" stroke="#3449FC" stroke-linecap="round" stroke-linejoin="round"/>
<path d="M66.726 76.002H61.8092C60.2582 76.002 59.001 77.2592 59.001 78.8101V83.727" stroke="#3449FC" stroke-linecap="round" stroke-linejoin="round"/>
<path d="M66.7251 174.712H61.8082C60.2573 174.712 59 173.455 59 171.904V166.987" stroke="#3449FC" stroke-linecap="round" stroke-linejoin="round"/>
<path d="M62.7185 118.073L62.49 113.612L62.616 105.312C62.6691 101.778 65.5873 98.9618 69.1208 99.0347L84.4363 99.3501H84.4978C84.5265 99.3496 84.5696 99.3481 84.6257 99.3472C84.7384 99.3453 84.9054 99.3429 85.1208 99.3394C85.5516 99.3323 86.178 99.3221 86.9607 99.3091C88.5264 99.283 90.718 99.2464 93.2195 99.2026C98.2222 99.1151 104.467 99.0002 109.434 98.8921C111.674 98.8433 113.649 98.8655 115.633 98.8892C117.615 98.9128 119.606 98.9379 121.865 98.8921C126.534 98.7974 129.135 98.8921 133.827 98.8921H151.787C154.817 98.8922 157.273 101.349 157.273 104.378V112.599C157.273 112.604 157.272 112.609 157.272 112.617C157.272 112.635 157.272 112.662 157.271 112.697C157.27 112.767 157.268 112.871 157.265 113.004C157.261 113.272 157.254 113.662 157.247 114.148C157.232 115.12 157.215 116.478 157.204 118.024C157.181 121.114 157.181 124.96 157.273 127.967C157.318 129.432 157.295 130.572 157.272 131.723C157.249 132.875 157.226 134.037 157.273 135.53C157.375 138.741 157.273 140.516 157.273 143.763V152.255C157.273 155.852 154.298 158.739 150.694 158.673C148.59 158.635 146.348 158.608 144.48 158.616C142.394 158.625 139.726 158.682 137.582 158.737C136.509 158.764 135.567 158.792 134.892 158.812C134.555 158.822 134.284 158.83 134.098 158.835C134.006 158.838 133.934 158.841 133.885 158.842C133.861 158.843 133.842 158.844 133.83 158.844C133.824 158.844 133.819 158.845 133.816 158.845H109.855C109.848 158.845 109.837 158.846 109.822 158.846C109.793 158.847 109.75 158.848 109.693 158.85C109.579 158.854 109.411 158.859 109.194 158.866C108.759 158.879 108.126 158.896 107.337 158.918C105.758 158.963 103.551 159.022 101.04 159.081C96.016 159.197 89.7772 159.311 84.906 159.303C79.9417 159.295 73.4292 159.155 68.6169 159.032C65.1942 158.944 62.4723 156.15 62.4656 152.725C62.4592 149.432 62.4607 145.502 62.49 142.393C62.5149 139.755 62.5727 136.377 62.6238 133.658C62.6493 132.298 62.6726 131.103 62.6902 130.249C62.699 129.821 62.7067 129.479 62.7117 129.244C62.7142 129.126 62.7162 129.035 62.7175 128.973C62.7182 128.942 62.7182 128.919 62.7185 128.903C62.7187 128.895 62.7194 128.889 62.7195 128.885V118.099C62.7195 118.091 62.7189 118.081 62.7185 118.073Z" fill="white" stroke="#03092D" stroke-linecap="round" stroke-linejoin="round"/>
<path d="M117.93 124.014C117.93 124.014 122.728 124.139 127.628 124.139C132.528 124.139 143.024 124.014 143.024 124.014" stroke="#03092D" stroke-linecap="round" stroke-linejoin="round"/>
<path d="M117.788 133.901C117.788 133.901 120.618 133.901 123.2 133.901C125.16 133.901 129.417 133.901 129.417 133.901" stroke="#03092D" stroke-linecap="round" stroke-linejoin="round"/>
<path d="M106.835 113.045C108.292 113.089 109.443 114.295 109.42 115.753L109.205 129.205V129.221L109.421 143.104C109.444 144.593 108.243 145.812 106.755 145.812H79.0928C77.673 145.812 76.507 144.702 76.4443 143.288C76.2875 139.749 76.0566 133.808 76.0566 129.476C76.0566 125.103 76.2914 119.093 76.4482 115.566C76.5099 114.186 77.6261 113.09 79.0127 113.046L92.499 112.613L106.835 113.045Z" fill="#3449FC" stroke="#03092D"/>
<g clip-path="url(#clip1_1006_3353)">
<path d="M93.276 135.317L90.5002 134.546V132.078L89.575 129.303L88.804 126.218V123.905L90.0376 122.209L94.5097 120.513L96.5144 117.891L101.141 120.513L102.374 122.672L101.912 126.218L101.141 130.228L97.9022 133.004L95.1265 134.083V134.854L93.276 135.317Z" fill="#FFCEB6"/>
<path d="M90.7677 133.222C90.7677 132.831 93.5435 135.46 95.2397 134.227V134.998L92.5768 135.379L90.8205 134.598C90.5635 133.879 90.7677 133.684 90.7677 133.222Z" fill="#F9AC8A"/>
<path d="M96.7696 145.756C96.1646 140.321 94.7016 138.262 93.8086 136.065C93.6779 135.744 93.8575 135.387 94.1881 135.281L95.2498 134.944C95.3671 134.907 95.4928 134.905 95.6108 134.94L99.7688 136.163C99.8285 136.18 99.8851 136.207 99.9369 136.241L103.186 138.407C103.309 138.489 103.398 138.612 103.438 138.754L104.265 141.709C104.28 141.763 104.288 141.819 104.288 141.876V145.563C104.288 145.871 104.06 146.132 103.755 146.174L101.002 146.553C100.907 146.566 100.819 146.502 100.802 146.408C100.764 146.2 100.459 146.22 100.448 146.431L100.441 146.576L97.3348 146.311C97.0383 146.286 96.8026 146.051 96.7696 145.756Z" fill="#E1F0FF"/>
<path d="M94.3548 135.319C94.509 135.627 94.7866 136.583 95.28 137.94C95.7562 139.25 96.3242 143.5 96.6295 146.576H91.1165C90.3455 143.954 92.0417 136.552 88.6492 135.473L90.3455 134.856L92.3502 135.473L94.3548 135.319Z" fill="white"/>
<path d="M85.5914 146.121L81.3419 148.581L81.0645 143.576L81.296 139.016C81.3243 138.459 81.6549 137.962 82.1578 137.72L84.0746 136.8C84.1492 136.764 84.2266 136.735 84.306 136.711L88.5161 135.479C89.2496 135.31 89.9692 135.809 90.0687 136.555L90.5001 139.791L91.2974 146.538L86.9496 147.082C86.6408 147.121 86.368 146.88 86.368 146.569C86.368 146.17 85.9363 145.922 85.5914 146.121Z" fill="#E1F0FF"/>
<path d="M102.17 123.541C102.508 123.802 103.303 124.296 103.779 124.177C103.481 124.028 103.658 123.217 103.928 122.838C104.671 121.798 104.671 120.459 104.671 120.459C104.622 120.112 104.374 119.716 103.779 119.121C103.213 118.555 103.779 116.147 98.2767 115.552C96.6523 115.462 94.4549 113.876 90.7119 117.122C89.9215 117.807 89.4223 118.762 89.166 119.776C88.8735 120.934 88.5451 122.306 88.536 122.838C88.5232 123.586 88.7219 124.21 88.7594 124.623C88.849 123.888 89.0673 123.176 90.0935 122.838C92.5562 122.028 93.3522 122.662 95.7444 119.757C97.4099 117.735 99.7142 120.211 100.061 121.203C100.557 120.955 102.738 120.905 102.17 123.541Z" fill="#4B4D59"/>
<path d="M95.1535 134.14L95.1902 133.642C94.9349 133.623 94.7067 133.8 94.6614 134.052L95.1535 134.14ZM98.2767 132.802L98.5297 133.233L98.5358 133.229L98.2767 132.802ZM100.061 131.463L100.42 131.812V131.812L100.061 131.463ZM101.4 129.53L100.983 129.254L100.971 129.271L100.961 129.29L101.4 129.53ZM102.17 123.541L101.681 123.435C101.672 123.478 101.668 123.522 101.67 123.566L102.17 123.541ZM90.0935 131.156L89.6304 131.344L89.6304 131.344L90.0935 131.156ZM90.5732 133.11L91.0684 133.041L91.0684 133.041L90.5732 133.11ZM90.4994 134.621L90.0471 134.408C89.9387 134.638 90.0204 134.913 90.2371 135.047L90.4994 134.621ZM103.779 124.177L103.9 124.662C104.103 124.611 104.253 124.439 104.276 124.231C104.299 124.023 104.19 123.823 104.002 123.729L103.779 124.177ZM103.928 122.838L104.334 123.129V123.129L103.928 122.838ZM104.671 120.459H105.171C105.171 120.436 105.169 120.412 105.166 120.388L104.671 120.459ZM103.779 119.121L104.132 118.767V118.767L103.779 119.121ZM98.2767 115.552L98.3304 115.055C98.3218 115.054 98.3131 115.053 98.3044 115.053L98.2767 115.552ZM90.7119 117.122L91.0395 117.5V117.5L90.7119 117.122ZM89.166 119.776L89.6508 119.899H89.6508L89.166 119.776ZM88.536 122.838L89.0359 122.847L88.536 122.838ZM88.7594 124.623L89.2558 124.683V124.683L88.7594 124.623ZM90.0935 122.838L89.9373 122.364V122.364L90.0935 122.838ZM95.7444 119.757L96.1304 120.075V120.075L95.7444 119.757ZM100.061 121.203L99.5892 121.368C99.6367 121.504 99.7402 121.612 99.8733 121.666C100.006 121.72 100.156 121.714 100.285 121.65L100.061 121.203ZM88.9122 126.712L89.4041 126.623C89.4018 126.61 89.399 126.597 89.3958 126.585L88.9122 126.712ZM95.1538 134.884L95.4078 135.314C95.6328 135.182 95.7177 134.898 95.6029 134.664L95.1538 134.884ZM94.1702 125.415C94.2812 125.668 94.5761 125.783 94.829 125.672C95.0819 125.561 95.1969 125.266 95.086 125.013L94.6281 125.214L94.1702 125.415ZM93.9824 124.774L93.9475 125.272L93.948 125.272L93.9824 124.774ZM92.7638 125.011C92.6516 125.263 92.7651 125.559 93.0174 125.671C93.2697 125.783 93.5653 125.669 93.6775 125.417L93.2207 125.214L92.7638 125.011ZM99.8211 125.712C99.932 125.965 100.227 126.08 100.48 125.969C100.733 125.858 100.848 125.563 100.737 125.31L100.279 125.511L99.8211 125.712ZM99.6332 125.071L99.5983 125.57L99.5988 125.57L99.6332 125.071ZM98.4147 125.308C98.3024 125.56 98.416 125.856 98.6683 125.968C98.9206 126.08 99.2161 125.967 99.3284 125.715L98.8715 125.511L98.4147 125.308ZM94.5096 130.356C94.4602 130.084 94.1999 129.904 93.9282 129.953C93.6565 130.003 93.4763 130.263 93.5257 130.535L94.0176 130.445L94.5096 130.356ZM94.9209 131.573L94.7311 132.035L94.7317 132.035L94.9209 131.573ZM96.4356 131.939C96.6787 131.808 96.7697 131.505 96.6388 131.262C96.5079 131.019 96.2046 130.928 95.9615 131.059L96.1986 131.499L96.4356 131.939ZM95.1535 134.14L95.1168 134.639C95.2857 134.651 95.4629 134.622 95.6193 134.585C95.7824 134.545 95.9572 134.488 96.1325 134.422C96.4832 134.291 96.8674 134.114 97.218 133.939C97.5703 133.764 97.8975 133.588 98.1361 133.456C98.2555 133.39 98.3533 133.335 98.4214 133.296C98.4555 133.276 98.4822 133.261 98.5006 133.25C98.5098 133.245 98.5169 133.241 98.5218 133.238C98.5242 133.236 98.5261 133.235 98.5274 133.234C98.5281 133.234 98.5286 133.234 98.529 133.234C98.5292 133.233 98.5293 133.233 98.5294 133.233C98.5295 133.233 98.5296 133.233 98.5296 133.233C98.5296 133.233 98.5297 133.233 98.2767 132.802C98.0237 132.371 98.0237 132.371 98.0237 132.371C98.0237 132.371 98.0237 132.371 98.0237 132.371C98.0237 132.371 98.0236 132.371 98.0235 132.371C98.0233 132.371 98.023 132.371 98.0225 132.371C98.0215 132.372 98.02 132.373 98.0179 132.374C98.0138 132.376 98.0074 132.38 97.999 132.385C97.9822 132.395 97.9572 132.409 97.9249 132.428C97.8602 132.465 97.7665 132.518 97.6517 132.581C97.4215 132.709 97.1081 132.877 96.7731 133.044C96.4364 133.211 96.0865 133.372 95.7815 133.486C95.629 133.543 95.4954 133.586 95.3855 133.612C95.2689 133.64 95.2082 133.643 95.1902 133.642L95.1535 134.14ZM98.2767 132.802C98.5358 133.229 98.5358 133.229 98.5358 133.229C98.5359 133.229 98.5359 133.229 98.5359 133.229C98.536 133.229 98.5361 133.229 98.5362 133.229C98.5365 133.229 98.5368 133.229 98.5371 133.229C98.5379 133.228 98.5389 133.228 98.5402 133.227C98.5429 133.225 98.5466 133.223 98.5514 133.22C98.5609 133.214 98.5747 133.206 98.5922 133.195C98.6273 133.173 98.6775 133.142 98.7395 133.102C98.8633 133.023 99.0348 132.911 99.2261 132.778C99.601 132.518 100.081 132.161 100.42 131.812L100.061 131.463L99.7024 131.115C99.4347 131.391 99.0222 131.703 98.6567 131.956C98.4777 132.08 98.3168 132.185 98.2008 132.259C98.1429 132.296 98.0964 132.325 98.0647 132.345C98.0489 132.355 98.0368 132.362 98.0288 132.367C98.0248 132.37 98.0218 132.372 98.0199 132.373C98.019 132.373 98.0183 132.374 98.0179 132.374C98.0177 132.374 98.0176 132.374 98.0176 132.374C98.0175 132.374 98.0175 132.374 98.0175 132.374C98.0175 132.374 98.0176 132.374 98.0176 132.374C98.0176 132.374 98.0176 132.374 98.2767 132.802ZM100.061 131.463L100.42 131.812C100.777 131.444 101.134 130.924 101.392 130.518C101.524 130.311 101.635 130.125 101.713 129.991C101.752 129.924 101.783 129.87 101.804 129.832C101.815 129.813 101.823 129.798 101.829 129.788C101.831 129.782 101.834 129.778 101.835 129.776C101.836 129.774 101.837 129.773 101.837 129.772C101.837 129.772 101.838 129.771 101.838 129.771C101.838 129.771 101.838 129.771 101.838 129.771C101.838 129.771 101.838 129.771 101.838 129.771C101.838 129.771 101.838 129.771 101.4 129.53C100.961 129.29 100.961 129.29 100.961 129.29C100.961 129.29 100.961 129.29 100.961 129.29C100.961 129.29 100.961 129.29 100.961 129.29C100.961 129.29 100.961 129.29 100.961 129.29C100.961 129.291 100.96 129.291 100.96 129.292C100.959 129.294 100.957 129.298 100.954 129.302C100.95 129.311 100.942 129.324 100.933 129.341C100.913 129.375 100.885 129.426 100.848 129.488C100.775 129.614 100.671 129.788 100.548 129.982C100.297 130.378 99.9847 130.825 99.7024 131.115L100.061 131.463ZM101.4 129.53C101.816 129.807 101.816 129.807 101.816 129.806C101.817 129.806 101.817 129.806 101.817 129.806C101.817 129.805 101.817 129.805 101.818 129.804C101.818 129.803 101.819 129.802 101.82 129.801C101.821 129.799 101.823 129.796 101.825 129.793C101.829 129.787 101.834 129.779 101.84 129.769C101.851 129.751 101.865 129.726 101.882 129.694C101.916 129.631 101.961 129.541 102.012 129.422C102.114 129.183 102.24 128.828 102.357 128.333C102.59 127.343 102.785 125.798 102.669 123.515L102.17 123.541L101.67 123.566C101.782 125.77 101.592 127.219 101.384 128.103C101.279 128.545 101.17 128.846 101.092 129.029C101.053 129.121 101.021 129.184 101.002 129.22C100.992 129.238 100.985 129.25 100.982 129.255C100.98 129.258 100.979 129.259 100.98 129.259C100.98 129.259 100.98 129.258 100.981 129.257C100.981 129.257 100.981 129.256 100.982 129.256C100.982 129.255 100.982 129.255 100.982 129.255C100.982 129.255 100.983 129.254 100.983 129.254C100.983 129.254 100.983 129.254 101.4 129.53ZM90.0935 131.156C89.6304 131.344 89.6304 131.344 89.6303 131.344C89.6303 131.344 89.6303 131.344 89.6303 131.344C89.6303 131.344 89.6302 131.344 89.6302 131.344C89.6302 131.344 89.6301 131.344 89.6301 131.343C89.6301 131.343 89.6302 131.344 89.6303 131.344C89.6305 131.345 89.6311 131.346 89.6319 131.348C89.6336 131.352 89.6363 131.359 89.6401 131.369C89.6477 131.389 89.6592 131.42 89.6739 131.462C89.7032 131.545 89.7449 131.67 89.7918 131.831C89.8856 132.153 89.9998 132.618 90.0779 133.179L90.5732 133.11L91.0684 133.041C90.9824 132.423 90.8567 131.911 90.7518 131.551C90.6993 131.371 90.6519 131.228 90.6169 131.129C90.5994 131.079 90.5851 131.041 90.5747 131.014C90.5695 131 90.5654 130.989 90.5623 130.982C90.5608 130.978 90.5596 130.975 90.5586 130.972C90.5582 130.971 90.5578 130.97 90.5574 130.969C90.5573 130.969 90.5571 130.968 90.557 130.968C90.5569 130.968 90.5569 130.968 90.5568 130.968C90.5568 130.968 90.5568 130.968 90.5568 130.968C90.5567 130.967 90.5567 130.967 90.0935 131.156ZM90.5732 133.11L90.0779 133.179C90.2 134.056 90.1011 134.294 90.0471 134.408L90.4994 134.621L90.9518 134.834C91.1219 134.473 91.2038 134.015 91.0684 133.041L90.5732 133.11ZM102.17 123.541L101.864 123.936C102.056 124.085 102.37 124.294 102.71 124.454C102.881 124.534 103.07 124.608 103.263 124.652C103.45 124.695 103.676 124.718 103.9 124.662L103.779 124.177L103.658 123.692C103.644 123.695 103.591 123.701 103.486 123.677C103.385 123.654 103.265 123.61 103.135 123.549C102.874 123.426 102.622 123.258 102.476 123.145L102.17 123.541ZM103.779 124.177L104.002 123.729C104.124 123.79 104.135 123.888 104.128 123.858C104.123 123.833 104.119 123.77 104.135 123.668C104.166 123.461 104.254 123.242 104.334 123.129L103.928 122.838L103.521 122.548C103.331 122.813 103.196 123.189 103.146 123.519C103.121 123.686 103.112 123.877 103.149 124.058C103.185 124.233 103.285 124.489 103.555 124.624L103.779 124.177ZM103.928 122.838L104.334 123.129C104.762 122.53 104.968 121.86 105.068 121.357C105.119 121.102 105.145 120.883 105.158 120.725C105.164 120.647 105.168 120.583 105.169 120.538C105.17 120.515 105.171 120.497 105.171 120.483C105.171 120.477 105.171 120.472 105.171 120.467C105.171 120.465 105.171 120.464 105.171 120.462C105.171 120.462 105.171 120.461 105.171 120.461C105.171 120.46 105.171 120.46 105.171 120.46C105.171 120.46 105.171 120.46 105.171 120.459C105.171 120.459 105.171 120.459 104.671 120.459C104.171 120.459 104.171 120.459 104.171 120.459C104.171 120.459 104.171 120.459 104.171 120.459C104.171 120.459 104.171 120.458 104.171 120.458C104.171 120.458 104.171 120.458 104.171 120.458C104.171 120.458 104.171 120.458 104.171 120.459C104.171 120.46 104.171 120.462 104.171 120.465C104.171 120.472 104.171 120.484 104.17 120.5C104.169 120.532 104.166 120.581 104.161 120.644C104.151 120.77 104.13 120.95 104.088 121.16C104.003 121.586 103.836 122.106 103.521 122.548L103.928 122.838ZM104.671 120.459L105.166 120.388C105.092 119.867 104.735 119.37 104.132 118.767L103.779 119.121L103.425 119.474C104.012 120.061 104.151 120.357 104.176 120.53L104.671 120.459ZM103.779 119.121L104.132 118.767C104.134 118.769 104.111 118.745 104.068 118.64C104.024 118.532 103.989 118.42 103.925 118.24C103.805 117.904 103.627 117.468 103.264 117.029C102.53 116.14 101.146 115.359 98.3304 115.055L98.2767 115.552L98.2229 116.049C100.91 116.339 101.993 117.06 102.493 117.665C102.748 117.973 102.878 118.283 102.983 118.576C103.031 118.71 103.088 118.884 103.143 119.018C103.199 119.156 103.282 119.331 103.425 119.474L103.779 119.121ZM98.2767 115.552L98.3044 115.053C97.952 115.033 97.5691 114.932 97.0452 114.815C96.543 114.702 95.9559 114.587 95.2896 114.586C93.9296 114.584 92.3315 115.056 90.3844 116.744L90.7119 117.122L91.0395 117.5C92.8354 115.942 94.2074 115.584 95.288 115.586C95.842 115.587 96.3427 115.682 96.8263 115.791C97.2883 115.894 97.7892 116.026 98.2489 116.051L98.2767 115.552ZM89.166 119.776L88.6812 119.654C88.5347 120.234 88.3777 120.873 88.256 121.436C88.138 121.982 88.0416 122.506 88.0361 122.83L88.536 122.838L89.0359 122.847C89.0395 122.638 89.1119 122.21 89.2334 121.647C89.3514 121.102 89.5048 120.476 89.6508 119.899L89.166 119.776ZM88.536 122.838L88.0361 122.83C88.0289 123.25 88.0812 123.628 88.1363 123.942C88.1961 124.283 88.2452 124.488 88.2615 124.668L88.7594 124.623L89.2574 124.578C89.2362 124.344 89.1671 124.031 89.1213 123.77C89.0709 123.482 89.0303 123.175 89.0359 122.847L88.536 122.838ZM90.0935 122.838L90.2498 123.313C90.8389 123.12 91.3285 123.012 91.7855 122.912C92.2367 122.814 92.6792 122.719 93.1229 122.551C94.042 122.202 94.9057 121.562 96.1304 120.075L95.7444 119.757L95.3584 119.439C94.1909 120.857 93.4605 121.353 92.7679 121.616C92.4058 121.753 92.038 121.834 91.5725 121.935C91.113 122.035 90.5795 122.152 89.9373 122.364L90.0935 122.838ZM95.7444 119.757L96.1304 120.075C96.4729 119.659 96.8103 119.513 97.1129 119.489C97.4322 119.463 97.7836 119.567 98.1424 119.78C98.4991 119.991 98.831 120.291 99.0945 120.599C99.3635 120.914 99.5306 121.2 99.5892 121.368L100.061 121.203L100.533 121.038C100.418 120.709 100.167 120.315 99.8545 119.949C99.5363 119.577 99.123 119.199 98.6521 118.92C98.1833 118.642 97.6246 118.444 97.0326 118.492C96.4239 118.541 95.8486 118.844 95.3584 119.439L95.7444 119.757ZM100.061 121.203L100.285 121.65C100.285 121.65 100.285 121.65 100.287 121.649C100.289 121.648 100.291 121.647 100.294 121.646C100.301 121.643 100.309 121.64 100.321 121.637C100.343 121.63 100.373 121.622 100.41 121.615C100.483 121.602 100.575 121.592 100.676 121.593C100.883 121.594 101.1 121.636 101.279 121.732C101.448 121.822 101.594 121.964 101.68 122.2C101.77 122.447 101.81 122.837 101.681 123.435L102.17 123.541L102.659 123.646C102.813 122.927 102.794 122.334 102.619 121.857C102.441 121.37 102.117 121.045 101.75 120.849C101.392 120.659 101.006 120.595 100.683 120.593C100.371 120.591 100.056 120.646 99.8376 120.756L100.061 121.203ZM88.9122 126.712L88.4202 126.801C88.6563 128.103 89.0508 129.919 89.6304 131.344L90.0935 131.156L90.5567 130.967C90.018 129.643 89.638 127.912 89.4041 126.623L88.9122 126.712ZM90.0935 122.838L89.9373 122.364C89.3256 122.565 88.9135 122.895 88.6507 123.317C88.398 123.724 88.3105 124.174 88.2631 124.562L88.7594 124.623L89.2558 124.683C89.298 124.337 89.3644 124.063 89.4998 123.846C89.6251 123.644 89.8352 123.45 90.2498 123.313L90.0935 122.838ZM88.7594 124.623L88.2631 124.562C88.1933 125.136 88.2365 125.705 88.2934 126.121C88.3222 126.331 88.3552 126.508 88.3812 126.633C88.3943 126.695 88.4057 126.745 88.414 126.78C88.4181 126.797 88.4216 126.811 88.424 126.821C88.4253 126.826 88.4263 126.83 88.427 126.833C88.4274 126.835 88.4277 126.836 88.428 126.837C88.4281 126.837 88.4282 126.838 88.4283 126.838C88.4284 126.838 88.4284 126.838 88.4284 126.838C88.4285 126.839 88.4285 126.839 88.4285 126.839C88.4285 126.839 88.4285 126.839 88.9122 126.712C89.3958 126.585 89.3958 126.585 89.3958 126.585C89.3958 126.585 89.3958 126.585 89.3959 126.585C89.3959 126.585 89.3959 126.585 89.3959 126.585C89.3959 126.586 89.3959 126.586 89.3959 126.586C89.3959 126.586 89.3958 126.585 89.3957 126.585C89.3954 126.584 89.3949 126.581 89.3941 126.578C89.3926 126.572 89.3901 126.562 89.3869 126.549C89.3805 126.522 89.3712 126.481 89.3601 126.428C89.3379 126.322 89.3093 126.169 89.2842 125.986C89.2334 125.615 89.2003 125.139 89.2558 124.683L88.7594 124.623ZM90.7119 117.122L90.3844 116.744C89.4985 117.512 88.956 118.566 88.6812 119.654L89.166 119.776L89.6508 119.899C89.8886 118.957 90.3444 118.102 91.0395 117.5L90.7119 117.122ZM95.1535 134.14L94.6614 134.052C94.6523 134.102 94.4456 134.574 94.7048 135.104L95.1538 134.884L95.6029 134.664C95.5669 134.59 95.5702 134.557 95.5737 134.53C95.5768 134.507 95.5832 134.479 95.597 134.428C95.6083 134.387 95.6312 134.308 95.6455 134.229L95.1535 134.14ZM94.6281 125.214L95.086 125.013C94.8977 124.584 94.4761 124.306 94.0168 124.275L93.9824 124.774L93.948 125.272C94.0587 125.28 94.1403 125.347 94.1702 125.415L94.6281 125.214ZM93.9824 124.774L94.0172 124.275C93.4995 124.239 92.9821 124.52 92.7638 125.011L93.2207 125.214L93.6775 125.417C93.7127 125.338 93.8185 125.263 93.9475 125.272L93.9824 124.774ZM100.279 125.511L100.737 125.31C100.549 124.881 100.127 124.604 99.6676 124.572L99.6332 125.071L99.5988 125.57C99.7095 125.577 99.7912 125.644 99.8211 125.712L100.279 125.511ZM99.6332 125.071L99.6681 124.572C99.1503 124.536 98.633 124.817 98.4147 125.308L98.8715 125.511L99.3284 125.715C99.3636 125.635 99.4694 125.561 99.5983 125.57L99.6332 125.071ZM94.0176 130.445L93.5257 130.535C93.5391 130.608 93.7339 131.626 94.7311 132.035L94.9209 131.573L95.1106 131.11C94.8752 131.013 94.7275 130.842 94.6328 130.672C94.5363 130.499 94.5086 130.351 94.5096 130.356L94.0176 130.445ZM94.9209 131.573L94.7317 132.035C95.5873 132.385 96.3337 131.994 96.4356 131.939L96.1986 131.499L95.9615 131.059C95.9101 131.086 95.5242 131.279 95.11 131.11L94.9209 131.573ZM95.1538 134.884L94.8998 134.453C94.3254 134.792 93.7412 134.991 93.0944 134.985C92.4457 134.979 91.6855 134.765 90.7618 134.196L90.4994 134.621L90.2371 135.047C91.2751 135.687 92.2117 135.976 93.0846 135.985C93.9594 135.993 94.7215 135.719 95.4078 135.314L95.1538 134.884Z" fill="url(#paint0_linear_1006_3353)"/>
<path d="M95.1535 134.14L95.1902 133.642C94.9349 133.623 94.7067 133.8 94.6614 134.052L95.1535 134.14ZM98.2767 132.802L98.5297 133.233L98.5358 133.229L98.2767 132.802ZM100.061 131.463L100.42 131.812V131.812L100.061 131.463ZM101.4 129.53L100.983 129.254L100.971 129.271L100.961 129.29L101.4 129.53ZM102.17 123.541L101.681 123.435C101.672 123.478 101.668 123.522 101.67 123.566L102.17 123.541ZM90.0935 131.156L89.6304 131.344L89.6304 131.344L90.0935 131.156ZM90.5732 133.11L91.0684 133.041L91.0684 133.041L90.5732 133.11ZM90.4994 134.621L90.0471 134.408C89.9387 134.638 90.0204 134.913 90.2371 135.047L90.4994 134.621ZM103.779 124.177L103.9 124.662C104.103 124.611 104.253 124.439 104.276 124.231C104.299 124.023 104.19 123.823 104.002 123.729L103.779 124.177ZM103.928 122.838L104.334 123.129V123.129L103.928 122.838ZM104.671 120.459H105.171C105.171 120.436 105.169 120.412 105.166 120.388L104.671 120.459ZM103.779 119.121L104.132 118.767V118.767L103.779 119.121ZM98.2767 115.552L98.3304 115.055C98.3218 115.054 98.3131 115.053 98.3044 115.053L98.2767 115.552ZM90.7119 117.122L91.0395 117.5V117.5L90.7119 117.122ZM89.166 119.776L89.6508 119.899H89.6508L89.166 119.776ZM88.536 122.838L89.0359 122.847L88.536 122.838ZM88.7594 124.623L89.2558 124.683V124.683L88.7594 124.623ZM90.0935 122.838L89.9373 122.364V122.364L90.0935 122.838ZM95.7444 119.757L96.1304 120.075V120.075L95.7444 119.757ZM100.061 121.203L99.5892 121.368C99.6367 121.504 99.7402 121.612 99.8733 121.666C100.006 121.72 100.156 121.714 100.285 121.65L100.061 121.203ZM88.9122 126.712L89.4041 126.623C89.4018 126.61 89.399 126.597 89.3958 126.585L88.9122 126.712ZM95.1538 134.884L95.4078 135.314C95.6328 135.182 95.7177 134.898 95.6029 134.664L95.1538 134.884ZM94.1702 125.415C94.2812 125.668 94.5761 125.783 94.829 125.672C95.0819 125.561 95.1969 125.266 95.086 125.013L94.6281 125.214L94.1702 125.415ZM93.9824 124.774L93.9475 125.272L93.948 125.272L93.9824 124.774ZM92.7638 125.011C92.6516 125.263 92.7651 125.559 93.0174 125.671C93.2697 125.783 93.5653 125.669 93.6775 125.417L93.2207 125.214L92.7638 125.011ZM99.8211 125.712C99.932 125.965 100.227 126.08 100.48 125.969C100.733 125.858 100.848 125.563 100.737 125.31L100.279 125.511L99.8211 125.712ZM99.6332 125.071L99.5983 125.57L99.5988 125.57L99.6332 125.071ZM98.4147 125.308C98.3024 125.56 98.416 125.856 98.6683 125.968C98.9206 126.08 99.2161 125.967 99.3284 125.715L98.8715 125.511L98.4147 125.308ZM94.5096 130.356C94.4602 130.084 94.1999 129.904 93.9282 129.953C93.6565 130.003 93.4763 130.263 93.5257 130.535L94.0176 130.445L94.5096 130.356ZM94.9209 131.573L94.7311 132.035L94.7317 132.035L94.9209 131.573ZM96.4356 131.939C96.6787 131.808 96.7697 131.505 96.6388 131.262C96.5079 131.019 96.2046 130.928 95.9615 131.059L96.1986 131.499L96.4356 131.939ZM95.1535 134.14L95.1168 134.639C95.2857 134.651 95.4629 134.622 95.6193 134.585C95.7824 134.545 95.9572 134.488 96.1325 134.422C96.4832 134.291 96.8674 134.114 97.218 133.939C97.5703 133.764 97.8975 133.588 98.1361 133.456C98.2555 133.39 98.3533 133.335 98.4214 133.296C98.4555 133.276 98.4822 133.261 98.5006 133.25C98.5098 133.245 98.5169 133.241 98.5218 133.238C98.5242 133.236 98.5261 133.235 98.5274 133.234C98.5281 133.234 98.5286 133.234 98.529 133.234C98.5292 133.233 98.5293 133.233 98.5294 133.233C98.5295 133.233 98.5296 133.233 98.5296 133.233C98.5296 133.233 98.5297 133.233 98.2767 132.802C98.0237 132.371 98.0237 132.371 98.0237 132.371C98.0237 132.371 98.0237 132.371 98.0237 132.371C98.0237 132.371 98.0236 132.371 98.0235 132.371C98.0233 132.371 98.023 132.371 98.0225 132.371C98.0215 132.372 98.02 132.373 98.0179 132.374C98.0138 132.376 98.0074 132.38 97.999 132.385C97.9822 132.395 97.9572 132.409 97.9249 132.428C97.8602 132.465 97.7665 132.518 97.6517 132.581C97.4215 132.709 97.1081 132.877 96.7731 133.044C96.4364 133.211 96.0865 133.372 95.7815 133.486C95.629 133.543 95.4954 133.586 95.3855 133.612C95.2689 133.64 95.2082 133.643 95.1902 133.642L95.1535 134.14ZM98.2767 132.802C98.5358 133.229 98.5358 133.229 98.5358 133.229C98.5359 133.229 98.5359 133.229 98.5359 133.229C98.536 133.229 98.5361 133.229 98.5362 133.229C98.5365 133.229 98.5368 133.229 98.5371 133.229C98.5379 133.228 98.5389 133.228 98.5402 133.227C98.5429 133.225 98.5466 133.223 98.5514 133.22C98.5609 133.214 98.5747 133.206 98.5922 133.195C98.6273 133.173 98.6775 133.142 98.7395 133.102C98.8633 133.023 99.0348 132.911 99.2261 132.778C99.601 132.518 100.081 132.161 100.42 131.812L100.061 131.463L99.7024 131.115C99.4347 131.391 99.0222 131.703 98.6567 131.956C98.4777 132.08 98.3168 132.185 98.2008 132.259C98.1429 132.296 98.0964 132.325 98.0647 132.345C98.0489 132.355 98.0368 132.362 98.0288 132.367C98.0248 132.37 98.0218 132.372 98.0199 132.373C98.019 132.373 98.0183 132.374 98.0179 132.374C98.0177 132.374 98.0176 132.374 98.0176 132.374C98.0175 132.374 98.0175 132.374 98.0175 132.374C98.0175 132.374 98.0176 132.374 98.0176 132.374C98.0176 132.374 98.0176 132.374 98.2767 132.802ZM100.061 131.463L100.42 131.812C100.777 131.444 101.134 130.924 101.392 130.518C101.524 130.311 101.635 130.125 101.713 129.991C101.752 129.924 101.783 129.87 101.804 129.832C101.815 129.813 101.823 129.798 101.829 129.788C101.831 129.782 101.834 129.778 101.835 129.776C101.836 129.774 101.837 129.773 101.837 129.772C101.837 129.772 101.838 129.771 101.838 129.771C101.838 129.771 101.838 129.771 101.838 129.771C101.838 129.771 101.838 129.771 101.838 129.771C101.838 129.771 101.838 129.771 101.4 129.53C100.961 129.29 100.961 129.29 100.961 129.29C100.961 129.29 100.961 129.29 100.961 129.29C100.961 129.29 100.961 129.29 100.961 129.29C100.961 129.29 100.961 129.29 100.961 129.29C100.961 129.291 100.96 129.291 100.96 129.292C100.959 129.294 100.957 129.298 100.954 129.302C100.95 129.311 100.942 129.324 100.933 129.341C100.913 129.375 100.885 129.426 100.848 129.488C100.775 129.614 100.671 129.788 100.548 129.982C100.297 130.378 99.9847 130.825 99.7024 131.115L100.061 131.463ZM101.4 129.53C101.816 129.807 101.816 129.807 101.816 129.806C101.817 129.806 101.817 129.806 101.817 129.806C101.817 129.805 101.817 129.805 101.818 129.804C101.818 129.803 101.819 129.802 101.82 129.801C101.821 129.799 101.823 129.796 101.825 129.793C101.829 129.787 101.834 129.779 101.84 129.769C101.851 129.751 101.865 129.726 101.882 129.694C101.916 129.631 101.961 129.541 102.012 129.422C102.114 129.183 102.24 128.828 102.357 128.333C102.59 127.343 102.785 125.798 102.669 123.515L102.17 123.541L101.67 123.566C101.782 125.77 101.592 127.219 101.384 128.103C101.279 128.545 101.17 128.846 101.092 129.029C101.053 129.121 101.021 129.184 101.002 129.22C100.992 129.238 100.985 129.25 100.982 129.255C100.98 129.258 100.979 129.259 100.98 129.259C100.98 129.259 100.98 129.258 100.981 129.257C100.981 129.257 100.981 129.256 100.982 129.256C100.982 129.255 100.982 129.255 100.982 129.255C100.982 129.255 100.983 129.254 100.983 129.254C100.983 129.254 100.983 129.254 101.4 129.53ZM90.0935 131.156C89.6304 131.344 89.6304 131.344 89.6303 131.344C89.6303 131.344 89.6303 131.344 89.6303 131.344C89.6303 131.344 89.6302 131.344 89.6302 131.344C89.6302 131.344 89.6301 131.344 89.6301 131.343C89.6301 131.343 89.6302 131.344 89.6303 131.344C89.6305 131.345 89.6311 131.346 89.6319 131.348C89.6336 131.352 89.6363 131.359 89.6401 131.369C89.6477 131.389 89.6592 131.42 89.6739 131.462C89.7032 131.545 89.7449 131.67 89.7918 131.831C89.8856 132.153 89.9998 132.618 90.0779 133.179L90.5732 133.11L91.0684 133.041C90.9824 132.423 90.8567 131.911 90.7518 131.551C90.6993 131.371 90.6519 131.228 90.6169 131.129C90.5994 131.079 90.5851 131.041 90.5747 131.014C90.5695 131 90.5654 130.989 90.5623 130.982C90.5608 130.978 90.5596 130.975 90.5586 130.972C90.5582 130.971 90.5578 130.97 90.5574 130.969C90.5573 130.969 90.5571 130.968 90.557 130.968C90.5569 130.968 90.5569 130.968 90.5568 130.968C90.5568 130.968 90.5568 130.968 90.5568 130.968C90.5567 130.967 90.5567 130.967 90.0935 131.156ZM90.5732 133.11L90.0779 133.179C90.2 134.056 90.1011 134.294 90.0471 134.408L90.4994 134.621L90.9518 134.834C91.1219 134.473 91.2038 134.015 91.0684 133.041L90.5732 133.11ZM102.17 123.541L101.864 123.936C102.056 124.085 102.37 124.294 102.71 124.454C102.881 124.534 103.07 124.608 103.263 124.652C103.45 124.695 103.676 124.718 103.9 124.662L103.779 124.177L103.658 123.692C103.644 123.695 103.591 123.701 103.486 123.677C103.385 123.654 103.265 123.61 103.135 123.549C102.874 123.426 102.622 123.258 102.476 123.145L102.17 123.541ZM103.779 124.177L104.002 123.729C104.124 123.79 104.135 123.888 104.128 123.858C104.123 123.833 104.119 123.77 104.135 123.668C104.166 123.461 104.254 123.242 104.334 123.129L103.928 122.838L103.521 122.548C103.331 122.813 103.196 123.189 103.146 123.519C103.121 123.686 103.112 123.877 103.149 124.058C103.185 124.233 103.285 124.489 103.555 124.624L103.779 124.177ZM103.928 122.838L104.334 123.129C104.762 122.53 104.968 121.86 105.068 121.357C105.119 121.102 105.145 120.883 105.158 120.725C105.164 120.647 105.168 120.583 105.169 120.538C105.17 120.515 105.171 120.497 105.171 120.483C105.171 120.477 105.171 120.472 105.171 120.467C105.171 120.465 105.171 120.464 105.171 120.462C105.171 120.462 105.171 120.461 105.171 120.461C105.171 120.46 105.171 120.46 105.171 120.46C105.171 120.46 105.171 120.46 105.171 120.459C105.171 120.459 105.171 120.459 104.671 120.459C104.171 120.459 104.171 120.459 104.171 120.459C104.171 120.459 104.171 120.459 104.171 120.459C104.171 120.459 104.171 120.458 104.171 120.458C104.171 120.458 104.171 120.458 104.171 120.458C104.171 120.458 104.171 120.458 104.171 120.459C104.171 120.46 104.171 120.462 104.171 120.465C104.171 120.472 104.171 120.484 104.17 120.5C104.169 120.532 104.166 120.581 104.161 120.644C104.151 120.77 104.13 120.95 104.088 121.16C104.003 121.586 103.836 122.106 103.521 122.548L103.928 122.838ZM104.671 120.459L105.166 120.388C105.092 119.867 104.735 119.37 104.132 118.767L103.779 119.121L103.425 119.474C104.012 120.061 104.151 120.357 104.176 120.53L104.671 120.459ZM103.779 119.121L104.132 118.767C104.134 118.769 104.111 118.745 104.068 118.64C104.024 118.532 103.989 118.42 103.925 118.24C103.805 117.904 103.627 117.468 103.264 117.029C102.53 116.14 101.146 115.359 98.3304 115.055L98.2767 115.552L98.2229 116.049C100.91 116.339 101.993 117.06 102.493 117.665C102.748 117.973 102.878 118.283 102.983 118.576C103.031 118.71 103.088 118.884 103.143 119.018C103.199 119.156 103.282 119.331 103.425 119.474L103.779 119.121ZM98.2767 115.552L98.3044 115.053C97.952 115.033 97.5691 114.932 97.0452 114.815C96.543 114.702 95.9559 114.587 95.2896 114.586C93.9296 114.584 92.3315 115.056 90.3844 116.744L90.7119 117.122L91.0395 117.5C92.8354 115.942 94.2074 115.584 95.288 115.586C95.842 115.587 96.3427 115.682 96.8263 115.791C97.2883 115.894 97.7892 116.026 98.2489 116.051L98.2767 115.552ZM89.166 119.776L88.6812 119.654C88.5347 120.234 88.3777 120.873 88.256 121.436C88.138 121.982 88.0416 122.506 88.0361 122.83L88.536 122.838L89.0359 122.847C89.0395 122.638 89.1119 122.21 89.2334 121.647C89.3514 121.102 89.5048 120.476 89.6508 119.899L89.166 119.776ZM88.536 122.838L88.0361 122.83C88.0289 123.25 88.0812 123.628 88.1363 123.942C88.1961 124.283 88.2452 124.488 88.2615 124.668L88.7594 124.623L89.2574 124.578C89.2362 124.344 89.1671 124.031 89.1213 123.77C89.0709 123.482 89.0303 123.175 89.0359 122.847L88.536 122.838ZM90.0935 122.838L90.2498 123.313C90.8389 123.12 91.3285 123.012 91.7855 122.912C92.2367 122.814 92.6792 122.719 93.1229 122.551C94.042 122.202 94.9057 121.562 96.1304 120.075L95.7444 119.757L95.3584 119.439C94.1909 120.857 93.4605 121.353 92.7679 121.616C92.4058 121.753 92.038 121.834 91.5725 121.935C91.113 122.035 90.5795 122.152 89.9373 122.364L90.0935 122.838ZM95.7444 119.757L96.1304 120.075C96.4729 119.659 96.8103 119.513 97.1129 119.489C97.4322 119.463 97.7836 119.567 98.1424 119.78C98.4991 119.991 98.831 120.291 99.0945 120.599C99.3635 120.914 99.5306 121.2 99.5892 121.368L100.061 121.203L100.533 121.038C100.418 120.709 100.167 120.315 99.8545 119.949C99.5363 119.577 99.123 119.199 98.6521 118.92C98.1833 118.642 97.6246 118.444 97.0326 118.492C96.4239 118.541 95.8486 118.844 95.3584 119.439L95.7444 119.757ZM100.061 121.203L100.285 121.65C100.285 121.65 100.285 121.65 100.287 121.649C100.289 121.648 100.291 121.647 100.294 121.646C100.301 121.643 100.309 121.64 100.321 121.637C100.343 121.63 100.373 121.622 100.41 121.615C100.483 121.602 100.575 121.592 100.676 121.593C100.883 121.594 101.1 121.636 101.279 121.732C101.448 121.822 101.594 121.964 101.68 122.2C101.77 122.447 101.81 122.837 101.681 123.435L102.17 123.541L102.659 123.646C102.813 122.927 102.794 122.334 102.619 121.857C102.441 121.37 102.117 121.045 101.75 120.849C101.392 120.659 101.006 120.595 100.683 120.593C100.371 120.591 100.056 120.646 99.8376 120.756L100.061 121.203ZM88.9122 126.712L88.4202 126.801C88.6563 128.103 89.0508 129.919 89.6304 131.344L90.0935 131.156L90.5567 130.967C90.018 129.643 89.638 127.912 89.4041 126.623L88.9122 126.712ZM90.0935 122.838L89.9373 122.364C89.3256 122.565 88.9135 122.895 88.6507 123.317C88.398 123.724 88.3105 124.174 88.2631 124.562L88.7594 124.623L89.2558 124.683C89.298 124.337 89.3644 124.063 89.4998 123.846C89.6251 123.644 89.8352 123.45 90.2498 123.313L90.0935 122.838ZM88.7594 124.623L88.2631 124.562C88.1933 125.136 88.2365 125.705 88.2934 126.121C88.3222 126.331 88.3552 126.508 88.3812 126.633C88.3943 126.695 88.4057 126.745 88.414 126.78C88.4181 126.797 88.4216 126.811 88.424 126.821C88.4253 126.826 88.4263 126.83 88.427 126.833C88.4274 126.835 88.4277 126.836 88.428 126.837C88.4281 126.837 88.4282 126.838 88.4283 126.838C88.4284 126.838 88.4284 126.838 88.4284 126.838C88.4285 126.839 88.4285 126.839 88.4285 126.839C88.4285 126.839 88.4285 126.839 88.9122 126.712C89.3958 126.585 89.3958 126.585 89.3958 126.585C89.3958 126.585 89.3958 126.585 89.3959 126.585C89.3959 126.585 89.3959 126.585 89.3959 126.585C89.3959 126.586 89.3959 126.586 89.3959 126.586C89.3959 126.586 89.3958 126.585 89.3957 126.585C89.3954 126.584 89.3949 126.581 89.3941 126.578C89.3926 126.572 89.3901 126.562 89.3869 126.549C89.3805 126.522 89.3712 126.481 89.3601 126.428C89.3379 126.322 89.3093 126.169 89.2842 125.986C89.2334 125.615 89.2003 125.139 89.2558 124.683L88.7594 124.623ZM90.7119 117.122L90.3844 116.744C89.4985 117.512 88.956 118.566 88.6812 119.654L89.166 119.776L89.6508 119.899C89.8886 118.957 90.3444 118.102 91.0395 117.5L90.7119 117.122ZM95.1535 134.14L94.6614 134.052C94.6523 134.102 94.4456 134.574 94.7048 135.104L95.1538 134.884L95.6029 134.664C95.5669 134.59 95.5702 134.557 95.5737 134.53C95.5768 134.507 95.5832 134.479 95.597 134.428C95.6083 134.387 95.6312 134.308 95.6455 134.229L95.1535 134.14ZM94.6281 125.214L95.086 125.013C94.8977 124.584 94.4761 124.306 94.0168 124.275L93.9824 124.774L93.948 125.272C94.0587 125.28 94.1403 125.347 94.1702 125.415L94.6281 125.214ZM93.9824 124.774L94.0172 124.275C93.4995 124.239 92.9821 124.52 92.7638 125.011L93.2207 125.214L93.6775 125.417C93.7127 125.338 93.8185 125.263 93.9475 125.272L93.9824 124.774ZM100.279 125.511L100.737 125.31C100.549 124.881 100.127 124.604 99.6676 124.572L99.6332 125.071L99.5988 125.57C99.7095 125.577 99.7912 125.644 99.8211 125.712L100.279 125.511ZM99.6332 125.071L99.6681 124.572C99.1503 124.536 98.633 124.817 98.4147 125.308L98.8715 125.511L99.3284 125.715C99.3636 125.635 99.4694 125.561 99.5983 125.57L99.6332 125.071ZM94.0176 130.445L93.5257 130.535C93.5391 130.608 93.7339 131.626 94.7311 132.035L94.9209 131.573L95.1106 131.11C94.8752 131.013 94.7275 130.842 94.6328 130.672C94.5363 130.499 94.5086 130.351 94.5096 130.356L94.0176 130.445ZM94.9209 131.573L94.7317 132.035C95.5873 132.385 96.3337 131.994 96.4356 131.939L96.1986 131.499L95.9615 131.059C95.9101 131.086 95.5242 131.279 95.11 131.11L94.9209 131.573ZM95.1538 134.884L94.8998 134.453C94.3254 134.792 93.7412 134.991 93.0944 134.985C92.4457 134.979 91.6855 134.765 90.7618 134.196L90.4994 134.621L90.2371 135.047C91.2751 135.687 92.2117 135.976 93.0846 135.985C93.9594 135.993 94.7215 135.719 95.4078 135.314L95.1538 134.884Z" fill="#03092D"/>
<path d="M90.5003 134.704C90.5003 134.704 85.0469 136.05 82.0734 137.648C81.5812 137.913 81.2596 138.4 81.1991 138.956C80.824 142.402 81.3239 148.652 81.3239 148.652L85.1903 146.272L86.0826 145.677V142.704L85.6593 139.578" stroke="#03092D" stroke-linecap="round" stroke-linejoin="round"/>
<path d="M95.2982 134.703C95.2982 134.703 99.2883 135.929 102.937 138.175C103.309 138.404 103.596 138.753 103.72 139.172C104.769 142.698 104.475 148.651 104.475 148.651L100.608 146.272L99.7159 145.677V142.704L98.4246 139.317" stroke="#03092D" stroke-linecap="round" stroke-linejoin="round"/>
<path d="M89.959 136.84C90.2939 137.305 90.8535 139.09 91.3011 145.613" stroke="#03092D" stroke-linecap="round" stroke-linejoin="round"/>
<path d="M94.7769 136.189C94.9784 136.448 95.9948 139.574 96.5875 145.888" stroke="#03092D" stroke-linecap="round" stroke-linejoin="round"/>
</g>
<path opacity="0.1" d="M93.9344 167.495L58.4173 182.905C57.0914 183.48 56.332 184.873 56.6183 186.289C58.1738 193.986 63.7228 218.263 74.0568 231.011C83.1154 242.187 103.245 251.802 108.17 254.964C111.911 250.464 128.342 235.205 133.609 221.818C139.617 206.547 137.587 181.727 136.749 173.919C136.595 172.482 135.451 171.384 134.014 171.235L95.503 167.253C94.968 167.198 94.4278 167.281 93.9344 167.495Z" fill="black"/>
<path d="M107.699 161.789C108.323 161.626 108.978 161.626 109.602 161.789L147.055 171.6C148.727 172.038 149.896 173.553 149.815 175.303C149.633 179.239 149.095 187.438 147.565 196.435C146.038 205.416 143.511 215.261 139.319 222.448C135.638 228.759 129.115 235.066 123.011 240.254C119.953 242.854 116.986 245.184 114.513 247.104C112.029 249.033 110.071 250.526 108.995 251.478L108.581 251.844L108.167 251.478C107.089 250.525 105.141 249.031 102.67 247.103C100.21 245.183 97.2606 242.853 94.2195 240.253C88.1509 235.065 81.6623 228.758 77.9822 222.448C73.79 215.261 71.2634 205.416 69.7361 196.435C68.2063 187.438 67.6682 179.239 67.4861 175.303C67.4053 173.553 68.5746 172.038 70.2468 171.6L107.699 161.789Z" fill="white" stroke="#03092D" stroke-width="1.25"/>
<path d="M107.985 166.759C108.401 166.65 108.839 166.65 109.255 166.759L142.991 175.594C143.979 175.853 144.642 176.735 144.596 177.732C144.433 181.258 143.951 188.606 142.581 196.661C141.208 204.73 138.955 213.444 135.281 219.742C132.066 225.252 126.31 230.836 120.815 235.506C118.074 237.835 115.412 239.925 113.184 241.655C111.244 243.161 109.611 244.409 108.557 245.295C107.506 244.41 105.881 243.161 103.952 241.656C101.735 239.926 99.0887 237.836 96.3638 235.507C90.9 230.837 85.1748 225.253 81.9595 219.742C78.3257 213.513 76.0813 204.921 74.7046 196.925C73.3303 188.944 72.8303 181.62 72.6548 177.968C72.6004 176.832 73.357 175.828 74.481 175.534L107.985 166.759Z" fill="#E9EEF5" stroke="#03092D" stroke-width="1.25"/>
<path d="M98.7559 196.309C101.51 198.66 106.331 203.363 106.331 203.363C106.331 203.363 115.372 192.06 119.733 188.212" stroke="#2E55EC" stroke-width="2" stroke-linecap="round" stroke-linejoin="round"/>
</g>
<defs>
<linearGradient id="paint0_linear_1006_3353" x1="98.426" y1="115.086" x2="98.426" y2="178.604" gradientUnits="userSpaceOnUse">
<stop stop-color="#AEAEFF"/>
<stop offset="1" stop-color="white" stop-opacity="0.8"/>
</linearGradient>
<clipPath id="clip0_1006_3353">
<rect width="217" height="210" fill="white"/>
</clipPath>
<clipPath id="clip1_1006_3353">
<rect width="26.7661" height="33.5638" fill="white" transform="translate(80.2302 112.113)"/>
</clipPath>
</defs>
</svg>
