<svg width="217" height="210" viewBox="0 0 217 210" fill="none" xmlns="http://www.w3.org/2000/svg">
<g clip-path="url(#clip0_1006_4024)">
<path d="M61.2049 18.0005H155.076H160.699C166.875 18.0005 171.882 23.0072 171.882 29.1833V34.8487V43.7209H173V65.8069H171.882V70.0005V71.6779H173V82.5811H171.882V216.482V229.419V230.474C171.882 236.65 166.875 241.656 160.699 241.656H157.162H64.3886H58.0342C50.5033 241.656 44.3984 235.551 44.3988 228.02V224.223V224.162V82.8607H43.0002V58.8177H44.3988V34.8487V29.1833C44.3988 23.0072 49.4055 18.0005 55.5816 18.0005H61.2049Z" fill="#E9EEF5" stroke="#03092D" stroke-linecap="round" stroke-linejoin="round"/>
<path d="M108.139 27.9403C106.972 27.9403 106.026 26.9945 106.026 25.8278C106.026 24.6611 106.972 23.7153 108.139 23.7153C109.305 23.7153 110.251 24.6611 110.251 25.8278C110.251 26.9945 109.305 27.9403 108.139 27.9403Z" fill="#03092D"/>
<path d="M167.408 38.6474V213.015V225.435V228.796C167.408 233.428 163.653 237.183 159.021 237.183H153.721H67.458H57.2578C52.6256 237.183 48.8705 233.428 48.8707 228.795L48.871 224.092V220.447V220.388V38.6474V30.8602C48.871 26.2282 52.626 22.4731 57.2581 22.4731H64.4977H84.1568C85.6974 22.4731 86.9463 23.722 86.9463 25.2626C86.9463 29.8844 90.693 33.6311 95.3147 33.6311H120.721C125.343 33.6311 129.09 29.8844 129.09 25.2626C129.09 23.722 130.339 22.4731 131.879 22.4731H151.781H159.021C163.653 22.4731 167.408 26.2282 167.408 30.8602V38.6474Z" fill="white" stroke="#03092D" stroke-linecap="round" stroke-linejoin="round"/>
<path d="M82.1253 67.4136C82.1245 68.5241 83.7937 68.6866 83.8976 69.7425C84.0006 70.7979 82.3988 71.2812 82.6138 72.3717C82.8313 73.462 84.4981 73.2955 84.8042 74.3086C85.1144 75.3234 83.6347 76.1108 84.0619 77.1381C84.4859 78.1657 86.0883 77.6776 86.5881 78.6118C87.0879 79.546 85.7914 80.6074 86.4101 81.5309C87.0261 82.4557 88.5033 81.6632 89.1763 82.4841C89.8458 83.3034 88.782 84.5961 89.5681 85.3822C90.3536 86.1692 91.6482 85.1047 92.4695 85.7753C93.2884 86.4496 92.4964 87.9259 93.4184 88.543C94.3449 89.1597 95.4065 87.8638 96.3413 88.3628C97.2735 88.8629 96.7865 90.4663 97.8105 90.8902C98.8407 91.3168 99.6298 89.8386 100.643 90.1451C101.656 90.453 101.488 92.1204 102.58 92.337C103.671 92.5533 104.153 90.9505 105.209 91.0542C106.265 91.1585 106.427 92.8246 107.538 92.8252C108.65 92.8245 108.812 91.1579 109.866 91.0553C110.922 90.9507 111.406 92.5531 112.496 92.337C113.587 92.1204 113.419 90.4528 114.432 90.1453C115.446 89.8387 116.236 91.3166 117.264 90.8908C118.289 90.4662 117.802 88.8628 118.735 88.3632C119.67 87.8635 120.731 89.1596 121.657 88.543C122.58 87.9255 121.79 86.4501 122.607 85.7761C123.428 85.1045 124.723 86.1691 125.508 85.3834C126.293 84.5962 125.23 83.3032 125.9 82.4839C126.574 81.6638 128.05 82.4556 128.666 81.5309C129.285 80.6075 127.988 79.5461 128.489 78.6117C128.987 77.678 130.59 78.1657 131.015 77.1386C131.442 76.1108 129.961 75.3229 130.272 74.3077C130.577 73.2953 132.245 73.4616 132.463 72.3715C132.678 71.2814 131.076 70.7976 131.179 69.7423C131.284 68.6858 132.951 68.5239 132.951 67.4137C132.951 66.3005 131.283 66.1406 131.179 65.0859C131.076 64.0301 132.677 63.5467 132.463 62.4558C132.245 61.3646 130.576 61.5325 130.271 60.518C129.963 59.5048 131.44 58.7169 131.014 57.6878C130.59 56.6624 128.987 57.1491 128.489 56.216C127.99 55.2815 129.285 54.22 128.666 53.2943C128.051 52.3722 126.574 53.1641 125.899 52.3463C125.23 51.5229 126.293 50.2298 125.508 49.4438C124.722 48.6586 123.428 49.722 122.606 49.0524C121.788 48.3783 122.581 46.9002 121.658 46.2854C120.731 45.6669 119.671 46.9629 118.735 46.4623C117.802 45.9634 118.29 44.3609 117.264 43.9371C116.235 43.511 115.446 44.9892 114.433 44.6802C113.419 44.3749 113.587 42.7071 112.496 42.489C111.405 42.2749 110.922 43.876 109.866 43.7728C108.811 43.6683 108.65 42.001 107.539 42.0001C106.427 42.0008 106.265 43.6682 105.209 43.7723C104.154 43.8758 103.671 42.2738 102.58 42.4886C101.489 42.7069 101.656 44.3749 100.644 44.6797C99.6294 44.9904 98.8413 43.5106 97.8107 43.937C96.7869 44.3614 97.2734 45.9654 96.3413 46.4628C95.4055 46.9631 94.3449 45.6674 93.4181 46.2853C92.4955 46.9005 93.2869 48.3778 92.4688 49.0524C91.6483 49.7211 90.3534 48.6592 89.5684 49.4437C88.7832 50.2294 89.8454 51.5235 89.1759 52.3452C88.5021 53.1626 87.0264 52.3722 86.4101 53.2943C85.792 54.2197 87.0869 55.2816 86.5875 56.2155C86.09 57.1488 84.4859 56.6624 84.0611 57.6884C83.6349 58.717 85.1157 59.5054 84.8045 60.5192C84.4989 61.5324 82.8318 61.3646 82.6133 62.4566C82.3988 63.5458 84.0004 64.0301 83.896 65.0855C83.7934 66.1398 82.1246 66.3004 82.1253 67.4136Z" fill="#E9EEF5"/>
<path d="M106.344 44.0687L107.255 46.3113L109.674 46.2172L107.823 47.7769L108.66 50.0483L106.604 48.7697L104.703 50.2676L105.284 47.9176L103.271 46.572L105.686 46.3982L106.344 44.0687Z" fill="#3253D1"/>
<path d="M116.616 46.3397L115.958 48.6692L113.543 48.843L115.555 50.1886L114.974 52.5386L116.876 51.0407L118.931 52.3193L118.095 50.0479L119.946 48.4882L117.527 48.5823L116.616 46.3397Z" fill="#3253D1"/>
<path d="M124.445 53.2259L123.787 55.5554L121.372 55.7292L123.384 57.0748L122.804 59.4248L124.705 57.9269L126.761 59.2055L125.924 56.9341L127.775 55.3744L125.356 55.4685L124.445 53.2259Z" fill="#3253D1"/>
<path d="M127.811 63.3636L128.722 65.6062L131.141 65.5121L129.29 67.0718L130.127 69.3432L128.071 68.0646L126.17 69.5625L126.751 67.2125L124.738 65.8669L127.153 65.6931L127.811 63.3636Z" fill="#3253D1"/>
<path d="M125.574 73.6175L124.916 75.9471L122.502 76.1208L124.514 77.4665L123.933 79.8164L125.835 78.3186L127.89 79.5972L127.053 77.3258L128.905 75.7661L126.486 75.8601L125.574 73.6175Z" fill="#3253D1"/>
<path d="M118.554 81.3265L117.896 83.656L115.482 83.8298L117.494 85.1754L116.913 87.5253L118.815 86.0275L120.87 87.3061L120.033 85.0347L121.884 83.475L119.466 83.5691L118.554 81.3265Z" fill="#3253D1"/>
<path d="M108.595 84.6879L109.506 86.9304L111.925 86.8364L110.074 88.3961L110.911 90.6675L108.855 89.3889L106.953 90.8868L107.534 88.5368L105.522 87.1911L107.937 87.0174L108.595 84.6879Z" fill="#3253D1"/>
<path d="M98.2848 82.4496L99.1962 84.6921L101.615 84.5981L99.7638 86.1578L100.601 88.4292L98.5453 87.1507L96.6437 88.6485L97.2245 86.2985L95.2124 84.9529L97.6268 84.7791L98.2848 82.4496Z" fill="#3253D1"/>
<path d="M90.4555 75.5633L91.3668 77.8059L93.7856 77.7119L91.9345 79.2716L92.7714 81.543L90.7159 80.2644L88.8143 81.7623L89.3952 79.4123L87.383 78.0666L89.7974 77.8929L90.4555 75.5633Z" fill="#3253D1"/>
<path d="M87.2792 65.6097L88.1906 67.8523L90.6094 67.7583L88.7582 69.318L89.5951 71.5894L87.5397 70.3108L85.6381 71.8087L86.2189 69.4587L84.2068 68.113L86.6212 67.9393L87.2792 65.6097Z" fill="#3253D1"/>
<path d="M89.3256 55.1717L90.237 57.4143L92.6558 57.3203L90.8046 58.88L91.6415 61.1514L89.5861 59.8728L87.6845 61.3707L88.2653 59.0207L86.2531 57.675L88.6676 57.5013L89.3256 55.1717Z" fill="#3253D1"/>
<path d="M96.346 47.4628L97.2574 49.7053L99.6762 49.6112L97.825 51.1709L98.6619 53.4423L96.6065 52.1637L94.7049 53.6616L95.2858 51.3116L93.2737 49.966L95.688 49.7923L96.346 47.4628Z" fill="#3253D1"/>
<path d="M62.1921 110.043L62.0278 127.813C62.0278 127.813 62.0777 166.043 62.0278 174.641C61.99 181.153 61.9979 189.87 62.01 195.754C62.0175 199.403 64.8784 202.399 68.5241 202.551C73.3561 202.753 79.9545 202.986 84.9768 202.999C94.7472 203.026 109.991 202.253 109.991 202.253L144.644 201.88C146.473 201.867 148.662 201.91 150.731 201.97C154.662 202.084 157.955 198.958 157.955 195.025V176.88C157.955 171.634 158.057 168.69 157.955 163.447C157.861 158.632 158.046 155.949 157.955 151.134C157.77 141.371 157.955 126.134 157.955 126.134V109.945C157.955 106.121 154.834 103.032 151.011 103.071L84.5178 103.746L69.2966 103.236C65.4368 103.107 62.2279 106.181 62.1921 110.043Z" fill="white"/>
<path d="M84.5178 103.746C89.0238 103.587 80.0117 103.895 84.5178 103.746ZM84.5178 103.746C89.1996 103.592 79.8351 103.746 84.5178 103.746ZM84.5178 103.746L151.011 103.071C154.834 103.032 157.955 106.121 157.955 109.945V126.134C157.955 126.134 157.77 141.371 157.955 151.134C158.046 155.949 157.861 158.632 157.955 163.447C158.057 168.69 157.955 171.634 157.955 176.88C157.955 182.416 157.955 189.687 157.955 195.025C157.955 198.958 154.662 202.084 150.731 201.97C148.662 201.91 146.473 201.867 144.644 201.88L109.991 202.253C109.991 202.253 94.7472 203.026 84.9768 202.999C79.9545 202.986 73.3561 202.753 68.5241 202.551C64.8784 202.399 62.0175 199.403 62.01 195.754C61.9979 189.87 61.99 181.153 62.0278 174.641C62.0777 166.043 62.0278 127.813 62.0278 127.813L62.1921 110.043C62.2279 106.181 65.4368 103.107 69.2966 103.236L84.5178 103.746Z" stroke="black" stroke-linecap="round" stroke-linejoin="round"/>
<path d="M100.278 134.932C101.735 134.976 102.887 136.182 102.863 137.64L102.648 151.092V151.107L102.864 164.991C102.887 166.48 101.687 167.699 100.198 167.699H72.5361C71.1164 167.699 69.9504 166.589 69.8877 165.175C69.7309 161.635 69.5 155.695 69.5 151.362C69.5 146.99 69.7347 140.98 69.8916 137.453C69.9532 136.072 71.0695 134.977 72.4561 134.933L85.9424 134.5L100.278 134.932Z" fill="#E9EEF5" stroke="#03092D"/>
<g clip-path="url(#clip1_1006_4024)">
<path d="M86.7191 157.203L83.9434 156.432V153.965L83.0181 151.189L82.2471 148.105V145.792L83.4807 144.096L87.9528 142.399L89.9575 139.778L94.5837 142.399L95.8174 144.558L95.3547 148.105L94.5837 152.114L91.3453 154.89L88.5696 155.97V156.741L86.7191 157.203Z" fill="#FFCEB6"/>
<path d="M84.2108 155.108C84.2108 154.718 86.9866 157.347 88.6829 156.113V156.884L86.0199 157.266L84.2637 156.485C84.0066 155.765 84.2108 155.571 84.2108 155.108Z" fill="#F9AC8A"/>
<path d="M90.2128 167.642C89.6077 162.208 88.1448 160.149 87.2517 157.952C87.121 157.631 87.3006 157.273 87.6313 157.168L88.693 156.831C88.8102 156.793 88.9359 156.792 89.0539 156.827L93.2119 158.05C93.2716 158.067 93.3282 158.094 93.38 158.128L96.629 160.294C96.7517 160.376 96.841 160.499 96.8808 160.641L97.7082 163.596C97.7233 163.65 97.731 163.706 97.731 163.762V167.45C97.731 167.758 97.5035 168.019 97.1982 168.061L94.4448 168.44C94.3502 168.453 94.2621 168.389 94.2451 168.295C94.2071 168.086 93.9018 168.106 93.8915 168.318L93.8844 168.463L90.7779 168.198C90.4814 168.173 90.2457 167.938 90.2128 167.642Z" fill="#E1F0FF"/>
<path d="M87.7979 157.205C87.9521 157.514 88.2297 158.47 88.7232 159.827C89.1993 161.136 89.7674 165.386 90.0726 168.462H84.5596C83.7886 165.841 85.4849 158.439 82.0923 157.36L83.7886 156.743L85.7933 157.36L87.7979 157.205Z" fill="white"/>
<path d="M79.0345 168.008L74.785 170.467L74.5076 165.463L74.7391 160.903C74.7674 160.346 75.0981 159.849 75.601 159.607L77.5177 158.687C77.5923 158.651 77.6697 158.621 77.7491 158.598L81.9592 157.366C82.6927 157.197 83.4123 157.696 83.5118 158.442L83.9432 161.678L84.7405 168.425L80.3927 168.969C80.0839 169.008 79.8111 168.767 79.8111 168.456C79.8111 168.057 79.3794 167.808 79.0345 168.008Z" fill="#E1F0FF"/>
<path d="M95.6129 145.427C95.9509 145.689 96.7461 146.182 97.222 146.063C96.9245 145.915 97.1006 145.103 97.3707 144.725C98.1142 143.684 98.1142 142.346 98.1142 142.346C98.0646 141.999 97.8168 141.602 97.222 141.008C96.6557 140.441 97.2219 138.033 91.7198 137.439C90.0955 137.348 87.898 135.763 84.1551 139.008C83.3646 139.694 82.8654 140.649 82.6091 141.663C82.3166 142.82 81.9882 144.193 81.9791 144.725C81.9663 145.473 82.165 146.096 82.2026 146.51C82.2921 145.774 82.5104 145.063 83.5367 144.725C85.9994 143.915 86.7953 144.549 89.1875 141.644C90.853 139.621 93.1573 142.098 93.5043 143.09C94 142.842 96.181 142.792 95.6129 145.427Z" fill="#4B4D59"/>
<path d="M88.5966 156.027L88.6333 155.528C88.3781 155.509 88.1498 155.686 88.1045 155.938L88.5966 156.027ZM91.7198 154.689L91.9728 155.12L91.9789 155.116L91.7198 154.689ZM93.5043 153.35L93.863 153.699V153.699L93.5043 153.35ZM94.8426 151.417L94.4261 151.14L94.4144 151.158L94.4042 151.177L94.8426 151.417ZM95.6129 145.427L95.1241 145.322C95.1148 145.365 95.1113 145.409 95.1135 145.453L95.6129 145.427ZM83.5367 153.043L83.0735 153.231L83.0735 153.231L83.5367 153.043ZM84.0163 154.996L84.5115 154.928L84.5115 154.927L84.0163 154.996ZM83.9426 156.508L83.4902 156.295C83.3818 156.525 83.4636 156.8 83.6802 156.934L83.9426 156.508ZM97.222 146.063L97.3432 146.548C97.5462 146.498 97.6961 146.326 97.719 146.118C97.7418 145.91 97.6327 145.71 97.4456 145.616L97.222 146.063ZM97.3707 144.725L97.7775 145.016V145.016L97.3707 144.725ZM98.1142 142.346H98.6142C98.6142 142.322 98.6125 142.299 98.6092 142.275L98.1142 142.346ZM97.222 141.008L97.5755 140.654V140.654L97.222 141.008ZM91.7198 137.439L91.7735 136.941C91.7649 136.941 91.7562 136.94 91.7475 136.939L91.7198 137.439ZM84.1551 139.008L84.4826 139.386V139.386L84.1551 139.008ZM82.6091 141.663L83.0939 141.785H83.0939L82.6091 141.663ZM81.9791 144.725L82.479 144.734L81.9791 144.725ZM82.2026 146.51L82.6989 146.57V146.57L82.2026 146.51ZM83.5367 144.725L83.3804 144.25V144.25L83.5367 144.725ZM89.1875 141.644L89.5735 141.962V141.962L89.1875 141.644ZM93.5043 143.09L93.0323 143.255C93.0798 143.39 93.1833 143.499 93.3164 143.553C93.4495 143.607 93.5994 143.601 93.7279 143.537L93.5043 143.09ZM82.3553 148.599L82.8472 148.509C82.8449 148.497 82.8422 148.484 82.8389 148.472L82.3553 148.599ZM88.597 156.77L88.851 157.201C89.0759 157.068 89.1609 156.785 89.046 156.551L88.597 156.77ZM87.6133 147.302C87.7243 147.554 88.0192 147.669 88.2721 147.558C88.525 147.448 88.64 147.153 88.5291 146.9L88.0712 147.101L87.6133 147.302ZM87.4255 146.66L87.3906 147.159L87.3911 147.159L87.4255 146.66ZM86.2069 146.897C86.0947 147.15 86.2082 147.445 86.4606 147.557C86.7129 147.67 87.0084 147.556 87.1206 147.304L86.6638 147.101L86.2069 146.897ZM93.2642 147.599C93.3751 147.852 93.6701 147.967 93.923 147.856C94.1758 147.745 94.2909 147.45 94.1799 147.197L93.7221 147.398L93.2642 147.599ZM93.0763 146.958L93.0415 147.457L93.0419 147.457L93.0763 146.958ZM91.8578 147.195C91.7456 147.447 91.8591 147.743 92.1114 147.855C92.3637 147.967 92.6592 147.854 92.7715 147.601L92.3146 147.398L91.8578 147.195ZM87.9527 152.242C87.9033 151.971 87.643 151.791 87.3713 151.84C87.0996 151.889 86.9194 152.15 86.9688 152.421L87.4607 152.332L87.9527 152.242ZM88.364 153.459L88.1742 153.922L88.1748 153.922L88.364 153.459ZM89.8787 153.826C90.1219 153.695 90.2128 153.392 90.0819 153.148C89.951 152.905 89.6478 152.814 89.4046 152.945L89.6417 153.386L89.8787 153.826ZM88.5966 156.027L88.5599 156.526C88.7288 156.538 88.906 156.509 89.0624 156.471C89.2255 156.432 89.4003 156.375 89.5756 156.309C89.9263 156.178 90.3105 156 90.6611 155.826C91.0135 155.651 91.3406 155.475 91.5792 155.343C91.6987 155.277 91.7964 155.221 91.8646 155.182C91.8987 155.163 91.9254 155.147 91.9437 155.137C91.9529 155.131 91.96 155.127 91.9649 155.124C91.9673 155.123 91.9692 155.122 91.9705 155.121C91.9712 155.121 91.9717 155.12 91.9721 155.12C91.9723 155.12 91.9724 155.12 91.9726 155.12C91.9726 155.12 91.9727 155.12 91.9727 155.12C91.9727 155.12 91.9728 155.12 91.7198 154.689C91.4668 154.257 91.4668 154.257 91.4668 154.257C91.4668 154.257 91.4668 154.257 91.4668 154.257C91.4668 154.257 91.4667 154.257 91.4666 154.257C91.4664 154.258 91.4661 154.258 91.4656 154.258C91.4646 154.259 91.4631 154.259 91.461 154.261C91.4569 154.263 91.4506 154.267 91.4422 154.272C91.4254 154.281 91.4003 154.296 91.368 154.314C91.3033 154.351 91.2097 154.404 91.0948 154.468C90.8646 154.595 90.5512 154.764 90.2162 154.931C89.8795 155.098 89.5296 155.259 89.2246 155.373C89.0721 155.43 88.9386 155.473 88.8286 155.499C88.712 155.527 88.6513 155.53 88.6333 155.528L88.5966 156.027ZM91.7198 154.689C91.9789 155.116 91.9789 155.116 91.9789 155.116C91.979 155.116 91.979 155.116 91.9791 155.116C91.9791 155.116 91.9792 155.116 91.9793 155.116C91.9796 155.116 91.9799 155.116 91.9803 155.115C91.981 155.115 91.982 155.114 91.9834 155.113C91.986 155.112 91.9897 155.11 91.9945 155.107C92.004 155.101 92.0178 155.092 92.0353 155.081C92.0704 155.06 92.1206 155.028 92.1826 154.989C92.3064 154.909 92.4779 154.797 92.6692 154.665C93.0442 154.405 93.5239 154.048 93.863 153.699L93.5043 153.35L93.1456 153.002C92.8778 153.278 92.4653 153.59 92.0998 153.843C91.9208 153.967 91.7599 154.072 91.644 154.146C91.5861 154.183 91.5396 154.212 91.5079 154.232C91.492 154.242 91.4799 154.249 91.4719 154.254C91.4679 154.257 91.4649 154.258 91.463 154.26C91.4621 154.26 91.4614 154.26 91.461 154.261C91.4609 154.261 91.4607 154.261 91.4607 154.261C91.4607 154.261 91.4606 154.261 91.4607 154.261C91.4607 154.261 91.4607 154.261 91.4607 154.261C91.4607 154.261 91.4607 154.261 91.7198 154.689ZM93.5043 153.35L93.863 153.699C94.2204 153.33 94.5776 152.811 94.8354 152.405C94.967 152.197 95.0777 152.012 95.1557 151.878C95.1947 151.811 95.2256 151.756 95.247 151.718C95.2577 151.699 95.266 151.685 95.2717 151.674C95.2746 151.669 95.2768 151.665 95.2784 151.662C95.2792 151.661 95.2798 151.66 95.2802 151.659C95.2805 151.658 95.2806 151.658 95.2808 151.658C95.2809 151.658 95.2809 151.658 95.281 151.658C95.281 151.658 95.281 151.657 95.281 151.657C95.2811 151.657 95.2811 151.657 94.8426 151.417C94.4042 151.177 94.4042 151.177 94.4042 151.177C94.4042 151.177 94.4043 151.177 94.4043 151.177C94.4043 151.177 94.4043 151.177 94.4042 151.177C94.4042 151.177 94.4041 151.177 94.404 151.177C94.4038 151.177 94.4034 151.178 94.4028 151.179C94.4017 151.181 94.3999 151.184 94.3975 151.189C94.3927 151.197 94.3854 151.211 94.3757 151.228C94.3564 151.262 94.3278 151.312 94.2913 151.375C94.2182 151.501 94.1143 151.675 93.9913 151.869C93.7399 152.264 93.4278 152.711 93.1456 153.002L93.5043 153.35ZM94.8426 151.417C95.2591 151.694 95.2593 151.693 95.2595 151.693C95.2596 151.693 95.2598 151.693 95.26 151.692C95.2603 151.692 95.2606 151.691 95.2609 151.691C95.2616 151.69 95.2623 151.689 95.263 151.688C95.2646 151.685 95.2663 151.683 95.2683 151.679C95.2722 151.673 95.277 151.665 95.2826 151.656C95.2939 151.637 95.3083 151.612 95.3253 151.581C95.3594 151.517 95.4041 151.428 95.4549 151.308C95.5567 151.07 95.6831 150.714 95.7999 150.22C96.0334 149.23 96.2282 147.685 96.1122 145.402L95.6129 145.427L95.1135 145.453C95.2255 147.657 95.0352 149.106 94.8266 149.99C94.7223 150.432 94.6134 150.732 94.5352 150.916C94.496 151.008 94.4645 151.07 94.4449 151.107C94.4351 151.125 94.4282 151.136 94.425 151.142C94.4233 151.145 94.4225 151.146 94.4227 151.146C94.4228 151.145 94.4231 151.145 94.4237 151.144C94.424 151.144 94.4243 151.143 94.4247 151.143C94.4249 151.142 94.4252 151.142 94.4254 151.142C94.4255 151.141 94.4257 151.141 94.4258 151.141C94.4259 151.141 94.4261 151.14 94.8426 151.417ZM83.5367 153.043C83.0735 153.231 83.0735 153.231 83.0735 153.231C83.0734 153.231 83.0734 153.231 83.0734 153.231C83.0734 153.231 83.0733 153.23 83.0733 153.23C83.0733 153.23 83.0732 153.23 83.0732 153.23C83.0732 153.23 83.0733 153.23 83.0734 153.231C83.0737 153.231 83.0742 153.233 83.075 153.235C83.0767 153.239 83.0795 153.246 83.0832 153.256C83.0908 153.276 83.1023 153.307 83.117 153.348C83.1463 153.432 83.188 153.556 83.2349 153.717C83.3287 154.04 83.4429 154.504 83.5211 155.065L84.0163 154.996L84.5115 154.927C84.4255 154.31 84.2999 153.798 84.195 153.438C84.1425 153.257 84.095 153.115 84.06 153.016C84.0426 152.966 84.0282 152.927 84.0178 152.9C84.0127 152.887 84.0085 152.876 84.0054 152.868C84.0039 152.864 84.0027 152.861 84.0017 152.859C84.0013 152.858 84.0009 152.857 84.0005 152.856C84.0004 152.856 84.0002 152.855 84.0001 152.855C84.0001 152.855 84 152.855 83.9999 152.854C83.9999 152.854 83.9999 152.854 83.9999 152.854C83.9998 152.854 83.9998 152.854 83.5367 153.043ZM84.0163 154.996L83.521 155.065C83.6431 155.943 83.5442 156.18 83.4902 156.295L83.9426 156.508L84.3949 156.721C84.565 156.36 84.647 155.902 84.5115 154.928L84.0163 154.996ZM95.6129 145.427L95.3069 145.823C95.4987 145.971 95.8131 146.181 96.1532 146.341C96.3237 146.421 96.5132 146.494 96.7057 146.538C96.8936 146.581 97.119 146.605 97.3432 146.548L97.222 146.063L97.1007 145.578C97.087 145.582 97.0346 145.588 96.929 145.564C96.828 145.54 96.7083 145.497 96.5783 145.436C96.3173 145.313 96.0651 145.145 95.9188 145.032L95.6129 145.427ZM97.222 146.063L97.4456 145.616C97.5668 145.677 97.5779 145.775 97.5716 145.744C97.5666 145.72 97.5625 145.657 97.5779 145.555C97.6092 145.348 97.697 145.129 97.7775 145.016L97.3707 144.725L96.9638 144.435C96.7743 144.7 96.639 145.075 96.5891 145.406C96.5639 145.572 96.5547 145.764 96.5919 145.945C96.6278 146.12 96.7284 146.376 96.9983 146.511L97.222 146.063ZM97.3707 144.725L97.7775 145.016C98.2053 144.417 98.4108 143.747 98.5115 143.243C98.5624 142.989 98.588 142.769 98.6009 142.612C98.6074 142.533 98.6107 142.47 98.6124 142.424C98.6132 142.402 98.6137 142.383 98.6139 142.37C98.614 142.364 98.6141 142.358 98.6141 142.354C98.6142 142.352 98.6142 142.35 98.6142 142.349C98.6142 142.348 98.6142 142.348 98.6142 142.347C98.6142 142.347 98.6142 142.347 98.6142 142.347C98.6142 142.346 98.6142 142.346 98.6142 142.346C98.6142 142.346 98.6142 142.346 98.1142 142.346C97.6142 142.346 97.6142 142.346 97.6142 142.346C97.6142 142.346 97.6142 142.345 97.6142 142.345C97.6142 142.345 97.6142 142.345 97.6142 142.345C97.6142 142.345 97.6142 142.345 97.6142 142.345C97.6142 142.345 97.6142 142.345 97.6142 142.345C97.6142 142.346 97.6142 142.349 97.6141 142.352C97.614 142.359 97.6137 142.371 97.6131 142.387C97.6119 142.419 97.6094 142.468 97.6042 142.53C97.5939 142.657 97.573 142.837 97.531 143.047C97.4458 143.473 97.2795 143.993 96.9638 144.435L97.3707 144.725ZM98.1142 142.346L98.6092 142.275C98.5347 141.754 98.1781 141.257 97.5755 140.654L97.222 141.008L96.8684 141.361C97.4554 141.948 97.5946 142.244 97.6192 142.417L98.1142 142.346ZM97.222 141.008L97.5755 140.654C97.5769 140.655 97.5541 140.631 97.5116 140.527C97.4674 140.419 97.4324 140.307 97.3679 140.126C97.2478 139.79 97.07 139.355 96.7074 138.915C95.9733 138.027 94.5891 137.246 91.7735 136.941L91.7198 137.439L91.6661 137.936C94.3526 138.226 95.4364 138.947 95.9363 139.552C96.1906 139.86 96.3214 140.17 96.4263 140.463C96.4743 140.597 96.531 140.771 96.5857 140.905C96.642 141.043 96.7255 141.218 96.8684 141.361L97.222 141.008ZM91.7198 137.439L91.7475 136.939C91.3952 136.92 91.0122 136.819 90.4884 136.702C89.9861 136.589 89.399 136.474 88.7327 136.473C87.3728 136.471 85.7746 136.942 83.8275 138.631L84.1551 139.008L84.4826 139.386C86.2785 137.829 87.6505 137.471 88.7311 137.473C89.2851 137.474 89.7859 137.569 90.2694 137.677C90.7314 137.781 91.2323 137.912 91.6921 137.938L91.7198 137.439ZM82.6091 141.663L82.1244 141.54C81.9778 142.12 81.8208 142.76 81.6991 143.323C81.5811 143.869 81.4847 144.393 81.4792 144.717L81.9791 144.725L82.479 144.734C82.4826 144.525 82.555 144.096 82.6766 143.534C82.7945 142.989 82.948 142.363 83.0939 141.785L82.6091 141.663ZM81.9791 144.725L81.4792 144.717C81.472 145.136 81.5243 145.514 81.5795 145.829C81.6392 146.17 81.6883 146.375 81.7046 146.555L82.2026 146.51L82.7005 146.464C82.6793 146.231 82.6102 145.917 82.5644 145.656C82.5141 145.369 82.4734 145.062 82.479 144.734L81.9791 144.725ZM83.5367 144.725L83.6929 145.2C84.282 145.006 84.7716 144.899 85.2287 144.799C85.6799 144.701 86.1223 144.606 86.566 144.437C87.4851 144.088 88.3488 143.449 89.5735 141.962L89.1875 141.644L88.8016 141.326C87.634 142.744 86.9036 143.24 86.211 143.503C85.8489 143.64 85.4811 143.72 85.0156 143.822C84.5561 143.922 84.0226 144.039 83.3804 144.25L83.5367 144.725ZM89.1875 141.644L89.5735 141.962C89.916 141.546 90.2534 141.4 90.556 141.375C90.8753 141.35 91.2267 141.454 91.5855 141.667C91.9423 141.878 92.2742 142.178 92.5377 142.486C92.8066 142.8 92.9737 143.087 93.0323 143.255L93.5043 143.09L93.9762 142.924C93.8614 142.596 93.6103 142.202 93.2976 141.836C92.9794 141.464 92.5661 141.085 92.0952 140.806C91.6264 140.529 91.0677 140.331 90.4757 140.379C89.867 140.428 89.2918 140.731 88.8016 141.326L89.1875 141.644ZM93.5043 143.09L93.7279 143.537C93.7278 143.537 93.7286 143.536 93.7303 143.536C93.7319 143.535 93.7343 143.534 93.7374 143.533C93.7438 143.53 93.7525 143.527 93.7638 143.524C93.7865 143.517 93.8163 143.509 93.8529 143.502C93.9264 143.488 94.018 143.479 94.1196 143.48C94.3266 143.481 94.5432 143.523 94.7222 143.618C94.8913 143.709 95.0367 143.85 95.1232 144.087C95.2134 144.334 95.2532 144.723 95.1241 145.322L95.6129 145.427L96.1016 145.533C96.2566 144.814 96.2368 144.221 96.0624 143.744C95.8842 143.256 95.56 142.932 95.1928 142.736C94.8356 142.546 94.4495 142.482 94.1259 142.48C93.8139 142.478 93.4989 142.533 93.2807 142.642L93.5043 143.09ZM82.3553 148.599L81.8633 148.688C82.0994 149.99 82.4939 151.806 83.0735 153.231L83.5367 153.043L83.9998 152.854C83.4612 151.53 83.0811 149.798 82.8472 148.509L82.3553 148.599ZM83.5367 144.725L83.3804 144.25C82.7688 144.451 82.3566 144.782 82.0938 145.204C81.8411 145.61 81.7536 146.06 81.7062 146.449L82.2026 146.51L82.6989 146.57C82.7411 146.223 82.8076 145.95 82.9429 145.732C83.0682 145.531 83.2783 145.337 83.6929 145.2L83.5367 144.725ZM82.2026 146.51L81.7062 146.449C81.6364 147.023 81.6796 147.592 81.7365 148.008C81.7653 148.218 81.7983 148.394 81.8243 148.519C81.8374 148.582 81.8488 148.632 81.8571 148.667C81.8613 148.684 81.8647 148.698 81.8672 148.708C81.8684 148.713 81.8694 148.717 81.8702 148.72C81.8705 148.721 81.8709 148.723 81.8711 148.723C81.8712 148.724 81.8713 148.724 81.8714 148.725C81.8715 148.725 81.8715 148.725 81.8716 148.725C81.8716 148.725 81.8716 148.725 81.8716 148.725C81.8716 148.726 81.8716 148.726 82.3553 148.599C82.8389 148.472 82.8389 148.472 82.8389 148.472C82.8389 148.472 82.839 148.472 82.839 148.472C82.839 148.472 82.839 148.472 82.839 148.472C82.839 148.472 82.839 148.472 82.839 148.472C82.839 148.472 82.8389 148.472 82.8388 148.471C82.8385 148.47 82.838 148.468 82.8372 148.465C82.8357 148.459 82.8332 148.449 82.83 148.436C82.8236 148.409 82.8143 148.368 82.8032 148.315C82.7811 148.209 82.7524 148.056 82.7273 147.872C82.6765 147.501 82.6434 147.026 82.6989 146.57L82.2026 146.51ZM84.1551 139.008L83.8275 138.631C82.9416 139.399 82.3991 140.453 82.1244 141.54L82.6091 141.663L83.0939 141.785C83.3318 140.844 83.7876 139.989 84.4826 139.386L84.1551 139.008ZM88.5966 156.027L88.1045 155.938C88.0955 155.988 87.8887 156.461 88.1479 156.99L88.597 156.77L89.046 156.551C89.01 156.477 89.0133 156.443 89.0168 156.417C89.02 156.393 89.0263 156.366 89.0401 156.315C89.0514 156.274 89.0744 156.195 89.0887 156.116L88.5966 156.027ZM88.0712 147.101L88.5291 146.9C88.3408 146.471 87.9192 146.193 87.4599 146.161L87.4255 146.66L87.3911 147.159C87.5018 147.167 87.5834 147.233 87.6133 147.302L88.0712 147.101ZM87.4255 146.66L87.4603 146.162C86.9426 146.125 86.4253 146.407 86.2069 146.897L86.6638 147.101L87.1206 147.304C87.1559 147.225 87.2617 147.15 87.3906 147.159L87.4255 146.66ZM93.7221 147.398L94.1799 147.197C93.9917 146.768 93.5701 146.491 93.1107 146.459L93.0763 146.958L93.0419 147.457C93.1526 147.464 93.2343 147.531 93.2642 147.599L93.7221 147.398ZM93.0763 146.958L93.1112 146.459C92.5934 146.423 92.0761 146.704 91.8578 147.195L92.3146 147.398L92.7715 147.601C92.8067 147.522 92.9125 147.447 93.0415 147.457L93.0763 146.958ZM87.4607 152.332L86.9688 152.421C86.9822 152.495 87.177 153.513 88.1742 153.922L88.364 153.459L88.5537 152.997C88.3183 152.9 88.1706 152.728 88.0759 152.559C87.9794 152.386 87.9517 152.237 87.9527 152.242L87.4607 152.332ZM88.364 153.459L88.1748 153.922C89.0304 154.272 89.7768 153.881 89.8787 153.826L89.6417 153.386L89.4046 152.945C89.3532 152.973 88.9673 153.166 88.5531 152.996L88.364 153.459ZM88.597 156.77L88.343 156.34C87.7685 156.679 87.1843 156.878 86.5375 156.872C85.8889 156.865 85.1286 156.652 84.2049 156.082L83.9426 156.508L83.6802 156.934C84.7182 157.574 85.6548 157.863 86.5278 157.872C87.4025 157.88 88.1647 157.606 88.851 157.201L88.597 156.77Z" fill="url(#paint0_linear_1006_4024)"/>
<path d="M88.5966 156.027L88.6333 155.528C88.3781 155.509 88.1498 155.686 88.1045 155.938L88.5966 156.027ZM91.7198 154.689L91.9728 155.12L91.9789 155.116L91.7198 154.689ZM93.5043 153.35L93.863 153.699V153.699L93.5043 153.35ZM94.8426 151.417L94.4261 151.14L94.4144 151.158L94.4042 151.177L94.8426 151.417ZM95.6129 145.427L95.1241 145.322C95.1148 145.365 95.1113 145.409 95.1135 145.453L95.6129 145.427ZM83.5367 153.043L83.0735 153.231L83.0735 153.231L83.5367 153.043ZM84.0163 154.996L84.5115 154.928L84.5115 154.927L84.0163 154.996ZM83.9426 156.508L83.4902 156.295C83.3818 156.525 83.4636 156.8 83.6802 156.934L83.9426 156.508ZM97.222 146.063L97.3432 146.548C97.5462 146.498 97.6961 146.326 97.719 146.118C97.7418 145.91 97.6327 145.71 97.4456 145.616L97.222 146.063ZM97.3707 144.725L97.7775 145.016V145.016L97.3707 144.725ZM98.1142 142.346H98.6142C98.6142 142.322 98.6125 142.299 98.6092 142.275L98.1142 142.346ZM97.222 141.008L97.5755 140.654V140.654L97.222 141.008ZM91.7198 137.439L91.7735 136.941C91.7649 136.941 91.7562 136.94 91.7475 136.939L91.7198 137.439ZM84.1551 139.008L84.4826 139.386V139.386L84.1551 139.008ZM82.6091 141.663L83.0939 141.785H83.0939L82.6091 141.663ZM81.9791 144.725L82.479 144.734L81.9791 144.725ZM82.2026 146.51L82.6989 146.57V146.57L82.2026 146.51ZM83.5367 144.725L83.3804 144.25V144.25L83.5367 144.725ZM89.1875 141.644L89.5735 141.962V141.962L89.1875 141.644ZM93.5043 143.09L93.0323 143.255C93.0798 143.39 93.1833 143.499 93.3164 143.553C93.4495 143.607 93.5994 143.601 93.7279 143.537L93.5043 143.09ZM82.3553 148.599L82.8472 148.509C82.8449 148.497 82.8422 148.484 82.8389 148.472L82.3553 148.599ZM88.597 156.77L88.851 157.201C89.0759 157.068 89.1609 156.785 89.046 156.551L88.597 156.77ZM87.6133 147.302C87.7243 147.554 88.0192 147.669 88.2721 147.558C88.525 147.448 88.64 147.153 88.5291 146.9L88.0712 147.101L87.6133 147.302ZM87.4255 146.66L87.3906 147.159L87.3911 147.159L87.4255 146.66ZM86.2069 146.897C86.0947 147.15 86.2082 147.445 86.4606 147.557C86.7129 147.67 87.0084 147.556 87.1206 147.304L86.6638 147.101L86.2069 146.897ZM93.2642 147.599C93.3751 147.852 93.6701 147.967 93.923 147.856C94.1758 147.745 94.2909 147.45 94.1799 147.197L93.7221 147.398L93.2642 147.599ZM93.0763 146.958L93.0415 147.457L93.0419 147.457L93.0763 146.958ZM91.8578 147.195C91.7456 147.447 91.8591 147.743 92.1114 147.855C92.3637 147.967 92.6592 147.854 92.7715 147.601L92.3146 147.398L91.8578 147.195ZM87.9527 152.242C87.9033 151.971 87.643 151.791 87.3713 151.84C87.0996 151.889 86.9194 152.15 86.9688 152.421L87.4607 152.332L87.9527 152.242ZM88.364 153.459L88.1742 153.922L88.1748 153.922L88.364 153.459ZM89.8787 153.826C90.1219 153.695 90.2128 153.392 90.0819 153.148C89.951 152.905 89.6478 152.814 89.4046 152.945L89.6417 153.386L89.8787 153.826ZM88.5966 156.027L88.5599 156.526C88.7288 156.538 88.906 156.509 89.0624 156.471C89.2255 156.432 89.4003 156.375 89.5756 156.309C89.9263 156.178 90.3105 156 90.6611 155.826C91.0135 155.651 91.3406 155.475 91.5792 155.343C91.6987 155.277 91.7964 155.221 91.8646 155.182C91.8987 155.163 91.9254 155.147 91.9437 155.137C91.9529 155.131 91.96 155.127 91.9649 155.124C91.9673 155.123 91.9692 155.122 91.9705 155.121C91.9712 155.121 91.9717 155.12 91.9721 155.12C91.9723 155.12 91.9724 155.12 91.9726 155.12C91.9726 155.12 91.9727 155.12 91.9727 155.12C91.9727 155.12 91.9728 155.12 91.7198 154.689C91.4668 154.257 91.4668 154.257 91.4668 154.257C91.4668 154.257 91.4668 154.257 91.4668 154.257C91.4668 154.257 91.4667 154.257 91.4666 154.257C91.4664 154.258 91.4661 154.258 91.4656 154.258C91.4646 154.259 91.4631 154.259 91.461 154.261C91.4569 154.263 91.4506 154.267 91.4422 154.272C91.4254 154.281 91.4003 154.296 91.368 154.314C91.3033 154.351 91.2097 154.404 91.0948 154.468C90.8646 154.595 90.5512 154.764 90.2162 154.931C89.8795 155.098 89.5296 155.259 89.2246 155.373C89.0721 155.43 88.9386 155.473 88.8286 155.499C88.712 155.527 88.6513 155.53 88.6333 155.528L88.5966 156.027ZM91.7198 154.689C91.9789 155.116 91.9789 155.116 91.9789 155.116C91.979 155.116 91.979 155.116 91.9791 155.116C91.9791 155.116 91.9792 155.116 91.9793 155.116C91.9796 155.116 91.9799 155.116 91.9803 155.115C91.981 155.115 91.982 155.114 91.9834 155.113C91.986 155.112 91.9897 155.11 91.9945 155.107C92.004 155.101 92.0178 155.092 92.0353 155.081C92.0704 155.06 92.1206 155.028 92.1826 154.989C92.3064 154.909 92.4779 154.797 92.6692 154.665C93.0442 154.405 93.5239 154.048 93.863 153.699L93.5043 153.35L93.1456 153.002C92.8778 153.278 92.4653 153.59 92.0998 153.843C91.9208 153.967 91.7599 154.072 91.644 154.146C91.5861 154.183 91.5396 154.212 91.5079 154.232C91.492 154.242 91.4799 154.249 91.4719 154.254C91.4679 154.257 91.4649 154.258 91.463 154.26C91.4621 154.26 91.4614 154.26 91.461 154.261C91.4609 154.261 91.4607 154.261 91.4607 154.261C91.4607 154.261 91.4606 154.261 91.4607 154.261C91.4607 154.261 91.4607 154.261 91.4607 154.261C91.4607 154.261 91.4607 154.261 91.7198 154.689ZM93.5043 153.35L93.863 153.699C94.2204 153.33 94.5776 152.811 94.8354 152.405C94.967 152.197 95.0777 152.012 95.1557 151.878C95.1947 151.811 95.2256 151.756 95.247 151.718C95.2577 151.699 95.266 151.685 95.2717 151.674C95.2746 151.669 95.2768 151.665 95.2784 151.662C95.2792 151.661 95.2798 151.66 95.2802 151.659C95.2805 151.658 95.2806 151.658 95.2808 151.658C95.2809 151.658 95.2809 151.658 95.281 151.658C95.281 151.658 95.281 151.657 95.281 151.657C95.2811 151.657 95.2811 151.657 94.8426 151.417C94.4042 151.177 94.4042 151.177 94.4042 151.177C94.4042 151.177 94.4043 151.177 94.4043 151.177C94.4043 151.177 94.4043 151.177 94.4042 151.177C94.4042 151.177 94.4041 151.177 94.404 151.177C94.4038 151.177 94.4034 151.178 94.4028 151.179C94.4017 151.181 94.3999 151.184 94.3975 151.189C94.3927 151.197 94.3854 151.211 94.3757 151.228C94.3564 151.262 94.3278 151.312 94.2913 151.375C94.2182 151.501 94.1143 151.675 93.9913 151.869C93.7399 152.264 93.4278 152.711 93.1456 153.002L93.5043 153.35ZM94.8426 151.417C95.2591 151.694 95.2593 151.693 95.2595 151.693C95.2596 151.693 95.2598 151.693 95.26 151.692C95.2603 151.692 95.2606 151.691 95.2609 151.691C95.2616 151.69 95.2623 151.689 95.263 151.688C95.2646 151.685 95.2663 151.683 95.2683 151.679C95.2722 151.673 95.277 151.665 95.2826 151.656C95.2939 151.637 95.3083 151.612 95.3253 151.581C95.3594 151.517 95.4041 151.428 95.4549 151.308C95.5567 151.07 95.6831 150.714 95.7999 150.22C96.0334 149.23 96.2282 147.685 96.1122 145.402L95.6129 145.427L95.1135 145.453C95.2255 147.657 95.0352 149.106 94.8266 149.99C94.7223 150.432 94.6134 150.732 94.5352 150.916C94.496 151.008 94.4645 151.07 94.4449 151.107C94.4351 151.125 94.4282 151.136 94.425 151.142C94.4233 151.145 94.4225 151.146 94.4227 151.146C94.4228 151.145 94.4231 151.145 94.4237 151.144C94.424 151.144 94.4243 151.143 94.4247 151.143C94.4249 151.142 94.4252 151.142 94.4254 151.142C94.4255 151.141 94.4257 151.141 94.4258 151.141C94.4259 151.141 94.4261 151.14 94.8426 151.417ZM83.5367 153.043C83.0735 153.231 83.0735 153.231 83.0735 153.231C83.0734 153.231 83.0734 153.231 83.0734 153.231C83.0734 153.231 83.0733 153.23 83.0733 153.23C83.0733 153.23 83.0732 153.23 83.0732 153.23C83.0732 153.23 83.0733 153.23 83.0734 153.231C83.0737 153.231 83.0742 153.233 83.075 153.235C83.0767 153.239 83.0795 153.246 83.0832 153.256C83.0908 153.276 83.1023 153.307 83.117 153.348C83.1463 153.432 83.188 153.556 83.2349 153.717C83.3287 154.04 83.4429 154.504 83.5211 155.065L84.0163 154.996L84.5115 154.927C84.4255 154.31 84.2999 153.798 84.195 153.438C84.1425 153.257 84.095 153.115 84.06 153.016C84.0426 152.966 84.0282 152.927 84.0178 152.9C84.0127 152.887 84.0085 152.876 84.0054 152.868C84.0039 152.864 84.0027 152.861 84.0017 152.859C84.0013 152.858 84.0009 152.857 84.0005 152.856C84.0004 152.856 84.0002 152.855 84.0001 152.855C84.0001 152.855 84 152.855 83.9999 152.854C83.9999 152.854 83.9999 152.854 83.9999 152.854C83.9998 152.854 83.9998 152.854 83.5367 153.043ZM84.0163 154.996L83.521 155.065C83.6431 155.943 83.5442 156.18 83.4902 156.295L83.9426 156.508L84.3949 156.721C84.565 156.36 84.647 155.902 84.5115 154.928L84.0163 154.996ZM95.6129 145.427L95.3069 145.823C95.4987 145.971 95.8131 146.181 96.1532 146.341C96.3237 146.421 96.5132 146.494 96.7057 146.538C96.8936 146.581 97.119 146.605 97.3432 146.548L97.222 146.063L97.1007 145.578C97.087 145.582 97.0346 145.588 96.929 145.564C96.828 145.54 96.7083 145.497 96.5783 145.436C96.3173 145.313 96.0651 145.145 95.9188 145.032L95.6129 145.427ZM97.222 146.063L97.4456 145.616C97.5668 145.677 97.5779 145.775 97.5716 145.744C97.5666 145.72 97.5625 145.657 97.5779 145.555C97.6092 145.348 97.697 145.129 97.7775 145.016L97.3707 144.725L96.9638 144.435C96.7743 144.7 96.639 145.075 96.5891 145.406C96.5639 145.572 96.5547 145.764 96.5919 145.945C96.6278 146.12 96.7284 146.376 96.9983 146.511L97.222 146.063ZM97.3707 144.725L97.7775 145.016C98.2053 144.417 98.4108 143.747 98.5115 143.243C98.5624 142.989 98.588 142.769 98.6009 142.612C98.6074 142.533 98.6107 142.47 98.6124 142.424C98.6132 142.402 98.6137 142.383 98.6139 142.37C98.614 142.364 98.6141 142.358 98.6141 142.354C98.6142 142.352 98.6142 142.35 98.6142 142.349C98.6142 142.348 98.6142 142.348 98.6142 142.347C98.6142 142.347 98.6142 142.347 98.6142 142.347C98.6142 142.346 98.6142 142.346 98.6142 142.346C98.6142 142.346 98.6142 142.346 98.1142 142.346C97.6142 142.346 97.6142 142.346 97.6142 142.346C97.6142 142.346 97.6142 142.345 97.6142 142.345C97.6142 142.345 97.6142 142.345 97.6142 142.345C97.6142 142.345 97.6142 142.345 97.6142 142.345C97.6142 142.345 97.6142 142.345 97.6142 142.345C97.6142 142.346 97.6142 142.349 97.6141 142.352C97.614 142.359 97.6137 142.371 97.6131 142.387C97.6119 142.419 97.6094 142.468 97.6042 142.53C97.5939 142.657 97.573 142.837 97.531 143.047C97.4458 143.473 97.2795 143.993 96.9638 144.435L97.3707 144.725ZM98.1142 142.346L98.6092 142.275C98.5347 141.754 98.1781 141.257 97.5755 140.654L97.222 141.008L96.8684 141.361C97.4554 141.948 97.5946 142.244 97.6192 142.417L98.1142 142.346ZM97.222 141.008L97.5755 140.654C97.5769 140.655 97.5541 140.631 97.5116 140.527C97.4674 140.419 97.4324 140.307 97.3679 140.126C97.2478 139.79 97.07 139.355 96.7074 138.915C95.9733 138.027 94.5891 137.246 91.7735 136.941L91.7198 137.439L91.6661 137.936C94.3526 138.226 95.4364 138.947 95.9363 139.552C96.1906 139.86 96.3214 140.17 96.4263 140.463C96.4743 140.597 96.531 140.771 96.5857 140.905C96.642 141.043 96.7255 141.218 96.8684 141.361L97.222 141.008ZM91.7198 137.439L91.7475 136.939C91.3952 136.92 91.0122 136.819 90.4884 136.702C89.9861 136.589 89.399 136.474 88.7327 136.473C87.3728 136.471 85.7746 136.942 83.8275 138.631L84.1551 139.008L84.4826 139.386C86.2785 137.829 87.6505 137.471 88.7311 137.473C89.2851 137.474 89.7859 137.569 90.2694 137.677C90.7314 137.781 91.2323 137.912 91.6921 137.938L91.7198 137.439ZM82.6091 141.663L82.1244 141.54C81.9778 142.12 81.8208 142.76 81.6991 143.323C81.5811 143.869 81.4847 144.393 81.4792 144.717L81.9791 144.725L82.479 144.734C82.4826 144.525 82.555 144.096 82.6766 143.534C82.7945 142.989 82.948 142.363 83.0939 141.785L82.6091 141.663ZM81.9791 144.725L81.4792 144.717C81.472 145.136 81.5243 145.514 81.5795 145.829C81.6392 146.17 81.6883 146.375 81.7046 146.555L82.2026 146.51L82.7005 146.464C82.6793 146.231 82.6102 145.917 82.5644 145.656C82.5141 145.369 82.4734 145.062 82.479 144.734L81.9791 144.725ZM83.5367 144.725L83.6929 145.2C84.282 145.006 84.7716 144.899 85.2287 144.799C85.6799 144.701 86.1223 144.606 86.566 144.437C87.4851 144.088 88.3488 143.449 89.5735 141.962L89.1875 141.644L88.8016 141.326C87.634 142.744 86.9036 143.24 86.211 143.503C85.8489 143.64 85.4811 143.72 85.0156 143.822C84.5561 143.922 84.0226 144.039 83.3804 144.25L83.5367 144.725ZM89.1875 141.644L89.5735 141.962C89.916 141.546 90.2534 141.4 90.556 141.375C90.8753 141.35 91.2267 141.454 91.5855 141.667C91.9423 141.878 92.2742 142.178 92.5377 142.486C92.8066 142.8 92.9737 143.087 93.0323 143.255L93.5043 143.09L93.9762 142.924C93.8614 142.596 93.6103 142.202 93.2976 141.836C92.9794 141.464 92.5661 141.085 92.0952 140.806C91.6264 140.529 91.0677 140.331 90.4757 140.379C89.867 140.428 89.2918 140.731 88.8016 141.326L89.1875 141.644ZM93.5043 143.09L93.7279 143.537C93.7278 143.537 93.7286 143.536 93.7303 143.536C93.7319 143.535 93.7343 143.534 93.7374 143.533C93.7438 143.53 93.7525 143.527 93.7638 143.524C93.7865 143.517 93.8163 143.509 93.8529 143.502C93.9264 143.488 94.018 143.479 94.1196 143.48C94.3266 143.481 94.5432 143.523 94.7222 143.618C94.8913 143.709 95.0367 143.85 95.1232 144.087C95.2134 144.334 95.2532 144.723 95.1241 145.322L95.6129 145.427L96.1016 145.533C96.2566 144.814 96.2368 144.221 96.0624 143.744C95.8842 143.256 95.56 142.932 95.1928 142.736C94.8356 142.546 94.4495 142.482 94.1259 142.48C93.8139 142.478 93.4989 142.533 93.2807 142.642L93.5043 143.09ZM82.3553 148.599L81.8633 148.688C82.0994 149.99 82.4939 151.806 83.0735 153.231L83.5367 153.043L83.9998 152.854C83.4612 151.53 83.0811 149.798 82.8472 148.509L82.3553 148.599ZM83.5367 144.725L83.3804 144.25C82.7688 144.451 82.3566 144.782 82.0938 145.204C81.8411 145.61 81.7536 146.06 81.7062 146.449L82.2026 146.51L82.6989 146.57C82.7411 146.223 82.8076 145.95 82.9429 145.732C83.0682 145.531 83.2783 145.337 83.6929 145.2L83.5367 144.725ZM82.2026 146.51L81.7062 146.449C81.6364 147.023 81.6796 147.592 81.7365 148.008C81.7653 148.218 81.7983 148.394 81.8243 148.519C81.8374 148.582 81.8488 148.632 81.8571 148.667C81.8613 148.684 81.8647 148.698 81.8672 148.708C81.8684 148.713 81.8694 148.717 81.8702 148.72C81.8705 148.721 81.8709 148.723 81.8711 148.723C81.8712 148.724 81.8713 148.724 81.8714 148.725C81.8715 148.725 81.8715 148.725 81.8716 148.725C81.8716 148.725 81.8716 148.725 81.8716 148.725C81.8716 148.726 81.8716 148.726 82.3553 148.599C82.8389 148.472 82.8389 148.472 82.8389 148.472C82.8389 148.472 82.839 148.472 82.839 148.472C82.839 148.472 82.839 148.472 82.839 148.472C82.839 148.472 82.839 148.472 82.839 148.472C82.839 148.472 82.8389 148.472 82.8388 148.471C82.8385 148.47 82.838 148.468 82.8372 148.465C82.8357 148.459 82.8332 148.449 82.83 148.436C82.8236 148.409 82.8143 148.368 82.8032 148.315C82.7811 148.209 82.7524 148.056 82.7273 147.872C82.6765 147.501 82.6434 147.026 82.6989 146.57L82.2026 146.51ZM84.1551 139.008L83.8275 138.631C82.9416 139.399 82.3991 140.453 82.1244 141.54L82.6091 141.663L83.0939 141.785C83.3318 140.844 83.7876 139.989 84.4826 139.386L84.1551 139.008ZM88.5966 156.027L88.1045 155.938C88.0955 155.988 87.8887 156.461 88.1479 156.99L88.597 156.77L89.046 156.551C89.01 156.477 89.0133 156.443 89.0168 156.417C89.02 156.393 89.0263 156.366 89.0401 156.315C89.0514 156.274 89.0744 156.195 89.0887 156.116L88.5966 156.027ZM88.0712 147.101L88.5291 146.9C88.3408 146.471 87.9192 146.193 87.4599 146.161L87.4255 146.66L87.3911 147.159C87.5018 147.167 87.5834 147.233 87.6133 147.302L88.0712 147.101ZM87.4255 146.66L87.4603 146.162C86.9426 146.125 86.4253 146.407 86.2069 146.897L86.6638 147.101L87.1206 147.304C87.1559 147.225 87.2617 147.15 87.3906 147.159L87.4255 146.66ZM93.7221 147.398L94.1799 147.197C93.9917 146.768 93.5701 146.491 93.1107 146.459L93.0763 146.958L93.0419 147.457C93.1526 147.464 93.2343 147.531 93.2642 147.599L93.7221 147.398ZM93.0763 146.958L93.1112 146.459C92.5934 146.423 92.0761 146.704 91.8578 147.195L92.3146 147.398L92.7715 147.601C92.8067 147.522 92.9125 147.447 93.0415 147.457L93.0763 146.958ZM87.4607 152.332L86.9688 152.421C86.9822 152.495 87.177 153.513 88.1742 153.922L88.364 153.459L88.5537 152.997C88.3183 152.9 88.1706 152.728 88.0759 152.559C87.9794 152.386 87.9517 152.237 87.9527 152.242L87.4607 152.332ZM88.364 153.459L88.1748 153.922C89.0304 154.272 89.7768 153.881 89.8787 153.826L89.6417 153.386L89.4046 152.945C89.3532 152.973 88.9673 153.166 88.5531 152.996L88.364 153.459ZM88.597 156.77L88.343 156.34C87.7685 156.679 87.1843 156.878 86.5375 156.872C85.8889 156.865 85.1286 156.652 84.2049 156.082L83.9426 156.508L83.6802 156.934C84.7182 157.574 85.6548 157.863 86.5278 157.872C87.4025 157.88 88.1647 157.606 88.851 157.201L88.597 156.77Z" fill="#03092D"/>
<path d="M83.9434 156.59C83.9434 156.59 78.49 157.937 75.5165 159.535C75.0243 159.799 74.7027 160.287 74.6423 160.842C74.2671 164.289 74.7671 170.538 74.7671 170.538L78.6334 168.159L79.5257 167.564V164.591L79.1024 161.465" stroke="#03092D" stroke-linecap="round" stroke-linejoin="round"/>
<path d="M88.7413 156.59C88.7413 156.59 92.7314 157.816 96.3799 160.062C96.7523 160.291 97.0386 160.639 97.1633 161.059C98.2124 164.584 97.9176 170.538 97.9176 170.538L94.0513 168.158L93.159 167.564V164.591L91.8677 161.204" stroke="#03092D" stroke-linecap="round" stroke-linejoin="round"/>
<path d="M83.4021 158.727C83.737 159.192 84.2966 160.977 84.7442 167.5" stroke="#03092D" stroke-linecap="round" stroke-linejoin="round"/>
<path d="M88.22 158.076C88.4215 158.335 89.4379 161.461 90.0306 167.775" stroke="#03092D" stroke-linecap="round" stroke-linejoin="round"/>
</g>
<path d="M100.278 134.932C101.735 134.976 102.887 136.182 102.863 137.64L102.648 151.092V151.107L102.864 164.991C102.887 166.48 101.687 167.699 100.198 167.699H72.5361C71.1164 167.699 69.9504 166.589 69.8877 165.175C69.7309 161.635 69.5 155.695 69.5 151.362C69.5 146.99 69.7347 140.98 69.8916 137.453C69.9532 136.072 71.0695 134.977 72.4561 134.933L85.9424 134.5L100.278 134.932Z" stroke="#03092D"/>
<path d="M92.1062 120.958V113.398H97.3766V114.964H93.8882V119.392H97.4846V120.958H92.1062ZM92.9702 117.858V116.368H96.8906V117.858H92.9702ZM102.145 121.023C101.519 121.023 100.961 120.897 100.471 120.645C99.9816 120.386 99.5964 120.033 99.3156 119.586C99.042 119.14 98.9052 118.629 98.9052 118.053V113.398H100.763V117.956C100.763 118.229 100.824 118.478 100.946 118.701C101.069 118.917 101.234 119.09 101.443 119.219C101.652 119.342 101.886 119.403 102.145 119.403C102.419 119.403 102.66 119.342 102.869 119.219C103.085 119.09 103.258 118.917 103.387 118.701C103.517 118.478 103.582 118.229 103.582 117.956V113.398H105.374V118.053C105.374 118.629 105.234 119.14 104.953 119.586C104.68 120.033 104.298 120.386 103.808 120.645C103.319 120.897 102.764 121.023 102.145 121.023ZM107.109 120.958V113.398H110.274C110.828 113.398 111.336 113.492 111.797 113.679C112.257 113.859 112.653 114.118 112.985 114.456C113.323 114.795 113.582 115.194 113.762 115.655C113.942 116.116 114.032 116.624 114.032 117.178C114.032 117.732 113.942 118.244 113.762 118.712C113.582 119.172 113.323 119.572 112.985 119.91C112.653 120.242 112.257 120.501 111.797 120.688C111.336 120.868 110.828 120.958 110.274 120.958H107.109ZM108.945 119.705L108.697 119.338H110.22C110.522 119.338 110.792 119.288 111.03 119.187C111.267 119.079 111.469 118.931 111.635 118.744C111.807 118.557 111.941 118.33 112.034 118.064C112.128 117.797 112.175 117.502 112.175 117.178C112.175 116.854 112.128 116.559 112.034 116.292C111.941 116.026 111.807 115.799 111.635 115.612C111.469 115.425 111.267 115.281 111.03 115.18C110.792 115.072 110.522 115.018 110.22 115.018H108.665L108.945 114.672V119.705ZM115.035 120.958V119.414H116.309V114.942H115.035V113.398H119.43V114.942H118.145V119.414H119.43V120.958H115.035ZM122.429 120.958L120.161 113.398H122.03L123.164 117.372C123.214 117.552 123.257 117.736 123.293 117.923C123.336 118.103 123.369 118.276 123.39 118.442C123.419 118.607 123.441 118.762 123.455 118.906C123.47 119.043 123.484 119.158 123.498 119.252H123.261C123.304 118.985 123.34 118.748 123.369 118.539C123.405 118.33 123.444 118.136 123.488 117.956C123.531 117.768 123.585 117.574 123.65 117.372L124.773 114.381H126.242L127.343 117.372C127.43 117.61 127.502 117.833 127.559 118.042C127.617 118.251 127.66 118.452 127.689 118.647C127.725 118.834 127.754 119.021 127.775 119.208L127.559 119.241C127.574 119.111 127.584 118.992 127.592 118.884C127.599 118.769 127.606 118.661 127.613 118.56C127.628 118.452 127.642 118.341 127.656 118.226C127.671 118.11 127.692 117.984 127.721 117.848C127.75 117.704 127.79 117.542 127.84 117.362L128.963 113.398H130.788L128.52 120.958H127.116L125.324 116.606L125.529 116.627L123.876 120.958H122.429Z" fill="#3253D1"/>
<path d="M114 138.902C114 138.902 122.737 139.458 128.595 139.458C134.452 139.458 144 138.902 144 138.902" stroke="#CDCED5" stroke-width="3" stroke-linecap="round" stroke-linejoin="round"/>
<path d="M114 147.902C114 147.902 116.112 148.458 117.893 148.458C119.245 148.458 124.5 147.902 124.5 147.902" stroke="#CDCED5" stroke-width="3" stroke-linecap="round" stroke-linejoin="round"/>
<path d="M114 159C114 159 118.124 159.556 121.601 159.556C124.241 159.556 134.5 159 134.5 159" stroke="#CDCED5" stroke-width="3" stroke-linecap="round" stroke-linejoin="round"/>
<path d="M114 170.098C114 170.098 118.124 170.654 121.601 170.654C124.241 170.654 134.5 170.098 134.5 170.098" stroke="#CDCED5" stroke-width="3" stroke-linecap="round" stroke-linejoin="round"/>
<path d="M114 181.196C114 181.196 117.42 181.752 120.303 181.752C122.492 181.752 131 181.196 131 181.196" stroke="#CDCED5" stroke-width="3" stroke-linecap="round" stroke-linejoin="round"/>
<path d="M114 192.294C114 192.294 120.136 192.851 125.309 192.851C129.236 192.851 144.5 192.294 144.5 192.294" stroke="#CDCED5" stroke-width="3" stroke-linecap="round" stroke-linejoin="round"/>
<rect x="110.751" y="128.005" width="40.6599" height="48.3135" rx="17.2206" fill="#E9EEF5" fill-opacity="0.7"/>
<path d="M124.313 152.712C126.131 154.264 129.313 157.368 129.313 157.368C129.313 157.368 135.28 149.908 138.159 147.368" stroke="#374ACD" stroke-width="2.88719" stroke-linecap="round" stroke-linejoin="round"/>
<path d="M161.833 172.053C155.25 167.604 155.574 167.796 155.415 167.746L151.47 172.495L155.555 176.687L158.093 179.198L162.351 183.656L172.03 193.089C178.806 197.177 184.793 189.308 178.688 183.605L177.885 182.93C177.453 182.594 174.178 180.453 170.22 177.766L163.738 173.275L161.833 172.053Z" fill="#E6E6E6"/>
<path d="M155.27 162.298C155.799 163.129 156.087 164.364 156.024 165.785C155.943 167.603 155.29 169.565 154.043 171.024C152.792 172.486 151.063 173.369 149.399 173.672C148.09 173.909 146.889 173.777 146.006 173.354C146.4 173.056 146.927 172.649 147.51 172.176C148.736 171.182 150.241 169.875 151.267 168.674C152.361 167.394 153.469 165.581 154.294 164.114C154.692 163.405 155.028 162.769 155.27 162.298Z" fill="#E6E6E6" stroke="#03092D" stroke-width="1.23113"/>
<path d="M153.502 164.947C160.36 153.339 157.337 136.993 144.707 129.779C144.187 129.415 142.22 128.391 138.512 127.209C121.497 122.514 105.993 135.066 105.84 151.801C105.751 166.613 118.815 179.058 135.01 177.148C140.056 176.552 144.748 174.353 148.469 171.053M155.905 168.082C156.064 168.133 155.25 167.602 161.833 172.05L163.738 173.273L170.22 177.764C174.178 180.451 177.453 182.592 177.885 182.928L178.688 183.603C184.762 189.201 177.961 197.824 172.03 193.087L162.351 183.654L158.093 179.196L155.555 176.685L151.886 173.036" stroke="#03092D" stroke-width="1.23113" stroke-linecap="round"/>
<path d="M128.576 126.627C142.481 124.985 155.084 134.925 156.726 148.83C158.368 162.734 148.427 175.337 134.522 176.98C120.617 178.622 108.012 168.681 106.37 154.777C104.728 140.872 114.67 128.269 128.576 126.627ZM129.167 131.638C118.029 132.953 110.066 143.048 111.381 154.185C112.697 165.322 122.792 173.284 133.93 171.969C145.068 170.653 153.031 160.559 151.716 149.421C150.401 138.284 140.305 130.322 129.167 131.638Z" fill="#E9EEF5"/>
<path d="M129.24 132.247C140.04 130.972 149.829 138.693 151.105 149.492C152.38 160.292 144.659 170.081 133.859 171.356C123.058 172.632 113.268 164.911 111.993 154.111C110.717 143.312 118.44 133.523 129.24 132.247Z" stroke="#03092D" stroke-width="1.23113"/>
</g>
<defs>
<linearGradient id="paint0_linear_1006_4024" x1="91.8691" y1="136.973" x2="91.8691" y2="200.49" gradientUnits="userSpaceOnUse">
<stop stop-color="#AEAEFF"/>
<stop offset="1" stop-color="white" stop-opacity="0.8"/>
</linearGradient>
<clipPath id="clip0_1006_4024">
<rect width="217" height="210" fill="white"/>
</clipPath>
<clipPath id="clip1_1006_4024">
<rect width="26.7661" height="33.5638" fill="white" transform="translate(73.6733 134)"/>
</clipPath>
</defs>
</svg>
