<svg width="217" height="210" viewBox="0 0 217 210" fill="none" xmlns="http://www.w3.org/2000/svg">
<g clip-path="url(#clip0_1006_3984)">
<path d="M65.2049 18.0005H159.076H164.699C170.875 18.0005 175.882 23.0072 175.882 29.1833V34.8487V43.7209H177V65.8069H175.882V70.0005V71.6779H177V82.5811H175.882V216.482V229.419V230.474C175.882 236.65 170.875 241.656 164.699 241.656H161.162H68.3886H62.0342C54.5033 241.656 48.3984 235.551 48.3988 228.02V224.223V224.162V82.8607H47.0002V58.8177H48.3988V34.8487V29.1833C48.3988 23.0072 53.4055 18.0005 59.5816 18.0005H65.2049Z" fill="#E9EEF5" stroke="#03092D" stroke-linecap="round" stroke-linejoin="round"/>
<path d="M112.139 27.9403C110.972 27.9403 110.026 26.9945 110.026 25.8278C110.026 24.6611 110.972 23.7153 112.139 23.7153C113.305 23.7153 114.251 24.6611 114.251 25.8278C114.251 26.9945 113.305 27.9403 112.139 27.9403Z" fill="#03092D"/>
<path d="M171.408 38.6474V213.015V225.435V228.796C171.408 233.428 167.653 237.183 163.021 237.183H157.721H71.458H61.2578C56.6256 237.183 52.8705 233.428 52.8707 228.795L52.871 224.092V220.447V220.388V38.6474V30.8602C52.871 26.2282 56.626 22.4731 61.2581 22.4731H68.4977H88.1568C89.6974 22.4731 90.9463 23.722 90.9463 25.2626C90.9463 29.8844 94.693 33.6311 99.3147 33.6311H124.721C129.343 33.6311 133.09 29.8844 133.09 25.2626C133.09 23.722 134.339 22.4731 135.879 22.4731H155.781H163.021C167.653 22.4731 171.408 26.2282 171.408 30.8602V38.6474Z" fill="white" stroke="#03092D" stroke-linecap="round" stroke-linejoin="round"/>
<path opacity="0.13" d="M120.235 109L114.904 114.331C114.469 114.765 113.765 114.765 113.331 114.331L108 109" stroke="#3253D1" stroke-width="2.2241" stroke-linecap="round"/>
<path opacity="0.23" d="M120.235 117.117L114.904 122.448C114.469 122.883 113.765 122.883 113.331 122.448L108 117.117" stroke="#3253D1" stroke-width="2.2241" stroke-linecap="round"/>
<path opacity="0.4" d="M120.235 125.234L114.904 130.565C114.469 131 113.765 131 113.331 130.565L108 125.234" stroke="#3253D1" stroke-width="2.2241" stroke-linecap="round"/>
<path d="M66.7559 60.7227L66.5273 56.2617L66.6533 47.9619C66.7065 44.428 69.6246 41.6117 73.1582 41.6846L88.4736 42H88.5352C88.5639 41.9995 88.6069 41.998 88.6631 41.9971C88.7757 41.9952 88.9428 41.9928 89.1582 41.9893C89.589 41.9822 90.2154 41.972 90.998 41.959C92.5638 41.9329 94.7553 41.8963 97.2568 41.8525C102.26 41.765 108.505 41.6501 113.472 41.542C115.712 41.4932 117.687 41.5154 119.67 41.5391C121.652 41.5627 123.643 41.5878 125.902 41.542C130.571 41.4473 133.172 41.542 137.864 41.542H155.824C158.854 41.5421 161.31 43.9984 161.311 47.0283V55.249C161.31 55.2534 161.31 55.2593 161.31 55.2666C161.309 55.2846 161.309 55.3117 161.309 55.3467C161.307 55.4169 161.305 55.5206 161.303 55.6543C161.298 55.9223 161.291 56.312 161.284 56.7979C161.27 57.7697 161.253 59.1282 161.241 60.6738C161.218 63.7637 161.218 67.6096 161.311 70.6172C161.356 72.0818 161.333 73.2221 161.31 74.373C161.287 75.5246 161.263 76.6873 161.311 78.1797C161.412 81.391 161.311 83.1655 161.311 86.4131V94.9053C161.31 98.5016 158.335 101.389 154.731 101.323C152.627 101.285 150.386 101.258 148.518 101.266C146.431 101.275 143.763 101.332 141.619 101.387C140.547 101.414 139.604 101.442 138.93 101.462C138.593 101.472 138.322 101.48 138.136 101.485C138.043 101.488 137.971 101.491 137.923 101.492C137.899 101.493 137.88 101.494 137.867 101.494C137.861 101.494 137.857 101.495 137.854 101.495H113.893C113.885 101.495 113.874 101.496 113.859 101.496C113.83 101.497 113.787 101.498 113.73 101.5C113.617 101.503 113.449 101.509 113.231 101.516C112.796 101.529 112.163 101.546 111.374 101.568C109.795 101.613 107.588 101.672 105.077 101.73C100.053 101.847 93.8145 101.961 88.9434 101.953C83.979 101.945 77.4666 101.805 72.6543 101.682C69.2316 101.594 66.5097 98.8003 66.5029 95.375C66.4966 92.0816 66.498 88.1518 66.5273 85.043C66.5522 82.4053 66.6101 79.0272 66.6611 76.3076C66.6867 74.9481 66.71 73.7531 66.7275 72.8984C66.7363 72.4713 66.744 72.129 66.749 71.8936C66.7515 71.7758 66.7536 71.6846 66.7549 71.623C66.7555 71.5923 66.7555 71.5685 66.7559 71.5527C66.756 71.545 66.7568 71.5391 66.7568 71.5352V60.749C66.7568 60.7405 66.7563 60.7312 66.7559 60.7227Z" fill="white" stroke="#03092D" stroke-linecap="round" stroke-linejoin="round"/>
<path opacity="0.2" d="M121.93 63.6641C121.93 63.6641 126.728 63.789 131.628 63.789C136.528 63.789 147.024 63.6641 147.024 63.6641" stroke="#03092D" stroke-width="3" stroke-linecap="round" stroke-linejoin="round"/>
<path opacity="0.2" d="M121.788 70.5513C121.788 70.5513 124.618 70.5513 127.2 70.5513C129.16 70.5513 133.417 70.5513 133.417 70.5513" stroke="#03092D" stroke-width="3" stroke-linecap="round" stroke-linejoin="round"/>
<path d="M110.835 51.6948C112.292 51.7389 113.443 52.9452 113.42 54.4028L113.205 67.855V67.8706L113.421 81.7544C113.444 83.2428 112.243 84.4622 110.755 84.4624H83.0928C81.673 84.4622 80.507 83.352 80.4443 81.938C80.2875 78.3985 80.0566 72.4581 80.0566 68.1255C80.0566 63.7532 80.2914 57.7433 80.4482 54.2163C80.5099 52.8355 81.6261 51.7403 83.0127 51.6958L96.499 51.2632L110.835 51.6948Z" fill="#E9EEF5" stroke="#03092D"/>
<g clip-path="url(#clip1_1006_3984)">
<path d="M97.2757 73.9665L94.5 73.1955V70.7282L93.5748 67.9524L92.8037 64.8683V62.5551L94.0374 60.8588L98.5094 59.1626L100.514 56.541L105.14 59.1626L106.374 61.3215L105.911 64.8683L105.14 68.8777L101.902 71.6534L99.1262 72.7329V73.5039L97.2757 73.9665Z" fill="#FFCEB6"/>
<path d="M94.7675 71.8714C94.7675 71.4813 97.5432 74.1103 99.2395 72.8765V73.6476L96.5765 74.0288L94.8203 73.2482C94.5633 72.5286 94.7675 72.334 94.7675 71.8714Z" fill="#F9AC8A"/>
<path d="M100.769 84.4057C100.164 78.9708 98.7014 76.9122 97.8083 74.7153C97.6776 74.3938 97.8572 74.0364 98.1879 73.9313L99.2496 73.5938C99.3668 73.5565 99.4925 73.5552 99.6105 73.5899L103.769 74.8128C103.828 74.8304 103.885 74.8568 103.937 74.8914L107.186 77.0573C107.308 77.1391 107.398 77.2622 107.437 77.4042L108.265 80.3592C108.28 80.4134 108.288 80.4693 108.288 80.5255V84.2132C108.288 84.5214 108.06 84.7823 107.755 84.8242L105.001 85.2029C104.907 85.2159 104.819 85.152 104.802 85.0581C104.764 84.8495 104.458 84.8695 104.448 85.0813L104.441 85.2261L101.335 84.9613C101.038 84.936 100.802 84.7014 100.769 84.4057Z" fill="#E1F0FF"/>
<path d="M98.3545 73.9685C98.5088 74.2769 98.7863 75.233 99.2798 76.59C99.7559 77.8995 100.324 82.1494 100.629 85.2257H95.1162C94.3452 82.6041 96.0415 75.2021 92.6489 74.1227L94.3452 73.5059L96.3499 74.1227L98.3545 73.9685Z" fill="white"/>
<path d="M89.5911 84.7711L85.3417 87.2306L85.0642 82.226L85.2958 77.6661C85.3241 77.1089 85.6547 76.6118 86.1576 76.3703L88.0743 75.45C88.1489 75.4141 88.2263 75.3845 88.3058 75.3612L92.5158 74.1289C93.2493 73.9602 93.969 74.459 94.0685 75.2051L94.4999 78.4407L95.2971 85.1882L90.9494 85.7323C90.6405 85.7709 90.3677 85.5301 90.3677 85.2189C90.3677 84.8203 89.9361 84.5714 89.5911 84.7711Z" fill="#E1F0FF"/>
<path d="M106.169 62.1906C106.508 62.4522 107.303 62.9456 107.779 62.8266C107.481 62.6779 107.657 61.8665 107.927 61.4884C108.671 60.4475 108.671 59.1091 108.671 59.1091C108.621 58.7621 108.373 58.3656 107.779 57.7707C107.212 57.2045 107.779 54.7966 102.276 54.2018C100.652 54.1115 98.4547 52.5263 94.7117 55.7716C93.9212 56.457 93.4221 57.4118 93.1658 58.4261C92.8733 59.5837 92.5449 60.9558 92.5357 61.4884C92.5229 62.236 92.7216 62.8594 92.7592 63.2728C92.8488 62.5374 93.0671 61.826 94.0933 61.4884C96.556 60.6782 97.3519 61.3117 99.7442 58.4069C101.41 56.3845 103.714 58.8613 104.061 59.8527C104.557 59.6049 106.738 59.5553 106.169 62.1906Z" fill="#4B4D59"/>
<path d="M99.1532 72.7901L99.1899 72.2914C98.9347 72.2727 98.7065 72.4496 98.6611 72.7015L99.1532 72.7901ZM102.276 71.4517L102.529 71.8831L102.536 71.8794L102.276 71.4517ZM104.061 70.1134L104.42 70.4617V70.4617L104.061 70.1134ZM105.399 68.1802L104.983 67.9036L104.971 67.9212L104.961 67.9398L105.399 68.1802ZM106.169 62.1906L105.681 62.0852C105.671 62.1282 105.668 62.1721 105.67 62.216L106.169 62.1906ZM94.0933 69.8057L93.6301 69.994L93.6302 69.9941L94.0933 69.8057ZM94.5729 71.7596L95.0681 71.6907L95.0681 71.6906L94.5729 71.7596ZM94.4992 73.2712L94.0469 73.0581C93.9384 73.2883 94.0202 73.5633 94.2368 73.6968L94.4992 73.2712ZM107.779 62.8266L107.9 63.3117C108.103 63.2609 108.253 63.0891 108.276 62.8811C108.298 62.6732 108.189 62.4729 108.002 62.3794L107.779 62.8266ZM107.927 61.4884L108.334 61.779V61.779L107.927 61.4884ZM108.671 59.1091H109.171C109.171 59.0854 109.169 59.0618 109.166 59.0384L108.671 59.1091ZM107.779 57.7707L108.132 57.4172V57.4172L107.779 57.7707ZM102.276 54.2018L102.33 53.7047C102.322 53.7037 102.313 53.703 102.304 53.7025L102.276 54.2018ZM94.7117 55.7716L95.0392 56.1494V56.1494L94.7117 55.7716ZM93.1658 58.4261L93.6505 58.5486H93.6505L93.1658 58.4261ZM92.5357 61.4884L93.0357 61.497L92.5357 61.4884ZM92.7592 63.2728L93.2555 63.3333V63.3333L92.7592 63.2728ZM94.0933 61.4884L93.937 61.0134V61.0134L94.0933 61.4884ZM99.7442 58.4069L100.13 58.7247V58.7247L99.7442 58.4069ZM104.061 59.8527L103.589 60.0179C103.636 60.1534 103.74 60.2621 103.873 60.316C104.006 60.37 104.156 60.3642 104.285 60.2999L104.061 59.8527ZM92.9119 65.3619L93.4039 65.2726C93.4016 65.2599 93.3988 65.2474 93.3955 65.2349L92.9119 65.3619ZM99.1536 73.5336L99.4076 73.9643C99.6325 73.8316 99.7175 73.5482 99.6026 73.3137L99.1536 73.5336ZM98.17 64.0647C98.2809 64.3176 98.5759 64.4326 98.8287 64.3217C99.0816 64.2107 99.1967 63.9158 99.0857 63.6629L98.6278 63.8638L98.17 64.0647ZM97.9821 63.4235L97.9472 63.9223L97.9477 63.9223L97.9821 63.4235ZM96.7636 63.6606C96.6513 63.9129 96.7649 64.2084 97.0172 64.3206C97.2695 64.4329 97.565 64.3193 97.6772 64.067L97.2204 63.8638L96.7636 63.6606ZM103.821 64.3621C103.932 64.615 104.227 64.73 104.48 64.6191C104.732 64.5081 104.848 64.2132 104.737 63.9603L104.279 64.1612L103.821 64.3621ZM103.633 63.7209L103.598 64.2197L103.599 64.2197L103.633 63.7209ZM102.414 63.958C102.302 64.2103 102.416 64.5058 102.668 64.6181C102.92 64.7303 103.216 64.6167 103.328 64.3644L102.871 64.1612L102.414 63.958ZM98.5093 69.0056C98.4599 68.734 98.1996 68.5538 97.9279 68.6032C97.6563 68.6526 97.476 68.9128 97.5254 69.1845L98.0174 69.0951L98.5093 69.0056ZM98.9206 70.2224L98.7309 70.685L98.7315 70.6853L98.9206 70.2224ZM100.435 70.5889C100.678 70.458 100.769 70.1548 100.639 69.9116C100.508 69.6685 100.204 69.5775 99.9613 69.7085L100.198 70.1487L100.435 70.5889ZM99.1532 72.7901L99.1165 73.2888C99.2855 73.3012 99.4626 73.2722 99.6191 73.2345C99.7822 73.1953 99.9569 73.1381 100.132 73.0724C100.483 72.9409 100.867 72.7635 101.218 72.5893C101.57 72.4143 101.897 72.2381 102.136 72.106C102.255 72.0399 102.353 71.9845 102.421 71.9455C102.455 71.926 102.482 71.9106 102.5 71.8999C102.51 71.8946 102.517 71.8905 102.522 71.8876C102.524 71.8862 102.526 71.8851 102.527 71.8843C102.528 71.884 102.528 71.8836 102.529 71.8834C102.529 71.8833 102.529 71.8832 102.529 71.8832C102.529 71.8831 102.529 71.8831 102.529 71.8831C102.529 71.883 102.529 71.883 102.276 71.4517C102.023 71.0205 102.023 71.0205 102.023 71.0205C102.023 71.0205 102.023 71.0205 102.023 71.0205C102.023 71.0205 102.023 71.0205 102.023 71.0206C102.023 71.0207 102.023 71.0209 102.022 71.0212C102.021 71.0217 102.02 71.0226 102.018 71.0238C102.014 71.0263 102.007 71.03 101.999 71.0348C101.982 71.0446 101.957 71.059 101.925 71.0775C101.86 71.1145 101.766 71.1676 101.651 71.2312C101.421 71.3586 101.108 71.5274 100.773 71.6938C100.436 71.8611 100.086 72.0217 99.7813 72.136C99.6287 72.1932 99.4952 72.2358 99.3852 72.2623C99.2686 72.2903 99.2079 72.2928 99.1899 72.2914L99.1532 72.7901ZM102.276 71.4517C102.536 71.8794 102.536 71.8794 102.536 71.8793C102.536 71.8793 102.536 71.8793 102.536 71.8793C102.536 71.8792 102.536 71.8792 102.536 71.8791C102.536 71.879 102.537 71.8788 102.537 71.8785C102.538 71.8781 102.539 71.8775 102.54 71.8767C102.543 71.8751 102.546 71.8728 102.551 71.8699C102.561 71.864 102.574 71.8556 102.592 71.8447C102.627 71.8229 102.677 71.7914 102.739 71.7518C102.863 71.6726 103.035 71.5605 103.226 71.4279C103.601 71.1682 104.081 70.8109 104.42 70.4617L104.061 70.1134L103.702 69.7651C103.434 70.0408 103.022 70.3527 102.656 70.6059C102.477 70.7299 102.317 70.8351 102.201 70.9093C102.143 70.9463 102.096 70.9754 102.064 70.9951C102.049 71.0049 102.037 71.0124 102.029 71.0173C102.025 71.0197 102.022 71.0216 102.02 71.0227C102.019 71.0233 102.018 71.0237 102.018 71.0239C102.017 71.024 102.017 71.0241 102.017 71.0241C102.017 71.0241 102.017 71.0242 102.017 71.0241C102.017 71.0241 102.017 71.0241 102.017 71.0241C102.017 71.0241 102.017 71.0241 102.276 71.4517ZM104.061 70.1134L104.42 70.4617C104.777 70.0936 105.134 69.5738 105.392 69.1678C105.524 68.9606 105.634 68.775 105.712 68.641C105.751 68.574 105.782 68.5196 105.804 68.4816C105.814 68.4627 105.823 68.4478 105.828 68.4374C105.831 68.4323 105.833 68.4282 105.835 68.4254C105.836 68.424 105.836 68.4229 105.837 68.4221C105.837 68.4217 105.837 68.4213 105.837 68.4211C105.837 68.421 105.838 68.4209 105.838 68.4208C105.838 68.4207 105.838 68.4207 105.838 68.4206C105.838 68.4206 105.838 68.4206 105.399 68.1802C104.961 67.9398 104.961 67.9398 104.961 67.9398C104.961 67.9398 104.961 67.9397 104.961 67.9397C104.961 67.9397 104.961 67.9397 104.961 67.9398C104.961 67.9398 104.961 67.94 104.961 67.9402C104.96 67.9406 104.96 67.9413 104.959 67.9423C104.958 67.9444 104.957 67.9476 104.954 67.9519C104.949 67.9606 104.942 67.9737 104.932 67.9908C104.913 68.0252 104.884 68.0755 104.848 68.1382C104.775 68.2637 104.671 68.4379 104.548 68.6317C104.296 69.0276 103.984 69.4744 103.702 69.7651L104.061 70.1134ZM105.399 68.1802C105.816 68.4568 105.816 68.4565 105.816 68.4562C105.816 68.4561 105.816 68.4558 105.817 68.4556C105.817 68.4551 105.817 68.4546 105.818 68.4541C105.818 68.4532 105.819 68.4521 105.82 68.4509C105.821 68.4485 105.823 68.4458 105.825 68.4427C105.829 68.4364 105.834 68.4287 105.839 68.4193C105.85 68.4006 105.865 68.3756 105.882 68.3439C105.916 68.2806 105.961 68.1907 106.012 68.0715C106.113 67.8329 106.24 67.4775 106.357 66.9828C106.59 65.9934 106.785 64.448 106.669 62.1652L106.169 62.1906L105.67 62.216C105.782 64.4199 105.592 65.8693 105.383 66.753C105.279 67.1948 105.17 67.4956 105.092 67.6791C105.053 67.7708 105.021 67.8334 105.002 67.8698C104.992 67.888 104.985 67.8996 104.982 67.9051C104.98 67.9079 104.979 67.9091 104.979 67.9088C104.979 67.9087 104.98 67.9082 104.98 67.9073C104.981 67.9068 104.981 67.9063 104.981 67.9057C104.982 67.9054 104.982 67.905 104.982 67.9047C104.982 67.9045 104.982 67.9042 104.982 67.9041C104.983 67.9039 104.983 67.9036 105.399 68.1802ZM94.0933 69.8057C93.6302 69.9941 93.6301 69.994 93.6301 69.9939C93.6301 69.9939 93.6301 69.9939 93.63 69.9938C93.63 69.9937 93.63 69.9937 93.63 69.9936C93.6299 69.9935 93.6299 69.9934 93.6299 69.9934C93.6299 69.9933 93.6299 69.9935 93.63 69.9938C93.6303 69.9945 93.6308 69.9958 93.6317 69.9979C93.6333 70.0021 93.6361 70.0093 93.6399 70.0192C93.6474 70.039 93.659 70.0701 93.6736 70.1116C93.703 70.1947 93.7446 70.3196 93.7915 70.4806C93.8854 70.8028 93.9995 71.2674 94.0777 71.8286L94.5729 71.7596L95.0681 71.6906C94.9822 71.0734 94.8565 70.561 94.7516 70.2009C94.6991 70.0207 94.6516 69.8781 94.6167 69.7789C94.5992 69.7294 94.5848 69.6906 94.5745 69.6634C94.5693 69.6499 94.5651 69.6392 94.5621 69.6314C94.5606 69.6276 94.5593 69.6245 94.5584 69.6221C94.5579 69.6209 94.5575 69.6199 94.5572 69.6191C94.557 69.6187 94.5569 69.6184 94.5568 69.618C94.5567 69.6179 94.5566 69.6178 94.5566 69.6176C94.5566 69.6176 94.5565 69.6175 94.5565 69.6174C94.5565 69.6174 94.5564 69.6173 94.0933 69.8057ZM94.5729 71.7596L94.0777 71.8285C94.1997 72.7061 94.1009 72.9435 94.0469 73.0581L94.4992 73.2712L94.9515 73.4843C95.1216 73.1232 95.2036 72.6648 95.0681 71.6907L94.5729 71.7596ZM106.169 62.1906L105.864 62.5861C106.055 62.7345 106.37 62.9441 106.71 63.1039C106.88 63.1839 107.07 63.2575 107.262 63.3016C107.45 63.3446 107.676 63.3677 107.9 63.3117L107.779 62.8266L107.657 62.3415C107.644 62.3449 107.591 62.351 107.486 62.3268C107.385 62.3037 107.265 62.2598 107.135 62.1987C106.874 62.0761 106.622 61.9083 106.475 61.7951L106.169 62.1906ZM107.779 62.8266L108.002 62.3794C108.123 62.44 108.135 62.5384 108.128 62.5075C108.123 62.4832 108.119 62.4201 108.135 62.3182C108.166 62.111 108.254 61.8918 108.334 61.779L107.927 61.4884L107.52 61.1978C107.331 61.4631 107.196 61.8386 107.146 62.1688C107.121 62.3356 107.111 62.5269 107.149 62.7084C107.184 62.8833 107.285 63.1388 107.555 63.2738L107.779 62.8266ZM107.927 61.4884L108.334 61.779C108.762 61.1801 108.967 60.51 109.068 60.0064C109.119 59.7519 109.145 59.5326 109.158 59.3753C109.164 59.2965 109.167 59.2328 109.169 59.1874C109.17 59.1647 109.17 59.1466 109.171 59.1334C109.171 59.1268 109.171 59.1215 109.171 59.1174C109.171 59.1153 109.171 59.1136 109.171 59.1123C109.171 59.1116 109.171 59.1109 109.171 59.1104C109.171 59.1102 109.171 59.1099 109.171 59.1097C109.171 59.1096 109.171 59.1094 109.171 59.1094C109.171 59.1092 109.171 59.1091 108.671 59.1091C108.171 59.1091 108.171 59.109 108.171 59.1088C108.171 59.1088 108.171 59.1087 108.171 59.1086C108.171 59.1085 108.171 59.1083 108.171 59.1082C108.171 59.108 108.171 59.1079 108.171 59.1079C108.171 59.1078 108.171 59.108 108.171 59.1085C108.171 59.1096 108.171 59.1119 108.171 59.1153C108.171 59.1223 108.17 59.1339 108.17 59.1498C108.169 59.1817 108.166 59.2307 108.161 59.2936C108.151 59.4198 108.13 59.6002 108.088 59.8103C108.002 60.2362 107.836 60.7557 107.52 61.1978L107.927 61.4884ZM108.671 59.1091L109.166 59.0384C109.091 58.517 108.735 58.0198 108.132 57.4172L107.779 57.7707L107.425 58.1243C108.012 58.7113 108.151 59.0072 108.176 59.1798L108.671 59.1091ZM107.779 57.7707L108.132 57.4172C108.134 57.4185 108.111 57.3946 108.068 57.2903C108.024 57.182 107.989 57.07 107.925 56.8895C107.804 56.5535 107.627 56.1177 107.264 55.6786C106.53 54.7897 105.146 54.009 102.33 53.7047L102.276 54.2018L102.223 54.6989C104.909 54.9893 105.993 55.71 106.493 56.3153C106.747 56.6233 106.878 56.9328 106.983 57.2262C107.031 57.3604 107.088 57.534 107.142 57.6681C107.199 57.8062 107.282 57.9813 107.425 58.1243L107.779 57.7707ZM102.276 54.2018L102.304 53.7025C101.952 53.683 101.569 53.5823 101.045 53.4647C100.543 53.352 99.9557 53.2369 99.2893 53.2358C97.9294 53.2337 96.3312 53.7056 94.3842 55.3939L94.7117 55.7716L95.0392 56.1494C96.8351 54.5923 98.2072 54.2341 99.2878 54.2358C99.8417 54.2367 100.342 54.332 100.826 54.4405C101.288 54.5441 101.789 54.6754 102.249 54.701L102.276 54.2018ZM93.1658 58.4261L92.681 58.3037C92.5344 58.8837 92.3775 59.5229 92.2558 60.086C92.1377 60.6323 92.0414 61.1563 92.0358 61.4798L92.5357 61.4884L93.0357 61.497C93.0393 61.2879 93.1117 60.8596 93.2332 60.2973C93.3511 59.7517 93.5046 59.1261 93.6505 58.5486L93.1658 58.4261ZM92.5357 61.4884L92.0358 61.4798C92.0286 61.8994 92.0809 62.2777 92.1361 62.5923C92.1959 62.9333 92.2449 63.1382 92.2613 63.3181L92.7592 63.2728L93.2572 63.2276C93.2359 62.994 93.1668 62.6805 93.1211 62.4196C93.0707 62.1323 93.0301 61.825 93.0357 61.497L92.5357 61.4884ZM94.0933 61.4884L94.2496 61.9634C94.8387 61.7695 95.3282 61.6618 95.7853 61.5621C96.2365 61.4637 96.6789 61.3691 97.1226 61.2006C98.0417 60.8516 98.9055 60.2118 100.13 58.7247L99.7442 58.4069L99.3582 58.089C98.1906 59.5068 97.4603 60.0027 96.7677 60.2657C96.4055 60.4032 96.0377 60.4836 95.5723 60.5851C95.1127 60.6853 94.5793 60.8022 93.937 61.0134L94.0933 61.4884ZM99.7442 58.4069L100.13 58.7247C100.473 58.3088 100.81 58.1629 101.113 58.1386C101.432 58.1128 101.783 58.2172 102.142 58.4298C102.499 58.6412 102.831 58.9411 103.094 59.2492C103.363 59.5635 103.53 59.8503 103.589 60.0179L104.061 59.8527L104.533 59.6875C104.418 59.3594 104.167 58.9648 103.854 58.5991C103.536 58.2272 103.123 57.8484 102.652 57.5694C102.183 57.2917 101.624 57.0941 101.032 57.1418C100.424 57.1908 99.8484 57.4938 99.3582 58.089L99.7442 58.4069ZM104.061 59.8527L104.285 60.2999C104.284 60.2999 104.285 60.2996 104.287 60.2988C104.289 60.2981 104.291 60.2971 104.294 60.2959C104.3 60.2934 104.309 60.2903 104.32 60.2868C104.343 60.2798 104.373 60.2722 104.41 60.2653C104.483 60.2515 104.575 60.2422 104.676 60.2428C104.883 60.2442 105.1 60.2862 105.279 60.3816C105.448 60.4718 105.593 60.6137 105.68 60.8503C105.77 61.0971 105.81 61.4865 105.681 62.0852L106.169 62.1906L106.658 62.296C106.813 61.5771 106.793 60.9844 106.619 60.5071C106.441 60.0195 106.117 59.6952 105.749 59.4993C105.392 59.3087 105.006 59.2449 104.683 59.2429C104.371 59.2409 104.056 59.2964 103.837 59.4055L104.061 59.8527ZM92.9119 65.3619L92.4199 65.4511C92.6561 66.7528 93.0506 68.5689 93.6301 69.994L94.0933 69.8057L94.5565 69.6173C94.0178 68.2928 93.6377 66.5616 93.4039 65.2726L92.9119 65.3619ZM94.0933 61.4884L93.937 61.0134C93.3254 61.2147 92.9132 61.5449 92.6504 61.9674C92.3977 62.3737 92.3102 62.8237 92.2629 63.2124L92.7592 63.2728L93.2555 63.3333C93.2978 62.9866 93.3642 62.7132 93.4996 62.4955C93.6249 62.2941 93.8349 62.0998 94.2496 61.9634L94.0933 61.4884ZM92.7592 63.2728L92.2629 63.2124C92.193 63.7859 92.2362 64.355 92.2932 64.7711C92.3219 64.9814 92.3549 65.1576 92.381 65.2824C92.394 65.3449 92.4054 65.3948 92.4137 65.4298C92.4179 65.4474 92.4213 65.4612 92.4238 65.4711C92.425 65.4761 92.426 65.4801 92.4268 65.483C92.4272 65.4845 92.4275 65.4857 92.4277 65.4867C92.4279 65.4872 92.428 65.4876 92.4281 65.4879C92.4281 65.4881 92.4282 65.4883 92.4282 65.4884C92.4282 65.4885 92.4282 65.4886 92.4282 65.4886C92.4283 65.4887 92.4283 65.4888 92.9119 65.3619C93.3955 65.2349 93.3956 65.235 93.3956 65.2351C93.3956 65.2351 93.3956 65.2352 93.3956 65.2352C93.3956 65.2353 93.3956 65.2353 93.3957 65.2354C93.3957 65.2355 93.3957 65.2355 93.3957 65.2355C93.3957 65.2354 93.3956 65.2351 93.3954 65.2345C93.3951 65.2334 93.3946 65.2313 93.3938 65.2283C93.3923 65.2221 93.3899 65.2122 93.3867 65.1988C93.3803 65.1719 93.3709 65.1309 93.3599 65.078C93.3377 64.9719 93.309 64.8189 93.2839 64.6356C93.2332 64.2645 93.2 63.7891 93.2555 63.3333L92.7592 63.2728ZM94.7117 55.7716L94.3842 55.3939C93.4983 56.162 92.9558 57.2163 92.681 58.3037L93.1658 58.4261L93.6505 58.5486C93.8884 57.6073 94.3442 56.752 95.0392 56.1494L94.7117 55.7716ZM99.1532 72.7901L98.6611 72.7015C98.6521 72.7516 98.4453 73.2242 98.7046 73.7535L99.1536 73.5336L99.6026 73.3137C99.5666 73.2402 99.5699 73.2064 99.5735 73.1801C99.5766 73.1566 99.5829 73.129 99.5968 73.0783C99.6081 73.037 99.631 72.9581 99.6453 72.8787L99.1532 72.7901ZM98.6278 63.8638L99.0857 63.6629C98.8975 63.2338 98.4759 62.9564 98.0165 62.9247L97.9821 63.4235L97.9477 63.9223C98.0584 63.9299 98.1401 63.9965 98.17 64.0647L98.6278 63.8638ZM97.9821 63.4235L98.017 62.9247C97.4992 62.8885 96.9819 63.1698 96.7636 63.6606L97.2204 63.8638L97.6772 64.067C97.7125 63.9878 97.8183 63.9133 97.9472 63.9223L97.9821 63.4235ZM104.279 64.1612L104.737 63.9603C104.548 63.5312 104.127 63.2538 103.667 63.2221L103.633 63.7209L103.599 64.2197C103.709 64.2274 103.791 64.2939 103.821 64.3621L104.279 64.1612ZM103.633 63.7209L103.668 63.2221C103.15 63.1859 102.633 63.4672 102.414 63.958L102.871 64.1612L103.328 64.3644C103.363 64.2852 103.469 64.2107 103.598 64.2197L103.633 63.7209ZM98.0174 69.0951L97.5254 69.1845C97.5389 69.2583 97.7336 70.276 98.7309 70.685L98.9206 70.2224L99.1103 69.7598C98.875 69.6633 98.7272 69.4917 98.6326 69.322C98.536 69.1489 98.5084 69.0005 98.5093 69.0056L98.0174 69.0951ZM98.9206 70.2224L98.7315 70.6853C99.5871 71.0349 100.333 70.6438 100.435 70.5889L100.198 70.1487L99.9613 69.7085C99.9098 69.7362 99.524 69.9289 99.1098 69.7596L98.9206 70.2224ZM99.1536 73.5336L98.8996 73.1029C98.3251 73.4417 97.741 73.641 97.0941 73.6347C96.4455 73.6284 95.6852 73.4149 94.7616 72.8456L94.4992 73.2712L94.2368 73.6968C95.2749 74.3367 96.2114 74.6262 97.0844 74.6347C97.9591 74.6432 98.7213 74.369 99.4076 73.9643L99.1536 73.5336Z" fill="url(#paint0_linear_1006_3984)"/>
<path d="M99.1532 72.7901L99.1899 72.2914C98.9347 72.2727 98.7065 72.4496 98.6611 72.7015L99.1532 72.7901ZM102.276 71.4517L102.529 71.8831L102.536 71.8794L102.276 71.4517ZM104.061 70.1134L104.42 70.4617V70.4617L104.061 70.1134ZM105.399 68.1802L104.983 67.9036L104.971 67.9212L104.961 67.9398L105.399 68.1802ZM106.169 62.1906L105.681 62.0852C105.671 62.1282 105.668 62.1721 105.67 62.216L106.169 62.1906ZM94.0933 69.8057L93.6301 69.994L93.6302 69.9941L94.0933 69.8057ZM94.5729 71.7596L95.0681 71.6907L95.0681 71.6906L94.5729 71.7596ZM94.4992 73.2712L94.0469 73.0581C93.9384 73.2883 94.0202 73.5633 94.2368 73.6968L94.4992 73.2712ZM107.779 62.8266L107.9 63.3117C108.103 63.2609 108.253 63.0891 108.276 62.8811C108.298 62.6732 108.189 62.4729 108.002 62.3794L107.779 62.8266ZM107.927 61.4884L108.334 61.779V61.779L107.927 61.4884ZM108.671 59.1091H109.171C109.171 59.0854 109.169 59.0618 109.166 59.0384L108.671 59.1091ZM107.779 57.7707L108.132 57.4172V57.4172L107.779 57.7707ZM102.276 54.2018L102.33 53.7047C102.322 53.7037 102.313 53.703 102.304 53.7025L102.276 54.2018ZM94.7117 55.7716L95.0392 56.1494V56.1494L94.7117 55.7716ZM93.1658 58.4261L93.6505 58.5486H93.6505L93.1658 58.4261ZM92.5357 61.4884L93.0357 61.497L92.5357 61.4884ZM92.7592 63.2728L93.2555 63.3333V63.3333L92.7592 63.2728ZM94.0933 61.4884L93.937 61.0134V61.0134L94.0933 61.4884ZM99.7442 58.4069L100.13 58.7247V58.7247L99.7442 58.4069ZM104.061 59.8527L103.589 60.0179C103.636 60.1534 103.74 60.2621 103.873 60.316C104.006 60.37 104.156 60.3642 104.285 60.2999L104.061 59.8527ZM92.9119 65.3619L93.4039 65.2726C93.4016 65.2599 93.3988 65.2474 93.3955 65.2349L92.9119 65.3619ZM99.1536 73.5336L99.4076 73.9643C99.6325 73.8316 99.7175 73.5482 99.6026 73.3137L99.1536 73.5336ZM98.17 64.0647C98.2809 64.3176 98.5759 64.4326 98.8287 64.3217C99.0816 64.2107 99.1967 63.9158 99.0857 63.6629L98.6278 63.8638L98.17 64.0647ZM97.9821 63.4235L97.9472 63.9223L97.9477 63.9223L97.9821 63.4235ZM96.7636 63.6606C96.6513 63.9129 96.7649 64.2084 97.0172 64.3206C97.2695 64.4329 97.565 64.3193 97.6772 64.067L97.2204 63.8638L96.7636 63.6606ZM103.821 64.3621C103.932 64.615 104.227 64.73 104.48 64.6191C104.732 64.5081 104.848 64.2132 104.737 63.9603L104.279 64.1612L103.821 64.3621ZM103.633 63.7209L103.598 64.2197L103.599 64.2197L103.633 63.7209ZM102.414 63.958C102.302 64.2103 102.416 64.5058 102.668 64.6181C102.92 64.7303 103.216 64.6167 103.328 64.3644L102.871 64.1612L102.414 63.958ZM98.5093 69.0056C98.4599 68.734 98.1996 68.5538 97.9279 68.6032C97.6563 68.6526 97.476 68.9128 97.5254 69.1845L98.0174 69.0951L98.5093 69.0056ZM98.9206 70.2224L98.7309 70.685L98.7315 70.6853L98.9206 70.2224ZM100.435 70.5889C100.678 70.458 100.769 70.1548 100.639 69.9116C100.508 69.6685 100.204 69.5775 99.9613 69.7085L100.198 70.1487L100.435 70.5889ZM99.1532 72.7901L99.1165 73.2888C99.2855 73.3012 99.4626 73.2722 99.6191 73.2345C99.7822 73.1953 99.9569 73.1381 100.132 73.0724C100.483 72.9409 100.867 72.7635 101.218 72.5893C101.57 72.4143 101.897 72.2381 102.136 72.106C102.255 72.0399 102.353 71.9845 102.421 71.9455C102.455 71.926 102.482 71.9106 102.5 71.8999C102.51 71.8946 102.517 71.8905 102.522 71.8876C102.524 71.8862 102.526 71.8851 102.527 71.8843C102.528 71.884 102.528 71.8836 102.529 71.8834C102.529 71.8833 102.529 71.8832 102.529 71.8832C102.529 71.8831 102.529 71.8831 102.529 71.8831C102.529 71.883 102.529 71.883 102.276 71.4517C102.023 71.0205 102.023 71.0205 102.023 71.0205C102.023 71.0205 102.023 71.0205 102.023 71.0205C102.023 71.0205 102.023 71.0205 102.023 71.0206C102.023 71.0207 102.023 71.0209 102.022 71.0212C102.021 71.0217 102.02 71.0226 102.018 71.0238C102.014 71.0263 102.007 71.03 101.999 71.0348C101.982 71.0446 101.957 71.059 101.925 71.0775C101.86 71.1145 101.766 71.1676 101.651 71.2312C101.421 71.3586 101.108 71.5274 100.773 71.6938C100.436 71.8611 100.086 72.0217 99.7813 72.136C99.6287 72.1932 99.4952 72.2358 99.3852 72.2623C99.2686 72.2903 99.2079 72.2928 99.1899 72.2914L99.1532 72.7901ZM102.276 71.4517C102.536 71.8794 102.536 71.8794 102.536 71.8793C102.536 71.8793 102.536 71.8793 102.536 71.8793C102.536 71.8792 102.536 71.8792 102.536 71.8791C102.536 71.879 102.537 71.8788 102.537 71.8785C102.538 71.8781 102.539 71.8775 102.54 71.8767C102.543 71.8751 102.546 71.8728 102.551 71.8699C102.561 71.864 102.574 71.8556 102.592 71.8447C102.627 71.8229 102.677 71.7914 102.739 71.7518C102.863 71.6726 103.035 71.5605 103.226 71.4279C103.601 71.1682 104.081 70.8109 104.42 70.4617L104.061 70.1134L103.702 69.7651C103.434 70.0408 103.022 70.3527 102.656 70.6059C102.477 70.7299 102.317 70.8351 102.201 70.9093C102.143 70.9463 102.096 70.9754 102.064 70.9951C102.049 71.0049 102.037 71.0124 102.029 71.0173C102.025 71.0197 102.022 71.0216 102.02 71.0227C102.019 71.0233 102.018 71.0237 102.018 71.0239C102.017 71.024 102.017 71.0241 102.017 71.0241C102.017 71.0241 102.017 71.0242 102.017 71.0241C102.017 71.0241 102.017 71.0241 102.017 71.0241C102.017 71.0241 102.017 71.0241 102.276 71.4517ZM104.061 70.1134L104.42 70.4617C104.777 70.0936 105.134 69.5738 105.392 69.1678C105.524 68.9606 105.634 68.775 105.712 68.641C105.751 68.574 105.782 68.5196 105.804 68.4816C105.814 68.4627 105.823 68.4478 105.828 68.4374C105.831 68.4323 105.833 68.4282 105.835 68.4254C105.836 68.424 105.836 68.4229 105.837 68.4221C105.837 68.4217 105.837 68.4213 105.837 68.4211C105.837 68.421 105.838 68.4209 105.838 68.4208C105.838 68.4207 105.838 68.4207 105.838 68.4206C105.838 68.4206 105.838 68.4206 105.399 68.1802C104.961 67.9398 104.961 67.9398 104.961 67.9398C104.961 67.9398 104.961 67.9397 104.961 67.9397C104.961 67.9397 104.961 67.9397 104.961 67.9398C104.961 67.9398 104.961 67.94 104.961 67.9402C104.96 67.9406 104.96 67.9413 104.959 67.9423C104.958 67.9444 104.957 67.9476 104.954 67.9519C104.949 67.9606 104.942 67.9737 104.932 67.9908C104.913 68.0252 104.884 68.0755 104.848 68.1382C104.775 68.2637 104.671 68.4379 104.548 68.6317C104.296 69.0276 103.984 69.4744 103.702 69.7651L104.061 70.1134ZM105.399 68.1802C105.816 68.4568 105.816 68.4565 105.816 68.4562C105.816 68.4561 105.816 68.4558 105.817 68.4556C105.817 68.4551 105.817 68.4546 105.818 68.4541C105.818 68.4532 105.819 68.4521 105.82 68.4509C105.821 68.4485 105.823 68.4458 105.825 68.4427C105.829 68.4364 105.834 68.4287 105.839 68.4193C105.85 68.4006 105.865 68.3756 105.882 68.3439C105.916 68.2806 105.961 68.1907 106.012 68.0715C106.113 67.8329 106.24 67.4775 106.357 66.9828C106.59 65.9934 106.785 64.448 106.669 62.1652L106.169 62.1906L105.67 62.216C105.782 64.4199 105.592 65.8693 105.383 66.753C105.279 67.1948 105.17 67.4956 105.092 67.6791C105.053 67.7708 105.021 67.8334 105.002 67.8698C104.992 67.888 104.985 67.8996 104.982 67.9051C104.98 67.9079 104.979 67.9091 104.979 67.9088C104.979 67.9087 104.98 67.9082 104.98 67.9073C104.981 67.9068 104.981 67.9063 104.981 67.9057C104.982 67.9054 104.982 67.905 104.982 67.9047C104.982 67.9045 104.982 67.9042 104.982 67.9041C104.983 67.9039 104.983 67.9036 105.399 68.1802ZM94.0933 69.8057C93.6302 69.9941 93.6301 69.994 93.6301 69.9939C93.6301 69.9939 93.6301 69.9939 93.63 69.9938C93.63 69.9937 93.63 69.9937 93.63 69.9936C93.6299 69.9935 93.6299 69.9934 93.6299 69.9934C93.6299 69.9933 93.6299 69.9935 93.63 69.9938C93.6303 69.9945 93.6308 69.9958 93.6317 69.9979C93.6333 70.0021 93.6361 70.0093 93.6399 70.0192C93.6474 70.039 93.659 70.0701 93.6736 70.1116C93.703 70.1947 93.7446 70.3196 93.7915 70.4806C93.8854 70.8028 93.9995 71.2674 94.0777 71.8286L94.5729 71.7596L95.0681 71.6906C94.9822 71.0734 94.8565 70.561 94.7516 70.2009C94.6991 70.0207 94.6516 69.8781 94.6167 69.7789C94.5992 69.7294 94.5848 69.6906 94.5745 69.6634C94.5693 69.6499 94.5651 69.6392 94.5621 69.6314C94.5606 69.6276 94.5593 69.6245 94.5584 69.6221C94.5579 69.6209 94.5575 69.6199 94.5572 69.6191C94.557 69.6187 94.5569 69.6184 94.5568 69.618C94.5567 69.6179 94.5566 69.6178 94.5566 69.6176C94.5566 69.6176 94.5565 69.6175 94.5565 69.6174C94.5565 69.6174 94.5564 69.6173 94.0933 69.8057ZM94.5729 71.7596L94.0777 71.8285C94.1997 72.7061 94.1009 72.9435 94.0469 73.0581L94.4992 73.2712L94.9515 73.4843C95.1216 73.1232 95.2036 72.6648 95.0681 71.6907L94.5729 71.7596ZM106.169 62.1906L105.864 62.5861C106.055 62.7345 106.37 62.9441 106.71 63.1039C106.88 63.1839 107.07 63.2575 107.262 63.3016C107.45 63.3446 107.676 63.3677 107.9 63.3117L107.779 62.8266L107.657 62.3415C107.644 62.3449 107.591 62.351 107.486 62.3268C107.385 62.3037 107.265 62.2598 107.135 62.1987C106.874 62.0761 106.622 61.9083 106.475 61.7951L106.169 62.1906ZM107.779 62.8266L108.002 62.3794C108.123 62.44 108.135 62.5384 108.128 62.5075C108.123 62.4832 108.119 62.4201 108.135 62.3182C108.166 62.111 108.254 61.8918 108.334 61.779L107.927 61.4884L107.52 61.1978C107.331 61.4631 107.196 61.8386 107.146 62.1688C107.121 62.3356 107.111 62.5269 107.149 62.7084C107.184 62.8833 107.285 63.1388 107.555 63.2738L107.779 62.8266ZM107.927 61.4884L108.334 61.779C108.762 61.1801 108.967 60.51 109.068 60.0064C109.119 59.7519 109.145 59.5326 109.158 59.3753C109.164 59.2965 109.167 59.2328 109.169 59.1874C109.17 59.1647 109.17 59.1466 109.171 59.1334C109.171 59.1268 109.171 59.1215 109.171 59.1174C109.171 59.1153 109.171 59.1136 109.171 59.1123C109.171 59.1116 109.171 59.1109 109.171 59.1104C109.171 59.1102 109.171 59.1099 109.171 59.1097C109.171 59.1096 109.171 59.1094 109.171 59.1094C109.171 59.1092 109.171 59.1091 108.671 59.1091C108.171 59.1091 108.171 59.109 108.171 59.1088C108.171 59.1088 108.171 59.1087 108.171 59.1086C108.171 59.1085 108.171 59.1083 108.171 59.1082C108.171 59.108 108.171 59.1079 108.171 59.1079C108.171 59.1078 108.171 59.108 108.171 59.1085C108.171 59.1096 108.171 59.1119 108.171 59.1153C108.171 59.1223 108.17 59.1339 108.17 59.1498C108.169 59.1817 108.166 59.2307 108.161 59.2936C108.151 59.4198 108.13 59.6002 108.088 59.8103C108.002 60.2362 107.836 60.7557 107.52 61.1978L107.927 61.4884ZM108.671 59.1091L109.166 59.0384C109.091 58.517 108.735 58.0198 108.132 57.4172L107.779 57.7707L107.425 58.1243C108.012 58.7113 108.151 59.0072 108.176 59.1798L108.671 59.1091ZM107.779 57.7707L108.132 57.4172C108.134 57.4185 108.111 57.3946 108.068 57.2903C108.024 57.182 107.989 57.07 107.925 56.8895C107.804 56.5535 107.627 56.1177 107.264 55.6786C106.53 54.7897 105.146 54.009 102.33 53.7047L102.276 54.2018L102.223 54.6989C104.909 54.9893 105.993 55.71 106.493 56.3153C106.747 56.6233 106.878 56.9328 106.983 57.2262C107.031 57.3604 107.088 57.534 107.142 57.6681C107.199 57.8062 107.282 57.9813 107.425 58.1243L107.779 57.7707ZM102.276 54.2018L102.304 53.7025C101.952 53.683 101.569 53.5823 101.045 53.4647C100.543 53.352 99.9557 53.2369 99.2893 53.2358C97.9294 53.2337 96.3312 53.7056 94.3842 55.3939L94.7117 55.7716L95.0392 56.1494C96.8351 54.5923 98.2072 54.2341 99.2878 54.2358C99.8417 54.2367 100.342 54.332 100.826 54.4405C101.288 54.5441 101.789 54.6754 102.249 54.701L102.276 54.2018ZM93.1658 58.4261L92.681 58.3037C92.5344 58.8837 92.3775 59.5229 92.2558 60.086C92.1377 60.6323 92.0414 61.1563 92.0358 61.4798L92.5357 61.4884L93.0357 61.497C93.0393 61.2879 93.1117 60.8596 93.2332 60.2973C93.3511 59.7517 93.5046 59.1261 93.6505 58.5486L93.1658 58.4261ZM92.5357 61.4884L92.0358 61.4798C92.0286 61.8994 92.0809 62.2777 92.1361 62.5923C92.1959 62.9333 92.2449 63.1382 92.2613 63.3181L92.7592 63.2728L93.2572 63.2276C93.2359 62.994 93.1668 62.6805 93.1211 62.4196C93.0707 62.1323 93.0301 61.825 93.0357 61.497L92.5357 61.4884ZM94.0933 61.4884L94.2496 61.9634C94.8387 61.7695 95.3282 61.6618 95.7853 61.5621C96.2365 61.4637 96.6789 61.3691 97.1226 61.2006C98.0417 60.8516 98.9055 60.2118 100.13 58.7247L99.7442 58.4069L99.3582 58.089C98.1906 59.5068 97.4603 60.0027 96.7677 60.2657C96.4055 60.4032 96.0377 60.4836 95.5723 60.5851C95.1127 60.6853 94.5793 60.8022 93.937 61.0134L94.0933 61.4884ZM99.7442 58.4069L100.13 58.7247C100.473 58.3088 100.81 58.1629 101.113 58.1386C101.432 58.1128 101.783 58.2172 102.142 58.4298C102.499 58.6412 102.831 58.9411 103.094 59.2492C103.363 59.5635 103.53 59.8503 103.589 60.0179L104.061 59.8527L104.533 59.6875C104.418 59.3594 104.167 58.9648 103.854 58.5991C103.536 58.2272 103.123 57.8484 102.652 57.5694C102.183 57.2917 101.624 57.0941 101.032 57.1418C100.424 57.1908 99.8484 57.4938 99.3582 58.089L99.7442 58.4069ZM104.061 59.8527L104.285 60.2999C104.284 60.2999 104.285 60.2996 104.287 60.2988C104.289 60.2981 104.291 60.2971 104.294 60.2959C104.3 60.2934 104.309 60.2903 104.32 60.2868C104.343 60.2798 104.373 60.2722 104.41 60.2653C104.483 60.2515 104.575 60.2422 104.676 60.2428C104.883 60.2442 105.1 60.2862 105.279 60.3816C105.448 60.4718 105.593 60.6137 105.68 60.8503C105.77 61.0971 105.81 61.4865 105.681 62.0852L106.169 62.1906L106.658 62.296C106.813 61.5771 106.793 60.9844 106.619 60.5071C106.441 60.0195 106.117 59.6952 105.749 59.4993C105.392 59.3087 105.006 59.2449 104.683 59.2429C104.371 59.2409 104.056 59.2964 103.837 59.4055L104.061 59.8527ZM92.9119 65.3619L92.4199 65.4511C92.6561 66.7528 93.0506 68.5689 93.6301 69.994L94.0933 69.8057L94.5565 69.6173C94.0178 68.2928 93.6377 66.5616 93.4039 65.2726L92.9119 65.3619ZM94.0933 61.4884L93.937 61.0134C93.3254 61.2147 92.9132 61.5449 92.6504 61.9674C92.3977 62.3737 92.3102 62.8237 92.2629 63.2124L92.7592 63.2728L93.2555 63.3333C93.2978 62.9866 93.3642 62.7132 93.4996 62.4955C93.6249 62.2941 93.8349 62.0998 94.2496 61.9634L94.0933 61.4884ZM92.7592 63.2728L92.2629 63.2124C92.193 63.7859 92.2362 64.355 92.2932 64.7711C92.3219 64.9814 92.3549 65.1576 92.381 65.2824C92.394 65.3449 92.4054 65.3948 92.4137 65.4298C92.4179 65.4474 92.4213 65.4612 92.4238 65.4711C92.425 65.4761 92.426 65.4801 92.4268 65.483C92.4272 65.4845 92.4275 65.4857 92.4277 65.4867C92.4279 65.4872 92.428 65.4876 92.4281 65.4879C92.4281 65.4881 92.4282 65.4883 92.4282 65.4884C92.4282 65.4885 92.4282 65.4886 92.4282 65.4886C92.4283 65.4887 92.4283 65.4888 92.9119 65.3619C93.3955 65.2349 93.3956 65.235 93.3956 65.2351C93.3956 65.2351 93.3956 65.2352 93.3956 65.2352C93.3956 65.2353 93.3956 65.2353 93.3957 65.2354C93.3957 65.2355 93.3957 65.2355 93.3957 65.2355C93.3957 65.2354 93.3956 65.2351 93.3954 65.2345C93.3951 65.2334 93.3946 65.2313 93.3938 65.2283C93.3923 65.2221 93.3899 65.2122 93.3867 65.1988C93.3803 65.1719 93.3709 65.1309 93.3599 65.078C93.3377 64.9719 93.309 64.8189 93.2839 64.6356C93.2332 64.2645 93.2 63.7891 93.2555 63.3333L92.7592 63.2728ZM94.7117 55.7716L94.3842 55.3939C93.4983 56.162 92.9558 57.2163 92.681 58.3037L93.1658 58.4261L93.6505 58.5486C93.8884 57.6073 94.3442 56.752 95.0392 56.1494L94.7117 55.7716ZM99.1532 72.7901L98.6611 72.7015C98.6521 72.7516 98.4453 73.2242 98.7046 73.7535L99.1536 73.5336L99.6026 73.3137C99.5666 73.2402 99.5699 73.2064 99.5735 73.1801C99.5766 73.1566 99.5829 73.129 99.5968 73.0783C99.6081 73.037 99.631 72.9581 99.6453 72.8787L99.1532 72.7901ZM98.6278 63.8638L99.0857 63.6629C98.8975 63.2338 98.4759 62.9564 98.0165 62.9247L97.9821 63.4235L97.9477 63.9223C98.0584 63.9299 98.1401 63.9965 98.17 64.0647L98.6278 63.8638ZM97.9821 63.4235L98.017 62.9247C97.4992 62.8885 96.9819 63.1698 96.7636 63.6606L97.2204 63.8638L97.6772 64.067C97.7125 63.9878 97.8183 63.9133 97.9472 63.9223L97.9821 63.4235ZM104.279 64.1612L104.737 63.9603C104.548 63.5312 104.127 63.2538 103.667 63.2221L103.633 63.7209L103.599 64.2197C103.709 64.2274 103.791 64.2939 103.821 64.3621L104.279 64.1612ZM103.633 63.7209L103.668 63.2221C103.15 63.1859 102.633 63.4672 102.414 63.958L102.871 64.1612L103.328 64.3644C103.363 64.2852 103.469 64.2107 103.598 64.2197L103.633 63.7209ZM98.0174 69.0951L97.5254 69.1845C97.5389 69.2583 97.7336 70.276 98.7309 70.685L98.9206 70.2224L99.1103 69.7598C98.875 69.6633 98.7272 69.4917 98.6326 69.322C98.536 69.1489 98.5084 69.0005 98.5093 69.0056L98.0174 69.0951ZM98.9206 70.2224L98.7315 70.6853C99.5871 71.0349 100.333 70.6438 100.435 70.5889L100.198 70.1487L99.9613 69.7085C99.9098 69.7362 99.524 69.9289 99.1098 69.7596L98.9206 70.2224ZM99.1536 73.5336L98.8996 73.1029C98.3251 73.4417 97.741 73.641 97.0941 73.6347C96.4455 73.6284 95.6852 73.4149 94.7616 72.8456L94.4992 73.2712L94.2368 73.6968C95.2749 74.3367 96.2114 74.6262 97.0844 74.6347C97.9591 74.6432 98.7213 74.369 99.4076 73.9643L99.1536 73.5336Z" fill="#03092D"/>
<path d="M94.5 73.3535C94.5 73.3535 89.0467 74.7003 86.0732 76.2981C85.581 76.5626 85.2594 77.05 85.1989 77.6055C84.8237 81.0518 85.3237 87.3014 85.3237 87.3014L89.1901 84.9221L90.0823 84.3273V81.3543L89.659 78.2279" stroke="#03092D" stroke-linecap="round" stroke-linejoin="round"/>
<path d="M99.2979 73.353C99.2979 73.353 103.288 74.5788 106.937 76.825C107.309 77.0542 107.595 77.4027 107.72 77.8218C108.769 81.3475 108.474 87.3009 108.474 87.3009L104.608 84.9216L103.716 84.3268V81.3538L102.424 77.9668" stroke="#03092D" stroke-linecap="round" stroke-linejoin="round"/>
<path d="M93.9587 75.4902C94.2936 75.9551 94.8533 77.7398 95.3008 84.2628" stroke="#03092D" stroke-linecap="round" stroke-linejoin="round"/>
<path d="M98.7766 74.8389C98.9781 75.0982 99.9945 78.2238 100.587 84.538" stroke="#03092D" stroke-linecap="round" stroke-linejoin="round"/>
</g>
<path d="M110.835 51.6948C112.292 51.7389 113.443 52.9452 113.42 54.4028L113.205 67.855V67.8706L113.421 81.7544C113.444 83.2428 112.243 84.4622 110.755 84.4624H83.0928C81.673 84.4622 80.507 83.352 80.4443 81.938C80.2875 78.3985 80.0566 72.4581 80.0566 68.1255C80.0566 63.7532 80.2914 57.7433 80.4482 54.2163C80.5099 52.8355 81.6261 51.7403 83.0127 51.6958L96.499 51.2632L110.835 51.6948Z" stroke="#03092D"/>
<rect x="66.5" y="149.5" width="95" height="52" rx="3.5" fill="#E9EEF5" stroke="#3253D1"/>
<path d="M114.621 138.607C117.177 138.607 119.442 139.469 121.217 140.913C121.788 141.378 122.511 142.292 123.117 143.141C123.413 143.555 123.67 143.939 123.854 144.219C123.945 144.358 124.018 144.472 124.067 144.55C124.092 144.589 124.111 144.619 124.124 144.64C124.846 146.159 125.247 147.886 125.247 149.722C125.247 152.779 124.041 155.041 122.099 156.555C120.137 158.082 117.376 158.883 114.233 158.883C108.129 158.883 103.608 153.941 103.607 147.769C103.607 144.712 104.813 142.449 106.756 140.936C108.717 139.408 111.479 138.607 114.621 138.607Z" fill="#3253D1" stroke="#3253D1" stroke-width="1.21487"/>
<path d="M109.587 149.006C110.965 150.182 113.375 152.533 113.375 152.533C113.375 152.533 117.895 146.882 120.076 144.958" stroke="#E9EEF5" stroke-width="1.21487" stroke-linecap="round" stroke-linejoin="round"/>
<path d="M97.463 176.12C96.911 176.12 96.411 176.056 95.963 175.928C95.523 175.792 95.131 175.6 94.787 175.352C94.443 175.096 94.135 174.796 93.863 174.452L95.099 173.048C95.499 173.584 95.899 173.944 96.299 174.128C96.707 174.312 97.127 174.404 97.559 174.404C97.775 174.404 97.971 174.376 98.147 174.32C98.323 174.264 98.459 174.184 98.555 174.08C98.651 173.968 98.699 173.832 98.699 173.672C98.699 173.552 98.667 173.444 98.603 173.348C98.547 173.252 98.467 173.168 98.363 173.096C98.259 173.024 98.135 172.96 97.991 172.904C97.847 172.84 97.695 172.788 97.535 172.748C97.375 172.7 97.211 172.66 97.043 172.628C96.579 172.524 96.175 172.396 95.831 172.244C95.487 172.092 95.199 171.908 94.967 171.692C94.743 171.468 94.575 171.216 94.463 170.936C94.351 170.648 94.295 170.328 94.295 169.976C94.295 169.6 94.379 169.256 94.547 168.944C94.723 168.624 94.955 168.352 95.243 168.128C95.539 167.896 95.879 167.72 96.263 167.6C96.647 167.472 97.047 167.408 97.463 167.408C98.015 167.408 98.487 167.468 98.879 167.588C99.279 167.7 99.619 167.864 99.899 168.08C100.187 168.296 100.431 168.556 100.631 168.86L99.371 170.072C99.203 169.864 99.019 169.692 98.819 169.556C98.627 169.42 98.419 169.316 98.195 169.244C97.979 169.172 97.755 169.136 97.523 169.136C97.283 169.136 97.075 169.168 96.899 169.232C96.731 169.288 96.599 169.372 96.503 169.484C96.407 169.588 96.359 169.716 96.359 169.868C96.359 170.004 96.399 170.12 96.479 170.216C96.559 170.312 96.667 170.4 96.803 170.48C96.939 170.552 97.095 170.616 97.271 170.672C97.447 170.72 97.631 170.76 97.823 170.792C98.263 170.88 98.659 170.996 99.011 171.14C99.371 171.284 99.679 171.46 99.935 171.668C100.199 171.876 100.399 172.124 100.535 172.412C100.679 172.692 100.751 173.02 100.751 173.396C100.751 173.98 100.607 174.476 100.319 174.884C100.039 175.284 99.651 175.592 99.155 175.808C98.667 176.016 98.103 176.12 97.463 176.12ZM105.081 176.12C104.417 176.12 103.825 175.976 103.305 175.688C102.793 175.4 102.385 175.008 102.081 174.512C101.785 174.016 101.637 173.448 101.637 172.808C101.637 172.168 101.785 171.6 102.081 171.104C102.385 170.608 102.793 170.216 103.305 169.928C103.825 169.64 104.417 169.496 105.081 169.496C105.745 169.496 106.333 169.64 106.845 169.928C107.365 170.216 107.773 170.608 108.069 171.104C108.365 171.6 108.513 172.168 108.513 172.808C108.513 173.448 108.365 174.016 108.069 174.512C107.773 175.008 107.365 175.4 106.845 175.688C106.333 175.976 105.745 176.12 105.081 176.12ZM105.081 174.464C105.369 174.464 105.625 174.392 105.849 174.248C106.073 174.104 106.249 173.908 106.377 173.66C106.505 173.412 106.565 173.128 106.557 172.808C106.565 172.488 106.505 172.204 106.377 171.956C106.249 171.7 106.073 171.5 105.849 171.356C105.625 171.212 105.369 171.14 105.081 171.14C104.793 171.14 104.533 171.212 104.301 171.356C104.077 171.5 103.901 171.7 103.773 171.956C103.645 172.204 103.585 172.488 103.593 172.808C103.585 173.128 103.645 173.412 103.773 173.66C103.901 173.908 104.077 174.104 104.301 174.248C104.533 174.392 104.793 174.464 105.081 174.464ZM111.94 176.132C111.468 176.132 111.064 176.032 110.728 175.832C110.4 175.624 110.144 175.328 109.96 174.944C109.784 174.56 109.696 174.1 109.696 173.564V169.628H111.628V173.3C111.628 173.556 111.668 173.776 111.748 173.96C111.828 174.144 111.948 174.288 112.108 174.392C112.268 174.488 112.46 174.536 112.684 174.536C112.852 174.536 113.004 174.508 113.14 174.452C113.284 174.396 113.404 174.32 113.5 174.224C113.604 174.12 113.684 174.004 113.74 173.876C113.796 173.74 113.824 173.592 113.824 173.432V169.628H115.756V176H113.944L113.86 174.692L114.22 174.548C114.124 174.852 113.964 175.124 113.74 175.364C113.516 175.596 113.248 175.784 112.936 175.928C112.624 176.064 112.292 176.132 111.94 176.132ZM117.467 176V169.628H119.291L119.375 171.704L119.015 171.308C119.111 170.964 119.267 170.656 119.483 170.384C119.707 170.112 119.967 169.896 120.263 169.736C120.559 169.576 120.875 169.496 121.211 169.496C121.355 169.496 121.487 169.508 121.607 169.532C121.735 169.556 121.851 169.584 121.955 169.616L121.427 171.74C121.339 171.684 121.219 171.64 121.067 171.608C120.923 171.568 120.771 171.548 120.611 171.548C120.435 171.548 120.271 171.58 120.119 171.644C119.967 171.7 119.839 171.784 119.735 171.896C119.631 172.008 119.547 172.14 119.483 172.292C119.427 172.444 119.399 172.616 119.399 172.808V176H117.467ZM125.455 176.12C124.839 176.12 124.287 175.976 123.799 175.688C123.311 175.4 122.923 175.008 122.635 174.512C122.355 174.008 122.215 173.44 122.215 172.808C122.215 172.176 122.355 171.612 122.635 171.116C122.923 170.612 123.311 170.216 123.799 169.928C124.287 169.64 124.839 169.496 125.455 169.496C126.023 169.496 126.543 169.596 127.015 169.796C127.495 169.996 127.875 170.276 128.155 170.636L127.111 171.884C126.999 171.756 126.867 171.636 126.715 171.524C126.563 171.412 126.395 171.324 126.211 171.26C126.027 171.196 125.835 171.164 125.635 171.164C125.331 171.164 125.063 171.236 124.831 171.38C124.599 171.516 124.419 171.708 124.291 171.956C124.163 172.204 124.099 172.488 124.099 172.808C124.099 173.112 124.163 173.388 124.291 173.636C124.427 173.884 124.611 174.08 124.843 174.224C125.075 174.368 125.339 174.44 125.635 174.44C125.843 174.44 126.035 174.416 126.211 174.368C126.387 174.312 126.547 174.232 126.691 174.128C126.843 174.024 126.983 173.896 127.111 173.744L128.143 175.004C127.871 175.348 127.491 175.62 127.003 175.82C126.523 176.02 126.007 176.12 125.455 176.12ZM132.234 176.12C131.53 176.12 130.918 175.98 130.398 175.7C129.878 175.412 129.474 175.024 129.186 174.536C128.898 174.04 128.754 173.476 128.754 172.844C128.754 172.356 128.834 171.908 128.994 171.5C129.154 171.092 129.378 170.74 129.666 170.444C129.954 170.14 130.294 169.908 130.686 169.748C131.086 169.58 131.522 169.496 131.994 169.496C132.442 169.496 132.85 169.576 133.218 169.736C133.594 169.896 133.918 170.12 134.19 170.408C134.462 170.696 134.67 171.036 134.814 171.428C134.958 171.82 135.022 172.248 135.006 172.712L134.994 173.228H129.918L129.642 172.148H133.434L133.23 172.376V172.136C133.214 171.936 133.15 171.76 133.038 171.608C132.934 171.448 132.794 171.324 132.618 171.236C132.442 171.148 132.242 171.104 132.018 171.104C131.706 171.104 131.438 171.168 131.214 171.296C130.998 171.416 130.834 171.596 130.722 171.836C130.61 172.068 130.554 172.356 130.554 172.7C130.554 173.052 130.626 173.36 130.77 173.624C130.922 173.88 131.138 174.08 131.418 174.224C131.706 174.368 132.046 174.44 132.438 174.44C132.71 174.44 132.95 174.4 133.158 174.32C133.374 174.24 133.606 174.104 133.854 173.912L134.754 175.184C134.506 175.4 134.242 175.576 133.962 175.712C133.682 175.848 133.394 175.948 133.098 176.012C132.81 176.084 132.522 176.12 132.234 176.12ZM93.8881 191L91.2241 184.628H93.3481L94.9321 189.392L94.4641 189.44L96.0961 184.628H98.1961L95.4001 191H93.8881ZM102.058 191.12C101.354 191.12 100.742 190.98 100.222 190.7C99.7019 190.412 99.2979 190.024 99.0099 189.536C98.7219 189.04 98.5779 188.476 98.5779 187.844C98.5779 187.356 98.6579 186.908 98.8179 186.5C98.9779 186.092 99.2019 185.74 99.4899 185.444C99.7779 185.14 100.118 184.908 100.51 184.748C100.91 184.58 101.346 184.496 101.818 184.496C102.266 184.496 102.674 184.576 103.042 184.736C103.418 184.896 103.742 185.12 104.014 185.408C104.286 185.696 104.494 186.036 104.638 186.428C104.782 186.82 104.846 187.248 104.83 187.712L104.818 188.228H99.7419L99.4659 187.148H103.258L103.054 187.376V187.136C103.038 186.936 102.974 186.76 102.862 186.608C102.758 186.448 102.618 186.324 102.442 186.236C102.266 186.148 102.066 186.104 101.842 186.104C101.53 186.104 101.262 186.168 101.038 186.296C100.822 186.416 100.658 186.596 100.546 186.836C100.434 187.068 100.378 187.356 100.378 187.7C100.378 188.052 100.45 188.36 100.594 188.624C100.746 188.88 100.962 189.08 101.242 189.224C101.53 189.368 101.87 189.44 102.262 189.44C102.534 189.44 102.774 189.4 102.982 189.32C103.198 189.24 103.43 189.104 103.678 188.912L104.578 190.184C104.33 190.4 104.066 190.576 103.786 190.712C103.506 190.848 103.218 190.948 102.922 191.012C102.634 191.084 102.346 191.12 102.058 191.12ZM106.053 191V184.628H107.877L107.961 186.704L107.601 186.308C107.697 185.964 107.853 185.656 108.069 185.384C108.293 185.112 108.553 184.896 108.849 184.736C109.145 184.576 109.461 184.496 109.797 184.496C109.941 184.496 110.073 184.508 110.193 184.532C110.321 184.556 110.437 184.584 110.541 184.616L110.013 186.74C109.925 186.684 109.805 186.64 109.653 186.608C109.509 186.568 109.357 186.548 109.197 186.548C109.021 186.548 108.857 186.58 108.705 186.644C108.553 186.7 108.425 186.784 108.321 186.896C108.217 187.008 108.133 187.14 108.069 187.292C108.013 187.444 107.985 187.616 107.985 187.808V191H106.053ZM111.622 191V184.628H113.542V191H111.622ZM112.582 183.368C112.222 183.368 111.938 183.284 111.73 183.116C111.53 182.94 111.43 182.692 111.43 182.372C111.43 182.084 111.534 181.848 111.742 181.664C111.95 181.48 112.23 181.388 112.582 181.388C112.942 181.388 113.222 181.476 113.422 181.652C113.622 181.82 113.722 182.06 113.722 182.372C113.722 182.668 113.618 182.908 113.41 183.092C113.21 183.276 112.934 183.368 112.582 183.368ZM115.742 191V184.316C115.742 183.9 115.83 183.524 116.006 183.188C116.19 182.852 116.442 182.588 116.762 182.396C117.09 182.196 117.47 182.096 117.902 182.096C118.206 182.096 118.486 182.14 118.742 182.228C118.998 182.316 119.226 182.44 119.426 182.6L118.874 184.004C118.77 183.948 118.67 183.904 118.574 183.872C118.478 183.84 118.39 183.824 118.31 183.824C118.166 183.824 118.046 183.848 117.95 183.896C117.854 183.944 117.782 184.02 117.734 184.124C117.694 184.22 117.674 184.34 117.674 184.484V191H116.714C116.498 191 116.306 191 116.138 191C115.978 191 115.846 191 115.742 191ZM114.818 186.392V184.808H118.982V186.392H114.818ZM120.17 191V184.628H122.09V191H120.17ZM121.13 183.368C120.77 183.368 120.486 183.284 120.278 183.116C120.078 182.94 119.978 182.692 119.978 182.372C119.978 182.084 120.082 181.848 120.29 181.664C120.498 181.48 120.778 181.388 121.13 181.388C121.49 181.388 121.77 181.476 121.97 181.652C122.17 181.82 122.27 182.06 122.27 182.372C122.27 182.668 122.166 182.908 121.958 183.092C121.758 183.276 121.482 183.368 121.13 183.368ZM126.925 191.12C126.221 191.12 125.609 190.98 125.089 190.7C124.569 190.412 124.165 190.024 123.877 189.536C123.589 189.04 123.445 188.476 123.445 187.844C123.445 187.356 123.525 186.908 123.685 186.5C123.845 186.092 124.069 185.74 124.357 185.444C124.645 185.14 124.985 184.908 125.377 184.748C125.777 184.58 126.213 184.496 126.685 184.496C127.133 184.496 127.541 184.576 127.909 184.736C128.285 184.896 128.609 185.12 128.881 185.408C129.153 185.696 129.361 186.036 129.505 186.428C129.649 186.82 129.713 187.248 129.697 187.712L129.685 188.228H124.609L124.333 187.148H128.125L127.921 187.376V187.136C127.905 186.936 127.841 186.76 127.729 186.608C127.625 186.448 127.485 186.324 127.309 186.236C127.133 186.148 126.933 186.104 126.709 186.104C126.397 186.104 126.129 186.168 125.905 186.296C125.689 186.416 125.525 186.596 125.413 186.836C125.301 187.068 125.245 187.356 125.245 187.7C125.245 188.052 125.317 188.36 125.461 188.624C125.613 188.88 125.829 189.08 126.109 189.224C126.397 189.368 126.737 189.44 127.129 189.44C127.401 189.44 127.641 189.4 127.849 189.32C128.065 189.24 128.297 189.104 128.545 188.912L129.445 190.184C129.197 190.4 128.933 190.576 128.653 190.712C128.373 190.848 128.085 190.948 127.789 191.012C127.501 191.084 127.213 191.12 126.925 191.12ZM133.332 191.132C132.78 191.132 132.288 190.992 131.856 190.712C131.432 190.424 131.096 190.032 130.848 189.536C130.6 189.032 130.476 188.46 130.476 187.82C130.476 187.18 130.6 186.612 130.848 186.116C131.096 185.612 131.436 185.216 131.868 184.928C132.3 184.64 132.796 184.496 133.356 184.496C133.644 184.496 133.92 184.54 134.184 184.628C134.448 184.716 134.688 184.836 134.904 184.988C135.12 185.14 135.296 185.316 135.432 185.516C135.568 185.708 135.648 185.908 135.672 186.116L135.216 186.224V182.12H137.148V191H135.36L135.252 189.548L135.636 189.608C135.612 189.808 135.532 190 135.396 190.184C135.268 190.368 135.1 190.532 134.892 190.676C134.684 190.812 134.444 190.92 134.172 191C133.908 191.088 133.628 191.132 133.332 191.132ZM133.824 189.536C134.12 189.536 134.376 189.464 134.592 189.32C134.808 189.176 134.972 188.976 135.084 188.72C135.204 188.464 135.264 188.164 135.264 187.82C135.264 187.468 135.204 187.164 135.084 186.908C134.972 186.652 134.808 186.452 134.592 186.308C134.376 186.164 134.12 186.092 133.824 186.092C133.528 186.092 133.272 186.164 133.056 186.308C132.848 186.452 132.684 186.652 132.564 186.908C132.444 187.164 132.384 187.468 132.384 187.82C132.384 188.164 132.444 188.464 132.564 188.72C132.684 188.976 132.848 189.176 133.056 189.32C133.272 189.464 133.528 189.536 133.824 189.536Z" fill="#3253D1"/>
</g>
<defs>
<linearGradient id="paint0_linear_1006_3984" x1="102.426" y1="53.7358" x2="102.426" y2="117.253" gradientUnits="userSpaceOnUse">
<stop stop-color="#AEAEFF"/>
<stop offset="1" stop-color="white" stop-opacity="0.8"/>
</linearGradient>
<clipPath id="clip0_1006_3984">
<rect width="217" height="210" fill="white"/>
</clipPath>
<clipPath id="clip1_1006_3984">
<rect width="26.7661" height="33.5638" fill="white" transform="translate(84.23 50.7632)"/>
</clipPath>
</defs>
</svg>
