<svg width="217" height="210" viewBox="0 0 217 210" fill="none" xmlns="http://www.w3.org/2000/svg">
<g clip-path="url(#clip0_1006_3640)">
<g clip-path="url(#clip1_1006_3640)">
<path d="M88.9043 20.7441H180.644H186.14C192.176 20.7441 197.069 25.6372 197.069 31.6731V37.2099V45.8808H198.162V67.4655H197.069V71.5639V73.2032H198.162V83.859H197.069V214.721V227.364V228.395C197.069 234.431 192.176 239.324 186.14 239.324H182.683H92.0157H85.8055C78.4455 239.324 72.4792 233.357 72.4796 225.997V222.286V222.226V84.1322H71.1128V60.6349H72.4796V37.2099V31.6731C72.4796 25.6372 77.3726 20.7441 83.4085 20.7441H88.9043Z" fill="#E9EEF5" stroke="#03092D" stroke-linecap="round" stroke-linejoin="round"/>
<path d="M134.772 30.4587C133.632 30.4587 132.708 29.5344 132.708 28.3941C132.708 27.2539 133.632 26.3296 134.772 26.3296C135.912 26.3296 136.837 27.2539 136.837 28.3941C136.837 29.5344 135.912 30.4587 134.772 30.4587Z" fill="#03092D"/>
<path d="M192.697 40.9228V211.333V223.471V226.755C192.697 231.282 189.027 234.952 184.5 234.952H179.32H95.0154H85.0468C80.5197 234.952 76.8499 231.282 76.8501 226.755L76.8503 222.158V218.596V218.539V40.9228V33.3125C76.8503 28.7855 80.5201 25.1157 85.047 25.1157H92.1224H111.335C112.841 25.1157 114.061 26.3363 114.061 27.8419C114.061 32.3587 117.723 36.0204 122.24 36.0204H147.07C151.587 36.0204 155.248 32.3587 155.248 27.8419C155.248 26.3363 156.469 25.1157 157.975 25.1157H177.425H184.5C189.027 25.1157 192.697 28.7855 192.697 33.3125V40.9228Z" fill="#FAFAFA" stroke="#03092D" stroke-linecap="round" stroke-linejoin="round"/>
<path d="M101.658 83.4566L101.435 81.3091L101.284 77.2744C101.225 75.698 102.46 74.3748 104.037 74.3245L111.488 74.0876L111.528 74.0855C111.541 74.0845 111.563 74.0831 111.59 74.0812C111.645 74.0775 111.725 74.0719 111.83 74.0647C112.039 74.0503 112.343 74.0295 112.723 74.0032C113.483 73.9507 114.547 73.8762 115.762 73.7912C118.191 73.6212 121.223 73.4071 123.635 73.228C124.717 73.1476 125.674 73.1086 126.639 73.0696C127.602 73.0306 128.574 72.9915 129.676 72.9114C131.939 72.7467 133.195 72.727 135.484 72.607L144.211 72.1496C145.542 72.0799 146.678 73.1022 146.747 74.4331L146.957 78.4315C146.957 78.4403 146.957 78.4535 146.958 78.4706C146.959 78.5048 146.961 78.5557 146.963 78.6209C146.967 78.7514 146.974 78.9409 146.983 79.1773C147.001 79.6503 147.028 80.3113 147.062 81.0634C147.129 82.5662 147.227 84.4403 147.349 85.9047C147.407 86.608 147.425 87.1569 147.443 87.7166C147.462 88.277 147.48 88.8482 147.541 89.5793C147.672 91.1332 147.667 91.9812 147.75 93.5729L147.967 97.699C148.051 99.3013 146.792 100.661 145.18 100.716C144.156 100.751 143.064 100.795 142.154 100.846C141.137 100.904 139.84 101 138.799 101.082C138.278 101.123 137.821 101.16 137.493 101.187C137.33 101.2 137.198 101.211 137.108 101.218C137.062 101.222 137.027 101.225 137.003 101.227C136.992 101.228 136.983 101.229 136.977 101.229L125.332 101.84L125.331 101.84L125.33 101.84C125.329 101.84 125.328 101.841 125.326 101.841C125.323 101.841 125.317 101.841 125.311 101.842C125.297 101.843 125.276 101.845 125.248 101.847C125.193 101.851 125.111 101.859 125.006 101.867C124.795 101.885 124.488 101.909 124.105 101.94C123.339 102.002 122.269 102.087 121.051 102.179C118.613 102.364 115.586 102.578 113.222 102.698C110.812 102.82 107.647 102.917 105.306 102.98C103.779 103.021 102.502 101.841 102.419 100.315C102.332 98.7147 102.233 96.8058 102.168 95.2958C102.113 94.0147 102.054 92.3728 102.01 91.0502C101.988 90.3892 101.969 89.8082 101.956 89.3925C101.95 89.1847 101.944 89.018 101.94 88.9034C101.939 88.8462 101.937 88.8016 101.936 88.7716C101.936 88.7571 101.936 88.746 101.936 88.7384L101.66 83.482C101.66 83.4735 101.659 83.465 101.658 83.4566Z" fill="white" stroke="#03092D" stroke-linecap="round" stroke-linejoin="round"/>
<path d="M128.385 84.9639C128.385 84.9639 130.72 84.9024 133.101 84.7776C135.482 84.6528 140.58 84.3248 140.58 84.3248" stroke="#03092D" stroke-linecap="round" stroke-linejoin="round"/>
<path d="M128.569 89.7705C128.569 89.7705 129.944 89.6984 131.199 89.6327C132.151 89.5828 134.22 89.4743 134.22 89.4743" stroke="#03092D" stroke-linecap="round" stroke-linejoin="round"/>
<path d="M122.719 80.1731C123.288 80.1604 123.761 80.6069 123.782 81.1754L124.021 87.7188L124.021 87.7344L124.479 94.4755C124.519 95.0553 124.076 95.5557 123.495 95.5862L110.053 96.2907C109.499 96.3195 109.023 95.9103 108.97 95.3626C108.804 93.6466 108.541 90.7709 108.431 88.6717C108.32 86.5534 108.281 83.6322 108.268 81.9142C108.263 81.3769 108.674 80.9265 109.215 80.8808L115.749 80.3281L122.719 80.1731Z" fill="#3449FC" stroke="#03092D"/>
<g clip-path="url(#clip2_1006_3640)">
<path d="M116.69 91.0852L115.322 90.7812L115.259 89.5822L114.739 88.2568L114.285 86.7777L114.226 85.6536L114.783 84.7978L116.913 83.8596L117.82 82.5346L120.135 83.6907L120.79 84.7085L120.655 86.4439L120.383 88.4119L118.88 89.8433L117.558 90.4386L117.578 90.8133L116.69 91.0852Z" fill="#FFCEB6"/>
<path d="M115.419 90.1318C115.409 89.9422 116.825 91.1491 117.618 90.5063L117.638 90.8811L116.353 91.1341L115.48 90.7995C115.337 90.4564 115.431 90.3566 115.419 90.1318Z" fill="#F9AC8A"/>
<path d="M118 91.0005C118.083 91.1464 120.768 91.6929 121 92.0005C122.736 94.3027 122.5 96.0005 122.5 96.0005L114.5 96.5006C114.058 95.2462 113.5 92.5005 114.447 91.2779L115.255 90.935L116.245 91.1837L118 91.0005Z" fill="#E1F0FF"/>
<path d="M120.713 85.1369C120.884 85.2554 121.283 85.475 121.511 85.405C121.363 85.3403 121.427 84.9415 121.549 84.7509C121.884 84.2261 121.85 83.5757 121.85 83.5757C121.817 83.4084 121.686 83.222 121.382 82.9481C121.092 82.6873 121.306 81.5027 118.617 81.3538C117.826 81.3513 116.717 80.6369 114.981 82.3094C114.614 82.6626 114.396 83.1393 114.297 83.6387C114.185 84.2087 114.06 84.8839 114.069 85.1429C114.082 85.5066 114.195 85.8045 114.223 86.0044C114.248 85.6447 114.336 85.2935 114.826 85.1033C116.002 84.6468 116.405 84.9344 117.494 83.4618C118.252 82.4366 119.435 83.5816 119.628 84.0545C119.863 83.9215 120.922 83.8418 120.713 85.1369Z" fill="#4B4D59"/>
<path d="M117.573 90.4666L117.581 90.0663C117.377 90.062 117.202 90.2131 117.176 90.4164L117.573 90.4666ZM119.057 89.7367L119.277 90.071L119.282 90.0678L119.057 89.7367ZM119.89 89.0408L120.191 89.3043V89.3043L119.89 89.0408ZM120.491 88.0673L120.146 87.8635L120.138 87.8782L120.13 87.8935L120.491 88.0673ZM120.713 85.1369L120.317 85.0732C120.312 85.1079 120.311 85.1432 120.314 85.1782L120.713 85.1369ZM115.038 89.1452L114.676 89.3152L114.676 89.3152L115.038 89.1452ZM115.321 90.0825L115.714 90.0067L115.714 90.0066L115.321 90.0825ZM115.324 90.8189L114.953 90.6675C114.876 90.8561 114.953 91.0726 115.132 91.1703L115.324 90.8189ZM121.511 85.405L121.628 85.7878C121.788 85.7387 121.901 85.5951 121.911 85.4278C121.92 85.2606 121.824 85.105 121.671 85.0381L121.511 85.405ZM121.549 84.7509L121.887 84.9663V84.9663L121.549 84.7509ZM121.85 83.5757L122.25 83.5548C122.249 83.5359 122.246 83.517 122.243 83.4985L121.85 83.5757ZM121.382 82.9481L121.65 82.6505L121.65 82.6505L121.382 82.9481ZM118.617 81.3538L118.639 80.9541C118.633 80.9537 118.626 80.9535 118.619 80.9535L118.617 81.3538ZM114.981 82.3094L115.259 82.5977V82.5977L114.981 82.3094ZM114.297 83.6387L114.69 83.7164L114.69 83.7164L114.297 83.6387ZM114.069 85.1429L114.469 85.1288L114.069 85.1429ZM114.223 86.0044L114.623 86.032V86.032L114.223 86.0044ZM114.826 85.1033L114.681 84.73V84.73L114.826 85.1033ZM117.494 83.4618L117.816 83.6998V83.6998L117.494 83.4618ZM119.628 84.0545L119.258 84.2064C119.302 84.3128 119.389 84.3953 119.498 84.4329C119.606 84.4705 119.726 84.4595 119.826 84.4027L119.628 84.0545ZM114.351 87.0157L114.74 86.9237C114.738 86.9137 114.735 86.9038 114.732 86.8939L114.351 87.0157ZM117.592 90.8279L117.813 91.1617C117.988 91.0462 118.044 90.816 117.942 90.6333L117.592 90.8279ZM117.573 90.4666L117.565 90.8669C117.671 90.8691 117.774 90.8454 117.855 90.8213C117.942 90.7956 118.032 90.7607 118.119 90.7228C118.293 90.6469 118.48 90.548 118.648 90.4533C118.818 90.3577 118.974 90.2625 119.088 90.1914C119.145 90.1558 119.192 90.126 119.225 90.105C119.241 90.0945 119.254 90.0861 119.263 90.0803C119.267 90.0774 119.271 90.0752 119.273 90.0736C119.274 90.0728 119.275 90.0722 119.276 90.0717C119.276 90.0715 119.276 90.0713 119.277 90.0712C119.277 90.0711 119.277 90.0711 119.277 90.071C119.277 90.071 119.277 90.071 119.277 90.071C119.277 90.0709 119.277 90.0709 119.057 89.7367C118.836 89.4024 118.836 89.4024 118.836 89.4024C118.836 89.4024 118.836 89.4024 118.836 89.4024C118.836 89.4024 118.836 89.4024 118.836 89.4024C118.836 89.4025 118.836 89.4026 118.836 89.4027C118.836 89.4029 118.835 89.4034 118.834 89.404C118.832 89.4052 118.829 89.4071 118.825 89.4096C118.818 89.4146 118.806 89.4221 118.791 89.4317C118.761 89.451 118.718 89.4788 118.664 89.5122C118.557 89.5792 118.411 89.6679 118.255 89.7558C118.098 89.8445 117.937 89.9285 117.799 89.9888C117.73 90.0189 117.672 90.0404 117.628 90.0536C117.578 90.0684 117.566 90.066 117.581 90.0663L117.573 90.4666ZM119.057 89.7367C119.282 90.0678 119.282 90.0677 119.282 90.0677C119.282 90.0677 119.282 90.0677 119.282 90.0677C119.282 90.0676 119.282 90.0676 119.282 90.0676C119.282 90.0675 119.282 90.0673 119.283 90.0672C119.283 90.0669 119.284 90.0666 119.284 90.0661C119.286 90.0652 119.287 90.0639 119.29 90.0623C119.294 90.059 119.301 90.0544 119.31 90.0485C119.327 90.0366 119.351 90.0197 119.381 89.9984C119.44 89.9559 119.522 89.8959 119.613 89.8252C119.791 89.6883 120.025 89.4947 120.191 89.3043L119.89 89.0408L119.588 88.7773C119.476 88.9061 119.293 89.0604 119.124 89.1917C119.042 89.2551 118.968 89.3091 118.915 89.3473C118.888 89.3663 118.867 89.3812 118.852 89.3912C118.845 89.3963 118.84 89.4 118.836 89.4024C118.834 89.4037 118.833 89.4045 118.832 89.4051C118.832 89.4053 118.832 89.4055 118.832 89.4056C118.832 89.4056 118.831 89.4056 118.831 89.4056C118.831 89.4056 118.832 89.4056 118.832 89.4056C118.832 89.4056 118.832 89.4056 118.832 89.4056C118.832 89.4056 118.832 89.4056 119.057 89.7367ZM119.89 89.0408L120.191 89.3043C120.367 89.1036 120.533 88.8301 120.649 88.6245C120.709 88.5184 120.759 88.4235 120.794 88.355C120.812 88.3207 120.826 88.2929 120.836 88.2733C120.841 88.2635 120.844 88.2558 120.847 88.2503C120.848 88.2476 120.849 88.2455 120.85 88.2439C120.851 88.2431 120.851 88.2425 120.851 88.2421C120.851 88.2418 120.851 88.2416 120.851 88.2415C120.851 88.2414 120.851 88.2413 120.852 88.2413C120.852 88.2412 120.852 88.2412 120.852 88.2412C120.852 88.2411 120.852 88.2411 120.491 88.0673C120.13 87.8935 120.13 87.8934 120.13 87.8934C120.13 87.8934 120.13 87.8934 120.13 87.8934C120.13 87.8933 120.13 87.8933 120.13 87.8933C120.13 87.8933 120.13 87.8934 120.13 87.8934C120.13 87.8936 120.13 87.8939 120.13 87.8943C120.129 87.8952 120.129 87.8967 120.128 87.8987C120.126 87.9028 120.123 87.9091 120.119 87.9174C120.11 87.9339 120.098 87.9585 120.082 87.9892C120.051 88.0507 120.006 88.1361 119.952 88.2312C119.841 88.4284 119.707 88.6417 119.588 88.7773L119.89 89.0408ZM120.491 88.0673C120.836 88.271 120.836 88.2708 120.836 88.2705C120.836 88.2704 120.836 88.2702 120.836 88.27C120.836 88.2696 120.837 88.2693 120.837 88.2689C120.837 88.2681 120.838 88.2673 120.838 88.2665C120.839 88.2648 120.84 88.2629 120.841 88.2608C120.844 88.2566 120.847 88.2516 120.85 88.2459C120.856 88.2343 120.863 88.2197 120.872 88.2017C120.889 88.1657 120.91 88.1165 120.933 88.0528C120.98 87.9255 121.034 87.7408 121.08 87.489C121.171 86.9855 121.227 86.2145 121.111 85.0957L120.713 85.1369L120.314 85.1782C120.424 86.234 120.368 86.9281 120.292 87.3461C120.254 87.5551 120.211 87.6953 120.181 87.7776C120.166 87.8188 120.154 87.8456 120.148 87.8594C120.144 87.8664 120.143 87.87 120.142 87.8707C120.142 87.871 120.142 87.8705 120.143 87.8693C120.143 87.8687 120.144 87.8679 120.144 87.867C120.145 87.8665 120.145 87.866 120.145 87.8654C120.145 87.8651 120.146 87.8648 120.146 87.8645C120.146 87.8643 120.146 87.8641 120.146 87.864C120.146 87.8638 120.146 87.8635 120.491 88.0673ZM115.038 89.1452C114.676 89.3152 114.676 89.3152 114.676 89.3151C114.676 89.3151 114.676 89.315 114.676 89.315C114.675 89.3149 114.675 89.3149 114.675 89.3148C114.675 89.3147 114.675 89.3146 114.675 89.3145C114.675 89.3143 114.675 89.3143 114.675 89.3143C114.675 89.3143 114.675 89.3147 114.676 89.3155C114.676 89.3169 114.678 89.3198 114.679 89.3239C114.683 89.3322 114.689 89.3458 114.697 89.3644C114.712 89.4016 114.734 89.4585 114.76 89.5326C114.812 89.6809 114.877 89.8964 114.928 90.1584L115.321 90.0825L115.714 90.0066C115.655 89.7001 115.578 89.4468 115.516 89.2687C115.485 89.1795 115.457 89.1086 115.437 89.0589C115.427 89.034 115.418 89.0144 115.412 89.0003C115.409 88.9933 115.406 88.9876 115.404 88.9834C115.403 88.9813 115.403 88.9796 115.402 88.9782C115.402 88.9775 115.401 88.9769 115.401 88.9764C115.401 88.9761 115.401 88.9759 115.401 88.9757C115.401 88.9755 115.401 88.9754 115.401 88.9754C115.401 88.9753 115.401 88.9752 115.401 88.9752C115.401 88.9752 115.4 88.9751 115.038 89.1452ZM115.321 90.0825L114.928 90.1583C115.007 90.5667 114.96 90.65 114.953 90.6675L115.324 90.8189L115.694 90.9704C115.784 90.7509 115.808 90.4916 115.714 90.0067L115.321 90.0825ZM120.713 85.1369L120.485 85.466C120.589 85.5384 120.757 85.6383 120.939 85.7124C121.031 85.7497 121.136 85.7846 121.245 85.8037C121.351 85.8221 121.488 85.8308 121.628 85.7878L121.511 85.405L121.394 85.0222C121.42 85.0143 121.422 85.0217 121.383 85.0149C121.348 85.0088 121.3 84.9946 121.241 84.9709C121.124 84.9231 121.007 84.854 120.941 84.8079L120.713 85.1369ZM121.511 85.405L121.671 85.0381C121.794 85.0919 121.823 85.194 121.825 85.2015C121.828 85.2142 121.823 85.2038 121.827 85.1642C121.831 85.1288 121.839 85.0869 121.852 85.0465C121.866 85.0046 121.879 84.9775 121.887 84.9663L121.549 84.7509L121.212 84.5356C121.11 84.6942 121.048 84.905 121.03 85.0862C121.021 85.1782 121.021 85.2916 121.05 85.4032C121.077 85.5096 121.153 85.6858 121.351 85.772L121.511 85.405ZM121.549 84.7509L121.887 84.9663C122.095 84.6388 122.183 84.284 122.221 84.0244C122.24 83.8924 122.248 83.779 122.25 83.6973C122.251 83.6564 122.251 83.623 122.251 83.5988C122.251 83.5867 122.25 83.5768 122.25 83.5694C122.25 83.5657 122.25 83.5627 122.25 83.5602C122.25 83.559 122.25 83.5579 122.25 83.557C122.25 83.5566 122.25 83.5561 122.25 83.5558C122.25 83.5556 122.25 83.5554 122.25 83.5553C122.25 83.5552 122.25 83.5551 122.25 83.555C122.25 83.5549 122.25 83.5548 121.85 83.5757C121.45 83.5967 121.45 83.5966 121.45 83.5965C121.45 83.5965 121.45 83.5964 121.45 83.5963C121.45 83.5962 121.45 83.596 121.45 83.5959C121.45 83.5957 121.45 83.5956 121.45 83.5954C121.45 83.5951 121.45 83.595 121.45 83.595C121.45 83.5951 121.45 83.5957 121.45 83.5969C121.45 83.5993 121.45 83.6039 121.45 83.6106C121.45 83.624 121.451 83.6456 121.45 83.6738C121.448 83.7305 121.443 83.8125 121.429 83.9087C121.4 84.1055 121.337 84.3383 121.212 84.5356L121.549 84.7509ZM121.85 83.5757L122.243 83.4985C122.182 83.1927 121.961 82.9304 121.65 82.6505L121.382 82.9481L121.114 83.2456C121.412 83.5136 121.451 83.624 121.457 83.653L121.85 83.5757ZM121.382 82.9481L121.65 82.6505C121.674 82.6726 121.674 82.6848 121.653 82.6404C121.63 82.5928 121.614 82.5488 121.575 82.4556C121.506 82.2888 121.4 82.0621 121.194 81.8383C120.776 81.3825 120.036 81.0314 118.639 80.9541L118.617 81.3538L118.595 81.7536C119.888 81.8252 120.385 82.1409 120.605 82.3797C120.718 82.5033 120.781 82.6309 120.837 82.7642C120.86 82.8211 120.896 82.9135 120.928 82.9813C120.962 83.0521 121.017 83.1583 121.114 83.2456L121.382 82.9481ZM118.617 81.3538L118.619 80.9535C118.464 80.953 118.294 80.9176 118.026 80.8722C117.777 80.8297 117.475 80.7863 117.133 80.8037C116.428 80.8395 115.629 81.1292 114.703 82.021L114.981 82.3094L115.259 82.5977C116.069 81.8171 116.692 81.6278 117.174 81.6033C117.425 81.5905 117.657 81.6217 117.892 81.6616C118.11 81.6985 118.375 81.7534 118.616 81.7542L118.617 81.3538ZM114.297 83.6387L113.905 83.5611C113.848 83.8471 113.788 84.1639 113.743 84.4435C113.699 84.7094 113.663 84.9817 113.669 85.157L114.069 85.1429L114.469 85.1288C114.466 85.0451 114.488 84.8503 114.533 84.5714C114.576 84.3061 114.634 84.0003 114.69 83.7164L114.297 83.6387ZM114.069 85.1429L113.669 85.157C113.677 85.3755 113.714 85.569 113.75 85.7247C113.791 85.9014 113.816 85.9829 113.827 86.0615L114.223 86.0044L114.62 85.9474C114.602 85.826 114.557 85.6586 114.531 85.5454C114.5 85.4113 114.475 85.274 114.469 85.1288L114.069 85.1429ZM114.826 85.1033L114.971 85.4765C115.244 85.3705 115.473 85.3074 115.692 85.2475C115.906 85.1888 116.131 85.1286 116.354 85.0299C116.827 84.8216 117.25 84.465 117.816 83.6998L117.494 83.4618L117.172 83.2239C116.649 83.9312 116.326 84.1672 116.031 84.2973C115.871 84.3678 115.706 84.4134 115.481 84.4751C115.259 84.5356 114.996 84.6078 114.681 84.73L114.826 85.1033ZM117.494 83.4618L117.816 83.6998C117.95 83.5183 118.074 83.4654 118.173 83.4523C118.285 83.4373 118.425 83.4662 118.587 83.551C118.747 83.635 118.903 83.7606 119.03 83.894C119.161 84.0323 119.235 84.1512 119.258 84.2064L119.628 84.0545L119.999 83.9027C119.925 83.7214 119.779 83.5198 119.61 83.3424C119.437 83.1602 119.213 82.975 118.958 82.8417C118.706 82.7094 118.396 82.6146 118.067 82.6586C117.725 82.7043 117.417 82.8928 117.172 83.2239L117.494 83.4618ZM119.628 84.0545L119.826 84.4027C119.811 84.4111 119.853 84.3895 119.945 84.3853C120.027 84.3815 120.107 84.3944 120.167 84.4228C120.22 84.4474 120.264 84.4854 120.296 84.5596C120.331 84.6418 120.362 84.798 120.317 85.0732L120.713 85.1369L121.108 85.2007C121.168 84.8284 121.145 84.5088 121.033 84.2458C120.917 83.9748 120.722 83.7983 120.507 83.6975C120.299 83.6006 120.083 83.5774 119.908 83.5854C119.741 83.5931 119.563 83.6314 119.431 83.7063L119.628 84.0545ZM114.351 87.0157L113.961 87.1077C114.109 87.7362 114.35 88.6219 114.676 89.3152L115.038 89.1452L115.401 88.9751C115.112 88.3606 114.886 87.5422 114.74 86.9237L114.351 87.0157ZM114.826 85.1033L114.681 84.73C114.359 84.8552 114.136 85.0491 114 85.2969C113.87 85.5314 113.838 85.7801 113.824 85.9769L114.223 86.0044L114.623 86.032C114.634 85.869 114.657 85.7623 114.701 85.6837C114.737 85.6184 114.803 85.5416 114.971 85.4765L114.826 85.1033ZM114.223 86.0044L113.824 85.9769C113.803 86.2759 113.841 86.566 113.881 86.7738C113.901 86.8794 113.922 86.9679 113.939 87.0307C113.947 87.0623 113.954 87.0876 113.96 87.1057C113.962 87.1147 113.965 87.122 113.966 87.1273C113.967 87.13 113.968 87.1322 113.968 87.1339C113.969 87.1347 113.969 87.1354 113.969 87.136C113.969 87.1363 113.969 87.1366 113.969 87.1368C113.969 87.137 113.969 87.1371 113.969 87.1372C113.969 87.1372 113.969 87.1373 113.969 87.1373C113.969 87.1374 113.969 87.1375 114.351 87.0157C114.732 86.8939 114.732 86.894 114.732 86.8941C114.732 86.8941 114.732 86.8941 114.732 86.8942C114.732 86.8943 114.732 86.8943 114.732 86.8944C114.732 86.8945 114.732 86.8946 114.732 86.8946C114.732 86.8947 114.732 86.8947 114.732 86.8946C114.732 86.8943 114.732 86.8936 114.732 86.8924C114.731 86.8901 114.73 86.8859 114.728 86.8801C114.725 86.8685 114.719 86.8502 114.713 86.8262C114.7 86.7782 114.683 86.7082 114.667 86.6239C114.635 86.4519 114.609 86.2363 114.623 86.032L114.223 86.0044ZM114.981 82.3094L114.703 82.021C114.264 82.4444 114.015 83.0025 113.905 83.5611L114.297 83.6387L114.69 83.7164C114.777 83.2761 114.965 82.8808 115.259 82.5977L114.981 82.3094ZM117.573 90.4666L117.176 90.4164C117.179 90.3912 117.07 90.7126 117.242 91.0226L117.592 90.8279L117.942 90.6333C117.938 90.6259 117.94 90.6278 117.942 90.6373C117.944 90.6471 117.944 90.6553 117.944 90.658C117.944 90.6586 117.944 90.6571 117.945 90.6523C117.945 90.6472 117.947 90.6404 117.949 90.6288C117.951 90.6196 117.956 90.6009 117.959 90.5845C117.963 90.5664 117.967 90.5431 117.97 90.5168L117.573 90.4666ZM117.592 90.8279L117.371 90.4942C117.117 90.6622 116.866 90.7607 116.587 90.7726C116.307 90.7846 115.96 90.7106 115.516 90.4676L115.324 90.8189L115.132 91.1703C115.671 91.4649 116.162 91.5922 116.621 91.5726C117.082 91.5529 117.473 91.3871 117.813 91.1617L117.592 90.8279Z" fill="url(#paint0_linear_1006_3640)"/>
<path d="M117.573 90.4666L117.581 90.0663C117.377 90.062 117.202 90.2131 117.176 90.4164L117.573 90.4666ZM119.057 89.7367L119.277 90.071L119.282 90.0678L119.057 89.7367ZM119.89 89.0408L120.191 89.3043V89.3043L119.89 89.0408ZM120.491 88.0673L120.146 87.8635L120.138 87.8782L120.13 87.8935L120.491 88.0673ZM120.713 85.1369L120.317 85.0732C120.312 85.1079 120.311 85.1432 120.314 85.1782L120.713 85.1369ZM115.038 89.1452L114.676 89.3152L114.676 89.3152L115.038 89.1452ZM115.321 90.0825L115.714 90.0067L115.714 90.0066L115.321 90.0825ZM115.324 90.8189L114.953 90.6675C114.876 90.8561 114.953 91.0726 115.132 91.1703L115.324 90.8189ZM121.511 85.405L121.628 85.7878C121.788 85.7387 121.901 85.5951 121.911 85.4278C121.92 85.2606 121.824 85.105 121.671 85.0381L121.511 85.405ZM121.549 84.7509L121.887 84.9663V84.9663L121.549 84.7509ZM121.85 83.5757L122.25 83.5548C122.249 83.5359 122.246 83.517 122.243 83.4985L121.85 83.5757ZM121.382 82.9481L121.65 82.6505L121.65 82.6505L121.382 82.9481ZM118.617 81.3538L118.639 80.9541C118.633 80.9537 118.626 80.9535 118.619 80.9535L118.617 81.3538ZM114.981 82.3094L115.259 82.5977V82.5977L114.981 82.3094ZM114.297 83.6387L114.69 83.7164L114.69 83.7164L114.297 83.6387ZM114.069 85.1429L114.469 85.1288L114.069 85.1429ZM114.223 86.0044L114.623 86.032V86.032L114.223 86.0044ZM114.826 85.1033L114.681 84.73V84.73L114.826 85.1033ZM117.494 83.4618L117.816 83.6998V83.6998L117.494 83.4618ZM119.628 84.0545L119.258 84.2064C119.302 84.3128 119.389 84.3953 119.498 84.4329C119.606 84.4705 119.726 84.4595 119.826 84.4027L119.628 84.0545ZM114.351 87.0157L114.74 86.9237C114.738 86.9137 114.735 86.9038 114.732 86.8939L114.351 87.0157ZM117.592 90.8279L117.813 91.1617C117.988 91.0462 118.044 90.816 117.942 90.6333L117.592 90.8279ZM117.573 90.4666L117.565 90.8669C117.671 90.8691 117.774 90.8454 117.855 90.8213C117.942 90.7956 118.032 90.7607 118.119 90.7228C118.293 90.6469 118.48 90.548 118.648 90.4533C118.818 90.3577 118.974 90.2625 119.088 90.1914C119.145 90.1558 119.192 90.126 119.225 90.105C119.241 90.0945 119.254 90.0861 119.263 90.0803C119.267 90.0774 119.271 90.0752 119.273 90.0736C119.274 90.0728 119.275 90.0722 119.276 90.0717C119.276 90.0715 119.276 90.0713 119.277 90.0712C119.277 90.0711 119.277 90.0711 119.277 90.071C119.277 90.071 119.277 90.071 119.277 90.071C119.277 90.0709 119.277 90.0709 119.057 89.7367C118.836 89.4024 118.836 89.4024 118.836 89.4024C118.836 89.4024 118.836 89.4024 118.836 89.4024C118.836 89.4024 118.836 89.4024 118.836 89.4024C118.836 89.4025 118.836 89.4026 118.836 89.4027C118.836 89.4029 118.835 89.4034 118.834 89.404C118.832 89.4052 118.829 89.4071 118.825 89.4096C118.818 89.4146 118.806 89.4221 118.791 89.4317C118.761 89.451 118.718 89.4788 118.664 89.5122C118.557 89.5792 118.411 89.6679 118.255 89.7558C118.098 89.8445 117.937 89.9285 117.799 89.9888C117.73 90.0189 117.672 90.0404 117.628 90.0536C117.578 90.0684 117.566 90.066 117.581 90.0663L117.573 90.4666ZM119.057 89.7367C119.282 90.0678 119.282 90.0677 119.282 90.0677C119.282 90.0677 119.282 90.0677 119.282 90.0677C119.282 90.0676 119.282 90.0676 119.282 90.0676C119.282 90.0675 119.282 90.0673 119.283 90.0672C119.283 90.0669 119.284 90.0666 119.284 90.0661C119.286 90.0652 119.287 90.0639 119.29 90.0623C119.294 90.059 119.301 90.0544 119.31 90.0485C119.327 90.0366 119.351 90.0197 119.381 89.9984C119.44 89.9559 119.522 89.8959 119.613 89.8252C119.791 89.6883 120.025 89.4947 120.191 89.3043L119.89 89.0408L119.588 88.7773C119.476 88.9061 119.293 89.0604 119.124 89.1917C119.042 89.2551 118.968 89.3091 118.915 89.3473C118.888 89.3663 118.867 89.3812 118.852 89.3912C118.845 89.3963 118.84 89.4 118.836 89.4024C118.834 89.4037 118.833 89.4045 118.832 89.4051C118.832 89.4053 118.832 89.4055 118.832 89.4056C118.832 89.4056 118.831 89.4056 118.831 89.4056C118.831 89.4056 118.832 89.4056 118.832 89.4056C118.832 89.4056 118.832 89.4056 118.832 89.4056C118.832 89.4056 118.832 89.4056 119.057 89.7367ZM119.89 89.0408L120.191 89.3043C120.367 89.1036 120.533 88.8301 120.649 88.6245C120.709 88.5184 120.759 88.4235 120.794 88.355C120.812 88.3207 120.826 88.2929 120.836 88.2733C120.841 88.2635 120.844 88.2558 120.847 88.2503C120.848 88.2476 120.849 88.2455 120.85 88.2439C120.851 88.2431 120.851 88.2425 120.851 88.2421C120.851 88.2418 120.851 88.2416 120.851 88.2415C120.851 88.2414 120.851 88.2413 120.852 88.2413C120.852 88.2412 120.852 88.2412 120.852 88.2412C120.852 88.2411 120.852 88.2411 120.491 88.0673C120.13 87.8935 120.13 87.8934 120.13 87.8934C120.13 87.8934 120.13 87.8934 120.13 87.8934C120.13 87.8933 120.13 87.8933 120.13 87.8933C120.13 87.8933 120.13 87.8934 120.13 87.8934C120.13 87.8936 120.13 87.8939 120.13 87.8943C120.129 87.8952 120.129 87.8967 120.128 87.8987C120.126 87.9028 120.123 87.9091 120.119 87.9174C120.11 87.9339 120.098 87.9585 120.082 87.9892C120.051 88.0507 120.006 88.1361 119.952 88.2312C119.841 88.4284 119.707 88.6417 119.588 88.7773L119.89 89.0408ZM120.491 88.0673C120.836 88.271 120.836 88.2708 120.836 88.2705C120.836 88.2704 120.836 88.2702 120.836 88.27C120.836 88.2696 120.837 88.2693 120.837 88.2689C120.837 88.2681 120.838 88.2673 120.838 88.2665C120.839 88.2648 120.84 88.2629 120.841 88.2608C120.844 88.2566 120.847 88.2516 120.85 88.2459C120.856 88.2343 120.863 88.2197 120.872 88.2017C120.889 88.1657 120.91 88.1165 120.933 88.0528C120.98 87.9255 121.034 87.7408 121.08 87.489C121.171 86.9855 121.227 86.2145 121.111 85.0957L120.713 85.1369L120.314 85.1782C120.424 86.234 120.368 86.9281 120.292 87.3461C120.254 87.5551 120.211 87.6953 120.181 87.7776C120.166 87.8188 120.154 87.8456 120.148 87.8594C120.144 87.8664 120.143 87.87 120.142 87.8707C120.142 87.871 120.142 87.8705 120.143 87.8693C120.143 87.8687 120.144 87.8679 120.144 87.867C120.145 87.8665 120.145 87.866 120.145 87.8654C120.145 87.8651 120.146 87.8648 120.146 87.8645C120.146 87.8643 120.146 87.8641 120.146 87.864C120.146 87.8638 120.146 87.8635 120.491 88.0673ZM115.038 89.1452C114.676 89.3152 114.676 89.3152 114.676 89.3151C114.676 89.3151 114.676 89.315 114.676 89.315C114.675 89.3149 114.675 89.3149 114.675 89.3148C114.675 89.3147 114.675 89.3146 114.675 89.3145C114.675 89.3143 114.675 89.3143 114.675 89.3143C114.675 89.3143 114.675 89.3147 114.676 89.3155C114.676 89.3169 114.678 89.3198 114.679 89.3239C114.683 89.3322 114.689 89.3458 114.697 89.3644C114.712 89.4016 114.734 89.4585 114.76 89.5326C114.812 89.6809 114.877 89.8964 114.928 90.1584L115.321 90.0825L115.714 90.0066C115.655 89.7001 115.578 89.4468 115.516 89.2687C115.485 89.1795 115.457 89.1086 115.437 89.0589C115.427 89.034 115.418 89.0144 115.412 89.0003C115.409 88.9933 115.406 88.9876 115.404 88.9834C115.403 88.9813 115.403 88.9796 115.402 88.9782C115.402 88.9775 115.401 88.9769 115.401 88.9764C115.401 88.9761 115.401 88.9759 115.401 88.9757C115.401 88.9755 115.401 88.9754 115.401 88.9754C115.401 88.9753 115.401 88.9752 115.401 88.9752C115.401 88.9752 115.4 88.9751 115.038 89.1452ZM115.321 90.0825L114.928 90.1583C115.007 90.5667 114.96 90.65 114.953 90.6675L115.324 90.8189L115.694 90.9704C115.784 90.7509 115.808 90.4916 115.714 90.0067L115.321 90.0825ZM120.713 85.1369L120.485 85.466C120.589 85.5384 120.757 85.6383 120.939 85.7124C121.031 85.7497 121.136 85.7846 121.245 85.8037C121.351 85.8221 121.488 85.8308 121.628 85.7878L121.511 85.405L121.394 85.0222C121.42 85.0143 121.422 85.0217 121.383 85.0149C121.348 85.0088 121.3 84.9946 121.241 84.9709C121.124 84.9231 121.007 84.854 120.941 84.8079L120.713 85.1369ZM121.511 85.405L121.671 85.0381C121.794 85.0919 121.823 85.194 121.825 85.2015C121.828 85.2142 121.823 85.2038 121.827 85.1642C121.831 85.1288 121.839 85.0869 121.852 85.0465C121.866 85.0046 121.879 84.9775 121.887 84.9663L121.549 84.7509L121.212 84.5356C121.11 84.6942 121.048 84.905 121.03 85.0862C121.021 85.1782 121.021 85.2916 121.05 85.4032C121.077 85.5096 121.153 85.6858 121.351 85.772L121.511 85.405ZM121.549 84.7509L121.887 84.9663C122.095 84.6388 122.183 84.284 122.221 84.0244C122.24 83.8924 122.248 83.779 122.25 83.6973C122.251 83.6564 122.251 83.623 122.251 83.5988C122.251 83.5867 122.25 83.5768 122.25 83.5694C122.25 83.5657 122.25 83.5627 122.25 83.5602C122.25 83.559 122.25 83.5579 122.25 83.557C122.25 83.5566 122.25 83.5561 122.25 83.5558C122.25 83.5556 122.25 83.5554 122.25 83.5553C122.25 83.5552 122.25 83.5551 122.25 83.555C122.25 83.5549 122.25 83.5548 121.85 83.5757C121.45 83.5967 121.45 83.5966 121.45 83.5965C121.45 83.5965 121.45 83.5964 121.45 83.5963C121.45 83.5962 121.45 83.596 121.45 83.5959C121.45 83.5957 121.45 83.5956 121.45 83.5954C121.45 83.5951 121.45 83.595 121.45 83.595C121.45 83.5951 121.45 83.5957 121.45 83.5969C121.45 83.5993 121.45 83.6039 121.45 83.6106C121.45 83.624 121.451 83.6456 121.45 83.6738C121.448 83.7305 121.443 83.8125 121.429 83.9087C121.4 84.1055 121.337 84.3383 121.212 84.5356L121.549 84.7509ZM121.85 83.5757L122.243 83.4985C122.182 83.1927 121.961 82.9304 121.65 82.6505L121.382 82.9481L121.114 83.2456C121.412 83.5136 121.451 83.624 121.457 83.653L121.85 83.5757ZM121.382 82.9481L121.65 82.6505C121.674 82.6726 121.674 82.6848 121.653 82.6404C121.63 82.5928 121.614 82.5488 121.575 82.4556C121.506 82.2888 121.4 82.0621 121.194 81.8383C120.776 81.3825 120.036 81.0314 118.639 80.9541L118.617 81.3538L118.595 81.7536C119.888 81.8252 120.385 82.1409 120.605 82.3797C120.718 82.5033 120.781 82.6309 120.837 82.7642C120.86 82.8211 120.896 82.9135 120.928 82.9813C120.962 83.0521 121.017 83.1583 121.114 83.2456L121.382 82.9481ZM118.617 81.3538L118.619 80.9535C118.464 80.953 118.294 80.9176 118.026 80.8722C117.777 80.8297 117.475 80.7863 117.133 80.8037C116.428 80.8395 115.629 81.1292 114.703 82.021L114.981 82.3094L115.259 82.5977C116.069 81.8171 116.692 81.6278 117.174 81.6033C117.425 81.5905 117.657 81.6217 117.892 81.6616C118.11 81.6985 118.375 81.7534 118.616 81.7542L118.617 81.3538ZM114.297 83.6387L113.905 83.5611C113.848 83.8471 113.788 84.1639 113.743 84.4435C113.699 84.7094 113.663 84.9817 113.669 85.157L114.069 85.1429L114.469 85.1288C114.466 85.0451 114.488 84.8503 114.533 84.5714C114.576 84.3061 114.634 84.0003 114.69 83.7164L114.297 83.6387ZM114.069 85.1429L113.669 85.157C113.677 85.3755 113.714 85.569 113.75 85.7247C113.791 85.9014 113.816 85.9829 113.827 86.0615L114.223 86.0044L114.62 85.9474C114.602 85.826 114.557 85.6586 114.531 85.5454C114.5 85.4113 114.475 85.274 114.469 85.1288L114.069 85.1429ZM114.826 85.1033L114.971 85.4765C115.244 85.3705 115.473 85.3074 115.692 85.2475C115.906 85.1888 116.131 85.1286 116.354 85.0299C116.827 84.8216 117.25 84.465 117.816 83.6998L117.494 83.4618L117.172 83.2239C116.649 83.9312 116.326 84.1672 116.031 84.2973C115.871 84.3678 115.706 84.4134 115.481 84.4751C115.259 84.5356 114.996 84.6078 114.681 84.73L114.826 85.1033ZM117.494 83.4618L117.816 83.6998C117.95 83.5183 118.074 83.4654 118.173 83.4523C118.285 83.4373 118.425 83.4662 118.587 83.551C118.747 83.635 118.903 83.7606 119.03 83.894C119.161 84.0323 119.235 84.1512 119.258 84.2064L119.628 84.0545L119.999 83.9027C119.925 83.7214 119.779 83.5198 119.61 83.3424C119.437 83.1602 119.213 82.975 118.958 82.8417C118.706 82.7094 118.396 82.6146 118.067 82.6586C117.725 82.7043 117.417 82.8928 117.172 83.2239L117.494 83.4618ZM119.628 84.0545L119.826 84.4027C119.811 84.4111 119.853 84.3895 119.945 84.3853C120.027 84.3815 120.107 84.3944 120.167 84.4228C120.22 84.4474 120.264 84.4854 120.296 84.5596C120.331 84.6418 120.362 84.798 120.317 85.0732L120.713 85.1369L121.108 85.2007C121.168 84.8284 121.145 84.5088 121.033 84.2458C120.917 83.9748 120.722 83.7983 120.507 83.6975C120.299 83.6006 120.083 83.5774 119.908 83.5854C119.741 83.5931 119.563 83.6314 119.431 83.7063L119.628 84.0545ZM114.351 87.0157L113.961 87.1077C114.109 87.7362 114.35 88.6219 114.676 89.3152L115.038 89.1452L115.401 88.9751C115.112 88.3606 114.886 87.5422 114.74 86.9237L114.351 87.0157ZM114.826 85.1033L114.681 84.73C114.359 84.8552 114.136 85.0491 114 85.2969C113.87 85.5314 113.838 85.7801 113.824 85.9769L114.223 86.0044L114.623 86.032C114.634 85.869 114.657 85.7623 114.701 85.6837C114.737 85.6184 114.803 85.5416 114.971 85.4765L114.826 85.1033ZM114.223 86.0044L113.824 85.9769C113.803 86.2759 113.841 86.566 113.881 86.7738C113.901 86.8794 113.922 86.9679 113.939 87.0307C113.947 87.0623 113.954 87.0876 113.96 87.1057C113.962 87.1147 113.965 87.122 113.966 87.1273C113.967 87.13 113.968 87.1322 113.968 87.1339C113.969 87.1347 113.969 87.1354 113.969 87.136C113.969 87.1363 113.969 87.1366 113.969 87.1368C113.969 87.137 113.969 87.1371 113.969 87.1372C113.969 87.1372 113.969 87.1373 113.969 87.1373C113.969 87.1374 113.969 87.1375 114.351 87.0157C114.732 86.8939 114.732 86.894 114.732 86.8941C114.732 86.8941 114.732 86.8941 114.732 86.8942C114.732 86.8943 114.732 86.8943 114.732 86.8944C114.732 86.8945 114.732 86.8946 114.732 86.8946C114.732 86.8947 114.732 86.8947 114.732 86.8946C114.732 86.8943 114.732 86.8936 114.732 86.8924C114.731 86.8901 114.73 86.8859 114.728 86.8801C114.725 86.8685 114.719 86.8502 114.713 86.8262C114.7 86.7782 114.683 86.7082 114.667 86.6239C114.635 86.4519 114.609 86.2363 114.623 86.032L114.223 86.0044ZM114.981 82.3094L114.703 82.021C114.264 82.4444 114.015 83.0025 113.905 83.5611L114.297 83.6387L114.69 83.7164C114.777 83.2761 114.965 82.8808 115.259 82.5977L114.981 82.3094ZM117.573 90.4666L117.176 90.4164C117.179 90.3912 117.07 90.7126 117.242 91.0226L117.592 90.8279L117.942 90.6333C117.938 90.6259 117.94 90.6278 117.942 90.6373C117.944 90.6471 117.944 90.6553 117.944 90.658C117.944 90.6586 117.944 90.6571 117.945 90.6523C117.945 90.6472 117.947 90.6404 117.949 90.6288C117.951 90.6196 117.956 90.6009 117.959 90.5845C117.963 90.5664 117.967 90.5431 117.97 90.5168L117.573 90.4666ZM117.592 90.8279L117.371 90.4942C117.117 90.6622 116.866 90.7607 116.587 90.7726C116.307 90.7846 115.96 90.7106 115.516 90.4676L115.324 90.8189L115.132 91.1703C115.671 91.4649 116.162 91.5922 116.621 91.5726C117.082 91.5529 117.473 91.3871 117.813 91.1617L117.592 90.8279Z" fill="#03092D"/>
<path d="M115.327 90.8562C115.327 90.8562 112.711 91.6496 111.307 92.5018C111.074 92.6429 110.931 92.8879 110.915 93.1594C110.821 94.8438 111.223 97.8681 111.223 97.8681L113.041 96.6134L113.46 96.3016L113.384 94.8568L113.099 93.3483" stroke="#03092D" stroke-width="0.800712" stroke-linecap="round" stroke-linejoin="round"/>
<path d="M117.658 90.7342C117.658 90.7342 119.628 91.2282 121.458 92.2269C121.645 92.3288 121.793 92.4908 121.864 92.6913C122.464 94.378 122.472 97.2786 122.472 97.2786L120.533 96.2209L120.084 95.9545L120.008 94.5098L119.294 92.8967" stroke="#03092D" stroke-width="0.800712" stroke-linecap="round" stroke-linejoin="round"/>
</g>
<path d="M123.594 49.5201C121.27 49.3983 119.287 51.1837 119.165 53.5077L118.646 63.4091C118.379 63.4054 118.154 63.6131 118.14 63.8823L117.714 72.0225C117.7 72.2917 117.901 72.5208 118.168 72.545L115.618 121.196C115.461 124.181 117.754 126.728 120.739 126.884L155.87 128.725C158.194 128.847 160.177 127.061 160.298 124.738L162.916 74.7826C163.139 74.7417 163.313 74.5537 163.325 74.318L163.519 70.6268C163.531 70.3911 163.378 70.186 163.161 70.122L163.214 69.1029C163.436 69.062 163.61 68.874 163.623 68.6383L164.015 61.1603C164.027 60.9248 163.873 60.7204 163.657 60.6565L163.908 55.8526C164.03 53.5287 162.245 51.5459 159.921 51.4239L123.594 49.5201Z" fill="#E9EEF5" fill-opacity="0.7" stroke="#03092D" stroke-linecap="round" stroke-linejoin="round"/>
<path d="M149.582 53.4379C148.795 53.3967 148.123 54.0013 148.082 54.788C148.016 56.0447 146.944 57.0096 145.688 56.944L137.262 56.5024C136.005 56.4365 135.039 55.3647 135.105 54.1079C135.146 53.3212 134.541 52.6496 133.755 52.6084L124.834 52.1409L124.665 52.136C122.927 52.133 121.474 53.4944 121.382 55.2496L117.942 120.892C117.847 122.704 119.238 124.251 121.05 124.346L154.799 126.114C156.611 126.209 158.156 124.817 158.251 123.006L161.692 57.3622C161.787 55.5504 160.395 54.0046 158.583 53.9096L149.582 53.4379Z" fill="white" fill-opacity="0.7" stroke="#03092D" stroke-linecap="round" stroke-linejoin="round"/>
<path d="M138.576 86.1421C139.147 85.8549 139.783 85.7214 140.422 85.7549C141.061 85.7884 141.679 85.9876 142.218 86.333" stroke="#3449FC" stroke-linecap="round" stroke-linejoin="round"/>
<path d="M137.622 84.375C138.522 83.9264 139.523 83.7184 140.527 83.771C141.531 83.8236 142.504 84.1351 143.352 84.6753" stroke="#3449FC" stroke-linecap="round" stroke-linejoin="round"/>
<path d="M136.667 82.6113C137.893 81.992 139.259 81.7036 140.63 81.7746C142.002 81.8456 143.331 82.2736 144.486 83.0161" stroke="#3449FC" stroke-linecap="round" stroke-linejoin="round"/>
<path d="M136.863 88.6795L137.723 88.7246L137.494 93.0878L136.84 93.0535L135.11 90.2877L134.97 92.9555L134.11 92.9104L134.338 88.5472L134.993 88.5815L136.723 91.3411L136.863 88.6795ZM141.095 89.7263L139.349 89.6349L139.295 90.6696L140.991 90.7584L140.947 91.5812L139.252 91.4923L139.164 93.1753L138.304 93.1302L138.532 88.767L141.138 88.9036L141.095 89.7263ZM143.601 93.4953C142.944 93.4609 142.413 93.2143 142.008 92.7556C141.603 92.2968 141.417 91.7475 141.451 91.1076C141.484 90.4635 141.727 89.9365 142.177 89.5268C142.628 89.1129 143.182 88.9232 143.838 88.9576C144.233 88.9783 144.592 89.0908 144.915 89.2953C145.242 89.4957 145.49 89.7588 145.661 90.0844L144.896 90.4756C144.799 90.2746 144.653 90.1149 144.459 89.9964C144.265 89.8738 144.044 89.8059 143.795 89.7928C143.371 89.7706 143.021 89.8856 142.745 90.1379C142.474 90.3903 142.327 90.7285 142.305 91.1523C142.283 91.572 142.393 91.9216 142.637 92.201C142.885 92.4807 143.221 92.6316 143.645 92.6539C143.894 92.6669 144.121 92.6247 144.326 92.5271C144.536 92.4255 144.698 92.2819 144.812 92.0962L145.531 92.5652C145.327 92.8712 145.054 93.109 144.712 93.2786C144.37 93.444 144 93.5162 143.601 93.4953Z" fill="#3449FC"/>
<path d="M142 121.965L134.212 121.557" stroke="#03092D" stroke-linecap="round"/>
<path d="M137.559 54.5286C137.138 54.5065 136.815 54.1477 136.837 53.7271C136.859 53.3065 137.218 52.9835 137.638 53.0055C138.059 53.0275 138.382 53.3864 138.36 53.807C138.338 54.2275 137.979 54.5506 137.559 54.5286Z" fill="#03092D"/>
<path d="M177.291 141.821H91.8886H83.6975C79.7783 141.821 76.6008 144.997 76.5987 148.916V148.92L76.5987 158.561L76.5987 218.097V218.122V219.722L76.5984 226.88C76.5982 231.407 80.2683 235.077 84.7955 235.077H94.7851H136.987H179.189H184.383C188.911 235.077 192.581 231.407 192.581 226.88V220.312V214.861V158.443V153.849V153.142V152.658L192.581 153.129L192.581 151.375V148.92C192.581 144.999 189.402 141.821 185.482 141.821H177.291Z" fill="white"/>
<path d="M192.581 214.861V220.312V226.88C192.581 231.407 188.911 235.077 184.383 235.077H179.189H136.987H94.7851H84.7955C80.2683 235.077 76.5982 231.407 76.5984 226.88L76.5987 219.722V218.097V218.122L76.5987 158.561L76.5987 148.431V148.92C76.5987 144.999 79.7769 141.821 83.6975 141.821H91.8886H177.291H185.482C189.402 141.821 192.581 144.999 192.581 148.92V152.658L192.581 153.129L192.581 151.375V153.142V153.849V158.443V214.861Z" stroke="#03092D" stroke-linecap="round" stroke-linejoin="round"/>
<path d="M150.204 181.136C150.711 181.136 151.125 180.725 151.1 180.218C150.995 178.12 150.53 176.053 149.724 174.107C148.801 171.879 147.448 169.854 145.743 168.149C144.037 166.443 142.013 165.09 139.784 164.167C137.839 163.361 135.772 162.897 133.673 162.792C133.167 162.767 132.755 163.18 132.755 163.687V163.687C132.755 164.195 133.167 164.603 133.673 164.631C135.53 164.735 137.359 165.151 139.081 165.864C141.087 166.695 142.909 167.912 144.444 169.447C145.979 170.982 147.197 172.805 148.027 174.81C148.741 176.533 149.157 178.361 149.26 180.218C149.288 180.725 149.697 181.136 150.204 181.136V181.136Z" fill="#3449FC"/>
<path d="M125.408 173.739C124.921 173.739 124.454 173.933 124.109 174.277C123.765 174.622 123.571 175.089 123.571 175.576V180.168H129.201C129.623 178.551 131.083 177.413 132.755 177.413C133.568 177.415 134.358 177.686 135.001 178.185C135.644 178.683 136.104 179.38 136.309 180.168H141.938V175.576C141.938 175.089 141.745 174.622 141.4 174.277C141.056 173.933 140.589 173.739 140.102 173.739H125.408Z" fill="#3449FC"/>
<path d="M131.456 179.787C131.801 179.443 132.268 179.25 132.755 179.25C133.242 179.25 133.709 179.443 134.054 179.787C134.398 180.132 134.592 180.599 134.592 181.086C134.592 181.573 134.398 182.041 134.054 182.385C133.709 182.729 133.242 182.923 132.755 182.923C132.268 182.923 131.801 182.729 131.456 182.385C131.112 182.041 130.918 181.573 130.918 181.086C130.918 180.599 131.112 180.132 131.456 179.787Z" fill="#3449FC"/>
<path d="M123.571 186.596V182.004H129.201C129.406 182.792 129.866 183.489 130.509 183.987C131.151 184.486 131.941 184.757 132.755 184.759C133.568 184.757 134.358 184.486 135.001 183.987C135.644 183.489 136.104 182.792 136.309 182.004H141.938V186.596C141.938 187.083 141.745 187.55 141.4 187.895C141.056 188.239 140.589 188.433 140.102 188.433H125.408C124.921 188.433 124.454 188.239 124.109 187.895C123.765 187.55 123.571 187.083 123.571 186.596Z" fill="#3449FC"/>
<path d="M145.922 197.136C146.247 197.136 146.512 196.873 146.496 196.549C146.428 195.206 146.131 193.883 145.615 192.638C145.025 191.212 144.159 189.916 143.067 188.824C141.976 187.733 140.68 186.867 139.254 186.276C138.009 185.76 136.686 185.463 135.343 185.396C135.019 185.38 134.755 185.644 134.755 185.969V185.969C134.755 186.294 135.019 186.555 135.343 186.573C136.531 186.639 137.701 186.906 138.804 187.362C140.087 187.894 141.254 188.673 142.236 189.656C143.218 190.638 143.998 191.804 144.529 193.088C144.986 194.19 145.252 195.36 145.318 196.549C145.336 196.873 145.598 197.136 145.922 197.136V197.136Z" fill="#3449FC"/>
<path d="M130.053 192.402C129.741 192.402 129.442 192.526 129.222 192.747C129.001 192.967 128.877 193.266 128.877 193.578V196.517H132.48C132.751 195.482 133.685 194.753 134.755 194.753C135.276 194.755 135.781 194.928 136.193 195.247C136.604 195.566 136.898 196.013 137.03 196.517H140.632V193.578C140.632 193.266 140.509 192.967 140.288 192.747C140.068 192.526 139.769 192.402 139.457 192.402H130.053Z" fill="#3449FC"/>
<path d="M133.924 196.273C134.144 196.053 134.443 195.929 134.755 195.929C135.067 195.929 135.366 196.053 135.586 196.273C135.806 196.493 135.93 196.792 135.93 197.104C135.93 197.416 135.806 197.715 135.586 197.935C135.366 198.156 135.067 198.28 134.755 198.28C134.443 198.28 134.144 198.156 133.924 197.935C133.703 197.715 133.579 197.416 133.579 197.104C133.579 196.792 133.703 196.493 133.924 196.273Z" fill="#3449FC"/>
<path d="M128.877 200.631V197.692H132.48C132.611 198.196 132.906 198.642 133.317 198.961C133.729 199.28 134.234 199.454 134.755 199.455C135.276 199.454 135.781 199.28 136.193 198.961C136.604 198.642 136.898 198.196 137.03 197.692H140.632V200.631C140.632 200.942 140.509 201.241 140.288 201.462C140.068 201.682 139.769 201.806 139.457 201.806H130.053C129.741 201.806 129.442 201.682 129.222 201.462C129.001 201.241 128.877 200.942 128.877 200.631Z" fill="#3449FC"/>
<path d="M124.01 148.874H145.561" stroke="#03092D"/>
</g>
<path opacity="0.7" d="M109 7L109 226" stroke="#03092D" stroke-width="1.5" stroke-linecap="round" stroke-dasharray="2 4"/>
<g clip-path="url(#clip3_1006_3640)">
<path d="M39.5493 20.8364H131.29H136.785C142.821 20.8364 147.714 25.7295 147.714 31.7654V37.3022V45.9731H148.807V67.5578H147.714V71.6561V73.2955H148.807V83.9512H147.714V214.813V227.456V228.487C147.714 234.523 142.821 239.416 136.785 239.416H133.328H42.6607H36.4505C29.0905 239.416 23.1242 233.449 23.1246 226.089V222.378V222.319V84.2245H21.7578V60.7272H23.1246V37.3022V31.7654C23.1246 25.7295 28.0176 20.8364 34.0536 20.8364H39.5493Z" fill="#E9EEF5" stroke="#03092D" stroke-linecap="round" stroke-linejoin="round"/>
<path d="M85.4179 30.551C84.2777 30.551 83.3533 29.6267 83.3533 28.4864C83.3533 27.3462 84.2777 26.4219 85.4179 26.4219C86.5581 26.4219 87.4824 27.3462 87.4824 28.4864C87.4824 29.6267 86.5581 30.551 85.4179 30.551Z" fill="#03092D"/>
<path d="M143.341 40.967V210.859V222.959V226.209C143.341 230.736 139.671 234.406 135.144 234.406H129.965H45.6597H35.6911C31.164 234.406 27.4941 230.736 27.4944 226.209L27.4946 221.651V218.099V218.042V40.967V33.4047C27.4946 28.8778 31.1644 25.208 35.6913 25.208H42.7667H61.9878C63.4889 25.208 64.7057 26.4248 64.7057 27.9259C64.7057 32.429 68.3562 36.0795 72.8593 36.0795H97.739C102.242 36.0795 105.893 32.429 105.893 27.9259C105.893 26.4248 107.109 25.208 108.611 25.208H128.069H135.144C139.671 25.208 143.341 28.8778 143.341 33.4047V40.967Z" fill="white" stroke="#03092D" stroke-linecap="round" stroke-linejoin="round"/>
<path d="M91.139 107.317C91.139 110.641 88.4962 112.332 85.1726 112.332C81.8489 112.332 79.4053 109.638 79.4053 106.314C79.4053 102.99 82.048 101.299 85.3717 101.299C86.7564 101.299 87.9884 101.767 88.9546 102.553C89.6137 103.089 90.5249 104.559 90.5249 104.559C90.9203 105.385 91.139 106.323 91.139 107.317Z" fill="#3449FC"/>
<path d="M91.1145 106.093C91.8043 109.344 89.5701 111.547 86.3187 112.237C83.0674 112.926 80.1179 110.798 79.4281 107.546C78.7384 104.295 80.9726 102.092 84.224 101.403C84.9441 101.25 85.6495 101.235 86.3187 101.341M88.6943 102.363C89.1799 102.731 89.6507 103.172 90.3128 104.29" stroke="#03092D" stroke-linecap="round"/>
<path d="M82.7878 106.951C83.4949 107.554 84.7324 108.762 84.7324 108.762C84.7324 108.762 87.0531 105.86 88.1726 104.873" stroke="white" stroke-linecap="round" stroke-linejoin="round"/>
<path d="M36.3381 190.516C36.3381 191.374 37.0336 192.07 37.8915 192.07H132.743C133.601 192.07 134.296 191.374 134.296 190.516V99.2055C134.296 97.4742 132.893 96.0708 131.162 96.0708H36.3381V190.516Z" fill="#E9EEF5"/>
<g clip-path="url(#clip4_1006_3640)">
<path d="M42.1967 135.138L42.3164 132.091L43.0272 126.517C43.3298 124.131 46.173 122.252 49.3681 122.301L62.8242 122.512H62.8453C62.8453 122.512 62.8594 122.512 62.8735 122.512C62.9016 122.512 62.9368 122.512 62.9861 122.512C63.0846 122.512 63.2324 122.512 63.4224 122.512C63.8024 122.512 64.3514 122.505 65.0411 122.491C66.4205 122.477 68.3488 122.449 70.5516 122.428C74.9572 122.372 80.4607 122.301 84.8311 122.238C86.8087 122.21 88.547 122.224 90.2994 122.238C92.0447 122.252 93.7971 122.273 95.7817 122.238C99.8988 122.182 102.2 122.238 106.331 122.238H122.173C124.939 122.245 127.374 123.899 127.606 125.954L128.24 131.464C128.24 131.464 128.24 131.492 128.24 131.521C128.24 131.57 128.247 131.64 128.261 131.732C128.275 131.915 128.303 132.182 128.331 132.513C128.394 133.174 128.486 134.111 128.599 135.173C128.824 137.32 129.133 140.029 129.464 142.169C129.626 143.224 129.696 144.048 129.774 144.885C129.851 145.723 129.922 146.567 130.091 147.665C130.456 150.044 130.513 151.381 130.794 153.83L131.54 160.382C131.871 163.303 129.133 165.675 125.474 165.618C123.405 165.583 121.195 165.555 119.365 165.562C117.317 165.562 114.699 165.604 112.595 165.646C111.539 165.668 110.617 165.689 109.956 165.703C109.625 165.71 109.357 165.717 109.174 165.724C109.083 165.724 109.013 165.724 108.963 165.724C108.942 165.724 108.921 165.724 108.907 165.724H108.893L85.3589 165.682C85.3589 165.682 85.3589 165.682 85.3519 165.682C85.3448 165.682 85.3308 165.682 85.3167 165.682C85.2885 165.682 85.2463 165.682 85.19 165.682C85.0774 165.682 84.9155 165.682 84.6974 165.696C84.2681 165.703 83.6488 165.717 82.8746 165.738C81.3263 165.773 79.1587 165.815 76.6885 165.858C71.755 165.942 65.6252 166.026 60.8396 166.005C55.9695 165.991 49.5863 165.865 44.8781 165.759C41.4437 165.675 38.9453 163.373 39.2339 160.593C39.5013 158.032 39.8321 155.012 40.1065 152.655C40.3458 150.677 40.6625 148.172 40.9299 146.18C41.0566 145.188 41.1763 144.322 41.2537 143.71C41.2959 143.4 41.3311 143.154 41.3522 142.985C41.3663 142.901 41.3733 142.837 41.3803 142.788C41.3803 142.767 41.3803 142.746 41.3803 142.739C41.3803 142.739 41.3803 142.732 41.3803 142.725L42.1897 135.131L42.1967 135.138Z" fill="white" stroke="#03092D" stroke-linecap="round" stroke-linejoin="round"/>
<path d="M92.6992 139.325C92.6992 139.325 97.1189 139.417 101.637 139.424C106.155 139.424 115.825 139.353 115.825 139.353" stroke="#03092D" stroke-linecap="round" stroke-linejoin="round"/>
<path d="M92.7205 146.427H97.7946C99.6315 146.434 103.629 146.441 103.629 146.441" stroke="#03092D" stroke-linecap="round" stroke-linejoin="round"/>
<path d="M82.5158 131.591C83.9233 131.626 85.0423 132.506 85.0212 133.569L84.8453 143.013L85.0705 153.26C85.0986 154.471 83.867 155.463 82.3398 155.463L55.864 155.421C54.4072 155.421 53.2812 154.513 53.3023 153.359C53.3516 150.699 53.4642 146.314 53.7034 143.168C53.9427 140.043 54.4706 135.835 54.8013 133.407C54.935 132.393 56.0751 131.598 57.4123 131.57L69.5875 131.289L82.5158 131.591Z" fill="#3449FC" stroke="#03092D"/>
<mask id="mask0_1006_3640" style="mask-type:luminance" maskUnits="userSpaceOnUse" x="56" y="131" width="27" height="25">
<path d="M58.5596 131.07L82.6637 131.091L82.5792 155.216L56.9761 155.174L58.5596 131.07Z" fill="white"/>
</mask>
<g mask="url(#mask0_1006_3640)">
<path d="M69.7214 147.433L67.1386 146.863L67.216 145.062L66.4419 143.056L65.8296 140.853L65.907 139.213L67.0893 138.024L71.2275 136.842L73.1136 135.026L77.294 136.849L78.3989 138.362L77.9344 140.867L77.1744 143.739L74.113 145.744L71.4949 146.533L71.4809 147.096L69.7355 147.433H69.7214Z" fill="#FFCEB6"/>
<path d="M67.4342 145.899C67.4483 145.618 69.9749 147.539 71.5935 146.638L71.5795 147.201L69.074 147.476L67.4483 146.898C67.2302 146.371 67.4272 146.23 67.4413 145.892L67.4342 145.899Z" fill="#F9AC8A"/>
<path d="M72.7899 155.259C72.3254 151.149 70.9882 149.615 70.2071 147.989C70.0945 147.75 70.2704 147.489 70.5801 147.412L71.5865 147.166C71.6991 147.137 71.8187 147.137 71.9243 147.166L75.8091 148.066C75.8654 148.081 75.9146 148.102 75.9639 148.123L78.9971 149.727C79.1097 149.791 79.1942 149.882 79.2294 149.988L79.9895 152.198C80.0035 152.24 80.0106 152.282 80.0106 152.324L79.9824 155.118C79.9824 155.35 79.7572 155.555 79.4687 155.583L76.8225 155.871C76.731 155.878 76.6466 155.829 76.6325 155.759C76.5973 155.597 76.3087 155.611 76.2947 155.773V155.885L73.3107 155.681C73.0292 155.66 72.804 155.484 72.7829 155.259H72.7899Z" fill="#E1F0FF"/>
<path d="M70.7348 147.44C70.8755 147.665 71.1078 148.369 71.5441 149.375C71.9664 150.347 72.4098 153.542 72.635 155.885H67.3497C66.6952 153.88 68.525 148.341 65.3721 147.546L66.9837 147.095L68.8487 147.553L70.7348 147.44Z" fill="white"/>
<path d="M62.0784 155.52L57.891 157.399L57.8699 153.577L58.3062 150.157C58.3625 149.742 58.6933 149.376 59.1789 149.193L61.0228 148.517C61.0931 148.489 61.1706 148.468 61.2409 148.454L65.2454 147.553C65.9421 147.433 66.5966 147.799 66.667 148.348L66.9696 150.748L67.5186 155.85L63.3311 156.259C63.0355 156.287 62.7822 156.104 62.7963 155.865C62.8103 155.562 62.4092 155.372 62.0714 155.52H62.0784Z" fill="#E1F0FF"/>
<path d="M78.1949 138.974C78.5045 139.157 79.2294 139.509 79.6728 139.425C79.3983 139.319 79.5672 138.749 79.8206 138.482C80.5103 137.75 80.5173 136.821 80.5173 136.821C80.4751 136.582 80.2499 136.3 79.715 135.892C79.2012 135.498 79.7361 133.844 74.7534 133.429C73.2825 133.365 71.3261 132.281 67.8565 134.498C67.1175 134.97 66.6319 135.631 66.3715 136.335C66.0689 137.137 65.7241 138.102 65.6959 138.475C65.6607 139.002 65.8226 139.439 65.8437 139.734C65.9493 139.214 66.1745 138.714 67.1246 138.482C69.4048 137.919 70.1226 138.362 72.3747 136.335C73.93 134.935 75.9921 136.652 76.2947 137.349C76.7521 137.173 78.7508 137.145 78.2019 138.988L78.1949 138.974Z" fill="#4B4D59"/>
<path d="M71.5089 146.575L71.5371 146.356C71.3963 146.349 71.2626 146.427 71.2344 146.539L71.5089 146.582V146.575ZM77.4206 143.239L77.1883 143.119V143.133L77.4347 143.239H77.4206ZM78.1947 138.974L77.9273 138.932C77.9273 138.932 77.9203 138.967 77.9273 138.988H78.2018L78.1947 138.974ZM67.1385 146.927L66.8851 146.835C66.8218 146.934 66.864 147.06 66.9837 147.117L67.1385 146.927ZM79.6726 139.424L79.736 139.628C79.8486 139.607 79.933 139.537 79.9471 139.445C79.9612 139.354 79.8978 139.27 79.7993 139.234L79.6726 139.424ZM80.5172 136.82H80.7916C80.7916 136.82 80.7916 136.799 80.7916 136.792L80.5172 136.82ZM74.7463 133.428L74.7814 133.224C74.7814 133.224 74.7744 133.224 74.7674 133.224L74.7463 133.428ZM76.2875 137.334L76.0271 137.405C76.0553 137.461 76.1116 137.51 76.1819 137.531C76.2523 137.552 76.3368 137.552 76.4072 137.531L76.2875 137.341V137.334ZM65.9139 141.212L66.1884 141.177V141.163L65.9139 141.219V141.212ZM71.4948 147.124L71.6356 147.314C71.7623 147.257 71.8186 147.131 71.7552 147.025L71.4948 147.124ZM70.967 140.234C71.0233 140.339 71.1852 140.389 71.333 140.346C71.4737 140.297 71.5441 140.17 71.4878 140.065L71.2274 140.149L70.967 140.234ZM69.6791 140.065C69.6158 140.17 69.6721 140.297 69.8128 140.346C69.9536 140.396 70.1155 140.346 70.1858 140.241L69.9325 140.156L69.6791 140.072V140.065ZM76.1749 140.452C76.2312 140.557 76.4001 140.607 76.5409 140.564C76.6816 140.515 76.752 140.389 76.6887 140.283L76.4353 140.367L76.1819 140.452H76.1749ZM74.88 140.276C74.8166 140.381 74.88 140.508 75.0137 140.557C75.1544 140.607 75.3163 140.557 75.3867 140.452L75.1333 140.367L74.88 140.283V140.276ZM70.8192 143.851C70.7981 143.731 70.6503 143.654 70.4955 143.675C70.3407 143.696 70.2351 143.809 70.2632 143.928L70.5377 143.886L70.8122 143.851H70.8192ZM72.6772 144.85C72.8179 144.794 72.8672 144.66 72.7968 144.555C72.7264 144.449 72.5575 144.407 72.4168 144.463L72.5435 144.653L72.6701 144.843L72.6772 144.85ZM71.5089 146.575L71.4808 146.793C71.6074 146.8 71.7552 146.786 71.896 146.758C72.0367 146.729 72.1986 146.694 72.3605 146.645C72.6842 146.554 73.0431 146.427 73.3669 146.3C73.6976 146.173 74.0003 146.047 74.2255 145.948C74.3381 145.899 74.4296 145.864 74.4929 145.836C74.5281 145.822 74.5492 145.808 74.5633 145.8C74.5703 145.8 74.5774 145.8 74.5844 145.793C74.5844 145.793 74.5375 145.73 74.4436 145.603L74.3029 145.413C74.3029 145.413 74.2958 145.413 74.2818 145.42C74.2677 145.427 74.2395 145.442 74.2114 145.449C74.1481 145.477 74.0636 145.512 73.951 145.561C73.7328 145.653 73.4302 145.779 73.1135 145.899C72.7898 146.019 72.459 146.138 72.1564 146.23C72.0086 146.272 71.8749 146.307 71.7623 146.328C71.6426 146.349 71.5652 146.356 71.523 146.356L71.4948 146.575H71.5089ZM74.4577 145.603C74.5515 145.73 74.5985 145.793 74.5985 145.793C74.5985 145.793 74.5985 145.793 74.6055 145.793C74.6125 145.793 74.6266 145.786 74.6407 145.772C74.6759 145.758 74.7181 145.737 74.7744 145.709C74.887 145.653 75.0489 145.568 75.2319 145.477C75.5837 145.287 76.0271 145.033 76.3297 144.794L76.1327 144.639L75.9356 144.484C75.6682 144.696 75.267 144.928 74.9222 145.111C74.7533 145.202 74.5985 145.28 74.4859 145.336C74.4296 145.364 74.3873 145.385 74.3521 145.399C74.3381 145.406 74.324 145.413 74.317 145.413C74.317 145.413 74.317 145.413 74.3099 145.413C74.3099 145.413 74.3099 145.413 74.4507 145.603H74.4577ZM76.1468 144.632L76.3438 144.787C76.6675 144.534 76.9983 144.168 77.2446 143.872C77.3713 143.724 77.4698 143.591 77.5473 143.499C77.5824 143.45 77.6106 143.415 77.6317 143.387C77.6388 143.372 77.6528 143.365 77.6528 143.358C77.6528 143.358 77.6528 143.358 77.6528 143.351C77.6528 143.351 77.6528 143.351 77.4065 143.246C77.2423 143.175 77.1602 143.14 77.1602 143.14C77.1602 143.14 77.1602 143.14 77.1602 143.147C77.1602 143.147 77.1461 143.161 77.1391 143.175C77.118 143.204 77.0898 143.239 77.0546 143.281C76.9842 143.372 76.8857 143.499 76.7661 143.64C76.5268 143.928 76.2171 144.259 75.9427 144.477L76.1397 144.632H76.1468ZM77.4206 143.239C77.5754 143.319 77.6528 143.358 77.6528 143.358C77.6528 143.358 77.6528 143.351 77.6669 143.344C77.6739 143.33 77.688 143.316 77.7021 143.295C77.7302 143.253 77.7725 143.19 77.8147 143.112C77.9062 142.95 78.0258 142.704 78.1384 142.352C78.3636 141.662 78.5537 140.571 78.4692 138.967L78.1947 138.981H77.9203C77.9977 140.564 77.8077 141.606 77.5965 142.253C77.491 142.577 77.3854 142.802 77.308 142.943C77.2658 143.014 77.2376 143.063 77.2165 143.091C77.2024 143.105 77.1954 143.119 77.1954 143.119C77.1954 143.119 77.2728 143.159 77.4276 143.239H77.4206ZM66.864 144.4C66.6857 144.456 66.5966 144.484 66.5966 144.484C66.5966 144.484 66.5966 144.491 66.6036 144.499C66.6036 144.513 66.6177 144.541 66.6318 144.569C66.6599 144.632 66.6951 144.724 66.7303 144.843C66.8077 145.083 66.9063 145.427 66.9626 145.843L67.2441 145.815L67.5256 145.786C67.4622 145.343 67.3637 144.977 67.2793 144.724C67.237 144.597 67.1948 144.499 67.1667 144.428C67.1526 144.393 67.1385 144.365 67.1315 144.351C67.1315 144.344 67.1244 144.337 67.1244 144.33C67.1244 144.33 67.0353 144.358 66.857 144.414L66.864 144.4ZM67.2511 145.822L66.9696 145.85C67.0611 146.504 66.9626 146.708 66.8851 146.828L67.1385 146.919L67.3919 147.011C67.5397 146.786 67.6311 146.476 67.5326 145.779L67.2511 145.808V145.822ZM78.1947 138.974L78.0188 139.143C78.1877 139.241 78.4622 139.382 78.7577 139.495C78.9055 139.551 79.0674 139.593 79.2293 139.628C79.3841 139.657 79.56 139.671 79.7289 139.635L79.6656 139.431L79.6023 139.227C79.553 139.234 79.4686 139.234 79.363 139.22C79.2504 139.199 79.1307 139.164 79.0041 139.122C78.7507 139.03 78.5114 138.904 78.3707 138.819L78.2018 138.988L78.1947 138.974ZM79.6726 139.424L79.7993 139.234C79.8415 139.248 79.8275 139.27 79.8204 139.234C79.8134 139.192 79.8064 139.136 79.8204 139.051C79.8556 138.889 79.9471 138.714 80.0386 138.615L79.8134 138.488L79.5882 138.362C79.4334 138.524 79.3137 138.77 79.2715 138.981C79.2504 139.087 79.2433 139.206 79.2715 139.312C79.2996 139.417 79.37 139.544 79.546 139.614L79.6726 139.424ZM79.8204 138.481L80.0456 138.608C80.4186 138.207 80.6087 137.763 80.7001 137.419C80.7494 137.25 80.7705 137.102 80.7846 136.996C80.7846 136.947 80.7916 136.898 80.7987 136.87C80.7987 136.856 80.7987 136.842 80.7987 136.834V136.827C80.7987 136.827 80.7072 136.827 80.5242 136.827C80.3412 136.827 80.2497 136.827 80.2497 136.827C80.2497 136.827 80.2497 136.827 80.2497 136.834C80.2497 136.834 80.2497 136.849 80.2497 136.863C80.2497 136.884 80.2497 136.926 80.2427 136.968C80.2286 137.06 80.2075 137.193 80.1723 137.341C80.0879 137.651 79.926 138.031 79.6093 138.369L79.8345 138.495L79.8204 138.481ZM80.5172 136.82L80.7916 136.792C80.7353 136.476 80.4538 136.159 79.9119 135.744L79.7149 135.891L79.5178 136.039C80.0527 136.447 80.2145 136.687 80.2497 136.849L80.5242 136.82H80.5172ZM79.7078 135.891L79.9049 135.744C79.9049 135.744 79.8486 135.687 79.8064 135.61C79.7641 135.532 79.7289 135.448 79.6726 135.328C79.5671 135.103 79.4193 134.822 79.1096 134.533C78.4903 133.963 77.3009 133.435 74.7744 133.224L74.7392 133.428L74.704 133.632C77.1602 133.836 78.1877 134.336 78.6803 134.794C78.9266 135.026 79.0533 135.258 79.1519 135.462C79.1941 135.561 79.2433 135.673 79.2926 135.765C79.3419 135.856 79.4052 135.955 79.5108 136.039L79.7078 135.891ZM74.7463 133.428L74.7674 133.224C74.4296 133.21 74.0636 133.14 73.5991 133.055C73.1487 132.978 72.6349 132.9 72.0508 132.9C70.8685 132.9 69.4539 133.203 67.6734 134.343L67.8493 134.498L68.0253 134.653C69.7213 133.569 71.0163 133.309 72.0438 133.309C72.5646 133.309 73.0361 133.379 73.4724 133.456C73.9017 133.527 74.331 133.618 74.7251 133.632L74.7463 133.428ZM66.3644 136.328L66.0969 136.278C65.9421 136.68 65.7802 137.123 65.6536 137.517C65.5269 137.904 65.4283 138.256 65.4143 138.467H65.6887L65.9632 138.474C65.9773 138.312 66.0617 137.996 66.1884 137.609C66.3151 137.229 66.477 136.785 66.6248 136.384L66.3573 136.335L66.3644 136.328ZM65.6887 138.467H65.4143C65.3932 138.749 65.4283 139.002 65.4706 139.22C65.5128 139.452 65.555 139.607 65.5621 139.741L65.8365 139.72L66.111 139.699C66.0969 139.544 66.0477 139.333 66.0125 139.143C65.9773 138.939 65.9421 138.714 65.9632 138.467H65.6887ZM67.1174 138.467L67.1948 138.671C67.7508 138.531 68.2082 138.46 68.6305 138.39C69.0528 138.319 69.4469 138.256 69.841 138.143C70.6503 137.911 71.4315 137.482 72.5716 136.461L72.3605 136.328L72.1493 136.194C71.0444 137.186 70.3336 137.552 69.651 137.749C69.2991 137.848 68.9472 137.904 68.5179 137.975C68.0956 138.045 67.61 138.122 67.0259 138.27L67.1033 138.474L67.1174 138.467ZM72.3675 136.321L72.5786 136.454C72.9235 136.138 73.2824 136.018 73.6132 135.997C73.951 135.976 74.3099 136.06 74.6548 136.222C74.9996 136.377 75.3093 136.595 75.5556 136.82C75.8019 137.046 75.9708 137.264 76.0271 137.405L76.2875 137.334L76.5479 137.264C76.4564 137.06 76.2453 136.799 75.9779 136.546C75.7034 136.293 75.3445 136.046 74.9433 135.856C74.5422 135.673 74.0706 135.547 73.578 135.575C73.0783 135.603 72.5927 135.793 72.1564 136.18L72.3675 136.314V136.321ZM76.2875 137.334L76.4072 137.524C76.4705 137.503 76.6324 137.468 76.8505 137.468C77.0617 137.468 77.2869 137.503 77.4839 137.58C77.6739 137.658 77.8358 137.785 77.9273 137.982C78.0188 138.186 78.054 138.488 77.9273 138.925L78.1947 138.967L78.4622 139.009C78.61 138.524 78.5888 138.129 78.4481 137.827C78.3073 137.517 78.0469 137.32 77.7443 137.193C77.4487 137.074 77.132 137.032 76.8576 137.032C76.5901 137.032 76.3297 137.067 76.1679 137.13L76.2875 137.32V137.334ZM65.9139 141.212L65.6395 141.247C65.8154 142.176 66.118 143.464 66.6036 144.484L66.8711 144.4L67.1385 144.316C66.674 143.344 66.3714 142.092 66.1955 141.17L65.921 141.205L65.9139 141.212ZM67.1174 138.467L67.04 138.263C66.5121 138.397 66.1603 138.608 65.928 138.875C65.7028 139.136 65.6184 139.424 65.5621 139.699L65.8365 139.727L66.111 139.755C66.1603 139.502 66.2377 139.284 66.3925 139.108C66.5403 138.932 66.7796 138.777 67.1948 138.678L67.1174 138.474V138.467ZM65.8365 139.727L65.5621 139.699C65.4846 140.086 65.4987 140.48 65.5409 140.769C65.5621 140.916 65.5832 141.036 65.6043 141.12C65.6113 141.163 65.6254 141.198 65.6254 141.219C65.6254 141.233 65.6254 141.24 65.6324 141.247C65.6324 141.247 65.6324 141.247 65.6324 141.254C65.6324 141.254 65.6324 141.254 65.9069 141.198C66.0899 141.16 66.1814 141.142 66.1814 141.142C66.1814 141.142 66.1814 141.127 66.1814 141.12C66.1814 141.099 66.1673 141.071 66.1603 141.029C66.1392 140.952 66.118 140.839 66.104 140.705C66.0688 140.438 66.0547 140.086 66.118 139.748L65.8436 139.72L65.8365 139.727ZM67.8493 134.498L67.6734 134.343C66.8781 134.85 66.3714 135.547 66.0969 136.286L66.3644 136.335L66.6318 136.384C66.8851 135.708 67.3426 135.096 68.0253 134.653L67.8493 134.498ZM71.5089 146.575L71.2344 146.532C71.2133 146.617 71.0374 146.884 71.2344 147.215L71.4948 147.117L71.7552 147.018C71.6567 146.856 71.7341 146.828 71.7904 146.61L71.516 146.568L71.5089 146.575ZM71.2274 140.149L71.4878 140.065C71.3541 139.811 71.0304 139.643 70.6714 139.628L70.6433 139.84L70.6151 140.051C70.777 140.058 70.9177 140.135 70.967 140.234L71.2274 140.149ZM70.6433 139.84L70.6714 139.628C70.2632 139.607 69.8621 139.776 69.6791 140.065L69.9325 140.149L70.1858 140.234C70.2562 140.121 70.4321 140.037 70.6222 140.051L70.6503 139.84H70.6433ZM76.4353 140.367L76.6887 140.283C76.5479 140.03 76.2242 139.861 75.8652 139.84L75.8441 140.051L75.823 140.262C75.9919 140.269 76.1256 140.346 76.1819 140.445L76.4353 140.36V140.367ZM75.8441 140.051L75.8652 139.84C75.4571 139.818 75.0559 139.987 74.88 140.276L75.1333 140.36L75.3867 140.445C75.4571 140.332 75.633 140.248 75.816 140.262L75.8371 140.051H75.8441ZM70.5377 143.893L70.2632 143.935C70.2703 143.985 70.4181 144.646 71.2415 144.914L71.3541 144.71L71.4667 144.506C70.9318 144.33 70.8192 143.886 70.8192 143.851L70.5448 143.886L70.5377 143.893ZM71.3541 144.71L71.2415 144.914C71.9523 145.146 72.5857 144.886 72.6772 144.85L72.5505 144.66L72.4238 144.47C72.3675 144.491 71.9382 144.66 71.4737 144.513L71.3611 144.717L71.3541 144.71ZM71.4948 147.124L71.3541 146.934C70.784 147.194 70.1999 147.349 69.5524 147.342C68.905 147.342 68.166 147.166 67.2933 146.737L67.1385 146.927L66.9837 147.117C67.9197 147.574 68.7572 147.778 69.5313 147.785C70.3125 147.785 71.0022 147.602 71.6286 147.314L71.4878 147.124H71.4948Z" fill="url(#paint1_linear_1006_3640)"/>
<path d="M71.5089 146.575L71.5371 146.356C71.3963 146.349 71.2626 146.427 71.2344 146.539L71.5089 146.582V146.575ZM77.4206 143.239L77.1883 143.119V143.133L77.4347 143.239H77.4206ZM78.1947 138.974L77.9273 138.932C77.9273 138.932 77.9203 138.967 77.9273 138.988H78.2018L78.1947 138.974ZM67.1385 146.927L66.8851 146.835C66.8218 146.934 66.864 147.06 66.9837 147.117L67.1385 146.927ZM79.6726 139.424L79.736 139.628C79.8486 139.607 79.933 139.537 79.9471 139.445C79.9612 139.354 79.8978 139.27 79.7993 139.234L79.6726 139.424ZM80.5172 136.82H80.7916C80.7916 136.82 80.7916 136.799 80.7916 136.792L80.5172 136.82ZM74.7463 133.428L74.7814 133.224C74.7814 133.224 74.7744 133.224 74.7674 133.224L74.7463 133.428ZM76.2875 137.334L76.0271 137.405C76.0553 137.461 76.1116 137.51 76.1819 137.531C76.2523 137.552 76.3368 137.552 76.4072 137.531L76.2875 137.341V137.334ZM65.9139 141.212L66.1884 141.177V141.163L65.9139 141.219V141.212ZM71.4948 147.124L71.6356 147.314C71.7623 147.257 71.8186 147.131 71.7552 147.025L71.4948 147.124ZM70.967 140.234C71.0233 140.339 71.1852 140.389 71.333 140.346C71.4737 140.297 71.5441 140.17 71.4878 140.065L71.2274 140.149L70.967 140.234ZM69.6791 140.065C69.6158 140.17 69.6721 140.297 69.8128 140.346C69.9536 140.396 70.1155 140.346 70.1858 140.241L69.9325 140.156L69.6791 140.072V140.065ZM76.1749 140.452C76.2312 140.557 76.4001 140.607 76.5409 140.564C76.6816 140.515 76.752 140.389 76.6887 140.283L76.4353 140.367L76.1819 140.452H76.1749ZM74.88 140.276C74.8166 140.381 74.88 140.508 75.0137 140.557C75.1544 140.607 75.3163 140.557 75.3867 140.452L75.1333 140.367L74.88 140.283V140.276ZM70.8192 143.851C70.7981 143.731 70.6503 143.654 70.4955 143.675C70.3407 143.696 70.2351 143.809 70.2632 143.928L70.5377 143.886L70.8122 143.851H70.8192ZM72.6772 144.85C72.8179 144.794 72.8672 144.66 72.7968 144.555C72.7264 144.449 72.5575 144.407 72.4168 144.463L72.5435 144.653L72.6701 144.843L72.6772 144.85ZM71.5089 146.575L71.4808 146.793C71.6074 146.8 71.7552 146.786 71.896 146.758C72.0367 146.729 72.1986 146.694 72.3605 146.645C72.6842 146.554 73.0431 146.427 73.3669 146.3C73.6976 146.173 74.0003 146.047 74.2255 145.948C74.3381 145.899 74.4296 145.864 74.4929 145.836C74.5281 145.822 74.5492 145.808 74.5633 145.8C74.5703 145.8 74.5774 145.8 74.5844 145.793C74.5844 145.793 74.5375 145.73 74.4436 145.603L74.3029 145.413C74.3029 145.413 74.2958 145.413 74.2818 145.42C74.2677 145.427 74.2395 145.442 74.2114 145.449C74.1481 145.477 74.0636 145.512 73.951 145.561C73.7328 145.653 73.4302 145.779 73.1135 145.899C72.7898 146.019 72.459 146.138 72.1564 146.23C72.0086 146.272 71.8749 146.307 71.7623 146.328C71.6426 146.349 71.5652 146.356 71.523 146.356L71.4948 146.575H71.5089ZM74.4577 145.603C74.5515 145.73 74.5985 145.793 74.5985 145.793C74.5985 145.793 74.5985 145.793 74.6055 145.793C74.6125 145.793 74.6266 145.786 74.6407 145.772C74.6759 145.758 74.7181 145.737 74.7744 145.709C74.887 145.653 75.0489 145.568 75.2319 145.477C75.5837 145.287 76.0271 145.033 76.3297 144.794L76.1327 144.639L75.9356 144.484C75.6682 144.696 75.267 144.928 74.9222 145.111C74.7533 145.202 74.5985 145.28 74.4859 145.336C74.4296 145.364 74.3873 145.385 74.3521 145.399C74.3381 145.406 74.324 145.413 74.317 145.413C74.317 145.413 74.317 145.413 74.3099 145.413C74.3099 145.413 74.3099 145.413 74.4507 145.603H74.4577ZM76.1468 144.632L76.3438 144.787C76.6675 144.534 76.9983 144.168 77.2446 143.872C77.3713 143.724 77.4698 143.591 77.5473 143.499C77.5824 143.45 77.6106 143.415 77.6317 143.387C77.6388 143.372 77.6528 143.365 77.6528 143.358C77.6528 143.358 77.6528 143.358 77.6528 143.351C77.6528 143.351 77.6528 143.351 77.4065 143.246C77.2423 143.175 77.1602 143.14 77.1602 143.14C77.1602 143.14 77.1602 143.14 77.1602 143.147C77.1602 143.147 77.1461 143.161 77.1391 143.175C77.118 143.204 77.0898 143.239 77.0546 143.281C76.9842 143.372 76.8857 143.499 76.7661 143.64C76.5268 143.928 76.2171 144.259 75.9427 144.477L76.1397 144.632H76.1468ZM77.4206 143.239C77.5754 143.319 77.6528 143.358 77.6528 143.358C77.6528 143.358 77.6528 143.351 77.6669 143.344C77.6739 143.33 77.688 143.316 77.7021 143.295C77.7302 143.253 77.7725 143.19 77.8147 143.112C77.9062 142.95 78.0258 142.704 78.1384 142.352C78.3636 141.662 78.5537 140.571 78.4692 138.967L78.1947 138.981H77.9203C77.9977 140.564 77.8077 141.606 77.5965 142.253C77.491 142.577 77.3854 142.802 77.308 142.943C77.2658 143.014 77.2376 143.063 77.2165 143.091C77.2024 143.105 77.1954 143.119 77.1954 143.119C77.1954 143.119 77.2728 143.159 77.4276 143.239H77.4206ZM66.864 144.4C66.6857 144.456 66.5966 144.484 66.5966 144.484C66.5966 144.484 66.5966 144.491 66.6036 144.499C66.6036 144.513 66.6177 144.541 66.6318 144.569C66.6599 144.632 66.6951 144.724 66.7303 144.843C66.8077 145.083 66.9063 145.427 66.9626 145.843L67.2441 145.815L67.5256 145.786C67.4622 145.343 67.3637 144.977 67.2793 144.724C67.237 144.597 67.1948 144.499 67.1667 144.428C67.1526 144.393 67.1385 144.365 67.1315 144.351C67.1315 144.344 67.1244 144.337 67.1244 144.33C67.1244 144.33 67.0353 144.358 66.857 144.414L66.864 144.4ZM67.2511 145.822L66.9696 145.85C67.0611 146.504 66.9626 146.708 66.8851 146.828L67.1385 146.919L67.3919 147.011C67.5397 146.786 67.6311 146.476 67.5326 145.779L67.2511 145.808V145.822ZM78.1947 138.974L78.0188 139.143C78.1877 139.241 78.4622 139.382 78.7577 139.495C78.9055 139.551 79.0674 139.593 79.2293 139.628C79.3841 139.657 79.56 139.671 79.7289 139.635L79.6656 139.431L79.6023 139.227C79.553 139.234 79.4686 139.234 79.363 139.22C79.2504 139.199 79.1307 139.164 79.0041 139.122C78.7507 139.03 78.5114 138.904 78.3707 138.819L78.2018 138.988L78.1947 138.974ZM79.6726 139.424L79.7993 139.234C79.8415 139.248 79.8275 139.27 79.8204 139.234C79.8134 139.192 79.8064 139.136 79.8204 139.051C79.8556 138.889 79.9471 138.714 80.0386 138.615L79.8134 138.488L79.5882 138.362C79.4334 138.524 79.3137 138.77 79.2715 138.981C79.2504 139.087 79.2433 139.206 79.2715 139.312C79.2996 139.417 79.37 139.544 79.546 139.614L79.6726 139.424ZM79.8204 138.481L80.0456 138.608C80.4186 138.207 80.6087 137.763 80.7001 137.419C80.7494 137.25 80.7705 137.102 80.7846 136.996C80.7846 136.947 80.7916 136.898 80.7987 136.87C80.7987 136.856 80.7987 136.842 80.7987 136.834V136.827C80.7987 136.827 80.7072 136.827 80.5242 136.827C80.3412 136.827 80.2497 136.827 80.2497 136.827C80.2497 136.827 80.2497 136.827 80.2497 136.834C80.2497 136.834 80.2497 136.849 80.2497 136.863C80.2497 136.884 80.2497 136.926 80.2427 136.968C80.2286 137.06 80.2075 137.193 80.1723 137.341C80.0879 137.651 79.926 138.031 79.6093 138.369L79.8345 138.495L79.8204 138.481ZM80.5172 136.82L80.7916 136.792C80.7353 136.476 80.4538 136.159 79.9119 135.744L79.7149 135.891L79.5178 136.039C80.0527 136.447 80.2145 136.687 80.2497 136.849L80.5242 136.82H80.5172ZM79.7078 135.891L79.9049 135.744C79.9049 135.744 79.8486 135.687 79.8064 135.61C79.7641 135.532 79.7289 135.448 79.6726 135.328C79.5671 135.103 79.4193 134.822 79.1096 134.533C78.4903 133.963 77.3009 133.435 74.7744 133.224L74.7392 133.428L74.704 133.632C77.1602 133.836 78.1877 134.336 78.6803 134.794C78.9266 135.026 79.0533 135.258 79.1519 135.462C79.1941 135.561 79.2433 135.673 79.2926 135.765C79.3419 135.856 79.4052 135.955 79.5108 136.039L79.7078 135.891ZM74.7463 133.428L74.7674 133.224C74.4296 133.21 74.0636 133.14 73.5991 133.055C73.1487 132.978 72.6349 132.9 72.0508 132.9C70.8685 132.9 69.4539 133.203 67.6734 134.343L67.8493 134.498L68.0253 134.653C69.7213 133.569 71.0163 133.309 72.0438 133.309C72.5646 133.309 73.0361 133.379 73.4724 133.456C73.9017 133.527 74.331 133.618 74.7251 133.632L74.7463 133.428ZM66.3644 136.328L66.0969 136.278C65.9421 136.68 65.7802 137.123 65.6536 137.517C65.5269 137.904 65.4283 138.256 65.4143 138.467H65.6887L65.9632 138.474C65.9773 138.312 66.0617 137.996 66.1884 137.609C66.3151 137.229 66.477 136.785 66.6248 136.384L66.3573 136.335L66.3644 136.328ZM65.6887 138.467H65.4143C65.3932 138.749 65.4283 139.002 65.4706 139.22C65.5128 139.452 65.555 139.607 65.5621 139.741L65.8365 139.72L66.111 139.699C66.0969 139.544 66.0477 139.333 66.0125 139.143C65.9773 138.939 65.9421 138.714 65.9632 138.467H65.6887ZM67.1174 138.467L67.1948 138.671C67.7508 138.531 68.2082 138.46 68.6305 138.39C69.0528 138.319 69.4469 138.256 69.841 138.143C70.6503 137.911 71.4315 137.482 72.5716 136.461L72.3605 136.328L72.1493 136.194C71.0444 137.186 70.3336 137.552 69.651 137.749C69.2991 137.848 68.9472 137.904 68.5179 137.975C68.0956 138.045 67.61 138.122 67.0259 138.27L67.1033 138.474L67.1174 138.467ZM72.3675 136.321L72.5786 136.454C72.9235 136.138 73.2824 136.018 73.6132 135.997C73.951 135.976 74.3099 136.06 74.6548 136.222C74.9996 136.377 75.3093 136.595 75.5556 136.82C75.8019 137.046 75.9708 137.264 76.0271 137.405L76.2875 137.334L76.5479 137.264C76.4564 137.06 76.2453 136.799 75.9779 136.546C75.7034 136.293 75.3445 136.046 74.9433 135.856C74.5422 135.673 74.0706 135.547 73.578 135.575C73.0783 135.603 72.5927 135.793 72.1564 136.18L72.3675 136.314V136.321ZM76.2875 137.334L76.4072 137.524C76.4705 137.503 76.6324 137.468 76.8505 137.468C77.0617 137.468 77.2869 137.503 77.4839 137.58C77.6739 137.658 77.8358 137.785 77.9273 137.982C78.0188 138.186 78.054 138.488 77.9273 138.925L78.1947 138.967L78.4622 139.009C78.61 138.524 78.5888 138.129 78.4481 137.827C78.3073 137.517 78.0469 137.32 77.7443 137.193C77.4487 137.074 77.132 137.032 76.8576 137.032C76.5901 137.032 76.3297 137.067 76.1679 137.13L76.2875 137.32V137.334ZM65.9139 141.212L65.6395 141.247C65.8154 142.176 66.118 143.464 66.6036 144.484L66.8711 144.4L67.1385 144.316C66.674 143.344 66.3714 142.092 66.1955 141.17L65.921 141.205L65.9139 141.212ZM67.1174 138.467L67.04 138.263C66.5121 138.397 66.1603 138.608 65.928 138.875C65.7028 139.136 65.6184 139.424 65.5621 139.699L65.8365 139.727L66.111 139.755C66.1603 139.502 66.2377 139.284 66.3925 139.108C66.5403 138.932 66.7796 138.777 67.1948 138.678L67.1174 138.474V138.467ZM65.8365 139.727L65.5621 139.699C65.4846 140.086 65.4987 140.48 65.5409 140.769C65.5621 140.916 65.5832 141.036 65.6043 141.12C65.6113 141.163 65.6254 141.198 65.6254 141.219C65.6254 141.233 65.6254 141.24 65.6324 141.247C65.6324 141.247 65.6324 141.247 65.6324 141.254C65.6324 141.254 65.6324 141.254 65.9069 141.198C66.0899 141.16 66.1814 141.142 66.1814 141.142C66.1814 141.142 66.1814 141.127 66.1814 141.12C66.1814 141.099 66.1673 141.071 66.1603 141.029C66.1392 140.952 66.118 140.839 66.104 140.705C66.0688 140.438 66.0547 140.086 66.118 139.748L65.8436 139.72L65.8365 139.727ZM67.8493 134.498L67.6734 134.343C66.8781 134.85 66.3714 135.547 66.0969 136.286L66.3644 136.335L66.6318 136.384C66.8851 135.708 67.3426 135.096 68.0253 134.653L67.8493 134.498ZM71.5089 146.575L71.2344 146.532C71.2133 146.617 71.0374 146.884 71.2344 147.215L71.4948 147.117L71.7552 147.018C71.6567 146.856 71.7341 146.828 71.7904 146.61L71.516 146.568L71.5089 146.575ZM71.2274 140.149L71.4878 140.065C71.3541 139.811 71.0304 139.643 70.6714 139.628L70.6433 139.84L70.6151 140.051C70.777 140.058 70.9177 140.135 70.967 140.234L71.2274 140.149ZM70.6433 139.84L70.6714 139.628C70.2632 139.607 69.8621 139.776 69.6791 140.065L69.9325 140.149L70.1858 140.234C70.2562 140.121 70.4321 140.037 70.6222 140.051L70.6503 139.84H70.6433ZM76.4353 140.367L76.6887 140.283C76.5479 140.03 76.2242 139.861 75.8652 139.84L75.8441 140.051L75.823 140.262C75.9919 140.269 76.1256 140.346 76.1819 140.445L76.4353 140.36V140.367ZM75.8441 140.051L75.8652 139.84C75.4571 139.818 75.0559 139.987 74.88 140.276L75.1333 140.36L75.3867 140.445C75.4571 140.332 75.633 140.248 75.816 140.262L75.8371 140.051H75.8441ZM70.5377 143.893L70.2632 143.935C70.2703 143.985 70.4181 144.646 71.2415 144.914L71.3541 144.71L71.4667 144.506C70.9318 144.33 70.8192 143.886 70.8192 143.851L70.5448 143.886L70.5377 143.893ZM71.3541 144.71L71.2415 144.914C71.9523 145.146 72.5857 144.886 72.6772 144.85L72.5505 144.66L72.4238 144.47C72.3675 144.491 71.9382 144.66 71.4737 144.513L71.3611 144.717L71.3541 144.71ZM71.4948 147.124L71.3541 146.934C70.784 147.194 70.1999 147.349 69.5524 147.342C68.905 147.342 68.166 147.166 67.2933 146.737L67.1385 146.927L66.9837 147.117C67.9197 147.574 68.7572 147.778 69.5313 147.785C70.3125 147.785 71.0022 147.602 71.6286 147.314L71.4878 147.124H71.4948Z" fill="#03092D"/>
<path d="M71.5089 146.575L71.5371 146.356C71.3963 146.349 71.2626 146.427 71.2344 146.539L71.5089 146.582V146.575ZM71.5089 146.575L71.4808 146.793C71.6074 146.8 71.7552 146.786 71.896 146.758C72.0367 146.729 72.1986 146.694 72.3605 146.645C72.6842 146.554 73.0431 146.427 73.3669 146.3C73.6976 146.173 74.0003 146.047 74.2255 145.948C74.3381 145.899 74.4296 145.864 74.4929 145.836C74.5281 145.822 74.5492 145.808 74.5633 145.8C74.5703 145.8 74.5774 145.8 74.5844 145.793C74.5844 145.793 74.5375 145.73 74.4436 145.603L74.3029 145.413C74.3029 145.413 74.2958 145.413 74.2818 145.42C74.2677 145.427 74.2395 145.442 74.2114 145.449C74.1481 145.477 74.0636 145.512 73.951 145.561C73.7328 145.653 73.4302 145.779 73.1135 145.899C72.7898 146.019 72.459 146.138 72.1564 146.23C72.0086 146.272 71.8749 146.307 71.7623 146.328C71.6426 146.349 71.5652 146.356 71.523 146.356L71.4948 146.575H71.5089ZM71.5089 146.575L71.2344 146.532C71.2133 146.617 71.0374 146.884 71.2344 147.215L71.4948 147.117L71.7552 147.018C71.6567 146.856 71.7341 146.828 71.7904 146.61L71.516 146.568L71.5089 146.575ZM74.4577 145.603L74.5985 145.793M74.4577 145.603C74.5515 145.73 74.5985 145.793 74.5985 145.793M74.4577 145.603H74.4507C74.3099 145.413 74.3099 145.413 74.3099 145.413C74.317 145.413 74.317 145.413 74.317 145.413C74.324 145.413 74.3381 145.406 74.3521 145.399C74.3873 145.385 74.4296 145.364 74.4859 145.336C74.5985 145.28 74.7533 145.202 74.9222 145.111C75.267 144.928 75.6682 144.696 75.9356 144.484L76.1327 144.639L76.3297 144.794C76.0271 145.033 75.5837 145.287 75.2319 145.477C75.0489 145.568 74.887 145.653 74.7744 145.709C74.7181 145.737 74.6759 145.758 74.6407 145.772C74.6266 145.786 74.6125 145.793 74.6055 145.793C74.5985 145.793 74.5985 145.793 74.5985 145.793M77.4206 143.239L77.1883 143.119V143.133L77.4347 143.239H77.4206ZM77.4206 143.239C77.5754 143.319 77.6528 143.358 77.6528 143.358M77.4206 143.239H77.4276C77.2728 143.159 77.1954 143.119 77.1954 143.119C77.1954 143.119 77.2024 143.105 77.2165 143.091C77.2376 143.063 77.2658 143.014 77.308 142.943C77.3854 142.802 77.491 142.577 77.5965 142.253C77.8077 141.606 77.9977 140.564 77.9203 138.981H78.1947L78.4692 138.967C78.5537 140.571 78.3636 141.662 78.1384 142.352C78.0258 142.704 77.9062 142.95 77.8147 143.112C77.7725 143.19 77.7302 143.253 77.7021 143.295C77.688 143.316 77.6739 143.33 77.6669 143.344C77.6528 143.351 77.6528 143.358 77.6528 143.358M78.1947 138.974L77.9273 138.932C77.9273 138.932 77.9203 138.967 77.9273 138.988H78.2018M78.1947 138.974L78.2018 138.988M78.1947 138.974L78.0188 139.143C78.1877 139.241 78.4622 139.382 78.7577 139.495C78.9055 139.551 79.0674 139.593 79.2293 139.628C79.3841 139.657 79.56 139.671 79.7289 139.635L79.6656 139.431L79.6023 139.227C79.553 139.234 79.4686 139.234 79.363 139.22C79.2504 139.199 79.1307 139.164 79.0041 139.122C78.7507 139.03 78.5114 138.904 78.3707 138.819L78.2018 138.988M66.864 144.4L66.5966 144.484M66.864 144.4C66.6857 144.456 66.5966 144.484 66.5966 144.484M66.864 144.4L66.857 144.414C67.0353 144.358 67.1244 144.33 67.1244 144.33C67.1244 144.337 67.1315 144.344 67.1315 144.351C67.1385 144.365 67.1526 144.393 67.1667 144.428C67.1948 144.499 67.237 144.597 67.2793 144.724C67.3637 144.977 67.4622 145.343 67.5256 145.786L67.2441 145.815L66.9626 145.843C66.9063 145.427 66.8077 145.083 66.7303 144.843C66.6951 144.724 66.6599 144.632 66.6318 144.569C66.6177 144.541 66.6036 144.513 66.6036 144.499C66.5966 144.491 66.5966 144.484 66.5966 144.484M67.2511 145.822L67.5326 145.793M67.2511 145.822L66.9696 145.85C67.0611 146.504 66.9626 146.708 66.8851 146.828L67.1385 146.919L67.3919 147.011C67.5397 146.786 67.6311 146.476 67.5326 145.779L67.2511 145.808V145.822ZM67.1385 146.927L66.8851 146.835C66.8218 146.934 66.864 147.06 66.9837 147.117M67.1385 146.927L66.9837 147.117M67.1385 146.927L67.2933 146.737C68.166 147.166 68.905 147.342 69.5524 147.342C70.1999 147.349 70.784 147.194 71.3541 146.934L71.4948 147.124M66.9837 147.117C67.9197 147.574 68.7572 147.778 69.5313 147.785C70.3125 147.785 71.0022 147.602 71.6286 147.314L71.4878 147.124H71.4948M79.6726 139.424L79.736 139.628C79.8486 139.607 79.933 139.537 79.9471 139.445C79.9612 139.354 79.8978 139.27 79.7993 139.234M79.6726 139.424L79.7993 139.234M79.6726 139.424L79.546 139.614C79.37 139.544 79.2996 139.417 79.2715 139.312C79.2433 139.206 79.2504 139.087 79.2715 138.981C79.3137 138.77 79.4334 138.524 79.5882 138.362L79.8134 138.488L80.0386 138.615C79.9471 138.714 79.8556 138.889 79.8204 139.051C79.8064 139.136 79.8134 139.192 79.8204 139.234C79.8275 139.27 79.8415 139.248 79.7993 139.234M80.5172 136.82H80.7916C80.7916 136.82 80.7916 136.799 80.7916 136.792M80.5172 136.82L80.7916 136.792M80.5172 136.82H80.5242L80.2497 136.849C80.2145 136.687 80.0527 136.447 79.5178 136.039L79.7149 135.891L79.9119 135.744C80.4538 136.159 80.7353 136.476 80.7916 136.792M74.7463 133.428L74.7814 133.224C74.7814 133.224 74.7744 133.224 74.7674 133.224M74.7463 133.428L74.7674 133.224M74.7463 133.428L74.7251 133.632C74.331 133.618 73.9017 133.527 73.4724 133.456C73.0361 133.379 72.5646 133.309 72.0438 133.309C71.0163 133.309 69.7213 133.569 68.0253 134.653M74.7674 133.224C74.4296 133.21 74.0636 133.14 73.5991 133.055C73.1487 132.978 72.6349 132.9 72.0508 132.9C70.8685 132.9 69.4539 133.203 67.6734 134.343M68.0253 134.653L67.8493 134.498L67.6734 134.343M68.0253 134.653C67.3426 135.096 66.8851 135.708 66.6318 136.384L66.3644 136.335L66.0969 136.286C66.3714 135.547 66.8781 134.85 67.6734 134.343M66.3644 136.328L66.6318 136.377M66.3644 136.328L66.0969 136.278C65.9421 136.68 65.7802 137.123 65.6536 137.517C65.5269 137.904 65.4283 138.256 65.4143 138.467M66.3644 136.328L66.3573 136.335L66.6248 136.384C66.477 136.785 66.3151 137.229 66.1884 137.609C66.0617 137.996 65.9773 138.312 65.9632 138.474L65.6887 138.467M65.6887 138.467H65.9632C65.9421 138.714 65.9773 138.939 66.0125 139.143C66.0477 139.333 66.0969 139.544 66.111 139.699L65.8365 139.72L65.5621 139.741C65.555 139.607 65.5128 139.452 65.4706 139.22C65.4283 139.002 65.3932 138.749 65.4143 138.467M65.6887 138.467H65.4143M65.8365 139.727L66.111 139.755C66.1603 139.502 66.2377 139.284 66.3925 139.108C66.5403 138.932 66.7796 138.777 67.1948 138.678L67.1174 138.474V138.467M65.8365 139.727L65.5621 139.699M65.8365 139.727L65.8436 139.72L66.118 139.748C66.0547 140.086 66.0688 140.438 66.104 140.705C66.118 140.839 66.1392 140.952 66.1603 141.029C66.1673 141.071 66.1814 141.099 66.1814 141.12C66.1814 141.127 66.1814 141.142 66.1814 141.142C66.1814 141.142 66.0899 141.16 65.9069 141.198C65.6324 141.254 65.6324 141.254 65.6324 141.254C65.6324 141.247 65.6324 141.247 65.6324 141.247C65.6254 141.24 65.6254 141.233 65.6254 141.219C65.6254 141.198 65.6113 141.163 65.6043 141.12C65.5832 141.036 65.5621 140.916 65.5409 140.769C65.4987 140.48 65.4846 140.086 65.5621 139.699M67.1174 138.467L67.04 138.263C66.5121 138.397 66.1603 138.608 65.928 138.875C65.7028 139.136 65.6184 139.424 65.5621 139.699M67.1174 138.467L67.1948 138.671C67.7508 138.531 68.2082 138.46 68.6305 138.39C69.0528 138.319 69.4469 138.256 69.841 138.143C70.6503 137.911 71.4315 137.482 72.5716 136.461L72.3605 136.328L72.1493 136.194C71.0444 137.186 70.3336 137.552 69.651 137.749C69.2991 137.848 68.9472 137.904 68.5179 137.975C68.0956 138.045 67.61 138.122 67.0259 138.27L67.1033 138.474L67.1174 138.467ZM76.2875 137.334L76.0271 137.405M76.2875 137.334V137.341L76.4072 137.531C76.3368 137.552 76.2523 137.552 76.1819 137.531C76.1116 137.51 76.0553 137.461 76.0271 137.405M76.2875 137.334L76.5479 137.264C76.4564 137.06 76.2453 136.799 75.9779 136.546C75.7034 136.293 75.3445 136.046 74.9433 135.856C74.5422 135.673 74.0706 135.547 73.578 135.575C73.0783 135.603 72.5927 135.793 72.1564 136.18L72.3675 136.314V136.321L72.5786 136.454C72.9235 136.138 73.2824 136.018 73.6132 135.997C73.951 135.976 74.3099 136.06 74.6548 136.222C74.9996 136.377 75.3093 136.595 75.5556 136.82C75.8019 137.046 75.9708 137.264 76.0271 137.405M76.2875 137.334L76.4072 137.524C76.4705 137.503 76.6324 137.468 76.8505 137.468C77.0617 137.468 77.2869 137.503 77.4839 137.58C77.6739 137.658 77.8358 137.785 77.9273 137.982C78.0188 138.186 78.054 138.488 77.9273 138.925L78.1947 138.967L78.4622 139.009C78.61 138.524 78.5888 138.129 78.4481 137.827C78.3073 137.517 78.0469 137.32 77.7443 137.193C77.4487 137.074 77.132 137.032 76.8576 137.032C76.5901 137.032 76.3297 137.067 76.1679 137.13L76.2875 137.32V137.334ZM65.9139 141.212L66.1884 141.177V141.163L65.9139 141.219V141.212ZM65.9139 141.212L65.6395 141.247C65.8154 142.176 66.118 143.464 66.6036 144.484L66.8711 144.4L67.1385 144.316C66.674 143.344 66.3714 142.092 66.1955 141.17L65.921 141.205L65.9139 141.212ZM71.4948 147.124L71.6356 147.314C71.7623 147.257 71.8186 147.131 71.7552 147.025L71.4948 147.124ZM70.967 140.234C71.0233 140.339 71.1852 140.389 71.333 140.346C71.4737 140.297 71.5441 140.17 71.4878 140.065M70.967 140.234L71.2274 140.149L71.4878 140.065M70.967 140.234C70.9177 140.135 70.777 140.058 70.6151 140.051L70.6433 139.84M71.4878 140.065C71.3541 139.811 71.0304 139.643 70.6714 139.628M70.6433 139.84L70.6714 139.628M70.6433 139.84H70.6503L70.6222 140.051C70.4321 140.037 70.2562 140.121 70.1858 140.234L69.9325 140.149L69.6791 140.065M69.6791 140.065C69.6158 140.17 69.6721 140.297 69.8128 140.346C69.9536 140.396 70.1155 140.346 70.1858 140.241L69.9325 140.156L69.6791 140.072V140.065ZM69.6791 140.065C69.8621 139.776 70.2632 139.607 70.6714 139.628M76.6887 140.283C76.752 140.389 76.6816 140.515 76.5409 140.564C76.4001 140.607 76.2312 140.557 76.1749 140.452H76.1819L76.4353 140.367M76.6887 140.283L76.4353 140.367M76.6887 140.283C76.5479 140.03 76.2242 139.861 75.8652 139.84M76.4353 140.367V140.36L76.1819 140.445C76.1256 140.346 75.9919 140.269 75.823 140.262L75.8441 140.051M75.8441 140.051L75.8652 139.84M75.8441 140.051H75.8371L75.816 140.262C75.633 140.248 75.4571 140.332 75.3867 140.445L75.1333 140.36L74.88 140.276M74.88 140.276C74.8166 140.381 74.88 140.508 75.0137 140.557C75.1544 140.607 75.3163 140.557 75.3867 140.452L75.1333 140.367L74.88 140.283V140.276ZM74.88 140.276C75.0559 139.987 75.4571 139.818 75.8652 139.84M70.8192 143.851C70.7981 143.731 70.6503 143.654 70.4955 143.675C70.3407 143.696 70.2351 143.809 70.2632 143.928L70.5377 143.886L70.8122 143.851H70.8192ZM70.8192 143.851C70.8192 143.886 70.9318 144.33 71.4667 144.506L71.3541 144.71M70.8192 143.851L70.5448 143.886L70.5377 143.893L70.2632 143.935C70.2703 143.985 70.4181 144.646 71.2415 144.914M71.3541 144.71L71.2415 144.914M71.3541 144.71L71.3611 144.717L71.4737 144.513C71.9382 144.66 72.3675 144.491 72.4238 144.47L72.5505 144.66L72.6772 144.85M71.2415 144.914C71.9523 145.146 72.5857 144.886 72.6772 144.85M72.6772 144.85C72.8179 144.794 72.8672 144.66 72.7968 144.555C72.7264 144.449 72.5575 144.407 72.4168 144.463L72.5435 144.653L72.6701 144.843L72.6772 144.85ZM77.6528 143.358C77.6528 143.365 77.6388 143.372 77.6317 143.387C77.6106 143.415 77.5824 143.45 77.5473 143.499C77.4698 143.591 77.3713 143.724 77.2446 143.872C76.9983 144.168 76.6675 144.534 76.3438 144.787L76.1468 144.632H76.1397L75.9427 144.477C76.2171 144.259 76.5268 143.928 76.7661 143.64C76.8857 143.499 76.9842 143.372 77.0546 143.281C77.0898 143.239 77.118 143.204 77.1391 143.175C77.1461 143.161 77.1602 143.147 77.1602 143.147C77.1602 143.14 77.1602 143.14 77.1602 143.14C77.1602 143.14 77.2423 143.175 77.4065 143.246C77.6528 143.351 77.6528 143.351 77.6528 143.351C77.6528 143.358 77.6528 143.358 77.6528 143.358ZM79.8204 138.481L80.0456 138.608C80.4186 138.207 80.6087 137.763 80.7001 137.419C80.7494 137.25 80.7705 137.102 80.7846 136.996C80.7846 136.947 80.7916 136.898 80.7987 136.87C80.7987 136.856 80.7987 136.842 80.7987 136.834V136.827C80.7987 136.827 80.7072 136.827 80.5242 136.827C80.3412 136.827 80.2497 136.827 80.2497 136.827C80.2497 136.827 80.2497 136.827 80.2497 136.834C80.2497 136.834 80.2497 136.849 80.2497 136.863C80.2497 136.884 80.2497 136.926 80.2427 136.968C80.2286 137.06 80.2075 137.193 80.1723 137.341C80.0879 137.651 79.926 138.031 79.6093 138.369L79.8345 138.495L79.8204 138.481ZM79.7078 135.891L79.9049 135.744C79.9049 135.744 79.8486 135.687 79.8064 135.61C79.7641 135.532 79.7289 135.448 79.6726 135.328C79.5671 135.103 79.4193 134.822 79.1096 134.533C78.4903 133.963 77.3009 133.435 74.7744 133.224L74.7392 133.428L74.704 133.632C77.1602 133.836 78.1877 134.336 78.6803 134.794C78.9266 135.026 79.0533 135.258 79.1519 135.462C79.1941 135.561 79.2433 135.673 79.2926 135.765C79.3419 135.856 79.4052 135.955 79.5108 136.039L79.7078 135.891Z" stroke="black" stroke-width="0.15"/>
<path d="M67.1386 146.982C67.1386 146.982 61.9729 147.968 59.1086 149.143C58.63 149.34 58.3063 149.699 58.2218 150.114C57.7011 152.697 57.877 157.462 57.877 157.462L61.6914 155.639L62.5711 155.188L62.6908 152.929L62.4093 150.586" stroke="#03092D" stroke-linecap="round" stroke-linejoin="round"/>
<path d="M71.6357 146.99C71.6357 146.99 75.3587 147.898 78.7649 149.559C79.1168 149.728 79.3842 149.988 79.4968 150.305C80.4681 152.951 80.1443 157.498 80.1443 157.498L76.4566 155.661L75.612 155.203L75.6613 152.944L74.493 150.404" stroke="#03092D" stroke-linecap="round" stroke-linejoin="round"/>
<path d="M66.5615 148.552C66.8641 148.897 67.3357 150.22 67.5609 155.14" stroke="#03092D" stroke-linecap="round" stroke-linejoin="round"/>
<path d="M71.1147 148.081C71.2977 148.271 72.1845 150.593 72.6138 155.358" stroke="#03092D" stroke-linecap="round" stroke-linejoin="round"/>
</g>
</g>
<path d="M43.7281 96.0732H38.9442C37.4352 96.0732 36.2119 97.2965 36.2119 98.8055V103.589" stroke="#3449FC" stroke-linecap="round" stroke-linejoin="round"/>
<path d="M43.7271 192.113H38.9431C37.4342 192.113 36.2109 190.89 36.2109 189.381V184.597" stroke="#3449FC" stroke-linecap="round" stroke-linejoin="round"/>
<path d="M36.2886 190.137C36.2886 191.166 37.123 192 38.1524 192H134.425C135.454 192 136.289 191.166 136.289 190.137V134H36.2886V190.137Z" fill="#3449FC" fill-opacity="0.2"/>
<path d="M36.2886 134H136.289V136H36.2886V134Z" fill="#3449FC"/>
<rect x="36.7371" y="46.8462" width="97.3607" height="19.9399" rx="2.23224" stroke="#03092D"/>
<path d="M83.8799 52.3701V53.2501H81.8099V59.3701H80.8899V53.2501H78.8299V52.3701H83.8799ZM85.1503 53.4601C84.9836 53.4601 84.8436 53.4035 84.7303 53.2901C84.617 53.1768 84.5603 53.0401 84.5603 52.8801C84.5603 52.7201 84.617 52.5835 84.7303 52.4701C84.8436 52.3501 84.9836 52.2901 85.1503 52.2901C85.3103 52.2901 85.447 52.3501 85.5603 52.4701C85.6736 52.5835 85.7303 52.7201 85.7303 52.8801C85.7303 53.0401 85.6736 53.1768 85.5603 53.2901C85.447 53.4035 85.3103 53.4601 85.1503 53.4601ZM84.7103 59.3701V54.3701H85.5803V59.3701H84.7103ZM86.9076 59.3701V52.0701H87.7776V59.3701H86.9076ZM91.8248 55.2101H90.4948V57.9201C90.4948 58.1668 90.5415 58.3435 90.6348 58.4501C90.7348 58.5501 90.8848 58.6035 91.0848 58.6101C91.2848 58.6101 91.5315 58.6035 91.8248 58.5901V59.3701C91.0648 59.4701 90.5082 59.4101 90.1548 59.1901C89.8015 58.9635 89.6248 58.5401 89.6248 57.9201V55.2101H88.6348V54.3701H89.6248V53.2301L90.4948 52.9701V54.3701H91.8248V55.2101Z" fill="#03092D"/>
</g>
<path opacity="0.1" d="M93.9344 167.495L58.4173 182.905C57.0914 183.48 56.332 184.873 56.6183 186.289C58.1738 193.986 63.7228 218.263 74.0568 231.011C83.1154 242.187 103.245 251.802 108.17 254.964C111.911 250.464 128.342 235.205 133.609 221.818C139.617 206.547 137.587 181.727 136.749 173.919C136.595 172.482 135.451 171.384 134.014 171.235L95.503 167.253C94.968 167.198 94.4278 167.281 93.9344 167.495Z" fill="black"/>
<path d="M107.699 161.789C108.323 161.626 108.978 161.626 109.602 161.789L147.055 171.6C148.727 172.038 149.896 173.553 149.815 175.303C149.633 179.239 149.095 187.438 147.565 196.435C146.038 205.416 143.511 215.261 139.319 222.448C135.638 228.759 129.115 235.066 123.011 240.254C119.953 242.854 116.986 245.184 114.513 247.104C112.029 249.033 110.071 250.526 108.995 251.478L108.581 251.844L108.167 251.478C107.089 250.525 105.141 249.031 102.67 247.103C100.21 245.183 97.2606 242.853 94.2195 240.253C88.1509 235.065 81.6623 228.758 77.9822 222.448C73.79 215.261 71.2634 205.416 69.7361 196.435C68.2063 187.438 67.6682 179.239 67.4861 175.303C67.4053 173.553 68.5746 172.038 70.2468 171.6L107.699 161.789Z" fill="white" stroke="#03092D" stroke-width="1.25"/>
<path d="M107.985 166.759C108.401 166.65 108.839 166.65 109.255 166.759L142.991 175.594C143.979 175.853 144.642 176.735 144.596 177.732C144.433 181.258 143.951 188.606 142.581 196.661C141.208 204.73 138.955 213.444 135.281 219.742C132.066 225.252 126.31 230.836 120.815 235.506C118.074 237.835 115.412 239.925 113.184 241.655C111.244 243.161 109.611 244.409 108.557 245.295C107.506 244.41 105.881 243.161 103.952 241.656C101.735 239.926 99.0887 237.836 96.3638 235.507C90.9 230.837 85.1748 225.253 81.9595 219.742C78.3257 213.513 76.0813 204.921 74.7046 196.925C73.3303 188.944 72.8303 181.62 72.6548 177.968C72.6004 176.832 73.357 175.828 74.481 175.534L107.985 166.759Z" fill="#E9EEF5" stroke="#03092D" stroke-width="1.25"/>
<path d="M108.411 180.318C111.788 180.318 114.525 183.055 114.525 186.432V191.232C114.525 191.732 114.12 192.137 113.621 192.137H112.068C111.568 192.137 111.163 191.732 111.163 191.232V186.306C111.163 185.414 110.879 184.739 110.428 184.289C109.978 183.838 109.302 183.555 108.411 183.555C107.519 183.555 106.845 183.838 106.394 184.289C105.944 184.739 105.66 185.414 105.66 186.306V191.443C105.66 191.943 105.254 192.348 104.754 192.348H103.202C102.702 192.348 102.296 191.943 102.296 191.443V186.432C102.297 183.055 105.034 180.318 108.411 180.318Z" fill="#E9EEF5" stroke="#03092D" stroke-width="1.25"/>
<path d="M108.21 188.892C109.769 188.887 111.718 188.959 113.37 189.039C115.72 189.152 117.633 190.982 117.77 193.35C117.855 194.811 117.911 196.493 117.839 197.861C117.777 199.03 117.715 200.331 117.661 201.522C117.546 204.069 115.479 206.099 112.927 206.152L108.57 206.243L108.545 206.243L103.982 206.148C101.534 206.097 99.4893 204.214 99.3562 201.741C99.2623 199.995 99.1967 197.924 99.2771 196.24C99.3196 195.349 99.3683 194.403 99.4158 193.52C99.546 191.095 101.47 189.144 103.907 189.026C105.322 188.957 106.912 188.897 108.21 188.892Z" fill="#E9EEF5" stroke="#03092D" stroke-width="1.25"/>
<mask id="mask1_1006_3640" style="mask-type:alpha" maskUnits="userSpaceOnUse" x="98" y="188" width="21" height="19">
<path d="M108.208 188.892C109.767 188.887 111.716 188.959 113.368 189.039C115.718 189.152 117.631 190.982 117.769 193.35C117.853 194.811 117.909 196.493 117.837 197.861C117.775 199.03 117.713 200.331 117.659 201.522C117.544 204.069 115.477 206.099 112.925 206.152L108.568 206.243L108.543 206.243L103.98 206.148C101.532 206.097 99.4876 204.214 99.3545 201.741C99.2606 199.995 99.195 197.924 99.2754 196.24C99.3179 195.349 99.3666 194.403 99.4141 193.52C99.5443 191.095 101.469 189.144 103.905 189.026C105.32 188.957 106.911 188.897 108.208 188.892Z" fill="#E9EEF5" stroke="black" stroke-width="1.25"/>
</mask>
<g mask="url(#mask1_1006_3640)">
<path d="M110.293 196.087C110.293 194.949 109.77 194.364 108.559 194.364C107.345 194.364 106.825 195.135 106.825 196.087C106.825 196.961 107.172 197.276 107.687 197.575C107.687 197.575 107.653 198.249 107.655 198.678C107.657 199.07 107.687 199.675 107.687 199.675C107.687 200.157 108.074 200.521 108.556 200.521C109.038 200.521 109.423 200.423 109.432 199.675C109.432 199.675 109.458 199.091 109.466 198.702C109.474 198.261 109.432 197.575 109.432 197.575C109.947 197.276 110.293 196.722 110.293 196.087Z" fill="#3449FC"/>
</g>
</g>
<defs>
<linearGradient id="paint0_linear_1006_3640" x1="118.678" y1="81.1236" x2="120.296" y2="111.991" gradientUnits="userSpaceOnUse">
<stop stop-color="#AEAEFF"/>
<stop offset="1" stop-color="white" stop-opacity="0.8"/>
</linearGradient>
<linearGradient id="paint1_linear_1006_3640" x1="73.0994" y1="133.112" x2="73.0994" y2="178.125" gradientUnits="userSpaceOnUse">
<stop stop-color="#AEAEFF"/>
<stop offset="1" stop-color="white" stop-opacity="0.8"/>
</linearGradient>
<clipPath id="clip0_1006_3640">
<rect width="217" height="210" fill="white"/>
</clipPath>
<clipPath id="clip1_1006_3640">
<rect width="84" height="225" fill="white" transform="translate(115 18)"/>
</clipPath>
<clipPath id="clip2_1006_3640">
<rect width="13.0252" height="16.3332" fill="white" transform="translate(109.761 80.1406) rotate(-3)"/>
</clipPath>
<clipPath id="clip3_1006_3640">
<rect width="84" height="225" fill="white" transform="translate(20 18)"/>
</clipPath>
<clipPath id="clip4_1006_3640">
<rect width="92.8906" height="44.3234" fill="white" transform="translate(38.9456 121.942)"/>
</clipPath>
</defs>
</svg>
