<svg preserveAspectRatio="xMidYMid meet" width="100%" height="100%" overflow="visible" style="display: block;" viewBox="0 0 24.3317 19.1233" fill="none" xmlns="http://www.w3.org/2000/svg">
<g id="business-card--name-card-business-information-money-payment">
<path id="Union" d="M12.166 0.75C14.6716 0.750011 17.1184 0.968381 19.4756 1.17871L19.7422 1.20215C21.4608 1.35526 22.8686 2.68358 23.1152 4.3916C23.356 6.06141 23.582 7.79157 23.582 9.56152C23.582 11.3315 23.356 13.0616 23.1152 14.7314C22.8686 16.4396 21.4609 17.7678 19.7422 17.9209L19.4756 17.9453C17.1184 18.1557 14.6716 18.373 12.166 18.373C9.66054 18.373 7.21348 18.1557 4.85645 17.9453L4.58984 17.9209H4.58887C2.87035 17.7676 1.46327 16.4394 1.2168 14.7314C0.975934 13.0616 0.75 11.3315 0.75 9.56152C0.750009 7.79157 0.975939 6.06138 1.2168 4.3916C1.46335 2.68379 2.87043 1.35545 4.58887 1.20215L4.85547 1.17871C7.21269 0.968371 9.66032 0.75 12.166 0.75Z" stroke="var(--stroke-0, black)" stroke-width="1.5"/>
<path id="Union_2" d="M19.078 7.55566C17.7617 7.55566 16.4788 7.55566 15.2617 7.55566M19.078 11.1622C17.7617 11.1622 16.4788 11.1622 15.2617 11.1622" stroke="var(--stroke-0, #5470DA)" stroke-width="1.5" stroke-linecap="round"/>
<path id="Union_2_2" fill-rule="evenodd" clip-rule="evenodd" d="M7.82108 6.52051C6.14133 6.52051 4.77962 7.88221 4.77962 9.56197C4.77962 11.2417 6.14133 12.6034 7.82108 12.6034C9.50083 12.6034 10.8625 11.2417 10.8625 9.56197C10.8625 7.88221 9.50083 6.52051 7.82108 6.52051Z" fill="var(--fill-0, #5470DA)" stroke="var(--stroke-0, #5470DA)" stroke-width="1.5"/>
</g>
</svg>
