<svg preserveAspectRatio="xMidYMid meet" width="100%" height="100%" overflow="visible" style="display: block;" viewBox="0 0 25.3574 20.1921" fill="none" xmlns="http://www.w3.org/2000/svg">
<g id="business-card--name-card-business-information-money-payment">
<path id="Union" d="M9.01196 19.4421H5.53927L5.27275 19.4183C3.20877 19.2344 1.52056 17.6419 1.22434 15.5883C0.983221 13.9167 0.75 12.1403 0.75 10.3116C0.75 8.483 0.983221 6.70655 1.22434 5.03496C1.52055 2.98142 3.20877 1.38883 5.27275 1.20495L5.53925 1.18119C7.89188 0.971262 10.3715 0.75 12.9158 0.75C15.4602 0.75 17.9398 0.971262 20.2925 1.18119L20.5589 1.20495C22.2594 1.35644 23.7048 2.46414 24.3268 3.99803C24.5963 4.66233 24.6074 5.39477 24.6074 6.11163V7.30566" stroke="var(--stroke-0, black)" stroke-width="1.5" stroke-linecap="round"/>
<path id="Union_2" fill-rule="evenodd" clip-rule="evenodd" d="M8.57108 7.27051C6.89133 7.27051 5.52962 8.63221 5.52962 10.312C5.52962 11.9917 6.89133 13.3534 8.57108 13.3534C10.2508 13.3534 11.6125 11.9917 11.6125 10.312C11.6125 8.63221 10.2508 7.27051 8.57108 7.27051Z" fill="var(--fill-0, #5470DA)" stroke="var(--stroke-0, #5470DA)" stroke-width="1.5"/>
<path id="Union_3" d="M18.9666 6.80566C17.6503 6.80566 16.3675 6.80566 15.1504 6.80566" stroke="var(--stroke-0, #5470DA)" stroke-width="1.5" stroke-linecap="round"/>
</g>
</svg>
