<svg preserveAspectRatio="none" width="100%" height="100%" overflow="visible" style="display: block;" viewBox="0 0 32 32" fill="none" xmlns="http://www.w3.org/2000/svg">
<g id="doc/standart">
<g id="business-card--name-card-business-information-money-payment">
<path id="Union" d="M8.52731 25.1364L8.26079 25.1126C6.1968 24.9287 4.50859 23.3362 4.21238 21.2826C3.97126 19.611 3.73804 17.8346 3.73804 16.006C3.73804 14.1773 3.97126 12.4009 4.21238 10.7293C4.50859 8.67576 6.1968 7.08316 8.26079 6.89929L8.52729 6.87553C10.8799 6.6656 13.3595 6.44434 15.9039 6.44434C18.4482 6.44434 20.9278 6.6656 23.2805 6.87553L23.547 6.89929C25.611 7.08316 27.2991 8.67576 27.5954 10.7293" stroke="var(--stroke-0, black)" stroke-width="1.5" stroke-linecap="round"/>
<path id="Union_2" fill-rule="evenodd" clip-rule="evenodd" d="M11.5591 12.9648C9.87936 12.9648 8.51766 14.3265 8.51766 16.0063C8.51766 17.6861 9.87936 19.0478 11.5591 19.0478C13.2389 19.0478 14.6006 17.6861 14.6006 16.0063C14.6006 14.3265 13.2389 12.9648 11.5591 12.9648Z" fill="var(--fill-0, #5470DA)" stroke="var(--stroke-0, #5470DA)" stroke-width="1.5"/>
<path id="Union_3" d="M21.9547 12.5C20.6384 12.5 19.3556 12.5 18.1384 12.5" stroke="var(--stroke-0, #5470DA)" stroke-width="1.5" stroke-linecap="round"/>
</g>
<circle id="Ellipse 2803" cx="22.5902" cy="22.5902" r="6.59021" stroke="var(--stroke-0, black)" stroke-width="1.5"/>
<path id="Vector 4063" d="M19.9551 22.4908C20.7343 23.2276 22.098 24.7012 22.098 24.7012C22.098 24.7012 24.6555 21.1595 25.8893 19.9538" stroke="var(--stroke-0, #374ACD)" stroke-width="1.5" stroke-linecap="round" stroke-linejoin="round"/>
</g>
</svg>
