<svg width="32" height="32" viewBox="0 0 32 32" fill="none" xmlns="http://www.w3.org/2000/svg">
<g clip-path="url(#clip0_202_3983)">
<path d="M11.5663 12.8429C13.5093 12.6052 15.4286 12.5414 17.2853 12.4805L17.495 12.4735C18.7735 12.4314 19.9296 13.2833 20.2648 14.5174C20.6114 15.7945 20.9491 17.1107 21.1163 18.4765C21.2835 19.8424 21.273 21.2011 21.2447 22.5241C21.2189 23.7229 20.4119 24.7694 19.2803 25.1159L19.0495 25.1756L18.8443 25.2194C17.0277 25.6081 15.1498 26.01 13.2068 26.2478C11.2637 26.4856 9.34354 26.5485 7.4867 26.6094L7.27701 26.6163L7.03864 26.614C5.85696 26.5506 4.8213 25.7296 4.50724 24.5724C4.16062 23.2954 3.8229 21.9792 3.65574 20.6133C3.48861 19.2475 3.49895 17.8887 3.52737 16.5658C3.555 15.2872 4.47161 14.1817 5.72251 13.9142L5.92769 13.8704C7.74444 13.4817 9.62312 13.0807 11.5663 12.8429Z" stroke="black" stroke-width="1.5"/>
<path fill-rule="evenodd" clip-rule="evenodd" d="M8.71256 17.591C7.40436 17.7511 6.47364 18.9414 6.63374 20.2496C6.79384 21.5578 7.98413 22.4885 9.29233 22.3284C10.6005 22.1683 11.5312 20.978 11.3711 19.6698C11.211 18.3616 10.0208 17.4309 8.71256 17.591Z" fill="#5470DA"/>
<path d="M13.3841 17.876C14.8504 17.6965 17.7831 17.3376 17.7831 17.3376M13.7572 20.9251L18.1562 20.3868" stroke="#5470DA" stroke-width="1.5" stroke-linecap="round"/>
<path d="M7.61684 9.91746C7.81508 9.66363 8.06145 9.45133 8.34181 9.2927C8.62216 9.13408 8.93095 9.03224 9.25065 8.99299C9.57035 8.95373 9.89471 8.97783 10.205 9.06393C10.5154 9.15002 10.8058 9.29641 11.0596 9.49474" stroke="black" stroke-width="1.5" stroke-linecap="round" stroke-linejoin="round"/>
<path d="M5.74815 8.03224C6.52367 7.03968 7.66169 6.39584 8.9119 6.24234C10.1621 6.08883 11.4222 6.43822 12.4148 7.21368" stroke="black" stroke-width="1.5" stroke-linecap="round" stroke-linejoin="round"/>
<path d="M3.75888 6.35881C4.94327 4.84293 6.68129 3.85963 8.59075 3.62518C10.5001 3.39074 12.4245 3.92435 13.9404 5.10867" stroke="black" stroke-width="1.5" stroke-linecap="round" stroke-linejoin="round"/>
</g>
<g clip-path="url(#clip1_202_3983)">
<path d="M27.9069 17.8984C27.8583 23.1354 25.1927 26.1118 21.5439 26.0967C18.074 26.1435 14.8827 23.2451 14.584 18.2284" stroke="black" stroke-width="1.5"/>
<path d="M14.5843 18.3094C14.5843 18.3094 13.7056 11.8972 14.4228 9.84511C15.4488 6.90945 16.8807 8.51503 16.8807 8.51503C16.8807 8.51503 16.0261 5.01903 20.9904 5.15421C23.2351 5.37234 24.8173 7.82879 26.617 6.90945C26.617 6.90945 26.8501 7.24613 26.617 8.023C26.617 8.023 27.6535 7.654 27.55 6.52101C27.55 6.52101 29.2592 10.0688 27.9093 10.9234C29.1037 11.5967 28.0982 16.0465 27.9093 17.8961C27.9093 17.8961 26.7794 15.2265 26.617 12.8997C26.617 12.8997 23.4102 14.2385 18.2419 11.526C18.2419 11.526 18.438 12.7127 15.616 14.3588C15.616 14.3588 15.0082 18.1209 14.5843 18.3094Z" fill="#5470DA" stroke="black" stroke-width="1.5" stroke-linejoin="round"/>
</g>
<path d="M17 31L17 1" stroke="black" stroke-linecap="round" stroke-linejoin="round"/>
<defs>
<clipPath id="clip0_202_3983">
<rect width="13" height="27" fill="white" transform="translate(2 1)"/>
</clipPath>
<clipPath id="clip1_202_3983">
<rect width="11" height="25" fill="white" transform="translate(19 2)"/>
</clipPath>
</defs>
</svg>
