<svg width="32" height="32" viewBox="0 0 32 32" fill="none" xmlns="http://www.w3.org/2000/svg">
<path d="M24.7923 19.0327C24.7274 26.0153 21.1732 29.9839 16.3082 29.9638C11.6816 30.0261 7.42656 26.1617 7.02832 19.4726" stroke="#03092D" stroke-width="1.5"/>
<path d="M7.02851 19.5809C7.02851 19.5809 5.85692 11.0314 6.81319 8.29527C8.1812 4.38106 10.0903 6.52183 10.0903 6.52183C10.0903 6.52183 8.95091 1.8605 15.57 2.04074C18.563 2.33158 20.6725 5.60685 23.0721 4.38106C23.0721 4.38106 23.3829 4.82996 23.0721 5.86579C23.0721 5.86579 24.4541 5.37379 24.3161 3.86313C24.3161 3.86313 26.595 8.59356 24.7951 9.73298C26.3878 10.6307 25.0471 16.5637 24.7951 19.0299C24.7951 19.0299 23.2886 15.4705 23.0721 12.3681C23.0721 12.3681 18.7964 14.1531 11.9054 10.5365C11.9054 10.5365 12.1668 12.1187 8.40412 14.3135C8.40412 14.3135 7.59369 19.3297 7.02851 19.5809Z" fill="#5470DA" stroke="#03092D" stroke-width="1.5" stroke-linejoin="round"/>
<path d="M13.9376 24.0356C13.9376 24.0356 15.0069 25.0356 16.4316 25.0356C17.8563 25.0356 18.9376 24.0356 18.9376 24.0356" stroke="#5470DA" stroke-width="1.5" stroke-linecap="round" stroke-linejoin="round"/>
</svg>
