<svg width="32" height="32" viewBox="0 0 32 32" fill="none" xmlns="http://www.w3.org/2000/svg">
<path d="M8.7308 8.34009C10.957 8.99729 16.5666 10.1797 22.473 10.5889L22.5284 10.5928C24.0801 10.7003 25.3199 10.7862 26.2785 10.97C27.2608 11.1584 28.0832 11.472 28.6977 12.1347C29.3061 12.7909 29.5629 13.6096 29.6833 14.5763C29.8 15.5136 29.8 16.707 29.8 18.1942V20.5194C29.8 22.0448 29.8 23.2803 29.6566 24.2535C29.5065 25.2725 29.1847 26.1205 28.4562 26.7862C27.7358 27.4445 26.8966 27.6947 25.9083 27.7532C24.9753 27.8082 23.8212 27.6955 22.4109 27.5576L22.3439 27.551" stroke="black" stroke-width="1.5" stroke-linecap="round"/>
<path d="M24.0538 16.8223C25.4139 16.8223 26.5165 17.9249 26.5165 19.2849C26.5165 20.645 25.4139 21.7475 24.0538 21.7475C22.6938 21.7475 21.5912 20.645 21.5912 19.2849C21.5912 17.9249 22.6938 16.8223 24.0538 16.8223Z" fill="#5470DA"/>
<path d="M22.1013 4.29176C16.6262 4.77328 12.7468 5.75256 10.5615 6.42421C9.61526 6.71503 9.03315 7.45211 8.7308 8.33918M22.1013 4.29176C22.1314 4.2891 22.1621 4.28636 22.1935 4.28354M22.1013 4.29176L22.1935 4.28354M22.1935 4.28354C23.1373 4.19899 24.6133 4.0668 25.6024 5.31515C26.3373 6.24286 26.5224 7.53898 26.5163 8.6716C26.5099 9.83663 26.4624 10.2475 26.2428 11.0754" stroke="black" stroke-width="1.5"/>
<path d="M12.0027 15.0386C11.9728 14.9409 12.0053 14.8349 12.0849 14.7708L13.2794 13.8084C13.4631 13.6604 13.3585 13.3637 13.1226 13.3637H11.6461C11.547 13.3637 11.4572 13.3052 11.4173 13.2145L10.9288 12.1051C10.8412 11.9061 10.5588 11.9061 10.4712 12.1051L9.98266 13.2145C9.94272 13.3052 9.85296 13.3637 9.75386 13.3637H8.27738C8.04149 13.3637 7.93684 13.6604 8.12054 13.8084L9.31508 14.7708C9.39464 14.8349 9.4272 14.9409 9.39729 15.0386L9.04555 16.1877C8.9748 16.4188 9.24061 16.6058 9.43424 16.4611L10.5503 15.6272C10.6391 15.5609 10.7609 15.5609 10.8496 15.6272L11.9657 16.4611C12.1594 16.6058 12.4252 16.4188 12.3544 16.1877L12.0027 15.0386ZM18.648 18.3798C18.8317 18.2319 18.7271 17.9352 18.4912 17.9352H17.0147C16.9156 17.9352 16.8258 17.8766 16.7859 17.7859L16.2974 16.6765C16.2097 16.4775 15.9274 16.4775 15.8398 16.6765L15.3512 17.7859C15.3113 17.8766 15.2215 17.9352 15.1224 17.9352H13.646C13.4101 17.9352 13.3054 18.2319 13.4891 18.3798L14.6837 19.3422C14.7632 19.4063 14.7958 19.5124 14.7659 19.61L14.4141 20.7591C14.3434 20.9902 14.6092 21.1772 14.8028 21.0326L15.9189 20.1986C16.0077 20.1323 16.1295 20.1323 16.2182 20.1986L17.3343 21.0326C17.5279 21.1772 17.7937 20.9902 17.723 20.7591L17.3713 19.61C17.3413 19.5124 17.3739 19.4063 17.4535 19.3422L18.648 18.3798ZM5.18176 20.1986C5.2705 20.1323 5.3923 20.1323 5.48104 20.1986L6.59714 21.0326C6.79077 21.1772 7.05658 20.9902 6.98583 20.7591L6.63409 19.61C6.60418 19.5124 6.63674 19.4063 6.7163 19.3422L7.91084 18.3798C8.09454 18.2319 7.98989 17.9352 7.754 17.9352H6.27752C6.17842 17.9352 6.08867 17.8766 6.04872 17.7859L5.5602 16.6765C5.47257 16.4775 5.19023 16.4775 5.1026 16.6765L4.61407 17.7859C4.57413 17.8766 4.48438 17.9352 4.38527 17.9352H2.9088C2.67291 17.9352 2.56826 18.2319 2.75196 18.3798L3.9465 19.3422C4.02606 19.4063 4.05861 19.5124 4.02871 19.61L3.67696 20.7591C3.60621 20.9902 3.87203 21.1772 4.06566 21.0326L5.18176 20.1986ZM15.4808 24.0304C15.3817 24.0304 15.2919 23.9719 15.252 23.8812L14.7635 22.7717C14.6759 22.5727 14.3935 22.5727 14.3059 22.7717L13.8174 23.8812C13.7774 23.9719 13.6877 24.0304 13.5886 24.0304H12.1121C11.8762 24.0304 11.7715 24.3271 11.9552 24.4751L13.1498 25.4374C13.2293 25.5015 13.2619 25.6076 13.232 25.7053L12.8802 26.8543C12.8095 27.0855 13.0753 27.2725 13.2689 27.1278L14.385 26.2938C14.4738 26.2275 14.5956 26.2275 14.6843 26.2938L15.8004 27.1278C15.9941 27.2725 16.2599 27.0855 16.1891 26.8543L15.8374 25.7053C15.8075 25.6076 15.84 25.5015 15.9196 25.4374L17.1141 24.4751C17.2978 24.3271 17.1932 24.0304 16.9573 24.0304H15.4808ZM7.81141 24.0304C7.7123 24.0304 7.62255 23.9719 7.58261 23.8812L7.09408 22.7717C7.00645 22.5727 6.72411 22.5727 6.63648 22.7717L6.14795 23.8812C6.10801 23.9719 6.01826 24.0304 5.91915 24.0304H4.44268C4.20679 24.0304 4.10214 24.3271 4.28584 24.4751L5.48038 25.4374C5.55994 25.5015 5.59249 25.6076 5.56259 25.7053L5.21084 26.8543C5.14009 27.0855 5.40591 27.2725 5.59954 27.1278L6.71564 26.2938C6.80438 26.2275 6.92618 26.2275 7.01492 26.2938L8.13102 27.1278C8.32465 27.2725 8.59047 27.0855 8.51972 26.8543L8.16797 25.7053C8.13806 25.6076 8.17062 25.5015 8.25018 25.4374L9.44472 24.4751C9.62842 24.3271 9.52377 24.0304 9.28788 24.0304H7.81141Z" fill="#5470DA"/>
</svg>
