<svg width="32" height="32" viewBox="0 0 32 32" fill="none" xmlns="http://www.w3.org/2000/svg">
<path fill-rule="evenodd" clip-rule="evenodd" d="M29.0893 21.3501C29.0893 21.7643 28.7535 22.1001 28.3393 22.1001H25.4814C25.1615 22.1001 24.8608 22.2532 24.6727 22.5119L23.5315 24.081C23.4072 24.2519 23.3402 24.4578 23.3402 24.6692V28.1376C23.3402 28.5518 23.0044 28.8876 22.5902 28.8876C22.176 28.8876 21.8402 28.5518 21.8402 28.1376V24.6692C21.8402 24.4578 21.7733 24.2519 21.649 24.081L20.5078 22.5119C20.3196 22.2532 20.019 22.1001 19.6991 22.1001H16.7047C16.2904 22.1001 15.9547 21.7643 15.9547 21.3501C15.9547 20.9359 16.2904 20.6001 16.7047 20.6001H28.3393C28.7535 20.6001 29.0893 20.9359 29.0893 21.3501Z" fill="#5470DA"/>
<path d="M8.52731 25.1364L8.26079 25.1126C6.1968 24.9287 4.50859 23.3362 4.21238 21.2826C3.97126 19.611 3.73804 17.8346 3.73804 16.006C3.73804 14.1773 3.97126 12.4009 4.21238 10.7293C4.50859 8.67576 6.1968 7.08316 8.26079 6.89929L8.52729 6.87553C10.8799 6.6656 13.3595 6.44434 15.9039 6.44434C18.4482 6.44434 20.9278 6.6656 23.2805 6.87553L23.547 6.89929C25.611 7.08316 27.2991 8.67576 27.5954 10.7293" stroke="black" stroke-width="1.5" stroke-linecap="round"/>
<path fill-rule="evenodd" clip-rule="evenodd" d="M11.5591 12.9648C9.87937 12.9648 8.51767 14.3265 8.51767 16.0063C8.51767 17.6861 9.87937 19.0478 11.5591 19.0478C13.2389 19.0478 14.6006 17.6861 14.6006 16.0063C14.6006 14.3265 13.2389 12.9648 11.5591 12.9648Z" fill="#5470DA" stroke="#5470DA" stroke-width="1.5"/>
<path d="M21.9547 12.5C20.6384 12.5 19.3556 12.5 18.1384 12.5" stroke="#5470DA" stroke-width="1.5" stroke-linecap="round"/>
<circle cx="22.5902" cy="22.5902" r="6.59021" stroke="black" stroke-width="1.5"/>
</svg>
