<svg width="217" height="210" viewBox="0 0 217 210" fill="none" xmlns="http://www.w3.org/2000/svg">
<g clip-path="url(#clip0_1006_3320)">
<path d="M61.3179 18H155.772H161.431C167.645 18 172.683 23.0378 172.683 29.2523V34.9529V43.8803H173.808V66.1036H172.683V70.3232V72.0111H173.808V82.9821H172.683V217.715V230.733V231.794C172.683 238.008 167.645 243.046 161.431 243.046H157.871H64.5213H58.1274C50.5497 243.046 44.4069 236.903 44.4072 229.325V225.504V225.443V83.2634H43V59.0709H44.4072V34.9529V29.2523C44.4072 23.0378 49.4451 18 55.6596 18H61.3179Z" fill="#E9EEF5" stroke="#03092D" stroke-linecap="round" stroke-linejoin="round"/>
<path d="M108.543 28.0018C107.369 28.0018 106.417 27.0501 106.417 25.8761C106.417 24.7022 107.369 23.7505 108.543 23.7505C109.717 23.7505 110.668 24.7022 110.668 25.8761C110.668 27.0501 109.717 28.0018 108.543 28.0018Z" fill="#03092D"/>
<path d="M168.182 38.7753V214.227V226.724V230.106C168.182 234.766 164.404 238.545 159.743 238.545H154.41H67.6109H57.3473C52.6863 238.545 48.9079 234.766 48.9081 230.105L48.9083 225.373V221.705V221.646V38.7753V30.9397C48.9083 26.2789 52.6867 22.5005 57.3475 22.5005H64.6322H84.4135C85.9637 22.5005 87.2203 23.7571 87.2203 25.3073C87.2203 29.9578 90.9903 33.7278 95.6408 33.7278H121.205C125.856 33.7278 129.626 29.9578 129.626 25.3073C129.626 23.7571 130.882 22.5005 132.433 22.5005H152.458H159.743C164.404 22.5005 168.182 26.2789 168.182 30.9397V38.7753Z" fill="#FAFAFA" stroke="#03092D" stroke-linecap="round" stroke-linejoin="round"/>
<rect x="62" y="182.133" width="93.704" height="22.3493" rx="11.1747" fill="#2E55EC"/>
<path d="M83.6921 196.808V191.008H81.6921V189.808H87.0521V191.008H84.9921V196.808H83.6921ZM89.1011 196.908C88.6678 196.908 88.2744 196.788 87.9211 196.548C87.5678 196.308 87.2844 195.981 87.0711 195.568C86.8578 195.155 86.7511 194.685 86.7511 194.158C86.7511 193.631 86.8578 193.161 87.0711 192.748C87.2844 192.335 87.5744 192.011 87.9411 191.778C88.3078 191.545 88.7211 191.428 89.1811 191.428C89.4478 191.428 89.6911 191.468 89.9111 191.548C90.1311 191.621 90.3244 191.728 90.4911 191.868C90.6578 192.008 90.7944 192.168 90.9011 192.348C91.0144 192.528 91.0911 192.721 91.1311 192.928L90.8611 192.858V191.538H92.1011V196.808H90.8511V195.548L91.1411 195.498C91.0944 195.678 91.0078 195.855 90.8811 196.028C90.7611 196.195 90.6078 196.345 90.4211 196.478C90.2411 196.605 90.0378 196.708 89.8111 196.788C89.5911 196.868 89.3544 196.908 89.1011 196.908ZM89.4411 195.818C89.7278 195.818 89.9811 195.748 90.2011 195.608C90.4211 195.468 90.5911 195.275 90.7111 195.028C90.8378 194.775 90.9011 194.485 90.9011 194.158C90.9011 193.838 90.8378 193.555 90.7111 193.308C90.5911 193.061 90.4211 192.868 90.2011 192.728C89.9811 192.588 89.7278 192.518 89.4411 192.518C89.1544 192.518 88.9011 192.588 88.6811 192.728C88.4678 192.868 88.3011 193.061 88.1811 193.308C88.0611 193.555 88.0011 193.838 88.0011 194.158C88.0011 194.485 88.0611 194.775 88.1811 195.028C88.3011 195.275 88.4678 195.468 88.6811 195.608C88.9011 195.748 89.1544 195.818 89.4411 195.818ZM94.6771 195.198L94.4371 194.048L96.9371 191.538H98.5771L94.6771 195.198ZM93.5271 196.808V189.408H94.7571V196.808H93.5271ZM97.0871 196.808L95.1471 194.458L96.0171 193.718L98.6071 196.808H97.0871ZM101.661 196.908C101.108 196.908 100.618 196.791 100.191 196.558C99.7712 196.325 99.4412 196.008 99.2012 195.608C98.9679 195.201 98.8512 194.738 98.8512 194.218C98.8512 193.805 98.9179 193.428 99.0512 193.088C99.1845 192.748 99.3679 192.455 99.6012 192.208C99.8412 191.955 100.125 191.761 100.451 191.628C100.785 191.488 101.148 191.418 101.541 191.418C101.888 191.418 102.211 191.485 102.511 191.618C102.811 191.751 103.071 191.935 103.291 192.168C103.511 192.395 103.678 192.668 103.791 192.988C103.911 193.301 103.968 193.645 103.961 194.018L103.951 194.448H99.6812L99.4512 193.608H102.921L102.761 193.778V193.558C102.741 193.351 102.675 193.171 102.561 193.018C102.448 192.858 102.301 192.735 102.121 192.648C101.948 192.555 101.755 192.508 101.541 192.508C101.215 192.508 100.938 192.571 100.711 192.698C100.491 192.825 100.325 193.008 100.211 193.248C100.098 193.481 100.041 193.775 100.041 194.128C100.041 194.468 100.111 194.765 100.251 195.018C100.398 195.271 100.601 195.468 100.861 195.608C101.128 195.741 101.438 195.808 101.791 195.808C102.038 195.808 102.265 195.768 102.471 195.688C102.678 195.608 102.901 195.465 103.141 195.258L103.751 196.108C103.571 196.275 103.365 196.418 103.131 196.538C102.905 196.651 102.665 196.741 102.411 196.808C102.158 196.875 101.908 196.908 101.661 196.908ZM107.99 199.008V191.538H109.2L109.22 192.738L109.01 192.648C109.05 192.441 109.163 192.248 109.35 192.068C109.537 191.881 109.763 191.731 110.03 191.618C110.303 191.505 110.587 191.448 110.88 191.448C111.347 191.448 111.76 191.565 112.12 191.798C112.487 192.031 112.773 192.351 112.98 192.758C113.193 193.165 113.3 193.635 113.3 194.168C113.3 194.695 113.193 195.165 112.98 195.578C112.773 195.985 112.487 196.308 112.12 196.548C111.76 196.781 111.353 196.898 110.9 196.898C110.593 196.898 110.297 196.838 110.01 196.718C109.73 196.598 109.49 196.441 109.29 196.248C109.097 196.055 108.977 195.851 108.93 195.638L109.23 195.498V199.008H107.99ZM110.65 195.808C110.93 195.808 111.18 195.738 111.4 195.598C111.62 195.458 111.79 195.265 111.91 195.018C112.037 194.771 112.1 194.488 112.1 194.168C112.1 193.848 112.04 193.568 111.92 193.328C111.8 193.081 111.63 192.888 111.41 192.748C111.19 192.608 110.937 192.538 110.65 192.538C110.357 192.538 110.1 192.608 109.88 192.748C109.667 192.881 109.497 193.071 109.37 193.318C109.243 193.565 109.18 193.848 109.18 194.168C109.18 194.488 109.243 194.771 109.37 195.018C109.497 195.265 109.667 195.458 109.88 195.598C110.1 195.738 110.357 195.808 110.65 195.808ZM114.396 196.808V189.408H115.616V192.618L115.386 192.738C115.453 192.498 115.583 192.281 115.776 192.088C115.97 191.888 116.2 191.728 116.466 191.608C116.733 191.488 117.006 191.428 117.286 191.428C117.686 191.428 118.02 191.508 118.286 191.668C118.56 191.828 118.763 192.068 118.896 192.388C119.036 192.708 119.106 193.108 119.106 193.588V196.808H117.876V193.678C117.876 193.411 117.84 193.191 117.766 193.018C117.693 192.838 117.58 192.708 117.426 192.628C117.273 192.541 117.086 192.501 116.866 192.508C116.686 192.508 116.52 192.538 116.366 192.598C116.22 192.651 116.09 192.731 115.976 192.838C115.87 192.938 115.783 193.055 115.716 193.188C115.656 193.321 115.626 193.468 115.626 193.628V196.808H115.016C114.896 196.808 114.783 196.808 114.676 196.808C114.576 196.808 114.483 196.808 114.396 196.808ZM122.9 196.908C122.373 196.908 121.903 196.791 121.49 196.558C121.077 196.318 120.75 195.991 120.51 195.578C120.27 195.165 120.15 194.695 120.15 194.168C120.15 193.641 120.27 193.171 120.51 192.758C120.75 192.345 121.077 192.021 121.49 191.788C121.903 191.548 122.373 191.428 122.9 191.428C123.42 191.428 123.887 191.548 124.3 191.788C124.713 192.021 125.037 192.345 125.27 192.758C125.51 193.171 125.63 193.641 125.63 194.168C125.63 194.695 125.51 195.165 125.27 195.578C125.037 195.991 124.713 196.318 124.3 196.558C123.887 196.791 123.42 196.908 122.9 196.908ZM122.9 195.818C123.187 195.818 123.44 195.745 123.66 195.598C123.887 195.451 124.063 195.255 124.19 195.008C124.323 194.761 124.387 194.481 124.38 194.168C124.387 193.848 124.323 193.565 124.19 193.318C124.063 193.071 123.887 192.878 123.66 192.738C123.44 192.591 123.187 192.518 122.9 192.518C122.613 192.518 122.353 192.591 122.12 192.738C121.893 192.878 121.717 193.075 121.59 193.328C121.463 193.575 121.4 193.855 121.4 194.168C121.4 194.481 121.463 194.761 121.59 195.008C121.717 195.255 121.893 195.451 122.12 195.598C122.353 195.745 122.613 195.818 122.9 195.818ZM127.3 196.808V190.198H128.53V196.808H127.3ZM126.26 192.678V191.538H129.68V192.678H126.26ZM132.978 196.908C132.451 196.908 131.981 196.791 131.568 196.558C131.155 196.318 130.828 195.991 130.588 195.578C130.348 195.165 130.228 194.695 130.228 194.168C130.228 193.641 130.348 193.171 130.588 192.758C130.828 192.345 131.155 192.021 131.568 191.788C131.981 191.548 132.451 191.428 132.978 191.428C133.498 191.428 133.965 191.548 134.378 191.788C134.791 192.021 135.115 192.345 135.348 192.758C135.588 193.171 135.708 193.641 135.708 194.168C135.708 194.695 135.588 195.165 135.348 195.578C135.115 195.991 134.791 196.318 134.378 196.558C133.965 196.791 133.498 196.908 132.978 196.908ZM132.978 195.818C133.265 195.818 133.518 195.745 133.738 195.598C133.965 195.451 134.141 195.255 134.268 195.008C134.401 194.761 134.465 194.481 134.458 194.168C134.465 193.848 134.401 193.565 134.268 193.318C134.141 193.071 133.965 192.878 133.738 192.738C133.518 192.591 133.265 192.518 132.978 192.518C132.691 192.518 132.431 192.591 132.198 192.738C131.971 192.878 131.795 193.075 131.668 193.328C131.541 193.575 131.478 193.855 131.478 194.168C131.478 194.481 131.541 194.761 131.668 195.008C131.795 195.255 131.971 195.451 132.198 195.598C132.431 195.745 132.691 195.818 132.978 195.818Z" fill="white"/>
<path d="M59.1306 174.071C59.1306 174.953 59.8454 175.667 60.7271 175.667H158.215C159.097 175.667 159.811 174.953 159.811 174.071V80.2221C159.811 78.4427 158.369 77.0003 156.59 77.0003H59.1306V174.071Z" fill="#E9EEF5"/>
<path d="M159.784 167.987V172.904C159.784 174.455 158.526 175.712 156.976 175.712H152.059" stroke="#3449FC" stroke-linecap="round" stroke-linejoin="round"/>
<path d="M152.275 77.002H157.192C158.743 77.002 160 78.2592 160 79.8101V84.727" stroke="#3449FC" stroke-linecap="round" stroke-linejoin="round"/>
<path d="M66.726 77.002H61.8092C60.2582 77.002 59.001 78.2592 59.001 79.8101V84.727" stroke="#3449FC" stroke-linecap="round" stroke-linejoin="round"/>
<path d="M66.7251 175.712H61.8082C60.2573 175.712 59 174.455 59 172.904V167.987" stroke="#3449FC" stroke-linecap="round" stroke-linejoin="round"/>
<path d="M62.7185 119.073L62.49 114.612L62.616 106.312C62.6691 102.778 65.5873 99.9618 69.1208 100.035L84.4363 100.35H84.4978C84.5265 100.35 84.5696 100.348 84.6257 100.347C84.7384 100.345 84.9054 100.343 85.1208 100.339C85.5516 100.332 86.178 100.322 86.9607 100.309C88.5264 100.283 90.718 100.246 93.2195 100.203C98.2222 100.115 104.467 100 109.434 99.8921C111.674 99.8433 113.649 99.8655 115.633 99.8892C117.615 99.9128 119.606 99.9379 121.865 99.8921C126.534 99.7974 129.135 99.8921 133.827 99.8921H151.787C154.817 99.8922 157.273 102.349 157.273 105.378V113.599C157.273 113.604 157.272 113.609 157.272 113.617C157.272 113.635 157.272 113.662 157.271 113.697C157.27 113.767 157.268 113.871 157.265 114.004C157.261 114.272 157.254 114.662 157.247 115.148C157.232 116.12 157.215 117.478 157.204 119.024C157.181 122.114 157.181 125.96 157.273 128.967C157.318 130.432 157.295 131.572 157.272 132.723C157.249 133.875 157.226 135.037 157.273 136.53C157.375 139.741 157.273 141.516 157.273 144.763V153.255C157.273 156.852 154.298 159.739 150.694 159.673C148.59 159.635 146.348 159.608 144.48 159.616C142.394 159.625 139.726 159.682 137.582 159.737C136.509 159.764 135.567 159.792 134.892 159.812C134.555 159.822 134.284 159.83 134.098 159.835C134.006 159.838 133.934 159.841 133.885 159.842C133.861 159.843 133.842 159.844 133.83 159.844C133.824 159.844 133.819 159.845 133.816 159.845H109.855C109.848 159.845 109.837 159.846 109.822 159.846C109.793 159.847 109.75 159.848 109.693 159.85C109.579 159.854 109.411 159.859 109.194 159.866C108.759 159.879 108.126 159.896 107.337 159.918C105.758 159.963 103.551 160.022 101.04 160.081C96.016 160.197 89.7772 160.311 84.906 160.303C79.9417 160.295 73.4292 160.155 68.6169 160.032C65.1942 159.944 62.4723 157.15 62.4656 153.725C62.4592 150.432 62.4607 146.502 62.49 143.393C62.5149 140.755 62.5727 137.377 62.6238 134.658C62.6493 133.298 62.6726 132.103 62.6902 131.249C62.699 130.821 62.7067 130.479 62.7117 130.244C62.7142 130.126 62.7162 130.035 62.7175 129.973C62.7182 129.942 62.7182 129.919 62.7185 129.903C62.7187 129.895 62.7194 129.889 62.7195 129.885V119.099C62.7195 119.091 62.7189 119.081 62.7185 119.073Z" fill="white" stroke="#03092D" stroke-linecap="round" stroke-linejoin="round"/>
<path d="M117.93 125.014C117.93 125.014 122.728 125.139 127.628 125.139C132.528 125.139 143.024 125.014 143.024 125.014" stroke="#03092D" stroke-linecap="round" stroke-linejoin="round"/>
<path d="M117.788 134.901C117.788 134.901 120.618 134.901 123.2 134.901C125.16 134.901 129.417 134.901 129.417 134.901" stroke="#03092D" stroke-linecap="round" stroke-linejoin="round"/>
<path d="M106.835 114.045C108.292 114.089 109.443 115.295 109.42 116.753L109.205 130.205V130.221L109.421 144.104C109.444 145.593 108.243 146.812 106.755 146.812H79.0928C77.673 146.812 76.507 145.702 76.4443 144.288C76.2875 140.749 76.0566 134.808 76.0566 130.476C76.0566 126.103 76.2914 120.093 76.4482 116.566C76.5099 115.186 77.6261 114.09 79.0127 114.046L92.499 113.613L106.835 114.045Z" fill="#3449FC" stroke="#03092D"/>
<g clip-path="url(#clip1_1006_3320)">
<path d="M93.276 136.317L90.5002 135.546V133.078L89.575 130.303L88.804 127.218V124.905L90.0376 123.209L94.5097 121.513L96.5144 118.891L101.141 121.513L102.374 123.672L101.912 127.218L101.141 131.228L97.9022 134.004L95.1265 135.083V135.854L93.276 136.317Z" fill="#FFCEB6"/>
<path d="M90.7677 134.222C90.7677 133.831 93.5435 136.46 95.2397 135.227V135.998L92.5768 136.379L90.8205 135.598C90.5635 134.879 90.7677 134.684 90.7677 134.222Z" fill="#F9AC8A"/>
<path d="M96.7696 146.756C96.1646 141.321 94.7016 139.262 93.8086 137.065C93.6779 136.744 93.8575 136.387 94.1881 136.281L95.2498 135.944C95.3671 135.907 95.4928 135.905 95.6108 135.94L99.7688 137.163C99.8285 137.18 99.8851 137.207 99.9369 137.241L103.186 139.407C103.309 139.489 103.398 139.612 103.438 139.754L104.265 142.709C104.28 142.763 104.288 142.819 104.288 142.876V146.563C104.288 146.871 104.06 147.132 103.755 147.174L101.002 147.553C100.907 147.566 100.819 147.502 100.802 147.408C100.764 147.2 100.459 147.22 100.448 147.431L100.441 147.576L97.3348 147.311C97.0383 147.286 96.8026 147.051 96.7696 146.756Z" fill="#E1F0FF"/>
<path d="M94.3548 136.319C94.509 136.627 94.7866 137.583 95.28 138.94C95.7562 140.25 96.3242 144.5 96.6295 147.576H91.1165C90.3455 144.954 92.0417 137.552 88.6492 136.473L90.3455 135.856L92.3502 136.473L94.3548 136.319Z" fill="white"/>
<path d="M85.5914 147.121L81.3419 149.581L81.0645 144.576L81.296 140.016C81.3243 139.459 81.6549 138.962 82.1578 138.72L84.0746 137.8C84.1492 137.764 84.2266 137.735 84.306 137.711L88.5161 136.479C89.2496 136.31 89.9692 136.809 90.0687 137.555L90.5001 140.791L91.2974 147.538L86.9496 148.082C86.6408 148.121 86.368 147.88 86.368 147.569C86.368 147.17 85.9363 146.922 85.5914 147.121Z" fill="#E1F0FF"/>
<path d="M102.17 124.541C102.508 124.802 103.303 125.296 103.779 125.177C103.481 125.028 103.658 124.217 103.928 123.838C104.671 122.798 104.671 121.459 104.671 121.459C104.622 121.112 104.374 120.716 103.779 120.121C103.213 119.555 103.779 117.147 98.2767 116.552C96.6523 116.462 94.4549 114.876 90.7119 118.122C89.9215 118.807 89.4223 119.762 89.166 120.776C88.8735 121.934 88.5451 123.306 88.536 123.838C88.5232 124.586 88.7219 125.21 88.7594 125.623C88.849 124.888 89.0673 124.176 90.0935 123.838C92.5562 123.028 93.3522 123.662 95.7444 120.757C97.4099 118.735 99.7142 121.211 100.061 122.203C100.557 121.955 102.738 121.905 102.17 124.541Z" fill="#4B4D59"/>
<path d="M95.1535 135.14L95.1902 134.642C94.9349 134.623 94.7067 134.8 94.6614 135.052L95.1535 135.14ZM98.2767 133.802L98.5297 134.233L98.5358 134.229L98.2767 133.802ZM100.061 132.463L100.42 132.812V132.812L100.061 132.463ZM101.4 130.53L100.983 130.254L100.971 130.271L100.961 130.29L101.4 130.53ZM102.17 124.541L101.681 124.435C101.672 124.478 101.668 124.522 101.67 124.566L102.17 124.541ZM90.0935 132.156L89.6304 132.344L89.6304 132.344L90.0935 132.156ZM90.5732 134.11L91.0684 134.041L91.0684 134.041L90.5732 134.11ZM90.4994 135.621L90.0471 135.408C89.9387 135.638 90.0204 135.913 90.2371 136.047L90.4994 135.621ZM103.779 125.177L103.9 125.662C104.103 125.611 104.253 125.439 104.276 125.231C104.299 125.023 104.19 124.823 104.002 124.729L103.779 125.177ZM103.928 123.838L104.334 124.129V124.129L103.928 123.838ZM104.671 121.459H105.171C105.171 121.436 105.169 121.412 105.166 121.388L104.671 121.459ZM103.779 120.121L104.132 119.767V119.767L103.779 120.121ZM98.2767 116.552L98.3304 116.055C98.3218 116.054 98.3131 116.053 98.3044 116.053L98.2767 116.552ZM90.7119 118.122L91.0395 118.5V118.5L90.7119 118.122ZM89.166 120.776L89.6508 120.899H89.6508L89.166 120.776ZM88.536 123.838L89.0359 123.847L88.536 123.838ZM88.7594 125.623L89.2558 125.683V125.683L88.7594 125.623ZM90.0935 123.838L89.9373 123.364V123.364L90.0935 123.838ZM95.7444 120.757L96.1304 121.075V121.075L95.7444 120.757ZM100.061 122.203L99.5892 122.368C99.6367 122.504 99.7402 122.612 99.8733 122.666C100.006 122.72 100.156 122.714 100.285 122.65L100.061 122.203ZM88.9122 127.712L89.4041 127.623C89.4018 127.61 89.399 127.597 89.3958 127.585L88.9122 127.712ZM95.1538 135.884L95.4078 136.314C95.6328 136.182 95.7177 135.898 95.6029 135.664L95.1538 135.884ZM94.1702 126.415C94.2812 126.668 94.5761 126.783 94.829 126.672C95.0819 126.561 95.1969 126.266 95.086 126.013L94.6281 126.214L94.1702 126.415ZM93.9824 125.774L93.9475 126.272L93.948 126.272L93.9824 125.774ZM92.7638 126.011C92.6516 126.263 92.7651 126.559 93.0174 126.671C93.2697 126.783 93.5653 126.669 93.6775 126.417L93.2207 126.214L92.7638 126.011ZM99.8211 126.712C99.932 126.965 100.227 127.08 100.48 126.969C100.733 126.858 100.848 126.563 100.737 126.31L100.279 126.511L99.8211 126.712ZM99.6332 126.071L99.5983 126.57L99.5988 126.57L99.6332 126.071ZM98.4147 126.308C98.3024 126.56 98.416 126.856 98.6683 126.968C98.9206 127.08 99.2161 126.967 99.3284 126.715L98.8715 126.511L98.4147 126.308ZM94.5096 131.356C94.4602 131.084 94.1999 130.904 93.9282 130.953C93.6565 131.003 93.4763 131.263 93.5257 131.535L94.0176 131.445L94.5096 131.356ZM94.9209 132.573L94.7311 133.035L94.7317 133.035L94.9209 132.573ZM96.4356 132.939C96.6787 132.808 96.7697 132.505 96.6388 132.262C96.5079 132.019 96.2046 131.928 95.9615 132.059L96.1986 132.499L96.4356 132.939ZM95.1535 135.14L95.1168 135.639C95.2857 135.651 95.4629 135.622 95.6193 135.585C95.7824 135.545 95.9572 135.488 96.1325 135.422C96.4832 135.291 96.8674 135.114 97.218 134.939C97.5703 134.764 97.8975 134.588 98.1361 134.456C98.2555 134.39 98.3533 134.335 98.4214 134.296C98.4555 134.276 98.4822 134.261 98.5006 134.25C98.5098 134.245 98.5169 134.241 98.5218 134.238C98.5242 134.236 98.5261 134.235 98.5274 134.234C98.5281 134.234 98.5286 134.234 98.529 134.234C98.5292 134.233 98.5293 134.233 98.5294 134.233C98.5295 134.233 98.5296 134.233 98.5296 134.233C98.5296 134.233 98.5297 134.233 98.2767 133.802C98.0237 133.371 98.0237 133.371 98.0237 133.371C98.0237 133.371 98.0237 133.371 98.0237 133.371C98.0237 133.371 98.0236 133.371 98.0235 133.371C98.0233 133.371 98.023 133.371 98.0225 133.371C98.0215 133.372 98.02 133.373 98.0179 133.374C98.0138 133.376 98.0074 133.38 97.999 133.385C97.9822 133.395 97.9572 133.409 97.9249 133.428C97.8602 133.465 97.7665 133.518 97.6517 133.581C97.4215 133.709 97.1081 133.877 96.7731 134.044C96.4364 134.211 96.0865 134.372 95.7815 134.486C95.629 134.543 95.4954 134.586 95.3855 134.612C95.2689 134.64 95.2082 134.643 95.1902 134.642L95.1535 135.14ZM98.2767 133.802C98.5358 134.229 98.5358 134.229 98.5358 134.229C98.5359 134.229 98.5359 134.229 98.5359 134.229C98.536 134.229 98.5361 134.229 98.5362 134.229C98.5365 134.229 98.5368 134.229 98.5371 134.229C98.5379 134.228 98.5389 134.228 98.5402 134.227C98.5429 134.225 98.5466 134.223 98.5514 134.22C98.5609 134.214 98.5747 134.206 98.5922 134.195C98.6273 134.173 98.6775 134.142 98.7395 134.102C98.8633 134.023 99.0348 133.911 99.2261 133.778C99.601 133.518 100.081 133.161 100.42 132.812L100.061 132.463L99.7024 132.115C99.4347 132.391 99.0222 132.703 98.6567 132.956C98.4777 133.08 98.3168 133.185 98.2008 133.259C98.1429 133.296 98.0964 133.325 98.0647 133.345C98.0489 133.355 98.0368 133.362 98.0288 133.367C98.0248 133.37 98.0218 133.372 98.0199 133.373C98.019 133.373 98.0183 133.374 98.0179 133.374C98.0177 133.374 98.0176 133.374 98.0176 133.374C98.0175 133.374 98.0175 133.374 98.0175 133.374C98.0175 133.374 98.0176 133.374 98.0176 133.374C98.0176 133.374 98.0176 133.374 98.2767 133.802ZM100.061 132.463L100.42 132.812C100.777 132.444 101.134 131.924 101.392 131.518C101.524 131.311 101.635 131.125 101.713 130.991C101.752 130.924 101.783 130.87 101.804 130.832C101.815 130.813 101.823 130.798 101.829 130.788C101.831 130.782 101.834 130.778 101.835 130.776C101.836 130.774 101.837 130.773 101.837 130.772C101.837 130.772 101.838 130.771 101.838 130.771C101.838 130.771 101.838 130.771 101.838 130.771C101.838 130.771 101.838 130.771 101.838 130.771C101.838 130.771 101.838 130.771 101.4 130.53C100.961 130.29 100.961 130.29 100.961 130.29C100.961 130.29 100.961 130.29 100.961 130.29C100.961 130.29 100.961 130.29 100.961 130.29C100.961 130.29 100.961 130.29 100.961 130.29C100.961 130.291 100.96 130.291 100.96 130.292C100.959 130.294 100.957 130.298 100.954 130.302C100.95 130.311 100.942 130.324 100.933 130.341C100.913 130.375 100.885 130.426 100.848 130.488C100.775 130.614 100.671 130.788 100.548 130.982C100.297 131.378 99.9847 131.825 99.7024 132.115L100.061 132.463ZM101.4 130.53C101.816 130.807 101.816 130.807 101.816 130.806C101.817 130.806 101.817 130.806 101.817 130.806C101.817 130.805 101.817 130.805 101.818 130.804C101.818 130.803 101.819 130.802 101.82 130.801C101.821 130.799 101.823 130.796 101.825 130.793C101.829 130.787 101.834 130.779 101.84 130.769C101.851 130.751 101.865 130.726 101.882 130.694C101.916 130.631 101.961 130.541 102.012 130.422C102.114 130.183 102.24 129.828 102.357 129.333C102.59 128.343 102.785 126.798 102.669 124.515L102.17 124.541L101.67 124.566C101.782 126.77 101.592 128.219 101.384 129.103C101.279 129.545 101.17 129.846 101.092 130.029C101.053 130.121 101.021 130.184 101.002 130.22C100.992 130.238 100.985 130.25 100.982 130.255C100.98 130.258 100.979 130.259 100.98 130.259C100.98 130.259 100.98 130.258 100.981 130.257C100.981 130.257 100.981 130.256 100.982 130.256C100.982 130.255 100.982 130.255 100.982 130.255C100.982 130.255 100.983 130.254 100.983 130.254C100.983 130.254 100.983 130.254 101.4 130.53ZM90.0935 132.156C89.6304 132.344 89.6304 132.344 89.6303 132.344C89.6303 132.344 89.6303 132.344 89.6303 132.344C89.6303 132.344 89.6302 132.344 89.6302 132.344C89.6302 132.344 89.6301 132.344 89.6301 132.343C89.6301 132.343 89.6302 132.344 89.6303 132.344C89.6305 132.345 89.6311 132.346 89.6319 132.348C89.6336 132.352 89.6363 132.359 89.6401 132.369C89.6477 132.389 89.6592 132.42 89.6739 132.462C89.7032 132.545 89.7449 132.67 89.7918 132.831C89.8856 133.153 89.9998 133.618 90.0779 134.179L90.5732 134.11L91.0684 134.041C90.9824 133.423 90.8567 132.911 90.7518 132.551C90.6993 132.371 90.6519 132.228 90.6169 132.129C90.5994 132.079 90.5851 132.041 90.5747 132.014C90.5695 132 90.5654 131.989 90.5623 131.982C90.5608 131.978 90.5596 131.975 90.5586 131.972C90.5582 131.971 90.5578 131.97 90.5574 131.969C90.5573 131.969 90.5571 131.968 90.557 131.968C90.5569 131.968 90.5569 131.968 90.5568 131.968C90.5568 131.968 90.5568 131.968 90.5568 131.968C90.5567 131.967 90.5567 131.967 90.0935 132.156ZM90.5732 134.11L90.0779 134.179C90.2 135.056 90.1011 135.294 90.0471 135.408L90.4994 135.621L90.9518 135.834C91.1219 135.473 91.2038 135.015 91.0684 134.041L90.5732 134.11ZM102.17 124.541L101.864 124.936C102.056 125.085 102.37 125.294 102.71 125.454C102.881 125.534 103.07 125.608 103.263 125.652C103.45 125.695 103.676 125.718 103.9 125.662L103.779 125.177L103.658 124.692C103.644 124.695 103.591 124.701 103.486 124.677C103.385 124.654 103.265 124.61 103.135 124.549C102.874 124.426 102.622 124.258 102.476 124.145L102.17 124.541ZM103.779 125.177L104.002 124.729C104.124 124.79 104.135 124.888 104.128 124.858C104.123 124.833 104.119 124.77 104.135 124.668C104.166 124.461 104.254 124.242 104.334 124.129L103.928 123.838L103.521 123.548C103.331 123.813 103.196 124.189 103.146 124.519C103.121 124.686 103.112 124.877 103.149 125.058C103.185 125.233 103.285 125.489 103.555 125.624L103.779 125.177ZM103.928 123.838L104.334 124.129C104.762 123.53 104.968 122.86 105.068 122.357C105.119 122.102 105.145 121.883 105.158 121.725C105.164 121.647 105.168 121.583 105.169 121.538C105.17 121.515 105.171 121.497 105.171 121.483C105.171 121.477 105.171 121.472 105.171 121.467C105.171 121.465 105.171 121.464 105.171 121.462C105.171 121.462 105.171 121.461 105.171 121.461C105.171 121.46 105.171 121.46 105.171 121.46C105.171 121.46 105.171 121.46 105.171 121.459C105.171 121.459 105.171 121.459 104.671 121.459C104.171 121.459 104.171 121.459 104.171 121.459C104.171 121.459 104.171 121.459 104.171 121.459C104.171 121.459 104.171 121.458 104.171 121.458C104.171 121.458 104.171 121.458 104.171 121.458C104.171 121.458 104.171 121.458 104.171 121.459C104.171 121.46 104.171 121.462 104.171 121.465C104.171 121.472 104.171 121.484 104.17 121.5C104.169 121.532 104.166 121.581 104.161 121.644C104.151 121.77 104.13 121.95 104.088 122.16C104.003 122.586 103.836 123.106 103.521 123.548L103.928 123.838ZM104.671 121.459L105.166 121.388C105.092 120.867 104.735 120.37 104.132 119.767L103.779 120.121L103.425 120.474C104.012 121.061 104.151 121.357 104.176 121.53L104.671 121.459ZM103.779 120.121L104.132 119.767C104.134 119.769 104.111 119.745 104.068 119.64C104.024 119.532 103.989 119.42 103.925 119.24C103.805 118.904 103.627 118.468 103.264 118.029C102.53 117.14 101.146 116.359 98.3304 116.055L98.2767 116.552L98.2229 117.049C100.91 117.339 101.993 118.06 102.493 118.665C102.748 118.973 102.878 119.283 102.983 119.576C103.031 119.71 103.088 119.884 103.143 120.018C103.199 120.156 103.282 120.331 103.425 120.474L103.779 120.121ZM98.2767 116.552L98.3044 116.053C97.952 116.033 97.5691 115.932 97.0452 115.815C96.543 115.702 95.9559 115.587 95.2896 115.586C93.9296 115.584 92.3315 116.056 90.3844 117.744L90.7119 118.122L91.0395 118.5C92.8354 116.942 94.2074 116.584 95.288 116.586C95.842 116.587 96.3427 116.682 96.8263 116.791C97.2883 116.894 97.7892 117.026 98.2489 117.051L98.2767 116.552ZM89.166 120.776L88.6812 120.654C88.5347 121.234 88.3777 121.873 88.256 122.436C88.138 122.982 88.0416 123.506 88.0361 123.83L88.536 123.838L89.0359 123.847C89.0395 123.638 89.1119 123.21 89.2334 122.647C89.3514 122.102 89.5048 121.476 89.6508 120.899L89.166 120.776ZM88.536 123.838L88.0361 123.83C88.0289 124.25 88.0812 124.628 88.1363 124.942C88.1961 125.283 88.2452 125.488 88.2615 125.668L88.7594 125.623L89.2574 125.578C89.2362 125.344 89.1671 125.031 89.1213 124.77C89.0709 124.482 89.0303 124.175 89.0359 123.847L88.536 123.838ZM90.0935 123.838L90.2498 124.313C90.8389 124.12 91.3285 124.012 91.7855 123.912C92.2367 123.814 92.6792 123.719 93.1229 123.551C94.042 123.202 94.9057 122.562 96.1304 121.075L95.7444 120.757L95.3584 120.439C94.1909 121.857 93.4605 122.353 92.7679 122.616C92.4058 122.753 92.038 122.834 91.5725 122.935C91.113 123.035 90.5795 123.152 89.9373 123.364L90.0935 123.838ZM95.7444 120.757L96.1304 121.075C96.4729 120.659 96.8103 120.513 97.1129 120.489C97.4322 120.463 97.7836 120.567 98.1424 120.78C98.4991 120.991 98.831 121.291 99.0945 121.599C99.3635 121.914 99.5306 122.2 99.5892 122.368L100.061 122.203L100.533 122.038C100.418 121.709 100.167 121.315 99.8545 120.949C99.5363 120.577 99.123 120.199 98.6521 119.92C98.1833 119.642 97.6246 119.444 97.0326 119.492C96.4239 119.541 95.8486 119.844 95.3584 120.439L95.7444 120.757ZM100.061 122.203L100.285 122.65C100.285 122.65 100.285 122.65 100.287 122.649C100.289 122.648 100.291 122.647 100.294 122.646C100.301 122.643 100.309 122.64 100.321 122.637C100.343 122.63 100.373 122.622 100.41 122.615C100.483 122.602 100.575 122.592 100.676 122.593C100.883 122.594 101.1 122.636 101.279 122.732C101.448 122.822 101.594 122.964 101.68 123.2C101.77 123.447 101.81 123.837 101.681 124.435L102.17 124.541L102.659 124.646C102.813 123.927 102.794 123.334 102.619 122.857C102.441 122.37 102.117 122.045 101.75 121.849C101.392 121.659 101.006 121.595 100.683 121.593C100.371 121.591 100.056 121.646 99.8376 121.756L100.061 122.203ZM88.9122 127.712L88.4202 127.801C88.6563 129.103 89.0508 130.919 89.6304 132.344L90.0935 132.156L90.5567 131.967C90.018 130.643 89.638 128.912 89.4041 127.623L88.9122 127.712ZM90.0935 123.838L89.9373 123.364C89.3256 123.565 88.9135 123.895 88.6507 124.317C88.398 124.724 88.3105 125.174 88.2631 125.562L88.7594 125.623L89.2558 125.683C89.298 125.337 89.3644 125.063 89.4998 124.846C89.6251 124.644 89.8352 124.45 90.2498 124.313L90.0935 123.838ZM88.7594 125.623L88.2631 125.562C88.1933 126.136 88.2365 126.705 88.2934 127.121C88.3222 127.331 88.3552 127.508 88.3812 127.633C88.3943 127.695 88.4057 127.745 88.414 127.78C88.4181 127.797 88.4216 127.811 88.424 127.821C88.4253 127.826 88.4263 127.83 88.427 127.833C88.4274 127.835 88.4277 127.836 88.428 127.837C88.4281 127.837 88.4282 127.838 88.4283 127.838C88.4284 127.838 88.4284 127.838 88.4284 127.838C88.4285 127.839 88.4285 127.839 88.4285 127.839C88.4285 127.839 88.4285 127.839 88.9122 127.712C89.3958 127.585 89.3958 127.585 89.3958 127.585C89.3958 127.585 89.3958 127.585 89.3959 127.585C89.3959 127.585 89.3959 127.585 89.3959 127.585C89.3959 127.586 89.3959 127.586 89.3959 127.586C89.3959 127.586 89.3958 127.585 89.3957 127.585C89.3954 127.584 89.3949 127.581 89.3941 127.578C89.3926 127.572 89.3901 127.562 89.3869 127.549C89.3805 127.522 89.3712 127.481 89.3601 127.428C89.3379 127.322 89.3093 127.169 89.2842 126.986C89.2334 126.615 89.2003 126.139 89.2558 125.683L88.7594 125.623ZM90.7119 118.122L90.3844 117.744C89.4985 118.512 88.956 119.566 88.6812 120.654L89.166 120.776L89.6508 120.899C89.8886 119.957 90.3444 119.102 91.0395 118.5L90.7119 118.122ZM95.1535 135.14L94.6614 135.052C94.6523 135.102 94.4456 135.574 94.7048 136.104L95.1538 135.884L95.6029 135.664C95.5669 135.59 95.5702 135.557 95.5737 135.53C95.5768 135.507 95.5832 135.479 95.597 135.428C95.6083 135.387 95.6312 135.308 95.6455 135.229L95.1535 135.14ZM94.6281 126.214L95.086 126.013C94.8977 125.584 94.4761 125.306 94.0168 125.275L93.9824 125.774L93.948 126.272C94.0587 126.28 94.1403 126.347 94.1702 126.415L94.6281 126.214ZM93.9824 125.774L94.0172 125.275C93.4995 125.239 92.9821 125.52 92.7638 126.011L93.2207 126.214L93.6775 126.417C93.7127 126.338 93.8185 126.263 93.9475 126.272L93.9824 125.774ZM100.279 126.511L100.737 126.31C100.549 125.881 100.127 125.604 99.6676 125.572L99.6332 126.071L99.5988 126.57C99.7095 126.577 99.7912 126.644 99.8211 126.712L100.279 126.511ZM99.6332 126.071L99.6681 125.572C99.1503 125.536 98.633 125.817 98.4147 126.308L98.8715 126.511L99.3284 126.715C99.3636 126.635 99.4694 126.561 99.5983 126.57L99.6332 126.071ZM94.0176 131.445L93.5257 131.535C93.5391 131.608 93.7339 132.626 94.7311 133.035L94.9209 132.573L95.1106 132.11C94.8752 132.013 94.7275 131.842 94.6328 131.672C94.5363 131.499 94.5086 131.351 94.5096 131.356L94.0176 131.445ZM94.9209 132.573L94.7317 133.035C95.5873 133.385 96.3337 132.994 96.4356 132.939L96.1986 132.499L95.9615 132.059C95.9101 132.086 95.5242 132.279 95.11 132.11L94.9209 132.573ZM95.1538 135.884L94.8998 135.453C94.3254 135.792 93.7412 135.991 93.0944 135.985C92.4457 135.979 91.6855 135.765 90.7618 135.196L90.4994 135.621L90.2371 136.047C91.2751 136.687 92.2117 136.976 93.0846 136.985C93.9594 136.993 94.7215 136.719 95.4078 136.314L95.1538 135.884Z" fill="url(#paint0_linear_1006_3320)"/>
<path d="M95.1535 135.14L95.1902 134.642C94.9349 134.623 94.7067 134.8 94.6614 135.052L95.1535 135.14ZM98.2767 133.802L98.5297 134.233L98.5358 134.229L98.2767 133.802ZM100.061 132.463L100.42 132.812V132.812L100.061 132.463ZM101.4 130.53L100.983 130.254L100.971 130.271L100.961 130.29L101.4 130.53ZM102.17 124.541L101.681 124.435C101.672 124.478 101.668 124.522 101.67 124.566L102.17 124.541ZM90.0935 132.156L89.6304 132.344L89.6304 132.344L90.0935 132.156ZM90.5732 134.11L91.0684 134.041L91.0684 134.041L90.5732 134.11ZM90.4994 135.621L90.0471 135.408C89.9387 135.638 90.0204 135.913 90.2371 136.047L90.4994 135.621ZM103.779 125.177L103.9 125.662C104.103 125.611 104.253 125.439 104.276 125.231C104.299 125.023 104.19 124.823 104.002 124.729L103.779 125.177ZM103.928 123.838L104.334 124.129V124.129L103.928 123.838ZM104.671 121.459H105.171C105.171 121.436 105.169 121.412 105.166 121.388L104.671 121.459ZM103.779 120.121L104.132 119.767V119.767L103.779 120.121ZM98.2767 116.552L98.3304 116.055C98.3218 116.054 98.3131 116.053 98.3044 116.053L98.2767 116.552ZM90.7119 118.122L91.0395 118.5V118.5L90.7119 118.122ZM89.166 120.776L89.6508 120.899H89.6508L89.166 120.776ZM88.536 123.838L89.0359 123.847L88.536 123.838ZM88.7594 125.623L89.2558 125.683V125.683L88.7594 125.623ZM90.0935 123.838L89.9373 123.364V123.364L90.0935 123.838ZM95.7444 120.757L96.1304 121.075V121.075L95.7444 120.757ZM100.061 122.203L99.5892 122.368C99.6367 122.504 99.7402 122.612 99.8733 122.666C100.006 122.72 100.156 122.714 100.285 122.65L100.061 122.203ZM88.9122 127.712L89.4041 127.623C89.4018 127.61 89.399 127.597 89.3958 127.585L88.9122 127.712ZM95.1538 135.884L95.4078 136.314C95.6328 136.182 95.7177 135.898 95.6029 135.664L95.1538 135.884ZM94.1702 126.415C94.2812 126.668 94.5761 126.783 94.829 126.672C95.0819 126.561 95.1969 126.266 95.086 126.013L94.6281 126.214L94.1702 126.415ZM93.9824 125.774L93.9475 126.272L93.948 126.272L93.9824 125.774ZM92.7638 126.011C92.6516 126.263 92.7651 126.559 93.0174 126.671C93.2697 126.783 93.5653 126.669 93.6775 126.417L93.2207 126.214L92.7638 126.011ZM99.8211 126.712C99.932 126.965 100.227 127.08 100.48 126.969C100.733 126.858 100.848 126.563 100.737 126.31L100.279 126.511L99.8211 126.712ZM99.6332 126.071L99.5983 126.57L99.5988 126.57L99.6332 126.071ZM98.4147 126.308C98.3024 126.56 98.416 126.856 98.6683 126.968C98.9206 127.08 99.2161 126.967 99.3284 126.715L98.8715 126.511L98.4147 126.308ZM94.5096 131.356C94.4602 131.084 94.1999 130.904 93.9282 130.953C93.6565 131.003 93.4763 131.263 93.5257 131.535L94.0176 131.445L94.5096 131.356ZM94.9209 132.573L94.7311 133.035L94.7317 133.035L94.9209 132.573ZM96.4356 132.939C96.6787 132.808 96.7697 132.505 96.6388 132.262C96.5079 132.019 96.2046 131.928 95.9615 132.059L96.1986 132.499L96.4356 132.939ZM95.1535 135.14L95.1168 135.639C95.2857 135.651 95.4629 135.622 95.6193 135.585C95.7824 135.545 95.9572 135.488 96.1325 135.422C96.4832 135.291 96.8674 135.114 97.218 134.939C97.5703 134.764 97.8975 134.588 98.1361 134.456C98.2555 134.39 98.3533 134.335 98.4214 134.296C98.4555 134.276 98.4822 134.261 98.5006 134.25C98.5098 134.245 98.5169 134.241 98.5218 134.238C98.5242 134.236 98.5261 134.235 98.5274 134.234C98.5281 134.234 98.5286 134.234 98.529 134.234C98.5292 134.233 98.5293 134.233 98.5294 134.233C98.5295 134.233 98.5296 134.233 98.5296 134.233C98.5296 134.233 98.5297 134.233 98.2767 133.802C98.0237 133.371 98.0237 133.371 98.0237 133.371C98.0237 133.371 98.0237 133.371 98.0237 133.371C98.0237 133.371 98.0236 133.371 98.0235 133.371C98.0233 133.371 98.023 133.371 98.0225 133.371C98.0215 133.372 98.02 133.373 98.0179 133.374C98.0138 133.376 98.0074 133.38 97.999 133.385C97.9822 133.395 97.9572 133.409 97.9249 133.428C97.8602 133.465 97.7665 133.518 97.6517 133.581C97.4215 133.709 97.1081 133.877 96.7731 134.044C96.4364 134.211 96.0865 134.372 95.7815 134.486C95.629 134.543 95.4954 134.586 95.3855 134.612C95.2689 134.64 95.2082 134.643 95.1902 134.642L95.1535 135.14ZM98.2767 133.802C98.5358 134.229 98.5358 134.229 98.5358 134.229C98.5359 134.229 98.5359 134.229 98.5359 134.229C98.536 134.229 98.5361 134.229 98.5362 134.229C98.5365 134.229 98.5368 134.229 98.5371 134.229C98.5379 134.228 98.5389 134.228 98.5402 134.227C98.5429 134.225 98.5466 134.223 98.5514 134.22C98.5609 134.214 98.5747 134.206 98.5922 134.195C98.6273 134.173 98.6775 134.142 98.7395 134.102C98.8633 134.023 99.0348 133.911 99.2261 133.778C99.601 133.518 100.081 133.161 100.42 132.812L100.061 132.463L99.7024 132.115C99.4347 132.391 99.0222 132.703 98.6567 132.956C98.4777 133.08 98.3168 133.185 98.2008 133.259C98.1429 133.296 98.0964 133.325 98.0647 133.345C98.0489 133.355 98.0368 133.362 98.0288 133.367C98.0248 133.37 98.0218 133.372 98.0199 133.373C98.019 133.373 98.0183 133.374 98.0179 133.374C98.0177 133.374 98.0176 133.374 98.0176 133.374C98.0175 133.374 98.0175 133.374 98.0175 133.374C98.0175 133.374 98.0176 133.374 98.0176 133.374C98.0176 133.374 98.0176 133.374 98.2767 133.802ZM100.061 132.463L100.42 132.812C100.777 132.444 101.134 131.924 101.392 131.518C101.524 131.311 101.635 131.125 101.713 130.991C101.752 130.924 101.783 130.87 101.804 130.832C101.815 130.813 101.823 130.798 101.829 130.788C101.831 130.782 101.834 130.778 101.835 130.776C101.836 130.774 101.837 130.773 101.837 130.772C101.837 130.772 101.838 130.771 101.838 130.771C101.838 130.771 101.838 130.771 101.838 130.771C101.838 130.771 101.838 130.771 101.838 130.771C101.838 130.771 101.838 130.771 101.4 130.53C100.961 130.29 100.961 130.29 100.961 130.29C100.961 130.29 100.961 130.29 100.961 130.29C100.961 130.29 100.961 130.29 100.961 130.29C100.961 130.29 100.961 130.29 100.961 130.29C100.961 130.291 100.96 130.291 100.96 130.292C100.959 130.294 100.957 130.298 100.954 130.302C100.95 130.311 100.942 130.324 100.933 130.341C100.913 130.375 100.885 130.426 100.848 130.488C100.775 130.614 100.671 130.788 100.548 130.982C100.297 131.378 99.9847 131.825 99.7024 132.115L100.061 132.463ZM101.4 130.53C101.816 130.807 101.816 130.807 101.816 130.806C101.817 130.806 101.817 130.806 101.817 130.806C101.817 130.805 101.817 130.805 101.818 130.804C101.818 130.803 101.819 130.802 101.82 130.801C101.821 130.799 101.823 130.796 101.825 130.793C101.829 130.787 101.834 130.779 101.84 130.769C101.851 130.751 101.865 130.726 101.882 130.694C101.916 130.631 101.961 130.541 102.012 130.422C102.114 130.183 102.24 129.828 102.357 129.333C102.59 128.343 102.785 126.798 102.669 124.515L102.17 124.541L101.67 124.566C101.782 126.77 101.592 128.219 101.384 129.103C101.279 129.545 101.17 129.846 101.092 130.029C101.053 130.121 101.021 130.184 101.002 130.22C100.992 130.238 100.985 130.25 100.982 130.255C100.98 130.258 100.979 130.259 100.98 130.259C100.98 130.259 100.98 130.258 100.981 130.257C100.981 130.257 100.981 130.256 100.982 130.256C100.982 130.255 100.982 130.255 100.982 130.255C100.982 130.255 100.983 130.254 100.983 130.254C100.983 130.254 100.983 130.254 101.4 130.53ZM90.0935 132.156C89.6304 132.344 89.6304 132.344 89.6303 132.344C89.6303 132.344 89.6303 132.344 89.6303 132.344C89.6303 132.344 89.6302 132.344 89.6302 132.344C89.6302 132.344 89.6301 132.344 89.6301 132.343C89.6301 132.343 89.6302 132.344 89.6303 132.344C89.6305 132.345 89.6311 132.346 89.6319 132.348C89.6336 132.352 89.6363 132.359 89.6401 132.369C89.6477 132.389 89.6592 132.42 89.6739 132.462C89.7032 132.545 89.7449 132.67 89.7918 132.831C89.8856 133.153 89.9998 133.618 90.0779 134.179L90.5732 134.11L91.0684 134.041C90.9824 133.423 90.8567 132.911 90.7518 132.551C90.6993 132.371 90.6519 132.228 90.6169 132.129C90.5994 132.079 90.5851 132.041 90.5747 132.014C90.5695 132 90.5654 131.989 90.5623 131.982C90.5608 131.978 90.5596 131.975 90.5586 131.972C90.5582 131.971 90.5578 131.97 90.5574 131.969C90.5573 131.969 90.5571 131.968 90.557 131.968C90.5569 131.968 90.5569 131.968 90.5568 131.968C90.5568 131.968 90.5568 131.968 90.5568 131.968C90.5567 131.967 90.5567 131.967 90.0935 132.156ZM90.5732 134.11L90.0779 134.179C90.2 135.056 90.1011 135.294 90.0471 135.408L90.4994 135.621L90.9518 135.834C91.1219 135.473 91.2038 135.015 91.0684 134.041L90.5732 134.11ZM102.17 124.541L101.864 124.936C102.056 125.085 102.37 125.294 102.71 125.454C102.881 125.534 103.07 125.608 103.263 125.652C103.45 125.695 103.676 125.718 103.9 125.662L103.779 125.177L103.658 124.692C103.644 124.695 103.591 124.701 103.486 124.677C103.385 124.654 103.265 124.61 103.135 124.549C102.874 124.426 102.622 124.258 102.476 124.145L102.17 124.541ZM103.779 125.177L104.002 124.729C104.124 124.79 104.135 124.888 104.128 124.858C104.123 124.833 104.119 124.77 104.135 124.668C104.166 124.461 104.254 124.242 104.334 124.129L103.928 123.838L103.521 123.548C103.331 123.813 103.196 124.189 103.146 124.519C103.121 124.686 103.112 124.877 103.149 125.058C103.185 125.233 103.285 125.489 103.555 125.624L103.779 125.177ZM103.928 123.838L104.334 124.129C104.762 123.53 104.968 122.86 105.068 122.357C105.119 122.102 105.145 121.883 105.158 121.725C105.164 121.647 105.168 121.583 105.169 121.538C105.17 121.515 105.171 121.497 105.171 121.483C105.171 121.477 105.171 121.472 105.171 121.467C105.171 121.465 105.171 121.464 105.171 121.462C105.171 121.462 105.171 121.461 105.171 121.461C105.171 121.46 105.171 121.46 105.171 121.46C105.171 121.46 105.171 121.46 105.171 121.459C105.171 121.459 105.171 121.459 104.671 121.459C104.171 121.459 104.171 121.459 104.171 121.459C104.171 121.459 104.171 121.459 104.171 121.459C104.171 121.459 104.171 121.458 104.171 121.458C104.171 121.458 104.171 121.458 104.171 121.458C104.171 121.458 104.171 121.458 104.171 121.459C104.171 121.46 104.171 121.462 104.171 121.465C104.171 121.472 104.171 121.484 104.17 121.5C104.169 121.532 104.166 121.581 104.161 121.644C104.151 121.77 104.13 121.95 104.088 122.16C104.003 122.586 103.836 123.106 103.521 123.548L103.928 123.838ZM104.671 121.459L105.166 121.388C105.092 120.867 104.735 120.37 104.132 119.767L103.779 120.121L103.425 120.474C104.012 121.061 104.151 121.357 104.176 121.53L104.671 121.459ZM103.779 120.121L104.132 119.767C104.134 119.769 104.111 119.745 104.068 119.64C104.024 119.532 103.989 119.42 103.925 119.24C103.805 118.904 103.627 118.468 103.264 118.029C102.53 117.14 101.146 116.359 98.3304 116.055L98.2767 116.552L98.2229 117.049C100.91 117.339 101.993 118.06 102.493 118.665C102.748 118.973 102.878 119.283 102.983 119.576C103.031 119.71 103.088 119.884 103.143 120.018C103.199 120.156 103.282 120.331 103.425 120.474L103.779 120.121ZM98.2767 116.552L98.3044 116.053C97.952 116.033 97.5691 115.932 97.0452 115.815C96.543 115.702 95.9559 115.587 95.2896 115.586C93.9296 115.584 92.3315 116.056 90.3844 117.744L90.7119 118.122L91.0395 118.5C92.8354 116.942 94.2074 116.584 95.288 116.586C95.842 116.587 96.3427 116.682 96.8263 116.791C97.2883 116.894 97.7892 117.026 98.2489 117.051L98.2767 116.552ZM89.166 120.776L88.6812 120.654C88.5347 121.234 88.3777 121.873 88.256 122.436C88.138 122.982 88.0416 123.506 88.0361 123.83L88.536 123.838L89.0359 123.847C89.0395 123.638 89.1119 123.21 89.2334 122.647C89.3514 122.102 89.5048 121.476 89.6508 120.899L89.166 120.776ZM88.536 123.838L88.0361 123.83C88.0289 124.25 88.0812 124.628 88.1363 124.942C88.1961 125.283 88.2452 125.488 88.2615 125.668L88.7594 125.623L89.2574 125.578C89.2362 125.344 89.1671 125.031 89.1213 124.77C89.0709 124.482 89.0303 124.175 89.0359 123.847L88.536 123.838ZM90.0935 123.838L90.2498 124.313C90.8389 124.12 91.3285 124.012 91.7855 123.912C92.2367 123.814 92.6792 123.719 93.1229 123.551C94.042 123.202 94.9057 122.562 96.1304 121.075L95.7444 120.757L95.3584 120.439C94.1909 121.857 93.4605 122.353 92.7679 122.616C92.4058 122.753 92.038 122.834 91.5725 122.935C91.113 123.035 90.5795 123.152 89.9373 123.364L90.0935 123.838ZM95.7444 120.757L96.1304 121.075C96.4729 120.659 96.8103 120.513 97.1129 120.489C97.4322 120.463 97.7836 120.567 98.1424 120.78C98.4991 120.991 98.831 121.291 99.0945 121.599C99.3635 121.914 99.5306 122.2 99.5892 122.368L100.061 122.203L100.533 122.038C100.418 121.709 100.167 121.315 99.8545 120.949C99.5363 120.577 99.123 120.199 98.6521 119.92C98.1833 119.642 97.6246 119.444 97.0326 119.492C96.4239 119.541 95.8486 119.844 95.3584 120.439L95.7444 120.757ZM100.061 122.203L100.285 122.65C100.285 122.65 100.285 122.65 100.287 122.649C100.289 122.648 100.291 122.647 100.294 122.646C100.301 122.643 100.309 122.64 100.321 122.637C100.343 122.63 100.373 122.622 100.41 122.615C100.483 122.602 100.575 122.592 100.676 122.593C100.883 122.594 101.1 122.636 101.279 122.732C101.448 122.822 101.594 122.964 101.68 123.2C101.77 123.447 101.81 123.837 101.681 124.435L102.17 124.541L102.659 124.646C102.813 123.927 102.794 123.334 102.619 122.857C102.441 122.37 102.117 122.045 101.75 121.849C101.392 121.659 101.006 121.595 100.683 121.593C100.371 121.591 100.056 121.646 99.8376 121.756L100.061 122.203ZM88.9122 127.712L88.4202 127.801C88.6563 129.103 89.0508 130.919 89.6304 132.344L90.0935 132.156L90.5567 131.967C90.018 130.643 89.638 128.912 89.4041 127.623L88.9122 127.712ZM90.0935 123.838L89.9373 123.364C89.3256 123.565 88.9135 123.895 88.6507 124.317C88.398 124.724 88.3105 125.174 88.2631 125.562L88.7594 125.623L89.2558 125.683C89.298 125.337 89.3644 125.063 89.4998 124.846C89.6251 124.644 89.8352 124.45 90.2498 124.313L90.0935 123.838ZM88.7594 125.623L88.2631 125.562C88.1933 126.136 88.2365 126.705 88.2934 127.121C88.3222 127.331 88.3552 127.508 88.3812 127.633C88.3943 127.695 88.4057 127.745 88.414 127.78C88.4181 127.797 88.4216 127.811 88.424 127.821C88.4253 127.826 88.4263 127.83 88.427 127.833C88.4274 127.835 88.4277 127.836 88.428 127.837C88.4281 127.837 88.4282 127.838 88.4283 127.838C88.4284 127.838 88.4284 127.838 88.4284 127.838C88.4285 127.839 88.4285 127.839 88.4285 127.839C88.4285 127.839 88.4285 127.839 88.9122 127.712C89.3958 127.585 89.3958 127.585 89.3958 127.585C89.3958 127.585 89.3958 127.585 89.3959 127.585C89.3959 127.585 89.3959 127.585 89.3959 127.585C89.3959 127.586 89.3959 127.586 89.3959 127.586C89.3959 127.586 89.3958 127.585 89.3957 127.585C89.3954 127.584 89.3949 127.581 89.3941 127.578C89.3926 127.572 89.3901 127.562 89.3869 127.549C89.3805 127.522 89.3712 127.481 89.3601 127.428C89.3379 127.322 89.3093 127.169 89.2842 126.986C89.2334 126.615 89.2003 126.139 89.2558 125.683L88.7594 125.623ZM90.7119 118.122L90.3844 117.744C89.4985 118.512 88.956 119.566 88.6812 120.654L89.166 120.776L89.6508 120.899C89.8886 119.957 90.3444 119.102 91.0395 118.5L90.7119 118.122ZM95.1535 135.14L94.6614 135.052C94.6523 135.102 94.4456 135.574 94.7048 136.104L95.1538 135.884L95.6029 135.664C95.5669 135.59 95.5702 135.557 95.5737 135.53C95.5768 135.507 95.5832 135.479 95.597 135.428C95.6083 135.387 95.6312 135.308 95.6455 135.229L95.1535 135.14ZM94.6281 126.214L95.086 126.013C94.8977 125.584 94.4761 125.306 94.0168 125.275L93.9824 125.774L93.948 126.272C94.0587 126.28 94.1403 126.347 94.1702 126.415L94.6281 126.214ZM93.9824 125.774L94.0172 125.275C93.4995 125.239 92.9821 125.52 92.7638 126.011L93.2207 126.214L93.6775 126.417C93.7127 126.338 93.8185 126.263 93.9475 126.272L93.9824 125.774ZM100.279 126.511L100.737 126.31C100.549 125.881 100.127 125.604 99.6676 125.572L99.6332 126.071L99.5988 126.57C99.7095 126.577 99.7912 126.644 99.8211 126.712L100.279 126.511ZM99.6332 126.071L99.6681 125.572C99.1503 125.536 98.633 125.817 98.4147 126.308L98.8715 126.511L99.3284 126.715C99.3636 126.635 99.4694 126.561 99.5983 126.57L99.6332 126.071ZM94.0176 131.445L93.5257 131.535C93.5391 131.608 93.7339 132.626 94.7311 133.035L94.9209 132.573L95.1106 132.11C94.8752 132.013 94.7275 131.842 94.6328 131.672C94.5363 131.499 94.5086 131.351 94.5096 131.356L94.0176 131.445ZM94.9209 132.573L94.7317 133.035C95.5873 133.385 96.3337 132.994 96.4356 132.939L96.1986 132.499L95.9615 132.059C95.9101 132.086 95.5242 132.279 95.11 132.11L94.9209 132.573ZM95.1538 135.884L94.8998 135.453C94.3254 135.792 93.7412 135.991 93.0944 135.985C92.4457 135.979 91.6855 135.765 90.7618 135.196L90.4994 135.621L90.2371 136.047C91.2751 136.687 92.2117 136.976 93.0846 136.985C93.9594 136.993 94.7215 136.719 95.4078 136.314L95.1538 135.884Z" fill="#03092D"/>
<path d="M90.5003 135.704C90.5003 135.704 85.0469 137.05 82.0734 138.648C81.5812 138.913 81.2596 139.4 81.1991 139.956C80.824 143.402 81.3239 149.652 81.3239 149.652L85.1903 147.272L86.0826 146.677V143.704L85.6593 140.578" stroke="#03092D" stroke-linecap="round" stroke-linejoin="round"/>
<path d="M95.2982 135.703C95.2982 135.703 99.2883 136.929 102.937 139.175C103.309 139.404 103.596 139.753 103.72 140.172C104.769 143.698 104.475 149.651 104.475 149.651L100.608 147.272L99.7159 146.677V143.704L98.4246 140.317" stroke="#03092D" stroke-linecap="round" stroke-linejoin="round"/>
<path d="M89.959 137.84C90.2939 138.305 90.8535 140.09 91.3011 146.613" stroke="#03092D" stroke-linecap="round" stroke-linejoin="round"/>
<path d="M94.7769 137.189C94.9784 137.448 95.9948 140.574 96.5875 146.888" stroke="#03092D" stroke-linecap="round" stroke-linejoin="round"/>
</g>
<rect x="58.2963" y="43.7685" width="100.496" height="18.2257" rx="2.42592" stroke="#03092D" stroke-width="0.774306"/>
<path d="M96.3352 56.3813V49.3813H99.1852C99.5652 49.3813 99.9086 49.478 100.215 49.6713C100.529 49.858 100.779 50.1147 100.965 50.4413C101.152 50.768 101.245 51.1313 101.245 51.5313C101.245 51.9313 101.152 52.2947 100.965 52.6213C100.779 52.948 100.529 53.2113 100.215 53.4113C99.9086 53.6047 99.5652 53.7013 99.1852 53.7013H97.4152V56.3813H96.3352ZM97.4152 52.6613H99.1652C99.3452 52.6613 99.5086 52.6113 99.6552 52.5113C99.8019 52.4047 99.9186 52.268 100.005 52.1013C100.099 51.928 100.145 51.738 100.145 51.5313C100.145 51.3247 100.099 51.138 100.005 50.9713C99.9186 50.8047 99.8019 50.6713 99.6552 50.5713C99.5086 50.4713 99.3452 50.4213 99.1652 50.4213H97.4152V52.6613ZM102.413 56.3813V48.9813H103.443V52.2113L103.263 52.3313C103.33 52.098 103.46 51.8847 103.653 51.6913C103.846 51.4913 104.076 51.3313 104.343 51.2113C104.61 51.0847 104.883 51.0213 105.163 51.0213C105.563 51.0213 105.896 51.1013 106.163 51.2613C106.43 51.4147 106.63 51.6513 106.763 51.9713C106.896 52.2913 106.963 52.6947 106.963 53.1813V56.3813H105.933V53.2513C105.933 52.9513 105.893 52.7047 105.813 52.5113C105.733 52.3113 105.61 52.168 105.443 52.0813C105.276 51.988 105.07 51.948 104.823 51.9613C104.623 51.9613 104.44 51.9947 104.273 52.0613C104.106 52.1213 103.96 52.208 103.833 52.3213C103.713 52.4347 103.616 52.568 103.543 52.7213C103.476 52.868 103.443 53.028 103.443 53.2013V56.3813H102.933C102.846 56.3813 102.76 56.3813 102.673 56.3813C102.586 56.3813 102.5 56.3813 102.413 56.3813ZM110.72 56.4813C110.207 56.4813 109.747 56.3647 109.34 56.1313C108.94 55.8913 108.624 55.568 108.39 55.1613C108.157 54.748 108.04 54.278 108.04 53.7513C108.04 53.2247 108.157 52.758 108.39 52.3513C108.624 51.938 108.94 51.6147 109.34 51.3813C109.747 51.1413 110.207 51.0213 110.72 51.0213C111.227 51.0213 111.68 51.1413 112.08 51.3813C112.487 51.6147 112.807 51.938 113.04 52.3513C113.274 52.758 113.39 53.2247 113.39 53.7513C113.39 54.278 113.274 54.748 113.04 55.1613C112.807 55.568 112.487 55.8913 112.08 56.1313C111.68 56.3647 111.227 56.4813 110.72 56.4813ZM110.72 55.5413C111.034 55.5413 111.314 55.4647 111.56 55.3113C111.807 55.1513 112 54.938 112.14 54.6713C112.28 54.398 112.347 54.0913 112.34 53.7513C112.347 53.4047 112.28 53.098 112.14 52.8313C112 52.558 111.807 52.3447 111.56 52.1913C111.314 52.038 111.034 51.9613 110.72 51.9613C110.407 51.9613 110.124 52.0413 109.87 52.2013C109.624 52.3547 109.43 52.568 109.29 52.8413C109.15 53.108 109.084 53.4113 109.09 53.7513C109.084 54.0913 109.15 54.398 109.29 54.6713C109.43 54.938 109.624 55.1513 109.87 55.3113C110.124 55.4647 110.407 55.5413 110.72 55.5413ZM115.163 56.3813V49.7913H116.193V56.3813H115.163ZM114.073 52.1313V51.1313H117.413V52.1313H114.073ZM120.662 56.4813C120.148 56.4813 119.688 56.3647 119.282 56.1313C118.882 55.8913 118.565 55.568 118.332 55.1613C118.098 54.748 117.982 54.278 117.982 53.7513C117.982 53.2247 118.098 52.758 118.332 52.3513C118.565 51.938 118.882 51.6147 119.282 51.3813C119.688 51.1413 120.148 51.0213 120.662 51.0213C121.168 51.0213 121.622 51.1413 122.022 51.3813C122.428 51.6147 122.748 51.938 122.982 52.3513C123.215 52.758 123.332 53.2247 123.332 53.7513C123.332 54.278 123.215 54.748 122.982 55.1613C122.748 55.568 122.428 55.8913 122.022 56.1313C121.622 56.3647 121.168 56.4813 120.662 56.4813ZM120.662 55.5413C120.975 55.5413 121.255 55.4647 121.502 55.3113C121.748 55.1513 121.942 54.938 122.082 54.6713C122.222 54.398 122.288 54.0913 122.282 53.7513C122.288 53.4047 122.222 53.098 122.082 52.8313C121.942 52.558 121.748 52.3447 121.502 52.1913C121.255 52.038 120.975 51.9613 120.662 51.9613C120.348 51.9613 120.065 52.0413 119.812 52.2013C119.565 52.3547 119.372 52.568 119.232 52.8413C119.092 53.108 119.025 53.4113 119.032 53.7513C119.025 54.0913 119.092 54.398 119.232 54.6713C119.372 54.938 119.565 55.1513 119.812 55.3113C120.065 55.4647 120.348 55.5413 120.662 55.5413Z" fill="#03092D"/>
</g>
<defs>
<linearGradient id="paint0_linear_1006_3320" x1="98.426" y1="116.086" x2="98.426" y2="179.604" gradientUnits="userSpaceOnUse">
<stop stop-color="#AEAEFF"/>
<stop offset="1" stop-color="white" stop-opacity="0.8"/>
</linearGradient>
<clipPath id="clip0_1006_3320">
<rect width="217" height="210" fill="white"/>
</clipPath>
<clipPath id="clip1_1006_3320">
<rect width="26.7661" height="33.5638" fill="white" transform="translate(80.2302 113.113)"/>
</clipPath>
</defs>
</svg>
