<svg width="217" height="210" viewBox="0 0 217 210" fill="none" xmlns="http://www.w3.org/2000/svg">
<g clip-path="url(#clip0_1006_3399)">
<g clip-path="url(#clip1_1006_3399)">
<path d="M88.9043 20.7441H180.644H186.14C192.176 20.7441 197.069 25.6372 197.069 31.6731V37.2099V45.8808H198.162V67.4655H197.069V71.5639V73.2032H198.162V83.859H197.069V214.721V227.364V228.395C197.069 234.431 192.176 239.324 186.14 239.324H182.683H92.0157H85.8055C78.4455 239.324 72.4792 233.357 72.4796 225.997V222.286V222.226V84.1322H71.1128V60.6349H72.4796V37.2099V31.6731C72.4796 25.6372 77.3726 20.7441 83.4085 20.7441H88.9043Z" fill="#E9EEF5" stroke="#03092D" stroke-linecap="round" stroke-linejoin="round"/>
<path d="M134.772 30.4587C133.632 30.4587 132.708 29.5344 132.708 28.3941C132.708 27.2539 133.632 26.3296 134.772 26.3296C135.912 26.3296 136.837 27.2539 136.837 28.3941C136.837 29.5344 135.912 30.4587 134.772 30.4587Z" fill="#03092D"/>
<path d="M192.697 40.9228V211.333V223.471V226.755C192.697 231.282 189.027 234.952 184.5 234.952H179.32H95.0154H85.0468C80.5197 234.952 76.8499 231.282 76.8501 226.755L76.8503 222.158V218.596V218.539V40.9228V33.3125C76.8503 28.7855 80.5201 25.1157 85.047 25.1157H92.1224H111.335C112.841 25.1157 114.061 26.3363 114.061 27.8419C114.061 32.3587 117.723 36.0204 122.24 36.0204H147.07C151.587 36.0204 155.248 32.3587 155.248 27.8419C155.248 26.3363 156.469 25.1157 157.975 25.1157H177.425H184.5C189.027 25.1157 192.697 28.7855 192.697 33.3125V40.9228Z" fill="#FAFAFA" stroke="#03092D" stroke-linecap="round" stroke-linejoin="round"/>
<path d="M101.658 83.4566L101.435 81.3091L101.284 77.2744C101.225 75.698 102.46 74.3748 104.037 74.3245L111.488 74.0876L111.528 74.0855C111.541 74.0845 111.563 74.0831 111.59 74.0812C111.645 74.0775 111.725 74.0719 111.83 74.0647C112.039 74.0503 112.343 74.0295 112.723 74.0032C113.483 73.9507 114.547 73.8762 115.762 73.7912C118.191 73.6212 121.223 73.4071 123.635 73.228C124.717 73.1476 125.674 73.1086 126.639 73.0696C127.602 73.0306 128.574 72.9915 129.676 72.9114C131.939 72.7467 133.195 72.727 135.484 72.607L144.211 72.1496C145.542 72.0799 146.678 73.1022 146.747 74.4331L146.957 78.4315C146.957 78.4403 146.957 78.4535 146.958 78.4706C146.959 78.5048 146.961 78.5557 146.963 78.6209C146.967 78.7514 146.974 78.9409 146.983 79.1773C147.001 79.6503 147.028 80.3113 147.062 81.0634C147.129 82.5662 147.227 84.4403 147.349 85.9047C147.407 86.608 147.425 87.1569 147.443 87.7166C147.462 88.277 147.48 88.8482 147.541 89.5793C147.672 91.1332 147.667 91.9812 147.75 93.5729L147.967 97.699C148.051 99.3013 146.792 100.661 145.18 100.716C144.156 100.751 143.064 100.795 142.154 100.846C141.137 100.904 139.84 101 138.799 101.082C138.278 101.123 137.821 101.16 137.493 101.187C137.33 101.2 137.198 101.211 137.108 101.218C137.062 101.222 137.027 101.225 137.003 101.227C136.992 101.228 136.983 101.229 136.977 101.229L125.332 101.84L125.331 101.84L125.33 101.84C125.329 101.84 125.328 101.841 125.326 101.841C125.323 101.841 125.317 101.841 125.311 101.842C125.297 101.843 125.276 101.845 125.248 101.847C125.193 101.851 125.111 101.859 125.006 101.867C124.795 101.885 124.488 101.909 124.105 101.94C123.339 102.002 122.269 102.087 121.051 102.179C118.613 102.364 115.586 102.578 113.222 102.698C110.812 102.82 107.647 102.917 105.306 102.98C103.779 103.021 102.502 101.841 102.419 100.315C102.332 98.7147 102.233 96.8058 102.168 95.2958C102.113 94.0147 102.054 92.3728 102.01 91.0502C101.988 90.3892 101.969 89.8082 101.956 89.3925C101.95 89.1847 101.944 89.018 101.94 88.9034C101.939 88.8462 101.937 88.8016 101.936 88.7716C101.936 88.7571 101.936 88.746 101.936 88.7384L101.66 83.482C101.66 83.4735 101.659 83.465 101.658 83.4566Z" fill="white" stroke="#03092D" stroke-linecap="round" stroke-linejoin="round"/>
<path d="M128.385 84.9639C128.385 84.9639 130.72 84.9024 133.101 84.7776C135.482 84.6528 140.58 84.3248 140.58 84.3248" stroke="#03092D" stroke-linecap="round" stroke-linejoin="round"/>
<path d="M128.569 89.7705C128.569 89.7705 129.944 89.6984 131.199 89.6327C132.151 89.5828 134.22 89.4743 134.22 89.4743" stroke="#03092D" stroke-linecap="round" stroke-linejoin="round"/>
<path d="M122.719 80.1731C123.288 80.1604 123.761 80.6069 123.782 81.1754L124.021 87.7188L124.021 87.7344L124.479 94.4755C124.519 95.0553 124.076 95.5557 123.495 95.5862L110.053 96.2907C109.499 96.3195 109.023 95.9103 108.97 95.3626C108.804 93.6466 108.541 90.7709 108.431 88.6717C108.32 86.5534 108.281 83.6322 108.268 81.9142C108.263 81.3769 108.674 80.9265 109.215 80.8808L115.749 80.3281L122.719 80.1731Z" fill="#3449FC" stroke="#03092D"/>
<g clip-path="url(#clip2_1006_3399)">
<path d="M116.69 91.0852L115.322 90.7812L115.259 89.5822L114.739 88.2568L114.285 86.7777L114.226 85.6536L114.783 84.7978L116.913 83.8596L117.82 82.5346L120.135 83.6907L120.79 84.7085L120.655 86.4439L120.383 88.4119L118.88 89.8433L117.558 90.4386L117.578 90.8133L116.69 91.0852Z" fill="#FFCEB6"/>
<path d="M115.419 90.1318C115.409 89.9422 116.825 91.1491 117.618 90.5063L117.638 90.8811L116.353 91.1341L115.48 90.7995C115.337 90.4564 115.431 90.3566 115.419 90.1318Z" fill="#F9AC8A"/>
<path d="M118.654 96.068C118.221 93.4423 117.458 92.4791 116.968 91.4343C116.896 91.2814 116.975 91.1031 117.133 91.0436L117.64 90.8526C117.696 90.8315 117.757 90.8276 117.815 90.8415L119.867 91.3299C119.897 91.3369 119.925 91.3483 119.951 91.3638L121.585 92.3336C121.647 92.3702 121.693 92.4278 121.716 92.4958L122.193 93.9107C122.202 93.9366 122.207 93.9636 122.209 93.991L122.303 95.783C122.31 95.9328 122.207 96.0654 122.059 96.0935L120.731 96.3476C120.685 96.3564 120.641 96.3276 120.63 96.2824C120.606 96.182 120.458 96.1995 120.459 96.3027L120.459 96.3732L118.943 96.3237C118.798 96.3189 118.677 96.2109 118.654 96.068Z" fill="#E1F0FF"/>
<path d="M117.216 91.0575C117.298 91.2035 117.458 91.661 117.732 92.3079C117.997 92.9321 118.381 94.983 118.608 96.4702L115.929 96.6106C115.487 95.3563 116.123 91.716 114.447 91.2778L115.255 90.9348L116.245 91.1835L117.216 91.0575Z" fill="white"/>
<path d="M117.361 92.9188C117.209 92.9856 116.775 93.1656 116.124 92.9492" stroke="#03092D" stroke-width="0.800712" stroke-linecap="round"/>
<path d="M113.231 96.5305L111.228 97.834L110.966 95.409L110.963 93.1871C110.962 92.9157 111.11 92.6657 111.348 92.5355L112.256 92.0394C112.292 92.0201 112.329 92.0037 112.367 91.9904L114.381 91.2843C114.733 91.1837 115.096 91.4077 115.163 91.7678L115.455 93.3292L116.014 96.5879L113.915 96.963C113.766 96.9897 113.628 96.8796 113.62 96.7283C113.61 96.5347 113.393 96.4247 113.231 96.5305Z" fill="#E1F0FF"/>
<path d="M120.713 85.1369C120.884 85.2554 121.283 85.475 121.511 85.405C121.363 85.3403 121.427 84.9415 121.549 84.7509C121.884 84.2261 121.85 83.5757 121.85 83.5757C121.817 83.4084 121.686 83.222 121.382 82.9481C121.092 82.6873 121.306 81.5027 118.617 81.3538C117.826 81.3513 116.717 80.6369 114.981 82.3094C114.614 82.6626 114.396 83.1393 114.297 83.6387C114.185 84.2087 114.06 84.8839 114.069 85.1429C114.082 85.5066 114.195 85.8045 114.223 86.0044C114.248 85.6447 114.336 85.2935 114.826 85.1033C116.002 84.6468 116.405 84.9344 117.494 83.4618C118.252 82.4366 119.435 83.5816 119.628 84.0545C119.863 83.9215 120.922 83.8418 120.713 85.1369Z" fill="#4B4D59"/>
<path d="M119.637 86.8077C119.639 86.8476 119.608 86.8816 119.568 86.8837C119.528 86.8858 119.494 86.8552 119.492 86.8153C119.49 86.7753 119.521 86.7413 119.561 86.7392C119.601 86.7371 119.635 86.7678 119.637 86.8077Z" fill="#4B4D59"/>
<path d="M116.878 86.8798C116.88 86.9197 116.849 86.9538 116.809 86.9558C116.77 86.9579 116.736 86.9273 116.733 86.8874C116.731 86.8475 116.762 86.8134 116.802 86.8113C116.842 86.8092 116.876 86.8399 116.878 86.8798Z" fill="#4B4D59"/>
<path d="M117.573 90.4666L117.581 90.0663C117.377 90.062 117.202 90.2131 117.176 90.4164L117.573 90.4666ZM119.057 89.7367L119.277 90.071L119.282 90.0678L119.057 89.7367ZM119.89 89.0408L120.191 89.3043V89.3043L119.89 89.0408ZM120.491 88.0673L120.146 87.8635L120.138 87.8782L120.13 87.8935L120.491 88.0673ZM120.713 85.1369L120.317 85.0732C120.312 85.1079 120.311 85.1432 120.314 85.1782L120.713 85.1369ZM115.038 89.1452L114.676 89.3152L114.676 89.3152L115.038 89.1452ZM115.321 90.0825L115.714 90.0067L115.714 90.0066L115.321 90.0825ZM115.324 90.8189L114.953 90.6675C114.876 90.8561 114.953 91.0726 115.132 91.1703L115.324 90.8189ZM121.511 85.405L121.628 85.7878C121.788 85.7387 121.901 85.5951 121.911 85.4278C121.92 85.2606 121.824 85.105 121.671 85.0381L121.511 85.405ZM121.549 84.7509L121.887 84.9663V84.9663L121.549 84.7509ZM121.85 83.5757L122.25 83.5548C122.249 83.5359 122.246 83.517 122.243 83.4985L121.85 83.5757ZM121.382 82.9481L121.65 82.6505L121.65 82.6505L121.382 82.9481ZM118.617 81.3538L118.639 80.9541C118.633 80.9537 118.626 80.9535 118.619 80.9535L118.617 81.3538ZM114.981 82.3094L115.259 82.5977V82.5977L114.981 82.3094ZM114.297 83.6387L114.69 83.7164V83.7164L114.297 83.6387ZM114.069 85.1429L114.469 85.1288L114.069 85.1429ZM114.223 86.0044L114.623 86.032L114.623 86.032L114.223 86.0044ZM114.826 85.1033L114.681 84.73L114.681 84.73L114.826 85.1033ZM117.494 83.4618L117.816 83.6998V83.6998L117.494 83.4618ZM119.628 84.0545L119.258 84.2064C119.302 84.3128 119.389 84.3953 119.498 84.4329C119.606 84.4705 119.726 84.4595 119.826 84.4027L119.628 84.0545ZM114.351 87.0157L114.74 86.9237C114.738 86.9137 114.735 86.9038 114.732 86.8939L114.351 87.0157ZM117.592 90.8279L117.813 91.1617C117.988 91.0462 118.044 90.816 117.942 90.6333L117.592 90.8279ZM116.733 86.322C116.832 86.5195 117.073 86.5991 117.27 86.4998C117.468 86.4005 117.547 86.1599 117.448 85.9623L117.09 86.1421L116.733 86.322ZM116.765 85.9446L116.758 86.3449L116.759 86.3449L116.765 85.9446ZM116.033 86.0346C115.953 86.2411 116.057 86.4726 116.263 86.5518C116.469 86.631 116.701 86.5278 116.78 86.3213L116.406 86.178L116.033 86.0346ZM119.486 86.3226C119.586 86.5201 119.826 86.5998 120.024 86.5005C120.221 86.4011 120.301 86.1605 120.202 85.9629L119.844 86.1427L119.486 86.3226ZM119.519 85.9452L119.512 86.3455L119.512 86.3455L119.519 85.9452ZM118.786 86.0352C118.707 86.2417 118.81 86.4732 119.017 86.5524C119.223 86.6316 119.455 86.5284 119.534 86.3219L119.16 86.1786L118.786 86.0352ZM117.317 88.6078C117.266 88.3926 117.05 88.2594 116.835 88.3103C116.62 88.3612 116.486 88.5769 116.537 88.792L116.927 88.6999L117.317 88.6078ZM117.395 89.2247L117.262 89.6026L117.263 89.6027L117.395 89.2247ZM118.222 89.4984C118.411 89.3836 118.471 89.1373 118.356 88.9484C118.241 88.7594 117.995 88.6994 117.806 88.8143L118.014 89.1564L118.222 89.4984ZM118.521 88.0715L118.379 87.6972L118.379 87.6972L118.521 88.0715ZM118.514 87.7561L118.148 87.9171V87.9171L118.514 87.7561ZM117.573 90.4666L117.565 90.8669C117.671 90.8691 117.774 90.8454 117.855 90.8213C117.942 90.7956 118.032 90.7607 118.119 90.7228C118.293 90.6469 118.48 90.548 118.648 90.4533C118.818 90.3577 118.974 90.2625 119.088 90.1914C119.145 90.1558 119.192 90.126 119.225 90.105C119.241 90.0945 119.254 90.0861 119.263 90.0803C119.267 90.0774 119.271 90.0752 119.273 90.0736C119.274 90.0728 119.275 90.0722 119.276 90.0717C119.276 90.0715 119.276 90.0713 119.277 90.0712C119.277 90.0711 119.277 90.0711 119.277 90.071C119.277 90.071 119.277 90.071 119.277 90.071C119.277 90.0709 119.277 90.0709 119.057 89.7367C118.836 89.4024 118.836 89.4024 118.836 89.4024C118.836 89.4024 118.836 89.4024 118.836 89.4024C118.836 89.4024 118.836 89.4024 118.836 89.4024C118.836 89.4025 118.836 89.4026 118.836 89.4027C118.836 89.4029 118.835 89.4034 118.834 89.404C118.832 89.4052 118.829 89.4071 118.825 89.4096C118.818 89.4146 118.806 89.4221 118.791 89.4317C118.761 89.451 118.718 89.4788 118.664 89.5122C118.557 89.5792 118.411 89.6679 118.255 89.7558C118.098 89.8445 117.937 89.9285 117.799 89.9888C117.73 90.0189 117.672 90.0404 117.628 90.0536C117.578 90.0684 117.566 90.066 117.581 90.0663L117.573 90.4666ZM119.057 89.7367C119.282 90.0678 119.282 90.0677 119.282 90.0677C119.282 90.0677 119.282 90.0677 119.282 90.0677C119.282 90.0676 119.282 90.0676 119.282 90.0676C119.282 90.0675 119.282 90.0673 119.283 90.0672C119.283 90.0669 119.284 90.0666 119.284 90.0661C119.286 90.0652 119.287 90.0639 119.29 90.0623C119.294 90.059 119.301 90.0544 119.31 90.0485C119.327 90.0366 119.351 90.0197 119.381 89.9984C119.44 89.9559 119.522 89.8959 119.613 89.8252C119.791 89.6883 120.025 89.4947 120.191 89.3043L119.89 89.0408L119.588 88.7773C119.476 88.9061 119.293 89.0604 119.124 89.1917C119.042 89.2551 118.968 89.3091 118.915 89.3473C118.888 89.3663 118.867 89.3812 118.852 89.3912C118.845 89.3962 118.84 89.4 118.836 89.4024C118.834 89.4037 118.833 89.4045 118.832 89.4051C118.832 89.4053 118.832 89.4055 118.832 89.4056C118.832 89.4056 118.831 89.4056 118.831 89.4056C118.831 89.4056 118.832 89.4056 118.832 89.4056C118.832 89.4056 118.832 89.4056 118.832 89.4056C118.832 89.4056 118.832 89.4056 119.057 89.7367ZM119.89 89.0408L120.191 89.3043C120.367 89.1036 120.533 88.8301 120.649 88.6245C120.709 88.5184 120.759 88.4235 120.794 88.355C120.812 88.3207 120.826 88.2929 120.836 88.2733C120.841 88.2635 120.844 88.2558 120.847 88.2503C120.848 88.2476 120.849 88.2455 120.85 88.2439C120.851 88.2431 120.851 88.2425 120.851 88.2421C120.851 88.2418 120.851 88.2416 120.851 88.2415C120.851 88.2414 120.851 88.2413 120.852 88.2413C120.852 88.2412 120.852 88.2412 120.852 88.2412C120.852 88.2411 120.852 88.2411 120.491 88.0673C120.13 87.8935 120.13 87.8934 120.13 87.8934C120.13 87.8934 120.13 87.8934 120.13 87.8934C120.13 87.8933 120.13 87.8933 120.13 87.8933C120.13 87.8933 120.13 87.8934 120.13 87.8934C120.13 87.8936 120.13 87.8939 120.13 87.8943C120.129 87.8952 120.129 87.8967 120.128 87.8987C120.126 87.9028 120.123 87.9091 120.119 87.9174C120.11 87.9339 120.098 87.9585 120.082 87.9892C120.051 88.0507 120.006 88.1361 119.952 88.2312C119.841 88.4284 119.707 88.6417 119.588 88.7773L119.89 89.0408ZM120.491 88.0673C120.836 88.271 120.836 88.2708 120.836 88.2705C120.836 88.2704 120.836 88.2702 120.836 88.27C120.836 88.2696 120.837 88.2693 120.837 88.2689C120.837 88.2681 120.838 88.2673 120.838 88.2665C120.839 88.2648 120.84 88.2629 120.841 88.2608C120.844 88.2566 120.847 88.2516 120.85 88.2459C120.856 88.2343 120.863 88.2197 120.872 88.2017C120.889 88.1657 120.91 88.1165 120.933 88.0528C120.98 87.9255 121.034 87.7408 121.08 87.489C121.171 86.9855 121.227 86.2145 121.111 85.0957L120.713 85.1369L120.314 85.1782C120.424 86.234 120.368 86.9281 120.292 87.3461C120.254 87.5551 120.211 87.6953 120.181 87.7776C120.166 87.8188 120.154 87.8456 120.148 87.8594C120.144 87.8664 120.143 87.87 120.142 87.8707C120.142 87.871 120.142 87.8705 120.143 87.8693C120.143 87.8687 120.144 87.8679 120.144 87.867C120.145 87.8665 120.145 87.866 120.145 87.8654C120.145 87.8651 120.146 87.8648 120.146 87.8645C120.146 87.8643 120.146 87.8641 120.146 87.864C120.146 87.8638 120.146 87.8635 120.491 88.0673ZM115.038 89.1452C114.676 89.3152 114.676 89.3152 114.676 89.3151C114.676 89.3151 114.676 89.315 114.676 89.315C114.675 89.3149 114.675 89.3149 114.675 89.3148C114.675 89.3147 114.675 89.3146 114.675 89.3145C114.675 89.3143 114.675 89.3143 114.675 89.3143C114.675 89.3143 114.675 89.3147 114.676 89.3155C114.676 89.3169 114.678 89.3198 114.679 89.3239C114.683 89.3322 114.689 89.3458 114.697 89.3644C114.712 89.4016 114.734 89.4585 114.76 89.5326C114.812 89.6809 114.877 89.8964 114.928 90.1584L115.321 90.0825L115.714 90.0066C115.655 89.7001 115.578 89.4468 115.516 89.2687C115.485 89.1795 115.457 89.1086 115.437 89.0589C115.427 89.034 115.418 89.0144 115.412 89.0003C115.409 88.9933 115.406 88.9876 115.404 88.9834C115.403 88.9813 115.403 88.9796 115.402 88.9782C115.402 88.9775 115.401 88.9769 115.401 88.9764C115.401 88.9761 115.401 88.9759 115.401 88.9757C115.401 88.9755 115.401 88.9754 115.401 88.9754C115.401 88.9753 115.401 88.9752 115.401 88.9752C115.401 88.9752 115.4 88.9751 115.038 89.1452ZM115.321 90.0825L114.928 90.1583C115.007 90.5667 114.96 90.65 114.953 90.6675L115.324 90.8189L115.694 90.9704C115.784 90.7509 115.808 90.4916 115.714 90.0067L115.321 90.0825ZM120.713 85.1369L120.485 85.466C120.589 85.5384 120.757 85.6383 120.939 85.7124C121.031 85.7497 121.136 85.7846 121.245 85.8037C121.351 85.8221 121.488 85.8308 121.628 85.7878L121.511 85.405L121.394 85.0222C121.42 85.0143 121.422 85.0217 121.383 85.0149C121.348 85.0088 121.3 84.9946 121.241 84.9709C121.124 84.9231 121.007 84.854 120.941 84.8079L120.713 85.1369ZM121.511 85.405L121.671 85.0381C121.794 85.0919 121.823 85.194 121.825 85.2015C121.828 85.2142 121.823 85.2038 121.827 85.1642C121.831 85.1288 121.839 85.0869 121.852 85.0465C121.866 85.0046 121.879 84.9775 121.887 84.9663L121.549 84.7509L121.212 84.5356C121.11 84.6942 121.048 84.905 121.03 85.0862C121.021 85.1782 121.021 85.2916 121.05 85.4032C121.077 85.5096 121.153 85.6858 121.351 85.772L121.511 85.405ZM121.549 84.7509L121.887 84.9663C122.095 84.6388 122.183 84.284 122.221 84.0244C122.24 83.8924 122.248 83.779 122.25 83.6973C122.251 83.6564 122.251 83.623 122.251 83.5988C122.251 83.5867 122.25 83.5768 122.25 83.5694C122.25 83.5657 122.25 83.5627 122.25 83.5602C122.25 83.559 122.25 83.5579 122.25 83.557C122.25 83.5566 122.25 83.5561 122.25 83.5558C122.25 83.5556 122.25 83.5554 122.25 83.5553C122.25 83.5552 122.25 83.5551 122.25 83.555C122.25 83.5549 122.25 83.5548 121.85 83.5757C121.45 83.5967 121.45 83.5966 121.45 83.5965C121.45 83.5965 121.45 83.5964 121.45 83.5963C121.45 83.5962 121.45 83.596 121.45 83.5959C121.45 83.5957 121.45 83.5956 121.45 83.5954C121.45 83.5951 121.45 83.595 121.45 83.595C121.45 83.5951 121.45 83.5957 121.45 83.5969C121.45 83.5993 121.45 83.6039 121.45 83.6106C121.45 83.624 121.451 83.6456 121.45 83.6738C121.448 83.7305 121.443 83.8125 121.429 83.9087C121.4 84.1055 121.337 84.3383 121.212 84.5356L121.549 84.7509ZM121.85 83.5757L122.243 83.4985C122.182 83.1927 121.961 82.9304 121.65 82.6505L121.382 82.9481L121.114 83.2456C121.412 83.5136 121.451 83.624 121.457 83.653L121.85 83.5757ZM121.382 82.9481L121.65 82.6505C121.674 82.6726 121.674 82.6848 121.653 82.6404C121.63 82.5928 121.614 82.5488 121.575 82.4556C121.506 82.2888 121.4 82.0621 121.194 81.8383C120.776 81.3825 120.036 81.0314 118.639 80.9541L118.617 81.3538L118.595 81.7536C119.888 81.8252 120.385 82.1409 120.605 82.3797C120.718 82.5033 120.781 82.6309 120.837 82.7642C120.86 82.8211 120.896 82.9135 120.928 82.9813C120.962 83.0521 121.017 83.1583 121.114 83.2456L121.382 82.9481ZM118.617 81.3538L118.619 80.9535C118.464 80.953 118.294 80.9176 118.026 80.8722C117.777 80.8297 117.475 80.7863 117.133 80.8037C116.428 80.8395 115.629 81.1292 114.703 82.021L114.981 82.3094L115.259 82.5977C116.069 81.8171 116.692 81.6278 117.174 81.6033C117.425 81.5905 117.657 81.6217 117.892 81.6616C118.11 81.6985 118.375 81.7534 118.616 81.7542L118.617 81.3538ZM114.297 83.6387L113.905 83.5611C113.848 83.8471 113.788 84.1639 113.743 84.4435C113.699 84.7094 113.663 84.9817 113.669 85.157L114.069 85.1429L114.469 85.1288C114.466 85.0451 114.488 84.8503 114.533 84.5714C114.576 84.3061 114.634 84.0003 114.69 83.7164L114.297 83.6387ZM114.069 85.1429L113.669 85.157C113.677 85.3755 113.714 85.569 113.75 85.7247C113.791 85.9014 113.816 85.9829 113.827 86.0615L114.223 86.0044L114.62 85.9474C114.602 85.826 114.557 85.6586 114.531 85.5454C114.5 85.4113 114.475 85.274 114.469 85.1288L114.069 85.1429ZM114.826 85.1033L114.971 85.4765C115.244 85.3705 115.473 85.3074 115.692 85.2475C115.906 85.1888 116.131 85.1286 116.354 85.0299C116.827 84.8216 117.25 84.465 117.816 83.6998L117.494 83.4618L117.172 83.2239C116.649 83.9312 116.326 84.1672 116.031 84.2973C115.871 84.3678 115.706 84.4134 115.481 84.4751C115.259 84.5356 114.996 84.6078 114.681 84.73L114.826 85.1033ZM117.494 83.4618L117.816 83.6998C117.95 83.5183 118.074 83.4654 118.173 83.4523C118.285 83.4373 118.425 83.4662 118.587 83.551C118.747 83.635 118.903 83.7606 119.03 83.894C119.161 84.0323 119.235 84.1512 119.258 84.2064L119.628 84.0545L119.999 83.9027C119.925 83.7214 119.779 83.5198 119.61 83.3424C119.437 83.1602 119.213 82.975 118.958 82.8417C118.706 82.7094 118.396 82.6146 118.067 82.6586C117.725 82.7043 117.417 82.8928 117.172 83.2239L117.494 83.4618ZM119.628 84.0545L119.826 84.4027C119.811 84.4111 119.853 84.3895 119.945 84.3853C120.027 84.3815 120.107 84.3944 120.167 84.4228C120.22 84.4474 120.265 84.4854 120.296 84.5596C120.331 84.6418 120.362 84.798 120.317 85.0732L120.713 85.1369L121.108 85.2007C121.168 84.8284 121.145 84.5088 121.033 84.2458C120.917 83.9748 120.722 83.7983 120.507 83.6975C120.299 83.6006 120.083 83.5774 119.908 83.5854C119.741 83.5931 119.563 83.6314 119.431 83.7063L119.628 84.0545ZM114.351 87.0157L113.961 87.1077C114.109 87.7362 114.35 88.6219 114.676 89.3152L115.038 89.1452L115.401 88.9751C115.112 88.3606 114.886 87.5422 114.74 86.9237L114.351 87.0157ZM114.826 85.1033L114.681 84.73C114.359 84.8552 114.136 85.0491 114 85.2969C113.87 85.5314 113.838 85.7801 113.824 85.9769L114.223 86.0044L114.623 86.032C114.634 85.869 114.657 85.7623 114.701 85.6837C114.737 85.6184 114.803 85.5416 114.971 85.4765L114.826 85.1033ZM114.223 86.0044L113.824 85.9769C113.803 86.2759 113.841 86.566 113.881 86.7738C113.901 86.8794 113.922 86.9679 113.939 87.0307C113.947 87.0623 113.954 87.0876 113.96 87.1057C113.962 87.1147 113.965 87.122 113.966 87.1273C113.967 87.13 113.968 87.1322 113.968 87.1339C113.969 87.1347 113.969 87.1354 113.969 87.136C113.969 87.1363 113.969 87.1366 113.969 87.1368C113.969 87.137 113.969 87.1371 113.969 87.1372C113.969 87.1372 113.969 87.1373 113.969 87.1373C113.969 87.1374 113.969 87.1375 114.351 87.0157C114.732 86.8939 114.732 86.894 114.732 86.8941C114.732 86.8941 114.732 86.8941 114.732 86.8942C114.732 86.8943 114.732 86.8943 114.732 86.8944C114.732 86.8945 114.732 86.8946 114.732 86.8946C114.732 86.8947 114.732 86.8947 114.732 86.8946C114.732 86.8943 114.732 86.8936 114.732 86.8924C114.731 86.8901 114.73 86.8859 114.728 86.8801C114.725 86.8685 114.719 86.8502 114.713 86.8262C114.7 86.7782 114.683 86.7082 114.667 86.6239C114.635 86.4519 114.609 86.2363 114.623 86.032L114.223 86.0044ZM114.981 82.3094L114.703 82.021C114.264 82.4444 114.015 83.0025 113.905 83.5611L114.297 83.6387L114.69 83.7164C114.777 83.2761 114.965 82.8808 115.259 82.5977L114.981 82.3094ZM117.573 90.4666L117.176 90.4164C117.179 90.3912 117.07 90.7126 117.242 91.0226L117.592 90.8279L117.942 90.6333C117.938 90.6259 117.94 90.6278 117.942 90.6373C117.944 90.6471 117.944 90.6553 117.944 90.658C117.944 90.6586 117.944 90.6571 117.945 90.6523C117.945 90.6472 117.947 90.6404 117.949 90.6288C117.951 90.6196 117.956 90.6009 117.959 90.5845C117.963 90.5664 117.967 90.5431 117.97 90.5168L117.573 90.4666ZM117.09 86.1421L117.448 85.9623C117.318 85.7033 117.051 85.5489 116.772 85.5443L116.765 85.9446L116.759 86.3449C116.756 86.3449 116.753 86.3442 116.75 86.342C116.746 86.3398 116.739 86.334 116.733 86.322L117.09 86.1421ZM116.765 85.9446L116.772 85.5443C116.459 85.5388 116.151 85.7245 116.033 86.0346L116.406 86.178L116.78 86.3213C116.775 86.3359 116.767 86.3418 116.765 86.3431C116.763 86.3443 116.761 86.3449 116.758 86.3449L116.765 85.9446ZM119.844 86.1427L120.202 85.9629C120.072 85.7039 119.805 85.5495 119.526 85.5449L119.519 85.9452L119.512 86.3455C119.51 86.3455 119.507 86.3449 119.503 86.3426C119.5 86.3404 119.492 86.3346 119.486 86.3226L119.844 86.1427ZM119.519 85.9452L119.526 85.5449C119.212 85.5395 118.905 85.7251 118.786 86.0352L119.16 86.1786L119.534 86.3219C119.528 86.3365 119.52 86.3424 119.518 86.3437C119.517 86.3449 119.515 86.3456 119.512 86.3455L119.519 85.9452ZM116.927 88.6999L116.537 88.792C116.547 88.8336 116.684 89.4001 117.262 89.6026L117.395 89.2247L117.527 88.8469C117.453 88.821 117.402 88.7704 117.365 88.7109C117.326 88.6488 117.314 88.5953 117.317 88.6078L116.927 88.6999ZM117.395 89.2247L117.263 89.6027C117.758 89.7755 118.166 89.5324 118.222 89.4984L118.014 89.1564L117.806 88.8143C117.805 88.8144 117.803 88.8157 117.799 88.818C117.795 88.8203 117.788 88.8237 117.78 88.8276C117.762 88.8355 117.738 88.8448 117.71 88.8519C117.654 88.8661 117.592 88.8694 117.526 88.8467L117.395 89.2247ZM118.521 88.0715L118.379 87.6972C118.408 87.6861 118.426 87.6869 118.42 87.687C118.414 87.6871 118.399 87.6864 118.366 87.6825C118.343 87.6797 118.288 87.6722 118.245 87.6682C118.197 87.6637 118.133 87.6598 118.063 87.6661L118.1 88.0648L118.136 88.4636C118.136 88.4636 118.144 88.4629 118.17 88.4653C118.201 88.4683 118.221 88.4715 118.271 88.4775C118.337 88.4853 118.501 88.5073 118.663 88.4458L118.521 88.0715ZM118.514 87.7561L118.881 87.5952C118.881 87.5946 118.878 87.5894 118.877 87.5774C118.875 87.5652 118.873 87.545 118.875 87.5151C118.878 87.4542 118.896 87.357 118.951 87.2142L118.577 87.0703L118.204 86.9264C118.053 87.319 118.031 87.6503 118.148 87.9171L118.514 87.7561ZM118.521 88.0715L118.663 88.4458C118.79 88.3974 118.897 88.3003 118.95 88.1635C118.995 88.046 118.986 87.937 118.975 87.8735C118.955 87.754 118.898 87.6336 118.881 87.5952L118.514 87.7561L118.148 87.9171C118.162 87.9496 118.171 87.9703 118.179 87.9907C118.187 88.0116 118.187 88.015 118.185 88.0065C118.185 88.0021 118.175 87.9478 118.203 87.8757C118.218 87.8363 118.243 87.7963 118.278 87.762C118.313 87.7282 118.35 87.7083 118.379 87.6972L118.521 88.0715ZM116.878 86.8798L116.478 86.9007C116.469 86.7198 116.608 86.5655 116.789 86.556L116.809 86.9558L116.83 87.3557C117.091 87.342 117.291 87.1196 117.278 86.8588L116.878 86.8798ZM116.809 86.9558L116.789 86.556C116.969 86.5466 117.124 86.6855 117.133 86.8664L116.733 86.8874L116.334 86.9083C116.347 87.169 116.57 87.3693 116.83 87.3557L116.809 86.9558ZM116.733 86.8874L117.133 86.8664C117.143 87.0473 117.004 87.2016 116.823 87.2111L116.802 86.8113L116.781 86.4115C116.52 86.4252 116.32 86.6476 116.334 86.9083L116.733 86.8874ZM116.802 86.8113L116.823 87.2111C116.642 87.2206 116.488 87.0817 116.478 86.9007L116.878 86.8798L117.278 86.8588C117.264 86.5981 117.042 86.3978 116.781 86.4115L116.802 86.8113ZM119.637 86.8077L119.237 86.8286C119.227 86.6477 119.366 86.4934 119.547 86.4839L119.568 86.8837L119.589 87.2835C119.85 87.2699 120.05 87.0474 120.036 86.7867L119.637 86.8077ZM119.568 86.8837L119.547 86.4839C119.728 86.4744 119.882 86.6134 119.892 86.7943L119.492 86.8153L119.092 86.8362C119.106 87.0969 119.328 87.2972 119.589 87.2835L119.568 86.8837ZM119.492 86.8153L119.892 86.7943C119.901 86.9752 119.762 87.1295 119.582 87.139L119.561 86.7392L119.54 86.3394C119.279 86.3531 119.079 86.5755 119.092 86.8362L119.492 86.8153ZM119.561 86.7392L119.582 87.139C119.401 87.1485 119.246 87.0095 119.237 86.8286L119.637 86.8077L120.036 86.7867C120.023 86.526 119.8 86.3257 119.54 86.3394L119.561 86.7392ZM117.592 90.8279L117.371 90.4942C117.117 90.6622 116.866 90.7607 116.587 90.7726C116.307 90.7846 115.96 90.7106 115.516 90.4676L115.324 90.8189L115.132 91.1703C115.671 91.4649 116.162 91.5922 116.621 91.5726C117.082 91.5529 117.473 91.3871 117.813 91.1617L117.592 90.8279Z" fill="url(#paint0_linear_1006_3399)"/>
<path d="M117.573 90.4666L117.581 90.0663C117.377 90.062 117.202 90.2131 117.176 90.4164L117.573 90.4666ZM119.057 89.7367L119.277 90.071L119.282 90.0678L119.057 89.7367ZM119.89 89.0408L120.191 89.3043V89.3043L119.89 89.0408ZM120.491 88.0673L120.146 87.8635L120.138 87.8782L120.13 87.8935L120.491 88.0673ZM120.713 85.1369L120.317 85.0732C120.312 85.1079 120.311 85.1432 120.314 85.1782L120.713 85.1369ZM115.038 89.1452L114.676 89.3152L114.676 89.3152L115.038 89.1452ZM115.321 90.0825L115.714 90.0067L115.714 90.0066L115.321 90.0825ZM115.324 90.8189L114.953 90.6675C114.876 90.8561 114.953 91.0726 115.132 91.1703L115.324 90.8189ZM121.511 85.405L121.628 85.7878C121.788 85.7387 121.901 85.5951 121.911 85.4278C121.92 85.2606 121.824 85.105 121.671 85.0381L121.511 85.405ZM121.549 84.7509L121.887 84.9663V84.9663L121.549 84.7509ZM121.85 83.5757L122.25 83.5548C122.249 83.5359 122.246 83.517 122.243 83.4985L121.85 83.5757ZM121.382 82.9481L121.65 82.6505L121.65 82.6505L121.382 82.9481ZM118.617 81.3538L118.639 80.9541C118.633 80.9537 118.626 80.9535 118.619 80.9535L118.617 81.3538ZM114.981 82.3094L115.259 82.5977V82.5977L114.981 82.3094ZM114.297 83.6387L114.69 83.7164V83.7164L114.297 83.6387ZM114.069 85.1429L114.469 85.1288L114.069 85.1429ZM114.223 86.0044L114.623 86.032L114.623 86.032L114.223 86.0044ZM114.826 85.1033L114.681 84.73L114.681 84.73L114.826 85.1033ZM117.494 83.4618L117.816 83.6998V83.6998L117.494 83.4618ZM119.628 84.0545L119.258 84.2064C119.302 84.3128 119.389 84.3953 119.498 84.4329C119.606 84.4705 119.726 84.4595 119.826 84.4027L119.628 84.0545ZM114.351 87.0157L114.74 86.9237C114.738 86.9137 114.735 86.9038 114.732 86.8939L114.351 87.0157ZM117.592 90.8279L117.813 91.1617C117.988 91.0462 118.044 90.816 117.942 90.6333L117.592 90.8279ZM116.733 86.322C116.832 86.5195 117.073 86.5991 117.27 86.4998C117.468 86.4005 117.547 86.1599 117.448 85.9623L117.09 86.1421L116.733 86.322ZM116.765 85.9446L116.758 86.3449L116.759 86.3449L116.765 85.9446ZM116.033 86.0346C115.953 86.2411 116.057 86.4726 116.263 86.5518C116.469 86.631 116.701 86.5278 116.78 86.3213L116.406 86.178L116.033 86.0346ZM119.486 86.3226C119.586 86.5201 119.826 86.5998 120.024 86.5005C120.221 86.4011 120.301 86.1605 120.202 85.9629L119.844 86.1427L119.486 86.3226ZM119.519 85.9452L119.512 86.3455L119.512 86.3455L119.519 85.9452ZM118.786 86.0352C118.707 86.2417 118.81 86.4732 119.017 86.5524C119.223 86.6316 119.455 86.5284 119.534 86.3219L119.16 86.1786L118.786 86.0352ZM117.317 88.6078C117.266 88.3926 117.05 88.2594 116.835 88.3103C116.62 88.3612 116.486 88.5769 116.537 88.792L116.927 88.6999L117.317 88.6078ZM117.395 89.2247L117.262 89.6026L117.263 89.6027L117.395 89.2247ZM118.222 89.4984C118.411 89.3836 118.471 89.1373 118.356 88.9484C118.241 88.7594 117.995 88.6994 117.806 88.8143L118.014 89.1564L118.222 89.4984ZM118.521 88.0715L118.379 87.6972L118.379 87.6972L118.521 88.0715ZM118.514 87.7561L118.148 87.9171V87.9171L118.514 87.7561ZM117.573 90.4666L117.565 90.8669C117.671 90.8691 117.774 90.8454 117.855 90.8213C117.942 90.7956 118.032 90.7607 118.119 90.7228C118.293 90.6469 118.48 90.548 118.648 90.4533C118.818 90.3577 118.974 90.2625 119.088 90.1914C119.145 90.1558 119.192 90.126 119.225 90.105C119.241 90.0945 119.254 90.0861 119.263 90.0803C119.267 90.0774 119.271 90.0752 119.273 90.0736C119.274 90.0728 119.275 90.0722 119.276 90.0717C119.276 90.0715 119.276 90.0713 119.277 90.0712C119.277 90.0711 119.277 90.0711 119.277 90.071C119.277 90.071 119.277 90.071 119.277 90.071C119.277 90.0709 119.277 90.0709 119.057 89.7367C118.836 89.4024 118.836 89.4024 118.836 89.4024C118.836 89.4024 118.836 89.4024 118.836 89.4024C118.836 89.4024 118.836 89.4024 118.836 89.4024C118.836 89.4025 118.836 89.4026 118.836 89.4027C118.836 89.4029 118.835 89.4034 118.834 89.404C118.832 89.4052 118.829 89.4071 118.825 89.4096C118.818 89.4146 118.806 89.4221 118.791 89.4317C118.761 89.451 118.718 89.4788 118.664 89.5122C118.557 89.5792 118.411 89.6679 118.255 89.7558C118.098 89.8445 117.937 89.9285 117.799 89.9888C117.73 90.0189 117.672 90.0404 117.628 90.0536C117.578 90.0684 117.566 90.066 117.581 90.0663L117.573 90.4666ZM119.057 89.7367C119.282 90.0678 119.282 90.0677 119.282 90.0677C119.282 90.0677 119.282 90.0677 119.282 90.0677C119.282 90.0676 119.282 90.0676 119.282 90.0676C119.282 90.0675 119.282 90.0673 119.283 90.0672C119.283 90.0669 119.284 90.0666 119.284 90.0661C119.286 90.0652 119.287 90.0639 119.29 90.0623C119.294 90.059 119.301 90.0544 119.31 90.0485C119.327 90.0366 119.351 90.0197 119.381 89.9984C119.44 89.9559 119.522 89.8959 119.613 89.8252C119.791 89.6883 120.025 89.4947 120.191 89.3043L119.89 89.0408L119.588 88.7773C119.476 88.9061 119.293 89.0604 119.124 89.1917C119.042 89.2551 118.968 89.3091 118.915 89.3473C118.888 89.3663 118.867 89.3812 118.852 89.3912C118.845 89.3962 118.84 89.4 118.836 89.4024C118.834 89.4037 118.833 89.4045 118.832 89.4051C118.832 89.4053 118.832 89.4055 118.832 89.4056C118.832 89.4056 118.831 89.4056 118.831 89.4056C118.831 89.4056 118.832 89.4056 118.832 89.4056C118.832 89.4056 118.832 89.4056 118.832 89.4056C118.832 89.4056 118.832 89.4056 119.057 89.7367ZM119.89 89.0408L120.191 89.3043C120.367 89.1036 120.533 88.8301 120.649 88.6245C120.709 88.5184 120.759 88.4235 120.794 88.355C120.812 88.3207 120.826 88.2929 120.836 88.2733C120.841 88.2635 120.844 88.2558 120.847 88.2503C120.848 88.2476 120.849 88.2455 120.85 88.2439C120.851 88.2431 120.851 88.2425 120.851 88.2421C120.851 88.2418 120.851 88.2416 120.851 88.2415C120.851 88.2414 120.851 88.2413 120.852 88.2413C120.852 88.2412 120.852 88.2412 120.852 88.2412C120.852 88.2411 120.852 88.2411 120.491 88.0673C120.13 87.8935 120.13 87.8934 120.13 87.8934C120.13 87.8934 120.13 87.8934 120.13 87.8934C120.13 87.8933 120.13 87.8933 120.13 87.8933C120.13 87.8933 120.13 87.8934 120.13 87.8934C120.13 87.8936 120.13 87.8939 120.13 87.8943C120.129 87.8952 120.129 87.8967 120.128 87.8987C120.126 87.9028 120.123 87.9091 120.119 87.9174C120.11 87.9339 120.098 87.9585 120.082 87.9892C120.051 88.0507 120.006 88.1361 119.952 88.2312C119.841 88.4284 119.707 88.6417 119.588 88.7773L119.89 89.0408ZM120.491 88.0673C120.836 88.271 120.836 88.2708 120.836 88.2705C120.836 88.2704 120.836 88.2702 120.836 88.27C120.836 88.2696 120.837 88.2693 120.837 88.2689C120.837 88.2681 120.838 88.2673 120.838 88.2665C120.839 88.2648 120.84 88.2629 120.841 88.2608C120.844 88.2566 120.847 88.2516 120.85 88.2459C120.856 88.2343 120.863 88.2197 120.872 88.2017C120.889 88.1657 120.91 88.1165 120.933 88.0528C120.98 87.9255 121.034 87.7408 121.08 87.489C121.171 86.9855 121.227 86.2145 121.111 85.0957L120.713 85.1369L120.314 85.1782C120.424 86.234 120.368 86.9281 120.292 87.3461C120.254 87.5551 120.211 87.6953 120.181 87.7776C120.166 87.8188 120.154 87.8456 120.148 87.8594C120.144 87.8664 120.143 87.87 120.142 87.8707C120.142 87.871 120.142 87.8705 120.143 87.8693C120.143 87.8687 120.144 87.8679 120.144 87.867C120.145 87.8665 120.145 87.866 120.145 87.8654C120.145 87.8651 120.146 87.8648 120.146 87.8645C120.146 87.8643 120.146 87.8641 120.146 87.864C120.146 87.8638 120.146 87.8635 120.491 88.0673ZM115.038 89.1452C114.676 89.3152 114.676 89.3152 114.676 89.3151C114.676 89.3151 114.676 89.315 114.676 89.315C114.675 89.3149 114.675 89.3149 114.675 89.3148C114.675 89.3147 114.675 89.3146 114.675 89.3145C114.675 89.3143 114.675 89.3143 114.675 89.3143C114.675 89.3143 114.675 89.3147 114.676 89.3155C114.676 89.3169 114.678 89.3198 114.679 89.3239C114.683 89.3322 114.689 89.3458 114.697 89.3644C114.712 89.4016 114.734 89.4585 114.76 89.5326C114.812 89.6809 114.877 89.8964 114.928 90.1584L115.321 90.0825L115.714 90.0066C115.655 89.7001 115.578 89.4468 115.516 89.2687C115.485 89.1795 115.457 89.1086 115.437 89.0589C115.427 89.034 115.418 89.0144 115.412 89.0003C115.409 88.9933 115.406 88.9876 115.404 88.9834C115.403 88.9813 115.403 88.9796 115.402 88.9782C115.402 88.9775 115.401 88.9769 115.401 88.9764C115.401 88.9761 115.401 88.9759 115.401 88.9757C115.401 88.9755 115.401 88.9754 115.401 88.9754C115.401 88.9753 115.401 88.9752 115.401 88.9752C115.401 88.9752 115.4 88.9751 115.038 89.1452ZM115.321 90.0825L114.928 90.1583C115.007 90.5667 114.96 90.65 114.953 90.6675L115.324 90.8189L115.694 90.9704C115.784 90.7509 115.808 90.4916 115.714 90.0067L115.321 90.0825ZM120.713 85.1369L120.485 85.466C120.589 85.5384 120.757 85.6383 120.939 85.7124C121.031 85.7497 121.136 85.7846 121.245 85.8037C121.351 85.8221 121.488 85.8308 121.628 85.7878L121.511 85.405L121.394 85.0222C121.42 85.0143 121.422 85.0217 121.383 85.0149C121.348 85.0088 121.3 84.9946 121.241 84.9709C121.124 84.9231 121.007 84.854 120.941 84.8079L120.713 85.1369ZM121.511 85.405L121.671 85.0381C121.794 85.0919 121.823 85.194 121.825 85.2015C121.828 85.2142 121.823 85.2038 121.827 85.1642C121.831 85.1288 121.839 85.0869 121.852 85.0465C121.866 85.0046 121.879 84.9775 121.887 84.9663L121.549 84.7509L121.212 84.5356C121.11 84.6942 121.048 84.905 121.03 85.0862C121.021 85.1782 121.021 85.2916 121.05 85.4032C121.077 85.5096 121.153 85.6858 121.351 85.772L121.511 85.405ZM121.549 84.7509L121.887 84.9663C122.095 84.6388 122.183 84.284 122.221 84.0244C122.24 83.8924 122.248 83.779 122.25 83.6973C122.251 83.6564 122.251 83.623 122.251 83.5988C122.251 83.5867 122.25 83.5768 122.25 83.5694C122.25 83.5657 122.25 83.5627 122.25 83.5602C122.25 83.559 122.25 83.5579 122.25 83.557C122.25 83.5566 122.25 83.5561 122.25 83.5558C122.25 83.5556 122.25 83.5554 122.25 83.5553C122.25 83.5552 122.25 83.5551 122.25 83.555C122.25 83.5549 122.25 83.5548 121.85 83.5757C121.45 83.5967 121.45 83.5966 121.45 83.5965C121.45 83.5965 121.45 83.5964 121.45 83.5963C121.45 83.5962 121.45 83.596 121.45 83.5959C121.45 83.5957 121.45 83.5956 121.45 83.5954C121.45 83.5951 121.45 83.595 121.45 83.595C121.45 83.5951 121.45 83.5957 121.45 83.5969C121.45 83.5993 121.45 83.6039 121.45 83.6106C121.45 83.624 121.451 83.6456 121.45 83.6738C121.448 83.7305 121.443 83.8125 121.429 83.9087C121.4 84.1055 121.337 84.3383 121.212 84.5356L121.549 84.7509ZM121.85 83.5757L122.243 83.4985C122.182 83.1927 121.961 82.9304 121.65 82.6505L121.382 82.9481L121.114 83.2456C121.412 83.5136 121.451 83.624 121.457 83.653L121.85 83.5757ZM121.382 82.9481L121.65 82.6505C121.674 82.6726 121.674 82.6848 121.653 82.6404C121.63 82.5928 121.614 82.5488 121.575 82.4556C121.506 82.2888 121.4 82.0621 121.194 81.8383C120.776 81.3825 120.036 81.0314 118.639 80.9541L118.617 81.3538L118.595 81.7536C119.888 81.8252 120.385 82.1409 120.605 82.3797C120.718 82.5033 120.781 82.6309 120.837 82.7642C120.86 82.8211 120.896 82.9135 120.928 82.9813C120.962 83.0521 121.017 83.1583 121.114 83.2456L121.382 82.9481ZM118.617 81.3538L118.619 80.9535C118.464 80.953 118.294 80.9176 118.026 80.8722C117.777 80.8297 117.475 80.7863 117.133 80.8037C116.428 80.8395 115.629 81.1292 114.703 82.021L114.981 82.3094L115.259 82.5977C116.069 81.8171 116.692 81.6278 117.174 81.6033C117.425 81.5905 117.657 81.6217 117.892 81.6616C118.11 81.6985 118.375 81.7534 118.616 81.7542L118.617 81.3538ZM114.297 83.6387L113.905 83.5611C113.848 83.8471 113.788 84.1639 113.743 84.4435C113.699 84.7094 113.663 84.9817 113.669 85.157L114.069 85.1429L114.469 85.1288C114.466 85.0451 114.488 84.8503 114.533 84.5714C114.576 84.3061 114.634 84.0003 114.69 83.7164L114.297 83.6387ZM114.069 85.1429L113.669 85.157C113.677 85.3755 113.714 85.569 113.75 85.7247C113.791 85.9014 113.816 85.9829 113.827 86.0615L114.223 86.0044L114.62 85.9474C114.602 85.826 114.557 85.6586 114.531 85.5454C114.5 85.4113 114.475 85.274 114.469 85.1288L114.069 85.1429ZM114.826 85.1033L114.971 85.4765C115.244 85.3705 115.473 85.3074 115.692 85.2475C115.906 85.1888 116.131 85.1286 116.354 85.0299C116.827 84.8216 117.25 84.465 117.816 83.6998L117.494 83.4618L117.172 83.2239C116.649 83.9312 116.326 84.1672 116.031 84.2973C115.871 84.3678 115.706 84.4134 115.481 84.4751C115.259 84.5356 114.996 84.6078 114.681 84.73L114.826 85.1033ZM117.494 83.4618L117.816 83.6998C117.95 83.5183 118.074 83.4654 118.173 83.4523C118.285 83.4373 118.425 83.4662 118.587 83.551C118.747 83.635 118.903 83.7606 119.03 83.894C119.161 84.0323 119.235 84.1512 119.258 84.2064L119.628 84.0545L119.999 83.9027C119.925 83.7214 119.779 83.5198 119.61 83.3424C119.437 83.1602 119.213 82.975 118.958 82.8417C118.706 82.7094 118.396 82.6146 118.067 82.6586C117.725 82.7043 117.417 82.8928 117.172 83.2239L117.494 83.4618ZM119.628 84.0545L119.826 84.4027C119.811 84.4111 119.853 84.3895 119.945 84.3853C120.027 84.3815 120.107 84.3944 120.167 84.4228C120.22 84.4474 120.265 84.4854 120.296 84.5596C120.331 84.6418 120.362 84.798 120.317 85.0732L120.713 85.1369L121.108 85.2007C121.168 84.8284 121.145 84.5088 121.033 84.2458C120.917 83.9748 120.722 83.7983 120.507 83.6975C120.299 83.6006 120.083 83.5774 119.908 83.5854C119.741 83.5931 119.563 83.6314 119.431 83.7063L119.628 84.0545ZM114.351 87.0157L113.961 87.1077C114.109 87.7362 114.35 88.6219 114.676 89.3152L115.038 89.1452L115.401 88.9751C115.112 88.3606 114.886 87.5422 114.74 86.9237L114.351 87.0157ZM114.826 85.1033L114.681 84.73C114.359 84.8552 114.136 85.0491 114 85.2969C113.87 85.5314 113.838 85.7801 113.824 85.9769L114.223 86.0044L114.623 86.032C114.634 85.869 114.657 85.7623 114.701 85.6837C114.737 85.6184 114.803 85.5416 114.971 85.4765L114.826 85.1033ZM114.223 86.0044L113.824 85.9769C113.803 86.2759 113.841 86.566 113.881 86.7738C113.901 86.8794 113.922 86.9679 113.939 87.0307C113.947 87.0623 113.954 87.0876 113.96 87.1057C113.962 87.1147 113.965 87.122 113.966 87.1273C113.967 87.13 113.968 87.1322 113.968 87.1339C113.969 87.1347 113.969 87.1354 113.969 87.136C113.969 87.1363 113.969 87.1366 113.969 87.1368C113.969 87.137 113.969 87.1371 113.969 87.1372C113.969 87.1372 113.969 87.1373 113.969 87.1373C113.969 87.1374 113.969 87.1375 114.351 87.0157C114.732 86.8939 114.732 86.894 114.732 86.8941C114.732 86.8941 114.732 86.8941 114.732 86.8942C114.732 86.8943 114.732 86.8943 114.732 86.8944C114.732 86.8945 114.732 86.8946 114.732 86.8946C114.732 86.8947 114.732 86.8947 114.732 86.8946C114.732 86.8943 114.732 86.8936 114.732 86.8924C114.731 86.8901 114.73 86.8859 114.728 86.8801C114.725 86.8685 114.719 86.8502 114.713 86.8262C114.7 86.7782 114.683 86.7082 114.667 86.6239C114.635 86.4519 114.609 86.2363 114.623 86.032L114.223 86.0044ZM114.981 82.3094L114.703 82.021C114.264 82.4444 114.015 83.0025 113.905 83.5611L114.297 83.6387L114.69 83.7164C114.777 83.2761 114.965 82.8808 115.259 82.5977L114.981 82.3094ZM117.573 90.4666L117.176 90.4164C117.179 90.3912 117.07 90.7126 117.242 91.0226L117.592 90.8279L117.942 90.6333C117.938 90.6259 117.94 90.6278 117.942 90.6373C117.944 90.6471 117.944 90.6553 117.944 90.658C117.944 90.6586 117.944 90.6571 117.945 90.6523C117.945 90.6472 117.947 90.6404 117.949 90.6288C117.951 90.6196 117.956 90.6009 117.959 90.5845C117.963 90.5664 117.967 90.5431 117.97 90.5168L117.573 90.4666ZM117.09 86.1421L117.448 85.9623C117.318 85.7033 117.051 85.5489 116.772 85.5443L116.765 85.9446L116.759 86.3449C116.756 86.3449 116.753 86.3442 116.75 86.342C116.746 86.3398 116.739 86.334 116.733 86.322L117.09 86.1421ZM116.765 85.9446L116.772 85.5443C116.459 85.5388 116.151 85.7245 116.033 86.0346L116.406 86.178L116.78 86.3213C116.775 86.3359 116.767 86.3418 116.765 86.3431C116.763 86.3443 116.761 86.3449 116.758 86.3449L116.765 85.9446ZM119.844 86.1427L120.202 85.9629C120.072 85.7039 119.805 85.5495 119.526 85.5449L119.519 85.9452L119.512 86.3455C119.51 86.3455 119.507 86.3449 119.503 86.3426C119.5 86.3404 119.492 86.3346 119.486 86.3226L119.844 86.1427ZM119.519 85.9452L119.526 85.5449C119.212 85.5395 118.905 85.7251 118.786 86.0352L119.16 86.1786L119.534 86.3219C119.528 86.3365 119.52 86.3424 119.518 86.3437C119.517 86.3449 119.515 86.3456 119.512 86.3455L119.519 85.9452ZM116.927 88.6999L116.537 88.792C116.547 88.8336 116.684 89.4001 117.262 89.6026L117.395 89.2247L117.527 88.8469C117.453 88.821 117.402 88.7704 117.365 88.7109C117.326 88.6488 117.314 88.5953 117.317 88.6078L116.927 88.6999ZM117.395 89.2247L117.263 89.6027C117.758 89.7755 118.166 89.5324 118.222 89.4984L118.014 89.1564L117.806 88.8143C117.805 88.8144 117.803 88.8157 117.799 88.818C117.795 88.8203 117.788 88.8237 117.78 88.8276C117.762 88.8355 117.738 88.8448 117.71 88.8519C117.654 88.8661 117.592 88.8694 117.526 88.8467L117.395 89.2247ZM118.521 88.0715L118.379 87.6972C118.408 87.6861 118.426 87.6869 118.42 87.687C118.414 87.6871 118.399 87.6864 118.366 87.6825C118.343 87.6797 118.288 87.6722 118.245 87.6682C118.197 87.6637 118.133 87.6598 118.063 87.6661L118.1 88.0648L118.136 88.4636C118.136 88.4636 118.144 88.4629 118.17 88.4653C118.201 88.4683 118.221 88.4715 118.271 88.4775C118.337 88.4853 118.501 88.5073 118.663 88.4458L118.521 88.0715ZM118.514 87.7561L118.881 87.5952C118.881 87.5946 118.878 87.5894 118.877 87.5774C118.875 87.5652 118.873 87.545 118.875 87.5151C118.878 87.4542 118.896 87.357 118.951 87.2142L118.577 87.0703L118.204 86.9264C118.053 87.319 118.031 87.6503 118.148 87.9171L118.514 87.7561ZM118.521 88.0715L118.663 88.4458C118.79 88.3974 118.897 88.3003 118.95 88.1635C118.995 88.046 118.986 87.937 118.975 87.8735C118.955 87.754 118.898 87.6336 118.881 87.5952L118.514 87.7561L118.148 87.9171C118.162 87.9496 118.171 87.9703 118.179 87.9907C118.187 88.0116 118.187 88.015 118.185 88.0065C118.185 88.0021 118.175 87.9478 118.203 87.8757C118.218 87.8363 118.243 87.7963 118.278 87.762C118.313 87.7282 118.35 87.7083 118.379 87.6972L118.521 88.0715ZM116.878 86.8798L116.478 86.9007C116.469 86.7198 116.608 86.5655 116.789 86.556L116.809 86.9558L116.83 87.3557C117.091 87.342 117.291 87.1196 117.278 86.8588L116.878 86.8798ZM116.809 86.9558L116.789 86.556C116.969 86.5466 117.124 86.6855 117.133 86.8664L116.733 86.8874L116.334 86.9083C116.347 87.169 116.57 87.3693 116.83 87.3557L116.809 86.9558ZM116.733 86.8874L117.133 86.8664C117.143 87.0473 117.004 87.2016 116.823 87.2111L116.802 86.8113L116.781 86.4115C116.52 86.4252 116.32 86.6476 116.334 86.9083L116.733 86.8874ZM116.802 86.8113L116.823 87.2111C116.642 87.2206 116.488 87.0817 116.478 86.9007L116.878 86.8798L117.278 86.8588C117.264 86.5981 117.042 86.3978 116.781 86.4115L116.802 86.8113ZM119.637 86.8077L119.237 86.8286C119.227 86.6477 119.366 86.4934 119.547 86.4839L119.568 86.8837L119.589 87.2835C119.85 87.2699 120.05 87.0474 120.036 86.7867L119.637 86.8077ZM119.568 86.8837L119.547 86.4839C119.728 86.4744 119.882 86.6134 119.892 86.7943L119.492 86.8153L119.092 86.8362C119.106 87.0969 119.328 87.2972 119.589 87.2835L119.568 86.8837ZM119.492 86.8153L119.892 86.7943C119.901 86.9752 119.762 87.1295 119.582 87.139L119.561 86.7392L119.54 86.3394C119.279 86.3531 119.079 86.5755 119.092 86.8362L119.492 86.8153ZM119.561 86.7392L119.582 87.139C119.401 87.1485 119.246 87.0095 119.237 86.8286L119.637 86.8077L120.036 86.7867C120.023 86.526 119.8 86.3257 119.54 86.3394L119.561 86.7392ZM117.592 90.8279L117.371 90.4942C117.117 90.6622 116.866 90.7607 116.587 90.7726C116.307 90.7846 115.96 90.7106 115.516 90.4676L115.324 90.8189L115.132 91.1703C115.671 91.4649 116.162 91.5922 116.621 91.5726C117.082 91.5529 117.473 91.3871 117.813 91.1617L117.592 90.8279Z" fill="#03092D"/>
<path d="M115.944 82.8979C115.684 82.8806 115.613 83.4825 115.24 83.2847" stroke="white" stroke-width="0.800712" stroke-linecap="round"/>
<path d="M120.238 83.2655C119.588 83.2996 120.211 82.7596 119.245 82.303" stroke="white" stroke-width="0.800712" stroke-linecap="round"/>
<path d="M116.684 83.1284C116.424 83.1112 116.162 84.2427 115.134 84.0401" stroke="white" stroke-width="0.800712" stroke-linecap="round"/>
<path d="M115.327 90.8562C115.327 90.8562 112.711 91.6496 111.307 92.5018C111.074 92.6429 110.931 92.8879 110.915 93.1594C110.821 94.8438 111.223 97.8681 111.223 97.8681L113.041 96.6134L113.46 96.3016L113.384 94.8568L113.099 93.3483" stroke="#03092D" stroke-width="0.800712" stroke-linecap="round" stroke-linejoin="round"/>
<path d="M117.658 90.7342C117.658 90.7342 119.628 91.2282 121.458 92.2269C121.645 92.3288 121.793 92.4908 121.864 92.6913C122.464 94.378 122.472 97.2786 122.472 97.2786L120.533 96.2209L120.084 95.9545L120.008 94.5098L119.294 92.8967" stroke="#03092D" stroke-width="0.800712" stroke-linecap="round" stroke-linejoin="round"/>
<path d="M115.117 91.9097C115.292 92.1271 115.609 92.9801 115.993 96.1386" stroke="#03092D" stroke-width="0.800712" stroke-linecap="round" stroke-linejoin="round"/>
<path d="M117.443 91.4697C117.548 91.5906 118.121 93.0837 118.57 96.137" stroke="#03092D" stroke-width="0.800712" stroke-linecap="round" stroke-linejoin="round"/>
</g>
<path d="M123.594 49.5201C121.27 49.3983 119.287 51.1837 119.165 53.5077L118.646 63.4091C118.379 63.4054 118.154 63.6131 118.14 63.8823L117.714 72.0225C117.7 72.2917 117.901 72.5208 118.168 72.545L115.618 121.196C115.461 124.181 117.754 126.728 120.739 126.884L155.87 128.725C158.194 128.847 160.177 127.061 160.298 124.738L162.916 74.7826C163.139 74.7417 163.313 74.5537 163.325 74.318L163.519 70.6268C163.531 70.3911 163.378 70.186 163.161 70.122L163.214 69.1029C163.436 69.062 163.61 68.874 163.623 68.6383L164.015 61.1603C164.027 60.9248 163.873 60.7204 163.657 60.6565L163.908 55.8526C164.03 53.5287 162.245 51.5459 159.921 51.4239L123.594 49.5201Z" fill="#E9EEF5" fill-opacity="0.7" stroke="#03092D" stroke-linecap="round" stroke-linejoin="round"/>
<path d="M149.582 53.4379C148.795 53.3967 148.123 54.0013 148.082 54.788C148.016 56.0447 146.944 57.0096 145.688 56.944L137.262 56.5024C136.005 56.4365 135.039 55.3647 135.105 54.1079C135.146 53.3212 134.541 52.6496 133.755 52.6084L124.834 52.1409L124.665 52.136C122.927 52.133 121.474 53.4944 121.382 55.2496L117.942 120.892C117.847 122.704 119.238 124.251 121.05 124.346L154.799 126.114C156.611 126.209 158.156 124.817 158.251 123.006L161.692 57.3622C161.787 55.5504 160.395 54.0046 158.583 53.9096L149.582 53.4379Z" fill="white" fill-opacity="0.7" stroke="#03092D" stroke-linecap="round" stroke-linejoin="round"/>
<path d="M138.576 86.1416C139.147 85.8544 139.783 85.7209 140.422 85.7544C141.061 85.7879 141.679 85.9871 142.218 86.3325" stroke="#3449FC" stroke-linecap="round" stroke-linejoin="round"/>
<path d="M137.622 84.3745C138.522 83.926 139.523 83.7179 140.527 83.7705C141.531 83.8231 142.504 84.1347 143.352 84.6748" stroke="#3449FC" stroke-linecap="round" stroke-linejoin="round"/>
<path d="M136.667 82.6108C137.893 81.9915 139.259 81.7031 140.63 81.7741C142.002 81.8451 143.331 82.2731 144.486 83.0156" stroke="#3449FC" stroke-linecap="round" stroke-linejoin="round"/>
<path d="M136.863 88.679L137.723 88.7241L137.494 93.0873L136.84 93.053L135.11 90.2872L134.97 92.955L134.11 92.9099L134.338 88.5467L134.993 88.581L136.723 91.3406L136.863 88.679ZM141.095 89.7258L139.349 89.6344L139.295 90.6691L140.991 90.7579L140.947 91.5807L139.252 91.4918L139.164 93.1748L138.304 93.1297L138.532 88.7665L141.138 88.9031L141.095 89.7258ZM143.601 93.4948C142.944 93.4604 142.413 93.2138 142.008 92.7551C141.603 92.2963 141.417 91.747 141.451 91.1071C141.484 90.463 141.727 89.9361 142.177 89.5263C142.628 89.1124 143.182 88.9227 143.838 88.9571C144.233 88.9778 144.592 89.0903 144.915 89.2948C145.242 89.4952 145.49 89.7583 145.661 90.0839L144.896 90.4751C144.799 90.2741 144.653 90.1144 144.459 89.9959C144.265 89.8733 144.044 89.8054 143.795 89.7923C143.371 89.7701 143.021 89.8851 142.745 90.1374C142.474 90.3898 142.327 90.728 142.305 91.1518C142.283 91.5715 142.393 91.9211 142.637 92.2005C142.885 92.4802 143.221 92.6311 143.645 92.6534C143.894 92.6664 144.121 92.6242 144.326 92.5266C144.536 92.4251 144.698 92.2814 144.812 92.0957L145.531 92.5647C145.327 92.8707 145.054 93.1085 144.712 93.2781C144.37 93.4435 144 93.5157 143.601 93.4948Z" fill="#3449FC"/>
<path d="M142 121.965L134.212 121.557" stroke="#03092D" stroke-linecap="round"/>
<path d="M137.559 54.5286C137.138 54.5065 136.815 54.1477 136.837 53.7271C136.859 53.3065 137.218 52.9835 137.638 53.0055C138.059 53.0275 138.382 53.3864 138.36 53.807C138.338 54.2275 137.979 54.5506 137.559 54.5286Z" fill="#03092D"/>
<path d="M177.291 141.821H91.8886H83.6975C79.7783 141.821 76.6008 144.997 76.5987 148.916V148.92L76.5987 158.561L76.5987 218.097V218.122V219.722L76.5984 226.88C76.5982 231.407 80.2683 235.077 84.7955 235.077H94.7851H136.987H179.189H184.383C188.911 235.077 192.581 231.407 192.581 226.88V220.312V214.861V158.443V153.849V153.142V152.658L192.581 153.129L192.581 151.375V148.92C192.581 144.999 189.402 141.821 185.482 141.821H177.291Z" fill="white"/>
<path d="M192.581 214.861V220.312V226.88C192.581 231.407 188.911 235.077 184.383 235.077H179.189H136.987H94.7851H84.7955C80.2683 235.077 76.5982 231.407 76.5984 226.88L76.5987 219.722V218.097V218.122L76.5987 158.561L76.5987 148.431V148.92C76.5987 144.999 79.7769 141.821 83.6975 141.821H91.8886H177.291H185.482C189.402 141.821 192.581 144.999 192.581 148.92V152.658L192.581 153.129L192.581 151.375V153.142V153.849V158.443V214.861Z" stroke="#03092D" stroke-linecap="round" stroke-linejoin="round"/>
<path d="M150.204 187.136C150.711 187.136 151.125 186.725 151.099 186.218C150.994 184.12 150.53 182.053 149.724 180.107C148.801 177.879 147.448 175.854 145.743 174.149C144.037 172.443 142.012 171.09 139.784 170.167C137.839 169.361 135.771 168.897 133.673 168.792C133.167 168.767 132.755 169.18 132.755 169.687V169.687C132.755 170.195 133.167 170.603 133.673 170.631C135.53 170.735 137.359 171.151 139.081 171.864C141.087 172.695 142.909 173.912 144.444 175.447C145.979 176.982 147.197 178.805 148.027 180.81C148.741 182.533 149.157 184.361 149.26 186.218C149.288 186.725 149.697 187.136 150.204 187.136V187.136Z" fill="#3449FC"/>
<path d="M125.408 179.739C124.921 179.739 124.453 179.933 124.109 180.277C123.765 180.622 123.571 181.089 123.571 181.576V186.168H129.201C129.623 184.551 131.083 183.413 132.755 183.413C133.568 183.415 134.358 183.686 135.001 184.185C135.644 184.683 136.104 185.38 136.309 186.168H141.938V181.576C141.938 181.089 141.745 180.622 141.4 180.277C141.056 179.933 140.589 179.739 140.101 179.739H125.408Z" fill="#3449FC"/>
<path d="M131.456 185.787C131.8 185.443 132.268 185.25 132.755 185.25C133.242 185.25 133.709 185.443 134.053 185.787C134.398 186.132 134.591 186.599 134.591 187.086C134.591 187.573 134.398 188.041 134.053 188.385C133.709 188.729 133.242 188.923 132.755 188.923C132.268 188.923 131.8 188.729 131.456 188.385C131.111 188.041 130.918 187.573 130.918 187.086C130.918 186.599 131.111 186.132 131.456 185.787Z" fill="#3449FC"/>
<path d="M123.571 192.596V188.004H129.201C129.405 188.792 129.865 189.489 130.508 189.987C131.151 190.486 131.941 190.757 132.755 190.759C133.568 190.757 134.358 190.486 135.001 189.987C135.644 189.489 136.104 188.792 136.309 188.004H141.938V192.596C141.938 193.083 141.745 193.55 141.4 193.895C141.056 194.239 140.589 194.433 140.101 194.433H125.408C124.921 194.433 124.453 194.239 124.109 193.895C123.765 193.55 123.571 193.083 123.571 192.596Z" fill="#3449FC"/>
<path d="M124.01 148.874H145.561" stroke="#03092D"/>
</g>
<path opacity="0.7" d="M109 11L109 226" stroke="#03092D" stroke-width="1.5" stroke-linecap="round" stroke-dasharray="2 4"/>
<g clip-path="url(#clip3_1006_3399)">
<path d="M37.5493 20.8364H129.29H134.785C140.821 20.8364 145.714 25.7295 145.714 31.7654V37.3022V45.9731H146.807V67.5578H145.714V71.6561V73.2955H146.807V83.9512H145.714V214.813V227.456V228.487C145.714 234.523 140.821 239.416 134.785 239.416H131.328H40.6607H34.4505C27.0905 239.416 21.1242 233.449 21.1246 226.089V222.378V222.319V84.2245H19.7578V60.7272H21.1246V37.3022V31.7654C21.1246 25.7295 26.0176 20.8364 32.0536 20.8364H37.5493Z" fill="#E9EEF5" stroke="#03092D" stroke-linecap="round" stroke-linejoin="round"/>
<path d="M83.4181 30.551C82.2779 30.551 81.3536 29.6267 81.3536 28.4864C81.3536 27.3462 82.2779 26.4219 83.4181 26.4219C84.5583 26.4219 85.4827 27.3462 85.4827 28.4864C85.4827 29.6267 84.5583 30.551 83.4181 30.551Z" fill="#03092D"/>
<path d="M141.341 40.967V210.859V222.959V226.209C141.341 230.736 137.671 234.406 133.144 234.406H127.965H43.6597H33.6911C29.164 234.406 25.4941 230.736 25.4944 226.209L25.4946 221.651V218.099V218.042V40.967V33.4047C25.4946 28.8778 29.1644 25.208 33.6913 25.208H40.7667H59.9878C61.4889 25.208 62.7057 26.4248 62.7057 27.9259C62.7057 32.429 66.3562 36.0795 70.8593 36.0795H95.739C100.242 36.0795 103.893 32.429 103.893 27.9259C103.893 26.4248 105.109 25.208 106.611 25.208H126.069H133.144C137.671 25.208 141.341 28.8778 141.341 33.4047V40.967Z" fill="white" stroke="#03092D" stroke-linecap="round" stroke-linejoin="round"/>
<path d="M89.139 107.317C89.139 110.641 86.4962 112.332 83.1726 112.332C79.8489 112.332 77.4053 109.638 77.4053 106.314C77.4053 102.99 80.048 101.299 83.3717 101.299C84.7564 101.299 85.9884 101.767 86.9546 102.553C87.6137 103.089 88.5249 104.559 88.5249 104.559C88.9203 105.385 89.139 106.323 89.139 107.317Z" fill="#3449FC"/>
<path d="M89.1145 106.093C89.8043 109.344 87.5701 111.547 84.3187 112.237C81.0674 112.926 78.1179 110.798 77.4281 107.546C76.7384 104.295 78.9726 102.092 82.224 101.403C82.9441 101.25 83.6495 101.235 84.3187 101.341M86.6943 102.363C87.1799 102.731 87.6507 103.172 88.3128 104.29" stroke="#03092D" stroke-linecap="round"/>
<path d="M80.7878 106.951C81.4949 107.554 82.7324 108.762 82.7324 108.762C82.7324 108.762 85.0531 105.86 86.1726 104.873" stroke="white" stroke-linecap="round" stroke-linejoin="round"/>
<path d="M34.3381 190.516C34.3381 191.374 35.0336 192.07 35.8915 192.07H130.743C131.601 192.07 132.296 191.374 132.296 190.516V99.2055C132.296 97.4742 130.893 96.0708 129.162 96.0708H34.3381V190.516Z" fill="#E9EEF5"/>
<g clip-path="url(#clip4_1006_3399)">
<path d="M40.197 135.138L40.3166 132.091L41.0274 126.517C41.33 124.131 44.1733 122.252 47.3684 122.301L60.8245 122.512H60.8456C60.8456 122.512 60.8596 122.512 60.8737 122.512C60.9019 122.512 60.9371 122.512 60.9863 122.512C61.0848 122.512 61.2326 122.512 61.4227 122.512C61.8027 122.512 62.3516 122.505 63.0413 122.491C64.4207 122.477 66.349 122.449 68.5518 122.428C72.9574 122.372 78.4609 122.301 82.8313 122.238C84.8089 122.21 86.5472 122.224 88.2996 122.238C90.045 122.252 91.7974 122.273 93.782 122.238C97.899 122.182 100.2 122.238 104.331 122.238H120.173C122.939 122.245 125.374 123.899 125.606 125.954L126.24 131.464C126.24 131.464 126.24 131.492 126.24 131.521C126.24 131.57 126.247 131.64 126.261 131.732C126.275 131.915 126.303 132.182 126.331 132.513C126.395 133.174 126.486 134.111 126.599 135.173C126.824 137.32 127.134 140.029 127.464 142.169C127.626 143.224 127.697 144.048 127.774 144.885C127.851 145.723 127.922 146.567 128.091 147.665C128.457 150.044 128.513 151.381 128.795 153.83L129.541 160.382C129.871 163.303 127.134 165.675 123.474 165.618C121.405 165.583 119.195 165.555 117.365 165.562C115.317 165.562 112.699 165.604 110.595 165.646C109.539 165.668 108.617 165.689 107.956 165.703C107.625 165.71 107.358 165.717 107.175 165.724C107.083 165.724 107.013 165.724 106.964 165.724C106.942 165.724 106.921 165.724 106.907 165.724H106.893L83.3592 165.682C83.3592 165.682 83.3592 165.682 83.3521 165.682C83.3451 165.682 83.331 165.682 83.3169 165.682C83.2888 165.682 83.2466 165.682 83.1903 165.682C83.0777 165.682 82.9158 165.682 82.6976 165.696C82.2683 165.703 81.649 165.717 80.8749 165.738C79.3266 165.773 77.159 165.815 74.6887 165.858C69.7553 165.942 63.6255 166.026 58.8398 166.005C53.9697 165.991 47.5865 165.865 42.8783 165.759C39.4439 165.675 36.9455 163.373 37.2341 160.593C37.5015 158.032 37.8323 155.012 38.1068 152.655C38.3461 150.677 38.6627 148.172 38.9302 146.18C39.0569 145.188 39.1765 144.322 39.2539 143.71C39.2961 143.4 39.3313 143.154 39.3524 142.985C39.3665 142.901 39.3736 142.837 39.3806 142.788C39.3806 142.767 39.3806 142.746 39.3806 142.739C39.3806 142.739 39.3806 142.732 39.3806 142.725L40.1899 135.131L40.197 135.138Z" fill="white" stroke="#03092D" stroke-linecap="round" stroke-linejoin="round"/>
<path d="M90.6995 139.325C90.6995 139.325 95.1191 139.417 99.6373 139.424C104.156 139.424 113.825 139.353 113.825 139.353" stroke="#03092D" stroke-linecap="round" stroke-linejoin="round"/>
<path d="M90.7207 146.427H95.7949C97.6317 146.434 101.629 146.441 101.629 146.441" stroke="#03092D" stroke-linecap="round" stroke-linejoin="round"/>
<path d="M80.516 131.591C81.9236 131.626 83.0426 132.506 83.0214 133.569L82.8455 143.013L83.0707 153.26C83.0989 154.471 81.8673 155.463 80.3401 155.463L53.8643 155.421C52.4075 155.421 51.2814 154.513 51.3025 153.359C51.3518 150.699 51.4644 146.314 51.7037 143.168C51.943 140.043 52.4708 135.835 52.8016 133.407C52.9353 132.393 54.0754 131.598 55.4126 131.57L67.5878 131.289L80.516 131.591Z" fill="#3449FC" stroke="#03092D"/>
<mask id="mask0_1006_3399" style="mask-type:luminance" maskUnits="userSpaceOnUse" x="54" y="131" width="27" height="25">
<path d="M56.5596 131.07L80.6637 131.091L80.5792 155.216L54.9761 155.174L56.5596 131.07Z" fill="white"/>
</mask>
<g mask="url(#mask0_1006_3399)">
<path d="M67.7214 147.433L65.1386 146.863L65.216 145.062L64.4419 143.056L63.8296 140.853L63.907 139.213L65.0893 138.024L69.2275 136.842L71.1136 135.026L75.294 136.849L76.3989 138.362L75.9344 140.867L75.1744 143.739L72.113 145.744L69.4949 146.533L69.4809 147.096L67.7355 147.433H67.7214Z" fill="#FFCEB6"/>
<path d="M65.4342 145.899C65.4483 145.618 67.9749 147.539 69.5935 146.638L69.5795 147.201L67.074 147.476L65.4483 146.898C65.2302 146.371 65.4272 146.23 65.4413 145.892L65.4342 145.899Z" fill="#F9AC8A"/>
<path d="M70.7899 155.259C70.3254 151.149 68.9882 149.615 68.2071 147.989C68.0945 147.75 68.2704 147.489 68.5801 147.412L69.5865 147.166C69.6991 147.137 69.8187 147.137 69.9243 147.166L73.8091 148.066C73.8654 148.081 73.9146 148.102 73.9639 148.123L76.9971 149.727C77.1097 149.791 77.1942 149.882 77.2294 149.988L77.9895 152.198C78.0035 152.24 78.0106 152.282 78.0106 152.324L77.9824 155.118C77.9824 155.35 77.7572 155.555 77.4687 155.583L74.8225 155.871C74.731 155.878 74.6466 155.829 74.6325 155.759C74.5973 155.597 74.3087 155.611 74.2947 155.773V155.885L71.3107 155.681C71.0292 155.66 70.804 155.484 70.7829 155.259H70.7899Z" fill="#E1F0FF"/>
<path d="M68.7348 147.44C68.8755 147.665 69.1078 148.369 69.5441 149.375C69.9664 150.347 70.4098 153.542 70.635 155.885H65.3497C64.6952 153.88 66.525 148.341 63.3721 147.546L64.9837 147.095L66.8487 147.553L68.7348 147.44Z" fill="white"/>
<path d="M68.7348 150.277C68.4322 150.368 67.5595 150.607 66.335 150.22" stroke="#03092D" stroke-linecap="round"/>
<path d="M60.0784 155.52L55.891 157.399L55.8699 153.577L56.3062 150.157C56.3625 149.742 56.6933 149.376 57.1789 149.193L59.0228 148.517C59.0931 148.489 59.1706 148.468 59.2409 148.454L63.2454 147.553C63.9421 147.433 64.5966 147.799 64.667 148.348L64.9696 150.748L65.5186 155.85L61.3311 156.259C61.0355 156.287 60.7822 156.104 60.7963 155.865C60.8103 155.562 60.4092 155.372 60.0714 155.52H60.0784Z" fill="#E1F0FF"/>
<path d="M76.1949 138.974C76.5045 139.157 77.2294 139.509 77.6728 139.425C77.3983 139.319 77.5672 138.749 77.8206 138.482C78.5103 137.75 78.5173 136.821 78.5173 136.821C78.4751 136.582 78.2499 136.3 77.715 135.892C77.2012 135.498 77.7361 133.844 72.7534 133.429C71.2825 133.365 69.3261 132.281 65.8565 134.498C65.1175 134.97 64.6319 135.631 64.3715 136.335C64.0689 137.137 63.7241 138.102 63.6959 138.475C63.6607 139.002 63.8226 139.439 63.8437 139.734C63.9493 139.214 64.1745 138.714 65.1246 138.482C67.4048 137.919 68.1226 138.362 70.3747 136.335C71.93 134.935 73.9921 136.652 74.2947 137.349C74.7521 137.173 76.7508 137.145 76.2019 138.988L76.1949 138.974Z" fill="#4B4D59"/>
<path d="M69.5089 146.575L69.5371 146.356C69.3963 146.349 69.2626 146.427 69.2344 146.539L69.5089 146.582V146.575ZM75.4206 143.239L75.1883 143.119V143.133L75.4347 143.239H75.4206ZM76.1947 138.974L75.9273 138.932C75.9273 138.932 75.9203 138.967 75.9273 138.988H76.2018L76.1947 138.974ZM65.1385 146.927L64.8851 146.835C64.8218 146.934 64.864 147.06 64.9837 147.117L65.1385 146.927ZM77.6726 139.424L77.736 139.628C77.8486 139.607 77.933 139.537 77.9471 139.445C77.9612 139.354 77.8978 139.27 77.7993 139.234L77.6726 139.424ZM78.5172 136.82H78.7916C78.7916 136.82 78.7916 136.799 78.7916 136.792L78.5172 136.82ZM72.7463 133.428L72.7814 133.224C72.7814 133.224 72.7744 133.224 72.7674 133.224L72.7463 133.428ZM74.2875 137.334L74.0271 137.405C74.0553 137.461 74.1116 137.51 74.1819 137.531C74.2523 137.552 74.3368 137.552 74.4072 137.531L74.2875 137.341V137.334ZM63.9139 141.212L64.1884 141.177V141.163L63.9139 141.219V141.212ZM69.4948 147.124L69.6356 147.314C69.7623 147.257 69.8186 147.131 69.7552 147.025L69.4948 147.124ZM68.967 140.234C69.0233 140.339 69.1852 140.389 69.333 140.346C69.4737 140.297 69.5441 140.17 69.4878 140.065L69.2274 140.149L68.967 140.234ZM67.6791 140.065C67.6158 140.17 67.6721 140.297 67.8128 140.346C67.9536 140.396 68.1155 140.346 68.1858 140.241L67.9325 140.156L67.6791 140.072V140.065ZM74.1749 140.452C74.2312 140.557 74.4001 140.607 74.5409 140.564C74.6816 140.515 74.752 140.389 74.6887 140.283L74.4353 140.367L74.1819 140.452H74.1749ZM72.88 140.276C72.8166 140.381 72.88 140.508 73.0137 140.557C73.1544 140.607 73.3163 140.557 73.3867 140.452L73.1333 140.367L72.88 140.283V140.276ZM68.8192 143.851C68.7981 143.731 68.6503 143.654 68.4955 143.675C68.3407 143.696 68.2351 143.809 68.2632 143.928L68.5377 143.886L68.8122 143.851H68.8192ZM70.6772 144.85C70.8179 144.794 70.8672 144.66 70.7968 144.555C70.7264 144.449 70.5575 144.407 70.4168 144.463L70.5435 144.653L70.6701 144.843L70.6772 144.85ZM69.5089 146.575L69.4808 146.793C69.6074 146.8 69.7552 146.786 69.896 146.758C70.0367 146.729 70.1986 146.694 70.3605 146.645C70.6842 146.554 71.0431 146.427 71.3669 146.3C71.6976 146.173 72.0003 146.047 72.2255 145.948C72.3381 145.899 72.4296 145.864 72.4929 145.836C72.5281 145.822 72.5492 145.808 72.5633 145.8C72.5703 145.8 72.5774 145.8 72.5844 145.793C72.5844 145.793 72.5375 145.73 72.4436 145.603L72.3029 145.413C72.3029 145.413 72.2958 145.413 72.2818 145.42C72.2677 145.427 72.2395 145.442 72.2114 145.449C72.1481 145.477 72.0636 145.512 71.951 145.561C71.7328 145.653 71.4302 145.779 71.1135 145.899C70.7898 146.019 70.459 146.138 70.1564 146.23C70.0086 146.272 69.8749 146.307 69.7623 146.328C69.6426 146.349 69.5652 146.356 69.523 146.356L69.4948 146.575H69.5089ZM72.4577 145.603C72.5515 145.73 72.5985 145.793 72.5985 145.793C72.5985 145.793 72.5985 145.793 72.6055 145.793C72.6125 145.793 72.6266 145.786 72.6407 145.772C72.6759 145.758 72.7181 145.737 72.7744 145.709C72.887 145.653 73.0489 145.568 73.2319 145.477C73.5837 145.287 74.0271 145.033 74.3297 144.794L74.1327 144.639L73.9356 144.484C73.6682 144.696 73.267 144.928 72.9222 145.111C72.7533 145.202 72.5985 145.28 72.4859 145.336C72.4296 145.364 72.3873 145.385 72.3521 145.399C72.3381 145.406 72.324 145.413 72.317 145.413C72.317 145.413 72.317 145.413 72.3099 145.413C72.3099 145.413 72.3099 145.413 72.4507 145.603H72.4577ZM74.1468 144.632L74.3438 144.787C74.6675 144.534 74.9983 144.168 75.2446 143.872C75.3713 143.724 75.4698 143.591 75.5473 143.499C75.5824 143.45 75.6106 143.415 75.6317 143.387C75.6388 143.372 75.6528 143.365 75.6528 143.358C75.6528 143.358 75.6528 143.358 75.6528 143.351C75.6528 143.351 75.6528 143.351 75.4065 143.246C75.2423 143.175 75.1602 143.14 75.1602 143.14C75.1602 143.14 75.1602 143.14 75.1602 143.147C75.1602 143.147 75.1461 143.161 75.1391 143.175C75.118 143.204 75.0898 143.239 75.0546 143.281C74.9842 143.372 74.8857 143.499 74.7661 143.64C74.5268 143.928 74.2171 144.259 73.9427 144.477L74.1397 144.632H74.1468ZM75.4206 143.239C75.5754 143.319 75.6528 143.358 75.6528 143.358C75.6528 143.358 75.6528 143.351 75.6669 143.344C75.6739 143.33 75.688 143.316 75.7021 143.295C75.7302 143.253 75.7725 143.19 75.8147 143.112C75.9062 142.95 76.0258 142.704 76.1384 142.352C76.3636 141.662 76.5537 140.571 76.4692 138.967L76.1947 138.981H75.9203C75.9977 140.564 75.8077 141.606 75.5965 142.253C75.491 142.577 75.3854 142.802 75.308 142.943C75.2658 143.014 75.2376 143.063 75.2165 143.091C75.2024 143.105 75.1954 143.119 75.1954 143.119C75.1954 143.119 75.2728 143.159 75.4276 143.239H75.4206ZM64.864 144.4C64.6857 144.456 64.5966 144.484 64.5966 144.484C64.5966 144.484 64.5966 144.491 64.6036 144.499C64.6036 144.513 64.6177 144.541 64.6318 144.569C64.6599 144.632 64.6951 144.724 64.7303 144.843C64.8077 145.083 64.9063 145.427 64.9626 145.843L65.2441 145.815L65.5256 145.786C65.4622 145.343 65.3637 144.977 65.2793 144.724C65.237 144.597 65.1948 144.499 65.1667 144.428C65.1526 144.393 65.1385 144.365 65.1315 144.351C65.1315 144.344 65.1244 144.337 65.1244 144.33C65.1244 144.33 65.0353 144.358 64.857 144.414L64.864 144.4ZM65.2511 145.822L64.9696 145.85C65.0611 146.504 64.9626 146.708 64.8851 146.828L65.1385 146.919L65.3919 147.011C65.5397 146.786 65.6311 146.476 65.5326 145.779L65.2511 145.808V145.822ZM76.1947 138.974L76.0188 139.143C76.1877 139.241 76.4622 139.382 76.7577 139.495C76.9055 139.551 77.0674 139.593 77.2293 139.628C77.3841 139.657 77.56 139.671 77.7289 139.635L77.6656 139.431L77.6023 139.227C77.553 139.234 77.4686 139.234 77.363 139.22C77.2504 139.199 77.1307 139.164 77.0041 139.122C76.7507 139.03 76.5114 138.904 76.3707 138.819L76.2018 138.988L76.1947 138.974ZM77.6726 139.424L77.7993 139.234C77.8415 139.248 77.8275 139.27 77.8204 139.234C77.8134 139.192 77.8064 139.136 77.8204 139.051C77.8556 138.889 77.9471 138.714 78.0386 138.615L77.8134 138.488L77.5882 138.362C77.4334 138.524 77.3137 138.77 77.2715 138.981C77.2504 139.087 77.2433 139.206 77.2715 139.312C77.2996 139.417 77.37 139.544 77.546 139.614L77.6726 139.424ZM77.8204 138.481L78.0456 138.608C78.4186 138.207 78.6087 137.763 78.7001 137.419C78.7494 137.25 78.7705 137.102 78.7846 136.996C78.7846 136.947 78.7916 136.898 78.7987 136.87C78.7987 136.856 78.7987 136.842 78.7987 136.834V136.827C78.7987 136.827 78.7072 136.827 78.5242 136.827C78.3412 136.827 78.2497 136.827 78.2497 136.827C78.2497 136.827 78.2497 136.827 78.2497 136.834C78.2497 136.834 78.2497 136.849 78.2497 136.863C78.2497 136.884 78.2497 136.926 78.2427 136.968C78.2286 137.06 78.2075 137.193 78.1723 137.341C78.0879 137.651 77.926 138.031 77.6093 138.369L77.8345 138.495L77.8204 138.481ZM78.5172 136.82L78.7916 136.792C78.7353 136.476 78.4538 136.159 77.9119 135.744L77.7149 135.891L77.5178 136.039C78.0527 136.447 78.2145 136.687 78.2497 136.849L78.5242 136.82H78.5172ZM77.7078 135.891L77.9049 135.744C77.9049 135.744 77.8486 135.687 77.8064 135.61C77.7641 135.532 77.7289 135.448 77.6726 135.328C77.5671 135.103 77.4193 134.822 77.1096 134.533C76.4903 133.963 75.3009 133.435 72.7744 133.224L72.7392 133.428L72.704 133.632C75.1602 133.836 76.1877 134.336 76.6803 134.794C76.9266 135.026 77.0533 135.258 77.1519 135.462C77.1941 135.561 77.2433 135.673 77.2926 135.765C77.3419 135.856 77.4052 135.955 77.5108 136.039L77.7078 135.891ZM72.7463 133.428L72.7674 133.224C72.4296 133.21 72.0636 133.14 71.5991 133.055C71.1487 132.978 70.6349 132.9 70.0508 132.9C68.8685 132.9 67.4539 133.203 65.6734 134.343L65.8493 134.498L66.0253 134.653C67.7213 133.569 69.0163 133.309 70.0438 133.309C70.5646 133.309 71.0361 133.379 71.4724 133.456C71.9017 133.527 72.331 133.618 72.7251 133.632L72.7463 133.428ZM64.3644 136.328L64.0969 136.278C63.9421 136.68 63.7802 137.123 63.6536 137.517C63.5269 137.904 63.4283 138.256 63.4143 138.467H63.6887L63.9632 138.474C63.9773 138.312 64.0617 137.996 64.1884 137.609C64.3151 137.229 64.477 136.785 64.6248 136.384L64.3573 136.335L64.3644 136.328ZM63.6887 138.467H63.4143C63.3932 138.749 63.4283 139.002 63.4706 139.22C63.5128 139.452 63.555 139.607 63.5621 139.741L63.8365 139.72L64.111 139.699C64.0969 139.544 64.0477 139.333 64.0125 139.143C63.9773 138.939 63.9421 138.714 63.9632 138.467H63.6887ZM65.1174 138.467L65.1948 138.671C65.7508 138.531 66.2082 138.46 66.6305 138.39C67.0528 138.319 67.4469 138.256 67.841 138.143C68.6503 137.911 69.4315 137.482 70.5716 136.461L70.3605 136.328L70.1493 136.194C69.0444 137.186 68.3336 137.552 67.651 137.749C67.2991 137.848 66.9472 137.904 66.5179 137.975C66.0956 138.045 65.61 138.122 65.0259 138.27L65.1033 138.474L65.1174 138.467ZM70.3675 136.321L70.5786 136.454C70.9235 136.138 71.2824 136.018 71.6132 135.997C71.951 135.976 72.3099 136.06 72.6548 136.222C72.9996 136.377 73.3093 136.595 73.5556 136.82C73.8019 137.046 73.9708 137.264 74.0271 137.405L74.2875 137.334L74.5479 137.264C74.4564 137.06 74.2453 136.799 73.9779 136.546C73.7034 136.293 73.3445 136.046 72.9433 135.856C72.5422 135.673 72.0706 135.547 71.578 135.575C71.0783 135.603 70.5927 135.793 70.1564 136.18L70.3675 136.314V136.321ZM74.2875 137.334L74.4072 137.524C74.4705 137.503 74.6324 137.468 74.8505 137.468C75.0617 137.468 75.2869 137.503 75.4839 137.58C75.6739 137.658 75.8358 137.785 75.9273 137.982C76.0188 138.186 76.054 138.488 75.9273 138.925L76.1947 138.967L76.4622 139.009C76.61 138.524 76.5888 138.129 76.4481 137.827C76.3073 137.517 76.0469 137.32 75.7443 137.193C75.4487 137.074 75.132 137.032 74.8576 137.032C74.5901 137.032 74.3297 137.067 74.1679 137.13L74.2875 137.32V137.334ZM63.9139 141.212L63.6395 141.247C63.8154 142.176 64.118 143.464 64.6036 144.484L64.8711 144.4L65.1385 144.316C64.674 143.344 64.3714 142.092 64.1955 141.17L63.921 141.205L63.9139 141.212ZM65.1174 138.467L65.04 138.263C64.5121 138.397 64.1603 138.608 63.928 138.875C63.7028 139.136 63.6184 139.424 63.5621 139.699L63.8365 139.727L64.111 139.755C64.1603 139.502 64.2377 139.284 64.3925 139.108C64.5403 138.932 64.7796 138.777 65.1948 138.678L65.1174 138.474V138.467ZM63.8365 139.727L63.5621 139.699C63.4846 140.086 63.4987 140.48 63.5409 140.769C63.5621 140.916 63.5832 141.036 63.6043 141.12C63.6113 141.163 63.6254 141.198 63.6254 141.219C63.6254 141.233 63.6254 141.24 63.6324 141.247C63.6324 141.247 63.6324 141.247 63.6324 141.254C63.6324 141.254 63.6324 141.254 63.9069 141.198C64.0899 141.16 64.1814 141.142 64.1814 141.142C64.1814 141.142 64.1814 141.127 64.1814 141.12C64.1814 141.099 64.1673 141.071 64.1603 141.029C64.1392 140.952 64.118 140.839 64.104 140.705C64.0688 140.438 64.0547 140.086 64.118 139.748L63.8436 139.72L63.8365 139.727ZM65.8493 134.498L65.6734 134.343C64.8781 134.85 64.3714 135.547 64.0969 136.286L64.3644 136.335L64.6318 136.384C64.8851 135.708 65.3426 135.096 66.0253 134.653L65.8493 134.498ZM69.5089 146.575L69.2344 146.532C69.2133 146.617 69.0374 146.884 69.2344 147.215L69.4948 147.117L69.7552 147.018C69.6567 146.856 69.7341 146.828 69.7904 146.61L69.516 146.568L69.5089 146.575ZM69.2274 140.149L69.4878 140.065C69.3541 139.811 69.0304 139.643 68.6714 139.628L68.6433 139.84L68.6151 140.051C68.777 140.058 68.9177 140.135 68.967 140.234L69.2274 140.149ZM68.6433 139.84L68.6714 139.628C68.2632 139.607 67.8621 139.776 67.6791 140.065L67.9325 140.149L68.1858 140.234C68.2562 140.121 68.4321 140.037 68.6222 140.051L68.6503 139.84H68.6433ZM74.4353 140.367L74.6887 140.283C74.5479 140.03 74.2242 139.861 73.8652 139.84L73.8441 140.051L73.823 140.262C73.9919 140.269 74.1256 140.346 74.1819 140.445L74.4353 140.36V140.367ZM73.8441 140.051L73.8652 139.84C73.4571 139.818 73.0559 139.987 72.88 140.276L73.1333 140.36L73.3867 140.445C73.4571 140.332 73.633 140.248 73.816 140.262L73.8371 140.051H73.8441ZM68.5377 143.893L68.2632 143.935C68.2703 143.985 68.4181 144.646 69.2415 144.914L69.3541 144.71L69.4667 144.506C68.9318 144.33 68.8192 143.886 68.8192 143.851L68.5448 143.886L68.5377 143.893ZM69.3541 144.71L69.2415 144.914C69.9523 145.146 70.5857 144.886 70.6772 144.85L70.5505 144.66L70.4238 144.47C70.3675 144.491 69.9382 144.66 69.4737 144.513L69.3611 144.717L69.3541 144.71ZM69.4948 147.124L69.3541 146.934C68.784 147.194 68.1999 147.349 67.5524 147.342C66.905 147.342 66.166 147.166 65.2933 146.737L65.1385 146.927L64.9837 147.117C65.9197 147.574 66.7572 147.778 67.5313 147.785C68.3125 147.785 69.0022 147.602 69.6286 147.314L69.4878 147.124H69.4948Z" fill="url(#paint1_linear_1006_3399)"/>
<path d="M69.5089 146.575L69.5371 146.356C69.3963 146.349 69.2626 146.427 69.2344 146.539L69.5089 146.582V146.575ZM75.4206 143.239L75.1883 143.119V143.133L75.4347 143.239H75.4206ZM76.1947 138.974L75.9273 138.932C75.9273 138.932 75.9203 138.967 75.9273 138.988H76.2018L76.1947 138.974ZM65.1385 146.927L64.8851 146.835C64.8218 146.934 64.864 147.06 64.9837 147.117L65.1385 146.927ZM77.6726 139.424L77.736 139.628C77.8486 139.607 77.933 139.537 77.9471 139.445C77.9612 139.354 77.8978 139.27 77.7993 139.234L77.6726 139.424ZM78.5172 136.82H78.7916C78.7916 136.82 78.7916 136.799 78.7916 136.792L78.5172 136.82ZM72.7463 133.428L72.7814 133.224C72.7814 133.224 72.7744 133.224 72.7674 133.224L72.7463 133.428ZM74.2875 137.334L74.0271 137.405C74.0553 137.461 74.1116 137.51 74.1819 137.531C74.2523 137.552 74.3368 137.552 74.4072 137.531L74.2875 137.341V137.334ZM63.9139 141.212L64.1884 141.177V141.163L63.9139 141.219V141.212ZM69.4948 147.124L69.6356 147.314C69.7623 147.257 69.8186 147.131 69.7552 147.025L69.4948 147.124ZM68.967 140.234C69.0233 140.339 69.1852 140.389 69.333 140.346C69.4737 140.297 69.5441 140.17 69.4878 140.065L69.2274 140.149L68.967 140.234ZM67.6791 140.065C67.6158 140.17 67.6721 140.297 67.8128 140.346C67.9536 140.396 68.1155 140.346 68.1858 140.241L67.9325 140.156L67.6791 140.072V140.065ZM74.1749 140.452C74.2312 140.557 74.4001 140.607 74.5409 140.564C74.6816 140.515 74.752 140.389 74.6887 140.283L74.4353 140.367L74.1819 140.452H74.1749ZM72.88 140.276C72.8166 140.381 72.88 140.508 73.0137 140.557C73.1544 140.607 73.3163 140.557 73.3867 140.452L73.1333 140.367L72.88 140.283V140.276ZM68.8192 143.851C68.7981 143.731 68.6503 143.654 68.4955 143.675C68.3407 143.696 68.2351 143.809 68.2632 143.928L68.5377 143.886L68.8122 143.851H68.8192ZM70.6772 144.85C70.8179 144.794 70.8672 144.66 70.7968 144.555C70.7264 144.449 70.5575 144.407 70.4168 144.463L70.5435 144.653L70.6701 144.843L70.6772 144.85ZM69.5089 146.575L69.4808 146.793C69.6074 146.8 69.7552 146.786 69.896 146.758C70.0367 146.729 70.1986 146.694 70.3605 146.645C70.6842 146.554 71.0431 146.427 71.3669 146.3C71.6976 146.173 72.0003 146.047 72.2255 145.948C72.3381 145.899 72.4296 145.864 72.4929 145.836C72.5281 145.822 72.5492 145.808 72.5633 145.8C72.5703 145.8 72.5774 145.8 72.5844 145.793C72.5844 145.793 72.5375 145.73 72.4436 145.603L72.3029 145.413C72.3029 145.413 72.2958 145.413 72.2818 145.42C72.2677 145.427 72.2395 145.442 72.2114 145.449C72.1481 145.477 72.0636 145.512 71.951 145.561C71.7328 145.653 71.4302 145.779 71.1135 145.899C70.7898 146.019 70.459 146.138 70.1564 146.23C70.0086 146.272 69.8749 146.307 69.7623 146.328C69.6426 146.349 69.5652 146.356 69.523 146.356L69.4948 146.575H69.5089ZM72.4577 145.603C72.5515 145.73 72.5985 145.793 72.5985 145.793C72.5985 145.793 72.5985 145.793 72.6055 145.793C72.6125 145.793 72.6266 145.786 72.6407 145.772C72.6759 145.758 72.7181 145.737 72.7744 145.709C72.887 145.653 73.0489 145.568 73.2319 145.477C73.5837 145.287 74.0271 145.033 74.3297 144.794L74.1327 144.639L73.9356 144.484C73.6682 144.696 73.267 144.928 72.9222 145.111C72.7533 145.202 72.5985 145.28 72.4859 145.336C72.4296 145.364 72.3873 145.385 72.3521 145.399C72.3381 145.406 72.324 145.413 72.317 145.413C72.317 145.413 72.317 145.413 72.3099 145.413C72.3099 145.413 72.3099 145.413 72.4507 145.603H72.4577ZM74.1468 144.632L74.3438 144.787C74.6675 144.534 74.9983 144.168 75.2446 143.872C75.3713 143.724 75.4698 143.591 75.5473 143.499C75.5824 143.45 75.6106 143.415 75.6317 143.387C75.6388 143.372 75.6528 143.365 75.6528 143.358C75.6528 143.358 75.6528 143.358 75.6528 143.351C75.6528 143.351 75.6528 143.351 75.4065 143.246C75.2423 143.175 75.1602 143.14 75.1602 143.14C75.1602 143.14 75.1602 143.14 75.1602 143.147C75.1602 143.147 75.1461 143.161 75.1391 143.175C75.118 143.204 75.0898 143.239 75.0546 143.281C74.9842 143.372 74.8857 143.499 74.7661 143.64C74.5268 143.928 74.2171 144.259 73.9427 144.477L74.1397 144.632H74.1468ZM75.4206 143.239C75.5754 143.319 75.6528 143.358 75.6528 143.358C75.6528 143.358 75.6528 143.351 75.6669 143.344C75.6739 143.33 75.688 143.316 75.7021 143.295C75.7302 143.253 75.7725 143.19 75.8147 143.112C75.9062 142.95 76.0258 142.704 76.1384 142.352C76.3636 141.662 76.5537 140.571 76.4692 138.967L76.1947 138.981H75.9203C75.9977 140.564 75.8077 141.606 75.5965 142.253C75.491 142.577 75.3854 142.802 75.308 142.943C75.2658 143.014 75.2376 143.063 75.2165 143.091C75.2024 143.105 75.1954 143.119 75.1954 143.119C75.1954 143.119 75.2728 143.159 75.4276 143.239H75.4206ZM64.864 144.4C64.6857 144.456 64.5966 144.484 64.5966 144.484C64.5966 144.484 64.5966 144.491 64.6036 144.499C64.6036 144.513 64.6177 144.541 64.6318 144.569C64.6599 144.632 64.6951 144.724 64.7303 144.843C64.8077 145.083 64.9063 145.427 64.9626 145.843L65.2441 145.815L65.5256 145.786C65.4622 145.343 65.3637 144.977 65.2793 144.724C65.237 144.597 65.1948 144.499 65.1667 144.428C65.1526 144.393 65.1385 144.365 65.1315 144.351C65.1315 144.344 65.1244 144.337 65.1244 144.33C65.1244 144.33 65.0353 144.358 64.857 144.414L64.864 144.4ZM65.2511 145.822L64.9696 145.85C65.0611 146.504 64.9626 146.708 64.8851 146.828L65.1385 146.919L65.3919 147.011C65.5397 146.786 65.6311 146.476 65.5326 145.779L65.2511 145.808V145.822ZM76.1947 138.974L76.0188 139.143C76.1877 139.241 76.4622 139.382 76.7577 139.495C76.9055 139.551 77.0674 139.593 77.2293 139.628C77.3841 139.657 77.56 139.671 77.7289 139.635L77.6656 139.431L77.6023 139.227C77.553 139.234 77.4686 139.234 77.363 139.22C77.2504 139.199 77.1307 139.164 77.0041 139.122C76.7507 139.03 76.5114 138.904 76.3707 138.819L76.2018 138.988L76.1947 138.974ZM77.6726 139.424L77.7993 139.234C77.8415 139.248 77.8275 139.27 77.8204 139.234C77.8134 139.192 77.8064 139.136 77.8204 139.051C77.8556 138.889 77.9471 138.714 78.0386 138.615L77.8134 138.488L77.5882 138.362C77.4334 138.524 77.3137 138.77 77.2715 138.981C77.2504 139.087 77.2433 139.206 77.2715 139.312C77.2996 139.417 77.37 139.544 77.546 139.614L77.6726 139.424ZM77.8204 138.481L78.0456 138.608C78.4186 138.207 78.6087 137.763 78.7001 137.419C78.7494 137.25 78.7705 137.102 78.7846 136.996C78.7846 136.947 78.7916 136.898 78.7987 136.87C78.7987 136.856 78.7987 136.842 78.7987 136.834V136.827C78.7987 136.827 78.7072 136.827 78.5242 136.827C78.3412 136.827 78.2497 136.827 78.2497 136.827C78.2497 136.827 78.2497 136.827 78.2497 136.834C78.2497 136.834 78.2497 136.849 78.2497 136.863C78.2497 136.884 78.2497 136.926 78.2427 136.968C78.2286 137.06 78.2075 137.193 78.1723 137.341C78.0879 137.651 77.926 138.031 77.6093 138.369L77.8345 138.495L77.8204 138.481ZM78.5172 136.82L78.7916 136.792C78.7353 136.476 78.4538 136.159 77.9119 135.744L77.7149 135.891L77.5178 136.039C78.0527 136.447 78.2145 136.687 78.2497 136.849L78.5242 136.82H78.5172ZM77.7078 135.891L77.9049 135.744C77.9049 135.744 77.8486 135.687 77.8064 135.61C77.7641 135.532 77.7289 135.448 77.6726 135.328C77.5671 135.103 77.4193 134.822 77.1096 134.533C76.4903 133.963 75.3009 133.435 72.7744 133.224L72.7392 133.428L72.704 133.632C75.1602 133.836 76.1877 134.336 76.6803 134.794C76.9266 135.026 77.0533 135.258 77.1519 135.462C77.1941 135.561 77.2433 135.673 77.2926 135.765C77.3419 135.856 77.4052 135.955 77.5108 136.039L77.7078 135.891ZM72.7463 133.428L72.7674 133.224C72.4296 133.21 72.0636 133.14 71.5991 133.055C71.1487 132.978 70.6349 132.9 70.0508 132.9C68.8685 132.9 67.4539 133.203 65.6734 134.343L65.8493 134.498L66.0253 134.653C67.7213 133.569 69.0163 133.309 70.0438 133.309C70.5646 133.309 71.0361 133.379 71.4724 133.456C71.9017 133.527 72.331 133.618 72.7251 133.632L72.7463 133.428ZM64.3644 136.328L64.0969 136.278C63.9421 136.68 63.7802 137.123 63.6536 137.517C63.5269 137.904 63.4283 138.256 63.4143 138.467H63.6887L63.9632 138.474C63.9773 138.312 64.0617 137.996 64.1884 137.609C64.3151 137.229 64.477 136.785 64.6248 136.384L64.3573 136.335L64.3644 136.328ZM63.6887 138.467H63.4143C63.3932 138.749 63.4283 139.002 63.4706 139.22C63.5128 139.452 63.555 139.607 63.5621 139.741L63.8365 139.72L64.111 139.699C64.0969 139.544 64.0477 139.333 64.0125 139.143C63.9773 138.939 63.9421 138.714 63.9632 138.467H63.6887ZM65.1174 138.467L65.1948 138.671C65.7508 138.531 66.2082 138.46 66.6305 138.39C67.0528 138.319 67.4469 138.256 67.841 138.143C68.6503 137.911 69.4315 137.482 70.5716 136.461L70.3605 136.328L70.1493 136.194C69.0444 137.186 68.3336 137.552 67.651 137.749C67.2991 137.848 66.9472 137.904 66.5179 137.975C66.0956 138.045 65.61 138.122 65.0259 138.27L65.1033 138.474L65.1174 138.467ZM70.3675 136.321L70.5786 136.454C70.9235 136.138 71.2824 136.018 71.6132 135.997C71.951 135.976 72.3099 136.06 72.6548 136.222C72.9996 136.377 73.3093 136.595 73.5556 136.82C73.8019 137.046 73.9708 137.264 74.0271 137.405L74.2875 137.334L74.5479 137.264C74.4564 137.06 74.2453 136.799 73.9779 136.546C73.7034 136.293 73.3445 136.046 72.9433 135.856C72.5422 135.673 72.0706 135.547 71.578 135.575C71.0783 135.603 70.5927 135.793 70.1564 136.18L70.3675 136.314V136.321ZM74.2875 137.334L74.4072 137.524C74.4705 137.503 74.6324 137.468 74.8505 137.468C75.0617 137.468 75.2869 137.503 75.4839 137.58C75.6739 137.658 75.8358 137.785 75.9273 137.982C76.0188 138.186 76.054 138.488 75.9273 138.925L76.1947 138.967L76.4622 139.009C76.61 138.524 76.5888 138.129 76.4481 137.827C76.3073 137.517 76.0469 137.32 75.7443 137.193C75.4487 137.074 75.132 137.032 74.8576 137.032C74.5901 137.032 74.3297 137.067 74.1679 137.13L74.2875 137.32V137.334ZM63.9139 141.212L63.6395 141.247C63.8154 142.176 64.118 143.464 64.6036 144.484L64.8711 144.4L65.1385 144.316C64.674 143.344 64.3714 142.092 64.1955 141.17L63.921 141.205L63.9139 141.212ZM65.1174 138.467L65.04 138.263C64.5121 138.397 64.1603 138.608 63.928 138.875C63.7028 139.136 63.6184 139.424 63.5621 139.699L63.8365 139.727L64.111 139.755C64.1603 139.502 64.2377 139.284 64.3925 139.108C64.5403 138.932 64.7796 138.777 65.1948 138.678L65.1174 138.474V138.467ZM63.8365 139.727L63.5621 139.699C63.4846 140.086 63.4987 140.48 63.5409 140.769C63.5621 140.916 63.5832 141.036 63.6043 141.12C63.6113 141.163 63.6254 141.198 63.6254 141.219C63.6254 141.233 63.6254 141.24 63.6324 141.247C63.6324 141.247 63.6324 141.247 63.6324 141.254C63.6324 141.254 63.6324 141.254 63.9069 141.198C64.0899 141.16 64.1814 141.142 64.1814 141.142C64.1814 141.142 64.1814 141.127 64.1814 141.12C64.1814 141.099 64.1673 141.071 64.1603 141.029C64.1392 140.952 64.118 140.839 64.104 140.705C64.0688 140.438 64.0547 140.086 64.118 139.748L63.8436 139.72L63.8365 139.727ZM65.8493 134.498L65.6734 134.343C64.8781 134.85 64.3714 135.547 64.0969 136.286L64.3644 136.335L64.6318 136.384C64.8851 135.708 65.3426 135.096 66.0253 134.653L65.8493 134.498ZM69.5089 146.575L69.2344 146.532C69.2133 146.617 69.0374 146.884 69.2344 147.215L69.4948 147.117L69.7552 147.018C69.6567 146.856 69.7341 146.828 69.7904 146.61L69.516 146.568L69.5089 146.575ZM69.2274 140.149L69.4878 140.065C69.3541 139.811 69.0304 139.643 68.6714 139.628L68.6433 139.84L68.6151 140.051C68.777 140.058 68.9177 140.135 68.967 140.234L69.2274 140.149ZM68.6433 139.84L68.6714 139.628C68.2632 139.607 67.8621 139.776 67.6791 140.065L67.9325 140.149L68.1858 140.234C68.2562 140.121 68.4321 140.037 68.6222 140.051L68.6503 139.84H68.6433ZM74.4353 140.367L74.6887 140.283C74.5479 140.03 74.2242 139.861 73.8652 139.84L73.8441 140.051L73.823 140.262C73.9919 140.269 74.1256 140.346 74.1819 140.445L74.4353 140.36V140.367ZM73.8441 140.051L73.8652 139.84C73.4571 139.818 73.0559 139.987 72.88 140.276L73.1333 140.36L73.3867 140.445C73.4571 140.332 73.633 140.248 73.816 140.262L73.8371 140.051H73.8441ZM68.5377 143.893L68.2632 143.935C68.2703 143.985 68.4181 144.646 69.2415 144.914L69.3541 144.71L69.4667 144.506C68.9318 144.33 68.8192 143.886 68.8192 143.851L68.5448 143.886L68.5377 143.893ZM69.3541 144.71L69.2415 144.914C69.9523 145.146 70.5857 144.886 70.6772 144.85L70.5505 144.66L70.4238 144.47C70.3675 144.491 69.9382 144.66 69.4737 144.513L69.3611 144.717L69.3541 144.71ZM69.4948 147.124L69.3541 146.934C68.784 147.194 68.1999 147.349 67.5524 147.342C66.905 147.342 66.166 147.166 65.2933 146.737L65.1385 146.927L64.9837 147.117C65.9197 147.574 66.7572 147.778 67.5313 147.785C68.3125 147.785 69.0022 147.602 69.6286 147.314L69.4878 147.124H69.4948Z" fill="#03092D"/>
<path d="M65.1386 146.982C65.1386 146.982 59.9729 147.968 57.1086 149.143C56.63 149.34 56.3063 149.699 56.2218 150.114C55.7011 152.697 55.877 157.462 55.877 157.462L59.6914 155.639L60.5711 155.188L60.6908 152.929L60.4093 150.586" stroke="#03092D" stroke-linecap="round" stroke-linejoin="round"/>
<path d="M69.6357 146.99C69.6357 146.99 73.3587 147.898 76.7649 149.559C77.1168 149.728 77.3842 149.988 77.4968 150.305C78.4681 152.951 78.1443 157.498 78.1443 157.498L74.4566 155.661L73.612 155.203L73.6613 152.944L72.493 150.404" stroke="#03092D" stroke-linecap="round" stroke-linejoin="round"/>
<path d="M64.5615 148.552C64.8641 148.897 65.3357 150.22 65.5609 155.14" stroke="#03092D" stroke-linecap="round" stroke-linejoin="round"/>
<path d="M69.1147 148.081C69.2977 148.271 70.1845 150.593 70.6138 155.358" stroke="#03092D" stroke-linecap="round" stroke-linejoin="round"/>
</g>
</g>
<path d="M41.7283 96.0732H36.9444C35.4354 96.0732 34.2122 97.2965 34.2122 98.8055V103.589" stroke="#3449FC" stroke-linecap="round" stroke-linejoin="round"/>
<path d="M41.7271 192.113H36.9431C35.4342 192.113 34.2109 190.89 34.2109 189.381V184.597" stroke="#3449FC" stroke-linecap="round" stroke-linejoin="round"/>
<rect x="34.7371" y="46.8462" width="97.3607" height="18.9399" rx="2.23224" stroke="#03092D"/>
<path d="M81.8799 52.3701V53.2501H79.8099V59.3701H78.8899V53.2501H76.8299V52.3701H81.8799ZM83.1503 53.4601C82.9836 53.4601 82.8436 53.4035 82.7303 53.2901C82.617 53.1768 82.5603 53.0401 82.5603 52.8801C82.5603 52.7201 82.617 52.5835 82.7303 52.4701C82.8436 52.3501 82.9836 52.2901 83.1503 52.2901C83.3103 52.2901 83.447 52.3501 83.5603 52.4701C83.6736 52.5835 83.7303 52.7201 83.7303 52.8801C83.7303 53.0401 83.6736 53.1768 83.5603 53.2901C83.447 53.4035 83.3103 53.4601 83.1503 53.4601ZM82.7103 59.3701V54.3701H83.5803V59.3701H82.7103ZM84.9076 59.3701V52.0701H85.7776V59.3701H84.9076ZM89.8248 55.2101H88.4948V57.9201C88.4948 58.1668 88.5415 58.3435 88.6348 58.4501C88.7348 58.5501 88.8848 58.6035 89.0848 58.6101C89.2848 58.6101 89.5315 58.6035 89.8248 58.5901V59.3701C89.0648 59.4701 88.5082 59.4101 88.1548 59.1901C87.8015 58.9635 87.6248 58.5401 87.6248 57.9201V55.2101H86.6348V54.3701H87.6248V53.2301L88.4948 52.9701V54.3701H89.8248V55.2101Z" fill="#03092D"/>
</g>
</g>
<defs>
<linearGradient id="paint0_linear_1006_3399" x1="118.678" y1="81.1236" x2="120.296" y2="111.991" gradientUnits="userSpaceOnUse">
<stop stop-color="#AEAEFF"/>
<stop offset="1" stop-color="white" stop-opacity="0.8"/>
</linearGradient>
<linearGradient id="paint1_linear_1006_3399" x1="71.0994" y1="133.112" x2="71.0994" y2="178.125" gradientUnits="userSpaceOnUse">
<stop stop-color="#AEAEFF"/>
<stop offset="1" stop-color="white" stop-opacity="0.8"/>
</linearGradient>
<clipPath id="clip0_1006_3399">
<rect width="217" height="210" fill="white"/>
</clipPath>
<clipPath id="clip1_1006_3399">
<rect width="84" height="225" fill="white" transform="translate(115 18)"/>
</clipPath>
<clipPath id="clip2_1006_3399">
<rect width="13.0252" height="16.3332" fill="white" transform="translate(109.761 80.1406) rotate(-3)"/>
</clipPath>
<clipPath id="clip3_1006_3399">
<rect width="84" height="225" fill="white" transform="translate(18 18)"/>
</clipPath>
<clipPath id="clip4_1006_3399">
<rect width="92.8906" height="44.3234" fill="white" transform="translate(36.9456 121.942)"/>
</clipPath>
</defs>
</svg>
