<svg width="225" height="210" viewBox="0 0 225 210" fill="none" xmlns="http://www.w3.org/2000/svg">
<g clip-path="url(#clip0_1006_4313)">
<path d="M65.7052 18.0005H159.576H165.199C171.376 18.0005 176.382 23.0072 176.382 29.1833V34.8487V43.7209H177.5V65.8069H176.382V70.0005V71.6779H177.5V82.5811H176.382V216.482V229.419V230.474C176.382 236.65 171.376 241.656 165.199 241.656H161.662H68.8888H62.5344C55.0035 241.656 48.8986 235.551 48.899 228.02V224.223V224.162V82.8607H47.5005V58.8177H48.899V34.8487V29.1833C48.899 23.0072 53.9057 18.0005 60.0818 18.0005H65.7052Z" fill="#E9EEF5" stroke="#03092D" stroke-linecap="round" stroke-linejoin="round"/>
<path d="M112.639 27.9403C111.472 27.9403 110.526 26.9945 110.526 25.8278C110.526 24.6611 111.472 23.7153 112.639 23.7153C113.806 23.7153 114.751 24.6611 114.751 25.8278C114.751 26.9945 113.806 27.9403 112.639 27.9403Z" fill="#03092D"/>
<path d="M171.908 38.6474V213.015V225.435V228.796C171.908 233.428 168.153 237.183 163.521 237.183H158.221H71.9582H61.7581C57.1259 237.183 53.3708 233.428 53.371 228.795L53.3712 224.092V220.447V220.388V38.6474V30.8602C53.3712 26.2282 57.1262 22.4731 61.7583 22.4731H68.998H88.6571C90.1976 22.4731 91.4465 23.722 91.4465 25.2626C91.4465 29.8844 95.1932 33.6311 99.815 33.6311H125.222C129.843 33.6311 133.59 29.8844 133.59 25.2626C133.59 23.722 134.839 22.4731 136.38 22.4731H156.281H163.521C168.153 22.4731 171.908 26.2282 171.908 30.8602V38.6474Z" fill="white" stroke="#03092D" stroke-linecap="round" stroke-linejoin="round"/>
<path d="M149.49 89.9443C152.01 89.9443 154.056 91.9891 154.056 94.5088V117.222H144.43C144.43 117.222 144.427 117.224 144.425 117.226C144.452 117.3 144.493 117.405 144.561 117.575C144.691 117.901 144.982 118.609 144.982 119.463C144.982 121.983 142.936 124.027 140.416 124.027C137.897 124.027 135.852 121.983 135.852 119.463C135.852 118.749 136.044 118.161 136.179 117.795C136.324 117.401 136.364 117.323 136.401 117.222H126.772L126.78 108.093H129.074C131.559 108.093 133.583 106.067 133.583 103.583C133.583 101.099 131.559 99.0744 129.074 99.0742H126.778V89.9443H149.49Z" fill="#5470DA"/>
<path d="M113.194 103.111C113.456 103.111 113.667 103.323 113.667 103.584V112.186H115.463C118.224 112.186 120.472 114.434 120.473 117.194C120.473 119.955 118.224 122.204 115.463 122.204H113.667V130.334H122.88L122.978 130.348C123.078 130.376 123.184 130.451 123.265 130.591C123.344 130.728 123.355 130.85 123.329 130.949L123.291 131.04C122.927 131.657 122.741 132.373 122.741 133.074C122.741 135.318 124.562 137.139 126.806 137.139L127.015 137.134C129.161 137.025 130.87 135.248 130.87 133.074C130.87 132.537 130.761 131.991 130.547 131.488L130.448 131.276L130.444 131.269L130.44 131.261L130.329 131.056L130.301 130.999C130.26 130.895 130.26 130.75 130.353 130.588C130.459 130.402 130.607 130.334 130.731 130.334H140.417L140.513 130.344C140.728 130.388 140.889 130.577 140.889 130.806V153.491L140.882 153.748C140.752 156.305 138.693 158.363 136.137 158.493L135.88 158.5H90.5088C87.8345 158.5 85.6412 156.39 85.5068 153.748L85.5 153.491V108.12C85.5003 105.36 87.7484 103.112 90.5088 103.111H113.194ZM99.583 124.473C97.3412 124.473 95.5186 126.293 95.5186 128.537C95.5186 129.235 95.704 129.941 96.0557 130.548L96.085 130.607C96.1266 130.709 96.1304 130.856 96.0352 131.022C95.9537 131.164 95.8497 131.237 95.7529 131.265L95.6592 131.278H86.4443V153.491C86.4445 155.735 88.2671 157.555 90.5088 157.556H112.723V149.426H110.926C108.251 149.426 106.058 147.316 105.924 144.674L105.917 144.417C105.917 141.656 108.165 139.407 110.926 139.407H112.723V131.278H103.508C103.392 131.278 103.241 131.212 103.131 131.02C103.022 130.83 103.04 130.67 103.1 130.568C103.459 129.957 103.648 129.242 103.648 128.537C103.648 126.293 101.825 124.473 99.583 124.473ZM113.667 131.278V140.491L113.663 140.548C113.644 140.679 113.557 140.802 113.417 140.883C113.256 140.975 113.085 140.975 112.96 140.901C112.344 140.539 111.63 140.353 110.926 140.353C108.684 140.353 106.861 142.173 106.861 144.417C106.861 146.661 108.684 148.481 110.926 148.481C111.499 148.481 112.076 148.354 112.603 148.113L112.619 148.13L112.786 148.033L112.952 147.937C113.09 147.856 113.266 147.865 113.419 147.953C113.572 148.041 113.667 148.188 113.667 148.343V157.556H135.88L136.089 157.551C138.166 157.445 139.834 155.778 139.939 153.7L139.944 153.491V131.278H131.814V133.074C131.814 135.749 129.704 137.943 127.062 138.077L126.806 138.084C124.045 138.084 121.796 135.835 121.796 133.074V131.278H113.667ZM90.5088 104.056C88.3371 104.056 86.5584 105.764 86.4492 107.911L86.4443 108.12V130.334H94.5742V128.537C94.5743 125.777 96.8225 123.528 99.583 123.528C102.344 123.528 104.593 125.776 104.593 128.537V130.334H112.723V121.12C112.723 120.974 112.81 120.826 112.974 120.732C113.138 120.638 113.31 120.64 113.43 120.71C114.045 121.072 114.759 121.26 115.463 121.26C117.705 121.26 119.527 119.439 119.527 117.194C119.527 114.95 117.705 113.13 115.463 113.13C114.768 113.13 114.064 113.312 113.453 113.666L113.383 113.699C113.265 113.745 113.115 113.734 112.974 113.652C112.83 113.57 112.745 113.446 112.727 113.322L112.723 113.27V104.056H90.5088Z" fill="#03092D"/>
<path d="M149.489 89.5C152.25 89.5 154.499 91.7483 154.499 94.5088V117.194C154.499 117.423 154.338 117.613 154.122 117.657L154.026 117.667H145.425V119.463C145.425 122.224 143.176 124.473 140.415 124.473C137.655 124.472 135.406 122.223 135.406 119.463V117.667H126.832C126.518 117.669 126.328 117.446 126.328 117.203V107.518C126.328 107.422 126.387 107.267 126.595 107.147C126.75 107.058 126.881 107.05 126.972 107.072L127.049 107.103C127.663 107.462 128.374 107.648 129.072 107.648C131.316 107.648 133.138 105.827 133.138 103.583C133.138 101.339 131.316 99.5186 129.072 99.5186C128.436 99.5188 127.927 99.6923 127.587 99.8281C127.39 99.9068 127.264 99.9645 127.177 100.002C127.093 100.038 127.04 100.058 126.964 100.08L126.89 100.091C126.801 100.093 126.675 100.066 126.541 99.9697C126.427 99.8877 126.373 99.8036 126.349 99.7393L126.334 99.6826L126.332 99.6572V89.9727C126.332 89.7464 126.49 89.5585 126.701 89.5117L126.819 89.5H149.489ZM127.276 90.4443V98.5742H129.072C131.833 98.5742 134.082 100.822 134.082 103.583C134.082 106.344 131.833 108.593 129.072 108.593H127.279L127.277 109.092L127.271 116.723H136.489C136.553 116.723 136.691 116.764 136.813 116.924C136.9 117.037 136.921 117.134 136.922 117.194L136.914 117.254C136.886 117.351 136.861 117.418 136.822 117.515L136.821 117.518L136.648 117.964L136.647 117.968C136.52 118.315 136.351 118.837 136.351 119.463C136.351 121.706 138.172 123.527 140.415 123.527C142.659 123.527 144.48 121.707 144.48 119.463C144.48 118.715 144.226 118.087 144.096 117.761C143.969 117.445 143.924 117.326 143.906 117.254L143.896 117.207C143.893 117.175 143.906 117.05 144.041 116.901L144.141 116.81C144.205 116.762 144.262 116.739 144.3 116.729L144.342 116.723H153.554V94.5088C153.553 92.2653 151.733 90.4443 149.489 90.4443H127.276Z" fill="#03092D"/>
</g>
<defs>
<clipPath id="clip0_1006_4313">
<rect width="225" height="210" fill="white"/>
</clipPath>
</defs>
</svg>
