<svg width="225" height="210" viewBox="0 0 225 210" fill="none" xmlns="http://www.w3.org/2000/svg">
<g clip-path="url(#clip0_1006_4275)">
<path d="M65.7052 18.0005H159.576H165.199C171.376 18.0005 176.382 23.0072 176.382 29.1833V34.8487V43.7209H177.5V65.8069H176.382V70.0005V71.6779H177.5V82.5811H176.382V216.482V229.419V230.474C176.382 236.65 171.376 241.656 165.199 241.656H161.662H68.8888H62.5344C55.0035 241.656 48.8986 235.551 48.899 228.02V224.223V224.162V82.8607H47.5005V58.8177H48.899V34.8487V29.1833C48.899 23.0072 53.9057 18.0005 60.0818 18.0005H65.7052Z" fill="#E9EEF5" stroke="#03092D" stroke-linecap="round" stroke-linejoin="round"/>
<path d="M112.639 27.9403C111.472 27.9403 110.526 26.9945 110.526 25.8278C110.526 24.6611 111.472 23.7153 112.639 23.7153C113.806 23.7153 114.751 24.6611 114.751 25.8278C114.751 26.9945 113.806 27.9403 112.639 27.9403Z" fill="#03092D"/>
<path d="M171.908 38.6474V213.015V225.435V228.796C171.908 233.428 168.153 237.183 163.521 237.183H158.221H71.9582H61.7581C57.1259 237.183 53.3708 233.428 53.371 228.795L53.3712 224.092V220.447V220.388V38.6474V30.8602C53.3712 26.2282 57.1262 22.4731 61.7583 22.4731H68.998H88.6571C90.1976 22.4731 91.4465 23.722 91.4465 25.2626C91.4465 29.8844 95.1932 33.6311 99.815 33.6311H125.222C129.843 33.6311 133.59 29.8844 133.59 25.2626C133.59 23.722 134.839 22.4731 136.38 22.4731H156.281H163.521C168.153 22.4731 171.908 26.2282 171.908 30.8602V38.6474Z" fill="white" stroke="#03092D" stroke-linecap="round" stroke-linejoin="round"/>
<path d="M67.2561 149.723L67.0276 145.262L67.1536 136.962C67.2067 133.428 70.1249 130.612 73.6584 130.685L88.9739 131H89.0354C89.0641 131 89.1072 130.998 89.1633 130.997C89.276 130.995 89.443 130.993 89.6584 130.989C90.0892 130.982 90.7156 130.972 91.4983 130.959C93.064 130.933 95.2556 130.896 97.7571 130.853C102.76 130.765 109.005 130.65 113.972 130.542C116.212 130.493 118.187 130.515 120.17 130.539C122.152 130.563 124.144 130.588 126.403 130.542C131.072 130.447 133.672 130.542 138.365 130.542H156.324C159.354 130.542 161.811 132.998 161.811 136.028V144.249C161.811 144.253 161.81 144.259 161.81 144.267C161.809 144.285 161.809 144.312 161.809 144.347C161.808 144.417 161.805 144.521 161.803 144.654C161.798 144.922 161.792 145.312 161.784 145.798C161.77 146.77 161.753 148.128 161.741 149.674C161.718 152.764 161.718 156.61 161.811 159.617C161.856 161.082 161.833 162.222 161.81 163.373C161.787 164.525 161.764 165.687 161.811 167.18C161.912 170.391 161.811 172.166 161.811 175.413V183.905C161.811 187.502 158.835 190.389 155.232 190.323C153.127 190.285 150.886 190.258 149.018 190.266C146.931 190.275 144.263 190.332 142.119 190.387C141.047 190.414 140.104 190.442 139.43 190.462C139.093 190.472 138.822 190.48 138.636 190.485C138.543 190.488 138.472 190.491 138.423 190.492C138.399 190.493 138.38 190.494 138.367 190.494C138.361 190.494 138.357 190.495 138.354 190.495H114.393C114.385 190.495 114.374 190.496 114.36 190.496C114.331 190.497 114.287 190.498 114.231 190.5C114.117 190.503 113.949 190.509 113.732 190.516C113.297 190.529 112.664 190.546 111.874 190.568C110.295 190.613 108.089 190.672 105.577 190.73C100.554 190.847 94.3148 190.961 89.4436 190.953C84.4793 190.945 77.9668 190.805 73.1545 190.682C69.7318 190.594 67.0099 187.8 67.0032 184.375C66.9968 181.082 66.9983 177.152 67.0276 174.043C67.0525 171.405 67.1103 168.027 67.1614 165.308C67.1869 163.948 67.2102 162.753 67.2278 161.898C67.2366 161.471 67.2443 161.129 67.2493 160.894C67.2518 160.776 67.2538 160.685 67.2551 160.623C67.2558 160.592 67.2558 160.568 67.2561 160.553C67.2563 160.545 67.257 160.539 67.2571 160.535V149.749C67.2571 149.74 67.2565 149.731 67.2561 149.723Z" fill="white" stroke="#03092D" stroke-linecap="round" stroke-linejoin="round"/>
<path opacity="0.2" d="M122.43 152.664C122.43 152.664 127.228 152.789 132.128 152.789C137.028 152.789 147.524 152.664 147.524 152.664" stroke="#03092D" stroke-width="3" stroke-linecap="round" stroke-linejoin="round"/>
<path opacity="0.2" d="M122.288 159.551C122.288 159.551 125.118 159.551 127.7 159.551C129.66 159.551 133.917 159.551 133.917 159.551" stroke="#03092D" stroke-width="3" stroke-linecap="round" stroke-linejoin="round"/>
<path d="M111.335 140.695C112.792 140.739 113.943 141.945 113.92 143.403L113.705 156.855V156.871L113.921 170.754C113.944 172.243 112.744 173.462 111.255 173.462H83.593C82.1732 173.462 81.0073 172.352 80.9446 170.938C80.7878 167.399 80.5569 161.458 80.5569 157.125C80.5569 152.753 80.7916 146.743 80.9485 143.216C81.0101 141.835 82.1264 140.74 83.5129 140.696L96.9993 140.263L111.335 140.695Z" fill="#E9EEF5" stroke="#03092D"/>
<g clip-path="url(#clip1_1006_4275)">
<path d="M97.776 162.967L95.0002 162.195V159.728L94.075 156.952L93.304 153.868V151.555L94.5376 149.859L99.0097 148.163L101.014 145.541L105.641 148.163L106.874 150.321L106.412 153.868L105.641 157.878L102.402 160.653L99.6265 161.733V162.504L97.776 162.967Z" fill="#FFCEB6"/>
<path d="M95.2677 160.871C95.2677 160.481 98.0435 163.11 99.7397 161.876V162.648L97.0768 163.029L95.3205 162.248C95.0635 161.529 95.2677 161.334 95.2677 160.871Z" fill="#F9AC8A"/>
<path d="M101.27 173.406C100.665 167.971 99.2016 165.912 98.3086 163.715C98.1779 163.394 98.3575 163.036 98.6881 162.931L99.7498 162.594C99.8671 162.557 99.9928 162.555 100.111 162.59L104.269 163.813C104.328 163.83 104.385 163.857 104.437 163.891L107.686 166.057C107.809 166.139 107.898 166.262 107.938 166.404L108.765 169.359C108.78 169.413 108.788 169.469 108.788 169.526V173.213C108.788 173.521 108.56 173.782 108.255 173.824L105.502 174.203C105.407 174.216 105.319 174.152 105.302 174.058C105.264 173.849 104.959 173.87 104.948 174.081L104.941 174.226L101.835 173.961C101.538 173.936 101.303 173.701 101.27 173.406Z" fill="#E1F0FF"/>
<path d="M98.8548 162.968C99.009 163.277 99.2866 164.233 99.78 165.59C100.256 166.899 100.824 171.149 101.13 174.226H95.6165C94.8455 171.604 96.5417 164.202 93.1492 163.123L94.8455 162.506L96.8502 163.123L98.8548 162.968Z" fill="white"/>
<path d="M90.0914 173.771L85.8419 176.231L85.5645 171.226L85.796 166.666C85.8243 166.109 86.1549 165.612 86.6578 165.37L88.5746 164.45C88.6492 164.414 88.7266 164.384 88.806 164.361L93.0161 163.129C93.7496 162.96 94.4692 163.459 94.5687 164.205L95.0001 167.441L95.7974 174.188L91.4496 174.732C91.1408 174.771 90.868 174.53 90.868 174.219C90.868 173.82 90.4363 173.571 90.0914 173.771Z" fill="#E1F0FF"/>
<path d="M106.67 151.191C107.008 151.452 107.803 151.946 108.279 151.827C107.981 151.678 108.158 150.866 108.428 150.488C109.171 149.447 109.171 148.109 109.171 148.109C109.122 147.762 108.874 147.366 108.279 146.771C107.713 146.204 108.279 143.797 102.777 143.202C101.152 143.112 98.9549 141.526 95.2119 144.772C94.4215 145.457 93.9223 146.412 93.666 147.426C93.3735 148.584 93.0451 149.956 93.036 150.488C93.0232 151.236 93.2219 151.859 93.2594 152.273C93.349 151.537 93.5673 150.826 94.5935 150.488C97.0562 149.678 97.8522 150.312 100.244 147.407C101.91 145.384 104.214 147.861 104.561 148.853C105.057 148.605 107.238 148.555 106.67 151.191Z" fill="#4B4D59"/>
<path d="M99.6535 161.79L99.6902 161.291C99.4349 161.273 99.2067 161.45 99.1614 161.701L99.6535 161.79ZM102.777 160.452L103.03 160.883L103.036 160.879L102.777 160.452ZM104.561 159.113L104.92 159.462V159.462L104.561 159.113ZM105.9 157.18L105.483 156.904L105.471 156.921L105.461 156.94L105.9 157.18ZM106.67 151.191L106.181 151.085C106.172 151.128 106.168 151.172 106.17 151.216L106.67 151.191ZM94.5935 158.806L94.1304 158.994L94.1304 158.994L94.5935 158.806ZM95.0732 160.76L95.5684 160.691L95.5684 160.691L95.0732 160.76ZM94.9994 162.271L94.5471 162.058C94.4387 162.288 94.5204 162.563 94.7371 162.697L94.9994 162.271ZM108.279 151.827L108.4 152.312C108.603 152.261 108.753 152.089 108.776 151.881C108.799 151.673 108.69 151.473 108.502 151.379L108.279 151.827ZM108.428 150.488L108.834 150.779V150.779L108.428 150.488ZM109.171 148.109H109.671C109.671 148.085 109.669 148.062 109.666 148.038L109.171 148.109ZM108.279 146.771L108.632 146.417V146.417L108.279 146.771ZM102.777 143.202L102.83 142.705C102.822 142.704 102.813 142.703 102.804 142.703L102.777 143.202ZM95.2119 144.772L95.5395 145.149V145.149L95.2119 144.772ZM93.666 147.426L94.1508 147.549H94.1508L93.666 147.426ZM93.036 150.488L93.5359 150.497L93.036 150.488ZM93.2594 152.273L93.7558 152.333V152.333L93.2594 152.273ZM94.5935 150.488L94.4373 150.013V150.013L94.5935 150.488ZM100.244 147.407L100.63 147.725V147.725L100.244 147.407ZM104.561 148.853L104.089 149.018C104.137 149.153 104.24 149.262 104.373 149.316C104.506 149.37 104.656 149.364 104.785 149.3L104.561 148.853ZM93.4122 154.362L93.9041 154.273C93.9018 154.26 93.899 154.247 93.8958 154.235L93.4122 154.362ZM99.6538 162.534L99.9078 162.964C100.133 162.832 100.218 162.548 100.103 162.314L99.6538 162.534ZM98.6702 153.065C98.7812 153.318 99.0761 153.433 99.329 153.322C99.5819 153.211 99.6969 152.916 99.586 152.663L99.1281 152.864L98.6702 153.065ZM98.4824 152.423L98.4475 152.922L98.448 152.922L98.4824 152.423ZM97.2638 152.661C97.1516 152.913 97.2651 153.208 97.5174 153.321C97.7697 153.433 98.0653 153.319 98.1775 153.067L97.7207 152.864L97.2638 152.661ZM104.321 153.362C104.432 153.615 104.727 153.73 104.98 153.619C105.233 153.508 105.348 153.213 105.237 152.96L104.779 153.161L104.321 153.362ZM104.133 152.721L104.098 153.22L104.099 153.22L104.133 152.721ZM102.915 152.958C102.802 153.21 102.916 153.506 103.168 153.618C103.421 153.73 103.716 153.617 103.828 153.364L103.372 153.161L102.915 152.958ZM99.0096 158.006C98.9602 157.734 98.6999 157.554 98.4282 157.603C98.1565 157.653 97.9763 157.913 98.0257 158.185L98.5176 158.095L99.0096 158.006ZM99.4209 159.222L99.2311 159.685L99.2317 159.685L99.4209 159.222ZM100.936 159.589C101.179 159.458 101.27 159.155 101.139 158.912C101.008 158.669 100.705 158.578 100.462 158.708L100.699 159.149L100.936 159.589ZM99.6535 161.79L99.6168 162.289C99.7857 162.301 99.9629 162.272 100.119 162.235C100.282 162.195 100.457 162.138 100.632 162.072C100.983 161.941 101.367 161.764 101.718 161.589C102.07 161.414 102.398 161.238 102.636 161.106C102.756 161.04 102.853 160.984 102.921 160.946C102.956 160.926 102.982 160.911 103.001 160.9C103.01 160.895 103.017 160.89 103.022 160.888C103.024 160.886 103.026 160.885 103.027 160.884C103.028 160.884 103.029 160.884 103.029 160.883C103.029 160.883 103.029 160.883 103.029 160.883C103.029 160.883 103.03 160.883 103.03 160.883C103.03 160.883 103.03 160.883 102.777 160.452C102.524 160.02 102.524 160.02 102.524 160.02C102.524 160.02 102.524 160.02 102.524 160.02C102.524 160.02 102.524 160.021 102.524 160.021C102.523 160.021 102.523 160.021 102.522 160.021C102.522 160.022 102.52 160.023 102.518 160.024C102.514 160.026 102.507 160.03 102.499 160.035C102.482 160.045 102.457 160.059 102.425 160.078C102.36 160.115 102.267 160.168 102.152 160.231C101.921 160.359 101.608 160.527 101.273 160.694C100.936 160.861 100.587 161.022 100.282 161.136C100.129 161.193 99.9954 161.236 99.8855 161.262C99.7689 161.29 99.7082 161.293 99.6902 161.291L99.6535 161.79ZM102.777 160.452C103.036 160.879 103.036 160.879 103.036 160.879C103.036 160.879 103.036 160.879 103.036 160.879C103.036 160.879 103.036 160.879 103.036 160.879C103.036 160.879 103.037 160.879 103.037 160.879C103.038 160.878 103.039 160.877 103.04 160.877C103.043 160.875 103.047 160.873 103.051 160.87C103.061 160.864 103.075 160.856 103.092 160.845C103.127 160.823 103.178 160.791 103.239 160.752C103.363 160.673 103.535 160.56 103.726 160.428C104.101 160.168 104.581 159.811 104.92 159.462L104.561 159.113L104.202 158.765C103.935 159.041 103.522 159.353 103.157 159.606C102.978 159.73 102.817 159.835 102.701 159.909C102.643 159.946 102.596 159.975 102.565 159.995C102.549 160.005 102.537 160.012 102.529 160.017C102.525 160.02 102.522 160.022 102.52 160.023C102.519 160.023 102.518 160.024 102.518 160.024C102.518 160.024 102.518 160.024 102.518 160.024C102.518 160.024 102.518 160.024 102.518 160.024C102.518 160.024 102.518 160.024 102.518 160.024C102.518 160.024 102.518 160.024 102.777 160.452ZM104.561 159.113L104.92 159.462C105.277 159.094 105.634 158.574 105.892 158.168C106.024 157.961 106.135 157.775 106.213 157.641C106.252 157.574 106.283 157.52 106.304 157.482C106.315 157.463 106.323 157.448 106.329 157.437C106.331 157.432 106.334 157.428 106.335 157.425C106.336 157.424 106.337 157.423 106.337 157.422C106.337 157.422 106.338 157.421 106.338 157.421C106.338 157.421 106.338 157.421 106.338 157.421C106.338 157.421 106.338 157.421 106.338 157.421C106.338 157.421 106.338 157.421 105.9 157.18C105.461 156.94 105.461 156.94 105.461 156.94C105.461 156.94 105.461 156.94 105.461 156.94C105.461 156.94 105.461 156.94 105.461 156.94C105.461 156.94 105.461 156.94 105.461 156.94C105.461 156.941 105.46 156.941 105.46 156.942C105.459 156.944 105.457 156.948 105.454 156.952C105.45 156.961 105.442 156.974 105.433 156.991C105.413 157.025 105.385 157.075 105.348 157.138C105.275 157.264 105.171 157.438 105.048 157.632C104.797 158.028 104.485 158.474 104.202 158.765L104.561 159.113ZM105.9 157.18C106.316 157.457 106.316 157.457 106.316 157.456C106.317 157.456 106.317 157.456 106.317 157.456C106.317 157.455 106.317 157.455 106.318 157.454C106.318 157.453 106.319 157.452 106.32 157.451C106.321 157.449 106.323 157.446 106.325 157.443C106.329 157.436 106.334 157.429 106.34 157.419C106.351 157.401 106.365 157.376 106.382 157.344C106.416 157.281 106.461 157.191 106.512 157.071C106.614 156.833 106.74 156.478 106.857 155.983C107.09 154.993 107.285 153.448 107.169 151.165L106.67 151.191L106.17 151.216C106.282 153.42 106.092 154.869 105.884 155.753C105.779 156.195 105.67 156.496 105.592 156.679C105.553 156.771 105.521 156.833 105.502 156.87C105.492 156.888 105.485 156.9 105.482 156.905C105.48 156.908 105.479 156.909 105.48 156.909C105.48 156.909 105.48 156.908 105.481 156.907C105.481 156.907 105.481 156.906 105.482 156.906C105.482 156.905 105.482 156.905 105.482 156.905C105.482 156.905 105.483 156.904 105.483 156.904C105.483 156.904 105.483 156.904 105.9 157.18ZM94.5935 158.806C94.1304 158.994 94.1304 158.994 94.1303 158.994C94.1303 158.994 94.1303 158.994 94.1303 158.994C94.1303 158.994 94.1302 158.994 94.1302 158.994C94.1302 158.993 94.1301 158.993 94.1301 158.993C94.1301 158.993 94.1302 158.993 94.1303 158.994C94.1305 158.994 94.1311 158.996 94.1319 158.998C94.1336 159.002 94.1363 159.009 94.1401 159.019C94.1477 159.039 94.1592 159.07 94.1739 159.112C94.2032 159.195 94.2449 159.32 94.2918 159.481C94.3856 159.803 94.4998 160.267 94.5779 160.829L95.0732 160.76L95.5684 160.691C95.4824 160.073 95.3567 159.561 95.2518 159.201C95.1993 159.021 95.1519 158.878 95.1169 158.779C95.0994 158.729 95.0851 158.691 95.0747 158.663C95.0695 158.65 95.0654 158.639 95.0623 158.631C95.0608 158.628 95.0596 158.624 95.0586 158.622C95.0582 158.621 95.0578 158.62 95.0574 158.619C95.0573 158.619 95.0571 158.618 95.057 158.618C95.0569 158.618 95.0569 158.618 95.0568 158.618C95.0568 158.618 95.0568 158.617 95.0568 158.617C95.0567 158.617 95.0567 158.617 94.5935 158.806ZM95.0732 160.76L94.5779 160.828C94.7 161.706 94.6011 161.944 94.5471 162.058L94.9994 162.271L95.4518 162.484C95.6219 162.123 95.7038 161.665 95.5684 160.691L95.0732 160.76ZM106.67 151.191L106.364 151.586C106.556 151.734 106.87 151.944 107.21 152.104C107.381 152.184 107.57 152.257 107.763 152.302C107.95 152.345 108.176 152.368 108.4 152.312L108.279 151.827L108.158 151.342C108.144 151.345 108.091 151.351 107.986 151.327C107.885 151.304 107.765 151.26 107.635 151.199C107.374 151.076 107.122 150.908 106.976 150.795L106.67 151.191ZM108.279 151.827L108.502 151.379C108.624 151.44 108.635 151.538 108.628 151.507C108.623 151.483 108.619 151.42 108.635 151.318C108.666 151.111 108.754 150.892 108.834 150.779L108.428 150.488L108.021 150.198C107.831 150.463 107.696 150.839 107.646 151.169C107.621 151.336 107.612 151.527 107.649 151.708C107.685 151.883 107.785 152.139 108.055 152.274L108.279 151.827ZM108.428 150.488L108.834 150.779C109.262 150.18 109.468 149.51 109.568 149.006C109.619 148.752 109.645 148.533 109.658 148.375C109.664 148.297 109.668 148.233 109.669 148.187C109.67 148.165 109.671 148.147 109.671 148.133C109.671 148.127 109.671 148.121 109.671 148.117C109.671 148.115 109.671 148.114 109.671 148.112C109.671 148.112 109.671 148.111 109.671 148.11C109.671 148.11 109.671 148.11 109.671 148.11C109.671 148.11 109.671 148.109 109.671 148.109C109.671 148.109 109.671 148.109 109.171 148.109C108.671 148.109 108.671 148.109 108.671 148.109C108.671 148.109 108.671 148.109 108.671 148.109C108.671 148.108 108.671 148.108 108.671 148.108C108.671 148.108 108.671 148.108 108.671 148.108C108.671 148.108 108.671 148.108 108.671 148.109C108.671 148.11 108.671 148.112 108.671 148.115C108.671 148.122 108.671 148.134 108.67 148.15C108.669 148.182 108.666 148.231 108.661 148.294C108.651 148.42 108.63 148.6 108.588 148.81C108.503 149.236 108.336 149.756 108.021 150.198L108.428 150.488ZM109.171 148.109L109.666 148.038C109.592 147.517 109.235 147.02 108.632 146.417L108.279 146.771L107.925 147.124C108.512 147.711 108.651 148.007 108.676 148.18L109.171 148.109ZM108.279 146.771L108.632 146.417C108.634 146.419 108.611 146.395 108.568 146.29C108.524 146.182 108.489 146.07 108.425 145.889C108.305 145.553 108.127 145.118 107.764 144.679C107.03 143.79 105.646 143.009 102.83 142.705L102.777 143.202L102.723 143.699C105.41 143.989 106.493 144.71 106.993 145.315C107.248 145.623 107.378 145.933 107.483 146.226C107.531 146.36 107.588 146.534 107.643 146.668C107.699 146.806 107.782 146.981 107.925 147.124L108.279 146.771ZM102.777 143.202L102.804 142.703C102.452 142.683 102.069 142.582 101.545 142.465C101.043 142.352 100.456 142.237 99.7896 142.236C98.4296 142.234 96.8315 142.706 94.8844 144.394L95.2119 144.772L95.5395 145.149C97.3354 143.592 98.7074 143.234 99.788 143.236C100.342 143.237 100.843 143.332 101.326 143.44C101.788 143.544 102.289 143.675 102.749 143.701L102.777 143.202ZM93.666 147.426L93.1812 147.304C93.0347 147.884 92.8777 148.523 92.756 149.086C92.638 149.632 92.5416 150.156 92.5361 150.48L93.036 150.488L93.5359 150.497C93.5395 150.288 93.6119 149.86 93.7334 149.297C93.8514 148.752 94.0048 148.126 94.1508 147.549L93.666 147.426ZM93.036 150.488L92.5361 150.48C92.5289 150.899 92.5812 151.278 92.6363 151.592C92.6961 151.933 92.7452 152.138 92.7615 152.318L93.2594 152.273L93.7574 152.228C93.7362 151.994 93.6671 151.681 93.6213 151.42C93.5709 151.132 93.5303 150.825 93.5359 150.497L93.036 150.488ZM94.5935 150.488L94.7498 150.963C95.3389 150.77 95.8285 150.662 96.2855 150.562C96.7367 150.464 97.1792 150.369 97.6229 150.201C98.542 149.852 99.4057 149.212 100.63 147.725L100.244 147.407L99.8584 147.089C98.6909 148.507 97.9605 149.003 97.2679 149.266C96.9058 149.403 96.538 149.484 96.0725 149.585C95.613 149.685 95.0795 149.802 94.4373 150.013L94.5935 150.488ZM100.244 147.407L100.63 147.725C100.973 147.309 101.31 147.163 101.613 147.139C101.932 147.113 102.284 147.217 102.642 147.43C102.999 147.641 103.331 147.941 103.595 148.249C103.863 148.564 104.031 148.85 104.089 149.018L104.561 148.853L105.033 148.688C104.918 148.359 104.667 147.965 104.354 147.599C104.036 147.227 103.623 146.848 103.152 146.569C102.683 146.292 102.125 146.094 101.533 146.142C100.924 146.191 100.349 146.494 99.8584 147.089L100.244 147.407ZM104.561 148.853L104.785 149.3C104.785 149.3 104.785 149.3 104.787 149.299C104.789 149.298 104.791 149.297 104.794 149.296C104.801 149.293 104.809 149.29 104.821 149.287C104.843 149.28 104.873 149.272 104.91 149.265C104.983 149.251 105.075 149.242 105.176 149.243C105.383 149.244 105.6 149.286 105.779 149.382C105.948 149.472 106.094 149.614 106.18 149.85C106.27 150.097 106.31 150.486 106.181 151.085L106.67 151.191L107.159 151.296C107.313 150.577 107.294 149.984 107.119 149.507C106.941 149.02 106.617 148.695 106.25 148.499C105.892 148.309 105.506 148.245 105.183 148.243C104.871 148.241 104.556 148.296 104.338 148.405L104.561 148.853ZM93.4122 154.362L92.9202 154.451C93.1563 155.753 93.5508 157.569 94.1304 158.994L94.5935 158.806L95.0567 158.617C94.518 157.293 94.138 155.562 93.9041 154.273L93.4122 154.362ZM94.5935 150.488L94.4373 150.013C93.8256 150.215 93.4135 150.545 93.1507 150.967C92.898 151.374 92.8105 151.824 92.7631 152.212L93.2594 152.273L93.7558 152.333C93.798 151.987 93.8644 151.713 93.9998 151.496C94.1251 151.294 94.3352 151.1 94.7498 150.963L94.5935 150.488ZM93.2594 152.273L92.7631 152.212C92.6933 152.786 92.7365 153.355 92.7934 153.771C92.8222 153.981 92.8552 154.158 92.8812 154.282C92.8943 154.345 92.9057 154.395 92.914 154.43C92.9181 154.447 92.9216 154.461 92.924 154.471C92.9253 154.476 92.9263 154.48 92.927 154.483C92.9274 154.484 92.9277 154.486 92.928 154.487C92.9281 154.487 92.9282 154.488 92.9283 154.488C92.9284 154.488 92.9284 154.488 92.9284 154.488C92.9285 154.488 92.9285 154.489 92.9285 154.489C92.9285 154.489 92.9285 154.489 93.4122 154.362C93.8958 154.235 93.8958 154.235 93.8958 154.235C93.8958 154.235 93.8958 154.235 93.8959 154.235C93.8959 154.235 93.8959 154.235 93.8959 154.235C93.8959 154.235 93.8959 154.236 93.8959 154.235C93.8959 154.235 93.8958 154.235 93.8957 154.235C93.8954 154.233 93.8949 154.231 93.8941 154.228C93.8926 154.222 93.8901 154.212 93.8869 154.199C93.8805 154.172 93.8712 154.131 93.8601 154.078C93.8379 153.972 93.8093 153.819 93.7842 153.636C93.7334 153.265 93.7003 152.789 93.7558 152.333L93.2594 152.273ZM95.2119 144.772L94.8844 144.394C93.9985 145.162 93.456 146.216 93.1812 147.304L93.666 147.426L94.1508 147.549C94.3886 146.607 94.8444 145.752 95.5395 145.149L95.2119 144.772ZM99.6535 161.79L99.1614 161.701C99.1523 161.752 98.9456 162.224 99.2048 162.754L99.6538 162.534L100.103 162.314C100.067 162.24 100.07 162.206 100.074 162.18C100.077 162.157 100.083 162.129 100.097 162.078C100.108 162.037 100.131 161.958 100.146 161.879L99.6535 161.79ZM99.1281 152.864L99.586 152.663C99.3977 152.234 98.9761 151.956 98.5168 151.925L98.4824 152.423L98.448 152.922C98.5587 152.93 98.6403 152.996 98.6702 153.065L99.1281 152.864ZM98.4824 152.423L98.5172 151.925C97.9995 151.889 97.4821 152.17 97.2638 152.661L97.7207 152.864L98.1775 153.067C98.2127 152.988 98.3185 152.913 98.4475 152.922L98.4824 152.423ZM104.779 153.161L105.237 152.96C105.049 152.531 104.627 152.254 104.168 152.222L104.133 152.721L104.099 153.22C104.21 153.227 104.291 153.294 104.321 153.362L104.779 153.161ZM104.133 152.721L104.168 152.222C103.65 152.186 103.133 152.467 102.915 152.958L103.372 153.161L103.828 153.364C103.864 153.285 103.969 153.211 104.098 153.22L104.133 152.721ZM98.5176 158.095L98.0257 158.185C98.0391 158.258 98.2339 159.276 99.2311 159.685L99.4209 159.222L99.6106 158.76C99.3752 158.663 99.2275 158.492 99.1328 158.322C99.0363 158.149 99.0086 158.001 99.0096 158.006L98.5176 158.095ZM99.4209 159.222L99.2317 159.685C100.087 160.035 100.834 159.644 100.936 159.589L100.699 159.149L100.462 158.708C100.41 158.736 100.024 158.929 99.61 158.76L99.4209 159.222ZM99.6538 162.534L99.3998 162.103C98.8254 162.442 98.2412 162.641 97.5944 162.635C96.9457 162.628 96.1855 162.415 95.2618 161.846L94.9994 162.271L94.7371 162.697C95.7751 163.337 96.7117 163.626 97.5846 163.635C98.4594 163.643 99.2215 163.369 99.9078 162.964L99.6538 162.534Z" fill="url(#paint0_linear_1006_4275)"/>
<path d="M99.6535 161.79L99.6902 161.291C99.4349 161.273 99.2067 161.45 99.1614 161.701L99.6535 161.79ZM102.777 160.452L103.03 160.883L103.036 160.879L102.777 160.452ZM104.561 159.113L104.92 159.462V159.462L104.561 159.113ZM105.9 157.18L105.483 156.904L105.471 156.921L105.461 156.94L105.9 157.18ZM106.67 151.191L106.181 151.085C106.172 151.128 106.168 151.172 106.17 151.216L106.67 151.191ZM94.5935 158.806L94.1304 158.994L94.1304 158.994L94.5935 158.806ZM95.0732 160.76L95.5684 160.691L95.5684 160.691L95.0732 160.76ZM94.9994 162.271L94.5471 162.058C94.4387 162.288 94.5204 162.563 94.7371 162.697L94.9994 162.271ZM108.279 151.827L108.4 152.312C108.603 152.261 108.753 152.089 108.776 151.881C108.799 151.673 108.69 151.473 108.502 151.379L108.279 151.827ZM108.428 150.488L108.834 150.779V150.779L108.428 150.488ZM109.171 148.109H109.671C109.671 148.085 109.669 148.062 109.666 148.038L109.171 148.109ZM108.279 146.771L108.632 146.417V146.417L108.279 146.771ZM102.777 143.202L102.83 142.705C102.822 142.704 102.813 142.703 102.804 142.703L102.777 143.202ZM95.2119 144.772L95.5395 145.149V145.149L95.2119 144.772ZM93.666 147.426L94.1508 147.549H94.1508L93.666 147.426ZM93.036 150.488L93.5359 150.497L93.036 150.488ZM93.2594 152.273L93.7558 152.333V152.333L93.2594 152.273ZM94.5935 150.488L94.4373 150.013V150.013L94.5935 150.488ZM100.244 147.407L100.63 147.725V147.725L100.244 147.407ZM104.561 148.853L104.089 149.018C104.137 149.153 104.24 149.262 104.373 149.316C104.506 149.37 104.656 149.364 104.785 149.3L104.561 148.853ZM93.4122 154.362L93.9041 154.273C93.9018 154.26 93.899 154.247 93.8958 154.235L93.4122 154.362ZM99.6538 162.534L99.9078 162.964C100.133 162.832 100.218 162.548 100.103 162.314L99.6538 162.534ZM98.6702 153.065C98.7812 153.318 99.0761 153.433 99.329 153.322C99.5819 153.211 99.6969 152.916 99.586 152.663L99.1281 152.864L98.6702 153.065ZM98.4824 152.423L98.4475 152.922L98.448 152.922L98.4824 152.423ZM97.2638 152.661C97.1516 152.913 97.2651 153.208 97.5174 153.321C97.7697 153.433 98.0653 153.319 98.1775 153.067L97.7207 152.864L97.2638 152.661ZM104.321 153.362C104.432 153.615 104.727 153.73 104.98 153.619C105.233 153.508 105.348 153.213 105.237 152.96L104.779 153.161L104.321 153.362ZM104.133 152.721L104.098 153.22L104.099 153.22L104.133 152.721ZM102.915 152.958C102.802 153.21 102.916 153.506 103.168 153.618C103.421 153.73 103.716 153.617 103.828 153.364L103.372 153.161L102.915 152.958ZM99.0096 158.006C98.9602 157.734 98.6999 157.554 98.4282 157.603C98.1565 157.653 97.9763 157.913 98.0257 158.185L98.5176 158.095L99.0096 158.006ZM99.4209 159.222L99.2311 159.685L99.2317 159.685L99.4209 159.222ZM100.936 159.589C101.179 159.458 101.27 159.155 101.139 158.912C101.008 158.669 100.705 158.578 100.462 158.708L100.699 159.149L100.936 159.589ZM99.6535 161.79L99.6168 162.289C99.7857 162.301 99.9629 162.272 100.119 162.235C100.282 162.195 100.457 162.138 100.632 162.072C100.983 161.941 101.367 161.764 101.718 161.589C102.07 161.414 102.398 161.238 102.636 161.106C102.756 161.04 102.853 160.984 102.921 160.946C102.956 160.926 102.982 160.911 103.001 160.9C103.01 160.895 103.017 160.89 103.022 160.888C103.024 160.886 103.026 160.885 103.027 160.884C103.028 160.884 103.029 160.884 103.029 160.883C103.029 160.883 103.029 160.883 103.029 160.883C103.029 160.883 103.03 160.883 103.03 160.883C103.03 160.883 103.03 160.883 102.777 160.452C102.524 160.02 102.524 160.02 102.524 160.02C102.524 160.02 102.524 160.02 102.524 160.02C102.524 160.02 102.524 160.021 102.524 160.021C102.523 160.021 102.523 160.021 102.522 160.021C102.522 160.022 102.52 160.023 102.518 160.024C102.514 160.026 102.507 160.03 102.499 160.035C102.482 160.045 102.457 160.059 102.425 160.078C102.36 160.115 102.267 160.168 102.152 160.231C101.921 160.359 101.608 160.527 101.273 160.694C100.936 160.861 100.587 161.022 100.282 161.136C100.129 161.193 99.9954 161.236 99.8855 161.262C99.7689 161.29 99.7082 161.293 99.6902 161.291L99.6535 161.79ZM102.777 160.452C103.036 160.879 103.036 160.879 103.036 160.879C103.036 160.879 103.036 160.879 103.036 160.879C103.036 160.879 103.036 160.879 103.036 160.879C103.036 160.879 103.037 160.879 103.037 160.879C103.038 160.878 103.039 160.877 103.04 160.877C103.043 160.875 103.047 160.873 103.051 160.87C103.061 160.864 103.075 160.856 103.092 160.845C103.127 160.823 103.178 160.791 103.239 160.752C103.363 160.673 103.535 160.56 103.726 160.428C104.101 160.168 104.581 159.811 104.92 159.462L104.561 159.113L104.202 158.765C103.935 159.041 103.522 159.353 103.157 159.606C102.978 159.73 102.817 159.835 102.701 159.909C102.643 159.946 102.596 159.975 102.565 159.995C102.549 160.005 102.537 160.012 102.529 160.017C102.525 160.02 102.522 160.022 102.52 160.023C102.519 160.023 102.518 160.024 102.518 160.024C102.518 160.024 102.518 160.024 102.518 160.024C102.518 160.024 102.518 160.024 102.518 160.024C102.518 160.024 102.518 160.024 102.518 160.024C102.518 160.024 102.518 160.024 102.777 160.452ZM104.561 159.113L104.92 159.462C105.277 159.094 105.634 158.574 105.892 158.168C106.024 157.961 106.135 157.775 106.213 157.641C106.252 157.574 106.283 157.52 106.304 157.482C106.315 157.463 106.323 157.448 106.329 157.437C106.331 157.432 106.334 157.428 106.335 157.425C106.336 157.424 106.337 157.423 106.337 157.422C106.337 157.422 106.338 157.421 106.338 157.421C106.338 157.421 106.338 157.421 106.338 157.421C106.338 157.421 106.338 157.421 106.338 157.421C106.338 157.421 106.338 157.421 105.9 157.18C105.461 156.94 105.461 156.94 105.461 156.94C105.461 156.94 105.461 156.94 105.461 156.94C105.461 156.94 105.461 156.94 105.461 156.94C105.461 156.94 105.461 156.94 105.461 156.94C105.461 156.941 105.46 156.941 105.46 156.942C105.459 156.944 105.457 156.948 105.454 156.952C105.45 156.961 105.442 156.974 105.433 156.991C105.413 157.025 105.385 157.075 105.348 157.138C105.275 157.264 105.171 157.438 105.048 157.632C104.797 158.028 104.485 158.474 104.202 158.765L104.561 159.113ZM105.9 157.18C106.316 157.457 106.316 157.457 106.316 157.456C106.317 157.456 106.317 157.456 106.317 157.456C106.317 157.455 106.317 157.455 106.318 157.454C106.318 157.453 106.319 157.452 106.32 157.451C106.321 157.449 106.323 157.446 106.325 157.443C106.329 157.436 106.334 157.429 106.34 157.419C106.351 157.401 106.365 157.376 106.382 157.344C106.416 157.281 106.461 157.191 106.512 157.071C106.614 156.833 106.74 156.478 106.857 155.983C107.09 154.993 107.285 153.448 107.169 151.165L106.67 151.191L106.17 151.216C106.282 153.42 106.092 154.869 105.884 155.753C105.779 156.195 105.67 156.496 105.592 156.679C105.553 156.771 105.521 156.833 105.502 156.87C105.492 156.888 105.485 156.9 105.482 156.905C105.48 156.908 105.479 156.909 105.48 156.909C105.48 156.909 105.48 156.908 105.481 156.907C105.481 156.907 105.481 156.906 105.482 156.906C105.482 156.905 105.482 156.905 105.482 156.905C105.482 156.905 105.483 156.904 105.483 156.904C105.483 156.904 105.483 156.904 105.9 157.18ZM94.5935 158.806C94.1304 158.994 94.1304 158.994 94.1303 158.994C94.1303 158.994 94.1303 158.994 94.1303 158.994C94.1303 158.994 94.1302 158.994 94.1302 158.994C94.1302 158.993 94.1301 158.993 94.1301 158.993C94.1301 158.993 94.1302 158.993 94.1303 158.994C94.1305 158.994 94.1311 158.996 94.1319 158.998C94.1336 159.002 94.1363 159.009 94.1401 159.019C94.1477 159.039 94.1592 159.07 94.1739 159.112C94.2032 159.195 94.2449 159.32 94.2918 159.481C94.3856 159.803 94.4998 160.267 94.5779 160.829L95.0732 160.76L95.5684 160.691C95.4824 160.073 95.3567 159.561 95.2518 159.201C95.1993 159.021 95.1519 158.878 95.1169 158.779C95.0994 158.729 95.0851 158.691 95.0747 158.663C95.0695 158.65 95.0654 158.639 95.0623 158.631C95.0608 158.628 95.0596 158.624 95.0586 158.622C95.0582 158.621 95.0578 158.62 95.0574 158.619C95.0573 158.619 95.0571 158.618 95.057 158.618C95.0569 158.618 95.0569 158.618 95.0568 158.618C95.0568 158.618 95.0568 158.617 95.0568 158.617C95.0567 158.617 95.0567 158.617 94.5935 158.806ZM95.0732 160.76L94.5779 160.828C94.7 161.706 94.6011 161.944 94.5471 162.058L94.9994 162.271L95.4518 162.484C95.6219 162.123 95.7038 161.665 95.5684 160.691L95.0732 160.76ZM106.67 151.191L106.364 151.586C106.556 151.734 106.87 151.944 107.21 152.104C107.381 152.184 107.57 152.257 107.763 152.302C107.95 152.345 108.176 152.368 108.4 152.312L108.279 151.827L108.158 151.342C108.144 151.345 108.091 151.351 107.986 151.327C107.885 151.304 107.765 151.26 107.635 151.199C107.374 151.076 107.122 150.908 106.976 150.795L106.67 151.191ZM108.279 151.827L108.502 151.379C108.624 151.44 108.635 151.538 108.628 151.507C108.623 151.483 108.619 151.42 108.635 151.318C108.666 151.111 108.754 150.892 108.834 150.779L108.428 150.488L108.021 150.198C107.831 150.463 107.696 150.839 107.646 151.169C107.621 151.336 107.612 151.527 107.649 151.708C107.685 151.883 107.785 152.139 108.055 152.274L108.279 151.827ZM108.428 150.488L108.834 150.779C109.262 150.18 109.468 149.51 109.568 149.006C109.619 148.752 109.645 148.533 109.658 148.375C109.664 148.297 109.668 148.233 109.669 148.187C109.67 148.165 109.671 148.147 109.671 148.133C109.671 148.127 109.671 148.121 109.671 148.117C109.671 148.115 109.671 148.114 109.671 148.112C109.671 148.112 109.671 148.111 109.671 148.11C109.671 148.11 109.671 148.11 109.671 148.11C109.671 148.11 109.671 148.109 109.671 148.109C109.671 148.109 109.671 148.109 109.171 148.109C108.671 148.109 108.671 148.109 108.671 148.109C108.671 148.109 108.671 148.109 108.671 148.109C108.671 148.108 108.671 148.108 108.671 148.108C108.671 148.108 108.671 148.108 108.671 148.108C108.671 148.108 108.671 148.108 108.671 148.109C108.671 148.11 108.671 148.112 108.671 148.115C108.671 148.122 108.671 148.134 108.67 148.15C108.669 148.182 108.666 148.231 108.661 148.294C108.651 148.42 108.63 148.6 108.588 148.81C108.503 149.236 108.336 149.756 108.021 150.198L108.428 150.488ZM109.171 148.109L109.666 148.038C109.592 147.517 109.235 147.02 108.632 146.417L108.279 146.771L107.925 147.124C108.512 147.711 108.651 148.007 108.676 148.18L109.171 148.109ZM108.279 146.771L108.632 146.417C108.634 146.419 108.611 146.395 108.568 146.29C108.524 146.182 108.489 146.07 108.425 145.889C108.305 145.553 108.127 145.118 107.764 144.679C107.03 143.79 105.646 143.009 102.83 142.705L102.777 143.202L102.723 143.699C105.41 143.989 106.493 144.71 106.993 145.315C107.248 145.623 107.378 145.933 107.483 146.226C107.531 146.36 107.588 146.534 107.643 146.668C107.699 146.806 107.782 146.981 107.925 147.124L108.279 146.771ZM102.777 143.202L102.804 142.703C102.452 142.683 102.069 142.582 101.545 142.465C101.043 142.352 100.456 142.237 99.7896 142.236C98.4296 142.234 96.8315 142.706 94.8844 144.394L95.2119 144.772L95.5395 145.149C97.3354 143.592 98.7074 143.234 99.788 143.236C100.342 143.237 100.843 143.332 101.326 143.44C101.788 143.544 102.289 143.675 102.749 143.701L102.777 143.202ZM93.666 147.426L93.1812 147.304C93.0347 147.884 92.8777 148.523 92.756 149.086C92.638 149.632 92.5416 150.156 92.5361 150.48L93.036 150.488L93.5359 150.497C93.5395 150.288 93.6119 149.86 93.7334 149.297C93.8514 148.752 94.0048 148.126 94.1508 147.549L93.666 147.426ZM93.036 150.488L92.5361 150.48C92.5289 150.899 92.5812 151.278 92.6363 151.592C92.6961 151.933 92.7452 152.138 92.7615 152.318L93.2594 152.273L93.7574 152.228C93.7362 151.994 93.6671 151.681 93.6213 151.42C93.5709 151.132 93.5303 150.825 93.5359 150.497L93.036 150.488ZM94.5935 150.488L94.7498 150.963C95.3389 150.77 95.8285 150.662 96.2855 150.562C96.7367 150.464 97.1792 150.369 97.6229 150.201C98.542 149.852 99.4057 149.212 100.63 147.725L100.244 147.407L99.8584 147.089C98.6909 148.507 97.9605 149.003 97.2679 149.266C96.9058 149.403 96.538 149.484 96.0725 149.585C95.613 149.685 95.0795 149.802 94.4373 150.013L94.5935 150.488ZM100.244 147.407L100.63 147.725C100.973 147.309 101.31 147.163 101.613 147.139C101.932 147.113 102.284 147.217 102.642 147.43C102.999 147.641 103.331 147.941 103.595 148.249C103.863 148.564 104.031 148.85 104.089 149.018L104.561 148.853L105.033 148.688C104.918 148.359 104.667 147.965 104.354 147.599C104.036 147.227 103.623 146.848 103.152 146.569C102.683 146.292 102.125 146.094 101.533 146.142C100.924 146.191 100.349 146.494 99.8584 147.089L100.244 147.407ZM104.561 148.853L104.785 149.3C104.785 149.3 104.785 149.3 104.787 149.299C104.789 149.298 104.791 149.297 104.794 149.296C104.801 149.293 104.809 149.29 104.821 149.287C104.843 149.28 104.873 149.272 104.91 149.265C104.983 149.251 105.075 149.242 105.176 149.243C105.383 149.244 105.6 149.286 105.779 149.382C105.948 149.472 106.094 149.614 106.18 149.85C106.27 150.097 106.31 150.486 106.181 151.085L106.67 151.191L107.159 151.296C107.313 150.577 107.294 149.984 107.119 149.507C106.941 149.02 106.617 148.695 106.25 148.499C105.892 148.309 105.506 148.245 105.183 148.243C104.871 148.241 104.556 148.296 104.338 148.405L104.561 148.853ZM93.4122 154.362L92.9202 154.451C93.1563 155.753 93.5508 157.569 94.1304 158.994L94.5935 158.806L95.0567 158.617C94.518 157.293 94.138 155.562 93.9041 154.273L93.4122 154.362ZM94.5935 150.488L94.4373 150.013C93.8256 150.215 93.4135 150.545 93.1507 150.967C92.898 151.374 92.8105 151.824 92.7631 152.212L93.2594 152.273L93.7558 152.333C93.798 151.987 93.8644 151.713 93.9998 151.496C94.1251 151.294 94.3352 151.1 94.7498 150.963L94.5935 150.488ZM93.2594 152.273L92.7631 152.212C92.6933 152.786 92.7365 153.355 92.7934 153.771C92.8222 153.981 92.8552 154.158 92.8812 154.282C92.8943 154.345 92.9057 154.395 92.914 154.43C92.9181 154.447 92.9216 154.461 92.924 154.471C92.9253 154.476 92.9263 154.48 92.927 154.483C92.9274 154.484 92.9277 154.486 92.928 154.487C92.9281 154.487 92.9282 154.488 92.9283 154.488C92.9284 154.488 92.9284 154.488 92.9284 154.488C92.9285 154.488 92.9285 154.489 92.9285 154.489C92.9285 154.489 92.9285 154.489 93.4122 154.362C93.8958 154.235 93.8958 154.235 93.8958 154.235C93.8958 154.235 93.8958 154.235 93.8959 154.235C93.8959 154.235 93.8959 154.235 93.8959 154.235C93.8959 154.235 93.8959 154.236 93.8959 154.235C93.8959 154.235 93.8958 154.235 93.8957 154.235C93.8954 154.233 93.8949 154.231 93.8941 154.228C93.8926 154.222 93.8901 154.212 93.8869 154.199C93.8805 154.172 93.8712 154.131 93.8601 154.078C93.8379 153.972 93.8093 153.819 93.7842 153.636C93.7334 153.265 93.7003 152.789 93.7558 152.333L93.2594 152.273ZM95.2119 144.772L94.8844 144.394C93.9985 145.162 93.456 146.216 93.1812 147.304L93.666 147.426L94.1508 147.549C94.3886 146.607 94.8444 145.752 95.5395 145.149L95.2119 144.772ZM99.6535 161.79L99.1614 161.701C99.1523 161.752 98.9456 162.224 99.2048 162.754L99.6538 162.534L100.103 162.314C100.067 162.24 100.07 162.206 100.074 162.18C100.077 162.157 100.083 162.129 100.097 162.078C100.108 162.037 100.131 161.958 100.146 161.879L99.6535 161.79ZM99.1281 152.864L99.586 152.663C99.3977 152.234 98.9761 151.956 98.5168 151.925L98.4824 152.423L98.448 152.922C98.5587 152.93 98.6403 152.996 98.6702 153.065L99.1281 152.864ZM98.4824 152.423L98.5172 151.925C97.9995 151.889 97.4821 152.17 97.2638 152.661L97.7207 152.864L98.1775 153.067C98.2127 152.988 98.3185 152.913 98.4475 152.922L98.4824 152.423ZM104.779 153.161L105.237 152.96C105.049 152.531 104.627 152.254 104.168 152.222L104.133 152.721L104.099 153.22C104.21 153.227 104.291 153.294 104.321 153.362L104.779 153.161ZM104.133 152.721L104.168 152.222C103.65 152.186 103.133 152.467 102.915 152.958L103.372 153.161L103.828 153.364C103.864 153.285 103.969 153.211 104.098 153.22L104.133 152.721ZM98.5176 158.095L98.0257 158.185C98.0391 158.258 98.2339 159.276 99.2311 159.685L99.4209 159.222L99.6106 158.76C99.3752 158.663 99.2275 158.492 99.1328 158.322C99.0363 158.149 99.0086 158.001 99.0096 158.006L98.5176 158.095ZM99.4209 159.222L99.2317 159.685C100.087 160.035 100.834 159.644 100.936 159.589L100.699 159.149L100.462 158.708C100.41 158.736 100.024 158.929 99.61 158.76L99.4209 159.222ZM99.6538 162.534L99.3998 162.103C98.8254 162.442 98.2412 162.641 97.5944 162.635C96.9457 162.628 96.1855 162.415 95.2618 161.846L94.9994 162.271L94.7371 162.697C95.7751 163.337 96.7117 163.626 97.5846 163.635C98.4594 163.643 99.2215 163.369 99.9078 162.964L99.6538 162.534Z" fill="#03092D"/>
<path d="M95.0003 162.354C95.0003 162.354 89.5469 163.7 86.5734 165.298C86.0812 165.563 85.7596 166.05 85.6991 166.605C85.324 170.052 85.8239 176.301 85.8239 176.301L89.6903 173.922L90.5826 173.327V170.354L90.1593 167.228" stroke="#03092D" stroke-linecap="round" stroke-linejoin="round"/>
<path d="M99.7982 162.353C99.7982 162.353 103.788 163.579 107.437 165.825C107.809 166.054 108.096 166.403 108.22 166.822C109.269 170.348 108.975 176.301 108.975 176.301L105.108 173.922L104.216 173.327V170.354L102.925 166.967" stroke="#03092D" stroke-linecap="round" stroke-linejoin="round"/>
<path d="M94.459 164.49C94.7939 164.955 95.3535 166.74 95.8011 173.263" stroke="#03092D" stroke-linecap="round" stroke-linejoin="round"/>
<path d="M99.2769 163.839C99.4784 164.098 100.495 167.224 101.087 173.538" stroke="#03092D" stroke-linecap="round" stroke-linejoin="round"/>
</g>
<path d="M118.255 182.163C119.712 182.134 120.512 182.163 121.991 182.163H125.487C127.419 182.163 128.986 183.73 128.987 185.663V196.506C128.987 198.44 127.419 200.007 125.485 200.006C122.864 200.005 119.762 200.005 118.87 200.009H114.469C114.46 200.009 114.446 200.01 114.428 200.011C114.392 200.012 114.34 200.013 114.272 200.015C114.136 200.019 113.938 200.024 113.692 200.031C113.198 200.045 112.508 200.063 111.723 200.081C110.151 200.117 108.201 200.153 106.681 200.15C105.688 200.149 104.496 200.13 103.37 200.107C101.493 200.069 99.9968 198.536 100.001 196.657C100.002 196.171 100.005 195.695 100.009 195.271C100.017 194.451 100.017 192.225 100.015 190.208C100.014 189.198 100.012 188.239 100.011 187.533C100.01 187.18 100.01 186.89 100.01 186.688C100.01 186.588 100.009 186.51 100.009 186.456V186.382L100.02 185.691C100.049 183.752 101.651 182.206 103.59 182.245L106.527 182.305H106.559C106.568 182.305 106.581 182.304 106.599 182.304C106.634 182.303 106.686 182.303 106.753 182.302L109.288 182.259C110.854 182.232 112.809 182.197 114.365 182.163C115.059 182.148 115.672 182.155 116.293 182.162C116.913 182.169 117.542 182.177 118.255 182.163Z" fill="#3253D1" stroke="#03092D" stroke-linecap="round" stroke-linejoin="round"/>
<path d="M137.512 170.104L137.506 170.724C137.506 170.724 137.516 177.983 137.506 179.616C137.503 180.06 137.502 180.558 137.501 181.066C137.498 183.192 139.17 184.954 141.296 184.992C141.558 184.996 141.812 184.999 142.048 185C143.981 185.005 146.999 184.858 146.999 184.858H147.544H147.725H149.769C150.17 184.856 151.281 184.855 152.486 184.855C154.697 184.856 156.491 183.065 156.491 180.854V176V169.147C156.491 167.416 155.088 166.013 153.357 166.013H152.931H152.338H151.745C150.818 166.013 150.298 165.984 149.372 166.013C148.48 166.041 147.799 165.983 146.908 166.013C144.939 166.08 141.957 166.155 141.957 166.155L141.64 166.145C139.397 166.072 137.533 167.86 137.512 170.104Z" fill="#E9EEF5"/>
<path d="M105.835 195V187.44H108.978C109.41 187.44 109.799 187.544 110.144 187.753C110.497 187.962 110.778 188.246 110.987 188.606C111.195 188.966 111.3 189.37 111.3 189.816C111.3 190.27 111.195 190.68 110.987 191.047C110.778 191.407 110.497 191.695 110.144 191.911C109.799 192.127 109.41 192.235 108.978 192.235H107.239V195H105.835ZM107.239 190.939H108.881C109.061 190.939 109.223 190.889 109.367 190.788C109.518 190.687 109.637 190.554 109.723 190.388C109.817 190.223 109.863 190.036 109.863 189.827C109.863 189.618 109.817 189.434 109.723 189.276C109.637 189.11 109.518 188.981 109.367 188.887C109.223 188.786 109.061 188.736 108.881 188.736H107.239V190.939ZM112.451 195V193.758H113.693V188.682H112.451V187.44H116.339V188.682H115.097V193.758H116.339V195H112.451ZM118.022 195V187.44H121.057C121.604 187.44 122.097 187.53 122.536 187.71C122.983 187.89 123.364 188.149 123.681 188.488C124.005 188.826 124.25 189.226 124.416 189.686C124.588 190.147 124.675 190.658 124.675 191.22C124.675 191.782 124.588 192.296 124.416 192.764C124.25 193.225 124.009 193.625 123.692 193.963C123.375 194.294 122.994 194.55 122.547 194.73C122.101 194.91 121.604 195 121.057 195H118.022ZM119.426 193.909L119.318 193.704H121.003C121.356 193.704 121.669 193.646 121.942 193.531C122.223 193.416 122.461 193.25 122.655 193.034C122.85 192.818 122.997 192.559 123.098 192.257C123.199 191.947 123.249 191.602 123.249 191.22C123.249 190.838 123.199 190.496 123.098 190.194C122.997 189.884 122.846 189.622 122.644 189.406C122.45 189.19 122.216 189.024 121.942 188.909C121.669 188.794 121.356 188.736 121.003 188.736H119.286L119.426 188.552V193.909Z" fill="white"/>
<path d="M83.9922 118.18C83.0322 118.18 82.1562 118.018 81.3642 117.694C80.5722 117.37 79.8822 116.914 79.2942 116.326C78.7062 115.738 78.2502 115.048 77.9262 114.256C77.6022 113.464 77.4402 112.594 77.4402 111.646C77.4402 110.698 77.6022 109.828 77.9262 109.036C78.2502 108.244 78.7062 107.554 79.2942 106.966C79.8822 106.378 80.5722 105.922 81.3642 105.598C82.1562 105.274 83.0262 105.112 83.9742 105.112C84.9222 105.112 85.7922 105.274 86.5842 105.598C87.3762 105.922 88.0662 106.378 88.6542 106.966C89.2422 107.554 89.6922 108.244 90.0042 109.036C90.3282 109.828 90.4902 110.698 90.4902 111.646C90.4902 112.582 90.3282 113.452 90.0042 114.256C89.6922 115.048 89.2422 115.738 88.6542 116.326C88.0662 116.914 87.3762 117.37 86.5842 117.694C85.7922 118.018 84.9282 118.18 83.9922 118.18ZM83.9742 115.3C84.4662 115.3 84.9162 115.21 85.3242 115.03C85.7442 114.85 86.1042 114.598 86.4042 114.274C86.7162 113.938 86.9562 113.548 87.1242 113.104C87.2922 112.66 87.3762 112.174 87.3762 111.646C87.3762 111.118 87.2922 110.632 87.1242 110.188C86.9562 109.744 86.7162 109.36 86.4042 109.036C86.1042 108.7 85.7442 108.442 85.3242 108.262C84.9162 108.082 84.4662 107.992 83.9742 107.992C83.4822 107.992 83.0262 108.082 82.6062 108.262C82.1982 108.442 81.8382 108.7 81.5262 109.036C81.2142 109.36 80.9742 109.744 80.8062 110.188C80.6502 110.632 80.5722 111.118 80.5722 111.646C80.5722 112.174 80.6502 112.666 80.8062 113.122C80.9742 113.566 81.2142 113.95 81.5262 114.274C81.8382 114.598 82.1982 114.85 82.6062 115.03C83.0262 115.21 83.4822 115.3 83.9742 115.3ZM95.6607 118L90.6207 105.4H93.8067L96.2367 111.826C96.3807 112.198 96.5007 112.522 96.5967 112.798C96.7047 113.074 96.7947 113.332 96.8667 113.572C96.9507 113.812 97.0227 114.058 97.0827 114.31C97.1547 114.55 97.2327 114.826 97.3167 115.138H96.7587C96.8547 114.73 96.9507 114.37 97.0467 114.058C97.1427 113.734 97.2507 113.404 97.3707 113.068C97.4907 112.72 97.6407 112.306 97.8207 111.826L100.161 105.4H103.293L98.2167 118H95.6607ZM104.767 118V105.4H113.551V108.01H107.737V115.39H113.731V118H104.767ZM106.207 112.834V110.35H112.741V112.834H106.207ZM116.189 118V105.4H121.859C122.663 105.4 123.389 105.574 124.037 105.922C124.697 106.27 125.213 106.75 125.585 107.362C125.957 107.962 126.143 108.646 126.143 109.414C126.143 110.206 125.957 110.92 125.585 111.556C125.213 112.18 124.703 112.672 124.055 113.032C123.407 113.392 122.675 113.572 121.859 113.572H119.105V118H116.189ZM123.173 118L119.969 112.312L123.101 111.862L126.665 118H123.173ZM119.105 111.232H121.589C121.901 111.232 122.171 111.166 122.399 111.034C122.639 110.89 122.819 110.692 122.939 110.44C123.071 110.188 123.137 109.9 123.137 109.576C123.137 109.252 123.065 108.97 122.921 108.73C122.777 108.478 122.567 108.286 122.291 108.154C122.027 108.022 121.703 107.956 121.319 107.956H119.105V111.232ZM136.447 117.118V106.894L137.113 108.424L134.413 109.702L133.891 106.966L137.473 105.22H139.453V117.118H136.447ZM134.143 118V115.3H141.811V118H134.143ZM147.941 118.054C147.077 118.054 146.291 117.892 145.583 117.568C144.887 117.232 144.329 116.782 143.909 116.218C143.489 115.654 143.279 115.018 143.279 114.31C143.279 113.842 143.339 113.422 143.459 113.05C143.579 112.666 143.759 112.33 143.999 112.042C144.251 111.742 144.551 111.49 144.899 111.286C145.259 111.07 145.667 110.896 146.123 110.764L145.907 111.484C145.571 111.352 145.265 111.19 144.989 110.998C144.713 110.806 144.479 110.59 144.287 110.35C144.095 110.098 143.945 109.828 143.837 109.54C143.741 109.252 143.693 108.952 143.693 108.64C143.693 107.968 143.879 107.374 144.251 106.858C144.635 106.342 145.145 105.94 145.781 105.652C146.429 105.352 147.149 105.202 147.941 105.202C148.721 105.202 149.429 105.352 150.065 105.652C150.713 105.94 151.229 106.342 151.613 106.858C151.997 107.374 152.189 107.968 152.189 108.64C152.189 108.952 152.141 109.252 152.045 109.54C151.949 109.828 151.805 110.092 151.613 110.332C151.421 110.56 151.187 110.776 150.911 110.98C150.635 111.172 150.317 111.34 149.957 111.484L149.795 110.836C150.203 110.944 150.581 111.1 150.929 111.304C151.277 111.496 151.577 111.742 151.829 112.042C152.081 112.33 152.273 112.666 152.405 113.05C152.549 113.422 152.621 113.842 152.621 114.31C152.621 115.03 152.411 115.672 151.991 116.236C151.571 116.8 151.007 117.244 150.299 117.568C149.591 117.892 148.805 118.054 147.941 118.054ZM147.941 115.642C148.277 115.642 148.577 115.576 148.841 115.444C149.105 115.312 149.315 115.132 149.471 114.904C149.627 114.676 149.705 114.412 149.705 114.112C149.705 113.8 149.627 113.53 149.471 113.302C149.327 113.062 149.117 112.876 148.841 112.744C148.577 112.6 148.277 112.528 147.941 112.528C147.605 112.528 147.305 112.6 147.041 112.744C146.777 112.876 146.567 113.062 146.411 113.302C146.255 113.53 146.177 113.8 146.177 114.112C146.177 114.4 146.255 114.658 146.411 114.886C146.567 115.114 146.777 115.3 147.041 115.444C147.305 115.576 147.605 115.642 147.941 115.642ZM147.941 110.098C148.229 110.098 148.487 110.044 148.715 109.936C148.955 109.816 149.141 109.66 149.273 109.468C149.405 109.264 149.471 109.03 149.471 108.766C149.471 108.502 149.405 108.268 149.273 108.064C149.141 107.86 148.955 107.698 148.715 107.578C148.487 107.458 148.229 107.398 147.941 107.398C147.641 107.398 147.371 107.458 147.131 107.578C146.903 107.698 146.723 107.86 146.591 108.064C146.459 108.268 146.393 108.502 146.393 108.766C146.393 109.03 146.459 109.264 146.591 109.468C146.723 109.66 146.903 109.816 147.131 109.936C147.371 110.044 147.641 110.098 147.941 110.098Z" fill="#3253D1"/>
<path d="M111.335 140.695C112.792 140.739 113.943 141.945 113.92 143.403L113.705 156.855V156.871L113.921 170.754C113.944 172.243 112.744 173.462 111.255 173.462H83.593C82.1732 173.462 81.0073 172.352 80.9446 170.938C80.7878 167.399 80.5569 161.458 80.5569 157.125C80.5569 152.753 80.7916 146.743 80.9485 143.216C81.0101 141.835 82.1264 140.74 83.5129 140.696L96.9993 140.263L111.335 140.695Z" stroke="#03092D"/>
<path d="M143.694 175.182C144.712 176.181 146.477 178.162 146.477 178.162C146.477 178.162 150.34 173.969 152.16 172.576" stroke="#3253D1" stroke-linecap="round" stroke-linejoin="round"/>
<path d="M113.5 91C127.859 91 139.5 79.3594 139.5 65C139.5 50.6406 127.859 39 113.5 39C99.1406 39 87.5 50.6406 87.5 65C87.5 79.3594 99.1406 91 113.5 91Z" fill="#E9EEF5"/>
<path fill-rule="evenodd" clip-rule="evenodd" d="M113.749 45.5321C113.682 45.3496 113.424 45.3496 113.357 45.5321L112.859 46.8806C112.829 46.9606 112.754 47.0147 112.669 47.0174L111.33 47.0588C111.13 47.065 111.052 47.3212 111.215 47.4379L112.338 48.246C112.413 48.3003 112.444 48.398 112.413 48.4857L111.967 49.7454C111.9 49.9376 112.118 50.1037 112.285 49.9864L113.537 49.1058C113.539 49.1045 113.54 49.1029 113.541 49.101C113.546 49.0914 113.56 49.0914 113.565 49.101C113.566 49.1029 113.567 49.1045 113.569 49.1058L114.821 49.9864C114.988 50.1037 115.207 49.9376 115.139 49.7454L114.693 48.4857C114.662 48.398 114.693 48.3003 114.768 48.246L115.892 47.4379C116.054 47.3212 115.976 47.065 115.776 47.0588L114.437 47.0174C114.352 47.0147 114.277 46.9606 114.247 46.8806L113.749 45.5321ZM104.596 47.9568C104.528 47.7749 104.271 47.7749 104.203 47.9568L103.706 49.2966C103.676 49.3764 103.601 49.4303 103.516 49.4329L102.177 49.4744C101.977 49.4806 101.899 49.7367 102.061 49.8535L103.184 50.6616C103.26 50.7159 103.29 50.8135 103.259 50.9012L102.814 52.161C102.746 52.3532 102.965 52.5192 103.132 52.4019L104.384 51.5214C104.385 51.5201 104.387 51.5185 104.388 51.5166C104.393 51.507 104.406 51.507 104.411 51.5166C104.412 51.5185 104.414 51.5201 104.416 51.5214L105.667 52.4019C105.834 52.5192 106.053 52.3532 105.985 52.161L105.54 50.9012C105.509 50.8135 105.539 50.7159 105.615 50.6616L106.738 49.8535C106.9 49.7367 106.822 49.4806 106.622 49.4744L105.283 49.4329C105.198 49.4303 105.123 49.3764 105.093 49.2966L104.596 47.9568ZM122.744 47.9476C122.676 47.7652 122.418 47.7652 122.351 47.9476L121.853 49.2962C121.824 49.3762 121.749 49.4303 121.663 49.4329L120.325 49.4744C120.125 49.4806 120.047 49.7367 120.209 49.8535L121.332 50.6616C121.408 50.7159 121.438 50.8135 121.407 50.9012L120.962 52.161C120.894 52.3532 121.113 52.5192 121.28 52.4019L122.531 51.5214C122.533 51.5201 122.535 51.5185 122.536 51.5166C122.541 51.507 122.554 51.507 122.559 51.5166C122.56 51.5185 122.562 51.5201 122.563 51.5214L123.815 52.4019C123.982 52.5192 124.201 52.3532 124.133 52.161L123.688 50.9012C123.657 50.8135 123.687 50.7159 123.763 50.6616L124.886 49.8535C125.048 49.7367 124.97 49.4806 124.77 49.4744L123.431 49.4329C123.346 49.4303 123.271 49.3762 123.241 49.2962L122.744 47.9476ZM97.9628 54.3724C97.8952 54.1905 97.6379 54.1905 97.5704 54.3724L97.0727 55.7122C97.0431 55.792 96.9681 55.8459 96.883 55.8485L95.5439 55.89C95.344 55.8962 95.2658 56.1523 95.4281 56.2691L96.5513 57.0772C96.6269 57.1315 96.6575 57.2291 96.6264 57.3168L96.181 58.5766C96.1131 58.7688 96.332 58.9348 96.4988 58.8175L97.7506 57.9369C97.7524 57.9357 97.7538 57.9341 97.7548 57.9321C97.7597 57.9225 97.7734 57.9225 97.7784 57.9321C97.7793 57.9341 97.7808 57.9357 97.7825 57.9369L99.0344 58.8175C99.2011 58.9348 99.4201 58.7688 99.3521 58.5766L98.9067 57.3168C98.8757 57.2291 98.9063 57.1315 98.9818 57.0772L100.105 56.2691C100.267 56.1523 100.189 55.8962 99.9893 55.89L98.6502 55.8485C98.5651 55.8459 98.4901 55.792 98.4605 55.7122L97.9628 54.3724ZM129.456 54.3632C129.389 54.1808 129.131 54.1808 129.064 54.3632L128.566 55.7118C128.536 55.7918 128.461 55.8459 128.376 55.8485L127.037 55.89C126.837 55.8962 126.759 56.1523 126.921 56.2691L128.045 57.0772C128.12 57.1315 128.151 57.2291 128.12 57.3168L127.674 58.5766C127.606 58.7688 127.825 58.9348 127.992 58.8175L129.244 57.9369C129.246 57.9357 129.247 57.9341 129.248 57.9321C129.253 57.9225 129.267 57.9225 129.272 57.9321C129.273 57.9341 129.274 57.9357 129.276 57.9369L130.528 58.8175C130.695 58.9348 130.913 58.7688 130.846 58.5766L130.4 57.3168C130.369 57.2291 130.4 57.1315 130.475 57.0772L131.598 56.2691C131.761 56.1523 131.683 55.8962 131.483 55.89L130.144 55.8485C130.059 55.8459 129.984 55.7918 129.954 55.7118L129.456 54.3632ZM95.5353 63.2853C95.4679 63.1029 95.2099 63.1029 95.1426 63.2853L94.6449 64.6339C94.6153 64.7139 94.5402 64.768 94.455 64.7706L93.1162 64.8121C92.9163 64.8183 92.8381 65.0744 93.0004 65.1912L94.1237 65.9992C94.1992 66.0536 94.2298 66.1512 94.1988 66.2389L93.7533 67.4986C93.6854 67.6908 93.9043 67.8569 94.0711 67.7396L95.323 66.859C95.3247 66.8578 95.3262 66.8561 95.3271 66.8542C95.332 66.8446 95.3458 66.8446 95.3507 66.8542C95.3517 66.8561 95.3531 66.8578 95.3549 66.859L96.6067 67.7396C96.7735 67.8569 96.9924 67.6908 96.9245 67.4986L96.4791 66.2389C96.448 66.1512 96.4786 66.0536 96.5542 65.9992L97.6774 65.1912C97.8397 65.0744 97.7615 64.8183 97.5616 64.8121L96.2228 64.7706C96.1376 64.768 96.0625 64.7139 96.033 64.6339L95.5353 63.2853ZM131.857 63.2853C131.79 63.1029 131.532 63.1029 131.465 63.2853L130.967 64.6339C130.938 64.7139 130.862 64.768 130.777 64.7706L129.438 64.8121C129.238 64.8183 129.16 65.0744 129.323 65.1912L130.446 65.9992C130.521 66.0536 130.552 66.1512 130.521 66.2389L130.076 67.4986C130.008 67.6908 130.227 67.8569 130.393 67.7396L131.645 66.859C131.647 66.8578 131.648 66.8561 131.649 66.8542C131.654 66.8446 131.668 66.8446 131.673 66.8542C131.674 66.8561 131.675 66.8578 131.677 66.859L132.929 67.7396C133.096 67.8569 133.315 67.6908 133.247 67.4986L132.801 66.2389C132.77 66.1512 132.801 66.0536 132.876 65.9992L134 65.1912C134.162 65.0744 134.084 64.8183 133.884 64.8121L132.545 64.7706C132.46 64.768 132.385 64.7139 132.355 64.6339L131.857 63.2853ZM97.9628 72.1386C97.8952 71.9567 97.6379 71.9567 97.5704 72.1386L97.0727 73.4784C97.0431 73.5582 96.9681 73.6121 96.883 73.6147L95.5439 73.6562C95.344 73.6624 95.2658 73.9186 95.4281 74.0353L96.5513 74.8434C96.6269 74.8977 96.6575 74.9954 96.6264 75.0831L96.181 76.3428C96.1131 76.535 96.332 76.7011 96.4988 76.5838L97.7506 75.7032C97.7524 75.7019 97.7538 75.7003 97.7548 75.6984C97.7597 75.6888 97.7734 75.6888 97.7784 75.6984C97.7793 75.7003 97.7808 75.7019 97.7825 75.7032L99.0344 76.5838C99.2011 76.7011 99.4201 76.535 99.3521 76.3428L98.9067 75.0831C98.8757 74.9954 98.9063 74.8977 98.9818 74.8434L100.105 74.0353C100.267 73.9186 100.189 73.6624 99.9893 73.6562L98.6502 73.6147C98.5651 73.6121 98.4901 73.5582 98.4605 73.4784L97.9628 72.1386ZM129.456 72.1295C129.389 71.947 129.131 71.947 129.064 72.1295L128.566 73.478C128.536 73.558 128.461 73.6121 128.376 73.6148L127.037 73.6562C126.837 73.6624 126.759 73.9186 126.921 74.0353L128.045 74.8434C128.12 74.8977 128.151 74.9954 128.12 75.0831L127.674 76.3428C127.606 76.535 127.825 76.7011 127.992 76.5838L129.244 75.7032C129.246 75.7019 129.247 75.7003 129.248 75.6984C129.253 75.6888 129.267 75.6888 129.272 75.6984C129.273 75.7003 129.274 75.7019 129.276 75.7032L130.528 76.5838C130.695 76.7011 130.913 76.535 130.846 76.3428L130.4 75.0831C130.369 74.9954 130.4 74.8977 130.475 74.8434L131.598 74.0353C131.761 73.9186 131.683 73.6624 131.483 73.6562L130.144 73.6148C130.059 73.6121 129.984 73.558 129.954 73.478L129.456 72.1295ZM104.596 78.61C104.529 78.4275 104.271 78.4275 104.203 78.61L103.706 79.9585C103.676 80.0385 103.601 80.0926 103.516 80.0953L102.177 80.1368C101.977 80.1429 101.899 80.3991 102.061 80.5159L103.184 81.3239C103.26 81.3782 103.29 81.4759 103.259 81.5636L102.814 82.8233C102.746 83.0155 102.965 83.1816 103.132 83.0643L104.384 82.1837C104.385 82.1825 104.387 82.1808 104.388 82.1789C104.393 82.1693 104.406 82.1693 104.411 82.1789C104.412 82.1808 104.414 82.1825 104.416 82.1837L105.667 83.0643C105.834 83.1816 106.053 83.0155 105.985 82.8233L105.54 81.5636C105.509 81.4759 105.539 81.3782 105.615 81.3239L106.738 80.5159C106.9 80.3991 106.822 80.1429 106.622 80.1368L105.283 80.0953C105.198 80.0926 105.123 80.0385 105.094 79.9585L104.596 78.61ZM122.744 78.61C122.676 78.4275 122.418 78.4275 122.351 78.61L121.853 79.9585C121.824 80.0385 121.749 80.0926 121.663 80.0953L120.325 80.1368C120.125 80.1429 120.047 80.3991 120.209 80.5159L121.332 81.3239C121.408 81.3782 121.438 81.4759 121.407 81.5636L120.962 82.8233C120.894 83.0155 121.113 83.1816 121.28 83.0643L122.531 82.1837C122.533 82.1825 122.535 82.1808 122.536 82.1789C122.541 82.1693 122.554 82.1693 122.559 82.1789C122.56 82.1808 122.562 82.1825 122.563 82.1837L123.815 83.0643C123.982 83.1816 124.201 83.0155 124.133 82.8233L123.688 81.5636C123.657 81.4759 123.687 81.3782 123.763 81.3239L124.886 80.5159C125.048 80.3991 124.97 80.1429 124.77 80.1368L123.431 80.0953C123.346 80.0926 123.271 80.0385 123.241 79.9585L122.744 78.61ZM113.763 81.1684C113.695 80.986 113.437 80.986 113.37 81.1684L112.872 82.517C112.843 82.597 112.768 82.6511 112.682 82.6537L111.344 82.6952C111.144 82.7014 111.066 82.9575 111.228 83.0743L112.351 83.8824C112.427 83.9367 112.457 84.0343 112.426 84.122L111.981 85.3818C111.913 85.574 112.132 85.74 112.299 85.6227L113.55 84.7421C113.552 84.7409 113.554 84.7393 113.555 84.7373C113.559 84.7277 113.573 84.7277 113.578 84.7373C113.579 84.7393 113.581 84.7409 113.582 84.7421L114.834 85.6227C115.001 85.74 115.22 85.574 115.152 85.3818L114.706 84.122C114.675 84.0343 114.706 83.9367 114.782 83.8824L115.905 83.0743C116.067 82.9575 115.989 82.7014 115.789 82.6952L114.45 82.6537C114.365 82.6511 114.29 82.597 114.26 82.517L113.763 81.1684Z" fill="#3253D1"/>
</g>
<defs>
<linearGradient id="paint0_linear_1006_4275" x1="102.926" y1="142.736" x2="102.926" y2="206.253" gradientUnits="userSpaceOnUse">
<stop stop-color="#AEAEFF"/>
<stop offset="1" stop-color="white" stop-opacity="0.8"/>
</linearGradient>
<clipPath id="clip0_1006_4275">
<rect width="225" height="210" fill="white"/>
</clipPath>
<clipPath id="clip1_1006_4275">
<rect width="26.7661" height="33.5638" fill="white" transform="translate(84.7302 139.763)"/>
</clipPath>
</defs>
</svg>
