<svg width="217" height="210" viewBox="0 0 217 210" fill="none" xmlns="http://www.w3.org/2000/svg">
<g clip-path="url(#clip0_1006_4087)">
<path d="M65.2049 18.0005H159.076H164.699C170.875 18.0005 175.882 23.0072 175.882 29.1833V34.8487V43.7209H177V65.8069H175.882V70.0005V71.6779H177V82.5811H175.882V216.482V229.419V230.474C175.882 236.65 170.875 241.656 164.699 241.656H161.162H68.3886H62.0342C54.5033 241.656 48.3984 235.551 48.3988 228.02V224.223V224.162V82.8607H47.0002V58.8177H48.3988V34.8487V29.1833C48.3988 23.0072 53.4055 18.0005 59.5816 18.0005H65.2049Z" fill="#E9EEF5" stroke="#03092D" stroke-linecap="round" stroke-linejoin="round"/>
<path d="M112.139 27.9403C110.972 27.9403 110.026 26.9945 110.026 25.8278C110.026 24.6611 110.972 23.7153 112.139 23.7153C113.305 23.7153 114.251 24.6611 114.251 25.8278C114.251 26.9945 113.305 27.9403 112.139 27.9403Z" fill="#03092D"/>
<path d="M171.408 38.6474V213.015V225.435V228.796C171.408 233.428 167.653 237.183 163.021 237.183H157.721H71.458H61.2578C56.6256 237.183 52.8705 233.428 52.8707 228.795L52.871 224.092V220.447V220.388V38.6474V30.8602C52.871 26.2282 56.626 22.4731 61.2581 22.4731H68.4977H88.1568C89.6974 22.4731 90.9463 23.722 90.9463 25.2626C90.9463 29.8844 94.693 33.6311 99.3147 33.6311H124.721C129.343 33.6311 133.09 29.8844 133.09 25.2626C133.09 23.722 134.339 22.4731 135.879 22.4731H155.781H163.021C167.653 22.4731 171.408 26.2282 171.408 30.8602V38.6474Z" fill="white" stroke="#03092D" stroke-linecap="round" stroke-linejoin="round"/>
<path d="M112.065 42.136C111.896 42.0537 111.697 42.0526 111.527 42.1317C100.71 47.1522 93.2559 51.2636 83.3422 55.9843C82.7383 56.2719 82.9405 57.1873 83.6094 57.1872L140.215 57.1765C140.878 57.1764 141.085 56.2801 140.489 55.9897L112.065 42.136Z" fill="#E9EEF5" stroke="black"/>
<path d="M115.326 88.0488C115.326 87.7037 115.606 87.4238 115.951 87.4237L127.126 87.4216C127.472 87.4215 127.752 87.7013 127.752 88.0465L127.752 90.9754C127.752 91.3205 127.472 91.6004 127.127 91.6005L115.952 91.6026C115.607 91.6027 115.327 91.3229 115.327 90.9777L115.326 88.0488Z" stroke="black"/>
<path d="M96.0802 88.0527C96.0801 87.7076 96.3599 87.4277 96.7051 87.4276L107.883 87.4255C108.228 87.4254 108.508 87.7052 108.508 88.0504L108.508 90.9793C108.509 91.3244 108.229 91.6043 107.884 91.6044L96.7059 91.6065C96.3607 91.6066 96.0808 91.3268 96.0807 90.9816L96.0802 88.0527Z" stroke="black"/>
<path d="M111.799 47.5044C113.338 47.5041 114.547 48.7139 114.548 50.2531C114.548 51.7934 113.339 53.0026 111.8 53.0029C110.26 53.0032 109.05 51.7945 109.05 50.2542C109.05 48.715 110.259 47.5047 111.799 47.5044Z" stroke="black"/>
<path d="M138.125 91.489C138.47 91.489 138.75 91.7688 138.75 92.1139L138.751 96.3625C138.751 96.7077 138.471 96.9875 138.126 96.9876L85.7093 96.9975C85.3641 96.9975 85.0842 96.7178 85.0842 96.3726L85.0834 92.124C85.0833 91.7788 85.3631 91.499 85.7083 91.4989L89.262 91.4982L96.0804 91.497L108.508 91.4946L115.326 91.4933L127.752 91.491L134.57 91.4897L138.125 91.489Z" fill="#E9EEF5" stroke="black"/>
<path d="M136.688 57.177C137.034 57.1769 137.314 57.4567 137.314 57.8019L137.314 59.9262C137.314 60.6963 136.985 61.3569 136.545 61.9066C136.15 62.3024 135.697 62.5275 135.187 62.6226C134.848 62.6859 134.565 62.9569 134.565 63.302L134.571 90.9744C134.571 91.3196 134.291 91.5995 133.946 91.5995L128.377 91.6006C128.032 91.6007 127.752 91.3209 127.752 90.9757L127.752 87.4219L127.747 63.3033C127.747 62.9581 127.464 62.6858 127.127 62.6107C125.895 62.336 124.997 61.2548 124.997 59.9285L124.997 57.8042C124.997 57.459 125.276 57.1791 125.622 57.1791L136.688 57.177Z" fill="#E9EEF5" stroke="black"/>
<path d="M117.444 57.1804C117.789 57.1803 118.069 57.4601 118.069 57.8053L118.07 59.9296C118.07 60.6997 117.739 61.3603 117.299 61.91C116.903 62.3054 116.451 62.5305 115.943 62.6258C115.603 62.6893 115.321 62.9603 115.321 63.3054L115.326 87.424L115.326 90.9778C115.326 91.323 115.046 91.6029 114.701 91.6029L109.022 91.604C108.677 91.6041 108.397 91.3243 108.397 90.9791L108.396 87.4253L108.392 63.3067C108.392 62.9616 108.108 62.6892 107.771 62.6141C106.539 62.3394 105.642 61.2582 105.642 59.932L105.641 57.8076C105.641 57.4624 105.921 57.1826 106.266 57.1825L117.444 57.1804Z" fill="#E9EEF5" stroke="black"/>
<path d="M98.1985 57.1843C98.5437 57.1843 98.8236 57.464 98.8236 57.8092L98.824 59.9335C98.8242 60.7037 98.4952 61.3642 98.0553 61.9139C97.7345 62.314 97.2398 62.5397 96.6974 62.633C96.3573 62.6916 96.0753 62.9642 96.0754 63.3094L96.0799 87.4279L96.0806 90.9817C96.0807 91.3269 95.8009 91.6068 95.4557 91.6069L89.8874 91.6079C89.5422 91.608 89.2623 91.3282 89.2622 90.983L89.257 63.3107C89.257 62.9655 88.9735 62.6932 88.6366 62.6181C87.404 62.3435 86.5074 61.2622 86.5071 59.9359L86.5067 57.8115C86.5066 57.4663 86.7864 57.1865 87.1316 57.1864L98.1985 57.1843Z" fill="#E9EEF5" stroke="black"/>
<path d="M66.7559 159.723L66.5273 155.262L66.6533 146.962C66.7065 143.428 69.6246 140.612 73.1582 140.685L88.4736 141H88.5352C88.5639 141 88.6069 140.998 88.6631 140.997C88.7757 140.995 88.9428 140.993 89.1582 140.989C89.589 140.982 90.2154 140.972 90.998 140.959C92.5638 140.933 94.7553 140.896 97.2568 140.853C102.26 140.765 108.505 140.65 113.472 140.542C115.712 140.493 117.687 140.515 119.67 140.539C121.652 140.563 123.643 140.588 125.902 140.542C130.571 140.447 133.172 140.542 137.864 140.542H155.824C158.854 140.542 161.31 142.998 161.311 146.028V154.249C161.31 154.253 161.31 154.259 161.31 154.267C161.309 154.285 161.309 154.312 161.309 154.347C161.307 154.417 161.305 154.521 161.303 154.654C161.298 154.922 161.291 155.312 161.284 155.798C161.27 156.77 161.253 158.128 161.241 159.674C161.218 162.764 161.218 166.61 161.311 169.617C161.356 171.082 161.333 172.222 161.31 173.373C161.287 174.525 161.263 175.687 161.311 177.18C161.412 180.391 161.311 182.166 161.311 185.413V193.905C161.31 197.502 158.335 200.389 154.731 200.323C152.627 200.285 150.386 200.258 148.518 200.266C146.431 200.275 143.763 200.332 141.619 200.387C140.547 200.414 139.604 200.442 138.93 200.462C138.593 200.472 138.322 200.48 138.136 200.485C138.043 200.488 137.971 200.491 137.923 200.492C137.899 200.493 137.88 200.494 137.867 200.494C137.861 200.494 137.857 200.495 137.854 200.495H113.893C113.885 200.495 113.874 200.496 113.859 200.496C113.83 200.497 113.787 200.498 113.73 200.5C113.617 200.503 113.449 200.509 113.231 200.516C112.796 200.529 112.163 200.546 111.374 200.568C109.795 200.613 107.588 200.672 105.077 200.73C100.053 200.847 93.8145 200.961 88.9434 200.953C83.979 200.945 77.4666 200.805 72.6543 200.682C69.2316 200.594 66.5097 197.8 66.5029 194.375C66.4966 191.082 66.498 187.152 66.5273 184.043C66.5522 181.405 66.6101 178.027 66.6611 175.308C66.6867 173.948 66.71 172.753 66.7275 171.898C66.7363 171.471 66.744 171.129 66.749 170.894C66.7515 170.776 66.7536 170.685 66.7549 170.623C66.7555 170.592 66.7555 170.568 66.7559 170.553C66.756 170.545 66.7568 170.539 66.7568 170.535V159.749C66.7568 159.74 66.7563 159.731 66.7559 159.723Z" fill="white" stroke="#03092D" stroke-linecap="round" stroke-linejoin="round"/>
<path opacity="0.2" d="M121.93 162.664C121.93 162.664 126.728 162.789 131.628 162.789C136.528 162.789 147.024 162.664 147.024 162.664" stroke="#03092D" stroke-width="3" stroke-linecap="round" stroke-linejoin="round"/>
<path opacity="0.2" d="M121.788 169.551C121.788 169.551 124.618 169.551 127.2 169.551C129.16 169.551 133.417 169.551 133.417 169.551" stroke="#03092D" stroke-width="3" stroke-linecap="round" stroke-linejoin="round"/>
<path d="M110.835 150.695C112.292 150.739 113.443 151.945 113.42 153.403L113.205 166.855V166.871L113.421 180.754C113.444 182.243 112.243 183.462 110.755 183.462H83.0928C81.673 183.462 80.507 182.352 80.4443 180.938C80.2875 177.399 80.0566 171.458 80.0566 167.125C80.0566 162.753 80.2914 156.743 80.4482 153.216C80.5099 151.835 81.6261 150.74 83.0127 150.696L96.499 150.263L110.835 150.695Z" fill="#E9EEF5" stroke="#03092D"/>
<g clip-path="url(#clip1_1006_4087)">
<path d="M97.2757 172.967L94.5 172.195V169.728L93.5748 166.952L92.8037 163.868V161.555L94.0374 159.859L98.5094 158.163L100.514 155.541L105.14 158.163L106.374 160.321L105.911 163.868L105.14 167.878L101.902 170.653L99.1262 171.733V172.504L97.2757 172.967Z" fill="#FFCEB6"/>
<path d="M94.7675 170.871C94.7675 170.481 97.5432 173.11 99.2395 171.876V172.648L96.5765 173.029L94.8203 172.248C94.5633 171.529 94.7675 171.334 94.7675 170.871Z" fill="#F9AC8A"/>
<path d="M100.769 183.406C100.164 177.971 98.7014 175.912 97.8083 173.715C97.6776 173.394 97.8572 173.036 98.1879 172.931L99.2496 172.594C99.3668 172.557 99.4925 172.555 99.6105 172.59L103.769 173.813C103.828 173.83 103.885 173.857 103.937 173.891L107.186 176.057C107.308 176.139 107.398 176.262 107.437 176.404L108.265 179.359C108.28 179.413 108.288 179.469 108.288 179.526V183.213C108.288 183.521 108.06 183.782 107.755 183.824L105.001 184.203C104.907 184.216 104.819 184.152 104.802 184.058C104.764 183.849 104.458 183.87 104.448 184.081L104.441 184.226L101.335 183.961C101.038 183.936 100.802 183.701 100.769 183.406Z" fill="#E1F0FF"/>
<path d="M98.3545 172.968C98.5088 173.277 98.7863 174.233 99.2798 175.59C99.7559 176.899 100.324 181.149 100.629 184.226H95.1162C94.3452 181.604 96.0415 174.202 92.6489 173.123L94.3452 172.506L96.3499 173.123L98.3545 172.968Z" fill="white"/>
<path d="M89.5911 183.771L85.3417 186.231L85.0642 181.226L85.2958 176.666C85.3241 176.109 85.6547 175.612 86.1576 175.37L88.0743 174.45C88.1489 174.414 88.2263 174.384 88.3058 174.361L92.5158 173.129C93.2493 172.96 93.969 173.459 94.0685 174.205L94.4999 177.441L95.2971 184.188L90.9494 184.732C90.6405 184.771 90.3677 184.53 90.3677 184.219C90.3677 183.82 89.9361 183.571 89.5911 183.771Z" fill="#E1F0FF"/>
<path d="M106.169 161.191C106.508 161.452 107.303 161.946 107.779 161.827C107.481 161.678 107.657 160.866 107.927 160.488C108.671 159.447 108.671 158.109 108.671 158.109C108.621 157.762 108.373 157.366 107.779 156.771C107.212 156.204 107.779 153.797 102.276 153.202C100.652 153.112 98.4547 151.526 94.7117 154.772C93.9212 155.457 93.4221 156.412 93.1658 157.426C92.8733 158.584 92.5449 159.956 92.5357 160.488C92.5229 161.236 92.7216 161.859 92.7592 162.273C92.8488 161.537 93.0671 160.826 94.0933 160.488C96.556 159.678 97.3519 160.312 99.7442 157.407C101.41 155.384 103.714 157.861 104.061 158.853C104.557 158.605 106.738 158.555 106.169 161.191Z" fill="#4B4D59"/>
<path d="M99.1532 171.79L99.1899 171.291C98.9347 171.273 98.7065 171.45 98.6611 171.701L99.1532 171.79ZM102.276 170.452L102.529 170.883L102.536 170.879L102.276 170.452ZM104.061 169.113L104.42 169.462V169.462L104.061 169.113ZM105.399 167.18L104.983 166.904L104.971 166.921L104.961 166.94L105.399 167.18ZM106.169 161.191L105.681 161.085C105.671 161.128 105.668 161.172 105.67 161.216L106.169 161.191ZM94.0933 168.806L93.6301 168.994L93.6302 168.994L94.0933 168.806ZM94.5729 170.76L95.0681 170.691L95.0681 170.691L94.5729 170.76ZM94.4992 172.271L94.0469 172.058C93.9384 172.288 94.0202 172.563 94.2368 172.697L94.4992 172.271ZM107.779 161.827L107.9 162.312C108.103 162.261 108.253 162.089 108.276 161.881C108.298 161.673 108.189 161.473 108.002 161.379L107.779 161.827ZM107.927 160.488L108.334 160.779V160.779L107.927 160.488ZM108.671 158.109H109.171C109.171 158.085 109.169 158.062 109.166 158.038L108.671 158.109ZM107.779 156.771L108.132 156.417V156.417L107.779 156.771ZM102.276 153.202L102.33 152.705C102.322 152.704 102.313 152.703 102.304 152.703L102.276 153.202ZM94.7117 154.772L95.0392 155.149V155.149L94.7117 154.772ZM93.1658 157.426L93.6505 157.549H93.6505L93.1658 157.426ZM92.5357 160.488L93.0357 160.497L92.5357 160.488ZM92.7592 162.273L93.2555 162.333V162.333L92.7592 162.273ZM94.0933 160.488L93.937 160.013V160.013L94.0933 160.488ZM99.7442 157.407L100.13 157.725V157.725L99.7442 157.407ZM104.061 158.853L103.589 159.018C103.636 159.153 103.74 159.262 103.873 159.316C104.006 159.37 104.156 159.364 104.285 159.3L104.061 158.853ZM92.9119 164.362L93.4039 164.273C93.4016 164.26 93.3988 164.247 93.3955 164.235L92.9119 164.362ZM99.1536 172.534L99.4076 172.964C99.6325 172.832 99.7175 172.548 99.6026 172.314L99.1536 172.534ZM98.17 163.065C98.2809 163.318 98.5759 163.433 98.8287 163.322C99.0816 163.211 99.1967 162.916 99.0857 162.663L98.6278 162.864L98.17 163.065ZM97.9821 162.423L97.9472 162.922L97.9477 162.922L97.9821 162.423ZM96.7636 162.661C96.6513 162.913 96.7649 163.208 97.0172 163.321C97.2695 163.433 97.565 163.319 97.6772 163.067L97.2204 162.864L96.7636 162.661ZM103.821 163.362C103.932 163.615 104.227 163.73 104.48 163.619C104.732 163.508 104.848 163.213 104.737 162.96L104.279 163.161L103.821 163.362ZM103.633 162.721L103.598 163.22L103.599 163.22L103.633 162.721ZM102.414 162.958C102.302 163.21 102.416 163.506 102.668 163.618C102.92 163.73 103.216 163.617 103.328 163.364L102.871 163.161L102.414 162.958ZM98.5093 168.006C98.4599 167.734 98.1996 167.554 97.9279 167.603C97.6563 167.653 97.476 167.913 97.5254 168.185L98.0174 168.095L98.5093 168.006ZM98.9206 169.222L98.7309 169.685L98.7315 169.685L98.9206 169.222ZM100.435 169.589C100.678 169.458 100.769 169.155 100.639 168.912C100.508 168.669 100.204 168.578 99.9613 168.708L100.198 169.149L100.435 169.589ZM99.1532 171.79L99.1165 172.289C99.2855 172.301 99.4626 172.272 99.6191 172.235C99.7822 172.195 99.9569 172.138 100.132 172.072C100.483 171.941 100.867 171.764 101.218 171.589C101.57 171.414 101.897 171.238 102.136 171.106C102.255 171.04 102.353 170.984 102.421 170.946C102.455 170.926 102.482 170.911 102.5 170.9C102.51 170.895 102.517 170.89 102.522 170.888C102.524 170.886 102.526 170.885 102.527 170.884C102.528 170.884 102.528 170.884 102.529 170.883C102.529 170.883 102.529 170.883 102.529 170.883C102.529 170.883 102.529 170.883 102.529 170.883C102.529 170.883 102.529 170.883 102.276 170.452C102.023 170.02 102.023 170.02 102.023 170.02C102.023 170.02 102.023 170.02 102.023 170.02C102.023 170.02 102.023 170.021 102.023 170.021C102.023 170.021 102.023 170.021 102.022 170.021C102.021 170.022 102.02 170.023 102.018 170.024C102.014 170.026 102.007 170.03 101.999 170.035C101.982 170.045 101.957 170.059 101.925 170.078C101.86 170.115 101.766 170.168 101.651 170.231C101.421 170.359 101.108 170.527 100.773 170.694C100.436 170.861 100.086 171.022 99.7813 171.136C99.6287 171.193 99.4952 171.236 99.3852 171.262C99.2686 171.29 99.2079 171.293 99.1899 171.291L99.1532 171.79ZM102.276 170.452C102.536 170.879 102.536 170.879 102.536 170.879C102.536 170.879 102.536 170.879 102.536 170.879C102.536 170.879 102.536 170.879 102.536 170.879C102.536 170.879 102.537 170.879 102.537 170.879C102.538 170.878 102.539 170.877 102.54 170.877C102.543 170.875 102.546 170.873 102.551 170.87C102.561 170.864 102.574 170.856 102.592 170.845C102.627 170.823 102.677 170.791 102.739 170.752C102.863 170.673 103.035 170.56 103.226 170.428C103.601 170.168 104.081 169.811 104.42 169.462L104.061 169.113L103.702 168.765C103.434 169.041 103.022 169.353 102.656 169.606C102.477 169.73 102.317 169.835 102.201 169.909C102.143 169.946 102.096 169.975 102.064 169.995C102.049 170.005 102.037 170.012 102.029 170.017C102.025 170.02 102.022 170.022 102.02 170.023C102.019 170.023 102.018 170.024 102.018 170.024C102.017 170.024 102.017 170.024 102.017 170.024C102.017 170.024 102.017 170.024 102.017 170.024C102.017 170.024 102.017 170.024 102.017 170.024C102.017 170.024 102.017 170.024 102.276 170.452ZM104.061 169.113L104.42 169.462C104.777 169.094 105.134 168.574 105.392 168.168C105.524 167.961 105.634 167.775 105.712 167.641C105.751 167.574 105.782 167.52 105.804 167.482C105.814 167.463 105.823 167.448 105.828 167.437C105.831 167.432 105.833 167.428 105.835 167.425C105.836 167.424 105.836 167.423 105.837 167.422C105.837 167.422 105.837 167.421 105.837 167.421C105.837 167.421 105.838 167.421 105.838 167.421C105.838 167.421 105.838 167.421 105.838 167.421C105.838 167.421 105.838 167.421 105.399 167.18C104.961 166.94 104.961 166.94 104.961 166.94C104.961 166.94 104.961 166.94 104.961 166.94C104.961 166.94 104.961 166.94 104.961 166.94C104.961 166.94 104.961 166.94 104.961 166.94C104.96 166.941 104.96 166.941 104.959 166.942C104.958 166.944 104.957 166.948 104.954 166.952C104.949 166.961 104.942 166.974 104.932 166.991C104.913 167.025 104.884 167.075 104.848 167.138C104.775 167.264 104.671 167.438 104.548 167.632C104.296 168.028 103.984 168.474 103.702 168.765L104.061 169.113ZM105.399 167.18C105.816 167.457 105.816 167.457 105.816 167.456C105.816 167.456 105.816 167.456 105.817 167.456C105.817 167.455 105.817 167.455 105.818 167.454C105.818 167.453 105.819 167.452 105.82 167.451C105.821 167.449 105.823 167.446 105.825 167.443C105.829 167.436 105.834 167.429 105.839 167.419C105.85 167.401 105.865 167.376 105.882 167.344C105.916 167.281 105.961 167.191 106.012 167.071C106.113 166.833 106.24 166.478 106.357 165.983C106.59 164.993 106.785 163.448 106.669 161.165L106.169 161.191L105.67 161.216C105.782 163.42 105.592 164.869 105.383 165.753C105.279 166.195 105.17 166.496 105.092 166.679C105.053 166.771 105.021 166.833 105.002 166.87C104.992 166.888 104.985 166.9 104.982 166.905C104.98 166.908 104.979 166.909 104.979 166.909C104.979 166.909 104.98 166.908 104.98 166.907C104.981 166.907 104.981 166.906 104.981 166.906C104.982 166.905 104.982 166.905 104.982 166.905C104.982 166.905 104.982 166.904 104.982 166.904C104.983 166.904 104.983 166.904 105.399 167.18ZM94.0933 168.806C93.6302 168.994 93.6301 168.994 93.6301 168.994C93.6301 168.994 93.6301 168.994 93.63 168.994C93.63 168.994 93.63 168.994 93.63 168.994C93.6299 168.993 93.6299 168.993 93.6299 168.993C93.6299 168.993 93.6299 168.993 93.63 168.994C93.6303 168.994 93.6308 168.996 93.6317 168.998C93.6333 169.002 93.6361 169.009 93.6399 169.019C93.6474 169.039 93.659 169.07 93.6736 169.112C93.703 169.195 93.7446 169.32 93.7915 169.481C93.8854 169.803 93.9995 170.267 94.0777 170.829L94.5729 170.76L95.0681 170.691C94.9822 170.073 94.8565 169.561 94.7516 169.201C94.6991 169.021 94.6516 168.878 94.6167 168.779C94.5992 168.729 94.5848 168.691 94.5745 168.663C94.5693 168.65 94.5651 168.639 94.5621 168.631C94.5606 168.628 94.5593 168.624 94.5584 168.622C94.5579 168.621 94.5575 168.62 94.5572 168.619C94.557 168.619 94.5569 168.618 94.5568 168.618C94.5567 168.618 94.5566 168.618 94.5566 168.618C94.5566 168.618 94.5565 168.617 94.5565 168.617C94.5565 168.617 94.5564 168.617 94.0933 168.806ZM94.5729 170.76L94.0777 170.828C94.1997 171.706 94.1009 171.944 94.0469 172.058L94.4992 172.271L94.9515 172.484C95.1216 172.123 95.2036 171.665 95.0681 170.691L94.5729 170.76ZM106.169 161.191L105.864 161.586C106.055 161.734 106.37 161.944 106.71 162.104C106.88 162.184 107.07 162.257 107.262 162.302C107.45 162.345 107.676 162.368 107.9 162.312L107.779 161.827L107.657 161.342C107.644 161.345 107.591 161.351 107.486 161.327C107.385 161.304 107.265 161.26 107.135 161.199C106.874 161.076 106.622 160.908 106.475 160.795L106.169 161.191ZM107.779 161.827L108.002 161.379C108.123 161.44 108.135 161.538 108.128 161.507C108.123 161.483 108.119 161.42 108.135 161.318C108.166 161.111 108.254 160.892 108.334 160.779L107.927 160.488L107.52 160.198C107.331 160.463 107.196 160.839 107.146 161.169C107.121 161.336 107.111 161.527 107.149 161.708C107.184 161.883 107.285 162.139 107.555 162.274L107.779 161.827ZM107.927 160.488L108.334 160.779C108.762 160.18 108.967 159.51 109.068 159.006C109.119 158.752 109.145 158.533 109.158 158.375C109.164 158.297 109.167 158.233 109.169 158.187C109.17 158.165 109.17 158.147 109.171 158.133C109.171 158.127 109.171 158.121 109.171 158.117C109.171 158.115 109.171 158.114 109.171 158.112C109.171 158.112 109.171 158.111 109.171 158.11C109.171 158.11 109.171 158.11 109.171 158.11C109.171 158.11 109.171 158.109 109.171 158.109C109.171 158.109 109.171 158.109 108.671 158.109C108.171 158.109 108.171 158.109 108.171 158.109C108.171 158.109 108.171 158.109 108.171 158.109C108.171 158.108 108.171 158.108 108.171 158.108C108.171 158.108 108.171 158.108 108.171 158.108C108.171 158.108 108.171 158.108 108.171 158.109C108.171 158.11 108.171 158.112 108.171 158.115C108.171 158.122 108.17 158.134 108.17 158.15C108.169 158.182 108.166 158.231 108.161 158.294C108.151 158.42 108.13 158.6 108.088 158.81C108.002 159.236 107.836 159.756 107.52 160.198L107.927 160.488ZM108.671 158.109L109.166 158.038C109.091 157.517 108.735 157.02 108.132 156.417L107.779 156.771L107.425 157.124C108.012 157.711 108.151 158.007 108.176 158.18L108.671 158.109ZM107.779 156.771L108.132 156.417C108.134 156.419 108.111 156.395 108.068 156.29C108.024 156.182 107.989 156.07 107.925 155.889C107.804 155.553 107.627 155.118 107.264 154.679C106.53 153.79 105.146 153.009 102.33 152.705L102.276 153.202L102.223 153.699C104.909 153.989 105.993 154.71 106.493 155.315C106.747 155.623 106.878 155.933 106.983 156.226C107.031 156.36 107.088 156.534 107.142 156.668C107.199 156.806 107.282 156.981 107.425 157.124L107.779 156.771ZM102.276 153.202L102.304 152.703C101.952 152.683 101.569 152.582 101.045 152.465C100.543 152.352 99.9557 152.237 99.2893 152.236C97.9294 152.234 96.3312 152.706 94.3842 154.394L94.7117 154.772L95.0392 155.149C96.8351 153.592 98.2072 153.234 99.2878 153.236C99.8417 153.237 100.342 153.332 100.826 153.44C101.288 153.544 101.789 153.675 102.249 153.701L102.276 153.202ZM93.1658 157.426L92.681 157.304C92.5344 157.884 92.3775 158.523 92.2558 159.086C92.1377 159.632 92.0414 160.156 92.0358 160.48L92.5357 160.488L93.0357 160.497C93.0393 160.288 93.1117 159.86 93.2332 159.297C93.3511 158.752 93.5046 158.126 93.6505 157.549L93.1658 157.426ZM92.5357 160.488L92.0358 160.48C92.0286 160.899 92.0809 161.278 92.1361 161.592C92.1959 161.933 92.2449 162.138 92.2613 162.318L92.7592 162.273L93.2572 162.228C93.2359 161.994 93.1668 161.681 93.1211 161.42C93.0707 161.132 93.0301 160.825 93.0357 160.497L92.5357 160.488ZM94.0933 160.488L94.2496 160.963C94.8387 160.77 95.3282 160.662 95.7853 160.562C96.2365 160.464 96.6789 160.369 97.1226 160.201C98.0417 159.852 98.9055 159.212 100.13 157.725L99.7442 157.407L99.3582 157.089C98.1906 158.507 97.4603 159.003 96.7677 159.266C96.4055 159.403 96.0377 159.484 95.5723 159.585C95.1127 159.685 94.5793 159.802 93.937 160.013L94.0933 160.488ZM99.7442 157.407L100.13 157.725C100.473 157.309 100.81 157.163 101.113 157.139C101.432 157.113 101.783 157.217 102.142 157.43C102.499 157.641 102.831 157.941 103.094 158.249C103.363 158.564 103.53 158.85 103.589 159.018L104.061 158.853L104.533 158.688C104.418 158.359 104.167 157.965 103.854 157.599C103.536 157.227 103.123 156.848 102.652 156.569C102.183 156.292 101.624 156.094 101.032 156.142C100.424 156.191 99.8484 156.494 99.3582 157.089L99.7442 157.407ZM104.061 158.853L104.285 159.3C104.284 159.3 104.285 159.3 104.287 159.299C104.289 159.298 104.291 159.297 104.294 159.296C104.3 159.293 104.309 159.29 104.32 159.287C104.343 159.28 104.373 159.272 104.41 159.265C104.483 159.251 104.575 159.242 104.676 159.243C104.883 159.244 105.1 159.286 105.279 159.382C105.448 159.472 105.593 159.614 105.68 159.85C105.77 160.097 105.81 160.486 105.681 161.085L106.169 161.191L106.658 161.296C106.813 160.577 106.793 159.984 106.619 159.507C106.441 159.02 106.117 158.695 105.749 158.499C105.392 158.309 105.006 158.245 104.683 158.243C104.371 158.241 104.056 158.296 103.837 158.405L104.061 158.853ZM92.9119 164.362L92.4199 164.451C92.6561 165.753 93.0506 167.569 93.6301 168.994L94.0933 168.806L94.5565 168.617C94.0178 167.293 93.6377 165.562 93.4039 164.273L92.9119 164.362ZM94.0933 160.488L93.937 160.013C93.3254 160.215 92.9132 160.545 92.6504 160.967C92.3977 161.374 92.3102 161.824 92.2629 162.212L92.7592 162.273L93.2555 162.333C93.2978 161.987 93.3642 161.713 93.4996 161.496C93.6249 161.294 93.8349 161.1 94.2496 160.963L94.0933 160.488ZM92.7592 162.273L92.2629 162.212C92.193 162.786 92.2362 163.355 92.2932 163.771C92.3219 163.981 92.3549 164.158 92.381 164.282C92.394 164.345 92.4054 164.395 92.4137 164.43C92.4179 164.447 92.4213 164.461 92.4238 164.471C92.425 164.476 92.426 164.48 92.4268 164.483C92.4272 164.484 92.4275 164.486 92.4277 164.487C92.4279 164.487 92.428 164.488 92.4281 164.488C92.4281 164.488 92.4282 164.488 92.4282 164.488C92.4282 164.488 92.4282 164.489 92.4282 164.489C92.4283 164.489 92.4283 164.489 92.9119 164.362C93.3955 164.235 93.3956 164.235 93.3956 164.235C93.3956 164.235 93.3956 164.235 93.3956 164.235C93.3956 164.235 93.3956 164.235 93.3957 164.235C93.3957 164.235 93.3957 164.236 93.3957 164.235C93.3957 164.235 93.3956 164.235 93.3954 164.235C93.3951 164.233 93.3946 164.231 93.3938 164.228C93.3923 164.222 93.3899 164.212 93.3867 164.199C93.3803 164.172 93.3709 164.131 93.3599 164.078C93.3377 163.972 93.309 163.819 93.2839 163.636C93.2332 163.265 93.2 162.789 93.2555 162.333L92.7592 162.273ZM94.7117 154.772L94.3842 154.394C93.4983 155.162 92.9558 156.216 92.681 157.304L93.1658 157.426L93.6505 157.549C93.8884 156.607 94.3442 155.752 95.0392 155.149L94.7117 154.772ZM99.1532 171.79L98.6611 171.701C98.6521 171.752 98.4453 172.224 98.7046 172.754L99.1536 172.534L99.6026 172.314C99.5666 172.24 99.5699 172.206 99.5735 172.18C99.5766 172.157 99.5829 172.129 99.5968 172.078C99.6081 172.037 99.631 171.958 99.6453 171.879L99.1532 171.79ZM98.6278 162.864L99.0857 162.663C98.8975 162.234 98.4759 161.956 98.0165 161.925L97.9821 162.423L97.9477 162.922C98.0584 162.93 98.1401 162.996 98.17 163.065L98.6278 162.864ZM97.9821 162.423L98.017 161.925C97.4992 161.889 96.9819 162.17 96.7636 162.661L97.2204 162.864L97.6772 163.067C97.7125 162.988 97.8183 162.913 97.9472 162.922L97.9821 162.423ZM104.279 163.161L104.737 162.96C104.548 162.531 104.127 162.254 103.667 162.222L103.633 162.721L103.599 163.22C103.709 163.227 103.791 163.294 103.821 163.362L104.279 163.161ZM103.633 162.721L103.668 162.222C103.15 162.186 102.633 162.467 102.414 162.958L102.871 163.161L103.328 163.364C103.363 163.285 103.469 163.211 103.598 163.22L103.633 162.721ZM98.0174 168.095L97.5254 168.185C97.5389 168.258 97.7336 169.276 98.7309 169.685L98.9206 169.222L99.1103 168.76C98.875 168.663 98.7272 168.492 98.6326 168.322C98.536 168.149 98.5084 168.001 98.5093 168.006L98.0174 168.095ZM98.9206 169.222L98.7315 169.685C99.5871 170.035 100.333 169.644 100.435 169.589L100.198 169.149L99.9613 168.708C99.9098 168.736 99.524 168.929 99.1098 168.76L98.9206 169.222ZM99.1536 172.534L98.8996 172.103C98.3251 172.442 97.741 172.641 97.0941 172.635C96.4455 172.628 95.6852 172.415 94.7616 171.846L94.4992 172.271L94.2368 172.697C95.2749 173.337 96.2114 173.626 97.0844 173.635C97.9591 173.643 98.7213 173.369 99.4076 172.964L99.1536 172.534Z" fill="url(#paint0_linear_1006_4087)"/>
<path d="M99.1532 171.79L99.1899 171.291C98.9347 171.273 98.7065 171.45 98.6611 171.701L99.1532 171.79ZM102.276 170.452L102.529 170.883L102.536 170.879L102.276 170.452ZM104.061 169.113L104.42 169.462V169.462L104.061 169.113ZM105.399 167.18L104.983 166.904L104.971 166.921L104.961 166.94L105.399 167.18ZM106.169 161.191L105.681 161.085C105.671 161.128 105.668 161.172 105.67 161.216L106.169 161.191ZM94.0933 168.806L93.6301 168.994L93.6302 168.994L94.0933 168.806ZM94.5729 170.76L95.0681 170.691L95.0681 170.691L94.5729 170.76ZM94.4992 172.271L94.0469 172.058C93.9384 172.288 94.0202 172.563 94.2368 172.697L94.4992 172.271ZM107.779 161.827L107.9 162.312C108.103 162.261 108.253 162.089 108.276 161.881C108.298 161.673 108.189 161.473 108.002 161.379L107.779 161.827ZM107.927 160.488L108.334 160.779V160.779L107.927 160.488ZM108.671 158.109H109.171C109.171 158.085 109.169 158.062 109.166 158.038L108.671 158.109ZM107.779 156.771L108.132 156.417V156.417L107.779 156.771ZM102.276 153.202L102.33 152.705C102.322 152.704 102.313 152.703 102.304 152.703L102.276 153.202ZM94.7117 154.772L95.0392 155.149V155.149L94.7117 154.772ZM93.1658 157.426L93.6505 157.549H93.6505L93.1658 157.426ZM92.5357 160.488L93.0357 160.497L92.5357 160.488ZM92.7592 162.273L93.2555 162.333V162.333L92.7592 162.273ZM94.0933 160.488L93.937 160.013V160.013L94.0933 160.488ZM99.7442 157.407L100.13 157.725V157.725L99.7442 157.407ZM104.061 158.853L103.589 159.018C103.636 159.153 103.74 159.262 103.873 159.316C104.006 159.37 104.156 159.364 104.285 159.3L104.061 158.853ZM92.9119 164.362L93.4039 164.273C93.4016 164.26 93.3988 164.247 93.3955 164.235L92.9119 164.362ZM99.1536 172.534L99.4076 172.964C99.6325 172.832 99.7175 172.548 99.6026 172.314L99.1536 172.534ZM98.17 163.065C98.2809 163.318 98.5759 163.433 98.8287 163.322C99.0816 163.211 99.1967 162.916 99.0857 162.663L98.6278 162.864L98.17 163.065ZM97.9821 162.423L97.9472 162.922L97.9477 162.922L97.9821 162.423ZM96.7636 162.661C96.6513 162.913 96.7649 163.208 97.0172 163.321C97.2695 163.433 97.565 163.319 97.6772 163.067L97.2204 162.864L96.7636 162.661ZM103.821 163.362C103.932 163.615 104.227 163.73 104.48 163.619C104.732 163.508 104.848 163.213 104.737 162.96L104.279 163.161L103.821 163.362ZM103.633 162.721L103.598 163.22L103.599 163.22L103.633 162.721ZM102.414 162.958C102.302 163.21 102.416 163.506 102.668 163.618C102.92 163.73 103.216 163.617 103.328 163.364L102.871 163.161L102.414 162.958ZM98.5093 168.006C98.4599 167.734 98.1996 167.554 97.9279 167.603C97.6563 167.653 97.476 167.913 97.5254 168.185L98.0174 168.095L98.5093 168.006ZM98.9206 169.222L98.7309 169.685L98.7315 169.685L98.9206 169.222ZM100.435 169.589C100.678 169.458 100.769 169.155 100.639 168.912C100.508 168.669 100.204 168.578 99.9613 168.708L100.198 169.149L100.435 169.589ZM99.1532 171.79L99.1165 172.289C99.2855 172.301 99.4626 172.272 99.6191 172.235C99.7822 172.195 99.9569 172.138 100.132 172.072C100.483 171.941 100.867 171.764 101.218 171.589C101.57 171.414 101.897 171.238 102.136 171.106C102.255 171.04 102.353 170.984 102.421 170.946C102.455 170.926 102.482 170.911 102.5 170.9C102.51 170.895 102.517 170.89 102.522 170.888C102.524 170.886 102.526 170.885 102.527 170.884C102.528 170.884 102.528 170.884 102.529 170.883C102.529 170.883 102.529 170.883 102.529 170.883C102.529 170.883 102.529 170.883 102.529 170.883C102.529 170.883 102.529 170.883 102.276 170.452C102.023 170.02 102.023 170.02 102.023 170.02C102.023 170.02 102.023 170.02 102.023 170.02C102.023 170.02 102.023 170.021 102.023 170.021C102.023 170.021 102.023 170.021 102.022 170.021C102.021 170.022 102.02 170.023 102.018 170.024C102.014 170.026 102.007 170.03 101.999 170.035C101.982 170.045 101.957 170.059 101.925 170.078C101.86 170.115 101.766 170.168 101.651 170.231C101.421 170.359 101.108 170.527 100.773 170.694C100.436 170.861 100.086 171.022 99.7813 171.136C99.6287 171.193 99.4952 171.236 99.3852 171.262C99.2686 171.29 99.2079 171.293 99.1899 171.291L99.1532 171.79ZM102.276 170.452C102.536 170.879 102.536 170.879 102.536 170.879C102.536 170.879 102.536 170.879 102.536 170.879C102.536 170.879 102.536 170.879 102.536 170.879C102.536 170.879 102.537 170.879 102.537 170.879C102.538 170.878 102.539 170.877 102.54 170.877C102.543 170.875 102.546 170.873 102.551 170.87C102.561 170.864 102.574 170.856 102.592 170.845C102.627 170.823 102.677 170.791 102.739 170.752C102.863 170.673 103.035 170.56 103.226 170.428C103.601 170.168 104.081 169.811 104.42 169.462L104.061 169.113L103.702 168.765C103.434 169.041 103.022 169.353 102.656 169.606C102.477 169.73 102.317 169.835 102.201 169.909C102.143 169.946 102.096 169.975 102.064 169.995C102.049 170.005 102.037 170.012 102.029 170.017C102.025 170.02 102.022 170.022 102.02 170.023C102.019 170.023 102.018 170.024 102.018 170.024C102.017 170.024 102.017 170.024 102.017 170.024C102.017 170.024 102.017 170.024 102.017 170.024C102.017 170.024 102.017 170.024 102.017 170.024C102.017 170.024 102.017 170.024 102.276 170.452ZM104.061 169.113L104.42 169.462C104.777 169.094 105.134 168.574 105.392 168.168C105.524 167.961 105.634 167.775 105.712 167.641C105.751 167.574 105.782 167.52 105.804 167.482C105.814 167.463 105.823 167.448 105.828 167.437C105.831 167.432 105.833 167.428 105.835 167.425C105.836 167.424 105.836 167.423 105.837 167.422C105.837 167.422 105.837 167.421 105.837 167.421C105.837 167.421 105.838 167.421 105.838 167.421C105.838 167.421 105.838 167.421 105.838 167.421C105.838 167.421 105.838 167.421 105.399 167.18C104.961 166.94 104.961 166.94 104.961 166.94C104.961 166.94 104.961 166.94 104.961 166.94C104.961 166.94 104.961 166.94 104.961 166.94C104.961 166.94 104.961 166.94 104.961 166.94C104.96 166.941 104.96 166.941 104.959 166.942C104.958 166.944 104.957 166.948 104.954 166.952C104.949 166.961 104.942 166.974 104.932 166.991C104.913 167.025 104.884 167.075 104.848 167.138C104.775 167.264 104.671 167.438 104.548 167.632C104.296 168.028 103.984 168.474 103.702 168.765L104.061 169.113ZM105.399 167.18C105.816 167.457 105.816 167.457 105.816 167.456C105.816 167.456 105.816 167.456 105.817 167.456C105.817 167.455 105.817 167.455 105.818 167.454C105.818 167.453 105.819 167.452 105.82 167.451C105.821 167.449 105.823 167.446 105.825 167.443C105.829 167.436 105.834 167.429 105.839 167.419C105.85 167.401 105.865 167.376 105.882 167.344C105.916 167.281 105.961 167.191 106.012 167.071C106.113 166.833 106.24 166.478 106.357 165.983C106.59 164.993 106.785 163.448 106.669 161.165L106.169 161.191L105.67 161.216C105.782 163.42 105.592 164.869 105.383 165.753C105.279 166.195 105.17 166.496 105.092 166.679C105.053 166.771 105.021 166.833 105.002 166.87C104.992 166.888 104.985 166.9 104.982 166.905C104.98 166.908 104.979 166.909 104.979 166.909C104.979 166.909 104.98 166.908 104.98 166.907C104.981 166.907 104.981 166.906 104.981 166.906C104.982 166.905 104.982 166.905 104.982 166.905C104.982 166.905 104.982 166.904 104.982 166.904C104.983 166.904 104.983 166.904 105.399 167.18ZM94.0933 168.806C93.6302 168.994 93.6301 168.994 93.6301 168.994C93.6301 168.994 93.6301 168.994 93.63 168.994C93.63 168.994 93.63 168.994 93.63 168.994C93.6299 168.993 93.6299 168.993 93.6299 168.993C93.6299 168.993 93.6299 168.993 93.63 168.994C93.6303 168.994 93.6308 168.996 93.6317 168.998C93.6333 169.002 93.6361 169.009 93.6399 169.019C93.6474 169.039 93.659 169.07 93.6736 169.112C93.703 169.195 93.7446 169.32 93.7915 169.481C93.8854 169.803 93.9995 170.267 94.0777 170.829L94.5729 170.76L95.0681 170.691C94.9822 170.073 94.8565 169.561 94.7516 169.201C94.6991 169.021 94.6516 168.878 94.6167 168.779C94.5992 168.729 94.5848 168.691 94.5745 168.663C94.5693 168.65 94.5651 168.639 94.5621 168.631C94.5606 168.628 94.5593 168.624 94.5584 168.622C94.5579 168.621 94.5575 168.62 94.5572 168.619C94.557 168.619 94.5569 168.618 94.5568 168.618C94.5567 168.618 94.5566 168.618 94.5566 168.618C94.5566 168.618 94.5565 168.617 94.5565 168.617C94.5565 168.617 94.5564 168.617 94.0933 168.806ZM94.5729 170.76L94.0777 170.828C94.1997 171.706 94.1009 171.944 94.0469 172.058L94.4992 172.271L94.9515 172.484C95.1216 172.123 95.2036 171.665 95.0681 170.691L94.5729 170.76ZM106.169 161.191L105.864 161.586C106.055 161.734 106.37 161.944 106.71 162.104C106.88 162.184 107.07 162.257 107.262 162.302C107.45 162.345 107.676 162.368 107.9 162.312L107.779 161.827L107.657 161.342C107.644 161.345 107.591 161.351 107.486 161.327C107.385 161.304 107.265 161.26 107.135 161.199C106.874 161.076 106.622 160.908 106.475 160.795L106.169 161.191ZM107.779 161.827L108.002 161.379C108.123 161.44 108.135 161.538 108.128 161.507C108.123 161.483 108.119 161.42 108.135 161.318C108.166 161.111 108.254 160.892 108.334 160.779L107.927 160.488L107.52 160.198C107.331 160.463 107.196 160.839 107.146 161.169C107.121 161.336 107.111 161.527 107.149 161.708C107.184 161.883 107.285 162.139 107.555 162.274L107.779 161.827ZM107.927 160.488L108.334 160.779C108.762 160.18 108.967 159.51 109.068 159.006C109.119 158.752 109.145 158.533 109.158 158.375C109.164 158.297 109.167 158.233 109.169 158.187C109.17 158.165 109.17 158.147 109.171 158.133C109.171 158.127 109.171 158.121 109.171 158.117C109.171 158.115 109.171 158.114 109.171 158.112C109.171 158.112 109.171 158.111 109.171 158.11C109.171 158.11 109.171 158.11 109.171 158.11C109.171 158.11 109.171 158.109 109.171 158.109C109.171 158.109 109.171 158.109 108.671 158.109C108.171 158.109 108.171 158.109 108.171 158.109C108.171 158.109 108.171 158.109 108.171 158.109C108.171 158.108 108.171 158.108 108.171 158.108C108.171 158.108 108.171 158.108 108.171 158.108C108.171 158.108 108.171 158.108 108.171 158.109C108.171 158.11 108.171 158.112 108.171 158.115C108.171 158.122 108.17 158.134 108.17 158.15C108.169 158.182 108.166 158.231 108.161 158.294C108.151 158.42 108.13 158.6 108.088 158.81C108.002 159.236 107.836 159.756 107.52 160.198L107.927 160.488ZM108.671 158.109L109.166 158.038C109.091 157.517 108.735 157.02 108.132 156.417L107.779 156.771L107.425 157.124C108.012 157.711 108.151 158.007 108.176 158.18L108.671 158.109ZM107.779 156.771L108.132 156.417C108.134 156.419 108.111 156.395 108.068 156.29C108.024 156.182 107.989 156.07 107.925 155.889C107.804 155.553 107.627 155.118 107.264 154.679C106.53 153.79 105.146 153.009 102.33 152.705L102.276 153.202L102.223 153.699C104.909 153.989 105.993 154.71 106.493 155.315C106.747 155.623 106.878 155.933 106.983 156.226C107.031 156.36 107.088 156.534 107.142 156.668C107.199 156.806 107.282 156.981 107.425 157.124L107.779 156.771ZM102.276 153.202L102.304 152.703C101.952 152.683 101.569 152.582 101.045 152.465C100.543 152.352 99.9557 152.237 99.2893 152.236C97.9294 152.234 96.3312 152.706 94.3842 154.394L94.7117 154.772L95.0392 155.149C96.8351 153.592 98.2072 153.234 99.2878 153.236C99.8417 153.237 100.342 153.332 100.826 153.44C101.288 153.544 101.789 153.675 102.249 153.701L102.276 153.202ZM93.1658 157.426L92.681 157.304C92.5344 157.884 92.3775 158.523 92.2558 159.086C92.1377 159.632 92.0414 160.156 92.0358 160.48L92.5357 160.488L93.0357 160.497C93.0393 160.288 93.1117 159.86 93.2332 159.297C93.3511 158.752 93.5046 158.126 93.6505 157.549L93.1658 157.426ZM92.5357 160.488L92.0358 160.48C92.0286 160.899 92.0809 161.278 92.1361 161.592C92.1959 161.933 92.2449 162.138 92.2613 162.318L92.7592 162.273L93.2572 162.228C93.2359 161.994 93.1668 161.681 93.1211 161.42C93.0707 161.132 93.0301 160.825 93.0357 160.497L92.5357 160.488ZM94.0933 160.488L94.2496 160.963C94.8387 160.77 95.3282 160.662 95.7853 160.562C96.2365 160.464 96.6789 160.369 97.1226 160.201C98.0417 159.852 98.9055 159.212 100.13 157.725L99.7442 157.407L99.3582 157.089C98.1906 158.507 97.4603 159.003 96.7677 159.266C96.4055 159.403 96.0377 159.484 95.5723 159.585C95.1127 159.685 94.5793 159.802 93.937 160.013L94.0933 160.488ZM99.7442 157.407L100.13 157.725C100.473 157.309 100.81 157.163 101.113 157.139C101.432 157.113 101.783 157.217 102.142 157.43C102.499 157.641 102.831 157.941 103.094 158.249C103.363 158.564 103.53 158.85 103.589 159.018L104.061 158.853L104.533 158.688C104.418 158.359 104.167 157.965 103.854 157.599C103.536 157.227 103.123 156.848 102.652 156.569C102.183 156.292 101.624 156.094 101.032 156.142C100.424 156.191 99.8484 156.494 99.3582 157.089L99.7442 157.407ZM104.061 158.853L104.285 159.3C104.284 159.3 104.285 159.3 104.287 159.299C104.289 159.298 104.291 159.297 104.294 159.296C104.3 159.293 104.309 159.29 104.32 159.287C104.343 159.28 104.373 159.272 104.41 159.265C104.483 159.251 104.575 159.242 104.676 159.243C104.883 159.244 105.1 159.286 105.279 159.382C105.448 159.472 105.593 159.614 105.68 159.85C105.77 160.097 105.81 160.486 105.681 161.085L106.169 161.191L106.658 161.296C106.813 160.577 106.793 159.984 106.619 159.507C106.441 159.02 106.117 158.695 105.749 158.499C105.392 158.309 105.006 158.245 104.683 158.243C104.371 158.241 104.056 158.296 103.837 158.405L104.061 158.853ZM92.9119 164.362L92.4199 164.451C92.6561 165.753 93.0506 167.569 93.6301 168.994L94.0933 168.806L94.5565 168.617C94.0178 167.293 93.6377 165.562 93.4039 164.273L92.9119 164.362ZM94.0933 160.488L93.937 160.013C93.3254 160.215 92.9132 160.545 92.6504 160.967C92.3977 161.374 92.3102 161.824 92.2629 162.212L92.7592 162.273L93.2555 162.333C93.2978 161.987 93.3642 161.713 93.4996 161.496C93.6249 161.294 93.8349 161.1 94.2496 160.963L94.0933 160.488ZM92.7592 162.273L92.2629 162.212C92.193 162.786 92.2362 163.355 92.2932 163.771C92.3219 163.981 92.3549 164.158 92.381 164.282C92.394 164.345 92.4054 164.395 92.4137 164.43C92.4179 164.447 92.4213 164.461 92.4238 164.471C92.425 164.476 92.426 164.48 92.4268 164.483C92.4272 164.484 92.4275 164.486 92.4277 164.487C92.4279 164.487 92.428 164.488 92.4281 164.488C92.4281 164.488 92.4282 164.488 92.4282 164.488C92.4282 164.488 92.4282 164.489 92.4282 164.489C92.4283 164.489 92.4283 164.489 92.9119 164.362C93.3955 164.235 93.3956 164.235 93.3956 164.235C93.3956 164.235 93.3956 164.235 93.3956 164.235C93.3956 164.235 93.3956 164.235 93.3957 164.235C93.3957 164.235 93.3957 164.236 93.3957 164.235C93.3957 164.235 93.3956 164.235 93.3954 164.235C93.3951 164.233 93.3946 164.231 93.3938 164.228C93.3923 164.222 93.3899 164.212 93.3867 164.199C93.3803 164.172 93.3709 164.131 93.3599 164.078C93.3377 163.972 93.309 163.819 93.2839 163.636C93.2332 163.265 93.2 162.789 93.2555 162.333L92.7592 162.273ZM94.7117 154.772L94.3842 154.394C93.4983 155.162 92.9558 156.216 92.681 157.304L93.1658 157.426L93.6505 157.549C93.8884 156.607 94.3442 155.752 95.0392 155.149L94.7117 154.772ZM99.1532 171.79L98.6611 171.701C98.6521 171.752 98.4453 172.224 98.7046 172.754L99.1536 172.534L99.6026 172.314C99.5666 172.24 99.5699 172.206 99.5735 172.18C99.5766 172.157 99.5829 172.129 99.5968 172.078C99.6081 172.037 99.631 171.958 99.6453 171.879L99.1532 171.79ZM98.6278 162.864L99.0857 162.663C98.8975 162.234 98.4759 161.956 98.0165 161.925L97.9821 162.423L97.9477 162.922C98.0584 162.93 98.1401 162.996 98.17 163.065L98.6278 162.864ZM97.9821 162.423L98.017 161.925C97.4992 161.889 96.9819 162.17 96.7636 162.661L97.2204 162.864L97.6772 163.067C97.7125 162.988 97.8183 162.913 97.9472 162.922L97.9821 162.423ZM104.279 163.161L104.737 162.96C104.548 162.531 104.127 162.254 103.667 162.222L103.633 162.721L103.599 163.22C103.709 163.227 103.791 163.294 103.821 163.362L104.279 163.161ZM103.633 162.721L103.668 162.222C103.15 162.186 102.633 162.467 102.414 162.958L102.871 163.161L103.328 163.364C103.363 163.285 103.469 163.211 103.598 163.22L103.633 162.721ZM98.0174 168.095L97.5254 168.185C97.5389 168.258 97.7336 169.276 98.7309 169.685L98.9206 169.222L99.1103 168.76C98.875 168.663 98.7272 168.492 98.6326 168.322C98.536 168.149 98.5084 168.001 98.5093 168.006L98.0174 168.095ZM98.9206 169.222L98.7315 169.685C99.5871 170.035 100.333 169.644 100.435 169.589L100.198 169.149L99.9613 168.708C99.9098 168.736 99.524 168.929 99.1098 168.76L98.9206 169.222ZM99.1536 172.534L98.8996 172.103C98.3251 172.442 97.741 172.641 97.0941 172.635C96.4455 172.628 95.6852 172.415 94.7616 171.846L94.4992 172.271L94.2368 172.697C95.2749 173.337 96.2114 173.626 97.0844 173.635C97.9591 173.643 98.7213 173.369 99.4076 172.964L99.1536 172.534Z" fill="#03092D"/>
<path d="M94.5 172.354C94.5 172.354 89.0467 173.7 86.0732 175.298C85.581 175.563 85.2594 176.05 85.1989 176.605C84.8237 180.052 85.3237 186.301 85.3237 186.301L89.1901 183.922L90.0823 183.327V180.354L89.659 177.228" stroke="#03092D" stroke-linecap="round" stroke-linejoin="round"/>
<path d="M99.2979 172.353C99.2979 172.353 103.288 173.579 106.937 175.825C107.309 176.054 107.595 176.403 107.72 176.822C108.769 180.348 108.474 186.301 108.474 186.301L104.608 183.922L103.716 183.327V180.354L102.424 176.967" stroke="#03092D" stroke-linecap="round" stroke-linejoin="round"/>
<path d="M93.9587 174.49C94.2936 174.955 94.8533 176.74 95.3008 183.263" stroke="#03092D" stroke-linecap="round" stroke-linejoin="round"/>
<path d="M98.7766 173.839C98.9781 174.098 99.9945 177.224 100.587 183.538" stroke="#03092D" stroke-linecap="round" stroke-linejoin="round"/>
</g>
<path d="M110.835 150.695C112.292 150.739 113.443 151.945 113.42 153.403L113.205 166.855V166.871L113.421 180.754C113.444 182.243 112.243 183.462 110.755 183.462H83.0928C81.673 183.462 80.507 182.352 80.4443 180.938C80.2875 177.399 80.0566 171.458 80.0566 167.125C80.0566 162.753 80.2914 156.743 80.4482 153.216C80.5099 151.835 81.6261 150.74 83.0127 150.696L96.499 150.263L110.835 150.695Z" stroke="#03092D"/>
<path d="M137.011 180.104L137.006 180.724C137.006 180.724 137.015 187.983 137.006 189.616C137.003 190.06 137.001 190.558 137.001 191.066C136.997 193.192 138.669 194.954 140.795 194.992C141.058 194.996 141.311 194.999 141.547 195C143.481 195.005 146.498 194.858 146.498 194.858H147.043H147.225H149.269C149.67 194.856 150.78 194.855 151.986 194.855C154.197 194.856 155.991 193.065 155.991 190.854V186V179.147C155.991 177.416 154.588 176.013 152.857 176.013H152.431H151.838H151.245C150.318 176.013 149.798 175.984 148.871 176.013C147.98 176.041 147.299 175.983 146.407 176.013C144.439 176.08 141.457 176.155 141.457 176.155L141.14 176.145C138.897 176.072 137.033 177.86 137.011 180.104Z" fill="#E9EEF5"/>
<path d="M143.194 185.182C144.212 186.181 145.977 188.162 145.977 188.162C145.977 188.162 149.84 183.969 151.66 182.576" stroke="#3253D1" stroke-linecap="round" stroke-linejoin="round"/>
<path d="M110.26 140.273C110.26 139.312 111.039 138.533 112 138.533C112.961 138.533 113.74 139.312 113.74 140.273C113.74 141.234 112.961 142.013 112 142.013C111.039 142.013 110.26 141.234 110.26 140.273Z" fill="#6483FD" stroke="black" stroke-width="0.923677" stroke-linecap="round" stroke-linejoin="round"/>
<path d="M112 138.533L112 101.5" stroke="black" stroke-linecap="round" stroke-linejoin="round"/>
<path d="M100.688 137.5L100.688 128.831C100.688 126.499 102.576 124.611 104.908 124.611L107.78 124.611C110.112 124.611 112 122.722 112 120.39L112 119.39" stroke="black" stroke-linecap="round" stroke-linejoin="round"/>
<path d="M98.078 140.052C98.078 138.611 99.2467 137.442 100.688 137.442C102.13 137.442 103.299 138.611 103.299 140.052C103.299 141.494 102.13 142.663 100.688 142.663C99.2467 142.663 98.078 141.494 98.078 140.052Z" fill="#6483FD" stroke="black" stroke-width="0.923677" stroke-linecap="round" stroke-linejoin="round"/>
<path d="M112 115.039L112 116.04C112 118.372 113.888 120.26 116.22 120.26L119.091 120.26C121.423 120.26 123.312 122.148 123.312 124.48L123.312 138" stroke="black" stroke-linecap="round" stroke-linejoin="round"/>
<path d="M125.922 140.702C125.922 139.26 124.754 138.091 123.312 138.091C121.87 138.091 120.702 139.26 120.702 140.702C120.702 142.143 121.87 143.312 123.312 143.312C124.754 143.312 125.922 142.143 125.922 140.702Z" fill="#6483FD" stroke="black" stroke-width="0.923677" stroke-linecap="round" stroke-linejoin="round"/>
<path d="M107.649 98.3369C107.649 95.9341 109.597 93.9862 112 93.9862C114.403 93.9862 116.351 95.9341 116.351 98.3369C116.351 100.74 114.403 102.687 112 102.687C109.597 102.687 107.649 100.74 107.649 98.3369Z" fill="#6483FD" stroke="black" stroke-width="0.923677" stroke-linecap="round" stroke-linejoin="round"/>
</g>
<defs>
<linearGradient id="paint0_linear_1006_4087" x1="102.426" y1="152.736" x2="102.426" y2="216.253" gradientUnits="userSpaceOnUse">
<stop stop-color="#AEAEFF"/>
<stop offset="1" stop-color="white" stop-opacity="0.8"/>
</linearGradient>
<clipPath id="clip0_1006_4087">
<rect width="217" height="210" fill="white"/>
</clipPath>
<clipPath id="clip1_1006_4087">
<rect width="26.7661" height="33.5638" fill="white" transform="translate(84.23 149.763)"/>
</clipPath>
</defs>
</svg>
