<svg width="193" height="50" viewBox="0 0 193 50" fill="none" xmlns="http://www.w3.org/2000/svg">
<g clip-path="url(#clip0_1005_2698)">
<path d="M43.728 17.7076L43.0767 18.0795L43.0769 18.0799L43.728 17.7076ZM45.7963 21.2988L46.4458 20.9238L46.4449 20.9223L45.7963 21.2988ZM47.8595 24.8861L47.205 25.2524L47.2053 25.253L47.8595 24.8861ZM47.8168 25.3672L47.1636 24.9985L47.1631 24.9995L47.8168 25.3672ZM44.9326 30.4298L44.2818 30.0571L44.2817 30.0572L44.9326 30.4298ZM41.3251 36.7209L41.9749 37.0953L41.9754 37.0945L41.3251 36.7209ZM39.3193 40.1581L38.6698 39.783L38.6697 39.7832L39.3193 40.1581ZM37.9311 42.6115L38.5824 42.9833L38.5831 42.982L37.9311 42.6115ZM37.2937 42.8951L37.2929 43.6451H37.2937V42.8951ZM24.636 42.8958L24.6364 43.6458H24.6368L24.636 42.8958ZM17.6638 42.9073L17.6582 42.1573L17.6578 42.1573L17.6638 42.9073ZM16.8364 42.4172L17.4974 42.0627L17.4973 42.0626L16.8364 42.4172ZM15.1499 39.5729L15.7992 39.1975L15.7992 39.1974L15.1499 39.5729ZM13.3321 36.3401L13.981 35.9639L13.9809 35.9638L13.3321 36.3401ZM11.1596 31.1749C10.949 30.8182 10.4892 30.6997 10.1325 30.9102C9.77575 31.1208 9.65724 31.5806 9.86777 31.9373L10.5137 31.5561L11.1596 31.1749ZM41.8363 14.3477L41.1779 14.7069C41.7978 15.8429 42.4403 16.9651 43.0767 18.0795L43.728 17.7076L44.3793 17.3357C43.7409 16.2177 43.1061 15.109 42.4946 13.9884L41.8363 14.3477ZM43.728 17.7076L43.0769 18.0799C43.7634 19.2803 44.4532 20.4789 45.1476 21.6753L45.7963 21.2988L46.4449 20.9223C45.7524 19.7291 45.0642 18.5333 44.379 17.3352L43.728 17.7076ZM45.7963 21.2988L45.1467 21.6737C45.8406 22.8758 46.5345 24.0545 47.205 25.2524L47.8595 24.8861L48.5139 24.5198C47.837 23.3104 47.1312 22.1111 46.4458 20.9238L45.7963 21.2988ZM47.8595 24.8861L47.2053 25.253C47.1597 25.1717 47.1494 25.1058 47.1466 25.0827C47.1433 25.0556 47.145 25.0412 47.1451 25.0406C47.1453 25.0388 47.1454 25.0386 47.1458 25.0372C47.1458 25.0371 47.1497 25.0231 47.1636 24.9985L47.8168 25.3672L48.4699 25.7359C48.5658 25.5659 48.6177 25.3734 48.6363 25.2032C48.6525 25.054 48.6595 24.7794 48.5136 24.5193L47.8595 24.8861ZM47.8168 25.3672L47.1631 24.9995C46.2126 26.6895 45.2475 28.3705 44.2818 30.0571L44.9326 30.4298L45.5835 30.8024C46.5478 29.1183 47.5165 27.4311 48.4705 25.7349L47.8168 25.3672ZM44.9326 30.4298L44.2817 30.0572C43.0811 32.1549 41.8786 34.2514 40.6747 36.3474L41.3251 36.7209L41.9754 37.0945C43.1796 34.998 44.3825 32.9008 45.5836 30.8023L44.9326 30.4298ZM41.3251 36.7209L40.6752 36.3465C39.9908 37.5343 39.363 38.5829 38.6698 39.783L39.3193 40.1581L39.9687 40.5333C40.6025 39.436 41.3349 38.2062 41.9749 37.0953L41.3251 36.7209ZM39.3193 40.1581L38.6697 39.7832C38.1997 40.5975 37.7355 41.4376 37.279 42.2409L37.9311 42.6115L38.5831 42.982C39.0546 42.1523 39.4993 41.3467 39.9688 40.533L39.3193 40.1581ZM37.9311 42.6115L37.2797 42.2397C37.2845 42.2313 37.299 42.2096 37.3269 42.1862C37.3548 42.1628 37.3821 42.1493 37.4 42.1427C37.4155 42.137 37.4181 42.1385 37.3984 42.1408C37.378 42.1432 37.346 42.1451 37.2937 42.1451V42.8951V43.6451C37.4459 43.6451 37.6809 43.6379 37.9194 43.5499C38.1891 43.4503 38.4221 43.2641 38.5824 42.9833L37.9311 42.6115ZM37.2937 42.8951L37.2945 42.1451C33.0751 42.1407 28.8551 42.1413 24.6352 42.1458L24.636 42.8958L24.6368 43.6458C28.8558 43.6413 33.0747 43.6407 37.2929 43.6451L37.2937 42.8951ZM24.636 42.8958L24.6356 42.1458C22.3153 42.1471 19.9855 42.14 17.6582 42.1573L17.6638 42.9073L17.6693 43.6573C19.9898 43.64 22.309 43.6471 24.6364 43.6458L24.636 42.8958ZM17.6638 42.9073L17.6578 42.1573C17.5177 42.1584 17.5153 42.1371 17.5492 42.1566C17.5857 42.1776 17.5641 42.1871 17.4974 42.0627L16.8364 42.4172L16.1755 42.7718C16.3134 43.0288 16.5028 43.2849 16.8004 43.4564C17.0955 43.6264 17.4044 43.6593 17.6697 43.6573L17.6638 42.9073ZM16.8364 42.4172L17.4973 42.0626C16.9778 41.0945 16.3096 40.08 15.7992 39.1975L15.1499 39.5729L14.5007 39.9484C15.0942 40.9748 15.6536 41.799 16.1756 42.7719L16.8364 42.4172ZM15.1499 39.5729L15.7992 39.1974C15.4938 38.6694 15.1978 38.1348 14.8976 37.5928C14.5985 37.053 14.2953 36.506 13.981 35.9639L13.3321 36.3401L12.6833 36.7164C12.9892 37.2438 13.2854 37.7781 13.5855 38.3197C13.8844 38.8593 14.1872 39.4063 14.5007 39.9484L15.1499 39.5729ZM13.3321 36.3401L13.9809 35.9638C13.0504 34.3596 12.0976 32.7644 11.1596 31.1749L10.5137 31.5561L9.86777 31.9373C10.8112 33.536 11.7566 35.1186 12.6834 36.7164L13.3321 36.3401Z" fill="#374ACD"/>
<path d="M12.9815 47.7977C13.1928 48.154 13.6529 48.2714 14.0092 48.06C14.3654 47.8487 14.4828 47.3885 14.2715 47.0323L13.6265 47.415L12.9815 47.7977ZM10.6913 42.4426L11.3406 42.067L11.3405 42.0669L10.6913 42.4426ZM7.45156 36.7571L8.10145 36.3827L8.10134 36.3825L7.45156 36.7571ZM3.3749 29.7376L2.72572 30.1132L2.72572 30.1132L3.3749 29.7376ZM0.958608 25.5331L0.313353 25.9154L0.313449 25.9155L0.958608 25.5331ZM0.966894 24.6412L0.325375 24.2527L0.325054 24.2532L0.966894 24.6412ZM2.74645 21.572L3.39619 21.9466L3.39638 21.9462L2.74645 21.572ZM4.67005 18.2357L4.02087 17.8601L4.02054 17.8607L4.67005 18.2357ZM7.88689 12.685L8.53558 13.0615L8.53612 13.0605L7.88689 12.685ZM10.5626 8.04285L9.91322 7.66759L9.91229 7.66922L10.5626 8.04285ZM12.5321 4.64843L11.8816 4.27513L11.8815 4.2753L12.5321 4.64843ZM13.9235 2.19701L13.2805 1.81089L13.2795 1.81264L13.9235 2.19701ZM14.3856 1.94848L14.3429 1.1997L14.3413 1.19979L14.3856 1.94848ZM16.0039 1.93698L16.0041 1.18698H16.0039V1.93698ZM13.6265 47.415L14.2715 47.0323C13.2871 45.3732 12.3015 43.7285 11.3406 42.067L10.6913 42.4426L10.0421 42.8181C11.0086 44.4891 12.0015 46.1461 12.9815 47.7977L13.6265 47.415ZM10.6913 42.4426L11.3405 42.0669C10.2341 40.1549 9.21244 38.3113 8.10145 36.3827L7.45156 36.7571L6.80168 37.1314C7.86796 38.9825 8.96366 40.9543 10.0422 42.8182L10.6913 42.4426ZM7.45156 36.7571L8.10134 36.3825C6.75233 34.0423 5.37323 31.694 4.02408 29.362L3.3749 29.7376L2.72572 30.1132C4.08669 32.4656 5.44832 34.7837 6.80179 37.1316L7.45156 36.7571ZM3.3749 29.7376L4.02409 29.362C3.22658 27.9835 2.42826 26.5415 1.60377 25.1506L0.958608 25.5331L0.313449 25.9155C1.13721 27.3051 1.90429 28.6933 2.72572 30.1132L3.3749 29.7376ZM0.958608 25.5331L1.60386 25.1508C1.57499 25.102 1.56563 25.0767 1.56336 25.0696C1.56199 25.0653 1.56574 25.0761 1.56541 25.0958C1.56468 25.1386 1.54708 25.1312 1.60873 25.0292L0.966894 24.6412L0.325054 24.2532C0.191669 24.4738 0.0711321 24.7456 0.0656248 25.0703C0.0600616 25.3984 0.173298 25.679 0.313353 25.9154L0.958608 25.5331ZM0.966894 24.6412L1.60841 25.0297C2.22644 24.0093 2.81253 22.9589 3.39619 21.9466L2.74645 21.572L2.09671 21.1973C1.49867 22.2346 0.932385 23.2504 0.325375 24.2527L0.966894 24.6412ZM2.74645 21.572L3.39638 21.9462C4.03684 20.8341 4.6779 19.7221 5.31957 18.6107L4.67005 18.2357L4.02054 17.8607C3.37853 18.9726 2.73719 20.0852 2.09652 21.1977L2.74645 21.572ZM4.67005 18.2357L5.31924 18.6113C6.3898 16.7608 7.46233 14.9109 8.53557 13.0615L7.88689 12.685L7.23821 12.3086C6.16477 14.1583 5.09188 16.0089 4.02087 17.8601L4.67005 18.2357ZM7.88689 12.685L8.53612 13.0605C9.43076 11.5137 10.3228 9.9657 11.2129 8.41648L10.5626 8.04285L9.91229 7.66922C9.02283 9.21733 8.1315 10.7641 7.23766 12.3095L7.88689 12.685ZM10.5626 8.04285L11.212 8.4181C11.8605 7.29588 12.5329 6.15449 13.1827 5.02156L12.5321 4.64843L11.8815 4.2753C11.2297 5.4117 10.5739 6.52431 9.91323 7.66759L10.5626 8.04285ZM12.5321 4.64843L13.1826 5.02173C13.6698 4.17277 14.0868 3.38682 14.5675 2.58139L13.9235 2.19701L13.2795 1.81264C12.7977 2.61975 12.3301 3.49364 11.8816 4.27513L12.5321 4.64843ZM13.9235 2.19701L14.5665 2.58313C14.5321 2.64033 14.4982 2.67033 14.4871 2.67958C14.4741 2.69048 14.4677 2.69335 14.4699 2.69217C14.4716 2.69128 14.4734 2.69072 14.4724 2.69102C14.4715 2.69129 14.4681 2.69227 14.4621 2.69341C14.4562 2.69453 14.4454 2.69626 14.4299 2.69717L14.3856 1.94848L14.3413 1.19979C14.1329 1.21213 13.9344 1.27983 13.777 1.3618C13.6291 1.43885 13.4195 1.57939 13.2805 1.81089L13.9235 2.19701ZM14.3856 1.94848L14.4283 2.69727C14.938 2.66821 15.4282 2.68698 16.0039 2.68698L16.0039 1.93698V1.18698C15.4998 1.18698 14.9091 1.16742 14.3429 1.1997L14.3856 1.94848ZM16.0039 1.93698L16.0037 2.68698C18.7808 2.68762 21.5574 2.66776 24.3307 2.64824C27.105 2.62872 29.876 2.60955 32.6465 2.61146L32.6471 1.86146L32.6476 1.11146C29.8704 1.10954 27.0937 1.12877 24.3202 1.14828C21.5458 1.16781 18.7747 1.18762 16.0041 1.18698L16.0039 1.93698Z" fill="#374ACD"/>
<path d="M17.6068 15.7098L16.9572 15.3348L16.957 15.3352L17.6068 15.7098ZM15.0292 20.1941L14.3801 19.8184L14.3801 19.8184L15.0292 20.1941ZM12.4574 24.5916L11.813 24.2078L11.813 24.2079L12.4574 24.5916ZM12.5231 25.7205L11.8795 26.1057L11.8798 26.1061L12.5231 25.7205ZM14.9336 29.8561L15.5839 29.4824L15.5838 29.4822L14.9336 29.8561ZM16.4136 32.4793L17.061 32.1007L17.061 32.1007L16.4136 32.4793ZM18.1205 35.3166L17.4728 35.6947L17.4731 35.6953L18.1205 35.3166ZM19.6343 37.9814L18.9894 38.3644C19.0041 38.3891 19.0201 38.4129 19.0375 38.4358L19.6343 37.9814ZM20.1027 38.23L20.0607 38.9788C20.0709 38.9794 20.081 38.9797 20.0912 38.9799L20.1027 38.23ZM27.9042 38.9908C28.3184 38.9908 28.6542 38.655 28.6542 38.2408C28.6542 37.8266 28.3184 37.4908 27.9042 37.4908V38.2408L27.9042 38.9908ZM18.9121 13.4922L18.2772 13.093C17.8109 13.8345 17.3799 14.6027 16.9572 15.3348L17.6068 15.7098L18.2563 16.0847C18.6916 15.3308 19.1006 14.6014 19.547 13.8914L18.9121 13.4922ZM17.6068 15.7098L16.957 15.3352C16.0916 16.8364 15.2449 18.3247 14.3801 19.8184L15.0292 20.1941L15.6783 20.5699C16.5409 19.0799 17.3998 17.5705 18.2565 16.0843L17.6068 15.7098ZM15.0292 20.1941L14.3801 19.8184C13.5292 21.2885 12.6791 22.7537 11.813 24.2078L12.4574 24.5916L13.1018 24.9754C13.9732 23.5124 14.8275 22.0399 15.6783 20.5698L15.0292 20.1941ZM12.4574 24.5916L11.813 24.2079C11.621 24.5303 11.5288 24.8747 11.5651 25.24C11.5992 25.5824 11.7404 25.8732 11.8795 26.1057L12.5231 25.7205L13.1666 25.3353C13.0744 25.1813 13.06 25.1137 13.0578 25.0913C13.057 25.0839 13.0571 25.0779 13.0598 25.0671C13.0629 25.0546 13.0723 25.025 13.1018 24.9753L12.4574 24.5916ZM12.5231 25.7205L11.8798 26.1061C12.6959 27.4677 13.4872 28.8454 14.2835 30.2299L14.9336 29.8561L15.5838 29.4822C14.7891 28.1003 13.9908 26.7103 13.1663 25.3349L12.5231 25.7205ZM14.9336 29.8561L14.2833 30.2297C14.756 31.0523 15.2698 32.0093 15.7662 32.858L16.4136 32.4793L17.061 32.1007C16.544 31.2167 16.112 30.4014 15.5839 29.4824L14.9336 29.8561ZM16.4136 32.4793L15.7662 32.8579C16.0489 33.3414 16.3403 33.8185 16.6271 34.2885C16.9152 34.7605 17.1989 35.2255 17.4728 35.6947L18.1205 35.3166L18.7682 34.9385C18.4857 34.4546 18.1944 33.9772 17.9075 33.507C17.6192 33.0348 17.3354 32.5699 17.061 32.1007L16.4136 32.4793ZM18.1205 35.3166L17.4731 35.6953C17.7262 36.128 17.9701 36.5672 18.2202 37.0157C18.4688 37.4616 18.7229 37.9156 18.9894 38.3644L19.6343 37.9814L20.2791 37.5985C20.0243 37.1694 19.7793 36.7319 19.5303 36.2852C19.2827 35.8412 19.0305 35.3869 18.7679 34.938L18.1205 35.3166ZM19.6343 37.9814L19.0375 38.4358C19.1604 38.5971 19.3158 38.727 19.4908 38.8195L19.8414 38.1565L20.192 37.4935C20.2051 37.5004 20.219 37.5114 20.231 37.5271L19.6343 37.9814ZM19.8414 38.1565L19.4908 38.8195C19.6635 38.9108 19.8576 38.9674 20.0607 38.9788L20.1027 38.23L20.1447 37.4811C20.1656 37.4823 20.1812 37.4878 20.192 37.4935L19.8414 38.1565ZM20.1027 38.23L20.0912 38.9799C21.3851 38.9998 22.6822 38.9908 23.9621 38.9908L23.9621 38.2408V37.4908C22.6682 37.4908 21.3928 37.4998 20.1143 37.4801L20.1027 38.23ZM23.9621 38.2408L23.9621 38.9908L27.9042 38.9908L27.9042 38.2408V37.4908L23.9621 37.4908V38.2408Z" fill="#374ACD"/>
<path d="M26.3056 11.2061C25.8914 11.2023 25.5526 11.5351 25.5489 11.9493C25.5451 12.3635 25.8778 12.7023 26.292 12.706L26.2988 11.9561L26.3056 11.2061ZM30.5329 11.9618L31.2829 11.9618C31.2829 11.5476 30.9471 11.2118 30.5329 11.2118L30.5329 11.9618ZM30.5329 11.9688L29.7829 11.9688C29.7829 12.383 30.1187 12.7188 30.5329 12.7188L30.5329 11.9688ZM34.6421 11.965L34.6463 12.715L34.648 12.715L34.6421 11.965ZM35.1552 12.2589L34.5032 12.6296L34.5036 12.6303L35.1552 12.2589ZM38.4179 17.883L37.7682 18.2577L37.7683 18.2578L38.4179 17.883ZM41.4448 23.1833L40.7949 23.5575L40.795 23.5577L41.4448 23.1833ZM42.4041 24.7517L43.0859 24.4394C43.0798 24.426 43.0733 24.4128 43.0664 24.3998L42.4041 24.7517ZM42.4754 25.0744L43.2254 25.0701V25.0701L42.4754 25.0744ZM42.4079 25.3983L43.0613 25.7665C43.0731 25.7455 43.0839 25.7239 43.0937 25.7019L42.4079 25.3983ZM40.3179 28.9729L40.9674 29.348L40.9674 29.3479L40.3179 28.9729ZM39.0081 31.3412L38.3588 30.9659L38.3587 30.966L39.0081 31.3412ZM37.191 34.4047L36.5435 34.0262L36.5434 34.0263L37.191 34.4047ZM26.2988 11.9561L26.292 12.706C27.7077 12.7188 29.1268 12.7118 30.5329 12.7118L30.5329 11.9618L30.5329 11.2118C29.1168 11.2118 27.7122 11.2188 26.3056 11.2061L26.2988 11.9561ZM30.5329 11.9618L29.7829 11.9618V11.9688L30.5329 11.9688L31.2829 11.9688V11.9618L30.5329 11.9618ZM30.5329 11.9688L30.5329 12.7188C31.8998 12.7188 33.2738 12.7227 34.6463 12.715L34.6421 11.965L34.6379 11.215C33.271 11.2227 31.9054 11.2188 30.5329 11.2188L30.5329 11.9688ZM34.6421 11.965L34.648 12.715C34.7179 12.7144 34.6632 12.7258 34.5811 12.6812C34.4936 12.6337 34.4737 12.5778 34.5032 12.6296L35.1552 12.2589L35.8072 11.8882C35.7015 11.7023 35.5465 11.4985 35.297 11.363C35.0528 11.2304 34.8091 11.2137 34.6362 11.215L34.6421 11.965ZM35.1552 12.2589L34.5036 12.6303C35.5756 14.5108 36.6942 16.3955 37.7682 18.2577L38.4179 17.883L39.0676 17.5083C37.9758 15.6152 36.8814 13.7726 35.8067 11.8874L35.1552 12.2589ZM38.4179 17.883L37.7683 18.2578C38.8026 20.0506 39.7559 21.7531 40.7949 23.5575L41.4448 23.1833L42.0948 22.809C41.103 21.0867 40.0665 19.2396 39.0675 17.5082L38.4179 17.883ZM41.4448 23.1833L40.795 23.5577C40.9592 23.8428 41.1399 24.1191 41.3004 24.3692C41.4656 24.6266 41.6141 24.8634 41.7417 25.1036L42.4041 24.7517L43.0664 24.3998C42.9072 24.1002 42.7291 23.8182 42.5628 23.5591C42.3918 23.2926 42.2363 23.0546 42.0946 22.8088L41.4448 23.1833ZM42.4041 24.7517L41.7222 25.064C41.7244 25.0689 41.7254 25.0738 41.7255 25.0787L42.4754 25.0744L43.2254 25.0701C43.2242 24.8526 43.1768 24.6377 43.0859 24.4394L42.4041 24.7517ZM42.4754 25.0744L41.7255 25.0786C41.7255 25.0843 41.7245 25.0892 41.7221 25.0947L42.4079 25.3983L43.0937 25.7019C43.1818 25.5029 43.2267 25.2881 43.2254 25.0701L42.4754 25.0744ZM42.4079 25.3983L41.7545 25.0301C41.0742 26.2374 40.3775 27.3699 39.6684 28.5978L40.3179 28.9729L40.9674 29.3479C41.6389 28.1851 42.3865 26.964 43.0613 25.7665L42.4079 25.3983ZM40.3179 28.9729L39.6685 28.5978C39.4367 28.9991 39.2171 29.4052 39.0033 29.8005C38.7879 30.1988 38.5782 30.5862 38.3588 30.9659L39.0081 31.3412L39.6574 31.7165C39.8893 31.3155 40.1089 30.9094 40.3227 30.5141C40.5382 30.1157 40.7479 29.728 40.9674 29.348L40.3179 28.9729ZM39.0081 31.3412L38.3587 30.966C37.7545 32.0115 37.1663 32.9609 36.5435 34.0262L37.191 34.4047L37.8384 34.7832C38.4139 33.7989 39.0736 32.7269 39.6575 31.7165L39.0081 31.3412ZM37.191 34.4047L36.5434 34.0263C36.0716 34.8338 35.0595 36.4686 34.5836 37.3325L35.2406 37.6943L35.8975 38.0562C36.3676 37.2028 37.3211 35.6686 37.8385 34.7831L37.191 34.4047Z" fill="#374ACD"/>
<path d="M41.6545 2.15099C41.4502 1.79069 40.9925 1.66427 40.6322 1.86862C40.2719 2.07297 40.1454 2.53071 40.3498 2.89101L41.0022 2.521L41.6545 2.15099ZM42.8563 5.70202L42.2084 6.07974L42.2085 6.08001L42.8563 5.70202ZM44.8322 9.10539L45.4828 8.73238L45.4827 8.73222L44.8322 9.10539ZM47.8189 14.3379L48.4685 13.9629L48.4684 13.9628L47.8189 14.3379ZM50.6329 19.1494L49.9848 19.5268L49.985 19.527L50.6329 19.1494ZM53.888 24.7499L54.5362 24.3725L54.5359 24.372L53.888 24.7499ZM53.8364 25.5044L54.4818 25.8865L54.482 25.886L53.8364 25.5044ZM51.8765 28.872L51.2265 28.4977L51.2265 28.4978L51.8765 28.872ZM48.4518 34.8347L49.1019 35.2087L49.1026 35.2076L48.4518 34.8347ZM45.0603 40.7183L44.4109 40.3432L44.41 40.3447L45.0603 40.7183ZM42.4414 45.2921L41.7919 44.917L41.7918 44.9171L42.4414 45.2921ZM40.9104 47.9006L40.2545 47.5369L40.2544 47.5371L40.9104 47.9006ZM40.2819 48.2335L40.2836 47.4835L40.2832 47.4835L40.2819 48.2335ZM31.3587 48.2361L31.3593 48.9861H31.3603L31.3587 48.2361ZM41.0022 2.521L40.3498 2.89101C40.9579 3.96314 41.5963 5.02987 42.2084 6.07974L42.8563 5.70202L43.5042 5.32431C42.8798 4.25307 42.2575 3.21402 41.6545 2.15099L41.0022 2.521ZM42.8563 5.70202L42.2085 6.08001C42.87 7.21372 43.5306 8.34367 44.1816 9.47855L44.8322 9.10539L45.4827 8.73222C44.8284 7.59138 44.1645 6.45583 43.5041 5.32404L42.8563 5.70202ZM44.8322 9.10539L44.1815 9.47839C45.1739 11.2096 46.1661 12.976 47.1695 14.713L47.8189 14.3379L48.4684 13.9628C47.4627 12.2217 46.488 10.4857 45.4828 8.73238L44.8322 9.10539ZM47.8189 14.3379L47.1694 14.7128C48.0972 16.3201 49.0563 17.9325 49.9848 19.5268L50.6329 19.1494L51.281 18.7719C50.3395 17.1552 49.398 15.5731 48.4685 13.9629L47.8189 14.3379ZM50.6329 19.1494L49.985 19.527C51.0631 21.3768 52.1593 23.2744 53.2401 25.1277L53.888 24.7499L54.5359 24.372C53.4407 22.4942 52.3775 20.6531 51.2809 18.7717L50.6329 19.1494ZM53.888 24.7499L53.2398 25.1272C53.246 25.1377 53.2409 25.1319 53.2364 25.1119C53.2342 25.1023 53.2326 25.0914 53.232 25.0798C53.2314 25.0682 53.2319 25.0578 53.2328 25.0494C53.2347 25.0327 53.2378 25.0287 53.2328 25.0416C53.2273 25.0555 53.2153 25.0812 53.1907 25.1228L53.8364 25.5044L54.482 25.886C54.5804 25.7195 54.6925 25.492 54.7234 25.2168C54.7569 24.9187 54.6882 24.6337 54.5362 24.3725L53.888 24.7499ZM53.8364 25.5044L53.191 25.1223C52.527 26.2438 51.875 27.3716 51.2265 28.4977L51.8765 28.872L52.5264 29.2462C53.1744 28.1209 53.8226 26.9998 54.4818 25.8865L53.8364 25.5044ZM51.8765 28.872L51.2265 28.4978C50.0828 30.4845 48.941 32.4726 47.8011 34.4618L48.4518 34.8347L49.1026 35.2076C50.2419 33.2192 51.3832 31.232 52.5264 29.2462L51.8765 28.872ZM48.4518 34.8347L47.8017 34.4607C46.6732 36.4224 45.5427 38.3834 44.4109 40.3432L45.0603 40.7183L45.7098 41.0933C46.842 39.1329 47.9729 37.1711 49.1019 35.2087L48.4518 34.8347ZM45.0603 40.7183L44.41 40.3447C43.5304 41.8762 42.671 43.3945 41.7919 44.917L42.4414 45.2921L43.0909 45.6671C43.9684 44.1473 44.84 42.6078 45.7107 41.0918L45.0603 40.7183ZM42.4414 45.2921L41.7918 44.9171C41.3137 45.7454 40.7411 46.6593 40.2545 47.5369L40.9104 47.9006L41.5663 48.2643C42.0574 47.3787 42.5607 46.5855 43.0909 45.667L42.4414 45.2921ZM40.9104 47.9006L40.2544 47.5371C40.2412 47.5608 40.2393 47.5581 40.2534 47.5439C40.2605 47.5366 40.2707 47.5276 40.2838 47.5183C40.297 47.509 40.3108 47.501 40.3246 47.4945C40.3526 47.4813 40.37 47.4792 40.3649 47.48C40.3621 47.4804 40.3544 47.4814 40.3405 47.4822C40.3265 47.483 40.308 47.4836 40.2836 47.4835L40.2819 48.2335L40.2803 48.9835C40.4539 48.9839 40.7081 48.9719 40.9638 48.8515C41.2421 48.7204 41.4324 48.506 41.5664 48.2642L40.9104 47.9006ZM40.2819 48.2335L40.2832 47.4835C37.3075 47.4784 34.3325 47.4797 31.3571 47.4861L31.3587 48.2361L31.3603 48.9861C34.3341 48.9797 37.3071 48.9784 40.2806 48.9835L40.2819 48.2335ZM31.3587 48.2361L31.358 47.4861C28.3547 47.4886 25.3547 47.495 22.3543 47.488L22.3525 48.238L22.3508 48.988C25.3544 48.995 28.3585 48.9886 31.3593 48.9861L31.3587 48.2361Z" fill="#374ACD"/>
<path d="M36.9348 8.06102C37.349 8.06143 37.6851 7.72598 37.6856 7.31177C37.686 6.89755 37.3505 6.56144 36.9363 6.56102L36.9356 7.31102L36.9348 8.06102ZM27.2487 7.32189L26.4987 7.32189C26.4987 7.7361 26.8345 8.07189 27.2487 8.07189L27.2487 7.32189ZM27.2487 7.31102L27.9987 7.31102C27.9987 6.89681 27.6629 6.56102 27.2487 6.56102L27.2487 7.31102ZM17.5765 7.32125L17.5788 8.07124L17.5798 8.07124L17.5765 7.32125ZM16.9697 7.55061L16.4004 7.06236L16.3997 7.06318L16.9697 7.55061ZM16.3674 8.52236L15.7188 8.14567L15.7183 8.14659L16.3674 8.52236ZM14.2296 12.2228L14.8788 12.5984L14.8794 12.5974L14.2296 12.2228ZM10.8107 18.1574L11.4613 18.5307L11.4613 18.5306L10.8107 18.1574ZM36.9356 7.31102L36.9363 6.56102C33.7157 6.55783 30.4644 6.57189 27.2487 6.57189L27.2487 7.32189L27.2487 8.07189C30.4806 8.07189 33.7077 8.05783 36.9348 8.06102L36.9356 7.31102ZM27.2487 7.32189L27.9987 7.32189V7.31102L27.2487 7.31102L26.4987 7.31102V7.32189L27.2487 7.32189ZM27.2487 7.31102L27.2487 6.56102C24.0254 6.56102 20.7992 6.55719 17.5732 6.57125L17.5765 7.32125L17.5798 8.07124C20.8015 8.05719 24.0229 8.06102 27.2487 8.06102L27.2487 7.31102ZM17.5765 7.32125L17.5742 6.57125C17.3811 6.57185 17.1769 6.60901 16.9917 6.67463C16.8176 6.73633 16.5816 6.85106 16.4004 7.06236L16.9697 7.55061L17.539 8.03886C17.5221 8.05855 17.5073 8.07193 17.4973 8.08008C17.4872 8.08828 17.4802 8.09277 17.4775 8.09442C17.4729 8.09717 17.4775 8.09389 17.4928 8.08846C17.5075 8.08326 17.5253 8.07847 17.5437 8.07518C17.5625 8.07182 17.575 8.07125 17.5788 8.07124L17.5765 7.32125ZM16.9697 7.55061L16.3997 7.06318C16.0959 7.41846 15.8635 7.89659 15.7188 8.14567L16.3674 8.52236L17.0159 8.89905C17.255 8.48751 17.354 8.2552 17.5397 8.03803L16.9697 7.55061ZM16.3674 8.52236L15.7183 8.14659C15.0042 9.38007 14.2914 10.6142 13.5799 11.8482L14.2296 12.2228L14.8794 12.5974C15.5905 11.3641 16.3028 10.1308 17.0165 8.89813L16.3674 8.52236ZM14.2296 12.2228L13.5805 11.8472C12.4365 13.8241 11.2964 15.8036 10.1602 17.7842L10.8107 18.1574L11.4613 18.5306C12.5967 16.5515 13.7358 14.5736 14.8788 12.5984L14.2296 12.2228ZM10.8107 18.1574L10.1602 17.7842C9.1335 19.5737 8.10155 21.3684 7.09365 23.1769L7.74878 23.542L8.40391 23.9071C9.40629 22.1085 10.4331 20.3228 11.4613 18.5307L10.8107 18.1574Z" fill="#374ACD"/>
<path d="M28.9091 20.7432L30.1775 23.0323L28.9091 25.7457L29.586 30.5782L25.6107 30.5782L26.2869 25.7457L25.0186 23.0323L26.2869 20.7432L28.9091 20.7432Z" fill="#374ACD"/>
<path d="M34.127 1.76335C34.127 2.68382 33.3808 3.43001 32.4604 3.43001C31.5399 3.43001 30.7937 2.68382 30.7937 1.76335C30.7937 0.842872 31.5399 0.0966797 32.4604 0.0966797C33.3808 0.0966797 34.127 0.842872 34.127 1.76335Z" fill="#374ACD"/>
<path d="M20.5211 13.7863C20.5211 14.7067 19.7749 15.4529 18.8544 15.4529C17.9339 15.4529 17.1877 14.7067 17.1877 13.7863C17.1877 12.8658 17.9339 12.1196 18.8544 12.1196C19.7749 12.1196 20.5211 12.8658 20.5211 13.7863Z" fill="#374ACD"/>
<path d="M9.39754 23.5465C9.39754 24.467 8.65135 25.2132 7.73088 25.2132C6.8104 25.2132 6.06421 24.467 6.06421 23.5465C6.06421 22.6261 6.8104 21.8799 7.73088 21.8799C8.65135 21.8799 9.39754 22.6261 9.39754 23.5465Z" fill="#374ACD"/>
<path d="M23.8546 48.3332C23.8546 49.2536 23.1084 49.9998 22.1879 49.9998C21.2674 49.9998 20.5212 49.2536 20.5212 48.3332C20.5212 47.4127 21.2674 46.6665 22.1879 46.6665C23.1084 46.6665 23.8546 47.4127 23.8546 48.3332Z" fill="#374ACD"/>
<path d="M37.1877 37.5002C37.1877 38.4206 36.4415 39.1668 35.521 39.1668C34.6006 39.1668 33.8544 38.4206 33.8544 37.5002C33.8544 36.5797 34.6006 35.8335 35.521 35.8335C36.4415 35.8335 37.1877 36.5797 37.1877 37.5002Z" fill="#374ACD"/>
<path d="M43.4377 14.1667C43.4377 15.0871 42.6915 15.8333 41.771 15.8333C40.8506 15.8333 40.1044 15.0871 40.1044 14.1667C40.1044 13.2462 40.8506 12.5 41.771 12.5C42.6915 12.5 43.4377 13.2462 43.4377 14.1667Z" fill="#374ACD"/>
</g>
<path d="M73.5811 39.1383C71.6024 39.1383 69.6556 38.5745 67.7407 37.4468L65.0279 38.8191L64.3258 38.8191L64.3258 30.617L65.0279 30.617L67.7726 36.5532C69.5386 37.8085 71.5598 38.4362 73.8364 38.4362C75.7088 38.4362 77.2513 37.9468 78.4641 36.9681C79.6981 35.9681 80.3152 34.5745 80.3152 32.7872C80.3152 31.4894 79.9215 30.4681 79.1343 29.7234C78.3471 28.9574 77.0705 28.3511 75.3045 27.9043L70.0067 26.5319C68.1556 26.0425 66.762 25.2128 65.8258 24.0425C64.8896 22.8511 64.4215 21.4468 64.4215 19.8298C64.4215 18.3617 64.7088 17.0638 65.2832 15.9362C65.879 14.7872 66.7407 13.9042 67.8684 13.2872C68.996 12.6489 70.3364 12.3298 71.8896 12.3298C73.8258 12.3298 75.5598 12.6596 77.0918 13.3191L79.4215 12.3298L80.1237 12.3298L80.1237 18.8404L79.4215 18.8404L77.1237 14.1808C75.5279 13.4149 73.7939 13.0319 71.9215 13.0319C70.0705 13.0319 68.613 13.5106 67.5492 14.4681C66.4854 15.4042 65.9535 16.6489 65.9535 18.2021C65.9535 19.3511 66.3258 20.2553 67.0705 20.9149C67.8364 21.5745 68.9535 22.0957 70.4215 22.4787L76.1343 23.9787C77.9854 24.4468 79.3577 25.2553 80.2513 26.4043C81.1662 27.5319 81.6237 29.2553 81.6237 31.5745C81.6237 33.9362 80.8896 35.7872 79.4215 37.1277C77.9747 38.4681 76.0279 39.1383 73.5811 39.1383ZM84.1135 37.8617L86.3476 37.5426L86.3476 13.9255L84.1135 13.6064V12.9681L89.5391 12.9681L89.5391 25.4149C90.3263 24.266 91.2518 23.3617 92.3157 22.7021C93.3795 22.0213 94.5284 21.6808 95.7625 21.6808C97.2944 21.6808 98.4965 22.0638 99.3689 22.8298C100.262 23.5957 100.709 24.734 100.709 26.2447L100.709 37.5426L102.943 37.8617V38.5L95.6029 38.5V37.8617L97.5178 37.5426L97.5178 26.3085C97.5178 25.2021 97.2944 24.3511 96.8476 23.7553C96.4008 23.1383 95.7093 22.8298 94.7731 22.8298C93.7944 22.8298 92.8476 23.1915 91.9327 23.9149C91.0391 24.617 90.2412 25.4894 89.5391 26.5319L89.5391 37.5426L91.454 37.8617V38.5L84.1135 38.5V37.8617ZM109.642 38.8191C108.281 38.8191 107.164 38.4681 106.291 37.766C105.419 37.0426 104.983 35.9787 104.983 34.5745C104.983 32.5745 105.823 31.1596 107.504 30.3298C109.185 29.4787 111.132 29.0532 113.345 29.0532L115.483 29.0532V26.5957C115.483 25.4894 115.355 24.6383 115.1 24.0425C114.866 23.4255 114.494 23 113.983 22.766C113.472 22.5106 112.781 22.383 111.908 22.383C110.908 22.383 110.164 22.5851 109.674 22.9894C109.185 23.3723 108.94 23.8936 108.94 24.5532C108.94 25.1702 109.238 25.5745 109.834 25.766C109.834 26.2979 109.632 26.766 109.228 27.1702C108.823 27.5745 108.345 27.7766 107.791 27.7766C107.196 27.7766 106.717 27.617 106.355 27.2979C105.994 26.9574 105.813 26.4468 105.813 25.766C105.813 24.5319 106.43 23.5425 107.664 22.7979C108.898 22.0532 110.44 21.6808 112.291 21.6808C116.547 21.6808 118.674 23.5319 118.674 27.234L118.674 36.3617C118.674 36.8298 118.77 37.1915 118.962 37.4468C119.174 37.6809 119.472 37.7979 119.855 37.7979C120.217 37.7979 120.504 37.6809 120.717 37.4468C120.93 37.1915 121.036 36.8511 121.036 36.4255H121.706C121.706 37.1702 121.462 37.7553 120.972 38.1809C120.504 38.6064 119.845 38.8191 118.994 38.8191C118.015 38.8191 117.185 38.5426 116.504 37.9894C115.845 37.4149 115.504 36.5319 115.483 35.3404C114.972 36.4255 114.185 37.2766 113.121 37.8936C112.079 38.5106 110.919 38.8191 109.642 38.8191ZM111.398 37.4149C111.972 37.4149 112.557 37.2447 113.153 36.9043C113.77 36.5638 114.291 36.0745 114.717 35.4362C115.142 34.7766 115.398 33.9894 115.483 33.0745L115.483 29.7553L113.345 29.7553C111.6 29.7553 110.291 30.1489 109.419 30.9362C108.568 31.7021 108.142 32.7872 108.142 34.1915C108.142 35.3617 108.419 36.1915 108.972 36.6809C109.525 37.1702 110.334 37.4149 111.398 37.4149ZM122.484 37.8617L124.719 37.5426L124.719 22.9255L122.484 22.6064V21.9681L127.91 21.9681L127.91 24.4255C129.25 22.5957 130.761 21.6808 132.442 21.6808C133.25 21.6808 133.963 21.8936 134.58 22.3191C135.197 22.7234 135.506 23.3085 135.506 24.0745C135.506 24.6277 135.325 25.0957 134.963 25.4787C134.601 25.8404 134.123 26.0213 133.527 26.0213C132.846 26.0213 132.293 25.7553 131.867 25.2234C132.101 24.9255 132.219 24.6064 132.219 24.266C132.219 23.9043 132.091 23.617 131.836 23.4043C131.601 23.1702 131.282 23.0532 130.878 23.0532C130.431 23.0532 129.974 23.266 129.506 23.6915C129.038 24.0957 128.506 24.734 127.91 25.6064L127.91 37.5426L130.463 37.8617V38.5L122.484 38.5V37.8617ZM145.228 38.8191C143.653 38.8191 142.228 38.4681 140.951 37.766C139.674 37.0426 138.664 36.0319 137.919 34.734C137.174 33.4362 136.802 31.9362 136.802 30.234C136.802 28.5319 137.164 27.0425 137.887 25.766C138.632 24.4681 139.621 23.4681 140.855 22.766C142.111 22.0425 143.504 21.6808 145.036 21.6808C146.377 21.6808 147.579 21.9787 148.642 22.5745C149.706 23.1702 150.536 24 151.132 25.0638C151.728 26.1064 152.036 27.3085 152.057 28.6702L140.313 28.6702V31.8298C140.313 33.7021 140.728 35.2234 141.557 36.3936C142.408 37.5426 143.632 38.117 145.228 38.117C146.696 38.117 147.994 37.7021 149.121 36.8723C150.249 36.0426 150.94 34.9681 151.196 33.6489L151.93 33.6489C151.632 35.2234 150.877 36.4787 149.664 37.4149C148.451 38.3511 146.972 38.8191 145.228 38.8191ZM148.547 27.8723C148.547 26.0213 148.26 24.6489 147.685 23.7553C147.111 22.8404 146.217 22.383 145.004 22.383C143.579 22.383 142.472 22.883 141.685 23.883C140.898 24.883 140.451 26.2128 140.345 27.8723L148.547 27.8723ZM154.596 38.5V37.8298L157.532 37.3511L157.532 14.117L154.596 13.6702V12.9681L163.979 12.9681V13.6702L161.043 14.117L161.043 37.3511L163.979 37.8298V38.5L154.596 38.5ZM166.533 37.8298L169.469 37.3511L169.469 14.117L166.533 13.6702V12.9681L178.756 12.9681C181.097 12.9681 183.171 13.5 184.98 14.5638C186.81 15.6064 188.235 17.0957 189.256 19.0319C190.278 20.9468 190.788 23.1808 190.788 25.734C190.788 28.2872 190.278 30.5319 189.256 32.4681C188.235 34.383 186.81 35.8723 184.98 36.9362C183.15 37.9787 181.076 38.5 178.756 38.5L166.533 38.5V37.8298ZM178.756 37.734C180.31 37.734 181.682 37.3723 182.873 36.6489C184.086 35.9255 185.033 34.8511 185.714 33.4255C186.395 31.9787 186.735 30.234 186.735 28.1915V23.2766C186.735 21.234 186.395 19.5 185.714 18.0745C185.033 16.6489 184.086 15.5745 182.873 14.8511C181.682 14.1277 180.31 13.766 178.756 13.766L172.98 13.766L172.98 37.734L178.756 37.734Z" fill="#374ACD"/>
<defs>
<clipPath id="clip0_1005_2698">
<rect width="54.7873" height="50" fill="white"/>
</clipPath>
</defs>
</svg>
