<svg preserveAspectRatio="xMidYMid meet" width="100%" height="100%" overflow="visible" style="display: block;" viewBox="0 0 23.7857 23.7841" fill="none" xmlns="http://www.w3.org/2000/svg">
<g id="combine">
<path id="Intersect" d="M0.823239 7.10341C0.95713 8.75373 2.30623 10.0803 3.96062 10.1475C4.98285 10.1891 5.94573 10.1891 6.96795 10.1475C8.62234 10.0803 9.97143 8.75373 10.1053 7.10341C10.149 6.56479 10.1786 6.01797 10.1786 5.46441C10.1786 4.91083 10.149 4.36403 10.1053 3.8254C9.97143 2.17507 8.62234 0.848483 6.96795 0.781268C5.94573 0.739738 4.98285 0.739738 3.96062 0.781268C2.30623 0.848483 0.95713 2.17507 0.823239 3.8254C0.779542 4.36403 0.75 4.91083 0.75 5.46441C0.75 6.01797 0.779542 6.56479 0.823239 7.10341Z" stroke="var(--stroke-0, black)" stroke-width="1.5" stroke-linecap="round" stroke-linejoin="round"/>
<path id="Intersect_2" d="M12.3215 0.75C12.8177 0.75 12.8854 0.760382 13.3966 0.781147C15.0509 0.848362 16.4 2.17495 16.5339 3.82528C16.5776 4.36391 16.6072 4.91071 16.6072 5.46429C16.6072 6.01785 16.5776 6.56467 16.5339 7.10328C16.4 8.75361 15.0509 10.0802 13.3966 10.1474C12.8854 10.1682 12.8177 10.1786 12.3215 10.1786" stroke="var(--stroke-0, black)" stroke-width="1.5" stroke-linecap="round" stroke-linejoin="round"/>
<path id="Intersect_3" d="M18.75 0.75C19.2463 0.75 19.314 0.760382 19.8251 0.781147C21.4795 0.848362 22.8287 2.17495 22.9625 3.82528C23.0063 4.36391 23.0357 4.91071 23.0357 5.46429C23.0357 6.01785 23.0063 6.56467 22.9625 7.10328C22.8287 8.75361 21.4795 10.0802 19.8251 10.1474C19.314 10.1682 19.2463 10.1786 18.75 10.1786" stroke="var(--stroke-0, black)" stroke-width="1.5" stroke-linecap="round" stroke-linejoin="round"/>
<path id="Intersect_4" d="M13.6804 19.9588C13.8143 21.6092 15.1634 22.9357 16.8178 23.0029C17.8401 23.0445 18.8028 23.0445 19.8251 23.0029C21.4795 22.9357 22.8287 21.6092 22.9625 19.9588C23.0063 19.4202 23.0357 18.8733 23.0357 18.3198C23.0357 17.7662 23.0063 17.2194 22.9625 16.6808C22.8287 15.0304 21.4795 13.7039 19.8251 13.6366C18.8028 13.5951 17.8401 13.5951 16.8178 13.6366C15.1634 13.7039 13.8143 15.0304 13.6804 16.6808C13.6367 17.2194 13.6072 17.7662 13.6072 18.3198C13.6072 18.8733 13.6367 19.4202 13.6804 19.9588Z" fill="var(--fill-0, #5470DA)" stroke="var(--stroke-0, black)" stroke-width="1.5" stroke-linecap="round" stroke-linejoin="round"/>
<path id="ellipse 52" d="M2.00248 14.065C2.00248 16.8357 4.24857 19.0817 7.01925 19.0817C7.50047 19.0817 7.96588 19.014 8.40642 18.8875L9.73687 18.4291" stroke="var(--stroke-0, black)" stroke-width="1.5" stroke-linecap="round" stroke-linejoin="round"/>
<path id="Vector" d="M7.61588 21.6431C8.64095 21.1305 9.66603 20.1054 10.1786 19.0804C9.66603 18.0552 8.64095 17.0302 7.61588 16.5176" stroke="var(--stroke-0, black)" stroke-width="1.5" stroke-linecap="round" stroke-linejoin="round"/>
</g>
</svg>
