<svg width="217" height="210" viewBox="0 0 217 210" fill="none" xmlns="http://www.w3.org/2000/svg">
<g clip-path="url(#clip0_1006_3766)">
<path d="M61.3179 18H155.772H161.431C167.645 18 172.683 23.0378 172.683 29.2523V34.9529V43.8803H173.808V66.1036H172.683V70.3232V72.0111H173.808V82.9821H172.683V217.715V230.733V231.794C172.683 238.008 167.645 243.046 161.431 243.046H157.871H64.5213H58.1274C50.5497 243.046 44.4069 236.903 44.4072 229.325V225.504V225.443V83.2634H43V59.0709H44.4072V34.9529V29.2523C44.4072 23.0378 49.4451 18 55.6596 18H61.3179Z" fill="#E9EEF5" stroke="#03092D" stroke-linecap="round" stroke-linejoin="round"/>
<path d="M108.543 28.0018C107.369 28.0018 106.417 27.0501 106.417 25.8761C106.417 24.7022 107.369 23.7505 108.543 23.7505C109.717 23.7505 110.668 24.7022 110.668 25.8761C110.668 27.0501 109.717 28.0018 108.543 28.0018Z" fill="#03092D"/>
<path d="M168.182 38.7753V214.227V226.724V230.106C168.182 234.766 164.404 238.545 159.743 238.545H154.41H67.6109H57.3473C52.6863 238.545 48.9079 234.766 48.9081 230.105L48.9083 225.373V221.705V221.646V38.7753V30.9397C48.9083 26.2789 52.6867 22.5005 57.3475 22.5005H64.6322H84.4135C85.9637 22.5005 87.2203 23.7571 87.2203 25.3073C87.2203 29.9578 90.9903 33.7278 95.6408 33.7278H121.205C125.856 33.7278 129.626 29.9578 129.626 25.3073C129.626 23.7571 130.882 22.5005 132.433 22.5005H152.458H159.743C164.404 22.5005 168.182 26.2789 168.182 30.9397V38.7753Z" fill="#FAFAFA" stroke="#03092D" stroke-linecap="round" stroke-linejoin="round"/>
<rect x="58.2963" y="43.7685" width="100.496" height="18.2257" rx="2.42592" stroke="#03092D" stroke-width="0.774306"/>
<path d="M82.0725 56.3813V49.3813H84.9225C85.3025 49.3813 85.6459 49.478 85.9525 49.6713C86.2659 49.858 86.5159 50.1147 86.7025 50.4413C86.8892 50.768 86.9825 51.1313 86.9825 51.5313C86.9825 51.9313 86.8892 52.2947 86.7025 52.6213C86.5159 52.948 86.2659 53.2113 85.9525 53.4113C85.6459 53.6047 85.3025 53.7013 84.9225 53.7013H83.1525V56.3813H82.0725ZM83.1525 52.6613H84.9025C85.0825 52.6613 85.2459 52.6113 85.3925 52.5113C85.5392 52.4047 85.6559 52.268 85.7425 52.1013C85.8359 51.928 85.8825 51.738 85.8825 51.5313C85.8825 51.3247 85.8359 51.138 85.7425 50.9713C85.6559 50.8047 85.5392 50.6713 85.3925 50.5713C85.2459 50.4713 85.0825 50.4213 84.9025 50.4213H83.1525V52.6613ZM88.1504 56.3813V48.9813H89.1804V52.2113L89.0004 52.3313C89.0671 52.098 89.1971 51.8847 89.3904 51.6913C89.5838 51.4913 89.8138 51.3313 90.0804 51.2113C90.3471 51.0847 90.6204 51.0213 90.9004 51.0213C91.3004 51.0213 91.6338 51.1013 91.9004 51.2613C92.1671 51.4147 92.3671 51.6513 92.5004 51.9713C92.6338 52.2913 92.7004 52.6947 92.7004 53.1813V56.3813H91.6704V53.2513C91.6704 52.9513 91.6304 52.7047 91.5504 52.5113C91.4704 52.3113 91.3471 52.168 91.1804 52.0813C91.0138 51.988 90.8071 51.948 90.5604 51.9613C90.3604 51.9613 90.1771 51.9947 90.0104 52.0613C89.8438 52.1213 89.6971 52.208 89.5704 52.3213C89.4504 52.4347 89.3538 52.568 89.2804 52.7213C89.2138 52.868 89.1804 53.028 89.1804 53.2013V56.3813H88.6704C88.5838 56.3813 88.4971 56.3813 88.4104 56.3813C88.3238 56.3813 88.2371 56.3813 88.1504 56.3813ZM96.4577 56.4813C95.9444 56.4813 95.4844 56.3647 95.0777 56.1313C94.6777 55.8913 94.361 55.568 94.1277 55.1613C93.8944 54.748 93.7777 54.278 93.7777 53.7513C93.7777 53.2247 93.8944 52.758 94.1277 52.3513C94.361 51.938 94.6777 51.6147 95.0777 51.3813C95.4844 51.1413 95.9444 51.0213 96.4577 51.0213C96.9644 51.0213 97.4177 51.1413 97.8177 51.3813C98.2244 51.6147 98.5444 51.938 98.7777 52.3513C99.011 52.758 99.1277 53.2247 99.1277 53.7513C99.1277 54.278 99.011 54.748 98.7777 55.1613C98.5444 55.568 98.2244 55.8913 97.8177 56.1313C97.4177 56.3647 96.9644 56.4813 96.4577 56.4813ZM96.4577 55.5413C96.771 55.5413 97.051 55.4647 97.2977 55.3113C97.5444 55.1513 97.7377 54.938 97.8777 54.6713C98.0177 54.398 98.0844 54.0913 98.0777 53.7513C98.0844 53.4047 98.0177 53.098 97.8777 52.8313C97.7377 52.558 97.5444 52.3447 97.2977 52.1913C97.051 52.038 96.771 51.9613 96.4577 51.9613C96.1444 51.9613 95.861 52.0413 95.6077 52.2013C95.361 52.3547 95.1677 52.568 95.0277 52.8413C94.8877 53.108 94.821 53.4113 94.8277 53.7513C94.821 54.0913 94.8877 54.398 95.0277 54.6713C95.1677 54.938 95.361 55.1513 95.6077 55.3113C95.861 55.4647 96.1444 55.5413 96.4577 55.5413ZM100.9 56.3813V49.7913H101.93V56.3813H100.9ZM99.81 52.1313V51.1313H103.15V52.1313H99.81ZM106.399 56.4813C105.886 56.4813 105.426 56.3647 105.019 56.1313C104.619 55.8913 104.302 55.568 104.069 55.1613C103.836 54.748 103.719 54.278 103.719 53.7513C103.719 53.2247 103.836 52.758 104.069 52.3513C104.302 51.938 104.619 51.6147 105.019 51.3813C105.426 51.1413 105.886 51.0213 106.399 51.0213C106.906 51.0213 107.359 51.1413 107.759 51.3813C108.166 51.6147 108.486 51.938 108.719 52.3513C108.952 52.758 109.069 53.2247 109.069 53.7513C109.069 54.278 108.952 54.748 108.719 55.1613C108.486 55.568 108.166 55.8913 107.759 56.1313C107.359 56.3647 106.906 56.4813 106.399 56.4813ZM106.399 55.5413C106.712 55.5413 106.992 55.4647 107.239 55.3113C107.486 55.1513 107.679 54.938 107.819 54.6713C107.959 54.398 108.026 54.0913 108.019 53.7513C108.026 53.4047 107.959 53.098 107.819 52.8313C107.679 52.558 107.486 52.3447 107.239 52.1913C106.992 52.038 106.712 51.9613 106.399 51.9613C106.086 51.9613 105.802 52.0413 105.549 52.2013C105.302 52.3547 105.109 52.568 104.969 52.8413C104.829 53.108 104.762 53.4113 104.769 53.7513C104.762 54.0913 104.829 54.398 104.969 54.6713C105.109 54.938 105.302 55.1513 105.549 55.3113C105.802 55.4647 106.086 55.5413 106.399 55.5413ZM114.744 56.4813C114.304 56.4813 113.908 56.4047 113.554 56.2513C113.201 56.098 112.908 55.8713 112.674 55.5713L113.374 54.9713C113.574 55.2047 113.791 55.3747 114.024 55.4813C114.264 55.5813 114.534 55.6313 114.834 55.6313C114.954 55.6313 115.064 55.618 115.164 55.5913C115.271 55.558 115.361 55.5113 115.434 55.4513C115.514 55.3913 115.574 55.3213 115.614 55.2413C115.654 55.1547 115.674 55.0613 115.674 54.9613C115.674 54.788 115.611 54.648 115.484 54.5413C115.418 54.4947 115.311 54.4447 115.164 54.3913C115.024 54.3313 114.841 54.2713 114.614 54.2113C114.228 54.1113 113.911 53.998 113.664 53.8713C113.418 53.7447 113.228 53.6013 113.094 53.4413C112.994 53.3147 112.921 53.178 112.874 53.0313C112.828 52.878 112.804 52.7113 112.804 52.5313C112.804 52.3113 112.851 52.1113 112.944 51.9313C113.044 51.7447 113.178 51.5847 113.344 51.4513C113.518 51.3113 113.718 51.2047 113.944 51.1313C114.178 51.058 114.424 51.0213 114.684 51.0213C114.931 51.0213 115.174 51.0547 115.414 51.1213C115.661 51.188 115.888 51.2847 116.094 51.4113C116.301 51.538 116.474 51.688 116.614 51.8613L116.024 52.5113C115.898 52.3847 115.758 52.2747 115.604 52.1813C115.458 52.0813 115.308 52.0047 115.154 51.9513C115.001 51.898 114.861 51.8713 114.734 51.8713C114.594 51.8713 114.468 51.8847 114.354 51.9113C114.241 51.938 114.144 51.978 114.064 52.0313C113.991 52.0847 113.934 52.1513 113.894 52.2313C113.854 52.3113 113.834 52.4013 113.834 52.5013C113.841 52.588 113.861 52.6713 113.894 52.7513C113.934 52.8247 113.988 52.888 114.054 52.9413C114.128 52.9947 114.238 53.0513 114.384 53.1113C114.531 53.1713 114.718 53.228 114.944 53.2813C115.278 53.368 115.551 53.4647 115.764 53.5713C115.984 53.6713 116.158 53.788 116.284 53.9213C116.418 54.048 116.511 54.1947 116.564 54.3613C116.618 54.528 116.644 54.7147 116.644 54.9213C116.644 55.2213 116.558 55.4913 116.384 55.7313C116.218 55.9647 115.991 56.148 115.704 56.2813C115.418 56.4147 115.098 56.4813 114.744 56.4813ZM120.229 56.4813C119.689 56.4813 119.209 56.368 118.789 56.1413C118.376 55.908 118.049 55.5913 117.809 55.1913C117.576 54.7913 117.459 54.3313 117.459 53.8113C117.459 53.398 117.526 53.0213 117.659 52.6813C117.793 52.3413 117.976 52.048 118.209 51.8013C118.449 51.548 118.733 51.3547 119.059 51.2213C119.393 51.0813 119.753 51.0113 120.139 51.0113C120.479 51.0113 120.796 51.078 121.089 51.2113C121.383 51.338 121.636 51.5147 121.849 51.7413C122.069 51.968 122.236 52.238 122.349 52.5513C122.469 52.858 122.526 53.1947 122.519 53.5613L122.509 54.0013H118.219L117.989 53.1813H121.619L121.469 53.3513V53.1113C121.449 52.8913 121.376 52.6947 121.249 52.5213C121.123 52.348 120.963 52.2113 120.769 52.1113C120.576 52.0113 120.366 51.9613 120.139 51.9613C119.779 51.9613 119.476 52.0313 119.229 52.1713C118.983 52.3047 118.796 52.5047 118.669 52.7713C118.543 53.0313 118.479 53.3547 118.479 53.7413C118.479 54.108 118.556 54.428 118.709 54.7013C118.863 54.968 119.079 55.1747 119.359 55.3213C119.639 55.468 119.963 55.5413 120.329 55.5413C120.589 55.5413 120.829 55.498 121.049 55.4113C121.276 55.3247 121.519 55.168 121.779 54.9413L122.299 55.6713C122.139 55.8313 121.943 55.9713 121.709 56.0913C121.483 56.2113 121.239 56.308 120.979 56.3813C120.726 56.448 120.476 56.4813 120.229 56.4813ZM123.659 56.3813V48.9813H124.689V56.3813H123.659ZM126.718 56.3813V50.5413C126.718 50.2413 126.785 49.9747 126.918 49.7413C127.052 49.508 127.235 49.3247 127.468 49.1913C127.702 49.058 127.972 48.9913 128.278 48.9913C128.492 48.9913 128.692 49.0313 128.878 49.1113C129.065 49.1913 129.215 49.298 129.328 49.4313L128.978 50.2213C128.892 50.1413 128.795 50.078 128.688 50.0313C128.588 49.978 128.492 49.9513 128.398 49.9513C128.258 49.9513 128.138 49.9747 128.038 50.0213C127.945 50.0613 127.875 50.128 127.828 50.2213C127.782 50.308 127.758 50.4147 127.758 50.5413V56.3813H127.238C127.152 56.3813 127.065 56.3813 126.978 56.3813C126.892 56.3813 126.805 56.3813 126.718 56.3813ZM125.878 52.1713V51.2213H128.998V52.1713H125.878ZM130.248 56.3813V51.1313H131.278V56.3813H130.248ZM130.748 49.9713C130.528 49.9713 130.358 49.9147 130.238 49.8013C130.118 49.688 130.058 49.528 130.058 49.3213C130.058 49.128 130.118 48.9713 130.238 48.8513C130.365 48.7313 130.535 48.6713 130.748 48.6713C130.968 48.6713 131.138 48.728 131.258 48.8413C131.378 48.9547 131.438 49.1147 131.438 49.3213C131.438 49.5147 131.375 49.6713 131.248 49.7913C131.128 49.9113 130.962 49.9713 130.748 49.9713ZM135.307 56.4813C134.767 56.4813 134.287 56.368 133.867 56.1413C133.454 55.908 133.127 55.5913 132.887 55.1913C132.654 54.7913 132.537 54.3313 132.537 53.8113C132.537 53.398 132.604 53.0213 132.737 52.6813C132.871 52.3413 133.054 52.048 133.287 51.8013C133.527 51.548 133.811 51.3547 134.137 51.2213C134.471 51.0813 134.831 51.0113 135.217 51.0113C135.557 51.0113 135.874 51.078 136.167 51.2113C136.461 51.338 136.714 51.5147 136.927 51.7413C137.147 51.968 137.314 52.238 137.427 52.5513C137.547 52.858 137.604 53.1947 137.597 53.5613L137.587 54.0013H133.297L133.067 53.1813H136.697L136.547 53.3513V53.1113C136.527 52.8913 136.454 52.6947 136.327 52.5213C136.201 52.348 136.041 52.2113 135.847 52.1113C135.654 52.0113 135.444 51.9613 135.217 51.9613C134.857 51.9613 134.554 52.0313 134.307 52.1713C134.061 52.3047 133.874 52.5047 133.747 52.7713C133.621 53.0313 133.557 53.3547 133.557 53.7413C133.557 54.108 133.634 54.428 133.787 54.7013C133.941 54.968 134.157 55.1747 134.437 55.3213C134.717 55.468 135.041 55.5413 135.407 55.5413C135.667 55.5413 135.907 55.498 136.127 55.4113C136.354 55.3247 136.597 55.168 136.857 54.9413L137.377 55.6713C137.217 55.8313 137.021 55.9713 136.787 56.0913C136.561 56.2113 136.317 56.308 136.057 56.3813C135.804 56.448 135.554 56.4813 135.307 56.4813Z" fill="#03092D"/>
<path d="M108.659 79.4141C131.215 79.4141 149.423 99.4316 149.423 124.026C149.423 148.621 131.215 168.64 108.659 168.64C86.1043 168.64 67.8958 148.621 67.8958 124.026C67.8959 99.4317 86.1044 79.4142 108.659 79.4141Z" fill="#E9EEF5" stroke="#2E55EC"/>
<g clip-path="url(#clip1_1006_3766)">
<path d="M105.492 149.027L98.0987 146.974V140.402L95.6343 133.008L93.5806 124.793V118.632L96.8665 114.114L108.778 109.596L114.118 102.613L126.44 109.596L129.726 115.346L128.494 124.793L126.44 135.473L117.814 142.866L110.421 145.741V147.795L105.492 149.027Z" fill="#FFCEB6"/>
<path d="M98.8125 143.446C98.8125 142.407 106.206 149.409 110.724 146.123V148.177L103.145 149.189L98.8125 146.944C98.128 145.027 98.8125 144.678 98.8125 143.446Z" fill="#F9AC8A"/>
<path d="M114.796 176.827C113.184 162.351 109.287 156.867 106.909 151.016C106.561 150.16 107.039 149.208 107.92 148.928L110.748 148.029C111.06 147.929 111.395 147.926 111.709 148.018L122.784 151.276C122.943 151.322 123.094 151.393 123.232 151.485L131.886 157.254C132.213 157.472 132.451 157.8 132.557 158.178L134.681 165.765C134.772 166.091 134.761 166.438 134.647 166.757L130.296 179.043C129.984 179.923 129.003 180.367 128.137 180.02L125.872 179.114C125.714 179.051 125.599 178.91 125.568 178.742C125.463 178.163 124.614 178.218 124.586 178.807L124.576 179.012L116.301 178.307C115.511 178.24 114.883 177.615 114.796 176.827Z" fill="#E1F0FF"/>
<path d="M108.368 149.026C108.779 149.848 109.518 152.394 110.832 156.009C112.101 159.497 113.614 170.817 114.427 179.01H99.7425C97.6888 172.028 102.207 152.312 93.1707 149.437L97.6888 147.794L103.029 149.437L108.368 149.026Z" fill="white"/>
<path d="M108.629 159.235C107.782 159.556 105.358 160.416 101.858 159.046" stroke="#03092D" stroke-linecap="round"/>
<path d="M85.0231 177.801L73.7043 184.352V170.925V159.946C73.7043 158.461 74.5152 157.095 75.8185 156.384L82.2625 152.869C82.5063 152.736 82.7631 152.629 83.029 152.548L91.9367 149.85C94.3056 149.204 96.7435 150.782 97.068 153.216L98.0979 160.94L100.221 178.912L88.6408 180.362C87.8182 180.464 87.0916 179.823 87.0916 178.994C87.0916 177.933 85.9419 177.27 85.0231 177.801Z" fill="#E1F0FF"/>
<path d="M129.181 117.656C130.081 118.352 132.199 119.666 133.467 119.35C132.675 118.953 133.144 116.792 133.863 115.785C135.843 113.013 135.843 109.448 135.843 109.448C135.711 108.524 135.051 107.467 133.467 105.883C131.958 104.375 133.467 97.9611 118.811 96.3768C114.485 96.1364 108.632 91.914 98.6621 100.558C96.5566 102.384 95.2271 104.927 94.5444 107.629C93.7653 110.712 92.8906 114.367 92.8663 115.785C92.8322 117.777 93.3614 119.437 93.4615 120.538C93.7001 118.579 94.2815 116.685 97.015 115.785C103.575 113.627 105.695 115.315 112.066 107.577C116.503 102.191 122.64 108.788 123.564 111.428C124.885 110.768 130.694 110.636 129.181 117.656Z" fill="#4B4D59"/>
<path d="M110.492 145.888L110.529 145.389C110.274 145.371 110.046 145.548 110 145.799L110.492 145.888ZM118.811 142.323L119.064 142.755L119.07 142.751L118.811 142.323ZM123.564 138.758L123.923 139.107V139.107L123.564 138.758ZM127.129 133.609L126.713 133.333L126.701 133.35L126.691 133.369L127.129 133.609ZM129.181 117.656L128.692 117.55C128.683 117.593 128.679 117.637 128.681 117.681L129.181 117.656ZM97.015 137.939L96.5518 138.127L96.5518 138.127L97.015 137.939ZM98.2925 143.143L98.7877 143.074L98.7877 143.074L98.2925 143.143ZM98.0961 147.17L97.6438 146.956C97.5353 147.187 97.6171 147.462 97.8337 147.595L98.0961 147.17ZM133.467 119.35L133.588 119.835C133.791 119.784 133.941 119.612 133.964 119.404C133.987 119.196 133.877 118.996 133.69 118.902L133.467 119.35ZM133.863 115.785L134.27 116.076V116.076L133.863 115.785ZM135.843 109.448L136.343 109.448C136.343 109.424 136.342 109.4 136.338 109.377L135.843 109.448ZM133.467 105.883L133.82 105.529V105.529L133.467 105.883ZM118.811 96.3768L118.865 95.8797C118.856 95.8787 118.848 95.878 118.839 95.8775L118.811 96.3768ZM98.6621 100.558L98.9897 100.936V100.936L98.6621 100.558ZM94.5444 107.629L95.0292 107.751V107.751L94.5444 107.629ZM92.8663 115.785L93.3662 115.794L92.8663 115.785ZM93.4615 120.538L93.9578 120.599V120.599L93.4615 120.538ZM97.015 115.785L97.1712 116.26V116.26L97.015 115.785ZM112.066 107.577L112.452 107.895V107.895L112.066 107.577ZM123.564 111.428L123.093 111.594C123.14 111.729 123.243 111.838 123.377 111.892C123.51 111.946 123.66 111.94 123.788 111.876L123.564 111.428ZM93.8683 126.102L94.3602 126.013C94.3579 126.001 94.3552 125.988 94.3519 125.975L93.8683 126.102ZM110.493 147.868L110.747 148.299C110.972 148.167 111.057 147.883 110.942 147.649L110.493 147.868ZM108.635 122.313C108.746 122.566 109.041 122.681 109.294 122.57C109.547 122.459 109.662 122.164 109.551 121.911L109.093 122.112L108.635 122.313ZM107.373 120.939L107.338 121.438L107.339 121.438L107.373 120.939ZM104.887 121.909C104.775 122.161 104.889 122.457 105.141 122.569C105.393 122.681 105.689 122.568 105.801 122.315L105.344 122.112L104.887 121.909ZM123.687 123.105C123.798 123.358 124.093 123.473 124.345 123.362C124.598 123.251 124.713 122.956 124.602 122.704L124.145 122.904L123.687 123.105ZM122.425 121.732L122.39 122.23L122.39 122.23L122.425 121.732ZM119.939 122.701C119.827 122.954 119.94 123.249 120.192 123.361C120.445 123.474 120.74 123.36 120.853 123.108L120.396 122.904L119.939 122.701ZM108.057 137.738C107.82 137.597 107.513 137.675 107.372 137.913C107.231 138.15 107.309 138.457 107.547 138.598L107.802 138.168L108.057 137.738ZM110.706 139.597L110.87 139.125L110.706 139.597ZM112.78 140.632C113.056 140.647 113.291 140.435 113.305 140.159C113.32 139.883 113.108 139.648 112.832 139.634L112.806 140.133L112.78 140.632ZM116.36 133.068L116.208 132.592V132.592L116.36 133.068ZM116.415 131.342L115.947 131.519V131.519L116.415 131.342ZM110.492 145.888L110.456 146.387C110.78 146.411 111.155 146.355 111.539 146.263C111.929 146.169 112.36 146.029 112.808 145.861C113.704 145.525 114.699 145.067 115.621 144.608C116.545 144.149 117.405 143.686 118.034 143.338C118.348 143.164 118.605 143.019 118.784 142.916C118.873 142.865 118.943 142.825 118.991 142.797C119.014 142.784 119.033 142.773 119.045 142.766C119.051 142.762 119.056 142.759 119.059 142.758C119.061 142.757 119.062 142.756 119.063 142.755C119.063 142.755 119.064 142.755 119.064 142.755C119.064 142.755 119.064 142.755 119.064 142.755C119.064 142.755 119.064 142.755 118.811 142.323C118.558 141.892 118.558 141.892 118.558 141.892C118.558 141.892 118.558 141.892 118.558 141.892C118.558 141.892 118.558 141.892 118.557 141.893C118.557 141.893 118.556 141.894 118.554 141.894C118.551 141.896 118.547 141.899 118.541 141.902C118.53 141.909 118.512 141.919 118.489 141.932C118.443 141.959 118.375 141.998 118.287 142.048C118.112 142.149 117.859 142.292 117.549 142.463C116.929 142.807 116.083 143.262 115.176 143.713C114.268 144.164 113.308 144.606 112.457 144.925C112.032 145.084 111.642 145.21 111.305 145.291C110.961 145.374 110.703 145.402 110.529 145.389L110.492 145.888ZM118.811 142.323C119.07 142.751 119.07 142.751 119.071 142.751C119.071 142.751 119.071 142.751 119.071 142.751C119.071 142.751 119.071 142.751 119.071 142.75C119.072 142.75 119.072 142.75 119.073 142.749C119.075 142.748 119.077 142.747 119.081 142.745C119.087 142.741 119.096 142.735 119.108 142.728C119.132 142.713 119.168 142.691 119.213 142.663C119.304 142.607 119.434 142.525 119.596 142.422C119.919 142.215 120.367 141.922 120.866 141.576C121.857 140.89 123.079 139.976 123.923 139.107L123.564 138.758L123.206 138.41C122.433 139.206 121.279 140.074 120.297 140.754C119.81 141.091 119.373 141.377 119.057 141.579C118.9 141.68 118.773 141.759 118.686 141.814C118.642 141.841 118.608 141.861 118.586 141.875C118.574 141.882 118.566 141.887 118.56 141.891C118.557 141.892 118.555 141.894 118.554 141.895C118.553 141.895 118.553 141.895 118.553 141.895C118.552 141.896 118.552 141.896 118.552 141.896C118.552 141.896 118.552 141.896 118.552 141.896C118.552 141.896 118.552 141.896 118.811 142.323ZM123.564 138.758L123.923 139.107C124.813 138.191 125.726 136.867 126.408 135.794C126.751 135.253 127.04 134.768 127.244 134.419C127.346 134.243 127.426 134.102 127.482 134.004C127.509 133.955 127.531 133.917 127.545 133.891C127.552 133.878 127.558 133.867 127.562 133.861C127.564 133.857 127.565 133.855 127.566 133.853C127.567 133.852 127.567 133.851 127.567 133.851C127.567 133.85 127.567 133.85 127.568 133.85C127.568 133.85 127.568 133.85 127.568 133.85C127.568 133.85 127.568 133.85 127.129 133.609C126.691 133.369 126.691 133.369 126.691 133.369C126.691 133.369 126.691 133.369 126.691 133.369C126.691 133.369 126.691 133.369 126.691 133.369C126.69 133.37 126.69 133.37 126.69 133.371C126.689 133.372 126.688 133.374 126.686 133.378C126.683 133.384 126.678 133.393 126.671 133.405C126.657 133.43 126.637 133.466 126.61 133.513C126.557 133.608 126.479 133.745 126.38 133.916C126.181 134.257 125.899 134.731 125.564 135.258C124.889 136.321 124.02 137.572 123.206 138.41L123.564 138.758ZM127.129 133.609C127.546 133.886 127.546 133.886 127.546 133.885C127.546 133.885 127.547 133.885 127.547 133.885C127.547 133.884 127.547 133.883 127.548 133.883C127.549 133.881 127.55 133.88 127.551 133.878C127.553 133.875 127.556 133.87 127.56 133.864C127.567 133.853 127.576 133.838 127.588 133.818C127.611 133.78 127.643 133.724 127.683 133.651C127.761 133.505 127.869 133.288 127.995 132.993C128.247 132.404 128.569 131.503 128.869 130.229C129.471 127.681 129.986 123.645 129.68 117.63L129.181 117.656L128.681 117.681C128.983 123.617 128.472 127.557 127.896 129.999C127.608 131.22 127.303 132.066 127.075 132.601C126.961 132.868 126.866 133.058 126.802 133.177C126.77 133.237 126.746 133.279 126.73 133.304C126.722 133.317 126.717 133.326 126.714 133.33C126.713 133.333 126.712 133.334 126.712 133.335C126.711 133.335 126.711 133.335 126.712 133.334C126.712 133.334 126.712 133.334 126.712 133.334C126.712 133.334 126.712 133.333 126.712 133.333C126.713 133.333 126.713 133.333 127.129 133.609ZM97.015 137.939C96.5518 138.127 96.5518 138.127 96.5518 138.127C96.5518 138.127 96.5517 138.127 96.5517 138.127C96.5517 138.127 96.5517 138.127 96.5517 138.127C96.5517 138.127 96.5518 138.127 96.5519 138.128C96.5522 138.128 96.5526 138.129 96.5532 138.131C96.5545 138.134 96.5565 138.139 96.5593 138.146C96.5649 138.16 96.5734 138.182 96.5846 138.212C96.6071 138.271 96.6402 138.36 96.6816 138.477C96.7644 138.712 96.8802 139.059 97.0097 139.504C97.2689 140.394 97.5825 141.671 97.7972 143.212L98.2925 143.143L98.7877 143.074C98.5652 141.477 98.24 140.152 97.9698 139.224C97.8346 138.76 97.713 138.395 97.6246 138.144C97.5804 138.019 97.5445 137.922 97.5192 137.856C97.5066 137.823 97.4967 137.797 97.4897 137.78C97.4862 137.771 97.4835 137.764 97.4816 137.759C97.4806 137.757 97.4798 137.755 97.4792 137.753C97.4789 137.753 97.4787 137.752 97.4785 137.751C97.4784 137.751 97.4783 137.751 97.4783 137.751C97.4782 137.751 97.4782 137.751 97.4782 137.751C97.4781 137.751 97.4781 137.75 97.015 137.939ZM98.2925 143.143L97.7972 143.212C98.1335 145.63 97.8842 146.446 97.6438 146.956L98.0961 147.17L98.5484 147.383C98.9049 146.626 99.1373 145.589 98.7877 143.074L98.2925 143.143ZM129.181 117.656L128.875 118.051C129.348 118.417 130.134 118.941 130.974 119.335C131.394 119.533 131.841 119.704 132.277 119.804C132.709 119.903 133.166 119.94 133.588 119.835L133.467 119.35L133.345 118.865C133.134 118.917 132.85 118.909 132.501 118.829C132.155 118.75 131.779 118.609 131.399 118.43C130.638 118.073 129.914 117.591 129.487 117.26L129.181 117.656ZM133.467 119.35L133.69 118.902C133.688 118.901 133.625 118.869 133.583 118.667C133.543 118.471 133.543 118.197 133.592 117.871C133.691 117.217 133.965 116.503 134.27 116.076L133.863 115.785L133.456 115.495C133.042 116.074 132.721 116.945 132.604 117.722C132.545 118.112 132.531 118.515 132.603 118.868C132.674 119.214 132.849 119.6 133.243 119.797L133.467 119.35ZM133.863 115.785L134.27 116.076C135.316 114.611 135.831 112.951 136.086 111.675C136.214 111.034 136.278 110.482 136.311 110.089C136.327 109.892 136.335 109.735 136.339 109.625C136.341 109.57 136.342 109.527 136.343 109.497C136.343 109.483 136.343 109.471 136.343 109.462C136.343 109.458 136.343 109.455 136.343 109.453C136.343 109.451 136.343 109.45 136.343 109.449C136.343 109.449 136.343 109.449 136.343 109.448C136.343 109.448 136.343 109.448 136.343 109.448C136.343 109.448 136.343 109.448 135.843 109.448C135.343 109.448 135.343 109.448 135.343 109.448C135.343 109.448 135.343 109.447 135.343 109.447C135.343 109.447 135.343 109.447 135.343 109.447C135.343 109.447 135.343 109.448 135.343 109.448C135.343 109.449 135.343 109.451 135.343 109.454C135.343 109.459 135.343 109.468 135.343 109.479C135.342 109.503 135.342 109.539 135.34 109.588C135.336 109.684 135.329 109.826 135.314 110.007C135.284 110.369 135.225 110.882 135.105 111.479C134.866 112.678 134.39 114.187 133.456 115.495L133.863 115.785ZM135.843 109.448L136.338 109.377C136.181 108.278 135.412 107.122 133.82 105.529L133.467 105.883L133.113 106.236C134.69 107.813 135.241 108.769 135.348 109.518L135.843 109.448ZM133.467 105.883L133.82 105.529C133.704 105.413 133.593 105.223 133.468 104.917C133.342 104.608 133.23 104.258 133.072 103.816C132.765 102.956 132.331 101.901 131.455 100.84C129.694 98.7083 126.257 96.6788 118.865 95.8797L118.811 96.3768L118.758 96.8739C126.021 97.6591 129.157 99.6286 130.684 101.477C131.451 102.406 131.839 103.336 132.131 104.152C132.272 104.548 132.405 104.96 132.542 105.295C132.681 105.635 132.852 105.976 133.113 106.236L133.467 105.883ZM118.811 96.3768L118.839 95.8775C117.811 95.8204 116.693 95.5268 115.349 95.2252C114.027 94.9286 112.535 94.6384 110.854 94.6358C107.464 94.6304 103.395 95.7928 98.3346 100.18L98.6621 100.558L98.9897 100.936C103.899 96.6794 107.742 95.6309 110.852 95.6358C112.421 95.6382 113.827 95.9085 115.13 96.201C116.412 96.4886 117.648 96.8129 118.784 96.876L118.811 96.3768ZM94.5444 107.629L94.0597 107.506C93.6698 109.049 93.2546 110.74 92.9336 112.226C92.6162 113.694 92.3795 115.01 92.3664 115.777L92.8663 115.785L93.3662 115.794C93.3774 115.142 93.5902 113.921 93.911 112.437C94.2282 110.969 94.64 109.292 95.0292 107.751L94.5444 107.629ZM92.8663 115.785L92.3664 115.777C92.3486 116.818 92.4782 117.767 92.6211 118.582C92.7687 119.424 92.916 120.06 92.9636 120.583L93.4615 120.538L93.9595 120.493C93.907 119.915 93.7396 119.171 93.6061 118.409C93.4679 117.621 93.35 116.744 93.3662 115.794L92.8663 115.785ZM97.015 115.785L97.1712 116.26C98.7846 115.729 100.125 115.435 101.345 115.169C102.558 114.904 103.675 114.664 104.789 114.241C107.048 113.383 109.238 111.799 112.452 107.895L112.066 107.577L111.68 107.26C108.523 111.094 106.467 112.534 104.434 113.306C103.401 113.698 102.359 113.924 101.132 114.192C99.9095 114.458 98.5252 114.762 96.8587 115.31L97.015 115.785ZM112.066 107.577L112.452 107.895C113.488 106.638 114.584 106.119 115.645 106.034C116.722 105.947 117.83 106.302 118.878 106.923C119.923 107.542 120.875 108.406 121.622 109.28C122.375 110.16 122.89 111.014 123.093 111.594L123.564 111.428L124.036 111.263C123.777 110.523 123.178 109.561 122.382 108.63C121.58 107.693 120.547 106.749 119.387 106.062C118.23 105.377 116.914 104.928 115.564 105.037C114.198 105.147 112.863 105.823 111.68 107.26L112.066 107.577ZM123.564 111.428L123.788 111.876C124.024 111.758 124.549 111.632 125.209 111.636C125.857 111.64 126.575 111.77 127.2 112.103C127.815 112.431 128.351 112.961 128.658 113.8C128.968 114.649 129.057 115.855 128.692 117.55L129.181 117.656L129.67 117.761C130.061 115.946 129.992 114.536 129.597 113.457C129.199 112.367 128.484 111.655 127.671 111.221C126.867 110.793 125.98 110.641 125.215 110.636C124.462 110.631 123.765 110.769 123.341 110.981L123.564 111.428ZM93.8683 126.102L93.3763 126.192C94.0034 129.648 95.0421 134.415 96.5518 138.127L97.015 137.939L97.4781 137.751C96.0093 134.139 94.985 129.457 94.3602 126.013L93.8683 126.102ZM97.015 115.785L96.8587 115.31C95.3935 115.792 94.4637 116.559 93.8781 117.5C93.3026 118.426 93.0871 119.477 92.9652 120.478L93.4615 120.538L93.9578 120.599C94.0746 119.64 94.2691 118.765 94.7272 118.028C95.1753 117.308 95.903 116.677 97.1712 116.26L97.015 115.785ZM93.4615 120.538L92.9652 120.478C92.791 121.907 92.8977 123.345 93.0443 124.416C93.1178 124.954 93.2021 125.404 93.2683 125.721C93.3014 125.879 93.3301 126.005 93.3506 126.091C93.3609 126.135 93.3692 126.168 93.375 126.191C93.3779 126.203 93.3802 126.212 93.3818 126.218C93.3826 126.222 93.3833 126.224 93.3838 126.226C93.384 126.227 93.3842 126.228 93.3843 126.228C93.3844 126.228 93.3845 126.229 93.3845 126.229C93.3845 126.229 93.3846 126.229 93.3846 126.229C93.3846 126.229 93.3846 126.229 93.8683 126.102C94.3519 125.975 94.3519 125.976 94.3519 125.976C94.3519 125.976 94.3519 125.976 94.3519 125.976C94.3519 125.976 94.3519 125.976 94.3519 125.976C94.3519 125.976 94.3518 125.975 94.3517 125.975C94.3515 125.974 94.351 125.972 94.3505 125.97C94.3493 125.965 94.3475 125.958 94.3451 125.949C94.3402 125.929 94.3329 125.899 94.3236 125.86C94.3049 125.782 94.2783 125.665 94.2472 125.516C94.1849 125.218 94.1049 124.791 94.035 124.281C93.8947 123.255 93.798 121.911 93.9578 120.599L93.4615 120.538ZM98.6621 100.558L98.3346 100.18C96.1337 102.089 94.7608 104.731 94.0597 107.506L94.5444 107.629L95.0292 107.751C95.6934 105.122 96.9796 102.679 98.9897 100.936L98.6621 100.558ZM110.492 145.888L110 145.799C109.929 146.195 109.512 147.002 110.044 148.088L110.493 147.868L110.942 147.649C110.6 146.95 110.857 146.686 110.985 145.977L110.492 145.888ZM109.093 122.112L109.551 121.911C109.181 121.069 108.341 120.505 107.408 120.441L107.373 120.939L107.339 121.438C107.924 121.479 108.424 121.831 108.635 122.313L109.093 122.112ZM107.373 120.939L107.408 120.441C106.352 120.367 105.317 120.944 104.887 121.909L105.344 122.112L105.801 122.315C106.047 121.762 106.671 121.392 107.338 121.438L107.373 120.939ZM124.145 122.904L124.602 122.704C124.233 121.861 123.392 121.297 122.459 121.233L122.425 121.732L122.39 122.23C122.975 122.271 123.475 122.623 123.687 123.105L124.145 122.904ZM122.425 121.732L122.459 121.233C121.404 121.159 120.368 121.736 119.939 122.701L120.396 122.904L120.853 123.108C121.099 122.554 121.723 122.184 122.39 122.23L122.425 121.732ZM107.802 138.168C107.547 138.598 107.547 138.598 107.547 138.598C107.547 138.598 107.547 138.598 107.547 138.598C107.547 138.598 107.547 138.598 107.547 138.598C107.547 138.599 107.548 138.599 107.548 138.599C107.549 138.6 107.551 138.601 107.552 138.602C107.556 138.604 107.561 138.607 107.568 138.611C107.581 138.619 107.601 138.63 107.626 138.645C107.677 138.674 107.75 138.716 107.841 138.768C108.023 138.872 108.278 139.014 108.572 139.17C109.153 139.477 109.907 139.85 110.543 140.07L110.706 139.597L110.87 139.125C110.311 138.931 109.613 138.59 109.04 138.286C108.757 138.136 108.511 137.999 108.335 137.899C108.247 137.849 108.177 137.808 108.129 137.781C108.106 137.767 108.087 137.756 108.075 137.749C108.069 137.745 108.064 137.743 108.062 137.741C108.06 137.74 108.059 137.739 108.058 137.739C108.058 137.739 108.058 137.739 108.058 137.739C108.057 137.738 108.057 137.738 108.057 137.738C108.057 137.738 108.057 137.738 108.057 137.738C108.057 137.738 108.057 137.738 107.802 138.168ZM110.706 139.597L110.543 140.07C111.308 140.334 111.842 140.583 112.78 140.632L112.806 140.133L112.832 139.634C112.072 139.594 111.704 139.413 110.87 139.125L110.706 139.597ZM116.36 133.068L116.208 132.592C116.015 132.654 115.746 132.635 115.338 132.564C114.977 132.502 114.49 132.394 114.04 132.411L114.059 132.911L114.079 133.411C114.392 133.399 114.73 133.474 115.167 133.549C115.556 133.616 116.057 133.691 116.513 133.544L116.36 133.068ZM116.415 131.342L116.883 131.165C116.669 130.602 116.622 129.584 117.411 127.815L116.955 127.612L116.498 127.408C115.653 129.3 115.604 130.61 115.947 131.519L116.415 131.342ZM116.36 133.068L116.513 133.544C116.801 133.452 117.017 133.265 117.133 133.004C117.239 132.766 117.242 132.515 117.218 132.309C117.172 131.907 116.994 131.461 116.883 131.165L116.415 131.342L115.947 131.519C116.077 131.862 116.196 132.174 116.225 132.423C116.239 132.543 116.223 132.59 116.22 132.596C116.22 132.596 116.221 132.594 116.223 132.591C116.226 132.588 116.229 132.585 116.231 132.583C116.237 132.578 116.233 132.584 116.208 132.592L116.36 133.068ZM110.493 147.868L110.239 147.438C108.616 148.395 106.912 148.988 105 148.97C103.086 148.951 100.914 148.319 98.3585 146.744L98.0961 147.17L97.8337 147.595C100.504 149.241 102.851 149.949 104.99 149.97C107.13 149.99 109.012 149.322 110.747 148.299L110.493 147.868Z" fill="url(#paint0_linear_1006_3766)"/>
<path d="M110.492 145.888L110.529 145.389C110.274 145.371 110.046 145.548 110 145.799L110.492 145.888ZM118.811 142.323L119.064 142.755L119.07 142.751L118.811 142.323ZM123.564 138.758L123.923 139.107V139.107L123.564 138.758ZM127.129 133.609L126.713 133.333L126.701 133.35L126.691 133.369L127.129 133.609ZM129.181 117.656L128.692 117.55C128.683 117.593 128.679 117.637 128.681 117.681L129.181 117.656ZM97.015 137.939L96.5518 138.127L96.5518 138.127L97.015 137.939ZM98.2925 143.143L98.7877 143.074L98.7877 143.074L98.2925 143.143ZM98.0961 147.17L97.6438 146.956C97.5353 147.187 97.6171 147.462 97.8337 147.595L98.0961 147.17ZM133.467 119.35L133.588 119.835C133.791 119.784 133.941 119.612 133.964 119.404C133.987 119.196 133.877 118.996 133.69 118.902L133.467 119.35ZM133.863 115.785L134.27 116.076V116.076L133.863 115.785ZM135.843 109.448L136.343 109.448C136.343 109.424 136.342 109.4 136.338 109.377L135.843 109.448ZM133.467 105.883L133.82 105.529V105.529L133.467 105.883ZM118.811 96.3768L118.865 95.8797C118.856 95.8787 118.848 95.878 118.839 95.8775L118.811 96.3768ZM98.6621 100.558L98.9897 100.936V100.936L98.6621 100.558ZM94.5444 107.629L95.0292 107.751V107.751L94.5444 107.629ZM92.8663 115.785L93.3662 115.794L92.8663 115.785ZM93.4615 120.538L93.9578 120.599V120.599L93.4615 120.538ZM97.015 115.785L97.1712 116.26V116.26L97.015 115.785ZM112.066 107.577L112.452 107.895V107.895L112.066 107.577ZM123.564 111.428L123.093 111.594C123.14 111.729 123.243 111.838 123.377 111.892C123.51 111.946 123.66 111.94 123.788 111.876L123.564 111.428ZM93.8683 126.102L94.3602 126.013C94.3579 126.001 94.3552 125.988 94.3519 125.975L93.8683 126.102ZM110.493 147.868L110.747 148.299C110.972 148.167 111.057 147.883 110.942 147.649L110.493 147.868ZM108.635 122.313C108.746 122.566 109.041 122.681 109.294 122.57C109.547 122.459 109.662 122.164 109.551 121.911L109.093 122.112L108.635 122.313ZM107.373 120.939L107.338 121.438L107.339 121.438L107.373 120.939ZM104.887 121.909C104.775 122.161 104.889 122.457 105.141 122.569C105.393 122.681 105.689 122.568 105.801 122.315L105.344 122.112L104.887 121.909ZM123.687 123.105C123.798 123.358 124.093 123.473 124.345 123.362C124.598 123.251 124.713 122.956 124.602 122.704L124.145 122.904L123.687 123.105ZM122.425 121.732L122.39 122.23L122.39 122.23L122.425 121.732ZM119.939 122.701C119.827 122.954 119.94 123.249 120.192 123.361C120.445 123.474 120.74 123.36 120.853 123.108L120.396 122.904L119.939 122.701ZM108.057 137.738C107.82 137.597 107.513 137.675 107.372 137.913C107.231 138.15 107.309 138.457 107.547 138.598L107.802 138.168L108.057 137.738ZM110.706 139.597L110.87 139.125L110.706 139.597ZM112.78 140.632C113.056 140.647 113.291 140.435 113.305 140.159C113.32 139.883 113.108 139.648 112.832 139.634L112.806 140.133L112.78 140.632ZM116.36 133.068L116.208 132.592V132.592L116.36 133.068ZM116.415 131.342L115.947 131.519V131.519L116.415 131.342ZM110.492 145.888L110.456 146.387C110.78 146.411 111.155 146.355 111.539 146.263C111.929 146.169 112.36 146.029 112.808 145.861C113.704 145.525 114.699 145.067 115.621 144.608C116.545 144.149 117.405 143.686 118.034 143.338C118.348 143.164 118.605 143.019 118.784 142.916C118.873 142.865 118.943 142.825 118.991 142.797C119.014 142.784 119.033 142.773 119.045 142.766C119.051 142.762 119.056 142.759 119.059 142.758C119.061 142.757 119.062 142.756 119.063 142.755C119.063 142.755 119.064 142.755 119.064 142.755C119.064 142.755 119.064 142.755 119.064 142.755C119.064 142.755 119.064 142.755 118.811 142.323C118.558 141.892 118.558 141.892 118.558 141.892C118.558 141.892 118.558 141.892 118.558 141.892C118.558 141.892 118.558 141.892 118.557 141.893C118.557 141.893 118.556 141.894 118.554 141.894C118.551 141.896 118.547 141.899 118.541 141.902C118.53 141.909 118.512 141.919 118.489 141.932C118.443 141.959 118.375 141.998 118.287 142.048C118.112 142.149 117.859 142.292 117.549 142.463C116.929 142.807 116.083 143.262 115.176 143.713C114.268 144.164 113.308 144.606 112.457 144.925C112.032 145.084 111.642 145.21 111.305 145.291C110.961 145.374 110.703 145.402 110.529 145.389L110.492 145.888ZM118.811 142.323C119.07 142.751 119.07 142.751 119.071 142.751C119.071 142.751 119.071 142.751 119.071 142.751C119.071 142.751 119.071 142.751 119.071 142.75C119.072 142.75 119.072 142.75 119.073 142.749C119.075 142.748 119.077 142.747 119.081 142.745C119.087 142.741 119.096 142.735 119.108 142.728C119.132 142.713 119.168 142.691 119.213 142.663C119.304 142.607 119.434 142.525 119.596 142.422C119.919 142.215 120.367 141.922 120.866 141.576C121.857 140.89 123.079 139.976 123.923 139.107L123.564 138.758L123.206 138.41C122.433 139.206 121.279 140.074 120.297 140.754C119.81 141.091 119.373 141.377 119.057 141.579C118.9 141.68 118.773 141.759 118.686 141.814C118.642 141.841 118.608 141.861 118.586 141.875C118.574 141.882 118.566 141.887 118.56 141.891C118.557 141.892 118.555 141.894 118.554 141.895C118.553 141.895 118.553 141.895 118.553 141.895C118.552 141.896 118.552 141.896 118.552 141.896C118.552 141.896 118.552 141.896 118.552 141.896C118.552 141.896 118.552 141.896 118.811 142.323ZM123.564 138.758L123.923 139.107C124.813 138.191 125.726 136.867 126.408 135.794C126.751 135.253 127.04 134.768 127.244 134.419C127.346 134.243 127.426 134.102 127.482 134.004C127.509 133.955 127.531 133.917 127.545 133.891C127.552 133.878 127.558 133.867 127.562 133.861C127.564 133.857 127.565 133.855 127.566 133.853C127.567 133.852 127.567 133.851 127.567 133.851C127.567 133.85 127.567 133.85 127.568 133.85C127.568 133.85 127.568 133.85 127.568 133.85C127.568 133.85 127.568 133.85 127.129 133.609C126.691 133.369 126.691 133.369 126.691 133.369C126.691 133.369 126.691 133.369 126.691 133.369C126.691 133.369 126.691 133.369 126.691 133.369C126.69 133.37 126.69 133.37 126.69 133.371C126.689 133.372 126.688 133.374 126.686 133.378C126.683 133.384 126.678 133.393 126.671 133.405C126.657 133.43 126.637 133.466 126.61 133.513C126.557 133.608 126.479 133.745 126.38 133.916C126.181 134.257 125.899 134.731 125.564 135.258C124.889 136.321 124.02 137.572 123.206 138.41L123.564 138.758ZM127.129 133.609C127.546 133.886 127.546 133.886 127.546 133.885C127.546 133.885 127.547 133.885 127.547 133.885C127.547 133.884 127.547 133.883 127.548 133.883C127.549 133.881 127.55 133.88 127.551 133.878C127.553 133.875 127.556 133.87 127.56 133.864C127.567 133.853 127.576 133.838 127.588 133.818C127.611 133.78 127.643 133.724 127.683 133.651C127.761 133.505 127.869 133.288 127.995 132.993C128.247 132.404 128.569 131.503 128.869 130.229C129.471 127.681 129.986 123.645 129.68 117.63L129.181 117.656L128.681 117.681C128.983 123.617 128.472 127.557 127.896 129.999C127.608 131.22 127.303 132.066 127.075 132.601C126.961 132.868 126.866 133.058 126.802 133.177C126.77 133.237 126.746 133.279 126.73 133.304C126.722 133.317 126.717 133.326 126.714 133.33C126.713 133.333 126.712 133.334 126.712 133.335C126.711 133.335 126.711 133.335 126.712 133.334C126.712 133.334 126.712 133.334 126.712 133.334C126.712 133.334 126.712 133.333 126.712 133.333C126.713 133.333 126.713 133.333 127.129 133.609ZM97.015 137.939C96.5518 138.127 96.5518 138.127 96.5518 138.127C96.5518 138.127 96.5517 138.127 96.5517 138.127C96.5517 138.127 96.5517 138.127 96.5517 138.127C96.5517 138.127 96.5518 138.127 96.5519 138.128C96.5522 138.128 96.5526 138.129 96.5532 138.131C96.5545 138.134 96.5565 138.139 96.5593 138.146C96.5649 138.16 96.5734 138.182 96.5846 138.212C96.6071 138.271 96.6402 138.36 96.6816 138.477C96.7644 138.712 96.8802 139.059 97.0097 139.504C97.2689 140.394 97.5825 141.671 97.7972 143.212L98.2925 143.143L98.7877 143.074C98.5652 141.477 98.24 140.152 97.9698 139.224C97.8346 138.76 97.713 138.395 97.6246 138.144C97.5804 138.019 97.5445 137.922 97.5192 137.856C97.5066 137.823 97.4967 137.797 97.4897 137.78C97.4862 137.771 97.4835 137.764 97.4816 137.759C97.4806 137.757 97.4798 137.755 97.4792 137.753C97.4789 137.753 97.4787 137.752 97.4785 137.751C97.4784 137.751 97.4783 137.751 97.4783 137.751C97.4782 137.751 97.4782 137.751 97.4782 137.751C97.4781 137.751 97.4781 137.75 97.015 137.939ZM98.2925 143.143L97.7972 143.212C98.1335 145.63 97.8842 146.446 97.6438 146.956L98.0961 147.17L98.5484 147.383C98.9049 146.626 99.1373 145.589 98.7877 143.074L98.2925 143.143ZM129.181 117.656L128.875 118.051C129.348 118.417 130.134 118.941 130.974 119.335C131.394 119.533 131.841 119.704 132.277 119.804C132.709 119.903 133.166 119.94 133.588 119.835L133.467 119.35L133.345 118.865C133.134 118.917 132.85 118.909 132.501 118.829C132.155 118.75 131.779 118.609 131.399 118.43C130.638 118.073 129.914 117.591 129.487 117.26L129.181 117.656ZM133.467 119.35L133.69 118.902C133.688 118.901 133.625 118.869 133.583 118.667C133.543 118.471 133.543 118.197 133.592 117.871C133.691 117.217 133.965 116.503 134.27 116.076L133.863 115.785L133.456 115.495C133.042 116.074 132.721 116.945 132.604 117.722C132.545 118.112 132.531 118.515 132.603 118.868C132.674 119.214 132.849 119.6 133.243 119.797L133.467 119.35ZM133.863 115.785L134.27 116.076C135.316 114.611 135.831 112.951 136.086 111.675C136.214 111.034 136.278 110.482 136.311 110.089C136.327 109.892 136.335 109.735 136.339 109.625C136.341 109.57 136.342 109.527 136.343 109.497C136.343 109.483 136.343 109.471 136.343 109.462C136.343 109.458 136.343 109.455 136.343 109.453C136.343 109.451 136.343 109.45 136.343 109.449C136.343 109.449 136.343 109.449 136.343 109.448C136.343 109.448 136.343 109.448 136.343 109.448C136.343 109.448 136.343 109.448 135.843 109.448C135.343 109.448 135.343 109.448 135.343 109.448C135.343 109.448 135.343 109.447 135.343 109.447C135.343 109.447 135.343 109.447 135.343 109.447C135.343 109.447 135.343 109.448 135.343 109.448C135.343 109.449 135.343 109.451 135.343 109.454C135.343 109.459 135.343 109.468 135.343 109.479C135.342 109.503 135.342 109.539 135.34 109.588C135.336 109.684 135.329 109.826 135.314 110.007C135.284 110.369 135.225 110.882 135.105 111.479C134.866 112.678 134.39 114.187 133.456 115.495L133.863 115.785ZM135.843 109.448L136.338 109.377C136.181 108.278 135.412 107.122 133.82 105.529L133.467 105.883L133.113 106.236C134.69 107.813 135.241 108.769 135.348 109.518L135.843 109.448ZM133.467 105.883L133.82 105.529C133.704 105.413 133.593 105.223 133.468 104.917C133.342 104.608 133.23 104.258 133.072 103.816C132.765 102.956 132.331 101.901 131.455 100.84C129.694 98.7083 126.257 96.6788 118.865 95.8797L118.811 96.3768L118.758 96.8739C126.021 97.6591 129.157 99.6286 130.684 101.477C131.451 102.406 131.839 103.336 132.131 104.152C132.272 104.548 132.405 104.96 132.542 105.295C132.681 105.635 132.852 105.976 133.113 106.236L133.467 105.883ZM118.811 96.3768L118.839 95.8775C117.811 95.8204 116.693 95.5268 115.349 95.2252C114.027 94.9286 112.535 94.6384 110.854 94.6358C107.464 94.6304 103.395 95.7928 98.3346 100.18L98.6621 100.558L98.9897 100.936C103.899 96.6794 107.742 95.6309 110.852 95.6358C112.421 95.6382 113.827 95.9085 115.13 96.201C116.412 96.4886 117.648 96.8129 118.784 96.876L118.811 96.3768ZM94.5444 107.629L94.0597 107.506C93.6698 109.049 93.2546 110.74 92.9336 112.226C92.6162 113.694 92.3795 115.01 92.3664 115.777L92.8663 115.785L93.3662 115.794C93.3774 115.142 93.5902 113.921 93.911 112.437C94.2282 110.969 94.64 109.292 95.0292 107.751L94.5444 107.629ZM92.8663 115.785L92.3664 115.777C92.3486 116.818 92.4782 117.767 92.6211 118.582C92.7687 119.424 92.916 120.06 92.9636 120.583L93.4615 120.538L93.9595 120.493C93.907 119.915 93.7396 119.171 93.6061 118.409C93.4679 117.621 93.35 116.744 93.3662 115.794L92.8663 115.785ZM97.015 115.785L97.1712 116.26C98.7846 115.729 100.125 115.435 101.345 115.169C102.558 114.904 103.675 114.664 104.789 114.241C107.048 113.383 109.238 111.799 112.452 107.895L112.066 107.577L111.68 107.26C108.523 111.094 106.467 112.534 104.434 113.306C103.401 113.698 102.359 113.924 101.132 114.192C99.9095 114.458 98.5252 114.762 96.8587 115.31L97.015 115.785ZM112.066 107.577L112.452 107.895C113.488 106.638 114.584 106.119 115.645 106.034C116.722 105.947 117.83 106.302 118.878 106.923C119.923 107.542 120.875 108.406 121.622 109.28C122.375 110.16 122.89 111.014 123.093 111.594L123.564 111.428L124.036 111.263C123.777 110.523 123.178 109.561 122.382 108.63C121.58 107.693 120.547 106.749 119.387 106.062C118.23 105.377 116.914 104.928 115.564 105.037C114.198 105.147 112.863 105.823 111.68 107.26L112.066 107.577ZM123.564 111.428L123.788 111.876C124.024 111.758 124.549 111.632 125.209 111.636C125.857 111.64 126.575 111.77 127.2 112.103C127.815 112.431 128.351 112.961 128.658 113.8C128.968 114.649 129.057 115.855 128.692 117.55L129.181 117.656L129.67 117.761C130.061 115.946 129.992 114.536 129.597 113.457C129.199 112.367 128.484 111.655 127.671 111.221C126.867 110.793 125.98 110.641 125.215 110.636C124.462 110.631 123.765 110.769 123.341 110.981L123.564 111.428ZM93.8683 126.102L93.3763 126.192C94.0034 129.648 95.0421 134.415 96.5518 138.127L97.015 137.939L97.4781 137.751C96.0093 134.139 94.985 129.457 94.3602 126.013L93.8683 126.102ZM97.015 115.785L96.8587 115.31C95.3935 115.792 94.4637 116.559 93.8781 117.5C93.3026 118.426 93.0871 119.477 92.9652 120.478L93.4615 120.538L93.9578 120.599C94.0746 119.64 94.2691 118.765 94.7272 118.028C95.1753 117.308 95.903 116.677 97.1712 116.26L97.015 115.785ZM93.4615 120.538L92.9652 120.478C92.791 121.907 92.8977 123.345 93.0443 124.416C93.1178 124.954 93.2021 125.404 93.2683 125.721C93.3014 125.879 93.3301 126.005 93.3506 126.091C93.3609 126.135 93.3692 126.168 93.375 126.191C93.3779 126.203 93.3802 126.212 93.3818 126.218C93.3826 126.222 93.3833 126.224 93.3838 126.226C93.384 126.227 93.3842 126.228 93.3843 126.228C93.3844 126.228 93.3845 126.229 93.3845 126.229C93.3845 126.229 93.3846 126.229 93.3846 126.229C93.3846 126.229 93.3846 126.229 93.8683 126.102C94.3519 125.975 94.3519 125.976 94.3519 125.976C94.3519 125.976 94.3519 125.976 94.3519 125.976C94.3519 125.976 94.3519 125.976 94.3519 125.976C94.3519 125.976 94.3518 125.975 94.3517 125.975C94.3515 125.974 94.351 125.972 94.3505 125.97C94.3493 125.965 94.3475 125.958 94.3451 125.949C94.3402 125.929 94.3329 125.899 94.3236 125.86C94.3049 125.782 94.2783 125.665 94.2472 125.516C94.1849 125.218 94.1049 124.791 94.035 124.281C93.8947 123.255 93.798 121.911 93.9578 120.599L93.4615 120.538ZM98.6621 100.558L98.3346 100.18C96.1337 102.089 94.7608 104.731 94.0597 107.506L94.5444 107.629L95.0292 107.751C95.6934 105.122 96.9796 102.679 98.9897 100.936L98.6621 100.558ZM110.492 145.888L110 145.799C109.929 146.195 109.512 147.002 110.044 148.088L110.493 147.868L110.942 147.649C110.6 146.95 110.857 146.686 110.985 145.977L110.492 145.888ZM109.093 122.112L109.551 121.911C109.181 121.069 108.341 120.505 107.408 120.441L107.373 120.939L107.339 121.438C107.924 121.479 108.424 121.831 108.635 122.313L109.093 122.112ZM107.373 120.939L107.408 120.441C106.352 120.367 105.317 120.944 104.887 121.909L105.344 122.112L105.801 122.315C106.047 121.762 106.671 121.392 107.338 121.438L107.373 120.939ZM124.145 122.904L124.602 122.704C124.233 121.861 123.392 121.297 122.459 121.233L122.425 121.732L122.39 122.23C122.975 122.271 123.475 122.623 123.687 123.105L124.145 122.904ZM122.425 121.732L122.459 121.233C121.404 121.159 120.368 121.736 119.939 122.701L120.396 122.904L120.853 123.108C121.099 122.554 121.723 122.184 122.39 122.23L122.425 121.732ZM107.802 138.168C107.547 138.598 107.547 138.598 107.547 138.598C107.547 138.598 107.547 138.598 107.547 138.598C107.547 138.598 107.547 138.598 107.547 138.598C107.547 138.599 107.548 138.599 107.548 138.599C107.549 138.6 107.551 138.601 107.552 138.602C107.556 138.604 107.561 138.607 107.568 138.611C107.581 138.619 107.601 138.63 107.626 138.645C107.677 138.674 107.75 138.716 107.841 138.768C108.023 138.872 108.278 139.014 108.572 139.17C109.153 139.477 109.907 139.85 110.543 140.07L110.706 139.597L110.87 139.125C110.311 138.931 109.613 138.59 109.04 138.286C108.757 138.136 108.511 137.999 108.335 137.899C108.247 137.849 108.177 137.808 108.129 137.781C108.106 137.767 108.087 137.756 108.075 137.749C108.069 137.745 108.064 137.743 108.062 137.741C108.06 137.74 108.059 137.739 108.058 137.739C108.058 137.739 108.058 137.739 108.058 137.739C108.057 137.738 108.057 137.738 108.057 137.738C108.057 137.738 108.057 137.738 108.057 137.738C108.057 137.738 108.057 137.738 107.802 138.168ZM110.706 139.597L110.543 140.07C111.308 140.334 111.842 140.583 112.78 140.632L112.806 140.133L112.832 139.634C112.072 139.594 111.704 139.413 110.87 139.125L110.706 139.597ZM116.36 133.068L116.208 132.592C116.015 132.654 115.746 132.635 115.338 132.564C114.977 132.502 114.49 132.394 114.04 132.411L114.059 132.911L114.079 133.411C114.392 133.399 114.73 133.474 115.167 133.549C115.556 133.616 116.057 133.691 116.513 133.544L116.36 133.068ZM116.415 131.342L116.883 131.165C116.669 130.602 116.622 129.584 117.411 127.815L116.955 127.612L116.498 127.408C115.653 129.3 115.604 130.61 115.947 131.519L116.415 131.342ZM116.36 133.068L116.513 133.544C116.801 133.452 117.017 133.265 117.133 133.004C117.239 132.766 117.242 132.515 117.218 132.309C117.172 131.907 116.994 131.461 116.883 131.165L116.415 131.342L115.947 131.519C116.077 131.862 116.196 132.174 116.225 132.423C116.239 132.543 116.223 132.59 116.22 132.596C116.22 132.596 116.221 132.594 116.223 132.591C116.226 132.588 116.229 132.585 116.231 132.583C116.237 132.578 116.233 132.584 116.208 132.592L116.36 133.068ZM110.493 147.868L110.239 147.438C108.616 148.395 106.912 148.988 105 148.97C103.086 148.951 100.914 148.319 98.3585 146.744L98.0961 147.17L97.8337 147.595C100.504 149.241 102.851 149.949 104.99 149.97C107.13 149.99 109.012 149.322 110.747 148.299L110.493 147.868Z" fill="#03092D"/>
<path d="M98.0984 147.384C98.0984 147.384 83.573 150.972 75.6529 155.227C74.3418 155.932 73.4852 157.23 73.3242 158.71C72.3249 167.889 73.6566 184.535 73.6566 184.535L83.9549 178.198L86.3315 176.614V168.695L83.9549 163" stroke="#03092D" stroke-linecap="round" stroke-linejoin="round"/>
<path d="M110.881 147.384C110.881 147.384 121.509 150.649 131.227 156.632C132.219 157.243 132.982 158.171 133.314 159.287C136.108 168.678 135.323 184.535 135.323 184.535L125.025 178.198L122.648 176.614V168.695L119.209 159.673" stroke="#03092D" stroke-linecap="round" stroke-linejoin="round"/>
<path d="M96.6541 153.081C97.546 154.319 100.229 158.98 100.229 176.447" stroke="#03092D" stroke-linecap="round" stroke-linejoin="round"/>
<path d="M109.493 151.346C110.029 152.037 112.101 158.397 113.68 175.215" stroke="#03092D" stroke-linecap="round" stroke-linejoin="round"/>
</g>
<rect x="62" y="179.133" width="93.704" height="22.3493" rx="11.1747" fill="#2E55EC"/>
<path d="M83.6921 193.808V188.008H81.6921V186.808H87.0521V188.008H84.9921V193.808H83.6921ZM89.1011 193.908C88.6678 193.908 88.2744 193.788 87.9211 193.548C87.5678 193.308 87.2844 192.981 87.0711 192.568C86.8578 192.155 86.7511 191.685 86.7511 191.158C86.7511 190.631 86.8578 190.161 87.0711 189.748C87.2844 189.335 87.5744 189.011 87.9411 188.778C88.3078 188.545 88.7211 188.428 89.1811 188.428C89.4478 188.428 89.6911 188.468 89.9111 188.548C90.1311 188.621 90.3244 188.728 90.4911 188.868C90.6578 189.008 90.7944 189.168 90.9011 189.348C91.0144 189.528 91.0911 189.721 91.1311 189.928L90.8611 189.858V188.538H92.1011V193.808H90.8511V192.548L91.1411 192.498C91.0944 192.678 91.0078 192.855 90.8811 193.028C90.7611 193.195 90.6078 193.345 90.4211 193.478C90.2411 193.605 90.0378 193.708 89.8111 193.788C89.5911 193.868 89.3544 193.908 89.1011 193.908ZM89.4411 192.818C89.7278 192.818 89.9811 192.748 90.2011 192.608C90.4211 192.468 90.5911 192.275 90.7111 192.028C90.8378 191.775 90.9011 191.485 90.9011 191.158C90.9011 190.838 90.8378 190.555 90.7111 190.308C90.5911 190.061 90.4211 189.868 90.2011 189.728C89.9811 189.588 89.7278 189.518 89.4411 189.518C89.1544 189.518 88.9011 189.588 88.6811 189.728C88.4678 189.868 88.3011 190.061 88.1811 190.308C88.0611 190.555 88.0011 190.838 88.0011 191.158C88.0011 191.485 88.0611 191.775 88.1811 192.028C88.3011 192.275 88.4678 192.468 88.6811 192.608C88.9011 192.748 89.1544 192.818 89.4411 192.818ZM94.6771 192.198L94.4371 191.048L96.9371 188.538H98.5771L94.6771 192.198ZM93.5271 193.808V186.408H94.7571V193.808H93.5271ZM97.0871 193.808L95.1471 191.458L96.0171 190.718L98.6071 193.808H97.0871ZM101.661 193.908C101.108 193.908 100.618 193.791 100.191 193.558C99.7712 193.325 99.4412 193.008 99.2012 192.608C98.9679 192.201 98.8512 191.738 98.8512 191.218C98.8512 190.805 98.9179 190.428 99.0512 190.088C99.1845 189.748 99.3679 189.455 99.6012 189.208C99.8412 188.955 100.125 188.761 100.451 188.628C100.785 188.488 101.148 188.418 101.541 188.418C101.888 188.418 102.211 188.485 102.511 188.618C102.811 188.751 103.071 188.935 103.291 189.168C103.511 189.395 103.678 189.668 103.791 189.988C103.911 190.301 103.968 190.645 103.961 191.018L103.951 191.448H99.6812L99.4512 190.608H102.921L102.761 190.778V190.558C102.741 190.351 102.675 190.171 102.561 190.018C102.448 189.858 102.301 189.735 102.121 189.648C101.948 189.555 101.755 189.508 101.541 189.508C101.215 189.508 100.938 189.571 100.711 189.698C100.491 189.825 100.325 190.008 100.211 190.248C100.098 190.481 100.041 190.775 100.041 191.128C100.041 191.468 100.111 191.765 100.251 192.018C100.398 192.271 100.601 192.468 100.861 192.608C101.128 192.741 101.438 192.808 101.791 192.808C102.038 192.808 102.265 192.768 102.471 192.688C102.678 192.608 102.901 192.465 103.141 192.258L103.751 193.108C103.571 193.275 103.365 193.418 103.131 193.538C102.905 193.651 102.665 193.741 102.411 193.808C102.158 193.875 101.908 193.908 101.661 193.908ZM107.99 196.008V188.538H109.2L109.22 189.738L109.01 189.648C109.05 189.441 109.163 189.248 109.35 189.068C109.537 188.881 109.763 188.731 110.03 188.618C110.303 188.505 110.587 188.448 110.88 188.448C111.347 188.448 111.76 188.565 112.12 188.798C112.487 189.031 112.773 189.351 112.98 189.758C113.193 190.165 113.3 190.635 113.3 191.168C113.3 191.695 113.193 192.165 112.98 192.578C112.773 192.985 112.487 193.308 112.12 193.548C111.76 193.781 111.353 193.898 110.9 193.898C110.593 193.898 110.297 193.838 110.01 193.718C109.73 193.598 109.49 193.441 109.29 193.248C109.097 193.055 108.977 192.851 108.93 192.638L109.23 192.498V196.008H107.99ZM110.65 192.808C110.93 192.808 111.18 192.738 111.4 192.598C111.62 192.458 111.79 192.265 111.91 192.018C112.037 191.771 112.1 191.488 112.1 191.168C112.1 190.848 112.04 190.568 111.92 190.328C111.8 190.081 111.63 189.888 111.41 189.748C111.19 189.608 110.937 189.538 110.65 189.538C110.357 189.538 110.1 189.608 109.88 189.748C109.667 189.881 109.497 190.071 109.37 190.318C109.243 190.565 109.18 190.848 109.18 191.168C109.18 191.488 109.243 191.771 109.37 192.018C109.497 192.265 109.667 192.458 109.88 192.598C110.1 192.738 110.357 192.808 110.65 192.808ZM114.396 193.808V186.408H115.616V189.618L115.386 189.738C115.453 189.498 115.583 189.281 115.776 189.088C115.97 188.888 116.2 188.728 116.466 188.608C116.733 188.488 117.006 188.428 117.286 188.428C117.686 188.428 118.02 188.508 118.286 188.668C118.56 188.828 118.763 189.068 118.896 189.388C119.036 189.708 119.106 190.108 119.106 190.588V193.808H117.876V190.678C117.876 190.411 117.84 190.191 117.766 190.018C117.693 189.838 117.58 189.708 117.426 189.628C117.273 189.541 117.086 189.501 116.866 189.508C116.686 189.508 116.52 189.538 116.366 189.598C116.22 189.651 116.09 189.731 115.976 189.838C115.87 189.938 115.783 190.055 115.716 190.188C115.656 190.321 115.626 190.468 115.626 190.628V193.808H115.016C114.896 193.808 114.783 193.808 114.676 193.808C114.576 193.808 114.483 193.808 114.396 193.808ZM122.9 193.908C122.373 193.908 121.903 193.791 121.49 193.558C121.077 193.318 120.75 192.991 120.51 192.578C120.27 192.165 120.15 191.695 120.15 191.168C120.15 190.641 120.27 190.171 120.51 189.758C120.75 189.345 121.077 189.021 121.49 188.788C121.903 188.548 122.373 188.428 122.9 188.428C123.42 188.428 123.887 188.548 124.3 188.788C124.713 189.021 125.037 189.345 125.27 189.758C125.51 190.171 125.63 190.641 125.63 191.168C125.63 191.695 125.51 192.165 125.27 192.578C125.037 192.991 124.713 193.318 124.3 193.558C123.887 193.791 123.42 193.908 122.9 193.908ZM122.9 192.818C123.187 192.818 123.44 192.745 123.66 192.598C123.887 192.451 124.063 192.255 124.19 192.008C124.323 191.761 124.387 191.481 124.38 191.168C124.387 190.848 124.323 190.565 124.19 190.318C124.063 190.071 123.887 189.878 123.66 189.738C123.44 189.591 123.187 189.518 122.9 189.518C122.613 189.518 122.353 189.591 122.12 189.738C121.893 189.878 121.717 190.075 121.59 190.328C121.463 190.575 121.4 190.855 121.4 191.168C121.4 191.481 121.463 191.761 121.59 192.008C121.717 192.255 121.893 192.451 122.12 192.598C122.353 192.745 122.613 192.818 122.9 192.818ZM127.3 193.808V187.198H128.53V193.808H127.3ZM126.26 189.678V188.538H129.68V189.678H126.26ZM132.978 193.908C132.451 193.908 131.981 193.791 131.568 193.558C131.155 193.318 130.828 192.991 130.588 192.578C130.348 192.165 130.228 191.695 130.228 191.168C130.228 190.641 130.348 190.171 130.588 189.758C130.828 189.345 131.155 189.021 131.568 188.788C131.981 188.548 132.451 188.428 132.978 188.428C133.498 188.428 133.965 188.548 134.378 188.788C134.791 189.021 135.115 189.345 135.348 189.758C135.588 190.171 135.708 190.641 135.708 191.168C135.708 191.695 135.588 192.165 135.348 192.578C135.115 192.991 134.791 193.318 134.378 193.558C133.965 193.791 133.498 193.908 132.978 193.908ZM132.978 192.818C133.265 192.818 133.518 192.745 133.738 192.598C133.965 192.451 134.141 192.255 134.268 192.008C134.401 191.761 134.465 191.481 134.458 191.168C134.465 190.848 134.401 190.565 134.268 190.318C134.141 190.071 133.965 189.878 133.738 189.738C133.518 189.591 133.265 189.518 132.978 189.518C132.691 189.518 132.431 189.591 132.198 189.738C131.971 189.878 131.795 190.075 131.668 190.328C131.541 190.575 131.478 190.855 131.478 191.168C131.478 191.481 131.541 191.761 131.668 192.008C131.795 192.255 131.971 192.451 132.198 192.598C132.431 192.745 132.691 192.818 132.978 192.818Z" fill="white"/>
<path opacity="0.1" d="M93.9344 167.495L58.4173 182.905C57.0914 183.48 56.332 184.873 56.6183 186.289C58.1738 193.986 63.7228 218.263 74.0568 231.011C83.1154 242.187 103.245 251.802 108.17 254.964C111.911 250.464 128.342 235.205 133.609 221.818C139.617 206.547 137.587 181.727 136.749 173.919C136.595 172.482 135.451 171.384 134.014 171.235L95.503 167.253C94.968 167.198 94.4278 167.281 93.9344 167.495Z" fill="black"/>
<path d="M107.699 161.789C108.323 161.626 108.978 161.626 109.602 161.789L147.055 171.6C148.727 172.038 149.896 173.553 149.815 175.303C149.633 179.239 149.095 187.438 147.565 196.435C146.038 205.416 143.511 215.261 139.319 222.448C135.638 228.759 129.115 235.066 123.011 240.254C119.953 242.854 116.986 245.184 114.513 247.104C112.029 249.033 110.071 250.526 108.995 251.478L108.581 251.844L108.167 251.478C107.089 250.525 105.141 249.031 102.67 247.103C100.21 245.183 97.2606 242.853 94.2195 240.253C88.1509 235.065 81.6623 228.758 77.9822 222.448C73.79 215.261 71.2634 205.416 69.7361 196.435C68.2063 187.438 67.6682 179.239 67.4861 175.303C67.4053 173.553 68.5746 172.038 70.2468 171.6L107.699 161.789Z" fill="white" stroke="#03092D" stroke-width="1.25"/>
<path d="M107.985 166.759C108.401 166.65 108.839 166.65 109.255 166.759L142.991 175.594C143.979 175.853 144.642 176.735 144.596 177.732C144.433 181.258 143.951 188.606 142.581 196.661C141.208 204.73 138.955 213.444 135.281 219.742C132.066 225.252 126.31 230.836 120.815 235.506C118.074 237.835 115.412 239.925 113.184 241.655C111.244 243.161 109.611 244.409 108.557 245.295C107.506 244.41 105.881 243.161 103.952 241.656C101.735 239.926 99.0887 237.836 96.3638 235.507C90.9 230.837 85.1748 225.253 81.9595 219.742C78.3257 213.513 76.0813 204.921 74.7046 196.925C73.3303 188.944 72.8303 181.62 72.6548 177.968C72.6004 176.832 73.357 175.828 74.481 175.534L107.985 166.759Z" fill="#E9EEF5" stroke="#03092D" stroke-width="1.25"/>
<path d="M98.7559 196.309C101.51 198.66 106.331 203.363 106.331 203.363C106.331 203.363 115.372 192.06 119.733 188.212" stroke="#2E55EC" stroke-width="2" stroke-linecap="round" stroke-linejoin="round"/>
</g>
<defs>
<linearGradient id="paint0_linear_1006_3766" x1="119.209" y1="95.1357" x2="119.209" y2="264.319" gradientUnits="userSpaceOnUse">
<stop stop-color="#AEAEFF"/>
<stop offset="1" stop-color="white" stop-opacity="0.8"/>
</linearGradient>
<clipPath id="clip0_1006_3766">
<rect width="217" height="210" fill="white"/>
</clipPath>
<clipPath id="clip1_1006_3766">
<path d="M71.356 79.9141H145.37V131.132C145.37 151.571 128.802 168.139 108.363 168.139V168.139C87.9247 168.139 71.356 151.571 71.356 131.132V79.9141Z" fill="white"/>
</clipPath>
</defs>
</svg>
