<svg width="217" height="210" viewBox="0 0 217 210" fill="none" xmlns="http://www.w3.org/2000/svg">
<g clip-path="url(#clip0_1006_3879)">
<path d="M61.3179 18H155.772H161.431C167.645 18 172.683 23.0378 172.683 29.2523V34.9529V43.8803H173.808V66.1036H172.683V70.3232V72.0111H173.808V82.9821H172.683V217.715V230.733V231.794C172.683 238.008 167.645 243.046 161.431 243.046H157.871H64.5213H58.1274C50.5497 243.046 44.4069 236.903 44.4072 229.325V225.504V225.443V83.2634H43V59.0709H44.4072V34.9529V29.2523C44.4072 23.0378 49.4451 18 55.6596 18H61.3179Z" fill="#E9EEF5" stroke="#03092D" stroke-linecap="round" stroke-linejoin="round"/>
<path d="M108.543 28.0018C107.369 28.0018 106.417 27.0501 106.417 25.8761C106.417 24.7022 107.369 23.7505 108.543 23.7505C109.717 23.7505 110.668 24.7022 110.668 25.8761C110.668 27.0501 109.717 28.0018 108.543 28.0018Z" fill="#03092D"/>
<path d="M168.182 38.7753V214.227V226.724V230.106C168.182 234.766 164.404 238.545 159.743 238.545H154.41H67.6109H57.3473C52.6863 238.545 48.9079 234.766 48.9081 230.105L48.9083 225.373V221.705V221.646V38.7753V30.9397C48.9083 26.2789 52.6867 22.5005 57.3475 22.5005H64.6322H84.4135C85.9637 22.5005 87.2203 23.7571 87.2203 25.3073C87.2203 29.9578 90.9903 33.7278 95.6408 33.7278H121.205C125.856 33.7278 129.626 29.9578 129.626 25.3073C129.626 23.7571 130.882 22.5005 132.433 22.5005H152.458H159.743C164.404 22.5005 168.182 26.2789 168.182 30.9397V38.7753Z" fill="#FAFAFA" stroke="#03092D" stroke-linecap="round" stroke-linejoin="round"/>
<path opacity="0.1" d="M66.0034 124.684H63.001" stroke="#3449FC" stroke-width="0.892793" stroke-linecap="round"/>
<path d="M156.621 124.684H153.619" stroke="#3449FC" stroke-width="0.892793" stroke-linecap="round"/>
<path d="M156.623 124.684H153.62" stroke="#3449FC" stroke-width="0.892793" stroke-linecap="round"/>
<path opacity="0.1" d="M66.0034 112.128H63.001" stroke="#3449FC" stroke-width="0.892793" stroke-linecap="round"/>
<path d="M156.623 112.129H153.62" stroke="#3449FC" stroke-width="0.892793" stroke-linecap="round"/>
<path opacity="0.1" d="M66.0024 136.694H63" stroke="#3449FC" stroke-width="0.892793" stroke-linecap="round"/>
<path d="M156.621 136.694H153.619" stroke="#3449FC" stroke-width="0.892793" stroke-linecap="round"/>
<path d="M109.947 72.4971V69" stroke="#3449FC" stroke-width="0.892793" stroke-linecap="round"/>
<path d="M109.948 179V175.503" stroke="#3449FC" stroke-width="0.892793" stroke-linecap="round"/>
<path d="M123.276 74.5259L124.181 71.148" stroke="#3449FC" stroke-width="0.892793" stroke-linecap="round"/>
<path d="M95.7107 176.852L96.6158 173.474" stroke="#3449FC" stroke-width="0.892793" stroke-linecap="round"/>
<path d="M135.664 80.688L137.386 77.7049" stroke="#3449FC" stroke-width="0.892793" stroke-linecap="round"/>
<path d="M82.8809 170.745L84.6031 167.762" stroke="#3449FC" stroke-width="0.892793" stroke-linecap="round"/>
<path d="M144.615 89.9976L147.05 87.5619" stroke="#3449FC" stroke-width="0.892793" stroke-linecap="round"/>
<path opacity="0.1" d="M72.8274 160.965L75.2631 158.529" stroke="#3449FC" stroke-width="0.892793" stroke-linecap="round"/>
<path d="M150.619 100.749L153.602 99.0267" stroke="#3449FC" stroke-width="0.892793" stroke-linecap="round"/>
<path opacity="0.1" d="M66.0034 149.607L68.9865 147.885" stroke="#3449FC" stroke-width="0.892793" stroke-linecap="round"/>
<path opacity="0.1" d="M68.9863 100.75L66.0032 99.0272" stroke="#3449FC" stroke-width="0.892793" stroke-linecap="round"/>
<path d="M153.602 149.607L150.619 147.885" stroke="#3449FC" stroke-width="0.892793" stroke-linecap="round"/>
<path opacity="0.1" d="M75.2627 89.998L72.827 87.5624" stroke="#3449FC" stroke-width="0.892793" stroke-linecap="round"/>
<path d="M147.047 160.965L144.611 158.53" stroke="#3449FC" stroke-width="0.892793" stroke-linecap="round"/>
<path opacity="0.1" d="M84.603 80.6855L82.8807 77.7025" stroke="#3449FC" stroke-width="0.892793" stroke-linecap="round"/>
<path d="M137.386 170.743L135.664 167.76" stroke="#3449FC" stroke-width="0.892793" stroke-linecap="round"/>
<path opacity="0.1" d="M96.6179 74.5259L95.7128 71.148" stroke="#3449FC" stroke-width="0.892793" stroke-linecap="round"/>
<path d="M124.184 176.852L123.279 173.474" stroke="#3449FC" stroke-width="0.892793" stroke-linecap="round"/>
<rect x="58.2963" y="43.7685" width="100.496" height="18.2257" rx="2.42592" stroke="#03092D" stroke-width="0.774306"/>
<path d="M78.5447 55.5411C77.0756 55.5411 75.8847 54.3502 75.8847 52.8811C75.8847 51.4121 77.0756 50.2212 78.5447 50.2212C80.0137 50.2212 81.2046 51.4121 81.2046 52.8811C81.2046 54.3502 80.0137 55.5411 78.5447 55.5411Z" fill="#FF1E1E"/>
<path d="M89.3413 56.3813L86.5413 49.3813H87.7713L89.4413 53.6313C89.5213 53.838 89.5913 54.0247 89.6513 54.1913C89.7179 54.358 89.7746 54.5113 89.8213 54.6513C89.8679 54.7847 89.9113 54.9113 89.9513 55.0313C89.9913 55.1513 90.0313 55.2713 90.0713 55.3913L89.8113 55.4013C89.8579 55.2413 89.9079 55.0747 89.9613 54.9013C90.0146 54.728 90.0746 54.538 90.1413 54.3313C90.2146 54.1247 90.3013 53.8913 90.4013 53.6313L91.9513 49.3813H93.2113L90.3913 56.3813H89.3413ZM94.3397 56.3813V51.1313H95.3697V56.3813H94.3397ZM94.8397 49.9713C94.6197 49.9713 94.4497 49.9147 94.3297 49.8013C94.2097 49.688 94.1497 49.528 94.1497 49.3213C94.1497 49.128 94.2097 48.9713 94.3297 48.8513C94.4564 48.7313 94.6264 48.6713 94.8397 48.6713C95.0597 48.6713 95.2297 48.728 95.3497 48.8413C95.4697 48.9547 95.5297 49.1147 95.5297 49.3213C95.5297 49.5147 95.4664 49.6713 95.3397 49.7913C95.2197 49.9113 95.053 49.9713 94.8397 49.9713ZM99.1429 56.4813C98.6629 56.4813 98.2329 56.3647 97.8529 56.1313C97.4796 55.8913 97.1829 55.568 96.9629 55.1613C96.7429 54.748 96.6329 54.278 96.6329 53.7513C96.6329 53.2247 96.7396 52.758 96.9529 52.3513C97.1729 51.938 97.4696 51.6147 97.8429 51.3813C98.2162 51.1413 98.6396 51.0213 99.1129 51.0213C99.3729 51.0213 99.6229 51.0647 99.8629 51.1513C100.11 51.2313 100.33 51.3447 100.523 51.4913C100.716 51.6313 100.866 51.788 100.973 51.9613C101.086 52.128 101.143 52.298 101.143 52.4713L100.843 52.4913V48.9813H101.873V56.3813H100.843V55.1313H101.043C101.043 55.2913 100.99 55.4513 100.883 55.6113C100.776 55.7647 100.633 55.908 100.453 56.0413C100.28 56.1747 100.076 56.2813 99.8429 56.3613C99.6162 56.4413 99.3829 56.4813 99.1429 56.4813ZM99.2829 55.5913C99.5962 55.5913 99.8729 55.5113 100.113 55.3513C100.353 55.1913 100.54 54.9747 100.673 54.7013C100.813 54.4213 100.883 54.1047 100.883 53.7513C100.883 53.398 100.813 53.0847 100.673 52.8113C100.54 52.5313 100.353 52.3113 100.113 52.1513C99.8729 51.9913 99.5962 51.9113 99.2829 51.9113C98.9696 51.9113 98.6929 51.9913 98.4529 52.1513C98.2129 52.3113 98.0229 52.5313 97.8829 52.8113C97.7496 53.0847 97.6829 53.398 97.6829 53.7513C97.6829 54.1047 97.7496 54.4213 97.8829 54.7013C98.0229 54.9747 98.2129 55.1913 98.4529 55.3513C98.6929 55.5113 98.9696 55.5913 99.2829 55.5913ZM105.741 56.4813C105.201 56.4813 104.721 56.368 104.301 56.1413C103.887 55.908 103.561 55.5913 103.321 55.1913C103.087 54.7913 102.971 54.3313 102.971 53.8113C102.971 53.398 103.037 53.0213 103.171 52.6813C103.304 52.3413 103.487 52.048 103.721 51.8013C103.961 51.548 104.244 51.3547 104.571 51.2213C104.904 51.0813 105.264 51.0113 105.651 51.0113C105.991 51.0113 106.307 51.078 106.601 51.2113C106.894 51.338 107.147 51.5147 107.361 51.7413C107.581 51.968 107.747 52.238 107.861 52.5513C107.981 52.858 108.037 53.1947 108.031 53.5613L108.021 54.0013H103.731L103.501 53.1813H107.131L106.981 53.3513V53.1113C106.961 52.8913 106.887 52.6947 106.761 52.5213C106.634 52.348 106.474 52.2113 106.281 52.1113C106.087 52.0113 105.877 51.9613 105.651 51.9613C105.291 51.9613 104.987 52.0313 104.741 52.1713C104.494 52.3047 104.307 52.5047 104.181 52.7713C104.054 53.0313 103.991 53.3547 103.991 53.7413C103.991 54.108 104.067 54.428 104.221 54.7013C104.374 54.968 104.591 55.1747 104.871 55.3213C105.151 55.468 105.474 55.5413 105.841 55.5413C106.101 55.5413 106.341 55.498 106.561 55.4113C106.787 55.3247 107.031 55.168 107.291 54.9413L107.811 55.6713C107.651 55.8313 107.454 55.9713 107.221 56.0913C106.994 56.2113 106.751 56.308 106.491 56.3813C106.237 56.448 105.987 56.4813 105.741 56.4813ZM111.51 56.4813C110.997 56.4813 110.537 56.3647 110.13 56.1313C109.73 55.8913 109.414 55.568 109.18 55.1613C108.947 54.748 108.83 54.278 108.83 53.7513C108.83 53.2247 108.947 52.758 109.18 52.3513C109.414 51.938 109.73 51.6147 110.13 51.3813C110.537 51.1413 110.997 51.0213 111.51 51.0213C112.017 51.0213 112.47 51.1413 112.87 51.3813C113.277 51.6147 113.597 51.938 113.83 52.3513C114.064 52.758 114.18 53.2247 114.18 53.7513C114.18 54.278 114.064 54.748 113.83 55.1613C113.597 55.568 113.277 55.8913 112.87 56.1313C112.47 56.3647 112.017 56.4813 111.51 56.4813ZM111.51 55.5413C111.824 55.5413 112.104 55.4647 112.35 55.3113C112.597 55.1513 112.79 54.938 112.93 54.6713C113.07 54.398 113.137 54.0913 113.13 53.7513C113.137 53.4047 113.07 53.098 112.93 52.8313C112.79 52.558 112.597 52.3447 112.35 52.1913C112.104 52.038 111.824 51.9613 111.51 51.9613C111.197 51.9613 110.914 52.0413 110.66 52.2013C110.414 52.3547 110.22 52.568 110.08 52.8413C109.94 53.108 109.874 53.4113 109.88 53.7513C109.874 54.0913 109.94 54.398 110.08 54.6713C110.22 54.938 110.414 55.1513 110.66 55.3113C110.914 55.4647 111.197 55.5413 111.51 55.5413ZM119.855 56.4813C119.415 56.4813 119.019 56.4047 118.665 56.2513C118.312 56.098 118.019 55.8713 117.785 55.5713L118.485 54.9713C118.685 55.2047 118.902 55.3747 119.135 55.4813C119.375 55.5813 119.645 55.6313 119.945 55.6313C120.065 55.6313 120.175 55.618 120.275 55.5913C120.382 55.558 120.472 55.5113 120.545 55.4513C120.625 55.3913 120.685 55.3213 120.725 55.2413C120.765 55.1547 120.785 55.0613 120.785 54.9613C120.785 54.788 120.722 54.648 120.595 54.5413C120.529 54.4947 120.422 54.4447 120.275 54.3913C120.135 54.3313 119.952 54.2713 119.725 54.2113C119.339 54.1113 119.022 53.998 118.775 53.8713C118.529 53.7447 118.339 53.6013 118.205 53.4413C118.105 53.3147 118.032 53.178 117.985 53.0313C117.939 52.878 117.915 52.7113 117.915 52.5313C117.915 52.3113 117.962 52.1113 118.055 51.9313C118.155 51.7447 118.289 51.5847 118.455 51.4513C118.629 51.3113 118.829 51.2047 119.055 51.1313C119.289 51.058 119.535 51.0213 119.795 51.0213C120.042 51.0213 120.285 51.0547 120.525 51.1213C120.772 51.188 120.999 51.2847 121.205 51.4113C121.412 51.538 121.585 51.688 121.725 51.8613L121.135 52.5113C121.009 52.3847 120.869 52.2747 120.715 52.1813C120.569 52.0813 120.419 52.0047 120.265 51.9513C120.112 51.898 119.972 51.8713 119.845 51.8713C119.705 51.8713 119.579 51.8847 119.465 51.9113C119.352 51.938 119.255 51.978 119.175 52.0313C119.102 52.0847 119.045 52.1513 119.005 52.2313C118.965 52.3113 118.945 52.4013 118.945 52.5013C118.952 52.588 118.972 52.6713 119.005 52.7513C119.045 52.8247 119.099 52.888 119.165 52.9413C119.239 52.9947 119.349 53.0513 119.495 53.1113C119.642 53.1713 119.829 53.228 120.055 53.2813C120.389 53.368 120.662 53.4647 120.875 53.5713C121.095 53.6713 121.269 53.788 121.395 53.9213C121.529 54.048 121.622 54.1947 121.675 54.3613C121.729 54.528 121.755 54.7147 121.755 54.9213C121.755 55.2213 121.669 55.4913 121.495 55.7313C121.329 55.9647 121.102 56.148 120.815 56.2813C120.529 56.4147 120.209 56.4813 119.855 56.4813ZM125.34 56.4813C124.8 56.4813 124.32 56.368 123.9 56.1413C123.487 55.908 123.16 55.5913 122.92 55.1913C122.687 54.7913 122.57 54.3313 122.57 53.8113C122.57 53.398 122.637 53.0213 122.77 52.6813C122.904 52.3413 123.087 52.048 123.32 51.8013C123.56 51.548 123.844 51.3547 124.17 51.2213C124.504 51.0813 124.864 51.0113 125.25 51.0113C125.59 51.0113 125.907 51.078 126.2 51.2113C126.494 51.338 126.747 51.5147 126.96 51.7413C127.18 51.968 127.347 52.238 127.46 52.5513C127.58 52.858 127.637 53.1947 127.63 53.5613L127.62 54.0013H123.33L123.1 53.1813H126.73L126.58 53.3513V53.1113C126.56 52.8913 126.487 52.6947 126.36 52.5213C126.234 52.348 126.074 52.2113 125.88 52.1113C125.687 52.0113 125.477 51.9613 125.25 51.9613C124.89 51.9613 124.587 52.0313 124.34 52.1713C124.094 52.3047 123.907 52.5047 123.78 52.7713C123.654 53.0313 123.59 53.3547 123.59 53.7413C123.59 54.108 123.667 54.428 123.82 54.7013C123.974 54.968 124.19 55.1747 124.47 55.3213C124.75 55.468 125.074 55.5413 125.44 55.5413C125.7 55.5413 125.94 55.498 126.16 55.4113C126.387 55.3247 126.63 55.168 126.89 54.9413L127.41 55.6713C127.25 55.8313 127.054 55.9713 126.82 56.0913C126.594 56.2113 126.35 56.308 126.09 56.3813C125.837 56.448 125.587 56.4813 125.34 56.4813ZM128.77 56.3813V48.9813H129.8V56.3813H128.77ZM131.83 56.3813V50.5413C131.83 50.2413 131.896 49.9747 132.03 49.7413C132.163 49.508 132.346 49.3247 132.58 49.1913C132.813 49.058 133.083 48.9913 133.39 48.9913C133.603 48.9913 133.803 49.0313 133.99 49.1113C134.176 49.1913 134.326 49.298 134.44 49.4313L134.09 50.2213C134.003 50.1413 133.906 50.078 133.8 50.0313C133.7 49.978 133.603 49.9513 133.51 49.9513C133.37 49.9513 133.25 49.9747 133.15 50.0213C133.056 50.0613 132.986 50.128 132.94 50.2213C132.893 50.308 132.87 50.4147 132.87 50.5413V56.3813H132.35C132.263 56.3813 132.176 56.3813 132.09 56.3813C132.003 56.3813 131.916 56.3813 131.83 56.3813ZM130.99 52.1713V51.2213H134.11V52.1713H130.99ZM135.36 56.3813V51.1313H136.39V56.3813H135.36ZM135.86 49.9713C135.64 49.9713 135.47 49.9147 135.35 49.8013C135.23 49.688 135.17 49.528 135.17 49.3213C135.17 49.128 135.23 48.9713 135.35 48.8513C135.476 48.7313 135.646 48.6713 135.86 48.6713C136.08 48.6713 136.25 48.728 136.37 48.8413C136.49 48.9547 136.55 49.1147 136.55 49.3213C136.55 49.5147 136.486 49.6713 136.36 49.7913C136.24 49.9113 136.073 49.9713 135.86 49.9713ZM140.419 56.4813C139.879 56.4813 139.399 56.368 138.979 56.1413C138.565 55.908 138.239 55.5913 137.999 55.1913C137.765 54.7913 137.649 54.3313 137.649 53.8113C137.649 53.398 137.715 53.0213 137.849 52.6813C137.982 52.3413 138.165 52.048 138.399 51.8013C138.639 51.548 138.922 51.3547 139.249 51.2213C139.582 51.0813 139.942 51.0113 140.329 51.0113C140.669 51.0113 140.985 51.078 141.279 51.2113C141.572 51.338 141.825 51.5147 142.039 51.7413C142.259 51.968 142.425 52.238 142.539 52.5513C142.659 52.858 142.715 53.1947 142.709 53.5613L142.699 54.0013H138.409L138.179 53.1813H141.809L141.659 53.3513V53.1113C141.639 52.8913 141.565 52.6947 141.439 52.5213C141.312 52.348 141.152 52.2113 140.959 52.1113C140.765 52.0113 140.555 51.9613 140.329 51.9613C139.969 51.9613 139.665 52.0313 139.419 52.1713C139.172 52.3047 138.985 52.5047 138.859 52.7713C138.732 53.0313 138.669 53.3547 138.669 53.7413C138.669 54.108 138.745 54.428 138.899 54.7013C139.052 54.968 139.269 55.1747 139.549 55.3213C139.829 55.468 140.152 55.5413 140.519 55.5413C140.779 55.5413 141.019 55.498 141.239 55.4113C141.465 55.3247 141.709 55.168 141.969 54.9413L142.489 55.6713C142.329 55.8313 142.132 55.9713 141.899 56.0913C141.672 56.2113 141.429 56.308 141.169 56.3813C140.915 56.448 140.665 56.4813 140.419 56.4813Z" fill="#03092D"/>
<path d="M108.659 79.4141C131.214 79.4141 149.423 99.4316 149.423 124.026C149.423 148.621 131.214 168.64 108.659 168.64C86.104 168.64 67.8955 148.621 67.8955 124.026C67.8957 99.4317 86.1041 79.4142 108.659 79.4141Z" fill="#E9EEF5" stroke="#2E55EC"/>
<g clip-path="url(#clip1_1006_3879)">
<path d="M105.492 149.027L98.0985 146.973V140.401L95.634 133.008L93.5803 124.793V118.632L96.8663 114.114L108.778 109.595L114.118 102.613L126.44 109.595L129.726 115.346L128.494 124.793L126.44 135.472L117.814 142.866L110.421 145.741V147.795L105.492 149.027Z" fill="#FFCEB6"/>
<path d="M98.8123 143.446C98.8123 142.407 106.206 149.409 110.724 146.123V148.177L103.145 149.189L98.8123 146.944C98.1277 145.027 98.8123 144.678 98.8123 143.446Z" fill="#F9AC8A"/>
<path d="M114.796 176.826C113.184 162.35 109.287 156.867 106.909 151.015C106.561 150.159 107.039 149.207 107.92 148.927L110.748 148.028C111.06 147.929 111.395 147.925 111.709 148.018L122.784 151.275C122.943 151.322 123.094 151.392 123.232 151.484L131.886 157.254C132.213 157.472 132.451 157.799 132.557 158.178L134.681 165.765C134.772 166.091 134.761 166.437 134.647 166.756L130.296 179.043C129.984 179.922 129.003 180.366 128.137 180.02L125.872 179.114C125.714 179.05 125.599 178.91 125.568 178.742C125.463 178.162 124.614 178.218 124.586 178.807L124.576 179.012L116.301 178.306C115.511 178.239 114.883 177.614 114.796 176.826Z" fill="#E1F0FF"/>
<path d="M108.368 149.026C108.779 149.848 109.518 152.394 110.832 156.009C112.101 159.497 113.614 170.817 114.427 179.01H99.7425C97.6888 172.028 102.207 152.312 93.1707 149.437L97.6888 147.794L103.029 149.437L108.368 149.026Z" fill="white"/>
<path d="M108.628 159.235C107.782 159.556 105.358 160.416 101.858 159.046" stroke="#03092D" stroke-linecap="round"/>
<path d="M85.0231 177.801L73.7043 184.352V170.924V159.945C73.7043 158.461 74.5152 157.095 75.8185 156.384L82.2625 152.869C82.5063 152.736 82.7631 152.628 83.029 152.548L91.9367 149.849C94.3056 149.203 96.7435 150.782 97.068 153.215L98.0979 160.94L100.221 178.912L88.6408 180.361C87.8182 180.464 87.0916 179.823 87.0916 178.994C87.0916 177.932 85.9419 177.269 85.0231 177.801Z" fill="#E1F0FF"/>
<path d="M129.181 117.655C130.081 118.352 132.199 119.666 133.466 119.349C132.674 118.953 133.143 116.792 133.863 115.785C135.843 113.012 135.843 109.447 135.843 109.447C135.711 108.523 135.051 107.467 133.466 105.882C131.958 104.374 133.466 97.9606 118.811 96.3763C114.485 96.1359 108.632 91.9135 98.6619 100.558C96.5564 102.383 95.2269 104.926 94.5442 107.628C93.7651 110.711 92.8904 114.366 92.8661 115.785C92.832 117.776 93.3612 119.437 93.4613 120.538C93.6999 118.579 94.2812 116.684 97.0147 115.785C103.574 113.627 105.694 115.314 112.066 107.577C116.502 102.19 122.64 108.787 123.564 111.428C124.885 110.768 130.694 110.636 129.181 117.655Z" fill="#4B4D59"/>
<path d="M110.492 145.888L110.529 145.389C110.274 145.37 110.045 145.547 110 145.799L110.492 145.888ZM118.811 142.323L119.064 142.754L119.07 142.75L118.811 142.323ZM123.564 138.758L123.923 139.106V139.106L123.564 138.758ZM127.129 133.609L126.713 133.332L126.701 133.35L126.691 133.368L127.129 133.609ZM129.181 117.655L128.692 117.55C128.683 117.593 128.679 117.637 128.681 117.68L129.181 117.655ZM97.0147 137.938L96.5516 138.127L96.5516 138.127L97.0147 137.938ZM98.2922 143.143L98.7874 143.074L98.7874 143.074L98.2922 143.143ZM98.0959 147.169L97.6436 146.956C97.5351 147.186 97.6169 147.461 97.8335 147.595L98.0959 147.169ZM133.466 119.349L133.588 119.834C133.791 119.783 133.941 119.612 133.963 119.404C133.986 119.196 133.877 118.995 133.69 118.902L133.466 119.349ZM133.863 115.785L134.269 116.075V116.075L133.863 115.785ZM135.843 109.447L136.343 109.447C136.343 109.424 136.341 109.4 136.338 109.377L135.843 109.447ZM133.466 105.882L133.82 105.529V105.529L133.466 105.882ZM118.811 96.3763L118.865 95.8792C118.856 95.8782 118.848 95.8775 118.839 95.877L118.811 96.3763ZM98.6619 100.558L98.9894 100.935V100.935L98.6619 100.558ZM94.5442 107.628L95.0289 107.751V107.751L94.5442 107.628ZM92.8661 115.785L93.366 115.793L92.8661 115.785ZM93.4613 120.538L93.9576 120.598V120.598L93.4613 120.538ZM97.0147 115.785L97.171 116.26V116.26L97.0147 115.785ZM112.066 107.577L112.452 107.895V107.895L112.066 107.577ZM123.564 111.428L123.092 111.593C123.14 111.729 123.243 111.837 123.376 111.891C123.509 111.945 123.659 111.939 123.788 111.875L123.564 111.428ZM93.868 126.102L94.36 126.013C94.3577 126 94.3549 125.987 94.3516 125.975L93.868 126.102ZM110.493 147.868L110.747 148.299C110.972 148.166 111.057 147.883 110.942 147.648L110.493 147.868ZM110.492 145.888L110.455 146.386C110.78 146.41 111.155 146.355 111.539 146.263C111.929 146.169 112.36 146.029 112.808 145.861C113.704 145.525 114.699 145.066 115.621 144.608C116.545 144.149 117.405 143.686 118.034 143.338C118.348 143.164 118.605 143.018 118.784 142.916C118.873 142.865 118.943 142.825 118.99 142.797C119.014 142.783 119.032 142.773 119.045 142.765C119.051 142.762 119.056 142.759 119.059 142.757C119.061 142.756 119.062 142.755 119.063 142.755C119.063 142.755 119.063 142.754 119.064 142.754C119.064 142.754 119.064 142.754 119.064 142.754C119.064 142.754 119.064 142.754 118.811 142.323C118.558 141.892 118.558 141.892 118.558 141.892C118.558 141.892 118.558 141.892 118.558 141.892C118.558 141.892 118.558 141.892 118.557 141.892C118.557 141.892 118.555 141.893 118.554 141.894C118.551 141.896 118.547 141.898 118.541 141.902C118.529 141.908 118.512 141.919 118.489 141.932C118.443 141.959 118.375 141.998 118.287 142.048C118.112 142.148 117.859 142.291 117.549 142.463C116.929 142.806 116.083 143.262 115.176 143.712C114.268 144.164 113.307 144.605 112.457 144.924C112.032 145.084 111.642 145.209 111.305 145.29C110.961 145.373 110.702 145.402 110.529 145.389L110.492 145.888ZM118.811 142.323C119.07 142.75 119.07 142.75 119.07 142.75C119.07 142.75 119.07 142.75 119.07 142.75C119.071 142.75 119.071 142.75 119.071 142.75C119.071 142.75 119.072 142.749 119.073 142.749C119.075 142.748 119.077 142.746 119.08 142.744C119.087 142.74 119.096 142.735 119.108 142.727C119.132 142.713 119.167 142.691 119.213 142.663C119.303 142.606 119.434 142.525 119.596 142.421C119.919 142.214 120.367 141.921 120.866 141.576C121.857 140.889 123.079 139.975 123.923 139.106L123.564 138.758L123.205 138.41C122.433 139.205 121.278 140.074 120.297 140.754C119.81 141.091 119.373 141.377 119.057 141.579C118.9 141.679 118.773 141.759 118.685 141.813C118.642 141.84 118.608 141.861 118.585 141.875C118.574 141.882 118.566 141.887 118.56 141.89C118.557 141.892 118.555 141.893 118.554 141.894C118.553 141.894 118.553 141.895 118.552 141.895C118.552 141.895 118.552 141.895 118.552 141.895C118.552 141.895 118.552 141.895 118.552 141.895C118.552 141.895 118.552 141.895 118.811 142.323ZM123.564 138.758L123.923 139.106C124.812 138.19 125.726 136.866 126.408 135.793C126.751 135.253 127.04 134.768 127.244 134.418C127.346 134.243 127.426 134.102 127.481 134.003C127.509 133.954 127.53 133.916 127.545 133.89C127.552 133.877 127.558 133.867 127.561 133.86C127.563 133.857 127.565 133.854 127.566 133.852C127.566 133.851 127.567 133.851 127.567 133.85C127.567 133.85 127.567 133.85 127.567 133.849C127.567 133.849 127.567 133.849 127.567 133.849C127.567 133.849 127.567 133.849 127.129 133.609C126.691 133.368 126.691 133.368 126.691 133.368C126.691 133.368 126.691 133.368 126.691 133.368C126.691 133.368 126.69 133.369 126.69 133.369C126.69 133.369 126.69 133.37 126.69 133.37C126.689 133.372 126.688 133.374 126.686 133.377C126.682 133.383 126.677 133.392 126.671 133.405C126.657 133.429 126.637 133.465 126.61 133.513C126.557 133.607 126.479 133.745 126.379 133.915C126.181 134.257 125.898 134.73 125.563 135.257C124.888 136.32 124.02 137.571 123.205 138.41L123.564 138.758ZM127.129 133.609C127.546 133.885 127.546 133.885 127.546 133.885C127.546 133.885 127.546 133.884 127.546 133.884C127.547 133.884 127.547 133.883 127.548 133.882C127.548 133.881 127.549 133.879 127.551 133.878C127.553 133.874 127.556 133.869 127.559 133.864C127.566 133.853 127.576 133.837 127.588 133.818C127.611 133.779 127.643 133.724 127.682 133.651C127.761 133.504 127.869 133.288 127.995 132.993C128.246 132.403 128.569 131.502 128.869 130.228C129.47 127.681 129.986 123.644 129.68 117.63L129.181 117.655L128.681 117.68C128.983 123.616 128.472 127.557 127.896 129.999C127.608 131.219 127.303 132.066 127.075 132.6C126.961 132.868 126.866 133.057 126.802 133.176C126.77 133.236 126.745 133.278 126.73 133.304C126.722 133.317 126.717 133.325 126.714 133.33C126.712 133.332 126.712 133.334 126.711 133.334C126.711 133.334 126.711 133.334 126.711 133.334C126.712 133.334 126.712 133.333 126.712 133.333C126.712 133.333 126.712 133.333 126.712 133.333C126.712 133.332 126.713 133.332 127.129 133.609ZM97.0147 137.938C96.5516 138.127 96.5516 138.127 96.5515 138.127C96.5515 138.127 96.5515 138.127 96.5515 138.127C96.5515 138.127 96.5515 138.127 96.5515 138.127C96.5515 138.127 96.5516 138.127 96.5517 138.127C96.5519 138.128 96.5523 138.129 96.553 138.13C96.5542 138.133 96.5563 138.139 96.5591 138.146C96.5646 138.16 96.5732 138.182 96.5844 138.211C96.6068 138.27 96.6399 138.359 96.6813 138.477C96.7641 138.711 96.8799 139.059 97.0095 139.503C97.2687 140.393 97.5823 141.67 97.797 143.212L98.2922 143.143L98.7874 143.074C98.5649 141.476 98.2398 140.151 97.9696 139.224C97.8344 138.76 97.7128 138.395 97.6244 138.144C97.5802 138.018 97.5442 137.922 97.519 137.855C97.5064 137.822 97.4964 137.797 97.4895 137.779C97.486 137.77 97.4833 137.763 97.4813 137.759C97.4803 137.756 97.4796 137.754 97.479 137.753C97.4787 137.752 97.4785 137.751 97.4783 137.751C97.4782 137.751 97.4781 137.751 97.478 137.75C97.478 137.75 97.478 137.75 97.4779 137.75C97.4779 137.75 97.4779 137.75 97.0147 137.938ZM98.2922 143.143L97.797 143.212C98.1332 145.63 97.8839 146.446 97.6436 146.956L98.0959 147.169L98.5482 147.382C98.9047 146.625 99.1371 145.588 98.7874 143.074L98.2922 143.143ZM129.181 117.655L128.875 118.051C129.348 118.417 130.133 118.94 130.973 119.335C131.394 119.532 131.84 119.703 132.277 119.803C132.709 119.902 133.166 119.94 133.588 119.834L133.466 119.349L133.345 118.864C133.134 118.917 132.85 118.909 132.5 118.829C132.155 118.75 131.778 118.608 131.398 118.43C130.637 118.072 129.914 117.59 129.486 117.26L129.181 117.655ZM133.466 119.349L133.69 118.902C133.688 118.901 133.624 118.868 133.583 118.666C133.543 118.471 133.543 118.196 133.592 117.871C133.691 117.216 133.964 116.503 134.269 116.075L133.863 115.785L133.456 115.494C133.042 116.074 132.721 116.944 132.603 117.721C132.544 118.112 132.531 118.514 132.603 118.867C132.674 119.213 132.849 119.599 133.243 119.796L133.466 119.349ZM133.863 115.785L134.269 116.075C135.316 114.611 135.83 112.951 136.086 111.674C136.214 111.033 136.278 110.482 136.31 110.088C136.327 109.892 136.335 109.734 136.339 109.625C136.341 109.57 136.342 109.527 136.342 109.497C136.343 109.482 136.343 109.47 136.343 109.462C136.343 109.458 136.343 109.455 136.343 109.452C136.343 109.451 136.343 109.45 136.343 109.449C136.343 109.449 136.343 109.448 136.343 109.448C136.343 109.448 136.343 109.448 136.343 109.448C136.343 109.447 136.343 109.447 135.843 109.447C135.343 109.447 135.343 109.447 135.343 109.447C135.343 109.447 135.343 109.447 135.343 109.447C135.343 109.447 135.343 109.447 135.343 109.447C135.343 109.447 135.343 109.447 135.343 109.448C135.343 109.449 135.343 109.45 135.343 109.453C135.343 109.458 135.343 109.467 135.343 109.479C135.342 109.503 135.341 109.539 135.34 109.587C135.336 109.683 135.329 109.826 135.314 110.007C135.284 110.369 135.225 110.881 135.105 111.478C134.865 112.677 134.39 114.186 133.456 115.494L133.863 115.785ZM135.843 109.447L136.338 109.377C136.181 108.278 135.412 107.121 133.82 105.529L133.466 105.882L133.113 106.236C134.689 107.813 135.241 108.768 135.348 109.518L135.843 109.447ZM133.466 105.882L133.82 105.529C133.704 105.413 133.593 105.223 133.468 104.917C133.341 104.607 133.23 104.257 133.072 103.815C132.765 102.956 132.33 101.9 131.454 100.84C129.694 98.7078 126.257 96.6783 118.865 95.8792L118.811 96.3763L118.757 96.8734C126.021 97.6586 129.157 99.6281 130.683 101.476C131.451 102.406 131.838 103.335 132.13 104.152C132.272 104.548 132.405 104.959 132.542 105.295C132.681 105.635 132.852 105.975 133.113 106.236L133.466 105.882ZM118.811 96.3763L118.839 95.877C117.811 95.8199 116.693 95.5263 115.349 95.2248C114.027 94.9281 112.535 94.6379 110.853 94.6353C107.464 94.6299 103.395 95.7923 98.3343 100.18L98.6619 100.558L98.9894 100.935C103.899 96.6789 107.741 95.6304 110.852 95.6353C112.421 95.6377 113.826 95.908 115.13 96.2005C116.412 96.4881 117.648 96.8124 118.783 96.8755L118.811 96.3763ZM94.5442 107.628L94.0594 107.506C93.6696 109.049 93.2544 110.74 92.9334 112.225C92.616 113.693 92.3793 115.01 92.3662 115.776L92.8661 115.785L93.366 115.793C93.3772 115.141 93.59 113.921 93.9108 112.436C94.228 110.969 94.6397 109.291 95.0289 107.751L94.5442 107.628ZM92.8661 115.785L92.3662 115.776C92.3483 116.818 92.4779 117.766 92.6209 118.581C92.7684 119.423 92.9157 120.059 92.9633 120.583L93.4613 120.538L93.9592 120.492C93.9067 119.915 93.7394 119.17 93.6058 118.409C93.4677 117.621 93.3497 116.743 93.366 115.793L92.8661 115.785ZM97.0147 115.785L97.171 116.26C98.7843 115.729 100.125 115.434 101.344 115.168C102.558 114.904 103.674 114.663 104.788 114.24C107.048 113.382 109.238 111.798 112.452 107.895L112.066 107.577L111.68 107.259C108.523 111.093 106.467 112.534 104.433 113.306C103.401 113.698 102.359 113.924 101.131 114.191C99.9093 114.458 98.5249 114.762 96.8585 115.31L97.0147 115.785ZM112.066 107.577L112.452 107.895C113.487 106.638 114.584 106.119 115.644 106.033C116.722 105.946 117.83 106.302 118.877 106.922C119.923 107.542 120.874 108.406 121.622 109.28C122.374 110.16 122.889 111.013 123.092 111.593L123.564 111.428L124.036 111.263C123.777 110.522 123.178 109.561 122.382 108.63C121.58 107.692 120.546 106.749 119.387 106.062C118.23 105.376 116.914 104.928 115.564 105.036C114.197 105.146 112.863 105.823 111.68 107.259L112.066 107.577ZM123.564 111.428L123.788 111.875C124.024 111.757 124.549 111.631 125.208 111.635C125.857 111.639 126.575 111.769 127.2 112.103C127.815 112.431 128.351 112.961 128.657 113.8C128.968 114.649 129.057 115.855 128.692 117.55L129.181 117.655L129.669 117.76C130.061 115.946 129.991 114.536 129.597 113.456C129.198 112.367 128.483 111.654 127.67 111.221C126.867 110.792 125.98 110.64 125.215 110.635C124.461 110.631 123.765 110.769 123.341 110.981L123.564 111.428ZM93.868 126.102L93.376 126.191C94.0031 129.648 95.0419 134.414 96.5516 138.127L97.0147 137.938L97.4779 137.75C96.0091 134.138 94.9848 129.457 94.36 126.013L93.868 126.102ZM97.0147 115.785L96.8585 115.31C95.3932 115.792 94.4634 116.558 93.8778 117.5C93.3023 118.425 93.0868 119.477 92.9649 120.477L93.4613 120.538L93.9576 120.598C94.0743 119.64 94.2688 118.765 94.727 118.028C95.1751 117.308 95.9028 116.677 97.171 116.26L97.0147 115.785ZM93.4613 120.538L92.9649 120.477C92.7908 121.907 92.8975 123.345 93.044 124.416C93.1176 124.953 93.2019 125.404 93.2681 125.72C93.3012 125.879 93.3298 126.004 93.3504 126.091C93.3607 126.134 93.3689 126.168 93.3748 126.191C93.3777 126.203 93.38 126.212 93.3816 126.218C93.3824 126.221 93.383 126.224 93.3835 126.225C93.3837 126.226 93.3839 126.227 93.3841 126.228C93.3842 126.228 93.3842 126.228 93.3843 126.228C93.3843 126.228 93.3843 126.229 93.3843 126.229C93.3844 126.229 93.3844 126.229 93.868 126.102C94.3516 125.975 94.3517 125.975 94.3517 125.975C94.3517 125.975 94.3517 125.975 94.3517 125.975C94.3517 125.975 94.3517 125.975 94.3517 125.975C94.3516 125.975 94.3516 125.975 94.3515 125.974C94.3512 125.973 94.3508 125.972 94.3502 125.97C94.3491 125.965 94.3472 125.958 94.3448 125.948C94.3399 125.929 94.3326 125.899 94.3233 125.86C94.3047 125.781 94.278 125.665 94.2469 125.516C94.1847 125.218 94.1047 124.791 94.0348 124.28C93.8944 123.254 93.7978 121.91 93.9576 120.598L93.4613 120.538ZM98.6619 100.558L98.3343 100.18C96.1334 102.088 94.7606 104.731 94.0594 107.506L94.5442 107.628L95.0289 107.751C95.6932 105.122 96.9794 102.678 98.9894 100.935L98.6619 100.558ZM110.492 145.888L110 145.799C109.929 146.194 109.512 147.001 110.044 148.088L110.493 147.868L110.942 147.648C110.6 146.95 110.856 146.686 110.984 145.976L110.492 145.888ZM110.493 147.868L110.239 147.437C108.616 148.395 106.912 148.988 105 148.969C103.085 148.95 100.914 148.319 98.3583 146.743L98.0959 147.169L97.8335 147.595C100.503 149.24 102.851 149.948 104.99 149.969C107.13 149.99 109.012 149.322 110.747 148.299L110.493 147.868Z" fill="url(#paint0_linear_1006_3879)"/>
<path d="M110.492 145.888L110.529 145.389C110.274 145.37 110.045 145.547 110 145.799L110.492 145.888ZM118.811 142.323L119.064 142.754L119.07 142.75L118.811 142.323ZM123.564 138.758L123.923 139.106V139.106L123.564 138.758ZM127.129 133.609L126.713 133.332L126.701 133.35L126.691 133.368L127.129 133.609ZM129.181 117.655L128.692 117.55C128.683 117.593 128.679 117.637 128.681 117.68L129.181 117.655ZM97.0147 137.938L96.5516 138.127L96.5516 138.127L97.0147 137.938ZM98.2922 143.143L98.7874 143.074L98.7874 143.074L98.2922 143.143ZM98.0959 147.169L97.6436 146.956C97.5351 147.186 97.6169 147.461 97.8335 147.595L98.0959 147.169ZM133.466 119.349L133.588 119.834C133.791 119.783 133.941 119.612 133.963 119.404C133.986 119.196 133.877 118.995 133.69 118.902L133.466 119.349ZM133.863 115.785L134.269 116.075V116.075L133.863 115.785ZM135.843 109.447L136.343 109.447C136.343 109.424 136.341 109.4 136.338 109.377L135.843 109.447ZM133.466 105.882L133.82 105.529V105.529L133.466 105.882ZM118.811 96.3763L118.865 95.8792C118.856 95.8782 118.848 95.8775 118.839 95.877L118.811 96.3763ZM98.6619 100.558L98.9894 100.935V100.935L98.6619 100.558ZM94.5442 107.628L95.0289 107.751V107.751L94.5442 107.628ZM92.8661 115.785L93.366 115.793L92.8661 115.785ZM93.4613 120.538L93.9576 120.598V120.598L93.4613 120.538ZM97.0147 115.785L97.171 116.26V116.26L97.0147 115.785ZM112.066 107.577L112.452 107.895V107.895L112.066 107.577ZM123.564 111.428L123.092 111.593C123.14 111.729 123.243 111.837 123.376 111.891C123.509 111.945 123.659 111.939 123.788 111.875L123.564 111.428ZM93.868 126.102L94.36 126.013C94.3577 126 94.3549 125.987 94.3516 125.975L93.868 126.102ZM110.493 147.868L110.747 148.299C110.972 148.166 111.057 147.883 110.942 147.648L110.493 147.868ZM110.492 145.888L110.455 146.386C110.78 146.41 111.155 146.355 111.539 146.263C111.929 146.169 112.36 146.029 112.808 145.861C113.704 145.525 114.699 145.066 115.621 144.608C116.545 144.149 117.405 143.686 118.034 143.338C118.348 143.164 118.605 143.018 118.784 142.916C118.873 142.865 118.943 142.825 118.99 142.797C119.014 142.783 119.032 142.773 119.045 142.765C119.051 142.762 119.056 142.759 119.059 142.757C119.061 142.756 119.062 142.755 119.063 142.755C119.063 142.755 119.063 142.754 119.064 142.754C119.064 142.754 119.064 142.754 119.064 142.754C119.064 142.754 119.064 142.754 118.811 142.323C118.558 141.892 118.558 141.892 118.558 141.892C118.558 141.892 118.558 141.892 118.558 141.892C118.558 141.892 118.558 141.892 118.557 141.892C118.557 141.892 118.555 141.893 118.554 141.894C118.551 141.896 118.547 141.898 118.541 141.902C118.529 141.908 118.512 141.919 118.489 141.932C118.443 141.959 118.375 141.998 118.287 142.048C118.112 142.148 117.859 142.291 117.549 142.463C116.929 142.806 116.083 143.262 115.176 143.712C114.268 144.164 113.307 144.605 112.457 144.924C112.032 145.084 111.642 145.209 111.305 145.29C110.961 145.373 110.702 145.402 110.529 145.389L110.492 145.888ZM118.811 142.323C119.07 142.75 119.07 142.75 119.07 142.75C119.07 142.75 119.07 142.75 119.07 142.75C119.071 142.75 119.071 142.75 119.071 142.75C119.071 142.75 119.072 142.749 119.073 142.749C119.075 142.748 119.077 142.746 119.08 142.744C119.087 142.74 119.096 142.735 119.108 142.727C119.132 142.713 119.167 142.691 119.213 142.663C119.303 142.606 119.434 142.525 119.596 142.421C119.919 142.214 120.367 141.921 120.866 141.576C121.857 140.889 123.079 139.975 123.923 139.106L123.564 138.758L123.205 138.41C122.433 139.205 121.278 140.074 120.297 140.754C119.81 141.091 119.373 141.377 119.057 141.579C118.9 141.679 118.773 141.759 118.685 141.813C118.642 141.84 118.608 141.861 118.585 141.875C118.574 141.882 118.566 141.887 118.56 141.89C118.557 141.892 118.555 141.893 118.554 141.894C118.553 141.894 118.553 141.895 118.552 141.895C118.552 141.895 118.552 141.895 118.552 141.895C118.552 141.895 118.552 141.895 118.552 141.895C118.552 141.895 118.552 141.895 118.811 142.323ZM123.564 138.758L123.923 139.106C124.812 138.19 125.726 136.866 126.408 135.793C126.751 135.253 127.04 134.768 127.244 134.418C127.346 134.243 127.426 134.102 127.481 134.003C127.509 133.954 127.53 133.916 127.545 133.89C127.552 133.877 127.558 133.867 127.561 133.86C127.563 133.857 127.565 133.854 127.566 133.852C127.566 133.851 127.567 133.851 127.567 133.85C127.567 133.85 127.567 133.85 127.567 133.849C127.567 133.849 127.567 133.849 127.567 133.849C127.567 133.849 127.567 133.849 127.129 133.609C126.691 133.368 126.691 133.368 126.691 133.368C126.691 133.368 126.691 133.368 126.691 133.368C126.691 133.368 126.69 133.369 126.69 133.369C126.69 133.369 126.69 133.37 126.69 133.37C126.689 133.372 126.688 133.374 126.686 133.377C126.682 133.383 126.677 133.392 126.671 133.405C126.657 133.429 126.637 133.465 126.61 133.513C126.557 133.607 126.479 133.745 126.379 133.915C126.181 134.257 125.898 134.73 125.563 135.257C124.888 136.32 124.02 137.571 123.205 138.41L123.564 138.758ZM127.129 133.609C127.546 133.885 127.546 133.885 127.546 133.885C127.546 133.885 127.546 133.884 127.546 133.884C127.547 133.884 127.547 133.883 127.548 133.882C127.548 133.881 127.549 133.879 127.551 133.878C127.553 133.874 127.556 133.869 127.559 133.864C127.566 133.853 127.576 133.837 127.588 133.818C127.611 133.779 127.643 133.724 127.682 133.651C127.761 133.504 127.869 133.288 127.995 132.993C128.246 132.403 128.569 131.502 128.869 130.228C129.47 127.681 129.986 123.644 129.68 117.63L129.181 117.655L128.681 117.68C128.983 123.616 128.472 127.557 127.896 129.999C127.608 131.219 127.303 132.066 127.075 132.6C126.961 132.868 126.866 133.057 126.802 133.176C126.77 133.236 126.745 133.278 126.73 133.304C126.722 133.317 126.717 133.325 126.714 133.33C126.712 133.332 126.712 133.334 126.711 133.334C126.711 133.334 126.711 133.334 126.711 133.334C126.712 133.334 126.712 133.333 126.712 133.333C126.712 133.333 126.712 133.333 126.712 133.333C126.712 133.332 126.713 133.332 127.129 133.609ZM97.0147 137.938C96.5516 138.127 96.5516 138.127 96.5515 138.127C96.5515 138.127 96.5515 138.127 96.5515 138.127C96.5515 138.127 96.5515 138.127 96.5515 138.127C96.5515 138.127 96.5516 138.127 96.5517 138.127C96.5519 138.128 96.5523 138.129 96.553 138.13C96.5542 138.133 96.5563 138.139 96.5591 138.146C96.5646 138.16 96.5732 138.182 96.5844 138.211C96.6068 138.27 96.6399 138.359 96.6813 138.477C96.7641 138.711 96.8799 139.059 97.0095 139.503C97.2687 140.393 97.5823 141.67 97.797 143.212L98.2922 143.143L98.7874 143.074C98.5649 141.476 98.2398 140.151 97.9696 139.224C97.8344 138.76 97.7128 138.395 97.6244 138.144C97.5802 138.018 97.5442 137.922 97.519 137.855C97.5064 137.822 97.4964 137.797 97.4895 137.779C97.486 137.77 97.4833 137.763 97.4813 137.759C97.4803 137.756 97.4796 137.754 97.479 137.753C97.4787 137.752 97.4785 137.751 97.4783 137.751C97.4782 137.751 97.4781 137.751 97.478 137.75C97.478 137.75 97.478 137.75 97.4779 137.75C97.4779 137.75 97.4779 137.75 97.0147 137.938ZM98.2922 143.143L97.797 143.212C98.1332 145.63 97.8839 146.446 97.6436 146.956L98.0959 147.169L98.5482 147.382C98.9047 146.625 99.1371 145.588 98.7874 143.074L98.2922 143.143ZM129.181 117.655L128.875 118.051C129.348 118.417 130.133 118.94 130.973 119.335C131.394 119.532 131.84 119.703 132.277 119.803C132.709 119.902 133.166 119.94 133.588 119.834L133.466 119.349L133.345 118.864C133.134 118.917 132.85 118.909 132.5 118.829C132.155 118.75 131.778 118.608 131.398 118.43C130.637 118.072 129.914 117.59 129.486 117.26L129.181 117.655ZM133.466 119.349L133.69 118.902C133.688 118.901 133.624 118.868 133.583 118.666C133.543 118.471 133.543 118.196 133.592 117.871C133.691 117.216 133.964 116.503 134.269 116.075L133.863 115.785L133.456 115.494C133.042 116.074 132.721 116.944 132.603 117.721C132.544 118.112 132.531 118.514 132.603 118.867C132.674 119.213 132.849 119.599 133.243 119.796L133.466 119.349ZM133.863 115.785L134.269 116.075C135.316 114.611 135.83 112.951 136.086 111.674C136.214 111.033 136.278 110.482 136.31 110.088C136.327 109.892 136.335 109.734 136.339 109.625C136.341 109.57 136.342 109.527 136.342 109.497C136.343 109.482 136.343 109.47 136.343 109.462C136.343 109.458 136.343 109.455 136.343 109.452C136.343 109.451 136.343 109.45 136.343 109.449C136.343 109.449 136.343 109.448 136.343 109.448C136.343 109.448 136.343 109.448 136.343 109.448C136.343 109.447 136.343 109.447 135.843 109.447C135.343 109.447 135.343 109.447 135.343 109.447C135.343 109.447 135.343 109.447 135.343 109.447C135.343 109.447 135.343 109.447 135.343 109.447C135.343 109.447 135.343 109.447 135.343 109.448C135.343 109.449 135.343 109.45 135.343 109.453C135.343 109.458 135.343 109.467 135.343 109.479C135.342 109.503 135.341 109.539 135.34 109.587C135.336 109.683 135.329 109.826 135.314 110.007C135.284 110.369 135.225 110.881 135.105 111.478C134.865 112.677 134.39 114.186 133.456 115.494L133.863 115.785ZM135.843 109.447L136.338 109.377C136.181 108.278 135.412 107.121 133.82 105.529L133.466 105.882L133.113 106.236C134.689 107.813 135.241 108.768 135.348 109.518L135.843 109.447ZM133.466 105.882L133.82 105.529C133.704 105.413 133.593 105.223 133.468 104.917C133.341 104.607 133.23 104.257 133.072 103.815C132.765 102.956 132.33 101.9 131.454 100.84C129.694 98.7078 126.257 96.6783 118.865 95.8792L118.811 96.3763L118.757 96.8734C126.021 97.6586 129.157 99.6281 130.683 101.476C131.451 102.406 131.838 103.335 132.13 104.152C132.272 104.548 132.405 104.959 132.542 105.295C132.681 105.635 132.852 105.975 133.113 106.236L133.466 105.882ZM118.811 96.3763L118.839 95.877C117.811 95.8199 116.693 95.5263 115.349 95.2248C114.027 94.9281 112.535 94.6379 110.853 94.6353C107.464 94.6299 103.395 95.7923 98.3343 100.18L98.6619 100.558L98.9894 100.935C103.899 96.6789 107.741 95.6304 110.852 95.6353C112.421 95.6377 113.826 95.908 115.13 96.2005C116.412 96.4881 117.648 96.8124 118.783 96.8755L118.811 96.3763ZM94.5442 107.628L94.0594 107.506C93.6696 109.049 93.2544 110.74 92.9334 112.225C92.616 113.693 92.3793 115.01 92.3662 115.776L92.8661 115.785L93.366 115.793C93.3772 115.141 93.59 113.921 93.9108 112.436C94.228 110.969 94.6397 109.291 95.0289 107.751L94.5442 107.628ZM92.8661 115.785L92.3662 115.776C92.3483 116.818 92.4779 117.766 92.6209 118.581C92.7684 119.423 92.9157 120.059 92.9633 120.583L93.4613 120.538L93.9592 120.492C93.9067 119.915 93.7394 119.17 93.6058 118.409C93.4677 117.621 93.3497 116.743 93.366 115.793L92.8661 115.785ZM97.0147 115.785L97.171 116.26C98.7843 115.729 100.125 115.434 101.344 115.168C102.558 114.904 103.674 114.663 104.788 114.24C107.048 113.382 109.238 111.798 112.452 107.895L112.066 107.577L111.68 107.259C108.523 111.093 106.467 112.534 104.433 113.306C103.401 113.698 102.359 113.924 101.131 114.191C99.9093 114.458 98.5249 114.762 96.8585 115.31L97.0147 115.785ZM112.066 107.577L112.452 107.895C113.487 106.638 114.584 106.119 115.644 106.033C116.722 105.946 117.83 106.302 118.877 106.922C119.923 107.542 120.874 108.406 121.622 109.28C122.374 110.16 122.889 111.013 123.092 111.593L123.564 111.428L124.036 111.263C123.777 110.522 123.178 109.561 122.382 108.63C121.58 107.692 120.546 106.749 119.387 106.062C118.23 105.376 116.914 104.928 115.564 105.036C114.197 105.146 112.863 105.823 111.68 107.259L112.066 107.577ZM123.564 111.428L123.788 111.875C124.024 111.757 124.549 111.631 125.208 111.635C125.857 111.639 126.575 111.769 127.2 112.103C127.815 112.431 128.351 112.961 128.657 113.8C128.968 114.649 129.057 115.855 128.692 117.55L129.181 117.655L129.669 117.76C130.061 115.946 129.991 114.536 129.597 113.456C129.198 112.367 128.483 111.654 127.67 111.221C126.867 110.792 125.98 110.64 125.215 110.635C124.461 110.631 123.765 110.769 123.341 110.981L123.564 111.428ZM93.868 126.102L93.376 126.191C94.0031 129.648 95.0419 134.414 96.5516 138.127L97.0147 137.938L97.4779 137.75C96.0091 134.138 94.9848 129.457 94.36 126.013L93.868 126.102ZM97.0147 115.785L96.8585 115.31C95.3932 115.792 94.4634 116.558 93.8778 117.5C93.3023 118.425 93.0868 119.477 92.9649 120.477L93.4613 120.538L93.9576 120.598C94.0743 119.64 94.2688 118.765 94.727 118.028C95.1751 117.308 95.9028 116.677 97.171 116.26L97.0147 115.785ZM93.4613 120.538L92.9649 120.477C92.7908 121.907 92.8975 123.345 93.044 124.416C93.1176 124.953 93.2019 125.404 93.2681 125.72C93.3012 125.879 93.3298 126.004 93.3504 126.091C93.3607 126.134 93.3689 126.168 93.3748 126.191C93.3777 126.203 93.38 126.212 93.3816 126.218C93.3824 126.221 93.383 126.224 93.3835 126.225C93.3837 126.226 93.3839 126.227 93.3841 126.228C93.3842 126.228 93.3842 126.228 93.3843 126.228C93.3843 126.228 93.3843 126.229 93.3843 126.229C93.3844 126.229 93.3844 126.229 93.868 126.102C94.3516 125.975 94.3517 125.975 94.3517 125.975C94.3517 125.975 94.3517 125.975 94.3517 125.975C94.3517 125.975 94.3517 125.975 94.3517 125.975C94.3516 125.975 94.3516 125.975 94.3515 125.974C94.3512 125.973 94.3508 125.972 94.3502 125.97C94.3491 125.965 94.3472 125.958 94.3448 125.948C94.3399 125.929 94.3326 125.899 94.3233 125.86C94.3047 125.781 94.278 125.665 94.2469 125.516C94.1847 125.218 94.1047 124.791 94.0348 124.28C93.8944 123.254 93.7978 121.91 93.9576 120.598L93.4613 120.538ZM98.6619 100.558L98.3343 100.18C96.1334 102.088 94.7606 104.731 94.0594 107.506L94.5442 107.628L95.0289 107.751C95.6932 105.122 96.9794 102.678 98.9894 100.935L98.6619 100.558ZM110.492 145.888L110 145.799C109.929 146.194 109.512 147.001 110.044 148.088L110.493 147.868L110.942 147.648C110.6 146.95 110.856 146.686 110.984 145.976L110.492 145.888ZM110.493 147.868L110.239 147.437C108.616 148.395 106.912 148.988 105 148.969C103.085 148.95 100.914 148.319 98.3583 146.743L98.0959 147.169L97.8335 147.595C100.503 149.24 102.851 149.948 104.99 149.969C107.13 149.99 109.012 149.322 110.747 148.299L110.493 147.868Z" fill="#03092D"/>
<path d="M94.4158 124.681C95.424 124.926 96.4403 124.308 96.6859 123.3C96.9314 122.291 96.3132 121.275 95.305 121.03C94.2968 120.784 93.2804 121.402 93.0349 122.41C92.7894 123.419 93.4076 124.435 94.4158 124.681Z" fill="white"/>
<path d="M97.9297 138.995C98.9379 139.241 99.9542 138.622 100.2 137.614C100.445 136.606 99.8271 135.59 98.8189 135.344C97.8107 135.098 96.7943 135.717 96.5488 136.725C96.3033 137.733 96.9215 138.749 97.9297 138.995Z" fill="white"/>
<path d="M107.131 147.743C108.139 147.989 109.156 147.37 109.401 146.362C109.647 145.354 109.029 144.338 108.02 144.092C107.012 143.847 105.996 144.465 105.75 145.473C105.505 146.481 106.123 147.497 107.131 147.743Z" fill="white"/>
<path d="M120.31 141.826C121.319 142.071 122.335 141.453 122.58 140.445C122.826 139.436 122.208 138.42 121.2 138.175C120.191 137.929 119.175 138.547 118.929 139.555C118.684 140.564 119.302 141.58 120.31 141.826Z" fill="white"/>
<path d="M126.23 130.698C127.239 130.944 128.255 130.325 128.501 129.317C128.746 128.309 128.128 127.293 127.12 127.047C126.111 126.802 125.095 127.42 124.85 128.428C124.604 129.436 125.222 130.453 126.23 130.698Z" fill="white"/>
<path d="M125.866 119.495C126.874 119.741 127.891 119.123 128.136 118.115C128.382 117.106 127.763 116.09 126.755 115.845C125.747 115.599 124.731 116.217 124.485 117.225C124.24 118.234 124.858 119.25 125.866 119.495Z" fill="white"/>
<path d="M116.966 112.604C117.974 112.849 118.99 112.231 119.236 111.223C119.481 110.215 118.863 109.198 117.855 108.953C116.847 108.707 115.83 109.326 115.585 110.334C115.339 111.342 115.957 112.358 116.966 112.604Z" fill="white"/>
<path d="M104.904 116.573C105.912 116.818 106.928 116.2 107.174 115.192C107.419 114.184 106.801 113.167 105.793 112.922C104.785 112.676 103.768 113.294 103.523 114.303C103.277 115.311 103.895 116.327 104.904 116.573Z" fill="white"/>
<path d="M115.051 121.777C116.059 122.023 117.075 121.405 117.321 120.396C117.566 119.388 116.948 118.372 115.94 118.126C114.932 117.881 113.915 118.499 113.67 119.507C113.424 120.515 114.042 121.532 115.051 121.777Z" fill="white"/>
<path d="M105.662 132.495C106.67 132.741 107.687 132.123 107.932 131.115C108.178 130.106 107.56 129.09 106.551 128.845C105.543 128.599 104.527 129.217 104.281 130.225C104.036 131.234 104.654 132.25 105.662 132.495Z" fill="white"/>
<path d="M118.483 135.831C119.491 136.076 120.507 135.458 120.753 134.45C120.999 133.442 120.38 132.425 119.372 132.18C118.364 131.934 117.348 132.553 117.102 133.561C116.856 134.569 117.475 135.585 118.483 135.831Z" fill="white"/>
<path d="M104.566 114.752L95.3068 123.064L98.8206 137.378L107.942 146.455L121.201 140.209L127.121 129.081L126.644 118.087L117.856 110.987L104.566 114.752Z" fill="white" fill-opacity="0.3" stroke="white" stroke-miterlimit="10"/>
<path d="M98.8208 137.378L106.65 130.757L115.941 120.161L117.857 110.987" stroke="white" stroke-miterlimit="10"/>
<path d="M115.942 120.16L127.492 129.229L119.374 134.214L106.529 130.94L95.307 123.063L115.942 120.16Z" stroke="white" stroke-miterlimit="10"/>
<path d="M121.319 140.518L119.374 134.214L115.957 120.454" stroke="white" stroke-miterlimit="10"/>
<path d="M98.0984 147.384C98.0984 147.384 83.573 150.971 75.6529 155.227C74.3418 155.931 73.4852 157.23 73.3242 158.709C72.3249 167.889 73.6566 184.535 73.6566 184.535L83.9549 178.197L86.3315 176.613V168.694L85.204 160.367" stroke="#03092D" stroke-linecap="round" stroke-linejoin="round"/>
<path d="M110.881 147.384C110.881 147.384 121.509 150.649 131.227 156.632C132.219 157.243 132.982 158.171 133.314 159.287C136.108 168.678 135.323 184.535 135.323 184.535L125.025 178.198L122.648 176.614V168.695L119.208 159.673" stroke="#03092D" stroke-linecap="round" stroke-linejoin="round"/>
<path d="M96.6541 153.081C97.546 154.319 100.229 158.979 100.229 176.447" stroke="#03092D" stroke-linecap="round" stroke-linejoin="round"/>
<path d="M109.492 151.346C110.029 152.037 112.101 158.397 113.679 175.215" stroke="#03092D" stroke-linecap="round" stroke-linejoin="round"/>
</g>
<path opacity="0.1" d="M117.299 165.88L79.0916 172.133C77.6653 172.367 76.5883 173.531 76.5194 174.975C76.1449 182.819 75.5871 207.715 82.4888 222.604C88.5387 235.656 105.705 249.903 109.706 254.173C114.435 250.725 134.099 239.949 142.48 228.257C152.042 214.919 156.145 190.357 157.242 182.581C157.444 181.15 156.604 179.805 155.246 179.309L118.879 166.029C118.374 165.844 117.83 165.793 117.299 165.88Z" fill="black"/>
<path d="M132.041 163.714C132.686 163.708 133.322 163.868 133.887 164.179L167.802 182.853C169.316 183.687 170.079 185.442 169.573 187.119C168.433 190.891 165.906 198.709 162.222 207.059C158.544 215.394 153.686 224.321 147.863 230.265C142.751 235.484 134.882 240.003 127.696 243.541C124.094 245.313 120.647 246.847 117.78 248.104C114.899 249.366 112.636 250.335 111.359 250.995L110.868 251.249L110.556 250.792C109.745 249.605 108.221 247.68 106.296 245.205C104.382 242.743 102.091 239.762 99.7785 236.497C95.1632 229.982 90.4145 222.28 88.3896 215.261C86.0829 207.267 86.041 197.103 86.7571 188.021C87.4744 178.923 88.9583 170.842 89.7445 166.981C90.0941 165.264 91.5986 164.081 93.3272 164.065L132.041 163.714Z" fill="white" stroke="#03092D" stroke-width="1.25"/>
<path d="M131.103 168.603C131.533 168.599 131.958 168.706 132.335 168.914L162.884 185.732C163.779 186.225 164.207 187.242 163.918 188.197C162.897 191.577 160.632 198.583 157.333 206.058C154.029 213.547 149.713 221.445 144.61 226.652C140.145 231.209 133.198 235.216 126.727 238.4C123.5 239.988 120.408 241.363 117.824 242.495C115.575 243.48 113.686 244.292 112.447 244.893C111.644 243.777 110.374 242.169 108.872 240.237C107.146 238.018 105.091 235.344 103.018 232.42C98.8628 226.555 94.6776 219.74 92.9081 213.61C90.9083 206.681 90.8337 197.801 91.4546 189.712C92.0745 181.637 93.381 174.413 94.1041 170.829C94.3293 169.714 95.3085 168.926 96.4704 168.915L131.103 168.603Z" fill="#E9EEF5" stroke="#03092D" stroke-width="1.25"/>
<path d="M128.201 181.855C131.476 182.681 133.46 186.005 132.634 189.279L131.46 193.933C131.338 194.418 130.846 194.712 130.362 194.59L128.856 194.21C128.372 194.088 128.078 193.596 128.2 193.111L129.405 188.335C129.623 187.47 129.513 186.746 129.186 186.199C128.86 185.652 128.274 185.212 127.409 184.994C126.545 184.776 125.822 184.886 125.275 185.212C124.728 185.539 124.287 186.124 124.069 186.989L122.813 191.969C122.69 192.454 122.198 192.748 121.713 192.626L120.208 192.246C119.723 192.124 119.429 191.632 119.551 191.147L120.777 186.288C121.603 183.014 124.927 181.03 128.201 181.855Z" fill="#E9EEF5" stroke="#03092D" stroke-width="1.25"/>
<path d="M125.909 190.12C127.423 190.496 129.294 191.043 130.877 191.524C133.128 192.209 134.535 194.451 134.089 196.781C133.813 198.218 133.456 199.863 133.052 201.172C132.706 202.29 132.327 203.536 131.984 204.678C131.249 207.12 128.749 208.582 126.261 208.009L122.014 207.032L121.99 207.025L117.589 205.818C115.228 205.169 113.706 202.844 114.182 200.413C114.518 198.697 114.961 196.673 115.451 195.059C115.71 194.206 115.988 193.301 116.25 192.456C116.97 190.137 119.313 188.716 121.704 189.197C123.093 189.477 124.65 189.807 125.909 190.12Z" fill="#E9EEF5" stroke="#03092D" stroke-width="1.25"/>
<mask id="mask0_1006_3879" style="mask-type:alpha" maskUnits="userSpaceOnUse" x="113" y="188" width="22" height="21">
<path d="M125.907 190.12C127.421 190.496 129.293 191.043 130.875 191.524C133.126 192.208 134.534 194.451 134.087 196.781C133.812 198.218 133.455 199.862 133.05 201.171C132.704 202.289 132.326 203.536 131.982 204.678C131.248 207.119 128.747 208.581 126.259 208.009L122.013 207.031L121.988 207.025L117.587 205.817C115.226 205.169 113.704 202.843 114.18 200.412C114.516 198.697 114.959 196.673 115.449 195.059C115.708 194.206 115.987 193.301 116.249 192.456C116.968 190.136 119.311 188.715 121.703 189.197C123.092 189.476 124.648 189.806 125.907 190.12Z" fill="#E9EEF5" stroke="black" stroke-width="1.25"/>
</mask>
<g mask="url(#mask0_1006_3879)">
<path d="M126.169 197.606C126.448 196.502 126.084 195.807 124.91 195.511C123.733 195.214 123.04 195.835 122.807 196.757C122.594 197.604 122.852 197.995 123.278 198.41C123.278 198.41 123.081 199.056 122.978 199.473C122.884 199.853 122.765 200.447 122.765 200.447C122.647 200.914 122.933 201.362 123.4 201.48C123.868 201.598 124.266 201.597 124.457 200.874C124.457 200.874 124.625 200.314 124.728 199.938C124.844 199.513 124.971 198.837 124.971 198.837C125.543 198.674 126.014 198.222 126.169 197.606Z" fill="#3449FC"/>
</g>
<path opacity="0.1" d="M93.9344 167.495L58.4173 182.905C57.0914 183.48 56.332 184.873 56.6183 186.289C58.1738 193.986 63.7228 218.263 74.0568 231.011C83.1154 242.187 103.245 251.802 108.17 254.964C111.911 250.464 128.342 235.205 133.609 221.818C139.617 206.547 137.587 181.727 136.749 173.919C136.595 172.482 135.451 171.384 134.014 171.235L95.503 167.253C94.968 167.198 94.4278 167.281 93.9344 167.495Z" fill="black"/>
<path d="M107.699 161.789C108.323 161.626 108.978 161.626 109.602 161.789L147.055 171.6C148.727 172.038 149.896 173.553 149.815 175.303C149.633 179.239 149.095 187.438 147.565 196.435C146.038 205.416 143.511 215.261 139.319 222.448C135.638 228.759 129.115 235.066 123.011 240.254C119.953 242.854 116.986 245.184 114.513 247.104C112.029 249.033 110.071 250.526 108.995 251.478L108.581 251.844L108.167 251.478C107.089 250.525 105.141 249.031 102.67 247.103C100.21 245.183 97.2606 242.853 94.2195 240.253C88.1509 235.065 81.6623 228.758 77.9822 222.448C73.79 215.261 71.2634 205.416 69.7361 196.435C68.2063 187.438 67.6682 179.239 67.4861 175.303C67.4053 173.553 68.5746 172.038 70.2468 171.6L107.699 161.789Z" fill="white" stroke="#03092D" stroke-width="1.25"/>
<path d="M107.985 166.759C108.401 166.65 108.839 166.65 109.255 166.759L142.991 175.594C143.979 175.853 144.642 176.735 144.596 177.732C144.433 181.258 143.951 188.606 142.581 196.661C141.208 204.73 138.955 213.444 135.281 219.742C132.066 225.252 126.31 230.836 120.815 235.506C118.074 237.835 115.412 239.925 113.184 241.655C111.244 243.161 109.611 244.409 108.557 245.295C107.506 244.41 105.881 243.161 103.952 241.656C101.735 239.926 99.0887 237.836 96.3638 235.507C90.9 230.837 85.1748 225.253 81.9595 219.742C78.3257 213.513 76.0813 204.921 74.7046 196.925C73.3303 188.944 72.8303 181.62 72.6548 177.968C72.6004 176.832 73.357 175.828 74.481 175.534L107.985 166.759Z" fill="#E9EEF5" stroke="#03092D" stroke-width="1.25"/>
<path d="M108.411 180.318C111.788 180.318 114.525 183.055 114.525 186.432V191.232C114.525 191.732 114.12 192.137 113.621 192.137H112.068C111.568 192.137 111.163 191.732 111.163 191.232V186.306C111.163 185.414 110.879 184.739 110.428 184.289C109.978 183.838 109.302 183.555 108.411 183.555C107.519 183.555 106.845 183.838 106.394 184.289C105.944 184.739 105.66 185.414 105.66 186.306V191.443C105.66 191.943 105.254 192.348 104.754 192.348H103.202C102.702 192.348 102.296 191.943 102.296 191.443V186.432C102.297 183.055 105.034 180.318 108.411 180.318Z" fill="#E9EEF5" stroke="#03092D" stroke-width="1.25"/>
<path d="M108.21 188.892C109.769 188.887 111.718 188.959 113.37 189.039C115.72 189.152 117.633 190.982 117.77 193.35C117.855 194.811 117.911 196.493 117.839 197.861C117.777 199.03 117.715 200.331 117.661 201.522C117.546 204.069 115.479 206.099 112.927 206.152L108.57 206.243L108.545 206.243L103.982 206.148C101.534 206.097 99.4893 204.214 99.3562 201.741C99.2623 199.995 99.1967 197.924 99.2771 196.24C99.3196 195.349 99.3683 194.403 99.4158 193.52C99.546 191.095 101.47 189.144 103.907 189.026C105.322 188.957 106.912 188.897 108.21 188.892Z" fill="#E9EEF5" stroke="#03092D" stroke-width="1.25"/>
<mask id="mask1_1006_3879" style="mask-type:alpha" maskUnits="userSpaceOnUse" x="98" y="188" width="21" height="19">
<path d="M108.208 188.892C109.767 188.887 111.716 188.959 113.368 189.039C115.718 189.152 117.631 190.982 117.769 193.35C117.853 194.811 117.909 196.493 117.837 197.861C117.775 199.03 117.713 200.331 117.659 201.522C117.544 204.069 115.477 206.099 112.925 206.152L108.568 206.243L108.543 206.243L103.98 206.148C101.532 206.097 99.4876 204.214 99.3545 201.741C99.2606 199.995 99.195 197.924 99.2754 196.24C99.3179 195.349 99.3666 194.403 99.4141 193.52C99.5443 191.095 101.469 189.144 103.905 189.026C105.32 188.957 106.911 188.897 108.208 188.892Z" fill="#E9EEF5" stroke="black" stroke-width="1.25"/>
</mask>
<g mask="url(#mask1_1006_3879)">
<path d="M110.293 196.087C110.293 194.949 109.77 194.364 108.559 194.364C107.345 194.364 106.825 195.135 106.825 196.087C106.825 196.961 107.172 197.276 107.687 197.575C107.687 197.575 107.653 198.249 107.655 198.678C107.657 199.07 107.687 199.675 107.687 199.675C107.687 200.157 108.074 200.521 108.556 200.521C109.038 200.521 109.423 200.423 109.432 199.675C109.432 199.675 109.458 199.091 109.466 198.702C109.474 198.261 109.432 197.575 109.432 197.575C109.947 197.276 110.293 196.722 110.293 196.087Z" fill="#3449FC"/>
</g>
</g>
<defs>
<linearGradient id="paint0_linear_1006_3879" x1="119.209" y1="95.1353" x2="119.209" y2="264.319" gradientUnits="userSpaceOnUse">
<stop stop-color="#AEAEFF"/>
<stop offset="1" stop-color="white" stop-opacity="0.8"/>
</linearGradient>
<clipPath id="clip0_1006_3879">
<rect width="217" height="210" fill="white"/>
</clipPath>
<clipPath id="clip1_1006_3879">
<path d="M71.3557 79.9141H145.37V131.132C145.37 151.571 128.801 168.139 108.363 168.139V168.139C87.9244 168.139 71.3557 151.571 71.3557 131.132V79.9141Z" fill="white"/>
</clipPath>
</defs>
</svg>
