<svg width="217" height="210" viewBox="0 0 217 210" fill="none" xmlns="http://www.w3.org/2000/svg">
<g clip-path="url(#clip0_1006_3805)">
<path d="M61.3179 18H155.772H161.431C167.645 18 172.683 23.0378 172.683 29.2523V34.9529V43.8803H173.808V66.1036H172.683V70.3232V72.0111H173.808V82.9821H172.683V217.715V230.733V231.794C172.683 238.008 167.645 243.046 161.431 243.046H157.871H64.5213H58.1274C50.5497 243.046 44.4069 236.903 44.4072 229.325V225.504V225.443V83.2634H43V59.0709H44.4072V34.9529V29.2523C44.4072 23.0378 49.4451 18 55.6596 18H61.3179Z" fill="#E9EEF5" stroke="#03092D" stroke-linecap="round" stroke-linejoin="round"/>
<path d="M108.543 28.0018C107.369 28.0018 106.417 27.0501 106.417 25.8761C106.417 24.7022 107.369 23.7505 108.543 23.7505C109.717 23.7505 110.668 24.7022 110.668 25.8761C110.668 27.0501 109.717 28.0018 108.543 28.0018Z" fill="#03092D"/>
<path d="M168.182 38.7753V214.227V226.724V230.106C168.182 234.766 164.404 238.545 159.743 238.545H154.41H67.6109H57.3473C52.6863 238.545 48.9079 234.766 48.9081 230.105L48.9083 225.373V221.705V221.646V38.7753V30.9397C48.9083 26.2789 52.6867 22.5005 57.3475 22.5005H64.6322H84.4135C85.9637 22.5005 87.2203 23.7571 87.2203 25.3073C87.2203 29.9578 90.9903 33.7278 95.6408 33.7278H121.205C125.856 33.7278 129.626 29.9578 129.626 25.3073C129.626 23.7571 130.882 22.5005 132.433 22.5005H152.458H159.743C164.404 22.5005 168.182 26.2789 168.182 30.9397V38.7753Z" fill="#FAFAFA" stroke="#03092D" stroke-linecap="round" stroke-linejoin="round"/>
<path d="M148.826 123.817C148.826 148.019 130.917 167.64 108.826 167.64C86.7348 167.64 68.8264 148.019 68.8264 123.817C68.8264 99.6139 86.7348 79.9937 108.826 79.9937C130.917 79.9937 148.826 99.6139 148.826 123.817Z" fill="#E9EEF5"/>
<path opacity="0.1" d="M64.7451 124.323H61.7427" stroke="#3449FC" stroke-width="0.892793" stroke-linecap="round"/>
<path d="M155.363 124.323H152.36" stroke="#3449FC" stroke-width="0.892793" stroke-linecap="round"/>
<path d="M155.365 124.323H152.363" stroke="#3449FC" stroke-width="0.892793" stroke-linecap="round"/>
<path opacity="0.1" d="M64.7451 111.768H61.7427" stroke="#3449FC" stroke-width="0.892793" stroke-linecap="round"/>
<path d="M155.365 111.768H152.362" stroke="#3449FC" stroke-width="0.892793" stroke-linecap="round"/>
<path opacity="0.1" d="M64.7444 136.333H61.7419" stroke="#3449FC" stroke-width="0.892793" stroke-linecap="round"/>
<path d="M155.363 136.333H152.361" stroke="#3449FC" stroke-width="0.892793" stroke-linecap="round"/>
<path d="M108.689 72.1362V68.6392" stroke="#3449FC" stroke-width="0.892793" stroke-linecap="round"/>
<path d="M108.689 178.64V175.143" stroke="#3449FC" stroke-width="0.892793" stroke-linecap="round"/>
<path d="M122.018 74.165L122.923 70.7871" stroke="#3449FC" stroke-width="0.892793" stroke-linecap="round"/>
<path d="M94.4529 176.491L95.358 173.113" stroke="#3449FC" stroke-width="0.892793" stroke-linecap="round"/>
<path d="M134.406 80.3271L136.128 77.3441" stroke="#3449FC" stroke-width="0.892793" stroke-linecap="round"/>
<path d="M81.6226 170.384L83.3448 167.401" stroke="#3449FC" stroke-width="0.892793" stroke-linecap="round"/>
<path d="M143.357 89.6367L145.793 87.201" stroke="#3449FC" stroke-width="0.892793" stroke-linecap="round"/>
<path opacity="0.1" d="M71.5698 160.604L74.0055 158.168" stroke="#3449FC" stroke-width="0.892793" stroke-linecap="round"/>
<path d="M149.361 100.388L152.344 98.6659" stroke="#3449FC" stroke-width="0.892793" stroke-linecap="round"/>
<path opacity="0.1" d="M64.7449 149.246L67.728 147.524" stroke="#3449FC" stroke-width="0.892793" stroke-linecap="round"/>
<path opacity="0.1" d="M67.7283 100.388L64.7452 98.6659" stroke="#3449FC" stroke-width="0.892793" stroke-linecap="round"/>
<path d="M152.344 149.246L149.361 147.524" stroke="#3449FC" stroke-width="0.892793" stroke-linecap="round"/>
<path opacity="0.1" d="M74.0042 89.6372L71.5685 87.2015" stroke="#3449FC" stroke-width="0.892793" stroke-linecap="round"/>
<path d="M145.789 160.604L143.353 158.169" stroke="#3449FC" stroke-width="0.892793" stroke-linecap="round"/>
<path opacity="0.1" d="M83.345 80.3247L81.6227 77.3416" stroke="#3449FC" stroke-width="0.892793" stroke-linecap="round"/>
<path d="M136.128 170.382L134.405 167.399" stroke="#3449FC" stroke-width="0.892793" stroke-linecap="round"/>
<path opacity="0.1" d="M95.3596 74.165L94.4545 70.7871" stroke="#3449FC" stroke-width="0.892793" stroke-linecap="round"/>
<path d="M122.926 176.491L122.02 173.113" stroke="#3449FC" stroke-width="0.892793" stroke-linecap="round"/>
<g clip-path="url(#clip1_1006_3805)">
<path d="M106.492 149.027L99.0985 146.974V140.402L96.634 133.008L94.5803 124.793V118.632L97.8663 114.114L109.778 109.596L115.118 102.613L127.44 109.596L130.726 115.346L129.494 124.793L127.44 135.473L118.814 142.866L111.421 145.741V147.795L106.492 149.027Z" fill="#FFCEB6"/>
<path d="M99.8123 143.446C99.8123 142.407 107.206 149.409 111.724 146.123V148.177L104.145 149.189L99.8123 146.944C99.1277 145.027 99.8123 144.678 99.8123 143.446Z" fill="#F9AC8A"/>
<path d="M115.796 176.827C114.184 162.351 110.287 156.867 107.908 151.016C107.56 150.16 108.039 149.208 108.92 148.928L111.747 148.029C112.06 147.929 112.394 147.926 112.709 148.018L123.784 151.276C123.943 151.322 124.094 151.393 124.232 151.485L132.886 157.254C133.212 157.472 133.45 157.8 133.556 158.178L135.681 165.765C135.772 166.091 135.76 166.438 135.647 166.757L131.296 179.043C130.984 179.923 130.003 180.367 129.137 180.02L126.872 179.114C126.713 179.051 126.599 178.91 126.568 178.742C126.463 178.163 125.614 178.218 125.585 178.807L125.575 179.012L117.301 178.307C116.511 178.24 115.883 177.615 115.796 176.827Z" fill="#E1F0FF"/>
<path d="M109.368 149.026C109.778 149.848 110.518 152.394 111.832 156.009C113.1 159.497 114.614 170.817 115.427 179.01H100.742C98.6886 172.028 103.207 152.312 94.1704 149.437L98.6886 147.794L104.028 149.437L109.368 149.026Z" fill="white"/>
<path d="M109.628 159.235C108.782 159.556 106.358 160.416 102.858 159.046" stroke="#03092D" stroke-linecap="round"/>
<path d="M86.0229 177.801L74.7041 184.352V170.925V159.946C74.7041 158.461 75.515 157.095 76.8183 156.384L83.2622 152.869C83.5061 152.736 83.7629 152.629 84.0287 152.548L92.9365 149.85C95.3053 149.204 97.7432 150.782 98.0678 153.216L99.0976 160.94L101.221 178.912L89.6406 180.362C88.818 180.464 88.0914 179.823 88.0914 178.994C88.0914 177.933 86.9416 177.27 86.0229 177.801Z" fill="#E1F0FF"/>
<path d="M130.181 117.656C131.081 118.352 133.199 119.666 134.466 119.35C133.674 118.953 134.143 116.792 134.863 115.785C136.843 113.013 136.843 109.448 136.843 109.448C136.711 108.524 136.051 107.467 134.466 105.883C132.958 104.375 134.466 97.9611 119.811 96.3768C115.485 96.1364 109.632 91.914 99.6619 100.558C97.5564 102.384 96.2269 104.927 95.5442 107.629C94.7651 110.712 93.8904 114.367 93.8661 115.785C93.832 117.777 94.3612 119.437 94.4613 120.538C94.6999 118.579 95.2812 116.685 98.0147 115.785C104.574 113.627 106.694 115.315 113.066 107.577C117.502 102.191 123.64 108.788 124.564 111.428C125.885 110.768 131.694 110.636 130.181 117.656Z" fill="#4B4D59"/>
<path d="M111.492 145.888L111.529 145.389C111.274 145.371 111.045 145.548 111 145.799L111.492 145.888ZM119.811 142.323L120.064 142.755L120.07 142.751L119.811 142.323ZM124.564 138.758L124.923 139.107V139.107L124.564 138.758ZM128.129 133.609L127.713 133.333L127.701 133.35L127.691 133.369L128.129 133.609ZM130.181 117.656L129.692 117.55C129.683 117.593 129.679 117.637 129.681 117.681L130.181 117.656ZM98.0147 137.939L97.5516 138.127L97.5516 138.127L98.0147 137.939ZM99.2922 143.143L99.7874 143.074L99.7874 143.074L99.2922 143.143ZM99.0959 147.17L98.6436 146.956C98.5351 147.187 98.6169 147.462 98.8335 147.595L99.0959 147.17ZM134.466 119.35L134.588 119.835C134.791 119.784 134.941 119.612 134.963 119.404C134.986 119.196 134.877 118.996 134.69 118.902L134.466 119.35ZM134.863 115.785L135.269 116.076V116.076L134.863 115.785ZM136.843 109.448L137.343 109.448C137.343 109.424 137.341 109.4 137.338 109.377L136.843 109.448ZM134.466 105.883L134.82 105.529V105.529L134.466 105.883ZM119.811 96.3768L119.865 95.8797C119.856 95.8787 119.848 95.878 119.839 95.8775L119.811 96.3768ZM99.6619 100.558L99.9894 100.936V100.936L99.6619 100.558ZM95.5442 107.629L96.0289 107.751V107.751L95.5442 107.629ZM93.8661 115.785L94.366 115.794L93.8661 115.785ZM94.4613 120.538L94.9576 120.599V120.599L94.4613 120.538ZM98.0147 115.785L98.171 116.26V116.26L98.0147 115.785ZM113.066 107.577L113.452 107.895V107.895L113.066 107.577ZM124.564 111.428L124.092 111.594C124.14 111.729 124.243 111.838 124.376 111.892C124.509 111.946 124.659 111.94 124.788 111.876L124.564 111.428ZM94.868 126.102L95.36 126.013C95.3577 126.001 95.3549 125.988 95.3516 125.975L94.868 126.102ZM111.493 147.868L111.747 148.299C111.972 148.167 112.057 147.883 111.942 147.649L111.493 147.868ZM109.635 122.313C109.746 122.566 110.041 122.681 110.294 122.57C110.547 122.459 110.662 122.164 110.551 121.911L110.093 122.112L109.635 122.313ZM108.373 120.939L108.338 121.438L108.338 121.438L108.373 120.939ZM105.887 121.909C105.775 122.161 105.888 122.457 106.141 122.569C106.393 122.681 106.689 122.568 106.801 122.315L106.344 122.112L105.887 121.909ZM124.686 123.105C124.797 123.358 125.092 123.473 125.345 123.362C125.598 123.251 125.713 122.956 125.602 122.704L125.144 122.904L124.686 123.105ZM123.424 121.732L123.389 122.23L123.39 122.23L123.424 121.732ZM120.939 122.701C120.826 122.954 120.94 123.249 121.192 123.361C121.445 123.474 121.74 123.36 121.852 123.108L121.395 122.904L120.939 122.701ZM109.057 137.738C108.82 137.597 108.513 137.675 108.372 137.913C108.231 138.15 108.309 138.457 108.546 138.598L108.802 138.168L109.057 137.738ZM111.706 139.597L111.869 139.125L111.706 139.597ZM113.78 140.632C114.055 140.647 114.291 140.435 114.305 140.159C114.32 139.883 114.108 139.648 113.832 139.634L113.806 140.133L113.78 140.632ZM117.36 133.068L117.208 132.592V132.592L117.36 133.068ZM117.415 131.342L116.947 131.519V131.519L117.415 131.342ZM111.492 145.888L111.455 146.387C111.78 146.411 112.155 146.355 112.539 146.263C112.929 146.169 113.36 146.029 113.808 145.861C114.704 145.525 115.699 145.067 116.621 144.608C117.545 144.149 118.405 143.686 119.034 143.338C119.348 143.164 119.605 143.019 119.784 142.916C119.873 142.865 119.943 142.825 119.99 142.797C120.014 142.784 120.032 142.773 120.045 142.766C120.051 142.762 120.056 142.759 120.059 142.758C120.061 142.757 120.062 142.756 120.063 142.755C120.063 142.755 120.063 142.755 120.064 142.755C120.064 142.755 120.064 142.755 120.064 142.755C120.064 142.755 120.064 142.755 119.811 142.323C119.558 141.892 119.558 141.892 119.558 141.892C119.558 141.892 119.558 141.892 119.558 141.892C119.558 141.892 119.558 141.892 119.557 141.893C119.557 141.893 119.555 141.894 119.554 141.894C119.551 141.896 119.547 141.899 119.541 141.902C119.529 141.909 119.512 141.919 119.489 141.932C119.443 141.959 119.375 141.998 119.287 142.048C119.112 142.149 118.859 142.292 118.549 142.463C117.929 142.807 117.083 143.262 116.176 143.713C115.268 144.164 114.307 144.606 113.457 144.925C113.032 145.084 112.642 145.21 112.305 145.291C111.961 145.374 111.702 145.402 111.529 145.389L111.492 145.888ZM119.811 142.323C120.07 142.751 120.07 142.751 120.07 142.751C120.07 142.751 120.07 142.751 120.07 142.751C120.071 142.751 120.071 142.751 120.071 142.75C120.071 142.75 120.072 142.75 120.073 142.749C120.075 142.748 120.077 142.747 120.08 142.745C120.087 142.741 120.096 142.735 120.108 142.728C120.132 142.713 120.167 142.691 120.213 142.663C120.303 142.607 120.434 142.525 120.596 142.422C120.919 142.215 121.367 141.922 121.866 141.576C122.857 140.89 124.079 139.976 124.923 139.107L124.564 138.758L124.205 138.41C123.433 139.206 122.278 140.074 121.297 140.754C120.81 141.091 120.373 141.377 120.057 141.579C119.9 141.68 119.773 141.759 119.685 141.814C119.642 141.841 119.608 141.861 119.585 141.875C119.574 141.882 119.566 141.887 119.56 141.891C119.557 141.892 119.555 141.894 119.554 141.895C119.553 141.895 119.553 141.895 119.552 141.895C119.552 141.896 119.552 141.896 119.552 141.896C119.552 141.896 119.552 141.896 119.552 141.896C119.552 141.896 119.552 141.896 119.811 142.323ZM124.564 138.758L124.923 139.107C125.812 138.191 126.726 136.867 127.408 135.794C127.751 135.253 128.04 134.768 128.244 134.419C128.346 134.243 128.426 134.102 128.481 134.004C128.509 133.955 128.53 133.917 128.545 133.891C128.552 133.878 128.558 133.867 128.561 133.861C128.563 133.857 128.565 133.855 128.566 133.853C128.566 133.852 128.567 133.851 128.567 133.851C128.567 133.85 128.567 133.85 128.567 133.85C128.567 133.85 128.567 133.85 128.567 133.85C128.567 133.85 128.567 133.85 128.129 133.609C127.691 133.369 127.691 133.369 127.691 133.369C127.691 133.369 127.691 133.369 127.691 133.369C127.691 133.369 127.69 133.369 127.69 133.369C127.69 133.37 127.69 133.37 127.69 133.371C127.689 133.372 127.688 133.374 127.686 133.378C127.682 133.384 127.677 133.393 127.671 133.405C127.657 133.43 127.637 133.466 127.61 133.513C127.557 133.608 127.479 133.745 127.379 133.916C127.181 134.257 126.898 134.731 126.563 135.258C125.888 136.321 125.02 137.572 124.205 138.41L124.564 138.758ZM128.129 133.609C128.546 133.886 128.546 133.886 128.546 133.885C128.546 133.885 128.546 133.885 128.546 133.885C128.547 133.884 128.547 133.883 128.548 133.883C128.548 133.881 128.549 133.88 128.551 133.878C128.553 133.875 128.556 133.87 128.559 133.864C128.566 133.853 128.576 133.838 128.588 133.818C128.611 133.78 128.643 133.724 128.682 133.651C128.761 133.505 128.869 133.288 128.995 132.993C129.246 132.404 129.569 131.503 129.869 130.229C130.47 127.681 130.986 123.645 130.68 117.63L130.181 117.656L129.681 117.681C129.983 123.617 129.472 127.557 128.896 129.999C128.608 131.22 128.303 132.066 128.075 132.601C127.961 132.868 127.866 133.058 127.802 133.177C127.77 133.237 127.745 133.279 127.73 133.304C127.722 133.317 127.717 133.326 127.714 133.33C127.712 133.333 127.712 133.334 127.711 133.335C127.711 133.335 127.711 133.335 127.711 133.334C127.712 133.334 127.712 133.334 127.712 133.334C127.712 133.334 127.712 133.333 127.712 133.333C127.712 133.333 127.713 133.333 128.129 133.609ZM98.0147 137.939C97.5516 138.127 97.5516 138.127 97.5515 138.127C97.5515 138.127 97.5515 138.127 97.5515 138.127C97.5515 138.127 97.5515 138.127 97.5515 138.127C97.5515 138.127 97.5516 138.127 97.5517 138.128C97.5519 138.128 97.5523 138.129 97.553 138.131C97.5542 138.134 97.5563 138.139 97.5591 138.146C97.5646 138.16 97.5732 138.182 97.5844 138.212C97.6068 138.271 97.6399 138.36 97.6813 138.477C97.7641 138.712 97.8799 139.059 98.0095 139.504C98.2687 140.394 98.5823 141.671 98.797 143.212L99.2922 143.143L99.7874 143.074C99.5649 141.477 99.2398 140.152 98.9696 139.224C98.8344 138.76 98.7128 138.395 98.6244 138.144C98.5802 138.019 98.5442 137.922 98.519 137.856C98.5064 137.823 98.4964 137.797 98.4895 137.78C98.486 137.771 98.4833 137.764 98.4813 137.759C98.4803 137.757 98.4796 137.755 98.479 137.753C98.4787 137.753 98.4785 137.752 98.4783 137.751C98.4782 137.751 98.4781 137.751 98.478 137.751C98.478 137.751 98.478 137.751 98.4779 137.751C98.4779 137.751 98.4779 137.75 98.0147 137.939ZM99.2922 143.143L98.797 143.212C99.1332 145.63 98.8839 146.446 98.6436 146.956L99.0959 147.17L99.5482 147.383C99.9047 146.626 100.137 145.589 99.7874 143.074L99.2922 143.143ZM130.181 117.656L129.875 118.051C130.348 118.417 131.133 118.941 131.973 119.335C132.394 119.533 132.84 119.704 133.277 119.804C133.709 119.903 134.166 119.94 134.588 119.835L134.466 119.35L134.345 118.865C134.134 118.917 133.85 118.909 133.5 118.829C133.155 118.75 132.778 118.609 132.398 118.43C131.637 118.073 130.914 117.591 130.486 117.26L130.181 117.656ZM134.466 119.35L134.69 118.902C134.688 118.901 134.624 118.869 134.583 118.667C134.543 118.471 134.543 118.197 134.592 117.871C134.691 117.217 134.964 116.503 135.269 116.076L134.863 115.785L134.456 115.495C134.042 116.074 133.721 116.945 133.603 117.722C133.544 118.112 133.531 118.515 133.603 118.868C133.674 119.214 133.849 119.6 134.243 119.797L134.466 119.35ZM134.863 115.785L135.269 116.076C136.316 114.611 136.83 112.951 137.086 111.675C137.214 111.034 137.278 110.482 137.31 110.089C137.327 109.892 137.335 109.735 137.339 109.625C137.341 109.57 137.342 109.527 137.342 109.497C137.343 109.483 137.343 109.471 137.343 109.462C137.343 109.458 137.343 109.455 137.343 109.453C137.343 109.451 137.343 109.45 137.343 109.449C137.343 109.449 137.343 109.449 137.343 109.448C137.343 109.448 137.343 109.448 137.343 109.448C137.343 109.448 137.343 109.448 136.843 109.448C136.343 109.448 136.343 109.448 136.343 109.448C136.343 109.448 136.343 109.447 136.343 109.447C136.343 109.447 136.343 109.447 136.343 109.447C136.343 109.447 136.343 109.448 136.343 109.448C136.343 109.449 136.343 109.451 136.343 109.454C136.343 109.459 136.343 109.468 136.343 109.479C136.342 109.503 136.341 109.539 136.34 109.588C136.336 109.684 136.329 109.826 136.314 110.007C136.284 110.369 136.225 110.882 136.105 111.479C135.865 112.678 135.39 114.187 134.456 115.495L134.863 115.785ZM136.843 109.448L137.338 109.377C137.181 108.278 136.412 107.122 134.82 105.529L134.466 105.883L134.113 106.236C135.689 107.813 136.241 108.769 136.348 109.518L136.843 109.448ZM134.466 105.883L134.82 105.529C134.704 105.413 134.593 105.223 134.468 104.917C134.341 104.608 134.23 104.258 134.072 103.816C133.765 102.956 133.33 101.901 132.454 100.84C130.694 98.7083 127.257 96.6788 119.865 95.8797L119.811 96.3768L119.757 96.8739C127.021 97.6591 130.157 99.6286 131.683 101.477C132.451 102.406 132.838 103.336 133.13 104.152C133.272 104.548 133.405 104.96 133.542 105.295C133.681 105.635 133.852 105.976 134.113 106.236L134.466 105.883ZM119.811 96.3768L119.839 95.8775C118.811 95.8204 117.693 95.5268 116.349 95.2252C115.027 94.9286 113.535 94.6384 111.853 94.6358C108.464 94.6304 104.395 95.7928 99.3343 100.18L99.6619 100.558L99.9894 100.936C104.899 96.6794 108.741 95.6309 111.852 95.6358C113.421 95.6382 114.826 95.9085 116.13 96.201C117.412 96.4886 118.648 96.8129 119.783 96.876L119.811 96.3768ZM95.5442 107.629L95.0594 107.506C94.6696 109.049 94.2544 110.74 93.9334 112.226C93.616 113.694 93.3793 115.01 93.3662 115.777L93.8661 115.785L94.366 115.794C94.3772 115.142 94.59 113.921 94.9108 112.437C95.228 110.969 95.6397 109.292 96.0289 107.751L95.5442 107.629ZM93.8661 115.785L93.3662 115.777C93.3483 116.818 93.4779 117.767 93.6209 118.582C93.7684 119.424 93.9157 120.06 93.9633 120.583L94.4613 120.538L94.9592 120.493C94.9067 119.915 94.7394 119.171 94.6058 118.409C94.4677 117.621 94.3497 116.744 94.366 115.794L93.8661 115.785ZM98.0147 115.785L98.171 116.26C99.7843 115.729 101.125 115.435 102.344 115.169C103.558 114.904 104.674 114.664 105.788 114.241C108.048 113.383 110.238 111.799 113.452 107.895L113.066 107.577L112.68 107.26C109.523 111.094 107.467 112.534 105.433 113.306C104.401 113.698 103.359 113.924 102.131 114.192C100.909 114.458 99.5249 114.762 97.8585 115.31L98.0147 115.785ZM113.066 107.577L113.452 107.895C114.487 106.638 115.584 106.119 116.644 106.034C117.722 105.947 118.83 106.302 119.877 106.923C120.923 107.542 121.874 108.406 122.622 109.28C123.374 110.16 123.889 111.014 124.092 111.594L124.564 111.428L125.036 111.263C124.777 110.523 124.178 109.561 123.382 108.63C122.58 107.693 121.546 106.749 120.387 106.062C119.23 105.377 117.914 104.928 116.564 105.037C115.197 105.147 113.863 105.823 112.68 107.26L113.066 107.577ZM124.564 111.428L124.788 111.876C125.024 111.758 125.549 111.632 126.208 111.636C126.857 111.64 127.575 111.77 128.2 112.103C128.815 112.431 129.351 112.961 129.657 113.8C129.968 114.649 130.057 115.855 129.692 117.55L130.181 117.656L130.669 117.761C131.061 115.946 130.991 114.536 130.597 113.457C130.198 112.367 129.483 111.655 128.67 111.221C127.867 110.793 126.98 110.641 126.215 110.636C125.461 110.631 124.765 110.769 124.341 110.981L124.564 111.428ZM94.868 126.102L94.376 126.192C95.0031 129.648 96.0419 134.415 97.5516 138.127L98.0147 137.939L98.4779 137.751C97.0091 134.139 95.9848 129.457 95.36 126.013L94.868 126.102ZM98.0147 115.785L97.8585 115.31C96.3932 115.792 95.4634 116.559 94.8778 117.5C94.3023 118.426 94.0868 119.477 93.9649 120.478L94.4613 120.538L94.9576 120.599C95.0743 119.64 95.2688 118.765 95.727 118.028C96.1751 117.308 96.9028 116.677 98.171 116.26L98.0147 115.785ZM94.4613 120.538L93.9649 120.478C93.7908 121.907 93.8975 123.345 94.044 124.416C94.1176 124.954 94.2019 125.404 94.2681 125.721C94.3012 125.879 94.3298 126.005 94.3504 126.091C94.3607 126.135 94.3689 126.168 94.3748 126.191C94.3777 126.203 94.38 126.212 94.3816 126.218C94.3824 126.222 94.383 126.224 94.3835 126.226C94.3837 126.227 94.3839 126.228 94.3841 126.228C94.3842 126.228 94.3842 126.229 94.3843 126.229C94.3843 126.229 94.3843 126.229 94.3843 126.229C94.3844 126.229 94.3844 126.229 94.868 126.102C95.3516 125.975 95.3517 125.976 95.3517 125.976C95.3517 125.976 95.3517 125.976 95.3517 125.976C95.3517 125.976 95.3517 125.976 95.3517 125.976C95.3516 125.976 95.3516 125.975 95.3515 125.975C95.3512 125.974 95.3508 125.972 95.3502 125.97C95.3491 125.965 95.3472 125.958 95.3448 125.949C95.3399 125.929 95.3326 125.899 95.3233 125.86C95.3047 125.782 95.278 125.665 95.2469 125.516C95.1847 125.218 95.1047 124.791 95.0348 124.281C94.8944 123.255 94.7978 121.911 94.9576 120.599L94.4613 120.538ZM99.6619 100.558L99.3343 100.18C97.1334 102.089 95.7606 104.731 95.0594 107.506L95.5442 107.629L96.0289 107.751C96.6932 105.122 97.9794 102.679 99.9894 100.936L99.6619 100.558ZM111.492 145.888L111 145.799C110.929 146.195 110.512 147.002 111.044 148.088L111.493 147.868L111.942 147.649C111.6 146.95 111.856 146.686 111.984 145.977L111.492 145.888ZM110.093 122.112L110.551 121.911C110.181 121.069 109.341 120.505 108.407 120.441L108.373 120.939L108.338 121.438C108.923 121.479 109.424 121.831 109.635 122.313L110.093 122.112ZM108.373 120.939L108.408 120.441C107.352 120.367 106.316 120.944 105.887 121.909L106.344 122.112L106.801 122.315C107.047 121.762 107.671 121.392 108.338 121.438L108.373 120.939ZM125.144 122.904L125.602 122.704C125.232 121.861 124.392 121.297 123.459 121.233L123.424 121.732L123.39 122.23C123.975 122.271 124.475 122.623 124.686 123.105L125.144 122.904ZM123.424 121.732L123.459 121.233C122.404 121.159 121.368 121.736 120.939 122.701L121.395 122.904L121.852 123.108C122.098 122.554 122.723 122.184 123.389 122.23L123.424 121.732ZM108.802 138.168C108.546 138.598 108.546 138.598 108.546 138.598C108.546 138.598 108.547 138.598 108.547 138.598C108.547 138.598 108.547 138.598 108.547 138.598C108.547 138.599 108.548 138.599 108.548 138.599C108.549 138.6 108.55 138.601 108.552 138.602C108.556 138.604 108.561 138.607 108.568 138.611C108.581 138.619 108.601 138.63 108.626 138.645C108.676 138.674 108.749 138.716 108.841 138.768C109.023 138.872 109.278 139.014 109.572 139.17C110.153 139.477 110.907 139.85 111.543 140.07L111.706 139.597L111.869 139.125C111.31 138.931 110.613 138.59 110.04 138.286C109.757 138.136 109.51 137.999 109.335 137.899C109.247 137.849 109.177 137.808 109.129 137.781C109.105 137.767 109.087 137.756 109.075 137.749C109.069 137.745 109.064 137.743 109.061 137.741C109.06 137.74 109.059 137.739 109.058 137.739C109.058 137.739 109.057 137.739 109.057 137.739C109.057 137.738 109.057 137.738 109.057 137.738C109.057 137.738 109.057 137.738 109.057 137.738C109.057 137.738 109.057 137.738 108.802 138.168ZM111.706 139.597L111.543 140.07C112.308 140.334 112.842 140.583 113.78 140.632L113.806 140.133L113.832 139.634C113.072 139.594 112.704 139.413 111.869 139.125L111.706 139.597ZM117.36 133.068L117.208 132.592C117.015 132.654 116.746 132.635 116.338 132.564C115.977 132.502 115.49 132.394 115.04 132.411L115.059 132.911L115.078 133.411C115.392 133.399 115.73 133.474 116.167 133.549C116.556 133.616 117.056 133.691 117.513 133.544L117.36 133.068ZM117.415 131.342L117.882 131.165C117.669 130.602 117.622 129.584 118.411 127.815L117.955 127.612L117.498 127.408C116.653 129.3 116.603 130.61 116.947 131.519L117.415 131.342ZM117.36 133.068L117.513 133.544C117.8 133.452 118.016 133.265 118.133 133.004C118.239 132.766 118.242 132.515 118.218 132.309C118.172 131.907 117.994 131.461 117.882 131.165L117.415 131.342L116.947 131.519C117.076 131.862 117.196 132.174 117.225 132.423C117.238 132.543 117.223 132.59 117.22 132.596C117.22 132.596 117.221 132.594 117.223 132.591C117.226 132.588 117.228 132.585 117.231 132.583C117.236 132.578 117.233 132.584 117.208 132.592L117.36 133.068ZM111.493 147.868L111.239 147.438C109.616 148.395 107.912 148.988 106 148.97C104.085 148.951 101.914 148.319 99.3583 146.744L99.0959 147.17L98.8335 147.595C101.503 149.241 103.851 149.949 105.99 149.97C108.13 149.99 110.012 149.322 111.747 148.299L111.493 147.868Z" fill="url(#paint0_linear_1006_3805)"/>
<path d="M111.492 145.888L111.529 145.389C111.274 145.371 111.045 145.548 111 145.799L111.492 145.888ZM119.811 142.323L120.064 142.755L120.07 142.751L119.811 142.323ZM124.564 138.758L124.923 139.107V139.107L124.564 138.758ZM128.129 133.609L127.713 133.333L127.701 133.35L127.691 133.369L128.129 133.609ZM130.181 117.656L129.692 117.55C129.683 117.593 129.679 117.637 129.681 117.681L130.181 117.656ZM98.0147 137.939L97.5516 138.127L97.5516 138.127L98.0147 137.939ZM99.2922 143.143L99.7874 143.074L99.7874 143.074L99.2922 143.143ZM99.0959 147.17L98.6436 146.956C98.5351 147.187 98.6169 147.462 98.8335 147.595L99.0959 147.17ZM134.466 119.35L134.588 119.835C134.791 119.784 134.941 119.612 134.963 119.404C134.986 119.196 134.877 118.996 134.69 118.902L134.466 119.35ZM134.863 115.785L135.269 116.076V116.076L134.863 115.785ZM136.843 109.448L137.343 109.448C137.343 109.424 137.341 109.4 137.338 109.377L136.843 109.448ZM134.466 105.883L134.82 105.529V105.529L134.466 105.883ZM119.811 96.3768L119.865 95.8797C119.856 95.8787 119.848 95.878 119.839 95.8775L119.811 96.3768ZM99.6619 100.558L99.9894 100.936V100.936L99.6619 100.558ZM95.5442 107.629L96.0289 107.751V107.751L95.5442 107.629ZM93.8661 115.785L94.366 115.794L93.8661 115.785ZM94.4613 120.538L94.9576 120.599V120.599L94.4613 120.538ZM98.0147 115.785L98.171 116.26V116.26L98.0147 115.785ZM113.066 107.577L113.452 107.895V107.895L113.066 107.577ZM124.564 111.428L124.092 111.594C124.14 111.729 124.243 111.838 124.376 111.892C124.509 111.946 124.659 111.94 124.788 111.876L124.564 111.428ZM94.868 126.102L95.36 126.013C95.3577 126.001 95.3549 125.988 95.3516 125.975L94.868 126.102ZM111.493 147.868L111.747 148.299C111.972 148.167 112.057 147.883 111.942 147.649L111.493 147.868ZM109.635 122.313C109.746 122.566 110.041 122.681 110.294 122.57C110.547 122.459 110.662 122.164 110.551 121.911L110.093 122.112L109.635 122.313ZM108.373 120.939L108.338 121.438L108.338 121.438L108.373 120.939ZM105.887 121.909C105.775 122.161 105.888 122.457 106.141 122.569C106.393 122.681 106.689 122.568 106.801 122.315L106.344 122.112L105.887 121.909ZM124.686 123.105C124.797 123.358 125.092 123.473 125.345 123.362C125.598 123.251 125.713 122.956 125.602 122.704L125.144 122.904L124.686 123.105ZM123.424 121.732L123.389 122.23L123.39 122.23L123.424 121.732ZM120.939 122.701C120.826 122.954 120.94 123.249 121.192 123.361C121.445 123.474 121.74 123.36 121.852 123.108L121.395 122.904L120.939 122.701ZM109.057 137.738C108.82 137.597 108.513 137.675 108.372 137.913C108.231 138.15 108.309 138.457 108.546 138.598L108.802 138.168L109.057 137.738ZM111.706 139.597L111.869 139.125L111.706 139.597ZM113.78 140.632C114.055 140.647 114.291 140.435 114.305 140.159C114.32 139.883 114.108 139.648 113.832 139.634L113.806 140.133L113.78 140.632ZM117.36 133.068L117.208 132.592V132.592L117.36 133.068ZM117.415 131.342L116.947 131.519V131.519L117.415 131.342ZM111.492 145.888L111.455 146.387C111.78 146.411 112.155 146.355 112.539 146.263C112.929 146.169 113.36 146.029 113.808 145.861C114.704 145.525 115.699 145.067 116.621 144.608C117.545 144.149 118.405 143.686 119.034 143.338C119.348 143.164 119.605 143.019 119.784 142.916C119.873 142.865 119.943 142.825 119.99 142.797C120.014 142.784 120.032 142.773 120.045 142.766C120.051 142.762 120.056 142.759 120.059 142.758C120.061 142.757 120.062 142.756 120.063 142.755C120.063 142.755 120.063 142.755 120.064 142.755C120.064 142.755 120.064 142.755 120.064 142.755C120.064 142.755 120.064 142.755 119.811 142.323C119.558 141.892 119.558 141.892 119.558 141.892C119.558 141.892 119.558 141.892 119.558 141.892C119.558 141.892 119.558 141.892 119.557 141.893C119.557 141.893 119.555 141.894 119.554 141.894C119.551 141.896 119.547 141.899 119.541 141.902C119.529 141.909 119.512 141.919 119.489 141.932C119.443 141.959 119.375 141.998 119.287 142.048C119.112 142.149 118.859 142.292 118.549 142.463C117.929 142.807 117.083 143.262 116.176 143.713C115.268 144.164 114.307 144.606 113.457 144.925C113.032 145.084 112.642 145.21 112.305 145.291C111.961 145.374 111.702 145.402 111.529 145.389L111.492 145.888ZM119.811 142.323C120.07 142.751 120.07 142.751 120.07 142.751C120.07 142.751 120.07 142.751 120.07 142.751C120.071 142.751 120.071 142.751 120.071 142.75C120.071 142.75 120.072 142.75 120.073 142.749C120.075 142.748 120.077 142.747 120.08 142.745C120.087 142.741 120.096 142.735 120.108 142.728C120.132 142.713 120.167 142.691 120.213 142.663C120.303 142.607 120.434 142.525 120.596 142.422C120.919 142.215 121.367 141.922 121.866 141.576C122.857 140.89 124.079 139.976 124.923 139.107L124.564 138.758L124.205 138.41C123.433 139.206 122.278 140.074 121.297 140.754C120.81 141.091 120.373 141.377 120.057 141.579C119.9 141.68 119.773 141.759 119.685 141.814C119.642 141.841 119.608 141.861 119.585 141.875C119.574 141.882 119.566 141.887 119.56 141.891C119.557 141.892 119.555 141.894 119.554 141.895C119.553 141.895 119.553 141.895 119.552 141.895C119.552 141.896 119.552 141.896 119.552 141.896C119.552 141.896 119.552 141.896 119.552 141.896C119.552 141.896 119.552 141.896 119.811 142.323ZM124.564 138.758L124.923 139.107C125.812 138.191 126.726 136.867 127.408 135.794C127.751 135.253 128.04 134.768 128.244 134.419C128.346 134.243 128.426 134.102 128.481 134.004C128.509 133.955 128.53 133.917 128.545 133.891C128.552 133.878 128.558 133.867 128.561 133.861C128.563 133.857 128.565 133.855 128.566 133.853C128.566 133.852 128.567 133.851 128.567 133.851C128.567 133.85 128.567 133.85 128.567 133.85C128.567 133.85 128.567 133.85 128.567 133.85C128.567 133.85 128.567 133.85 128.129 133.609C127.691 133.369 127.691 133.369 127.691 133.369C127.691 133.369 127.691 133.369 127.691 133.369C127.691 133.369 127.69 133.369 127.69 133.369C127.69 133.37 127.69 133.37 127.69 133.371C127.689 133.372 127.688 133.374 127.686 133.378C127.682 133.384 127.677 133.393 127.671 133.405C127.657 133.43 127.637 133.466 127.61 133.513C127.557 133.608 127.479 133.745 127.379 133.916C127.181 134.257 126.898 134.731 126.563 135.258C125.888 136.321 125.02 137.572 124.205 138.41L124.564 138.758ZM128.129 133.609C128.546 133.886 128.546 133.886 128.546 133.885C128.546 133.885 128.546 133.885 128.546 133.885C128.547 133.884 128.547 133.883 128.548 133.883C128.548 133.881 128.549 133.88 128.551 133.878C128.553 133.875 128.556 133.87 128.559 133.864C128.566 133.853 128.576 133.838 128.588 133.818C128.611 133.78 128.643 133.724 128.682 133.651C128.761 133.505 128.869 133.288 128.995 132.993C129.246 132.404 129.569 131.503 129.869 130.229C130.47 127.681 130.986 123.645 130.68 117.63L130.181 117.656L129.681 117.681C129.983 123.617 129.472 127.557 128.896 129.999C128.608 131.22 128.303 132.066 128.075 132.601C127.961 132.868 127.866 133.058 127.802 133.177C127.77 133.237 127.745 133.279 127.73 133.304C127.722 133.317 127.717 133.326 127.714 133.33C127.712 133.333 127.712 133.334 127.711 133.335C127.711 133.335 127.711 133.335 127.711 133.334C127.712 133.334 127.712 133.334 127.712 133.334C127.712 133.334 127.712 133.333 127.712 133.333C127.712 133.333 127.713 133.333 128.129 133.609ZM98.0147 137.939C97.5516 138.127 97.5516 138.127 97.5515 138.127C97.5515 138.127 97.5515 138.127 97.5515 138.127C97.5515 138.127 97.5515 138.127 97.5515 138.127C97.5515 138.127 97.5516 138.127 97.5517 138.128C97.5519 138.128 97.5523 138.129 97.553 138.131C97.5542 138.134 97.5563 138.139 97.5591 138.146C97.5646 138.16 97.5732 138.182 97.5844 138.212C97.6068 138.271 97.6399 138.36 97.6813 138.477C97.7641 138.712 97.8799 139.059 98.0095 139.504C98.2687 140.394 98.5823 141.671 98.797 143.212L99.2922 143.143L99.7874 143.074C99.5649 141.477 99.2398 140.152 98.9696 139.224C98.8344 138.76 98.7128 138.395 98.6244 138.144C98.5802 138.019 98.5442 137.922 98.519 137.856C98.5064 137.823 98.4964 137.797 98.4895 137.78C98.486 137.771 98.4833 137.764 98.4813 137.759C98.4803 137.757 98.4796 137.755 98.479 137.753C98.4787 137.753 98.4785 137.752 98.4783 137.751C98.4782 137.751 98.4781 137.751 98.478 137.751C98.478 137.751 98.478 137.751 98.4779 137.751C98.4779 137.751 98.4779 137.75 98.0147 137.939ZM99.2922 143.143L98.797 143.212C99.1332 145.63 98.8839 146.446 98.6436 146.956L99.0959 147.17L99.5482 147.383C99.9047 146.626 100.137 145.589 99.7874 143.074L99.2922 143.143ZM130.181 117.656L129.875 118.051C130.348 118.417 131.133 118.941 131.973 119.335C132.394 119.533 132.84 119.704 133.277 119.804C133.709 119.903 134.166 119.94 134.588 119.835L134.466 119.35L134.345 118.865C134.134 118.917 133.85 118.909 133.5 118.829C133.155 118.75 132.778 118.609 132.398 118.43C131.637 118.073 130.914 117.591 130.486 117.26L130.181 117.656ZM134.466 119.35L134.69 118.902C134.688 118.901 134.624 118.869 134.583 118.667C134.543 118.471 134.543 118.197 134.592 117.871C134.691 117.217 134.964 116.503 135.269 116.076L134.863 115.785L134.456 115.495C134.042 116.074 133.721 116.945 133.603 117.722C133.544 118.112 133.531 118.515 133.603 118.868C133.674 119.214 133.849 119.6 134.243 119.797L134.466 119.35ZM134.863 115.785L135.269 116.076C136.316 114.611 136.83 112.951 137.086 111.675C137.214 111.034 137.278 110.482 137.31 110.089C137.327 109.892 137.335 109.735 137.339 109.625C137.341 109.57 137.342 109.527 137.342 109.497C137.343 109.483 137.343 109.471 137.343 109.462C137.343 109.458 137.343 109.455 137.343 109.453C137.343 109.451 137.343 109.45 137.343 109.449C137.343 109.449 137.343 109.449 137.343 109.448C137.343 109.448 137.343 109.448 137.343 109.448C137.343 109.448 137.343 109.448 136.843 109.448C136.343 109.448 136.343 109.448 136.343 109.448C136.343 109.448 136.343 109.447 136.343 109.447C136.343 109.447 136.343 109.447 136.343 109.447C136.343 109.447 136.343 109.448 136.343 109.448C136.343 109.449 136.343 109.451 136.343 109.454C136.343 109.459 136.343 109.468 136.343 109.479C136.342 109.503 136.341 109.539 136.34 109.588C136.336 109.684 136.329 109.826 136.314 110.007C136.284 110.369 136.225 110.882 136.105 111.479C135.865 112.678 135.39 114.187 134.456 115.495L134.863 115.785ZM136.843 109.448L137.338 109.377C137.181 108.278 136.412 107.122 134.82 105.529L134.466 105.883L134.113 106.236C135.689 107.813 136.241 108.769 136.348 109.518L136.843 109.448ZM134.466 105.883L134.82 105.529C134.704 105.413 134.593 105.223 134.468 104.917C134.341 104.608 134.23 104.258 134.072 103.816C133.765 102.956 133.33 101.901 132.454 100.84C130.694 98.7083 127.257 96.6788 119.865 95.8797L119.811 96.3768L119.757 96.8739C127.021 97.6591 130.157 99.6286 131.683 101.477C132.451 102.406 132.838 103.336 133.13 104.152C133.272 104.548 133.405 104.96 133.542 105.295C133.681 105.635 133.852 105.976 134.113 106.236L134.466 105.883ZM119.811 96.3768L119.839 95.8775C118.811 95.8204 117.693 95.5268 116.349 95.2252C115.027 94.9286 113.535 94.6384 111.853 94.6358C108.464 94.6304 104.395 95.7928 99.3343 100.18L99.6619 100.558L99.9894 100.936C104.899 96.6794 108.741 95.6309 111.852 95.6358C113.421 95.6382 114.826 95.9085 116.13 96.201C117.412 96.4886 118.648 96.8129 119.783 96.876L119.811 96.3768ZM95.5442 107.629L95.0594 107.506C94.6696 109.049 94.2544 110.74 93.9334 112.226C93.616 113.694 93.3793 115.01 93.3662 115.777L93.8661 115.785L94.366 115.794C94.3772 115.142 94.59 113.921 94.9108 112.437C95.228 110.969 95.6397 109.292 96.0289 107.751L95.5442 107.629ZM93.8661 115.785L93.3662 115.777C93.3483 116.818 93.4779 117.767 93.6209 118.582C93.7684 119.424 93.9157 120.06 93.9633 120.583L94.4613 120.538L94.9592 120.493C94.9067 119.915 94.7394 119.171 94.6058 118.409C94.4677 117.621 94.3497 116.744 94.366 115.794L93.8661 115.785ZM98.0147 115.785L98.171 116.26C99.7843 115.729 101.125 115.435 102.344 115.169C103.558 114.904 104.674 114.664 105.788 114.241C108.048 113.383 110.238 111.799 113.452 107.895L113.066 107.577L112.68 107.26C109.523 111.094 107.467 112.534 105.433 113.306C104.401 113.698 103.359 113.924 102.131 114.192C100.909 114.458 99.5249 114.762 97.8585 115.31L98.0147 115.785ZM113.066 107.577L113.452 107.895C114.487 106.638 115.584 106.119 116.644 106.034C117.722 105.947 118.83 106.302 119.877 106.923C120.923 107.542 121.874 108.406 122.622 109.28C123.374 110.16 123.889 111.014 124.092 111.594L124.564 111.428L125.036 111.263C124.777 110.523 124.178 109.561 123.382 108.63C122.58 107.693 121.546 106.749 120.387 106.062C119.23 105.377 117.914 104.928 116.564 105.037C115.197 105.147 113.863 105.823 112.68 107.26L113.066 107.577ZM124.564 111.428L124.788 111.876C125.024 111.758 125.549 111.632 126.208 111.636C126.857 111.64 127.575 111.77 128.2 112.103C128.815 112.431 129.351 112.961 129.657 113.8C129.968 114.649 130.057 115.855 129.692 117.55L130.181 117.656L130.669 117.761C131.061 115.946 130.991 114.536 130.597 113.457C130.198 112.367 129.483 111.655 128.67 111.221C127.867 110.793 126.98 110.641 126.215 110.636C125.461 110.631 124.765 110.769 124.341 110.981L124.564 111.428ZM94.868 126.102L94.376 126.192C95.0031 129.648 96.0419 134.415 97.5516 138.127L98.0147 137.939L98.4779 137.751C97.0091 134.139 95.9848 129.457 95.36 126.013L94.868 126.102ZM98.0147 115.785L97.8585 115.31C96.3932 115.792 95.4634 116.559 94.8778 117.5C94.3023 118.426 94.0868 119.477 93.9649 120.478L94.4613 120.538L94.9576 120.599C95.0743 119.64 95.2688 118.765 95.727 118.028C96.1751 117.308 96.9028 116.677 98.171 116.26L98.0147 115.785ZM94.4613 120.538L93.9649 120.478C93.7908 121.907 93.8975 123.345 94.044 124.416C94.1176 124.954 94.2019 125.404 94.2681 125.721C94.3012 125.879 94.3298 126.005 94.3504 126.091C94.3607 126.135 94.3689 126.168 94.3748 126.191C94.3777 126.203 94.38 126.212 94.3816 126.218C94.3824 126.222 94.383 126.224 94.3835 126.226C94.3837 126.227 94.3839 126.228 94.3841 126.228C94.3842 126.228 94.3842 126.229 94.3843 126.229C94.3843 126.229 94.3843 126.229 94.3843 126.229C94.3844 126.229 94.3844 126.229 94.868 126.102C95.3516 125.975 95.3517 125.976 95.3517 125.976C95.3517 125.976 95.3517 125.976 95.3517 125.976C95.3517 125.976 95.3517 125.976 95.3517 125.976C95.3516 125.976 95.3516 125.975 95.3515 125.975C95.3512 125.974 95.3508 125.972 95.3502 125.97C95.3491 125.965 95.3472 125.958 95.3448 125.949C95.3399 125.929 95.3326 125.899 95.3233 125.86C95.3047 125.782 95.278 125.665 95.2469 125.516C95.1847 125.218 95.1047 124.791 95.0348 124.281C94.8944 123.255 94.7978 121.911 94.9576 120.599L94.4613 120.538ZM99.6619 100.558L99.3343 100.18C97.1334 102.089 95.7606 104.731 95.0594 107.506L95.5442 107.629L96.0289 107.751C96.6932 105.122 97.9794 102.679 99.9894 100.936L99.6619 100.558ZM111.492 145.888L111 145.799C110.929 146.195 110.512 147.002 111.044 148.088L111.493 147.868L111.942 147.649C111.6 146.95 111.856 146.686 111.984 145.977L111.492 145.888ZM110.093 122.112L110.551 121.911C110.181 121.069 109.341 120.505 108.407 120.441L108.373 120.939L108.338 121.438C108.923 121.479 109.424 121.831 109.635 122.313L110.093 122.112ZM108.373 120.939L108.408 120.441C107.352 120.367 106.316 120.944 105.887 121.909L106.344 122.112L106.801 122.315C107.047 121.762 107.671 121.392 108.338 121.438L108.373 120.939ZM125.144 122.904L125.602 122.704C125.232 121.861 124.392 121.297 123.459 121.233L123.424 121.732L123.39 122.23C123.975 122.271 124.475 122.623 124.686 123.105L125.144 122.904ZM123.424 121.732L123.459 121.233C122.404 121.159 121.368 121.736 120.939 122.701L121.395 122.904L121.852 123.108C122.098 122.554 122.723 122.184 123.389 122.23L123.424 121.732ZM108.802 138.168C108.546 138.598 108.546 138.598 108.546 138.598C108.546 138.598 108.547 138.598 108.547 138.598C108.547 138.598 108.547 138.598 108.547 138.598C108.547 138.599 108.548 138.599 108.548 138.599C108.549 138.6 108.55 138.601 108.552 138.602C108.556 138.604 108.561 138.607 108.568 138.611C108.581 138.619 108.601 138.63 108.626 138.645C108.676 138.674 108.749 138.716 108.841 138.768C109.023 138.872 109.278 139.014 109.572 139.17C110.153 139.477 110.907 139.85 111.543 140.07L111.706 139.597L111.869 139.125C111.31 138.931 110.613 138.59 110.04 138.286C109.757 138.136 109.51 137.999 109.335 137.899C109.247 137.849 109.177 137.808 109.129 137.781C109.105 137.767 109.087 137.756 109.075 137.749C109.069 137.745 109.064 137.743 109.061 137.741C109.06 137.74 109.059 137.739 109.058 137.739C109.058 137.739 109.057 137.739 109.057 137.739C109.057 137.738 109.057 137.738 109.057 137.738C109.057 137.738 109.057 137.738 109.057 137.738C109.057 137.738 109.057 137.738 108.802 138.168ZM111.706 139.597L111.543 140.07C112.308 140.334 112.842 140.583 113.78 140.632L113.806 140.133L113.832 139.634C113.072 139.594 112.704 139.413 111.869 139.125L111.706 139.597ZM117.36 133.068L117.208 132.592C117.015 132.654 116.746 132.635 116.338 132.564C115.977 132.502 115.49 132.394 115.04 132.411L115.059 132.911L115.078 133.411C115.392 133.399 115.73 133.474 116.167 133.549C116.556 133.616 117.056 133.691 117.513 133.544L117.36 133.068ZM117.415 131.342L117.882 131.165C117.669 130.602 117.622 129.584 118.411 127.815L117.955 127.612L117.498 127.408C116.653 129.3 116.603 130.61 116.947 131.519L117.415 131.342ZM117.36 133.068L117.513 133.544C117.8 133.452 118.016 133.265 118.133 133.004C118.239 132.766 118.242 132.515 118.218 132.309C118.172 131.907 117.994 131.461 117.882 131.165L117.415 131.342L116.947 131.519C117.076 131.862 117.196 132.174 117.225 132.423C117.238 132.543 117.223 132.59 117.22 132.596C117.22 132.596 117.221 132.594 117.223 132.591C117.226 132.588 117.228 132.585 117.231 132.583C117.236 132.578 117.233 132.584 117.208 132.592L117.36 133.068ZM111.493 147.868L111.239 147.438C109.616 148.395 107.912 148.988 106 148.97C104.085 148.951 101.914 148.319 99.3583 146.744L99.0959 147.17L98.8335 147.595C101.503 149.241 103.851 149.949 105.99 149.97C108.13 149.99 110.012 149.322 111.747 148.299L111.493 147.868Z" fill="#03092D"/>
<path d="M99.0982 147.384C99.0982 147.384 84.5728 150.972 76.6526 155.227C75.3416 155.932 74.485 157.23 74.3239 158.71C73.3246 167.889 74.6563 184.535 74.6563 184.535L84.9547 178.198L87.3312 176.614V168.695L85.9996 161.5" stroke="#03092D" stroke-linecap="round" stroke-linejoin="round"/>
<path d="M111.881 147.384C111.881 147.384 122.509 150.649 132.227 156.632C133.219 157.243 133.982 158.171 134.314 159.287C137.108 168.678 136.323 184.535 136.323 184.535L126.025 178.198L123.648 176.614V168.695L120.208 159.673" stroke="#03092D" stroke-linecap="round" stroke-linejoin="round"/>
<path d="M97.6538 153.081C98.5458 154.319 101.229 158.98 101.229 176.447" stroke="#03092D" stroke-linecap="round" stroke-linejoin="round"/>
<path d="M110.492 151.346C111.029 152.037 113.101 158.397 114.679 175.215" stroke="#03092D" stroke-linecap="round" stroke-linejoin="round"/>
</g>
<rect x="58.2963" y="43.7685" width="100.496" height="18.2257" rx="2.42592" stroke="#03092D" stroke-width="0.774306"/>
<path d="M78.5444 55.5411C77.0754 55.5411 75.8845 54.3502 75.8845 52.8811C75.8845 51.4121 77.0754 50.2212 78.5444 50.2212C80.0135 50.2212 81.2043 51.4121 81.2043 52.8811C81.2043 54.3502 80.0135 55.5411 78.5444 55.5411Z" fill="#FF1E1E"/>
<path d="M89.341 56.3813L86.541 49.3813H87.771L89.441 53.6313C89.521 53.838 89.591 54.0247 89.651 54.1913C89.7177 54.358 89.7744 54.5113 89.821 54.6513C89.8677 54.7847 89.911 54.9113 89.951 55.0313C89.991 55.1513 90.031 55.2713 90.071 55.3913L89.811 55.4013C89.8577 55.2413 89.9077 55.0747 89.961 54.9013C90.0144 54.728 90.0744 54.538 90.141 54.3313C90.2144 54.1247 90.301 53.8913 90.401 53.6313L91.951 49.3813H93.211L90.391 56.3813H89.341ZM94.3395 56.3813V51.1313H95.3695V56.3813H94.3395ZM94.8395 49.9713C94.6195 49.9713 94.4495 49.9147 94.3295 49.8013C94.2095 49.688 94.1495 49.528 94.1495 49.3213C94.1495 49.128 94.2095 48.9713 94.3295 48.8513C94.4561 48.7313 94.6261 48.6713 94.8395 48.6713C95.0595 48.6713 95.2295 48.728 95.3495 48.8413C95.4695 48.9547 95.5295 49.1147 95.5295 49.3213C95.5295 49.5147 95.4661 49.6713 95.3395 49.7913C95.2195 49.9113 95.0528 49.9713 94.8395 49.9713ZM99.1427 56.4813C98.6627 56.4813 98.2327 56.3647 97.8527 56.1313C97.4793 55.8913 97.1827 55.568 96.9627 55.1613C96.7427 54.748 96.6327 54.278 96.6327 53.7513C96.6327 53.2247 96.7393 52.758 96.9527 52.3513C97.1727 51.938 97.4693 51.6147 97.8427 51.3813C98.216 51.1413 98.6393 51.0213 99.1127 51.0213C99.3727 51.0213 99.6227 51.0647 99.8627 51.1513C100.109 51.2313 100.329 51.3447 100.523 51.4913C100.716 51.6313 100.866 51.788 100.973 51.9613C101.086 52.128 101.143 52.298 101.143 52.4713L100.843 52.4913V48.9813H101.873V56.3813H100.843V55.1313H101.043C101.043 55.2913 100.989 55.4513 100.883 55.6113C100.776 55.7647 100.633 55.908 100.453 56.0413C100.279 56.1747 100.076 56.2813 99.8427 56.3613C99.616 56.4413 99.3827 56.4813 99.1427 56.4813ZM99.2827 55.5913C99.596 55.5913 99.8727 55.5113 100.113 55.3513C100.353 55.1913 100.539 54.9747 100.673 54.7013C100.813 54.4213 100.883 54.1047 100.883 53.7513C100.883 53.398 100.813 53.0847 100.673 52.8113C100.539 52.5313 100.353 52.3113 100.113 52.1513C99.8727 51.9913 99.596 51.9113 99.2827 51.9113C98.9693 51.9113 98.6927 51.9913 98.4527 52.1513C98.2127 52.3113 98.0227 52.5313 97.8827 52.8113C97.7493 53.0847 97.6827 53.398 97.6827 53.7513C97.6827 54.1047 97.7493 54.4213 97.8827 54.7013C98.0227 54.9747 98.2127 55.1913 98.4527 55.3513C98.6927 55.5113 98.9693 55.5913 99.2827 55.5913ZM105.741 56.4813C105.201 56.4813 104.721 56.368 104.301 56.1413C103.887 55.908 103.561 55.5913 103.321 55.1913C103.087 54.7913 102.971 54.3313 102.971 53.8113C102.971 53.398 103.037 53.0213 103.171 52.6813C103.304 52.3413 103.487 52.048 103.721 51.8013C103.961 51.548 104.244 51.3547 104.571 51.2213C104.904 51.0813 105.264 51.0113 105.651 51.0113C105.991 51.0113 106.307 51.078 106.601 51.2113C106.894 51.338 107.147 51.5147 107.361 51.7413C107.581 51.968 107.747 52.238 107.861 52.5513C107.981 52.858 108.037 53.1947 108.031 53.5613L108.021 54.0013H103.731L103.501 53.1813H107.131L106.981 53.3513V53.1113C106.961 52.8913 106.887 52.6947 106.761 52.5213C106.634 52.348 106.474 52.2113 106.281 52.1113C106.087 52.0113 105.877 51.9613 105.651 51.9613C105.291 51.9613 104.987 52.0313 104.741 52.1713C104.494 52.3047 104.307 52.5047 104.181 52.7713C104.054 53.0313 103.991 53.3547 103.991 53.7413C103.991 54.108 104.067 54.428 104.221 54.7013C104.374 54.968 104.591 55.1747 104.871 55.3213C105.151 55.468 105.474 55.5413 105.841 55.5413C106.101 55.5413 106.341 55.498 106.561 55.4113C106.787 55.3247 107.031 55.168 107.291 54.9413L107.811 55.6713C107.651 55.8313 107.454 55.9713 107.221 56.0913C106.994 56.2113 106.751 56.308 106.491 56.3813C106.237 56.448 105.987 56.4813 105.741 56.4813ZM111.51 56.4813C110.997 56.4813 110.537 56.3647 110.13 56.1313C109.73 55.8913 109.413 55.568 109.18 55.1613C108.947 54.748 108.83 54.278 108.83 53.7513C108.83 53.2247 108.947 52.758 109.18 52.3513C109.413 51.938 109.73 51.6147 110.13 51.3813C110.537 51.1413 110.997 51.0213 111.51 51.0213C112.017 51.0213 112.47 51.1413 112.87 51.3813C113.277 51.6147 113.597 51.938 113.83 52.3513C114.063 52.758 114.18 53.2247 114.18 53.7513C114.18 54.278 114.063 54.748 113.83 55.1613C113.597 55.568 113.277 55.8913 112.87 56.1313C112.47 56.3647 112.017 56.4813 111.51 56.4813ZM111.51 55.5413C111.823 55.5413 112.103 55.4647 112.35 55.3113C112.597 55.1513 112.79 54.938 112.93 54.6713C113.07 54.398 113.137 54.0913 113.13 53.7513C113.137 53.4047 113.07 53.098 112.93 52.8313C112.79 52.558 112.597 52.3447 112.35 52.1913C112.103 52.038 111.823 51.9613 111.51 51.9613C111.197 51.9613 110.913 52.0413 110.66 52.2013C110.413 52.3547 110.22 52.568 110.08 52.8413C109.94 53.108 109.873 53.4113 109.88 53.7513C109.873 54.0913 109.94 54.398 110.08 54.6713C110.22 54.938 110.413 55.1513 110.66 55.3113C110.913 55.4647 111.197 55.5413 111.51 55.5413ZM119.855 56.4813C119.415 56.4813 119.018 56.4047 118.665 56.2513C118.312 56.098 118.018 55.8713 117.785 55.5713L118.485 54.9713C118.685 55.2047 118.902 55.3747 119.135 55.4813C119.375 55.5813 119.645 55.6313 119.945 55.6313C120.065 55.6313 120.175 55.618 120.275 55.5913C120.382 55.558 120.472 55.5113 120.545 55.4513C120.625 55.3913 120.685 55.3213 120.725 55.2413C120.765 55.1547 120.785 55.0613 120.785 54.9613C120.785 54.788 120.722 54.648 120.595 54.5413C120.528 54.4947 120.422 54.4447 120.275 54.3913C120.135 54.3313 119.952 54.2713 119.725 54.2113C119.338 54.1113 119.022 53.998 118.775 53.8713C118.528 53.7447 118.338 53.6013 118.205 53.4413C118.105 53.3147 118.032 53.178 117.985 53.0313C117.938 52.878 117.915 52.7113 117.915 52.5313C117.915 52.3113 117.962 52.1113 118.055 51.9313C118.155 51.7447 118.288 51.5847 118.455 51.4513C118.628 51.3113 118.828 51.2047 119.055 51.1313C119.288 51.058 119.535 51.0213 119.795 51.0213C120.042 51.0213 120.285 51.0547 120.525 51.1213C120.772 51.188 120.998 51.2847 121.205 51.4113C121.412 51.538 121.585 51.688 121.725 51.8613L121.135 52.5113C121.008 52.3847 120.868 52.2747 120.715 52.1813C120.568 52.0813 120.418 52.0047 120.265 51.9513C120.112 51.898 119.972 51.8713 119.845 51.8713C119.705 51.8713 119.578 51.8847 119.465 51.9113C119.352 51.938 119.255 51.978 119.175 52.0313C119.102 52.0847 119.045 52.1513 119.005 52.2313C118.965 52.3113 118.945 52.4013 118.945 52.5013C118.952 52.588 118.972 52.6713 119.005 52.7513C119.045 52.8247 119.098 52.888 119.165 52.9413C119.238 52.9947 119.348 53.0513 119.495 53.1113C119.642 53.1713 119.828 53.228 120.055 53.2813C120.388 53.368 120.662 53.4647 120.875 53.5713C121.095 53.6713 121.268 53.788 121.395 53.9213C121.528 54.048 121.622 54.1947 121.675 54.3613C121.728 54.528 121.755 54.7147 121.755 54.9213C121.755 55.2213 121.668 55.4913 121.495 55.7313C121.328 55.9647 121.102 56.148 120.815 56.2813C120.528 56.4147 120.208 56.4813 119.855 56.4813ZM125.34 56.4813C124.8 56.4813 124.32 56.368 123.9 56.1413C123.487 55.908 123.16 55.5913 122.92 55.1913C122.687 54.7913 122.57 54.3313 122.57 53.8113C122.57 53.398 122.637 53.0213 122.77 52.6813C122.903 52.3413 123.087 52.048 123.32 51.8013C123.56 51.548 123.843 51.3547 124.17 51.2213C124.503 51.0813 124.863 51.0113 125.25 51.0113C125.59 51.0113 125.907 51.078 126.2 51.2113C126.493 51.338 126.747 51.5147 126.96 51.7413C127.18 51.968 127.347 52.238 127.46 52.5513C127.58 52.858 127.637 53.1947 127.63 53.5613L127.62 54.0013H123.33L123.1 53.1813H126.73L126.58 53.3513V53.1113C126.56 52.8913 126.487 52.6947 126.36 52.5213C126.233 52.348 126.073 52.2113 125.88 52.1113C125.687 52.0113 125.477 51.9613 125.25 51.9613C124.89 51.9613 124.587 52.0313 124.34 52.1713C124.093 52.3047 123.907 52.5047 123.78 52.7713C123.653 53.0313 123.59 53.3547 123.59 53.7413C123.59 54.108 123.667 54.428 123.82 54.7013C123.973 54.968 124.19 55.1747 124.47 55.3213C124.75 55.468 125.073 55.5413 125.44 55.5413C125.7 55.5413 125.94 55.498 126.16 55.4113C126.387 55.3247 126.63 55.168 126.89 54.9413L127.41 55.6713C127.25 55.8313 127.053 55.9713 126.82 56.0913C126.593 56.2113 126.35 56.308 126.09 56.3813C125.837 56.448 125.587 56.4813 125.34 56.4813ZM128.77 56.3813V48.9813H129.8V56.3813H128.77ZM131.829 56.3813V50.5413C131.829 50.2413 131.896 49.9747 132.029 49.7413C132.163 49.508 132.346 49.3247 132.579 49.1913C132.813 49.058 133.083 48.9913 133.389 48.9913C133.603 48.9913 133.803 49.0313 133.989 49.1113C134.176 49.1913 134.326 49.298 134.439 49.4313L134.089 50.2213C134.003 50.1413 133.906 50.078 133.799 50.0313C133.699 49.978 133.603 49.9513 133.509 49.9513C133.369 49.9513 133.249 49.9747 133.149 50.0213C133.056 50.0613 132.986 50.128 132.939 50.2213C132.893 50.308 132.869 50.4147 132.869 50.5413V56.3813H132.349C132.263 56.3813 132.176 56.3813 132.089 56.3813C132.003 56.3813 131.916 56.3813 131.829 56.3813ZM130.989 52.1713V51.2213H134.109V52.1713H130.989ZM135.359 56.3813V51.1313H136.389V56.3813H135.359ZM135.859 49.9713C135.639 49.9713 135.469 49.9147 135.349 49.8013C135.229 49.688 135.169 49.528 135.169 49.3213C135.169 49.128 135.229 48.9713 135.349 48.8513C135.476 48.7313 135.646 48.6713 135.859 48.6713C136.079 48.6713 136.249 48.728 136.369 48.8413C136.489 48.9547 136.549 49.1147 136.549 49.3213C136.549 49.5147 136.486 49.6713 136.359 49.7913C136.239 49.9113 136.073 49.9713 135.859 49.9713ZM140.418 56.4813C139.878 56.4813 139.398 56.368 138.978 56.1413C138.565 55.908 138.238 55.5913 137.998 55.1913C137.765 54.7913 137.648 54.3313 137.648 53.8113C137.648 53.398 137.715 53.0213 137.848 52.6813C137.982 52.3413 138.165 52.048 138.398 51.8013C138.638 51.548 138.922 51.3547 139.248 51.2213C139.582 51.0813 139.942 51.0113 140.328 51.0113C140.668 51.0113 140.985 51.078 141.278 51.2113C141.572 51.338 141.825 51.5147 142.038 51.7413C142.258 51.968 142.425 52.238 142.538 52.5513C142.658 52.858 142.715 53.1947 142.708 53.5613L142.698 54.0013H138.408L138.178 53.1813H141.808L141.658 53.3513V53.1113C141.638 52.8913 141.565 52.6947 141.438 52.5213C141.312 52.348 141.152 52.2113 140.958 52.1113C140.765 52.0113 140.555 51.9613 140.328 51.9613C139.968 51.9613 139.665 52.0313 139.418 52.1713C139.172 52.3047 138.985 52.5047 138.858 52.7713C138.732 53.0313 138.668 53.3547 138.668 53.7413C138.668 54.108 138.745 54.428 138.898 54.7013C139.052 54.968 139.268 55.1747 139.548 55.3213C139.828 55.468 140.152 55.5413 140.518 55.5413C140.778 55.5413 141.018 55.498 141.238 55.4113C141.465 55.3247 141.708 55.168 141.968 54.9413L142.488 55.6713C142.328 55.8313 142.132 55.9713 141.898 56.0913C141.672 56.2113 141.428 56.308 141.168 56.3813C140.915 56.448 140.665 56.4813 140.418 56.4813Z" fill="#03092D"/>
<path opacity="0.1" d="M93.9344 168.495L58.4173 183.905C57.0914 184.48 56.332 185.873 56.6183 187.289C58.1738 194.986 63.7228 219.263 74.0568 232.011C83.1154 243.187 103.245 252.802 108.17 255.964C111.911 251.464 128.342 236.205 133.609 222.818C139.617 207.547 137.587 182.727 136.749 174.919C136.595 173.482 135.451 172.384 134.014 172.235L95.503 168.253C94.968 168.198 94.4278 168.281 93.9344 168.495Z" fill="black"/>
<path d="M107.699 162.789C108.323 162.626 108.978 162.626 109.602 162.789L147.055 172.6C148.727 173.038 149.896 174.553 149.815 176.303C149.633 180.239 149.095 188.438 147.565 197.435C146.038 206.416 143.511 216.261 139.319 223.448C135.638 229.759 129.115 236.066 123.011 241.254C119.953 243.854 116.986 246.184 114.513 248.104C112.029 250.033 110.071 251.526 108.995 252.478L108.581 252.844L108.167 252.478C107.089 251.525 105.141 250.031 102.67 248.103C100.21 246.183 97.2606 243.853 94.2195 241.253C88.1509 236.065 81.6623 229.758 77.9822 223.448C73.79 216.261 71.2634 206.416 69.7361 197.435C68.2063 188.438 67.6682 180.239 67.4861 176.303C67.4053 174.553 68.5746 173.038 70.2468 172.6L107.699 162.789Z" fill="white" stroke="#03092D" stroke-width="1.25"/>
<path d="M107.985 167.759C108.401 167.65 108.839 167.65 109.255 167.759L142.991 176.594C143.979 176.853 144.642 177.735 144.596 178.732C144.433 182.258 143.951 189.606 142.581 197.661C141.208 205.73 138.955 214.444 135.281 220.742C132.066 226.252 126.31 231.836 120.815 236.506C118.074 238.835 115.412 240.925 113.184 242.655C111.244 244.161 109.611 245.409 108.557 246.295C107.506 245.41 105.881 244.161 103.952 242.656C101.735 240.926 99.0887 238.836 96.3638 236.507C90.9 231.837 85.1748 226.253 81.9595 220.742C78.3257 214.513 76.0813 205.921 74.7046 197.925C73.3303 189.944 72.8303 182.62 72.6548 178.968C72.6004 177.832 73.357 176.828 74.481 176.534L107.985 167.759Z" fill="#E9EEF5" stroke="#03092D" stroke-width="1.25"/>
<path d="M98.7559 197.309C101.51 199.66 106.331 204.363 106.331 204.363C106.331 204.363 115.372 193.06 119.733 189.212" stroke="#2E55EC" stroke-width="2" stroke-linecap="round" stroke-linejoin="round"/>
</g>
<defs>
<linearGradient id="paint0_linear_1006_3805" x1="120.209" y1="95.1357" x2="120.209" y2="264.319" gradientUnits="userSpaceOnUse">
<stop stop-color="#AEAEFF"/>
<stop offset="1" stop-color="white" stop-opacity="0.8"/>
</linearGradient>
<clipPath id="clip0_1006_3805">
<rect width="217" height="210" fill="white"/>
</clipPath>
<clipPath id="clip1_1006_3805">
<path d="M72.3557 79.9141H146.37V130.428C146.37 151.255 129.486 168.139 108.659 168.139V168.139C88.6091 168.139 72.3557 151.886 72.3557 131.836V79.9141Z" fill="white"/>
</clipPath>
</defs>
</svg>
