<svg width="225" height="210" viewBox="0 0 225 210" fill="none" xmlns="http://www.w3.org/2000/svg">
<g clip-path="url(#clip0_1006_4136)">
<path d="M107.285 24.6899L201.609 29.6332L207.26 29.9294C213.466 30.2546 218.233 35.5492 217.908 41.7551L217.61 47.4479L217.142 56.3631L218.266 56.422L217.103 78.6148L215.979 78.5559L215.759 82.7698L215.67 84.4553L216.794 84.5142L216.22 95.4702L215.096 95.4113L208.045 229.96L207.363 242.959L207.308 244.019C206.983 250.225 201.688 254.992 195.482 254.667L191.928 254.481L98.7056 249.595L92.3205 249.261C84.7531 248.864 78.9402 242.408 79.3372 234.84L79.5372 231.025L79.5404 230.964L86.9815 88.9788L85.5762 88.9051L86.8423 64.7458L88.2476 64.8195L89.5098 40.7345L89.8082 35.0417C90.1334 28.8358 95.428 24.0685 101.634 24.3937L107.285 24.6899Z" fill="#E9EEF5" stroke="#03092D" stroke-linecap="round" stroke-linejoin="round"/>
<path d="M153.921 37.1493C152.749 37.0879 151.848 36.0877 151.91 34.9154C151.971 33.743 152.971 32.8425 154.144 32.9039C155.316 32.9653 156.217 33.9655 156.155 35.1379C156.094 36.3102 155.093 37.2108 153.921 37.1493Z" fill="#03092D"/>
<path d="M212.915 51.0293L203.733 226.241L203.079 238.72L202.902 242.097C202.658 246.752 198.687 250.327 194.032 250.083L188.707 249.804L102.027 245.262L91.7771 244.724C87.1224 244.48 83.5469 240.509 83.7911 235.855L84.039 231.129L84.231 227.466L84.234 227.407L93.8047 44.787L94.2148 36.9622C94.4588 32.3077 98.4297 28.7323 103.084 28.9762L110.359 29.3575L130.113 30.3927C131.661 30.4739 132.85 31.7946 132.769 33.3426C132.526 37.9867 136.093 41.9488 140.737 42.1922L166.267 43.5302C170.911 43.7736 174.873 40.2061 175.116 35.5619C175.198 34.0139 176.518 32.8247 178.066 32.9059L198.064 33.9539L205.339 34.3352C209.994 34.5791 213.569 38.55 213.325 43.2045L212.915 51.0293Z" fill="#FAFAFA" stroke="#03092D" stroke-linecap="round" stroke-linejoin="round"/>
<path d="M189.134 134.941C187.868 159.111 168.957 177.767 146.896 176.611C124.835 175.454 107.978 154.924 109.245 130.754C110.511 106.585 129.422 87.9285 151.483 89.0846C173.544 90.2408 190.401 110.771 189.134 134.941Z" fill="#E9EEF5"/>
<path opacity="0.1" d="M105.143 131.045L102.144 130.888" stroke="#3449FC" stroke-linecap="round"/>
<path d="M195.636 135.788L192.638 135.631" stroke="#3449FC" stroke-linecap="round"/>
<path d="M195.638 135.788L192.64 135.631" stroke="#3449FC" stroke-linecap="round"/>
<path opacity="0.1" d="M105.8 118.508L102.801 118.351" stroke="#3449FC" stroke-linecap="round"/>
<path d="M196.295 123.251L193.297 123.094" stroke="#3449FC" stroke-linecap="round"/>
<path opacity="0.1" d="M104.513 143.04L101.515 142.882" stroke="#3449FC" stroke-linecap="round"/>
<path d="M195.008 147.782L192.009 147.625" stroke="#3449FC" stroke-linecap="round"/>
<path d="M151.757 81.2305L151.94 77.7382" stroke="#3449FC" stroke-linecap="round"/>
<path d="M146.183 187.588L146.366 184.096" stroke="#3449FC" stroke-linecap="round"/>
<path d="M164.962 83.9541L166.043 80.6282" stroke="#3449FC" stroke-linecap="round"/>
<path d="M132.079 184.698L133.16 181.372" stroke="#3449FC" stroke-linecap="round"/>
<path d="M177.01 90.7573L178.887 87.8685" stroke="#3449FC" stroke-linecap="round"/>
<path d="M119.586 177.928L121.462 175.039" stroke="#3449FC" stroke-linecap="round"/>
<path d="M185.462 100.522L188.022 98.2171" stroke="#3449FC" stroke-linecap="round"/>
<path opacity="0.1" d="M110.059 167.634L112.619 165.329" stroke="#3449FC" stroke-linecap="round"/>
<path d="M190.895 111.572L193.964 110.008" stroke="#3449FC" stroke-linecap="round"/>
<path opacity="0.1" d="M103.838 155.935L106.907 154.371" stroke="#3449FC" stroke-linecap="round"/>
<path opacity="0.1" d="M109.374 107.3L106.485 105.424" stroke="#3449FC" stroke-linecap="round"/>
<path d="M191.317 160.519L188.428 158.643" stroke="#3449FC" stroke-linecap="round"/>
<path opacity="0.1" d="M116.205 96.8921L113.9 94.3323" stroke="#3449FC" stroke-linecap="round"/>
<path d="M184.177 171.519L181.872 168.959" stroke="#3449FC" stroke-linecap="round"/>
<path opacity="0.1" d="M126.02 88.0815L124.456 85.0124" stroke="#3449FC" stroke-linecap="round"/>
<path d="M174.017 180.777L172.453 177.708" stroke="#3449FC" stroke-linecap="round"/>
<path opacity="0.1" d="M138.34 82.5586L137.613 79.1379" stroke="#3449FC" stroke-linecap="round"/>
<path d="M160.513 186.188L159.786 182.767" stroke="#3449FC" stroke-linecap="round"/>
<g clip-path="url(#clip1_1006_4136)">
<path d="M145.539 157.901L138.263 155.463L138.607 148.9L136.533 141.388L134.912 133.077L135.235 126.924L138.753 122.584L150.884 118.696L156.582 112.002L168.522 119.62L171.503 125.535L169.778 134.904L167.168 145.461L158.167 152.393L150.633 154.878L150.526 156.929L145.539 157.901Z" fill="#FFCEB6"/>
<path d="M139.161 151.977C139.215 150.94 146.232 158.32 150.916 155.274L150.809 157.325L143.187 157.94L138.978 155.471C138.395 153.521 139.096 153.208 139.161 151.977Z" fill="#F9AC8A"/>
<path d="M153.375 186.149C152.523 171.609 148.919 165.929 146.85 159.961C146.547 159.088 147.075 158.162 147.969 157.928L150.84 157.179C151.157 157.096 151.491 157.11 151.8 157.219L162.69 161.051C162.846 161.106 162.993 161.184 163.126 161.283L171.466 167.498C171.781 167.732 172.002 168.072 172.088 168.455L173.812 176.143C173.886 176.474 173.856 176.819 173.727 177.132L168.738 189.174C168.381 190.036 167.378 190.428 166.531 190.036L164.317 189.013C164.162 188.941 164.055 188.795 164.033 188.626C163.958 188.041 163.107 188.053 163.048 188.639L163.027 188.843L154.801 187.706C154.016 187.597 153.422 186.94 153.375 186.149Z" fill="#E1F0FF"/>
<path d="M148.411 158.051C148.779 158.893 149.384 161.474 150.507 165.153C151.591 168.702 152.509 180.086 152.893 188.311L138.228 187.543C136.543 180.462 142.087 161.01 133.213 157.666L137.811 156.261L143.058 158.182L148.411 158.051Z" fill="white"/>
<path d="M148.137 168.259C147.275 168.536 144.809 169.267 141.386 167.716" stroke="#03092D" stroke-linecap="round"/>
<path d="M123.592 185.564L111.946 191.514L112.649 178.105L113.224 167.141C113.301 165.658 114.183 164.336 115.521 163.695L122.14 160.522C122.391 160.402 122.653 160.308 122.923 160.241L131.959 158.013C134.359 157.492 136.711 159.195 136.907 161.643L137.532 169.41L138.712 187.469L127.071 188.31C126.244 188.37 125.552 187.691 125.596 186.864C125.651 185.803 124.538 185.081 123.592 185.564Z" fill="#E1F0FF"/>
<path d="M170.837 127.812C171.7 128.555 173.746 129.978 175.029 129.728C174.258 129.291 174.84 127.157 175.611 126.189C177.734 123.524 177.92 119.964 177.92 119.964C177.837 119.034 177.233 117.945 175.733 116.28C174.306 114.695 176.148 108.369 161.596 106.02C157.288 105.553 151.664 101.03 141.255 109.141C139.057 110.854 137.596 113.324 136.773 115.986C135.834 119.024 134.769 122.628 134.67 124.044C134.532 126.03 134.974 127.716 135.016 128.821C135.357 126.878 136.037 125.016 138.813 124.261C145.477 122.449 147.506 124.245 154.274 116.852C158.986 111.705 164.77 118.614 165.554 121.299C166.907 120.709 172.716 120.881 170.837 127.812Z" fill="#4B4D59"/>
<path d="M150.697 155.028L150.76 154.532C150.506 154.5 150.269 154.664 150.21 154.913L150.697 155.028ZM159.191 151.903L159.421 152.347L159.427 152.344L159.191 151.903ZM164.124 148.592L164.464 148.959V148.959L164.124 148.592ZM167.954 143.636L167.552 143.338L167.539 143.355L167.528 143.373L167.954 143.636ZM170.837 127.812L170.355 127.681C170.343 127.724 170.337 127.767 170.337 127.811L170.837 127.812ZM137.654 146.384L137.182 146.548L137.182 146.548L137.654 146.384ZM138.657 151.648L139.155 151.605L139.155 151.605L138.657 151.648ZM138.25 155.659L137.81 155.422C137.69 155.646 137.757 155.925 137.966 156.07L138.25 155.659ZM175.029 129.728L175.124 130.219C175.33 130.179 175.488 130.015 175.522 129.808C175.556 129.602 175.457 129.396 175.275 129.293L175.029 129.728ZM175.611 126.189L176.002 126.501V126.501L175.611 126.189ZM177.92 119.964L178.419 119.99C178.421 119.967 178.42 119.943 178.418 119.919L177.92 119.964ZM175.733 116.28L176.105 115.945V115.945L175.733 116.28ZM161.596 106.02L161.675 105.526C161.667 105.525 161.658 105.523 161.649 105.523L161.596 106.02ZM141.255 109.141L141.562 109.535V109.535L141.255 109.141ZM136.773 115.986L137.251 116.134V116.134L136.773 115.986ZM134.67 124.044L135.169 124.078L134.67 124.044ZM135.016 128.821L135.508 128.908V128.908L135.016 128.821ZM138.813 124.261L138.945 124.743V124.743L138.813 124.261ZM154.274 116.852L154.643 117.19V117.19L154.274 116.852ZM165.554 121.299L165.075 121.44C165.115 121.578 165.212 121.691 165.343 121.752C165.473 121.813 165.623 121.815 165.754 121.758L165.554 121.299ZM135.131 134.399L135.627 134.336C135.625 134.323 135.623 134.31 135.621 134.298L135.131 134.399ZM150.594 157.005L150.825 157.449C151.057 157.328 151.157 157.05 151.054 156.809L150.594 157.005ZM150.076 131.388C150.174 131.646 150.462 131.777 150.72 131.679C150.979 131.581 151.109 131.293 151.012 131.035L150.544 131.211L150.076 131.388ZM148.888 129.95L148.827 130.446L148.827 130.446L148.888 129.95ZM146.354 130.788C146.229 131.034 146.327 131.335 146.573 131.461C146.819 131.586 147.12 131.488 147.246 131.242L146.8 131.015L146.354 130.788ZM165.065 132.967C165.163 133.225 165.451 133.355 165.71 133.258C165.968 133.16 166.098 132.872 166.001 132.613L165.533 132.79L165.065 132.967ZM163.877 131.529L163.816 132.025L163.816 132.025L163.877 131.529ZM161.344 132.367C161.219 132.613 161.317 132.914 161.563 133.039C161.809 133.165 162.11 133.067 162.235 132.821L161.789 132.594L161.344 132.367ZM148.692 146.762C148.462 146.609 148.152 146.67 147.998 146.9C147.845 147.13 147.907 147.44 148.137 147.594L148.414 147.178L148.692 146.762ZM151.24 148.757L151.428 148.293L151.24 148.757ZM153.256 149.899C153.531 149.928 153.777 149.728 153.806 149.454C153.835 149.179 153.635 148.933 153.361 148.904L153.309 149.401L153.256 149.899ZM157.228 142.532L157.1 142.049V142.049L157.228 142.532ZM157.372 140.812L156.896 140.964V140.964L157.372 140.812ZM150.697 155.028L150.634 155.524C150.957 155.565 151.334 155.529 151.722 155.457C152.117 155.384 152.555 155.266 153.011 155.122C153.923 154.833 154.941 154.428 155.886 154.018C156.833 153.608 157.716 153.191 158.361 152.876C158.685 152.719 158.949 152.587 159.132 152.494C159.224 152.448 159.296 152.411 159.345 152.386C159.37 152.374 159.388 152.364 159.401 152.357C159.408 152.354 159.412 152.352 159.416 152.35C159.417 152.349 159.419 152.348 159.42 152.348C159.42 152.348 159.42 152.347 159.421 152.347C159.421 152.347 159.421 152.347 159.421 152.347C159.421 152.347 159.421 152.347 159.191 151.903C158.961 151.459 158.961 151.459 158.961 151.459C158.961 151.459 158.961 151.459 158.961 151.459C158.961 151.459 158.96 151.46 158.96 151.46C158.959 151.46 158.958 151.461 158.957 151.461C158.954 151.463 158.949 151.465 158.943 151.468C158.931 151.475 158.913 151.484 158.89 151.496C158.842 151.52 158.772 151.556 158.682 151.601C158.502 151.692 158.242 151.822 157.923 151.977C157.286 152.288 156.417 152.698 155.488 153.101C154.558 153.504 153.575 153.895 152.709 154.169C152.276 154.305 151.88 154.411 151.54 154.474C151.192 154.538 150.932 154.553 150.76 154.532L150.697 155.028ZM159.191 151.903C159.427 152.344 159.427 152.344 159.427 152.344C159.427 152.344 159.427 152.344 159.428 152.344C159.428 152.344 159.428 152.343 159.428 152.343C159.429 152.343 159.429 152.343 159.43 152.342C159.432 152.341 159.434 152.34 159.438 152.338C159.444 152.335 159.454 152.329 159.466 152.323C159.491 152.309 159.528 152.289 159.574 152.264C159.668 152.212 159.803 152.137 159.969 152.042C160.303 151.853 160.766 151.584 161.282 151.265C162.308 150.631 163.576 149.782 164.464 148.959L164.124 148.592L163.784 148.225C162.971 148.979 161.772 149.786 160.757 150.414C160.253 150.725 159.801 150.988 159.476 151.173C159.313 151.265 159.182 151.338 159.092 151.388C159.047 151.412 159.012 151.431 158.989 151.444C158.977 151.45 158.969 151.455 158.963 151.458C158.96 151.46 158.958 151.461 158.956 151.462C158.956 151.462 158.955 151.462 158.955 151.462C158.955 151.462 158.955 151.463 158.955 151.463C158.955 151.463 158.955 151.463 158.955 151.463C158.955 151.463 158.955 151.463 159.191 151.903ZM164.124 148.592L164.464 148.959C165.4 148.09 166.382 146.816 167.119 145.78C167.49 145.258 167.804 144.789 168.026 144.451C168.137 144.281 168.224 144.144 168.285 144.049C168.315 144.001 168.338 143.964 168.354 143.939C168.362 143.926 168.368 143.917 168.372 143.91C168.374 143.907 168.376 143.904 168.377 143.902C168.377 143.901 168.378 143.901 168.378 143.9C168.378 143.9 168.379 143.9 168.379 143.9C168.379 143.9 168.379 143.9 168.379 143.9C168.379 143.899 168.379 143.899 167.954 143.636C167.528 143.373 167.528 143.373 167.528 143.373C167.528 143.373 167.528 143.373 167.528 143.373C167.528 143.374 167.528 143.374 167.528 143.374C167.528 143.374 167.528 143.375 167.527 143.375C167.526 143.377 167.525 143.379 167.523 143.382C167.519 143.388 167.514 143.397 167.506 143.409C167.492 143.432 167.469 143.468 167.44 143.513C167.382 143.605 167.297 143.738 167.189 143.903C166.973 144.234 166.666 144.692 166.304 145.201C165.574 146.227 164.641 147.431 163.784 148.225L164.124 148.592ZM167.954 143.636C168.355 143.934 168.355 143.934 168.355 143.934C168.356 143.934 168.356 143.933 168.356 143.933C168.356 143.933 168.357 143.932 168.357 143.931C168.358 143.93 168.359 143.929 168.36 143.927C168.363 143.924 168.366 143.919 168.37 143.914C168.378 143.903 168.388 143.888 168.401 143.869C168.426 143.832 168.461 143.778 168.504 143.707C168.59 143.565 168.709 143.354 168.85 143.067C169.132 142.491 169.501 141.608 169.868 140.352C170.602 137.839 171.328 133.835 171.337 127.813L170.837 127.812L170.337 127.811C170.328 133.755 169.612 137.663 168.908 140.071C168.557 141.275 168.208 142.105 167.952 142.627C167.825 142.888 167.72 143.072 167.649 143.187C167.614 143.245 167.588 143.286 167.571 143.311C167.563 143.323 167.557 143.332 167.554 143.336C167.552 143.339 167.551 143.34 167.551 143.34C167.551 143.34 167.551 143.34 167.551 143.34C167.551 143.34 167.551 143.34 167.551 143.339C167.551 143.339 167.552 143.339 167.552 143.339C167.552 143.339 167.552 143.338 167.954 143.636ZM137.654 146.384C137.182 146.548 137.182 146.548 137.181 146.548C137.181 146.548 137.181 146.548 137.181 146.548C137.181 146.548 137.181 146.548 137.181 146.548C137.181 146.548 137.182 146.548 137.182 146.548C137.182 146.549 137.182 146.55 137.183 146.552C137.184 146.555 137.186 146.56 137.188 146.567C137.193 146.582 137.2 146.604 137.21 146.634C137.229 146.694 137.258 146.785 137.293 146.904C137.363 147.143 137.461 147.496 137.567 147.947C137.779 148.849 138.025 150.141 138.159 151.691L138.657 151.648L139.155 151.605C139.017 149.998 138.761 148.658 138.54 147.718C138.429 147.247 138.327 146.876 138.252 146.621C138.214 146.494 138.184 146.395 138.162 146.328C138.151 146.294 138.142 146.268 138.136 146.25C138.133 146.241 138.131 146.234 138.129 146.229C138.128 146.226 138.128 146.224 138.127 146.223C138.127 146.222 138.127 146.222 138.127 146.221C138.127 146.221 138.126 146.221 138.126 146.221C138.126 146.22 138.126 146.22 138.126 146.22C138.126 146.22 138.126 146.22 137.654 146.384ZM138.657 151.648L138.159 151.691C138.368 154.123 138.077 154.925 137.81 155.422L138.25 155.659L138.691 155.895C139.087 155.158 139.373 154.134 139.155 151.605L138.657 151.648ZM170.837 127.812L170.511 128.191C170.964 128.581 171.721 129.145 172.54 129.583C172.949 129.802 173.386 129.997 173.817 130.119C174.243 130.241 174.697 130.302 175.124 130.219L175.029 129.728L174.933 129.237C174.719 129.279 174.436 129.256 174.091 129.158C173.751 129.061 173.382 128.9 173.012 128.702C172.27 128.305 171.573 127.786 171.163 127.433L170.837 127.812ZM175.029 129.728L175.275 129.293C175.273 129.292 175.211 129.256 175.181 129.052C175.151 128.855 175.165 128.58 175.231 128.258C175.364 127.61 175.675 126.911 176.002 126.501L175.611 126.189L175.22 125.878C174.776 126.435 174.41 127.287 174.252 128.057C174.173 128.444 174.138 128.846 174.192 129.201C174.244 129.551 174.399 129.946 174.782 130.163L175.029 129.728ZM175.611 126.189L176.002 126.501C177.123 125.093 177.724 123.462 178.046 122.201C178.208 121.567 178.301 121.02 178.353 120.629C178.38 120.433 178.396 120.276 178.406 120.167C178.411 120.113 178.414 120.07 178.416 120.04C178.417 120.025 178.418 120.013 178.419 120.005C178.419 120.001 178.419 119.997 178.419 119.995C178.419 119.994 178.419 119.993 178.419 119.992C178.419 119.992 178.419 119.991 178.419 119.991C178.419 119.991 178.419 119.991 178.419 119.991C178.419 119.99 178.419 119.99 177.92 119.964C177.421 119.938 177.421 119.938 177.421 119.938C177.421 119.938 177.421 119.938 177.421 119.938C177.421 119.937 177.421 119.937 177.421 119.937C177.421 119.938 177.421 119.938 177.421 119.938C177.421 119.939 177.421 119.941 177.42 119.944C177.42 119.949 177.42 119.958 177.419 119.97C177.417 119.993 177.414 120.029 177.41 120.077C177.401 120.173 177.387 120.315 177.362 120.495C177.314 120.855 177.227 121.364 177.077 121.954C176.775 123.138 176.221 124.62 175.22 125.878L175.611 126.189ZM177.92 119.964L178.418 119.919C178.319 118.814 177.612 117.619 176.105 115.945L175.733 116.28L175.362 116.614C176.854 118.271 177.354 119.254 177.422 120.009L177.92 119.964ZM175.733 116.28L176.105 115.945C175.995 115.823 175.894 115.628 175.785 115.316C175.675 115 175.582 114.645 175.448 114.195C175.186 113.32 174.807 112.243 173.988 111.138C172.342 108.917 169.016 106.711 161.675 105.526L161.596 106.02L161.516 106.513C168.728 107.677 171.757 109.808 173.185 111.734C173.903 112.702 174.241 113.651 174.49 114.482C174.61 114.884 174.722 115.302 174.841 115.645C174.961 115.991 175.115 116.34 175.362 116.614L175.733 116.28ZM161.596 106.02L161.649 105.523C160.626 105.412 159.525 105.06 158.199 104.688C156.894 104.323 155.419 103.955 153.74 103.865C150.355 103.682 146.231 104.63 140.948 108.746L141.255 109.141L141.562 109.535C146.688 105.541 150.58 104.695 153.686 104.863C155.253 104.948 156.642 105.291 157.929 105.651C159.194 106.006 160.411 106.394 161.542 106.517L161.596 106.02ZM136.773 115.986L136.295 115.838C135.825 117.359 135.322 119.026 134.924 120.492C134.53 121.942 134.225 123.244 134.172 124.009L134.67 124.044L135.169 124.078C135.214 123.428 135.491 122.22 135.889 120.754C136.282 119.305 136.781 117.652 137.251 116.134L136.773 115.986ZM134.67 124.044L134.172 124.009C134.099 125.048 134.179 126.002 134.279 126.824C134.382 127.672 134.496 128.315 134.516 128.84L135.016 128.821L135.516 128.802C135.493 128.223 135.365 127.47 135.272 126.703C135.175 125.909 135.103 125.026 135.169 124.078L134.67 124.044ZM138.813 124.261L138.945 124.743C140.583 124.298 141.937 124.074 143.169 123.872C144.395 123.671 145.522 123.49 146.657 123.125C148.959 122.387 151.228 120.919 154.643 117.19L154.274 116.852L153.905 116.514C150.551 120.178 148.422 121.509 146.352 122.173C145.3 122.511 144.248 122.682 143.008 122.885C141.773 123.087 140.375 123.318 138.682 123.778L138.813 124.261ZM154.274 116.852L154.643 117.19C155.742 115.988 156.864 115.527 157.928 115.498C159.008 115.467 160.097 115.88 161.11 116.555C162.121 117.228 163.026 118.141 163.727 119.052C164.433 119.971 164.902 120.85 165.075 121.44L165.554 121.299L166.034 121.159C165.814 120.406 165.267 119.415 164.52 118.443C163.768 117.465 162.786 116.469 161.664 115.722C160.544 114.977 159.254 114.46 157.9 114.498C156.529 114.536 155.161 115.142 153.905 116.514L154.274 116.852ZM165.554 121.299L165.754 121.758C165.996 121.652 166.527 121.554 167.186 121.593C167.833 121.631 168.543 121.798 169.15 122.164C169.747 122.524 170.254 123.081 170.517 123.934C170.782 124.799 170.808 126.008 170.355 127.681L170.837 127.812L171.32 127.943C171.805 126.151 171.81 124.74 171.473 123.641C171.132 122.532 170.455 121.783 169.666 121.307C168.886 120.837 168.008 120.639 167.244 120.594C166.492 120.55 165.789 120.651 165.355 120.841L165.554 121.299ZM135.131 134.399L134.635 134.463C135.08 137.947 135.868 142.762 137.182 146.548L137.654 146.384L138.126 146.22C136.849 142.537 136.071 137.808 135.627 134.336L135.131 134.399ZM138.813 124.261L138.682 123.778C137.194 124.183 136.225 124.9 135.591 125.809C134.968 126.703 134.698 127.742 134.524 128.735L135.016 128.821L135.508 128.908C135.675 127.957 135.915 127.093 136.411 126.381C136.897 125.685 137.656 125.094 138.945 124.743L138.813 124.261ZM135.016 128.821L134.524 128.735C134.275 130.154 134.306 131.595 134.396 132.672C134.442 133.213 134.502 133.667 134.552 133.987C134.577 134.147 134.599 134.273 134.615 134.361C134.623 134.405 134.629 134.439 134.634 134.462C134.636 134.474 134.638 134.483 134.639 134.49C134.64 134.493 134.64 134.495 134.641 134.497C134.641 134.498 134.641 134.499 134.641 134.499C134.641 134.5 134.641 134.5 134.641 134.5C134.641 134.5 134.641 134.5 134.641 134.5C134.641 134.5 134.641 134.501 135.131 134.399C135.621 134.298 135.621 134.298 135.621 134.298C135.621 134.298 135.621 134.298 135.621 134.298C135.621 134.298 135.621 134.298 135.621 134.298C135.621 134.298 135.621 134.297 135.62 134.297C135.62 134.296 135.62 134.294 135.619 134.292C135.619 134.288 135.617 134.28 135.615 134.27C135.611 134.251 135.606 134.221 135.598 134.181C135.584 134.102 135.563 133.984 135.54 133.834C135.493 133.533 135.436 133.102 135.393 132.589C135.306 131.557 135.28 130.209 135.508 128.908L135.016 128.821ZM141.255 109.141L140.948 108.746C138.65 110.537 137.141 113.104 136.295 115.838L136.773 115.986L137.251 116.134C138.052 113.543 139.464 111.17 141.562 109.535L141.255 109.141ZM150.697 155.028L150.21 154.913C150.118 155.304 149.66 156.088 150.134 157.202L150.594 157.005L151.054 156.809C150.749 156.094 151.019 155.844 151.184 155.142L150.697 155.028ZM150.544 131.211L151.012 131.035C150.686 130.174 149.877 129.567 148.948 129.454L148.888 129.95L148.827 130.446C149.409 130.517 149.89 130.896 150.076 131.388L150.544 131.211ZM148.888 129.95L148.948 129.454C147.898 129.325 146.834 129.847 146.354 130.788L146.8 131.015L147.246 131.242C147.52 130.702 148.163 130.365 148.827 130.446L148.888 129.95ZM165.533 132.79L166.001 132.613C165.676 131.752 164.866 131.146 163.937 131.033L163.877 131.529L163.816 132.025C164.398 132.096 164.879 132.474 165.065 132.967L165.533 132.79ZM163.877 131.529L163.938 131.033C162.887 130.904 161.823 131.426 161.344 132.367L161.789 132.594L162.235 132.821C162.51 132.281 163.152 131.944 163.816 132.025L163.877 131.529ZM148.414 147.178C148.137 147.594 148.137 147.594 148.137 147.594C148.137 147.594 148.137 147.594 148.137 147.594C148.137 147.594 148.137 147.594 148.137 147.594C148.137 147.594 148.138 147.594 148.138 147.595C148.139 147.595 148.141 147.596 148.142 147.597C148.146 147.6 148.151 147.603 148.157 147.607C148.17 147.616 148.189 147.628 148.214 147.644C148.262 147.676 148.333 147.722 148.421 147.779C148.598 147.892 148.846 148.047 149.131 148.218C149.695 148.556 150.428 148.967 151.052 149.22L151.24 148.757L151.428 148.293C150.879 148.071 150.2 147.693 149.645 147.36C149.37 147.196 149.131 147.045 148.96 146.936C148.875 146.882 148.808 146.838 148.761 146.808C148.738 146.793 148.721 146.781 148.709 146.773C148.703 146.769 148.699 146.766 148.696 146.764C148.694 146.763 148.693 146.763 148.693 146.762C148.692 146.762 148.692 146.762 148.692 146.762C148.692 146.762 148.692 146.762 148.692 146.762C148.692 146.762 148.692 146.762 148.692 146.762C148.692 146.762 148.692 146.762 148.414 147.178ZM151.24 148.757L151.052 149.22C151.802 149.524 152.323 149.801 153.256 149.899L153.309 149.401L153.361 148.904C152.604 148.825 152.246 148.625 151.428 148.293L151.24 148.757ZM157.228 142.532L157.1 142.049C156.904 142.1 156.637 142.067 156.233 141.975C155.876 141.894 155.395 141.761 154.945 141.755L154.938 142.255L154.931 142.755C155.245 142.759 155.578 142.852 156.011 142.95C156.396 143.038 156.892 143.138 157.355 143.016L157.228 142.532ZM157.372 140.812L157.849 140.66C157.665 140.086 157.671 139.067 158.552 137.342L158.107 137.115L157.662 136.887C156.719 138.733 156.601 140.039 156.896 140.964L157.372 140.812ZM157.228 142.532L157.355 143.016C157.647 142.939 157.873 142.764 158.003 142.509C158.121 142.277 158.137 142.026 158.124 141.819C158.099 141.416 157.945 140.96 157.849 140.66L157.372 140.812L156.896 140.964C157.007 141.313 157.111 141.631 157.126 141.881C157.134 142.002 157.115 142.048 157.113 142.054C157.112 142.054 157.113 142.052 157.116 142.049C157.118 142.046 157.121 142.043 157.124 142.041C157.13 142.036 157.126 142.042 157.1 142.049L157.228 142.532ZM150.594 157.005L150.363 156.562C148.692 157.433 146.959 157.936 145.05 157.818C143.14 157.699 141.004 156.954 138.535 155.247L138.25 155.659L137.966 156.07C140.546 157.853 142.854 158.683 144.988 158.816C147.125 158.948 149.039 158.38 150.825 157.449L150.594 157.005Z" fill="url(#paint0_linear_1006_4136)"/>
<path d="M150.697 155.028L150.76 154.532C150.506 154.5 150.269 154.664 150.21 154.913L150.697 155.028ZM159.191 151.903L159.421 152.347L159.427 152.344L159.191 151.903ZM164.124 148.592L164.464 148.959V148.959L164.124 148.592ZM167.954 143.636L167.552 143.338L167.539 143.355L167.528 143.373L167.954 143.636ZM170.837 127.812L170.355 127.681C170.343 127.724 170.337 127.767 170.337 127.811L170.837 127.812ZM137.654 146.384L137.182 146.548L137.182 146.548L137.654 146.384ZM138.657 151.648L139.155 151.605L139.155 151.605L138.657 151.648ZM138.25 155.659L137.81 155.422C137.69 155.646 137.757 155.925 137.966 156.07L138.25 155.659ZM175.029 129.728L175.124 130.219C175.33 130.179 175.488 130.015 175.522 129.808C175.556 129.602 175.457 129.396 175.275 129.293L175.029 129.728ZM175.611 126.189L176.002 126.501V126.501L175.611 126.189ZM177.92 119.964L178.419 119.99C178.421 119.967 178.42 119.943 178.418 119.919L177.92 119.964ZM175.733 116.28L176.105 115.945V115.945L175.733 116.28ZM161.596 106.02L161.675 105.526C161.667 105.525 161.658 105.523 161.649 105.523L161.596 106.02ZM141.255 109.141L141.562 109.535V109.535L141.255 109.141ZM136.773 115.986L137.251 116.134V116.134L136.773 115.986ZM134.67 124.044L135.169 124.078L134.67 124.044ZM135.016 128.821L135.508 128.908V128.908L135.016 128.821ZM138.813 124.261L138.945 124.743V124.743L138.813 124.261ZM154.274 116.852L154.643 117.19V117.19L154.274 116.852ZM165.554 121.299L165.075 121.44C165.115 121.578 165.212 121.691 165.343 121.752C165.473 121.813 165.623 121.815 165.754 121.758L165.554 121.299ZM135.131 134.399L135.627 134.336C135.625 134.323 135.623 134.31 135.621 134.298L135.131 134.399ZM150.594 157.005L150.825 157.449C151.057 157.328 151.157 157.05 151.054 156.809L150.594 157.005ZM150.076 131.388C150.174 131.646 150.462 131.777 150.72 131.679C150.979 131.581 151.109 131.293 151.012 131.035L150.544 131.211L150.076 131.388ZM148.888 129.95L148.827 130.446L148.827 130.446L148.888 129.95ZM146.354 130.788C146.229 131.034 146.327 131.335 146.573 131.461C146.819 131.586 147.12 131.488 147.246 131.242L146.8 131.015L146.354 130.788ZM165.065 132.967C165.163 133.225 165.451 133.355 165.71 133.258C165.968 133.16 166.098 132.872 166.001 132.613L165.533 132.79L165.065 132.967ZM163.877 131.529L163.816 132.025L163.816 132.025L163.877 131.529ZM161.344 132.367C161.219 132.613 161.317 132.914 161.563 133.039C161.809 133.165 162.11 133.067 162.235 132.821L161.789 132.594L161.344 132.367ZM148.692 146.762C148.462 146.609 148.152 146.67 147.998 146.9C147.845 147.13 147.907 147.44 148.137 147.594L148.414 147.178L148.692 146.762ZM151.24 148.757L151.428 148.293L151.24 148.757ZM153.256 149.899C153.531 149.928 153.777 149.728 153.806 149.454C153.835 149.179 153.635 148.933 153.361 148.904L153.309 149.401L153.256 149.899ZM157.228 142.532L157.1 142.049V142.049L157.228 142.532ZM157.372 140.812L156.896 140.964V140.964L157.372 140.812ZM150.697 155.028L150.634 155.524C150.957 155.565 151.334 155.529 151.722 155.457C152.117 155.384 152.555 155.266 153.011 155.122C153.923 154.833 154.941 154.428 155.886 154.018C156.833 153.608 157.716 153.191 158.361 152.876C158.685 152.719 158.949 152.587 159.132 152.494C159.224 152.448 159.296 152.411 159.345 152.386C159.37 152.374 159.388 152.364 159.401 152.357C159.408 152.354 159.412 152.352 159.416 152.35C159.417 152.349 159.419 152.348 159.42 152.348C159.42 152.348 159.42 152.347 159.421 152.347C159.421 152.347 159.421 152.347 159.421 152.347C159.421 152.347 159.421 152.347 159.191 151.903C158.961 151.459 158.961 151.459 158.961 151.459C158.961 151.459 158.961 151.459 158.961 151.459C158.961 151.459 158.96 151.46 158.96 151.46C158.959 151.46 158.958 151.461 158.957 151.461C158.954 151.463 158.949 151.465 158.943 151.468C158.931 151.475 158.913 151.484 158.89 151.496C158.842 151.52 158.772 151.556 158.682 151.601C158.502 151.692 158.242 151.822 157.923 151.977C157.286 152.288 156.417 152.698 155.488 153.101C154.558 153.504 153.575 153.895 152.709 154.169C152.276 154.305 151.88 154.411 151.54 154.474C151.192 154.538 150.932 154.553 150.76 154.532L150.697 155.028ZM159.191 151.903C159.427 152.344 159.427 152.344 159.427 152.344C159.427 152.344 159.427 152.344 159.428 152.344C159.428 152.344 159.428 152.343 159.428 152.343C159.429 152.343 159.429 152.343 159.43 152.342C159.432 152.341 159.434 152.34 159.438 152.338C159.444 152.335 159.454 152.329 159.466 152.323C159.491 152.309 159.528 152.289 159.574 152.264C159.668 152.212 159.803 152.137 159.969 152.042C160.303 151.853 160.766 151.584 161.282 151.265C162.308 150.631 163.576 149.782 164.464 148.959L164.124 148.592L163.784 148.225C162.971 148.979 161.772 149.786 160.757 150.414C160.253 150.725 159.801 150.988 159.476 151.173C159.313 151.265 159.182 151.338 159.092 151.388C159.047 151.412 159.012 151.431 158.989 151.444C158.977 151.45 158.969 151.455 158.963 151.458C158.96 151.46 158.958 151.461 158.956 151.462C158.956 151.462 158.955 151.462 158.955 151.462C158.955 151.462 158.955 151.463 158.955 151.463C158.955 151.463 158.955 151.463 158.955 151.463C158.955 151.463 158.955 151.463 159.191 151.903ZM164.124 148.592L164.464 148.959C165.4 148.09 166.382 146.816 167.119 145.78C167.49 145.258 167.804 144.789 168.026 144.451C168.137 144.281 168.224 144.144 168.285 144.049C168.315 144.001 168.338 143.964 168.354 143.939C168.362 143.926 168.368 143.917 168.372 143.91C168.374 143.907 168.376 143.904 168.377 143.902C168.377 143.901 168.378 143.901 168.378 143.9C168.378 143.9 168.379 143.9 168.379 143.9C168.379 143.9 168.379 143.9 168.379 143.9C168.379 143.899 168.379 143.899 167.954 143.636C167.528 143.373 167.528 143.373 167.528 143.373C167.528 143.373 167.528 143.373 167.528 143.373C167.528 143.374 167.528 143.374 167.528 143.374C167.528 143.374 167.528 143.375 167.527 143.375C167.526 143.377 167.525 143.379 167.523 143.382C167.519 143.388 167.514 143.397 167.506 143.409C167.492 143.432 167.469 143.468 167.44 143.513C167.382 143.605 167.297 143.738 167.189 143.903C166.973 144.234 166.666 144.692 166.304 145.201C165.574 146.227 164.641 147.431 163.784 148.225L164.124 148.592ZM167.954 143.636C168.355 143.934 168.355 143.934 168.355 143.934C168.356 143.934 168.356 143.933 168.356 143.933C168.356 143.933 168.357 143.932 168.357 143.931C168.358 143.93 168.359 143.929 168.36 143.927C168.363 143.924 168.366 143.919 168.37 143.914C168.378 143.903 168.388 143.888 168.401 143.869C168.426 143.832 168.461 143.778 168.504 143.707C168.59 143.565 168.709 143.354 168.85 143.067C169.132 142.491 169.501 141.608 169.868 140.352C170.602 137.839 171.328 133.835 171.337 127.813L170.837 127.812L170.337 127.811C170.328 133.755 169.612 137.663 168.908 140.071C168.557 141.275 168.208 142.105 167.952 142.627C167.825 142.888 167.72 143.072 167.649 143.187C167.614 143.245 167.588 143.286 167.571 143.311C167.563 143.323 167.557 143.332 167.554 143.336C167.552 143.339 167.551 143.34 167.551 143.34C167.551 143.34 167.551 143.34 167.551 143.34C167.551 143.34 167.551 143.34 167.551 143.339C167.551 143.339 167.552 143.339 167.552 143.339C167.552 143.339 167.552 143.338 167.954 143.636ZM137.654 146.384C137.182 146.548 137.182 146.548 137.181 146.548C137.181 146.548 137.181 146.548 137.181 146.548C137.181 146.548 137.181 146.548 137.181 146.548C137.181 146.548 137.182 146.548 137.182 146.548C137.182 146.549 137.182 146.55 137.183 146.552C137.184 146.555 137.186 146.56 137.188 146.567C137.193 146.582 137.2 146.604 137.21 146.634C137.229 146.694 137.258 146.785 137.293 146.904C137.363 147.143 137.461 147.496 137.567 147.947C137.779 148.849 138.025 150.141 138.159 151.691L138.657 151.648L139.155 151.605C139.017 149.998 138.761 148.658 138.54 147.718C138.429 147.247 138.327 146.876 138.252 146.621C138.214 146.494 138.184 146.395 138.162 146.328C138.151 146.294 138.142 146.268 138.136 146.25C138.133 146.241 138.131 146.234 138.129 146.229C138.128 146.226 138.128 146.224 138.127 146.223C138.127 146.222 138.127 146.222 138.127 146.221C138.127 146.221 138.126 146.221 138.126 146.221C138.126 146.22 138.126 146.22 138.126 146.22C138.126 146.22 138.126 146.22 137.654 146.384ZM138.657 151.648L138.159 151.691C138.368 154.123 138.077 154.925 137.81 155.422L138.25 155.659L138.691 155.895C139.087 155.158 139.373 154.134 139.155 151.605L138.657 151.648ZM170.837 127.812L170.511 128.191C170.964 128.581 171.721 129.145 172.54 129.583C172.949 129.802 173.386 129.997 173.817 130.119C174.243 130.241 174.697 130.302 175.124 130.219L175.029 129.728L174.933 129.237C174.719 129.279 174.436 129.256 174.091 129.158C173.751 129.061 173.382 128.9 173.012 128.702C172.27 128.305 171.573 127.786 171.163 127.433L170.837 127.812ZM175.029 129.728L175.275 129.293C175.273 129.292 175.211 129.256 175.181 129.052C175.151 128.855 175.165 128.58 175.231 128.258C175.364 127.61 175.675 126.911 176.002 126.501L175.611 126.189L175.22 125.878C174.776 126.435 174.41 127.287 174.252 128.057C174.173 128.444 174.138 128.846 174.192 129.201C174.244 129.551 174.399 129.946 174.782 130.163L175.029 129.728ZM175.611 126.189L176.002 126.501C177.123 125.093 177.724 123.462 178.046 122.201C178.208 121.567 178.301 121.02 178.353 120.629C178.38 120.433 178.396 120.276 178.406 120.167C178.411 120.113 178.414 120.07 178.416 120.04C178.417 120.025 178.418 120.013 178.419 120.005C178.419 120.001 178.419 119.997 178.419 119.995C178.419 119.994 178.419 119.993 178.419 119.992C178.419 119.992 178.419 119.991 178.419 119.991C178.419 119.991 178.419 119.991 178.419 119.991C178.419 119.99 178.419 119.99 177.92 119.964C177.421 119.938 177.421 119.938 177.421 119.938C177.421 119.938 177.421 119.938 177.421 119.938C177.421 119.937 177.421 119.937 177.421 119.937C177.421 119.938 177.421 119.938 177.421 119.938C177.421 119.939 177.421 119.941 177.42 119.944C177.42 119.949 177.42 119.958 177.419 119.97C177.417 119.993 177.414 120.029 177.41 120.077C177.401 120.173 177.387 120.315 177.362 120.495C177.314 120.855 177.227 121.364 177.077 121.954C176.775 123.138 176.221 124.62 175.22 125.878L175.611 126.189ZM177.92 119.964L178.418 119.919C178.319 118.814 177.612 117.619 176.105 115.945L175.733 116.28L175.362 116.614C176.854 118.271 177.354 119.254 177.422 120.009L177.92 119.964ZM175.733 116.28L176.105 115.945C175.995 115.823 175.894 115.628 175.785 115.316C175.675 115 175.582 114.645 175.448 114.195C175.186 113.32 174.807 112.243 173.988 111.138C172.342 108.917 169.016 106.711 161.675 105.526L161.596 106.02L161.516 106.513C168.728 107.677 171.757 109.808 173.185 111.734C173.903 112.702 174.241 113.651 174.49 114.482C174.61 114.884 174.722 115.302 174.841 115.645C174.961 115.991 175.115 116.34 175.362 116.614L175.733 116.28ZM161.596 106.02L161.649 105.523C160.626 105.412 159.525 105.06 158.199 104.688C156.894 104.323 155.419 103.955 153.74 103.865C150.355 103.682 146.231 104.63 140.948 108.746L141.255 109.141L141.562 109.535C146.688 105.541 150.58 104.695 153.686 104.863C155.253 104.948 156.642 105.291 157.929 105.651C159.194 106.006 160.411 106.394 161.542 106.517L161.596 106.02ZM136.773 115.986L136.295 115.838C135.825 117.359 135.322 119.026 134.924 120.492C134.53 121.942 134.225 123.244 134.172 124.009L134.67 124.044L135.169 124.078C135.214 123.428 135.491 122.22 135.889 120.754C136.282 119.305 136.781 117.652 137.251 116.134L136.773 115.986ZM134.67 124.044L134.172 124.009C134.099 125.048 134.179 126.002 134.279 126.824C134.382 127.672 134.496 128.315 134.516 128.84L135.016 128.821L135.516 128.802C135.493 128.223 135.365 127.47 135.272 126.703C135.175 125.909 135.103 125.026 135.169 124.078L134.67 124.044ZM138.813 124.261L138.945 124.743C140.583 124.298 141.937 124.074 143.169 123.872C144.395 123.671 145.522 123.49 146.657 123.125C148.959 122.387 151.228 120.919 154.643 117.19L154.274 116.852L153.905 116.514C150.551 120.178 148.422 121.509 146.352 122.173C145.3 122.511 144.248 122.682 143.008 122.885C141.773 123.087 140.375 123.318 138.682 123.778L138.813 124.261ZM154.274 116.852L154.643 117.19C155.742 115.988 156.864 115.527 157.928 115.498C159.008 115.467 160.097 115.88 161.11 116.555C162.121 117.228 163.026 118.141 163.727 119.052C164.433 119.971 164.902 120.85 165.075 121.44L165.554 121.299L166.034 121.159C165.814 120.406 165.267 119.415 164.52 118.443C163.768 117.465 162.786 116.469 161.664 115.722C160.544 114.977 159.254 114.46 157.9 114.498C156.529 114.536 155.161 115.142 153.905 116.514L154.274 116.852ZM165.554 121.299L165.754 121.758C165.996 121.652 166.527 121.554 167.186 121.593C167.833 121.631 168.543 121.798 169.15 122.164C169.747 122.524 170.254 123.081 170.517 123.934C170.782 124.799 170.808 126.008 170.355 127.681L170.837 127.812L171.32 127.943C171.805 126.151 171.81 124.74 171.473 123.641C171.132 122.532 170.455 121.783 169.666 121.307C168.886 120.837 168.008 120.639 167.244 120.594C166.492 120.55 165.789 120.651 165.355 120.841L165.554 121.299ZM135.131 134.399L134.635 134.463C135.08 137.947 135.868 142.762 137.182 146.548L137.654 146.384L138.126 146.22C136.849 142.537 136.071 137.808 135.627 134.336L135.131 134.399ZM138.813 124.261L138.682 123.778C137.194 124.183 136.225 124.9 135.591 125.809C134.968 126.703 134.698 127.742 134.524 128.735L135.016 128.821L135.508 128.908C135.675 127.957 135.915 127.093 136.411 126.381C136.897 125.685 137.656 125.094 138.945 124.743L138.813 124.261ZM135.016 128.821L134.524 128.735C134.275 130.154 134.306 131.595 134.396 132.672C134.442 133.213 134.502 133.667 134.552 133.987C134.577 134.147 134.599 134.273 134.615 134.361C134.623 134.405 134.629 134.439 134.634 134.462C134.636 134.474 134.638 134.483 134.639 134.49C134.64 134.493 134.64 134.495 134.641 134.497C134.641 134.498 134.641 134.499 134.641 134.499C134.641 134.5 134.641 134.5 134.641 134.5C134.641 134.5 134.641 134.5 134.641 134.5C134.641 134.5 134.641 134.501 135.131 134.399C135.621 134.298 135.621 134.298 135.621 134.298C135.621 134.298 135.621 134.298 135.621 134.298C135.621 134.298 135.621 134.298 135.621 134.298C135.621 134.298 135.621 134.297 135.62 134.297C135.62 134.296 135.62 134.294 135.619 134.292C135.619 134.288 135.617 134.28 135.615 134.27C135.611 134.251 135.606 134.221 135.598 134.181C135.584 134.102 135.563 133.984 135.54 133.834C135.493 133.533 135.436 133.102 135.393 132.589C135.306 131.557 135.28 130.209 135.508 128.908L135.016 128.821ZM141.255 109.141L140.948 108.746C138.65 110.537 137.141 113.104 136.295 115.838L136.773 115.986L137.251 116.134C138.052 113.543 139.464 111.17 141.562 109.535L141.255 109.141ZM150.697 155.028L150.21 154.913C150.118 155.304 149.66 156.088 150.134 157.202L150.594 157.005L151.054 156.809C150.749 156.094 151.019 155.844 151.184 155.142L150.697 155.028ZM150.544 131.211L151.012 131.035C150.686 130.174 149.877 129.567 148.948 129.454L148.888 129.95L148.827 130.446C149.409 130.517 149.89 130.896 150.076 131.388L150.544 131.211ZM148.888 129.95L148.948 129.454C147.898 129.325 146.834 129.847 146.354 130.788L146.8 131.015L147.246 131.242C147.52 130.702 148.163 130.365 148.827 130.446L148.888 129.95ZM165.533 132.79L166.001 132.613C165.676 131.752 164.866 131.146 163.937 131.033L163.877 131.529L163.816 132.025C164.398 132.096 164.879 132.474 165.065 132.967L165.533 132.79ZM163.877 131.529L163.938 131.033C162.887 130.904 161.823 131.426 161.344 132.367L161.789 132.594L162.235 132.821C162.51 132.281 163.152 131.944 163.816 132.025L163.877 131.529ZM148.414 147.178C148.137 147.594 148.137 147.594 148.137 147.594C148.137 147.594 148.137 147.594 148.137 147.594C148.137 147.594 148.137 147.594 148.137 147.594C148.137 147.594 148.138 147.594 148.138 147.595C148.139 147.595 148.141 147.596 148.142 147.597C148.146 147.6 148.151 147.603 148.157 147.607C148.17 147.616 148.189 147.628 148.214 147.644C148.262 147.676 148.333 147.722 148.421 147.779C148.598 147.892 148.846 148.047 149.131 148.218C149.695 148.556 150.428 148.967 151.052 149.22L151.24 148.757L151.428 148.293C150.879 148.071 150.2 147.693 149.645 147.36C149.37 147.196 149.131 147.045 148.96 146.936C148.875 146.882 148.808 146.838 148.761 146.808C148.738 146.793 148.721 146.781 148.709 146.773C148.703 146.769 148.699 146.766 148.696 146.764C148.694 146.763 148.693 146.763 148.693 146.762C148.692 146.762 148.692 146.762 148.692 146.762C148.692 146.762 148.692 146.762 148.692 146.762C148.692 146.762 148.692 146.762 148.692 146.762C148.692 146.762 148.692 146.762 148.414 147.178ZM151.24 148.757L151.052 149.22C151.802 149.524 152.323 149.801 153.256 149.899L153.309 149.401L153.361 148.904C152.604 148.825 152.246 148.625 151.428 148.293L151.24 148.757ZM157.228 142.532L157.1 142.049C156.904 142.1 156.637 142.067 156.233 141.975C155.876 141.894 155.395 141.761 154.945 141.755L154.938 142.255L154.931 142.755C155.245 142.759 155.578 142.852 156.011 142.95C156.396 143.038 156.892 143.138 157.355 143.016L157.228 142.532ZM157.372 140.812L157.849 140.66C157.665 140.086 157.671 139.067 158.552 137.342L158.107 137.115L157.662 136.887C156.719 138.733 156.601 140.039 156.896 140.964L157.372 140.812ZM157.228 142.532L157.355 143.016C157.647 142.939 157.873 142.764 158.003 142.509C158.121 142.277 158.137 142.026 158.124 141.819C158.099 141.416 157.945 140.96 157.849 140.66L157.372 140.812L156.896 140.964C157.007 141.313 157.111 141.631 157.126 141.881C157.134 142.002 157.115 142.048 157.113 142.054C157.112 142.054 157.113 142.052 157.116 142.049C157.118 142.046 157.121 142.043 157.124 142.041C157.13 142.036 157.126 142.042 157.1 142.049L157.228 142.532ZM150.594 157.005L150.363 156.562C148.692 157.433 146.959 157.936 145.05 157.818C143.14 157.699 141.004 156.954 138.535 155.247L138.25 155.659L137.966 156.07C140.546 157.853 142.854 158.683 144.988 158.816C147.125 158.948 149.039 158.38 150.825 157.449L150.594 157.005Z" fill="#03092D"/>
<path d="M138.242 155.873C138.242 155.873 123.548 158.695 115.416 162.531C114.07 163.166 113.147 164.417 112.909 165.886C111.43 175.001 111.889 191.694 111.889 191.694L122.505 185.904L124.961 184.447L125.376 176.539L124.422 169.284" stroke="#03092D" stroke-linecap="round" stroke-linejoin="round"/>
<path d="M151.007 156.543C151.007 156.543 161.449 160.359 170.841 166.843C171.8 167.504 172.513 168.471 172.786 169.603C175.085 179.128 173.471 194.922 173.471 194.922L163.518 188.054L161.228 186.348L161.642 178.44L158.68 169.251" stroke="#03092D" stroke-linecap="round" stroke-linejoin="round"/>
<path d="M136.501 161.486C137.327 162.77 139.762 167.564 138.848 185.008" stroke="#03092D" stroke-linecap="round" stroke-linejoin="round"/>
<path d="M149.413 160.426C149.913 161.144 151.648 167.604 152.345 184.481" stroke="#03092D" stroke-linecap="round" stroke-linejoin="round"/>
</g>
<rect x="102.919" y="50.2648" width="104.629" height="18.2257" rx="2.42592" transform="rotate(3 102.919 50.2648)" stroke="#03092D" stroke-width="0.774306"/>
<path d="M111.604 62.5088C110.137 62.4319 109.01 61.1804 109.087 59.7133C109.164 58.2463 110.416 57.1194 111.883 57.1962C113.35 57.2731 114.477 58.5247 114.4 59.9917C114.323 61.4588 113.071 62.5857 111.604 62.5088Z" fill="#FF1E1E"/>
<path d="M147.919 65.2532L145.489 58.1163L146.718 58.1806L148.163 62.5122C148.232 62.7228 148.292 62.9128 148.343 63.0824C148.401 63.2524 148.45 63.4084 148.489 63.5507C148.529 63.6863 148.565 63.815 148.599 63.937C148.633 64.0589 148.666 64.1808 148.7 64.3028L148.44 64.2991C148.495 64.1418 148.554 63.978 148.616 63.8077C148.678 63.6374 148.748 63.4508 148.825 63.2479C148.91 63.0453 149.008 62.8169 149.122 62.5624L150.892 58.3994L152.15 58.4653L148.968 65.3082L147.919 65.2532ZM152.911 65.5148L153.186 60.272L154.214 60.3259L153.939 65.5687L152.911 65.5148ZM153.746 59.1398C153.526 59.1282 153.359 59.0628 153.245 58.9433C153.131 58.8238 153.08 58.6609 153.091 58.4545C153.101 58.2615 153.169 58.1082 153.295 57.9946C153.428 57.8814 153.601 57.8304 153.814 57.8415C154.033 57.853 154.2 57.9185 154.314 58.038C154.428 58.1575 154.48 58.3204 154.469 58.5268C154.459 58.7198 154.387 58.873 154.254 58.9862C154.128 59.0997 153.959 59.1509 153.746 59.1398ZM157.702 65.866C157.223 65.8409 156.8 65.7019 156.432 65.449C156.072 65.1898 155.793 64.8514 155.594 64.4338C155.396 64.0095 155.311 63.5344 155.339 63.0084C155.366 62.4825 155.497 62.022 155.731 61.6271C155.973 61.2258 156.286 60.9185 156.671 60.705C157.056 60.4849 157.485 60.3872 157.958 60.412C158.218 60.4256 158.465 60.4819 158.7 60.581C158.942 60.6738 159.156 60.7985 159.342 60.9551C159.527 61.105 159.669 61.2693 159.766 61.448C159.871 61.6204 159.918 61.7931 159.909 61.9662L159.609 61.9705L159.792 58.4653L160.821 58.5192L160.434 65.9091L159.405 65.8552L159.471 64.6069L159.67 64.6173C159.662 64.7771 159.6 64.9341 159.485 65.0883C159.371 65.2358 159.22 65.3715 159.033 65.4952C158.853 65.6193 158.645 65.7152 158.408 65.7828C158.177 65.8509 157.942 65.8786 157.702 65.866ZM157.889 64.9846C158.202 65.001 158.482 64.9356 158.73 64.7884C158.978 64.6411 159.176 64.4345 159.323 64.1686C159.478 63.8963 159.564 63.5837 159.583 63.2308C159.601 62.878 159.548 62.5614 159.422 62.2811C159.304 61.9946 159.129 61.7651 158.898 61.5927C158.666 61.4204 158.394 61.326 158.081 61.3096C157.768 61.2932 157.488 61.3586 157.24 61.5059C156.992 61.6531 156.791 61.8628 156.636 62.1351C156.489 62.4011 156.406 62.7105 156.387 63.0634C156.369 63.4162 156.419 63.7359 156.537 64.0225C156.663 64.3028 156.841 64.5291 157.072 64.7015C157.304 64.8738 157.576 64.9682 157.889 64.9846ZM164.291 66.2113C163.752 66.1831 163.278 66.0448 162.871 65.7965C162.47 65.5418 162.161 65.2085 161.942 64.7965C161.73 64.3848 161.637 63.9193 161.665 63.4C161.686 62.9873 161.773 62.6146 161.924 62.2821C162.074 61.9495 162.273 61.6662 162.519 61.432C162.772 61.1916 163.065 61.0134 163.398 60.8973C163.738 60.775 164.101 60.7239 164.488 60.7441C164.827 60.7619 165.14 60.8451 165.426 60.9936C165.712 61.1354 165.956 61.3251 166.157 61.5626C166.365 61.8005 166.517 62.0789 166.614 62.3977C166.718 62.7102 166.757 63.0494 166.731 63.4152L166.698 63.8541L162.414 63.6296L162.227 62.7986L165.852 62.9886L165.693 63.1505L165.706 62.9109C165.697 62.6901 165.634 62.4899 165.517 62.3102C165.4 62.1304 165.247 61.9856 165.059 61.8756C164.871 61.7656 164.664 61.7047 164.438 61.6928C164.078 61.674 163.772 61.728 163.518 61.8549C163.265 61.9752 163.068 62.1651 162.927 62.4248C162.787 62.6778 162.707 62.9974 162.687 63.3835C162.668 63.7497 162.728 64.0733 162.866 64.3542C163.006 64.6286 163.211 64.8463 163.483 65.0074C163.755 65.1685 164.074 65.2587 164.44 65.2779C164.7 65.2915 164.942 65.2608 165.166 65.1857C165.397 65.111 165.648 64.9673 165.92 64.7546L166.401 65.5108C166.233 65.6622 166.029 65.7917 165.789 65.8993C165.557 66.0073 165.309 66.0911 165.045 66.1507C164.789 66.2041 164.537 66.2243 164.291 66.2113ZM170.053 66.5133C169.54 66.4864 169.087 66.3458 168.693 66.0916C168.306 65.8309 168.007 65.4915 167.795 65.0732C167.583 64.6482 167.492 64.1727 167.519 63.6468C167.547 63.1208 167.688 62.6609 167.942 62.267C168.197 61.8665 168.53 61.5601 168.941 61.3481C169.36 61.1297 169.826 61.0339 170.338 61.0608C170.844 61.0873 171.291 61.2309 171.678 61.4915C172.072 61.7458 172.374 62.0854 172.586 62.5104C172.797 62.9287 172.889 63.4008 172.862 63.9268C172.834 64.4527 172.693 64.916 172.438 65.3165C172.184 65.7104 171.848 66.0166 171.429 66.235C171.017 66.447 170.559 66.5398 170.053 66.5133ZM170.102 65.5746C170.415 65.591 170.698 65.5291 170.953 65.3889C171.207 65.242 171.412 65.0391 171.565 64.7801C171.719 64.5145 171.802 64.2117 171.813 63.8718C171.838 63.526 171.788 63.2162 171.662 62.9426C171.536 62.6623 171.354 62.4392 171.116 62.2731C170.878 62.1071 170.602 62.0159 170.289 61.9995C169.976 61.9831 169.689 62.0482 169.428 62.1947C169.173 62.3349 168.969 62.5378 168.815 62.8034C168.661 63.0624 168.579 63.3618 168.568 63.7017C168.543 64.0409 168.594 64.3506 168.719 64.6309C168.845 64.9046 169.027 65.1277 169.265 65.3004C169.51 65.4668 169.789 65.5582 170.102 65.5746ZM178.386 66.95C177.947 66.927 177.555 66.8297 177.21 66.6581C176.865 66.4865 176.584 66.2448 176.367 65.933L177.097 65.3704C177.285 65.6139 177.492 65.795 177.72 65.9137C177.954 66.0262 178.221 66.0902 178.521 66.1059C178.64 66.1122 178.751 66.1046 178.852 66.0832C178.96 66.0555 179.053 66.0136 179.129 65.9576C179.212 65.9018 179.276 65.8351 179.32 65.7573C179.364 65.6728 179.389 65.5807 179.394 65.4808C179.404 65.3077 179.348 65.1646 179.227 65.0514C179.163 65.0013 179.059 64.9458 178.915 64.8849C178.778 64.8176 178.598 64.7481 178.375 64.6764C177.994 64.5563 177.684 64.4265 177.444 64.2871C177.205 64.1477 177.022 63.9946 176.898 63.8279C176.804 63.6961 176.738 63.5558 176.699 63.4069C176.661 63.2513 176.646 63.0837 176.656 62.9039C176.667 62.6842 176.724 62.4869 176.827 62.3121C176.936 62.1309 177.078 61.9781 177.251 61.8537C177.432 61.7229 177.637 61.6269 177.867 61.5655C178.104 61.5045 178.352 61.4808 178.612 61.4944C178.858 61.5073 179.1 61.5533 179.336 61.6325C179.579 61.7119 179.8 61.8203 180 61.9576C180.199 62.095 180.365 62.2538 180.495 62.4342L179.872 63.0525C179.752 62.9194 179.618 62.8022 179.47 62.7009C179.329 62.5934 179.183 62.509 179.033 62.4477C178.882 62.3864 178.744 62.3525 178.617 62.3458C178.478 62.3385 178.351 62.3452 178.236 62.3659C178.121 62.3866 178.023 62.4215 177.94 62.4706C177.864 62.52 177.804 62.5836 177.76 62.6614C177.716 62.7392 177.691 62.828 177.686 62.9279C177.688 63.0148 177.703 63.099 177.733 63.1807C177.769 63.256 177.819 63.322 177.882 63.3788C177.953 63.4359 178.06 63.4982 178.203 63.5658C178.346 63.6334 178.53 63.6998 178.753 63.7649C179.082 63.8689 179.35 63.9797 179.557 64.0974C179.772 64.2088 179.939 64.3344 180.058 64.4741C180.185 64.6076 180.27 64.759 180.315 64.9282C180.359 65.0974 180.376 65.2852 180.365 65.4916C180.35 65.7912 180.249 66.0563 180.063 66.2869C179.885 66.5112 179.649 66.6824 179.355 66.8006C179.062 66.9187 178.739 66.9685 178.386 66.95ZM183.864 67.2371C183.325 67.2089 182.851 67.0706 182.444 66.8222C182.043 66.5676 181.733 66.2342 181.515 65.8222C181.303 65.4106 181.21 64.9451 181.237 64.4258C181.259 64.013 181.345 63.6404 181.496 63.3078C181.647 62.9753 181.846 62.6919 182.092 62.4578C182.344 62.2174 182.638 62.0391 182.971 61.9231C183.311 61.8007 183.674 61.7497 184.06 61.7699C184.4 61.7877 184.713 61.8708 184.998 62.0193C185.285 62.1612 185.529 62.3509 185.73 62.5884C185.938 62.8263 186.09 63.1046 186.187 63.4235C186.29 63.736 186.329 64.0751 186.304 64.441L186.271 64.8798L181.986 64.6553L181.8 63.8244L185.425 64.0144L185.266 64.1763L185.279 63.9366C185.27 63.7159 185.207 63.5156 185.09 63.3359C184.972 63.1562 184.82 63.0113 184.632 62.9014C184.444 62.7914 184.237 62.7305 184.011 62.7186C183.651 62.6998 183.344 62.7538 183.091 62.8807C182.837 63.0009 182.641 63.1909 182.5 63.4506C182.36 63.7036 182.28 64.0231 182.26 64.4093C182.24 64.7754 182.3 65.099 182.439 65.38C182.578 65.6543 182.784 65.8721 183.056 66.0332C183.328 66.1943 183.647 66.2844 184.013 66.3036C184.273 66.3172 184.514 66.2865 184.739 66.2115C184.97 66.1368 185.221 65.9931 185.492 65.7803L185.973 66.5366C185.805 66.688 185.602 66.8175 185.362 66.9251C185.13 67.0331 184.882 67.1169 184.618 67.1765C184.362 67.2298 184.11 67.25 183.864 67.2371ZM187.294 67.3167L187.681 59.9269L188.71 59.9808L188.322 67.3706L187.294 67.3167ZM190.349 67.4769L190.655 61.6449C190.671 61.3453 190.751 61.0825 190.897 60.8564C191.042 60.6304 191.235 60.4569 191.475 60.336C191.715 60.215 191.988 60.1626 192.294 60.1786C192.507 60.1898 192.705 60.2402 192.887 60.3299C193.069 60.4195 193.213 60.5339 193.319 60.673L192.929 61.4436C192.846 61.3592 192.753 61.2909 192.649 61.2387C192.552 61.1802 192.457 61.1485 192.364 61.1436C192.224 61.1363 192.103 61.1533 192 61.1947C191.905 61.2297 191.832 61.2926 191.78 61.3834C191.729 61.4675 191.7 61.5728 191.694 61.6993L191.388 67.5313L190.869 67.5041C190.782 67.4995 190.696 67.495 190.609 67.4905C190.522 67.4859 190.436 67.4814 190.349 67.4769ZM189.731 63.2287L189.781 62.28L192.896 62.4433L192.847 63.392L189.731 63.2287ZM193.874 67.6616L194.149 62.4188L195.178 62.4727L194.903 67.7155L193.874 67.6616ZM194.709 61.2866C194.49 61.2751 194.323 61.2096 194.209 61.0901C194.095 60.9706 194.043 60.8077 194.054 60.6013C194.064 60.4083 194.132 60.255 194.259 60.1414C194.391 60.0282 194.564 59.9772 194.777 59.9883C194.997 59.9999 195.164 60.0653 195.278 60.1848C195.392 60.3043 195.443 60.4672 195.432 60.6736C195.422 60.8666 195.351 61.0198 195.218 61.133C195.092 61.2465 194.922 61.2977 194.709 61.2866ZM198.921 68.0262C198.382 67.998 197.909 67.8597 197.501 67.6113C197.101 67.3567 196.791 67.0234 196.572 66.6114C196.36 66.1997 196.268 65.7342 196.295 65.2149C196.316 64.8022 196.403 64.4295 196.554 64.0969C196.705 63.7644 196.903 63.4811 197.149 63.2469C197.402 63.0065 197.695 62.8283 198.028 62.7122C198.368 62.5899 198.732 62.5388 199.118 62.559C199.457 62.5768 199.77 62.66 200.056 62.8085C200.342 62.9503 200.586 63.14 200.787 63.3775C200.995 63.6154 201.147 63.8937 201.244 64.2126C201.348 64.5251 201.387 64.8643 201.361 65.2301L201.328 65.669L197.044 65.4444L196.857 64.6135L200.482 64.8035L200.323 64.9654L200.336 64.7258C200.328 64.505 200.265 64.3048 200.147 64.1251C200.03 63.9453 199.877 63.8005 199.689 63.6905C199.501 63.5805 199.294 63.5196 199.068 63.5077C198.708 63.4889 198.402 63.5429 198.148 63.6698C197.895 63.7901 197.698 63.98 197.558 64.2397C197.418 64.4927 197.337 64.8123 197.317 65.1984C197.298 65.5646 197.358 65.8881 197.497 66.1691C197.636 66.4435 197.841 66.6612 198.113 66.8223C198.385 66.9834 198.704 67.0736 199.07 67.0928C199.33 67.1064 199.572 67.0757 199.796 67.0006C200.027 66.9259 200.278 66.7822 200.55 66.5695L201.031 67.3257C200.863 67.4771 200.659 67.6066 200.42 67.7142C200.187 67.8222 199.939 67.906 199.676 67.9656C199.419 68.0189 199.168 68.0392 198.921 68.0262Z" fill="#03092D"/>
<path d="M31.2042 18H125.075H130.698C136.875 18 141.881 23.0067 141.881 29.1828V34.8482V43.7204H143V65.8064H141.881V70V71.6774H143V82.5806H141.881V216.482V229.418V230.473C141.881 236.649 136.875 241.656 130.698 241.656H127.161H34.3879H28.0335C20.5025 241.656 14.3977 235.551 14.398 228.02V224.222V224.162V82.8602H12.9995V58.8172H14.398V34.8482V29.1828C14.398 23.0067 19.4047 18 25.5808 18H31.2042Z" fill="#E9EEF5" stroke="#03092D" stroke-linecap="round" stroke-linejoin="round"/>
<path d="M78.138 27.9398C76.9713 27.9398 76.0255 26.994 76.0255 25.8273C76.0255 24.6606 76.9713 23.7148 78.138 23.7148C79.3047 23.7148 80.2505 24.6606 80.2505 25.8273C80.2505 26.994 79.3047 27.9398 78.138 27.9398Z" fill="#03092D"/>
<path d="M137.407 38.6464V213.014V225.434V228.795C137.407 233.427 133.652 237.182 129.02 237.182H123.72H37.457H27.2569C22.6246 237.182 18.8695 233.427 18.8698 228.794L18.87 224.091V220.446V220.387V38.6464V30.8593C18.87 26.2272 22.625 22.4722 27.2571 22.4722H34.4968H54.1558C55.6964 22.4722 56.9453 23.7211 56.9453 25.2616C56.9453 29.8834 60.692 33.6301 65.3138 33.6301H90.7204C95.3421 33.6301 99.0888 29.8834 99.0888 25.2616C99.0888 23.7211 100.338 22.4722 101.878 22.4722H121.78H129.02C133.652 22.4722 137.407 26.2272 137.407 30.8593V38.6464Z" fill="#FAFAFA" stroke="#03092D" stroke-linecap="round" stroke-linejoin="round"/>
<path d="M34.4429 44.3345H121.533H127.119C132.867 44.3345 137.526 48.9939 137.526 54.7417V59.9547V65.3583V68.1803V69.2462V70.8013V80.9099V205.051V217.045V229.556H123.469H37.3966H18.8501L18.8507 215.749V212.228V212.172L18.8508 81.1691L18.8507 59.9547V58.8784V54.7417C18.8507 48.9939 23.5102 44.3345 29.2579 44.3345H34.4429Z" fill="white"/>
<path d="M137.526 205.051V217.045V229.556H123.469H37.3966H18.8501L18.8507 215.749V212.172V212.228L18.8508 81.1691L18.8507 58.8784V59.9547V54.7417C18.8507 48.9939 23.5102 44.3345 29.2579 44.3345H34.4429H121.533H127.119C132.867 44.3345 137.526 48.9939 137.526 54.7417V59.9547V68.1803L137.526 69.217L137.526 65.3583V69.2462V70.8013V80.9099V205.051Z" stroke="#03092D" stroke-linecap="round" stroke-linejoin="round"/>
<path d="M52.2455 111.155V103.297H55.6357C56.1297 103.297 56.5675 103.409 56.9492 103.634C57.3384 103.858 57.6452 104.165 57.8697 104.554C58.1017 104.943 58.2178 105.381 58.2178 105.868C58.2178 106.377 58.1017 106.833 57.8697 107.237C57.6452 107.634 57.3384 107.948 56.9492 108.18C56.5675 108.412 56.1297 108.528 55.6357 108.528H54.1539V111.155H52.2455ZM54.1202 106.856H55.3663C55.531 106.856 55.6806 106.815 55.8154 106.732C55.9501 106.65 56.0586 106.538 56.1409 106.395C56.2232 106.253 56.2644 106.089 56.2644 105.901C56.2644 105.707 56.2232 105.542 56.1409 105.407C56.0586 105.273 55.9501 105.168 55.8154 105.093C55.6806 105.018 55.531 104.981 55.3663 104.981H54.1202V106.856ZM61.5782 111.256C61.0768 111.256 60.6277 111.125 60.2311 110.863C59.8419 110.594 59.5313 110.227 59.2993 109.763C59.0673 109.292 58.9513 108.76 58.9513 108.169C58.9513 107.563 59.0673 107.028 59.2993 106.564C59.5313 106.1 59.8494 105.737 60.2535 105.475C60.6577 105.205 61.118 105.071 61.6344 105.071C61.9187 105.071 62.1769 105.112 62.409 105.194C62.6484 105.277 62.858 105.393 63.0376 105.542C63.2172 105.684 63.3707 105.853 63.4979 106.047C63.6251 106.234 63.7187 106.437 63.7785 106.654L63.4081 106.609V105.194H65.193V111.155H63.3744V109.718L63.7785 109.707C63.7187 109.917 63.6214 110.115 63.4867 110.302C63.352 110.489 63.1873 110.654 62.9927 110.796C62.7981 110.938 62.5811 111.05 62.3416 111.133C62.1021 111.215 61.8476 111.256 61.5782 111.256ZM62.0722 109.741C62.3491 109.741 62.5886 109.677 62.7906 109.55C62.9927 109.423 63.1499 109.243 63.2621 109.011C63.3744 108.772 63.4305 108.491 63.4305 108.169C63.4305 107.847 63.3744 107.57 63.2621 107.338C63.1499 107.099 62.9927 106.916 62.7906 106.788C62.5886 106.654 62.3491 106.586 62.0722 106.586C61.8027 106.586 61.567 106.654 61.3649 106.788C61.1703 106.916 61.0169 107.099 60.9047 107.338C60.7924 107.57 60.7363 107.847 60.7363 108.169C60.7363 108.491 60.7924 108.772 60.9047 109.011C61.0169 109.243 61.1703 109.423 61.3649 109.55C61.567 109.677 61.8027 109.741 62.0722 109.741ZM66.879 111.155V105.194H68.6752V111.155H66.879ZM67.7771 104.015C67.4403 104.015 67.1746 103.937 66.98 103.78C66.7929 103.615 66.6994 103.383 66.6994 103.084C66.6994 102.814 66.7966 102.593 66.9912 102.421C67.1858 102.249 67.4478 102.163 67.7771 102.163C68.1138 102.163 68.3758 102.245 68.5629 102.41C68.75 102.567 68.8435 102.792 68.8435 103.084C68.8435 103.361 68.7462 103.585 68.5517 103.757C68.3646 103.929 68.1064 104.015 67.7771 104.015ZM73.2031 111.268C72.5445 111.268 71.9719 111.137 71.4855 110.875C70.999 110.605 70.621 110.242 70.3516 109.786C70.0822 109.322 69.9475 108.794 69.9475 108.203C69.9475 107.746 70.0223 107.327 70.172 106.945C70.3217 106.564 70.5312 106.234 70.8007 105.958C71.0701 105.673 71.3882 105.456 71.7549 105.306C72.1291 105.149 72.537 105.071 72.9785 105.071C73.3976 105.071 73.7793 105.146 74.1236 105.295C74.4753 105.445 74.7785 105.654 75.0329 105.924C75.2874 106.193 75.482 106.511 75.6167 106.878C75.7514 107.245 75.8113 107.645 75.7963 108.079L75.7851 108.562H71.0364L70.7782 107.552H74.3257L74.1348 107.765V107.54C74.1199 107.353 74.06 107.189 73.9552 107.047C73.8579 106.897 73.7269 106.781 73.5623 106.699C73.3976 106.616 73.2105 106.575 73.001 106.575C72.7091 106.575 72.4584 106.635 72.2488 106.755C72.0468 106.867 71.8933 107.035 71.7886 107.26C71.6838 107.477 71.6314 107.746 71.6314 108.068C71.6314 108.397 71.6988 108.686 71.8335 108.933C71.9757 109.172 72.1777 109.359 72.4397 109.494C72.7091 109.629 73.0272 109.696 73.3939 109.696C73.6484 109.696 73.8729 109.658 74.0675 109.584C74.2695 109.509 74.4866 109.382 74.7186 109.202L75.5605 110.392C75.3285 110.594 75.0816 110.759 74.8196 110.886C74.5577 111.013 74.2882 111.107 74.0113 111.166C73.7419 111.234 73.4725 111.268 73.2031 111.268ZM76.9294 111.155V105.194H78.6358L78.6919 106.272L78.4562 106.283C78.546 106.089 78.6582 105.916 78.793 105.767C78.9352 105.617 79.0923 105.494 79.2645 105.396C79.4441 105.291 79.6274 105.213 79.8145 105.161C80.0091 105.108 80.2037 105.082 80.3983 105.082C80.6902 105.082 80.9559 105.127 81.1953 105.217C81.4348 105.306 81.6444 105.452 81.824 105.654C82.0036 105.849 82.1458 106.115 82.2506 106.452L81.97 106.429L82.0598 106.249C82.1571 106.07 82.2805 105.909 82.4302 105.767C82.5874 105.617 82.7595 105.494 82.9466 105.396C83.1337 105.291 83.3283 105.213 83.5304 105.161C83.7325 105.108 83.927 105.082 84.1141 105.082C84.5856 105.082 84.9786 105.175 85.2929 105.363C85.6072 105.542 85.843 105.815 86.0001 106.182C86.1648 106.549 86.2471 106.994 86.2471 107.518V111.155H84.4397V107.664C84.4397 107.424 84.406 107.226 84.3387 107.069C84.2713 106.912 84.1703 106.796 84.0356 106.721C83.9083 106.639 83.7474 106.597 83.5528 106.597C83.3957 106.597 83.2497 106.624 83.115 106.676C82.9878 106.728 82.8755 106.8 82.7782 106.889C82.6884 106.979 82.6173 107.084 82.5649 107.204C82.5125 107.323 82.4864 107.458 82.4864 107.608V111.155H80.6789V107.653C80.6789 107.428 80.6453 107.237 80.5779 107.08C80.5106 106.923 80.4095 106.803 80.2748 106.721C80.1401 106.639 79.9829 106.597 79.8033 106.597C79.6461 106.597 79.5002 106.624 79.3655 106.676C79.2383 106.728 79.126 106.8 79.0287 106.889C78.9389 106.979 78.8678 107.084 78.8154 107.204C78.763 107.323 78.7368 107.454 78.7368 107.597V111.155H76.9294ZM90.5794 111.268C89.9208 111.268 89.3483 111.137 88.8618 110.875C88.3754 110.605 87.9974 110.242 87.728 109.786C87.4586 109.322 87.3238 108.794 87.3238 108.203C87.3238 107.746 87.3987 107.327 87.5484 106.945C87.6981 106.564 87.9076 106.234 88.177 105.958C88.4465 105.673 88.7645 105.456 89.1313 105.306C89.5055 105.149 89.9133 105.071 90.3549 105.071C90.774 105.071 91.1557 105.146 91.5 105.295C91.8517 105.445 92.1548 105.654 92.4093 105.924C92.6637 106.193 92.8583 106.511 92.993 106.878C93.1278 107.245 93.1876 107.645 93.1727 108.079L93.1614 108.562H88.4128L88.1546 107.552H91.702L91.5112 107.765V107.54C91.4962 107.353 91.4364 107.189 91.3316 107.047C91.2343 106.897 91.1033 106.781 90.9387 106.699C90.774 106.616 90.5869 106.575 90.3774 106.575C90.0855 106.575 89.8348 106.635 89.6252 106.755C89.4231 106.867 89.2697 107.035 89.1649 107.26C89.0602 107.477 89.0078 107.746 89.0078 108.068C89.0078 108.397 89.0751 108.686 89.2098 108.933C89.352 109.172 89.5541 109.359 89.816 109.494C90.0855 109.629 90.4036 109.696 90.7703 109.696C91.0247 109.696 91.2493 109.658 91.4438 109.584C91.6459 109.509 91.8629 109.382 92.095 109.202L92.9369 110.392C92.7049 110.594 92.4579 110.759 92.196 110.886C91.934 111.013 91.6646 111.107 91.3877 111.166C91.1183 111.234 90.8489 111.268 90.5794 111.268ZM94.317 111.155V105.194H96.0234L96.0795 106.407L95.7203 106.541C95.8026 106.272 95.9486 106.029 96.1581 105.812C96.3751 105.587 96.6333 105.407 96.9327 105.273C97.2321 105.138 97.5464 105.071 97.8757 105.071C98.3247 105.071 98.7027 105.164 99.0095 105.351C99.3164 105.531 99.5484 105.804 99.7056 106.171C99.8627 106.53 99.9413 106.972 99.9413 107.496V111.155H98.1339V107.641C98.1339 107.402 98.1002 107.204 98.0329 107.047C97.9655 106.889 97.8607 106.773 97.7185 106.699C97.5838 106.616 97.4154 106.579 97.2134 106.586C97.0562 106.586 96.9103 106.612 96.7755 106.665C96.6408 106.71 96.5248 106.781 96.4275 106.878C96.3302 106.968 96.2517 107.073 96.1918 107.192C96.1394 107.312 96.1132 107.443 96.1132 107.585V111.155H95.2263C95.0168 111.155 94.8372 111.155 94.6875 111.155C94.5378 111.155 94.4143 111.155 94.317 111.155ZM101.937 111.155V103.69H103.733V111.155H101.937ZM100.882 106.766V105.194H104.889V106.766H100.882ZM51.7412 124.155L49.249 118.194H51.236L52.7179 122.651L52.2801 122.696L53.8068 118.194H55.7714L53.1557 124.155H51.7412ZM58.7443 124.256C58.2428 124.256 57.7938 124.125 57.3971 123.863C57.008 123.594 56.6974 123.227 56.4654 122.763C56.2334 122.292 56.1174 121.76 56.1174 121.169C56.1174 120.563 56.2334 120.028 56.4654 119.564C56.6974 119.1 57.0155 118.737 57.4196 118.475C57.8237 118.205 58.284 118.071 58.8004 118.071C59.0848 118.071 59.343 118.112 59.575 118.194C59.8145 118.277 60.0241 118.393 60.2037 118.542C60.3833 118.684 60.5367 118.853 60.664 119.047C60.7912 119.234 60.8847 119.437 60.9446 119.654L60.5741 119.609V118.194H62.3591V124.155H60.5405V122.718L60.9446 122.707C60.8847 122.917 60.7874 123.115 60.6527 123.302C60.518 123.489 60.3534 123.654 60.1588 123.796C59.9642 123.938 59.7471 124.05 59.5077 124.133C59.2682 124.215 59.0137 124.256 58.7443 124.256ZM59.2382 122.741C59.5151 122.741 59.7546 122.677 59.9567 122.55C60.1588 122.423 60.3159 122.243 60.4282 122.011C60.5405 121.772 60.5966 121.491 60.5966 121.169C60.5966 120.847 60.5405 120.57 60.4282 120.338C60.3159 120.099 60.1588 119.916 59.9567 119.788C59.7546 119.654 59.5151 119.586 59.2382 119.586C58.9688 119.586 58.7331 119.654 58.531 119.788C58.3364 119.916 58.183 120.099 58.0707 120.338C57.9585 120.57 57.9023 120.847 57.9023 121.169C57.9023 121.491 57.9585 121.772 58.0707 122.011C58.183 122.243 58.3364 122.423 58.531 122.55C58.7331 122.677 58.9688 122.741 59.2382 122.741ZM63.9552 124.155V115.848H65.7514V124.155H63.9552ZM67.4545 124.155V118.194H69.2507V124.155H67.4545ZM68.3526 117.015C68.0158 117.015 67.7501 116.937 67.5556 116.78C67.3685 116.615 67.2749 116.383 67.2749 116.084C67.2749 115.814 67.3722 115.593 67.5668 115.421C67.7614 115.249 68.0233 115.163 68.3526 115.163C68.6894 115.163 68.9513 115.245 69.1384 115.41C69.3255 115.567 69.4191 115.792 69.4191 116.084C69.4191 116.361 69.3218 116.585 69.1272 116.757C68.9401 116.929 68.6819 117.015 68.3526 117.015ZM73.1948 124.279C72.6784 124.279 72.2182 124.148 71.814 123.886C71.4174 123.616 71.103 123.25 70.871 122.786C70.639 122.314 70.523 121.779 70.523 121.18C70.523 120.582 70.639 120.05 70.871 119.586C71.103 119.115 71.4211 118.744 71.8253 118.475C72.2294 118.205 72.6934 118.071 73.2173 118.071C73.4867 118.071 73.7449 118.112 73.9919 118.194C74.2389 118.277 74.4634 118.389 74.6655 118.531C74.8675 118.673 75.0322 118.838 75.1594 119.025C75.2866 119.205 75.3615 119.392 75.3839 119.586L74.9573 119.687V115.848H76.7648V124.155H75.0921L74.991 122.797L75.3503 122.853C75.3278 123.04 75.253 123.22 75.1257 123.392C75.006 123.564 74.8488 123.717 74.6542 123.852C74.4597 123.979 74.2351 124.08 73.9807 124.155C73.7337 124.238 73.4718 124.279 73.1948 124.279ZM73.6551 122.786C73.932 122.786 74.1715 122.718 74.3736 122.584C74.5757 122.449 74.7291 122.262 74.8339 122.022C74.9461 121.783 75.0023 121.502 75.0023 121.18C75.0023 120.851 74.9461 120.567 74.8339 120.327C74.7291 120.088 74.5757 119.901 74.3736 119.766C74.1715 119.631 73.932 119.564 73.6551 119.564C73.3782 119.564 73.1387 119.631 72.9366 119.766C72.7421 119.901 72.5886 120.088 72.4764 120.327C72.3641 120.567 72.308 120.851 72.308 121.18C72.308 121.502 72.3641 121.783 72.4764 122.022C72.5886 122.262 72.7421 122.449 72.9366 122.584C73.1387 122.718 73.3782 122.786 73.6551 122.786ZM80.4839 124.256C79.9825 124.256 79.5335 124.125 79.1368 123.863C78.7476 123.594 78.437 123.227 78.205 122.763C77.973 122.292 77.857 121.76 77.857 121.169C77.857 120.563 77.973 120.028 78.205 119.564C78.437 119.1 78.7551 118.737 79.1593 118.475C79.5634 118.205 80.0237 118.071 80.5401 118.071C80.8245 118.071 81.0827 118.112 81.3147 118.194C81.5542 118.277 81.7637 118.393 81.9433 118.542C82.123 118.684 82.2764 118.853 82.4036 119.047C82.5308 119.234 82.6244 119.437 82.6843 119.654L82.3138 119.609V118.194H84.0987V124.155H82.2801V122.718L82.6843 122.707C82.6244 122.917 82.5271 123.115 82.3924 123.302C82.2577 123.489 82.093 123.654 81.8984 123.796C81.7038 123.938 81.4868 124.05 81.2473 124.133C81.0078 124.215 80.7534 124.256 80.4839 124.256ZM80.9779 122.741C81.2548 122.741 81.4943 122.677 81.6964 122.55C81.8984 122.423 82.0556 122.243 82.1679 122.011C82.2801 121.772 82.3362 121.491 82.3362 121.169C82.3362 120.847 82.2801 120.57 82.1679 120.338C82.0556 120.099 81.8984 119.916 81.6964 119.788C81.4943 119.654 81.2548 119.586 80.9779 119.586C80.7085 119.586 80.4727 119.654 80.2706 119.788C80.0761 119.916 79.9226 120.099 79.8104 120.338C79.6981 120.57 79.642 120.847 79.642 121.169C79.642 121.491 79.6981 121.772 79.8104 122.011C79.9226 122.243 80.0761 122.423 80.2706 122.55C80.4727 122.677 80.7085 122.741 80.9779 122.741ZM86.1776 124.155V116.69H87.9738V124.155H86.1776ZM85.1223 119.766V118.194H89.1301V119.766H85.1223ZM90.2576 124.155V118.194H92.0538V124.155H90.2576ZM91.1557 117.015C90.8189 117.015 90.5532 116.937 90.3586 116.78C90.1715 116.615 90.078 116.383 90.078 116.084C90.078 115.814 90.1753 115.593 90.3699 115.421C90.5644 115.249 90.8264 115.163 91.1557 115.163C91.4925 115.163 91.7544 115.245 91.9415 115.41C92.1286 115.567 92.2222 115.792 92.2222 116.084C92.2222 116.361 92.1249 116.585 91.9303 116.757C91.7432 116.929 91.485 117.015 91.1557 117.015ZM96.548 124.268C95.9268 124.268 95.373 124.133 94.8865 123.863C94.4075 123.594 94.0259 123.227 93.7415 122.763C93.4646 122.299 93.3261 121.768 93.3261 121.169C93.3261 120.57 93.4646 120.039 93.7415 119.575C94.0259 119.111 94.4075 118.744 94.8865 118.475C95.373 118.205 95.9268 118.071 96.548 118.071C97.1692 118.071 97.7193 118.205 98.1982 118.475C98.6847 118.744 99.0664 119.111 99.3433 119.575C99.6202 120.039 99.7587 120.57 99.7587 121.169C99.7587 121.768 99.6202 122.299 99.3433 122.763C99.0664 123.227 98.6847 123.594 98.1982 123.863C97.7193 124.133 97.1692 124.268 96.548 124.268ZM96.548 122.718C96.8174 122.718 97.0569 122.651 97.2665 122.516C97.476 122.382 97.6407 122.198 97.7604 121.966C97.8802 121.734 97.9363 121.468 97.9288 121.169C97.9363 120.87 97.8802 120.604 97.7604 120.372C97.6407 120.133 97.476 119.945 97.2665 119.811C97.0569 119.676 96.8174 119.609 96.548 119.609C96.2786 119.609 96.0353 119.676 95.8183 119.811C95.6087 119.945 95.4441 120.133 95.3243 120.372C95.2046 120.604 95.1485 120.87 95.156 121.169C95.1485 121.468 95.2046 121.734 95.3243 121.966C95.4441 122.198 95.6087 122.382 95.8183 122.516C96.0353 122.651 96.2786 122.718 96.548 122.718ZM100.933 124.155V118.194H102.64L102.696 119.407L102.336 119.541C102.419 119.272 102.565 119.029 102.774 118.812C102.991 118.587 103.25 118.407 103.549 118.273C103.848 118.138 104.163 118.071 104.492 118.071C104.941 118.071 105.319 118.164 105.626 118.351C105.933 118.531 106.165 118.804 106.322 119.171C106.479 119.53 106.557 119.972 106.557 120.496V124.155H104.75V120.641C104.75 120.402 104.716 120.204 104.649 120.047C104.582 119.889 104.477 119.773 104.335 119.699C104.2 119.616 104.032 119.579 103.83 119.586C103.672 119.586 103.526 119.612 103.392 119.665C103.257 119.71 103.141 119.781 103.044 119.878C102.946 119.968 102.868 120.073 102.808 120.192C102.756 120.312 102.729 120.443 102.729 120.585V124.155H101.843C101.633 124.155 101.453 124.155 101.304 124.155C101.154 124.155 101.03 124.155 100.933 124.155ZM57.6677 137.155V131.194H59.374L59.4526 133.136L59.1158 132.766C59.2057 132.444 59.3516 132.156 59.5537 131.901C59.7632 131.647 60.0064 131.445 60.2834 131.295C60.5603 131.146 60.8559 131.071 61.1702 131.071C61.3049 131.071 61.4284 131.082 61.5407 131.104C61.6604 131.127 61.7689 131.153 61.8662 131.183L61.3723 133.17C61.29 133.118 61.1777 133.076 61.0355 133.047C60.9008 133.009 60.7586 132.99 60.6089 132.99C60.4443 132.99 60.2908 133.02 60.1486 133.08C60.0064 133.133 59.8867 133.211 59.7894 133.316C59.6921 133.421 59.6135 133.544 59.5537 133.686C59.5013 133.829 59.4751 133.99 59.4751 134.169V137.155H57.6677ZM65.3645 137.268C64.7059 137.268 64.1334 137.137 63.6469 136.875C63.1604 136.605 62.7825 136.242 62.5131 135.786C62.2436 135.322 62.1089 134.794 62.1089 134.203C62.1089 133.746 62.1838 133.327 62.3334 132.945C62.4831 132.564 62.6927 132.234 62.9621 131.958C63.2315 131.673 63.5496 131.456 63.9163 131.306C64.2905 131.149 64.6984 131.071 65.14 131.071C65.5591 131.071 65.9408 131.146 66.285 131.295C66.6368 131.445 66.9399 131.654 67.1944 131.924C67.4488 132.193 67.6434 132.511 67.7781 132.878C67.9128 133.245 67.9727 133.645 67.9577 134.079L67.9465 134.562H63.1979L62.9397 133.552H66.4871L66.2963 133.765V133.54C66.2813 133.353 66.2214 133.189 66.1166 133.047C66.0194 132.897 65.8884 132.781 65.7237 132.699C65.5591 132.616 65.372 132.575 65.1624 132.575C64.8705 132.575 64.6198 132.635 64.4103 132.755C64.2082 132.867 64.0548 133.035 63.95 133.26C63.8452 133.477 63.7928 133.746 63.7928 134.068C63.7928 134.397 63.8602 134.686 63.9949 134.933C64.1371 135.172 64.3392 135.359 64.6011 135.494C64.8705 135.629 65.1886 135.696 65.5553 135.696C65.8098 135.696 66.0343 135.658 66.2289 135.584C66.431 135.509 66.648 135.382 66.88 135.202L67.722 136.392C67.49 136.594 67.243 136.759 66.9811 136.886C66.7191 137.013 66.4497 137.107 66.1728 137.166C65.9034 137.234 65.6339 137.268 65.3645 137.268ZM73.0874 139.625V135.718L73.4803 135.808C73.4503 135.995 73.3718 136.179 73.2445 136.358C73.1173 136.53 72.9564 136.684 72.7618 136.818C72.5747 136.953 72.3614 137.062 72.1219 137.144C71.8824 137.219 71.6355 137.256 71.381 137.256C70.8571 137.256 70.3931 137.125 69.989 136.863C69.5848 136.594 69.2667 136.227 69.0347 135.763C68.8027 135.299 68.6867 134.768 68.6867 134.169C68.6867 133.563 68.799 133.028 69.0235 132.564C69.2555 132.1 69.5698 131.737 69.9665 131.475C70.3706 131.205 70.8234 131.071 71.3249 131.071C71.6093 131.071 71.8787 131.112 72.1331 131.194C72.3876 131.277 72.6159 131.385 72.8179 131.52C73.02 131.654 73.1847 131.812 73.3119 131.991C73.4391 132.163 73.5102 132.347 73.5252 132.541L73.121 132.609L73.1884 131.194H74.8948V139.625H73.0874ZM71.7851 135.741C72.062 135.741 72.3015 135.677 72.5036 135.55C72.7057 135.423 72.8628 135.243 72.9751 135.011C73.0874 134.772 73.1435 134.491 73.1435 134.169C73.1435 133.847 73.0874 133.57 72.9751 133.338C72.8628 133.099 72.7057 132.916 72.5036 132.788C72.3015 132.654 72.062 132.586 71.7851 132.586C71.5157 132.586 71.28 132.654 71.0779 132.788C70.8758 132.916 70.7187 133.099 70.6064 133.338C70.5016 133.578 70.4492 133.855 70.4492 134.169C70.4492 134.491 70.5016 134.772 70.6064 135.011C70.7187 135.243 70.8758 135.423 71.0779 135.55C71.28 135.677 71.5157 135.741 71.7851 135.741ZM78.5231 137.279C78.0815 137.279 77.7036 137.185 77.3893 136.998C77.0824 136.804 76.8429 136.527 76.6708 136.167C76.5061 135.808 76.4238 135.378 76.4238 134.876V131.194H78.2312V134.629C78.2312 134.869 78.2686 135.075 78.3435 135.247C78.4183 135.419 78.5306 135.554 78.6803 135.651C78.8299 135.741 79.0096 135.786 79.2191 135.786C79.3763 135.786 79.5185 135.759 79.6457 135.707C79.7804 135.655 79.8927 135.584 79.9825 135.494C80.0798 135.397 80.1546 135.288 80.207 135.168C80.2594 135.041 80.2856 134.903 80.2856 134.753V131.194H82.093V137.155H80.3979L80.3193 135.932L80.6561 135.797C80.5662 136.081 80.4166 136.336 80.207 136.56C79.9975 136.777 79.7467 136.953 79.4549 137.088C79.163 137.215 78.8524 137.279 78.5231 137.279ZM86.5341 137.268C85.8755 137.268 85.3029 137.137 84.8165 136.875C84.33 136.605 83.9521 136.242 83.6826 135.786C83.4132 135.322 83.2785 134.794 83.2785 134.203C83.2785 133.746 83.3533 133.327 83.503 132.945C83.6527 132.564 83.8623 132.234 84.1317 131.958C84.4011 131.673 84.7192 131.456 85.0859 131.306C85.4601 131.149 85.868 131.071 86.3096 131.071C86.7287 131.071 87.1103 131.146 87.4546 131.295C87.8064 131.445 88.1095 131.654 88.3639 131.924C88.6184 132.193 88.813 132.511 88.9477 132.878C89.0824 133.245 89.1423 133.645 89.1273 134.079L89.1161 134.562H84.3674L84.1092 133.552H87.6567L87.4658 133.765V133.54C87.4509 133.353 87.391 133.189 87.2862 133.047C87.1889 132.897 87.058 132.781 86.8933 132.699C86.7287 132.616 86.5416 132.575 86.332 132.575C86.0401 132.575 85.7894 132.635 85.5799 132.755C85.3778 132.867 85.2244 133.035 85.1196 133.26C85.0148 133.477 84.9624 133.746 84.9624 134.068C84.9624 134.397 85.0298 134.686 85.1645 134.933C85.3067 135.172 85.5088 135.359 85.7707 135.494C86.0401 135.629 86.3582 135.696 86.7249 135.696C86.9794 135.696 87.2039 135.658 87.3985 135.584C87.6006 135.509 87.8176 135.382 88.0496 135.202L88.8916 136.392C88.6596 136.594 88.4126 136.759 88.1506 136.886C87.8887 137.013 87.6193 137.107 87.3424 137.166C87.0729 137.234 86.8035 137.268 86.5341 137.268ZM92.2811 137.268C91.6974 137.268 91.181 137.174 90.7319 136.987C90.2904 136.8 89.9386 136.549 89.6767 136.235L90.7656 135.292C90.9976 135.524 91.2596 135.696 91.5515 135.808C91.8433 135.913 92.1202 135.965 92.3822 135.965C92.487 135.965 92.5805 135.954 92.6628 135.932C92.7452 135.909 92.8125 135.879 92.8649 135.842C92.9248 135.797 92.9697 135.748 92.9996 135.696C93.0296 135.636 93.0445 135.569 93.0445 135.494C93.0445 135.344 92.9772 135.228 92.8425 135.146C92.7751 135.108 92.6628 135.063 92.5057 135.011C92.3485 134.959 92.1464 134.899 91.8995 134.831C91.5477 134.742 91.2409 134.637 90.9789 134.517C90.7245 134.39 90.5149 134.244 90.3503 134.079C90.2006 133.922 90.0846 133.75 90.0022 133.563C89.9199 133.368 89.8788 133.151 89.8788 132.912C89.8788 132.635 89.9424 132.384 90.0696 132.16C90.2043 131.935 90.3802 131.741 90.5972 131.576C90.8218 131.411 91.0762 131.288 91.3606 131.205C91.6525 131.116 91.9518 131.071 92.2587 131.071C92.588 131.071 92.9023 131.108 93.2017 131.183C93.5011 131.258 93.778 131.363 94.0324 131.497C94.2944 131.632 94.5264 131.793 94.7284 131.98L93.7854 133.035C93.6507 132.908 93.4973 132.796 93.3252 132.699C93.1605 132.594 92.9884 132.511 92.8088 132.452C92.6292 132.392 92.4645 132.362 92.3148 132.362C92.2026 132.362 92.1015 132.373 92.0117 132.395C91.9294 132.41 91.8583 132.44 91.7984 132.485C91.7386 132.523 91.6936 132.571 91.6637 132.631C91.6338 132.684 91.6188 132.747 91.6188 132.822C91.6188 132.897 91.6375 132.968 91.6749 133.035C91.7198 133.103 91.7797 133.159 91.8546 133.204C91.9294 133.249 92.0491 133.301 92.2138 133.361C92.3784 133.413 92.603 133.481 92.8874 133.563C93.2391 133.66 93.5422 133.769 93.7967 133.888C94.0511 134.008 94.2532 134.15 94.4029 134.315C94.5226 134.442 94.6124 134.592 94.6723 134.764C94.7322 134.929 94.7621 135.108 94.7621 135.303C94.7621 135.685 94.6536 136.025 94.4366 136.325C94.227 136.616 93.9351 136.848 93.5609 137.021C93.1867 137.185 92.7601 137.268 92.2811 137.268ZM96.3239 137.155V129.69H98.12V137.155H96.3239ZM95.2686 132.766V131.194H99.2763V132.766H95.2686Z" fill="#03092D"/>
<path d="M59.8005 167.573V154.865L61.8437 154.91L56.1632 161.87L55.6244 161.196H66.0422V164.34H53.918L52.3913 161.398L60.4067 151.721H63.4827V167.573H59.8005ZM74.3969 167.797C72.9899 167.797 71.785 167.475 70.7821 166.832C69.7942 166.188 69.0383 165.268 68.5144 164.07C67.9905 162.858 67.7286 161.406 67.7286 159.714C67.7286 158.023 67.9905 156.579 68.5144 155.381C69.0383 154.169 69.7942 153.241 70.7821 152.597C71.785 151.953 72.9899 151.632 74.3969 151.632C75.8039 151.632 77.0089 151.953 78.0117 152.597C79.0146 153.241 79.778 154.169 80.3019 155.381C80.8257 156.579 81.0877 158.023 81.0877 159.714C81.0877 161.406 80.8257 162.858 80.3019 164.07C79.778 165.268 79.0146 166.188 78.0117 166.832C77.0089 167.475 75.8039 167.797 74.3969 167.797ZM74.3969 164.564C75.3699 164.564 76.1183 164.145 76.6421 163.307C77.181 162.469 77.4504 161.271 77.4504 159.714C77.4504 158.113 77.181 156.885 76.6421 156.032C76.1183 155.164 75.3699 154.73 74.3969 154.73C73.424 154.73 72.6681 155.164 72.1292 156.032C71.6054 156.885 71.3434 158.113 71.3434 159.714C71.3434 161.271 71.6054 162.469 72.1292 163.307C72.6681 164.145 73.424 164.564 74.3969 164.564ZM99.4338 167.797C98.2513 167.797 97.1512 167.603 96.1333 167.214C95.1305 166.809 94.2623 166.248 93.5289 165.53C92.7954 164.796 92.2266 163.935 91.8225 162.948C91.4184 161.945 91.2163 160.845 91.2163 159.647C91.2163 158.465 91.4184 157.387 91.8225 156.414C92.2266 155.426 92.7954 154.573 93.5289 153.854C94.2773 153.121 95.1529 152.552 96.1558 152.148C97.1587 151.744 98.2513 151.542 99.4338 151.542C99.9577 151.542 100.452 151.579 100.916 151.654C101.395 151.729 101.859 151.856 102.308 152.036C102.757 152.215 103.198 152.447 103.632 152.732L101.814 155.718C101.365 155.404 100.923 155.194 100.489 155.089C100.07 154.97 99.6359 154.91 99.1868 154.91C98.5731 154.91 98.0118 155.029 97.5029 155.269C96.994 155.493 96.5524 155.823 96.1782 156.257C95.804 156.676 95.5122 157.177 95.3026 157.761C95.093 158.33 94.9883 158.959 94.9883 159.647C94.9883 160.351 95.093 161.002 95.3026 161.6C95.5122 162.184 95.7965 162.686 96.1558 163.105C96.53 163.524 96.9715 163.853 97.4805 164.093C97.9894 164.317 98.5582 164.429 99.1868 164.429C99.5161 164.429 99.823 164.407 100.107 164.362C100.392 164.317 100.676 164.235 100.961 164.115C101.245 163.995 101.537 163.823 101.836 163.599L103.543 166.652C103.108 166.922 102.667 167.146 102.218 167.326C101.769 167.49 101.312 167.61 100.848 167.685C100.384 167.76 99.9128 167.797 99.4338 167.797ZM89.5773 161.982V160.321H99.8155V161.982H89.5773ZM89.5773 159.131V157.469H99.8155V159.131H89.5773Z" fill="#2E55EC"/>
<rect x="63.3535" y="63.1694" width="29.5688" height="28.5665" rx="5.01166" fill="#E9EEF5"/>
<g clip-path="url(#clip2_1006_4136)">
<path d="M70.7061 73.6546C70.7061 73.1187 70.992 72.6235 71.4561 72.3556L77.2497 69.0102C77.7137 68.7423 78.2855 68.7424 78.7495 69.0101L84.5445 72.3558C85.0084 72.6238 85.2943 73.119 85.2943 73.6548L85.2939 80.3448C85.2939 80.8807 85.008 81.3759 84.5439 81.6439L78.7503 84.9892C78.2864 85.2571 77.7146 85.2571 77.2505 84.9893L71.4556 81.6436C70.9917 81.3756 70.7058 80.8804 70.7058 80.3447L70.7061 73.6546Z" stroke="black"/>
</g>
<rect x="26.8687" y="181.281" width="102.238" height="23.0187" rx="11.5093" fill="#2E55EC"/>
<path d="M46.1475 196.291L48.8775 189.291H50.0975L52.8075 196.291H51.4575L49.9575 192.311C49.9242 192.231 49.8775 192.104 49.8175 191.931C49.7642 191.757 49.7042 191.571 49.6375 191.371C49.5709 191.164 49.5109 190.974 49.4575 190.801C49.4042 190.621 49.3642 190.491 49.3375 190.411L49.5875 190.401C49.5475 190.534 49.5009 190.684 49.4475 190.851C49.3942 191.017 49.3375 191.191 49.2775 191.371C49.2175 191.551 49.1575 191.724 49.0975 191.891C49.0442 192.057 48.9942 192.207 48.9475 192.341L47.4475 196.291H46.1475ZM47.3875 194.691L47.8375 193.561H51.0275L51.5075 194.691H47.3875ZM55.4223 196.391C55.0423 196.391 54.7123 196.307 54.4323 196.141C54.1523 195.967 53.939 195.724 53.7923 195.411C53.6456 195.091 53.5723 194.711 53.5723 194.271V191.021H54.8023V194.011C54.8023 194.291 54.8456 194.531 54.9323 194.731C55.019 194.924 55.1456 195.074 55.3123 195.181C55.479 195.287 55.679 195.341 55.9123 195.341C56.0856 195.341 56.2423 195.314 56.3823 195.261C56.529 195.201 56.6556 195.121 56.7623 195.021C56.869 194.914 56.9523 194.791 57.0123 194.651C57.0723 194.504 57.1023 194.347 57.1023 194.181V191.021H58.3323V196.291H57.1323L57.1123 195.191L57.3323 195.071C57.2523 195.324 57.1156 195.551 56.9223 195.751C56.7356 195.944 56.5123 196.101 56.2523 196.221C55.9923 196.334 55.7156 196.391 55.4223 196.391ZM60.344 196.291V189.681H61.574V196.291H60.344ZM59.304 192.161V191.021H62.724V192.161H59.304ZM63.6607 196.291V188.891H64.8807V192.101L64.6507 192.221C64.7173 191.981 64.8473 191.764 65.0407 191.571C65.234 191.371 65.464 191.211 65.7307 191.091C65.9973 190.971 66.2707 190.911 66.5507 190.911C66.9507 190.911 67.284 190.991 67.5507 191.151C67.824 191.311 68.0273 191.551 68.1607 191.871C68.3007 192.191 68.3707 192.591 68.3707 193.071V196.291H67.1407V193.161C67.1407 192.894 67.104 192.674 67.0307 192.501C66.9573 192.321 66.844 192.191 66.6907 192.111C66.5373 192.024 66.3507 191.984 66.1307 191.991C65.9507 191.991 65.784 192.021 65.6307 192.081C65.484 192.134 65.354 192.214 65.2407 192.321C65.134 192.421 65.0473 192.537 64.9807 192.671C64.9207 192.804 64.8907 192.951 64.8907 193.111V196.291H64.2807C64.1607 196.291 64.0473 196.291 63.9407 196.291C63.8407 196.291 63.7473 196.291 63.6607 196.291ZM72.2244 196.391C71.6711 196.391 71.1811 196.274 70.7544 196.041C70.3344 195.807 70.0044 195.491 69.7644 195.091C69.5311 194.684 69.4144 194.221 69.4144 193.701C69.4144 193.287 69.4811 192.911 69.6144 192.571C69.7478 192.231 69.9311 191.937 70.1644 191.691C70.4044 191.437 70.6878 191.244 71.0144 191.111C71.3478 190.971 71.7111 190.901 72.1044 190.901C72.4511 190.901 72.7744 190.967 73.0744 191.101C73.3744 191.234 73.6344 191.417 73.8544 191.651C74.0744 191.877 74.2411 192.151 74.3544 192.471C74.4744 192.784 74.5311 193.127 74.5244 193.501L74.5144 193.931H70.2444L70.0144 193.091H73.4844L73.3244 193.261V193.041C73.3044 192.834 73.2378 192.654 73.1244 192.501C73.0111 192.341 72.8644 192.217 72.6844 192.131C72.5111 192.037 72.3178 191.991 72.1044 191.991C71.7778 191.991 71.5011 192.054 71.2744 192.181C71.0544 192.307 70.8878 192.491 70.7744 192.731C70.6611 192.964 70.6044 193.257 70.6044 193.611C70.6044 193.951 70.6744 194.247 70.8144 194.501C70.9611 194.754 71.1644 194.951 71.4244 195.091C71.6911 195.224 72.0011 195.291 72.3544 195.291C72.6011 195.291 72.8278 195.251 73.0344 195.171C73.2411 195.091 73.4644 194.947 73.7044 194.741L74.3144 195.591C74.1344 195.757 73.9278 195.901 73.6944 196.021C73.4678 196.134 73.2278 196.224 72.9744 196.291C72.7211 196.357 72.4711 196.391 72.2244 196.391ZM75.6138 196.291V191.021H76.8138L76.8338 192.101L76.6038 192.221C76.6705 191.981 76.8005 191.764 76.9938 191.571C77.1871 191.371 77.4171 191.211 77.6838 191.091C77.9505 190.971 78.2238 190.911 78.5038 190.911C78.9038 190.911 79.2371 190.991 79.5038 191.151C79.7771 191.311 79.9805 191.551 80.1138 191.871C80.2538 192.191 80.3238 192.591 80.3238 193.071V196.291H79.0938V193.161C79.0938 192.894 79.0571 192.674 78.9838 192.501C78.9105 192.321 78.7971 192.191 78.6438 192.111C78.4905 192.024 78.3038 191.984 78.0838 191.991C77.9038 191.991 77.7371 192.021 77.5838 192.081C77.4371 192.134 77.3071 192.214 77.1938 192.321C77.0871 192.421 77.0005 192.537 76.9338 192.671C76.8738 192.804 76.8438 192.951 76.8438 193.111V196.291H76.2338C76.1138 196.291 76.0005 196.291 75.8938 196.291C75.7938 196.291 75.7005 196.291 75.6138 196.291ZM82.2775 196.291V189.681H83.5075V196.291H82.2775ZM81.2375 192.161V191.021H84.6575V192.161H81.2375ZM85.7343 196.291V191.021H86.9643V196.291H85.7343ZM86.3343 189.901C86.0876 189.901 85.8943 189.841 85.7543 189.721C85.6209 189.594 85.5543 189.417 85.5543 189.191C85.5543 188.977 85.6243 188.804 85.7643 188.671C85.9043 188.537 86.0943 188.471 86.3343 188.471C86.5876 188.471 86.7809 188.534 86.9143 188.661C87.0543 188.781 87.1243 188.957 87.1243 189.191C87.1243 189.397 87.0543 189.567 86.9143 189.701C86.7743 189.834 86.5809 189.901 86.3343 189.901ZM90.784 196.391C90.2906 196.391 89.8473 196.271 89.454 196.031C89.0606 195.791 88.7506 195.464 88.524 195.051C88.2973 194.637 88.184 194.171 88.184 193.651C88.184 193.131 88.2973 192.664 88.524 192.251C88.7506 191.837 89.0606 191.511 89.454 191.271C89.8473 191.031 90.2906 190.911 90.784 190.911C91.2573 190.911 91.6873 191.001 92.074 191.181C92.4606 191.361 92.7606 191.611 92.974 191.931L92.294 192.751C92.194 192.611 92.0673 192.484 91.914 192.371C91.7606 192.257 91.5973 192.167 91.424 192.101C91.2506 192.034 91.0773 192.001 90.904 192.001C90.6106 192.001 90.3473 192.074 90.114 192.221C89.8873 192.361 89.7073 192.557 89.574 192.811C89.4406 193.057 89.374 193.337 89.374 193.651C89.374 193.964 89.4406 194.244 89.574 194.491C89.714 194.737 89.9006 194.934 90.134 195.081C90.3673 195.227 90.6273 195.301 90.914 195.301C91.0873 195.301 91.254 195.274 91.414 195.221C91.5806 195.161 91.7373 195.077 91.884 194.971C92.0306 194.864 92.1673 194.731 92.294 194.571L92.974 195.401C92.7473 195.694 92.434 195.934 92.034 196.121C91.6406 196.301 91.224 196.391 90.784 196.391ZM95.9046 196.391C95.4712 196.391 95.0779 196.271 94.7246 196.031C94.3712 195.791 94.0879 195.464 93.8746 195.051C93.6612 194.637 93.5546 194.167 93.5546 193.641C93.5546 193.114 93.6612 192.644 93.8746 192.231C94.0879 191.817 94.3779 191.494 94.7446 191.261C95.1112 191.027 95.5246 190.911 95.9846 190.911C96.2512 190.911 96.4946 190.951 96.7146 191.031C96.9346 191.104 97.1279 191.211 97.2946 191.351C97.4612 191.491 97.5979 191.651 97.7046 191.831C97.8179 192.011 97.8946 192.204 97.9346 192.411L97.6646 192.341V191.021H98.9046V196.291H97.6546V195.031L97.9446 194.981C97.8979 195.161 97.8112 195.337 97.6846 195.511C97.5646 195.677 97.4112 195.827 97.2246 195.961C97.0446 196.087 96.8412 196.191 96.6146 196.271C96.3946 196.351 96.1579 196.391 95.9046 196.391ZM96.2446 195.301C96.5312 195.301 96.7846 195.231 97.0046 195.091C97.2246 194.951 97.3946 194.757 97.5146 194.511C97.6412 194.257 97.7046 193.967 97.7046 193.641C97.7046 193.321 97.6412 193.037 97.5146 192.791C97.3946 192.544 97.2246 192.351 97.0046 192.211C96.7846 192.071 96.5312 192.001 96.2446 192.001C95.9579 192.001 95.7046 192.071 95.4846 192.211C95.2712 192.351 95.1046 192.544 94.9846 192.791C94.8646 193.037 94.8046 193.321 94.8046 193.641C94.8046 193.967 94.8646 194.257 94.9846 194.511C95.1046 194.757 95.2712 194.951 95.4846 195.091C95.7046 195.231 95.9579 195.301 96.2446 195.301ZM100.901 196.291V189.681H102.131V196.291H100.901ZM99.8606 192.161V191.021H103.281V192.161H99.8606ZM106.638 196.391C106.085 196.391 105.595 196.274 105.168 196.041C104.748 195.807 104.418 195.491 104.178 195.091C103.945 194.684 103.828 194.221 103.828 193.701C103.828 193.287 103.895 192.911 104.028 192.571C104.162 192.231 104.345 191.937 104.578 191.691C104.818 191.437 105.102 191.244 105.428 191.111C105.762 190.971 106.125 190.901 106.518 190.901C106.865 190.901 107.188 190.967 107.488 191.101C107.788 191.234 108.048 191.417 108.268 191.651C108.488 191.877 108.655 192.151 108.768 192.471C108.888 192.784 108.945 193.127 108.938 193.501L108.928 193.931H104.658L104.428 193.091H107.898L107.738 193.261V193.041C107.718 192.834 107.652 192.654 107.538 192.501C107.425 192.341 107.278 192.217 107.098 192.131C106.925 192.037 106.732 191.991 106.518 191.991C106.192 191.991 105.915 192.054 105.688 192.181C105.468 192.307 105.302 192.491 105.188 192.731C105.075 192.964 105.018 193.257 105.018 193.611C105.018 193.951 105.088 194.247 105.228 194.501C105.375 194.754 105.578 194.951 105.838 195.091C106.105 195.224 106.415 195.291 106.768 195.291C107.015 195.291 107.242 195.251 107.448 195.171C107.655 195.091 107.878 194.947 108.118 194.741L108.728 195.591C108.548 195.757 108.342 195.901 108.108 196.021C107.882 196.134 107.642 196.224 107.388 196.291C107.135 196.357 106.885 196.391 106.638 196.391Z" fill="white"/>
<path d="M65.9607 50.7495H90.0167" stroke="#03092D"/>
</g>
<defs>
<linearGradient id="paint0_linear_1006_4136" x1="162.058" y1="104.801" x2="153.203" y2="273.753" gradientUnits="userSpaceOnUse">
<stop stop-color="#AEAEFF"/>
<stop offset="1" stop-color="white" stop-opacity="0.8"/>
</linearGradient>
<clipPath id="clip0_1006_4136">
<rect width="225" height="210" fill="white"/>
</clipPath>
<clipPath id="clip1_1006_4136">
<path d="M115.067 87.0962L188.98 90.9698L186.336 141.414C185.246 162.213 167.502 178.191 146.703 177.101V177.101C126.681 176.051 111.3 158.969 112.349 138.947L115.067 87.0962Z" fill="white"/>
</clipPath>
<clipPath id="clip2_1006_4136">
<rect width="20.8836" height="17.6989" fill="white" transform="translate(67.8635 67.6802)"/>
</clipPath>
</defs>
</svg>
